<svg xmlns="http://www.w3.org/2000/svg" width="1000" height="430" viewBox="0 0 1000 430">
<rect width="100%" height="100%" fill="white"/>
<text x="500.0" y="24" text-anchor="middle" font-family="Arial" font-size="18" font-weight="700">Growth Curve: case3_name_detail</text>
<line x1="70" y1="365" x2="960" y2="365" stroke="#111827"/>
<line x1="70" y1="40" x2="70" y2="365" stroke="#111827"/>
<text x="515.0" y="412" text-anchor="middle" font-family="Arial" font-size="13">sample idx</text>
<line x1="70" y1="365.00" x2="960" y2="365.00" stroke="#e5e7eb"/>
<text x="62" y="369.00" text-anchor="end" font-family="Arial" font-size="11">0</text>
<line x1="70" y1="299.84" x2="960" y2="299.84" stroke="#e5e7eb"/>
<text x="62" y="303.84" text-anchor="end" font-family="Arial" font-size="11">80</text>
<line x1="70" y1="234.67" x2="960" y2="234.67" stroke="#e5e7eb"/>
<text x="62" y="238.67" text-anchor="end" font-family="Arial" font-size="11">160</text>
<line x1="70" y1="170.33" x2="960" y2="170.33" stroke="#e5e7eb"/>
<text x="62" y="174.33" text-anchor="end" font-family="Arial" font-size="11">239</text>
<line x1="70" y1="105.16" x2="960" y2="105.16" stroke="#e5e7eb"/>
<text x="62" y="109.16" text-anchor="end" font-family="Arial" font-size="11">319</text>
<line x1="70" y1="40.00" x2="960" y2="40.00" stroke="#e5e7eb"/>
<text x="62" y="44.00" text-anchor="end" font-family="Arial" font-size="11">399</text>
<rect x="69.00" y="342.50" width="2" height="22.50" fill="#f97316" opacity="0.35"/>
<rect x="69.76" y="275.00" width="2" height="90.00" fill="#f97316" opacity="0.35"/>
<rect x="70.53" y="342.50" width="2" height="22.50" fill="#f97316" opacity="0.35"/>
<rect x="71.29" y="297.50" width="2" height="67.50" fill="#f97316" opacity="0.35"/>
<rect x="72.82" y="342.50" width="2" height="22.50" fill="#f97316" opacity="0.35"/>
<rect x="73.59" y="320.00" width="2" height="45.00" fill="#f97316" opacity="0.35"/>
<rect x="74.35" y="275.00" width="2" height="90.00" fill="#f97316" opacity="0.35"/>
<rect x="75.12" y="342.50" width="2" height="22.50" fill="#f97316" opacity="0.35"/>
<rect x="75.88" y="320.00" width="2" height="45.00" fill="#f97316" opacity="0.35"/>
<rect x="76.65" y="320.00" width="2" height="45.00" fill="#f97316" opacity="0.35"/>
<rect x="77.41" y="275.00" width="2" height="90.00" fill="#f97316" opacity="0.35"/>
<rect x="78.94" y="320.00" width="2" height="45.00" fill="#f97316" opacity="0.35"/>
<rect x="79.70" y="342.50" width="2" height="22.50" fill="#f97316" opacity="0.35"/>
<rect x="80.47" y="320.00" width="2" height="45.00" fill="#f97316" opacity="0.35"/>
<rect x="81.23" y="320.00" width="2" height="45.00" fill="#f97316" opacity="0.35"/>
<rect x="83.53" y="342.50" width="2" height="22.50" fill="#f97316" opacity="0.35"/>
<rect x="84.29" y="320.00" width="2" height="45.00" fill="#f97316" opacity="0.35"/>
<rect x="85.82" y="297.50" width="2" height="67.50" fill="#f97316" opacity="0.35"/>
<rect x="87.35" y="342.50" width="2" height="22.50" fill="#f97316" opacity="0.35"/>
<rect x="88.12" y="320.00" width="2" height="45.00" fill="#f97316" opacity="0.35"/>
<rect x="88.88" y="342.50" width="2" height="22.50" fill="#f97316" opacity="0.35"/>
<rect x="89.64" y="342.50" width="2" height="22.50" fill="#f97316" opacity="0.35"/>
<rect x="90.41" y="342.50" width="2" height="22.50" fill="#f97316" opacity="0.35"/>
<rect x="91.17" y="342.50" width="2" height="22.50" fill="#f97316" opacity="0.35"/>
<rect x="91.94" y="320.00" width="2" height="45.00" fill="#f97316" opacity="0.35"/>
<rect x="94.23" y="275.00" width="2" height="90.00" fill="#f97316" opacity="0.35"/>
<rect x="95.00" y="342.50" width="2" height="22.50" fill="#f97316" opacity="0.35"/>
<rect x="96.53" y="342.50" width="2" height="22.50" fill="#f97316" opacity="0.35"/>
<rect x="97.29" y="342.50" width="2" height="22.50" fill="#f97316" opacity="0.35"/>
<rect x="98.05" y="342.50" width="2" height="22.50" fill="#f97316" opacity="0.35"/>
<rect x="98.82" y="320.00" width="2" height="45.00" fill="#f97316" opacity="0.35"/>
<rect x="99.58" y="320.00" width="2" height="45.00" fill="#f97316" opacity="0.35"/>
<rect x="101.11" y="342.50" width="2" height="22.50" fill="#f97316" opacity="0.35"/>
<rect x="103.41" y="320.00" width="2" height="45.00" fill="#f97316" opacity="0.35"/>
<rect x="105.70" y="297.50" width="2" height="67.50" fill="#f97316" opacity="0.35"/>
<rect x="107.23" y="342.50" width="2" height="22.50" fill="#f97316" opacity="0.35"/>
<rect x="112.58" y="342.50" width="2" height="22.50" fill="#f97316" opacity="0.35"/>
<rect x="113.35" y="320.00" width="2" height="45.00" fill="#f97316" opacity="0.35"/>
<rect x="114.88" y="320.00" width="2" height="45.00" fill="#f97316" opacity="0.35"/>
<rect x="116.41" y="342.50" width="2" height="22.50" fill="#f97316" opacity="0.35"/>
<rect x="117.93" y="320.00" width="2" height="45.00" fill="#f97316" opacity="0.35"/>
<rect x="119.46" y="320.00" width="2" height="45.00" fill="#f97316" opacity="0.35"/>
<rect x="120.23" y="342.50" width="2" height="22.50" fill="#f97316" opacity="0.35"/>
<rect x="121.76" y="320.00" width="2" height="45.00" fill="#f97316" opacity="0.35"/>
<rect x="123.29" y="342.50" width="2" height="22.50" fill="#f97316" opacity="0.35"/>
<rect x="124.05" y="342.50" width="2" height="22.50" fill="#f97316" opacity="0.35"/>
<rect x="124.82" y="342.50" width="2" height="22.50" fill="#f97316" opacity="0.35"/>
<rect x="126.35" y="342.50" width="2" height="22.50" fill="#f97316" opacity="0.35"/>
<rect x="127.11" y="342.50" width="2" height="22.50" fill="#f97316" opacity="0.35"/>
<rect x="128.64" y="320.00" width="2" height="45.00" fill="#f97316" opacity="0.35"/>
<rect x="130.17" y="342.50" width="2" height="22.50" fill="#f97316" opacity="0.35"/>
<rect x="131.70" y="320.00" width="2" height="45.00" fill="#f97316" opacity="0.35"/>
<rect x="133.99" y="342.50" width="2" height="22.50" fill="#f97316" opacity="0.35"/>
<rect x="135.52" y="342.50" width="2" height="22.50" fill="#f97316" opacity="0.35"/>
<rect x="136.29" y="342.50" width="2" height="22.50" fill="#f97316" opacity="0.35"/>
<rect x="137.81" y="275.00" width="2" height="90.00" fill="#f97316" opacity="0.35"/>
<rect x="138.58" y="342.50" width="2" height="22.50" fill="#f97316" opacity="0.35"/>
<rect x="139.34" y="320.00" width="2" height="45.00" fill="#f97316" opacity="0.35"/>
<rect x="140.11" y="342.50" width="2" height="22.50" fill="#f97316" opacity="0.35"/>
<rect x="141.64" y="320.00" width="2" height="45.00" fill="#f97316" opacity="0.35"/>
<rect x="145.46" y="297.50" width="2" height="67.50" fill="#f97316" opacity="0.35"/>
<rect x="146.99" y="320.00" width="2" height="45.00" fill="#f97316" opacity="0.35"/>
<rect x="149.28" y="342.50" width="2" height="22.50" fill="#f97316" opacity="0.35"/>
<rect x="150.81" y="320.00" width="2" height="45.00" fill="#f97316" opacity="0.35"/>
<rect x="153.87" y="320.00" width="2" height="45.00" fill="#f97316" opacity="0.35"/>
<rect x="154.64" y="320.00" width="2" height="45.00" fill="#f97316" opacity="0.35"/>
<rect x="156.93" y="342.50" width="2" height="22.50" fill="#f97316" opacity="0.35"/>
<rect x="158.46" y="320.00" width="2" height="45.00" fill="#f97316" opacity="0.35"/>
<rect x="159.22" y="342.50" width="2" height="22.50" fill="#f97316" opacity="0.35"/>
<rect x="160.75" y="342.50" width="2" height="22.50" fill="#f97316" opacity="0.35"/>
<rect x="163.81" y="342.50" width="2" height="22.50" fill="#f97316" opacity="0.35"/>
<rect x="166.87" y="342.50" width="2" height="22.50" fill="#f97316" opacity="0.35"/>
<rect x="167.63" y="320.00" width="2" height="45.00" fill="#f97316" opacity="0.35"/>
<rect x="170.69" y="342.50" width="2" height="22.50" fill="#f97316" opacity="0.35"/>
<rect x="171.46" y="342.50" width="2" height="22.50" fill="#f97316" opacity="0.35"/>
<rect x="178.34" y="320.00" width="2" height="45.00" fill="#f97316" opacity="0.35"/>
<rect x="181.40" y="342.50" width="2" height="22.50" fill="#f97316" opacity="0.35"/>
<rect x="182.93" y="320.00" width="2" height="45.00" fill="#f97316" opacity="0.35"/>
<rect x="183.69" y="342.50" width="2" height="22.50" fill="#f97316" opacity="0.35"/>
<rect x="185.22" y="342.50" width="2" height="22.50" fill="#f97316" opacity="0.35"/>
<rect x="186.75" y="297.50" width="2" height="67.50" fill="#f97316" opacity="0.35"/>
<rect x="188.28" y="342.50" width="2" height="22.50" fill="#f97316" opacity="0.35"/>
<rect x="190.57" y="342.50" width="2" height="22.50" fill="#f97316" opacity="0.35"/>
<rect x="192.87" y="297.50" width="2" height="67.50" fill="#f97316" opacity="0.35"/>
<rect x="195.16" y="320.00" width="2" height="45.00" fill="#f97316" opacity="0.35"/>
<rect x="196.69" y="342.50" width="2" height="22.50" fill="#f97316" opacity="0.35"/>
<rect x="197.45" y="342.50" width="2" height="22.50" fill="#f97316" opacity="0.35"/>
<rect x="199.75" y="342.50" width="2" height="22.50" fill="#f97316" opacity="0.35"/>
<rect x="201.28" y="342.50" width="2" height="22.50" fill="#f97316" opacity="0.35"/>
<rect x="202.04" y="342.50" width="2" height="22.50" fill="#f97316" opacity="0.35"/>
<rect x="205.86" y="342.50" width="2" height="22.50" fill="#f97316" opacity="0.35"/>
<rect x="206.63" y="342.50" width="2" height="22.50" fill="#f97316" opacity="0.35"/>
<rect x="211.98" y="342.50" width="2" height="22.50" fill="#f97316" opacity="0.35"/>
<rect x="212.75" y="320.00" width="2" height="45.00" fill="#f97316" opacity="0.35"/>
<rect x="214.27" y="342.50" width="2" height="22.50" fill="#f97316" opacity="0.35"/>
<rect x="215.80" y="342.50" width="2" height="22.50" fill="#f97316" opacity="0.35"/>
<rect x="221.16" y="320.00" width="2" height="45.00" fill="#f97316" opacity="0.35"/>
<rect x="224.21" y="342.50" width="2" height="22.50" fill="#f97316" opacity="0.35"/>
<rect x="224.98" y="320.00" width="2" height="45.00" fill="#f97316" opacity="0.35"/>
<rect x="226.51" y="342.50" width="2" height="22.50" fill="#f97316" opacity="0.35"/>
<rect x="229.57" y="342.50" width="2" height="22.50" fill="#f97316" opacity="0.35"/>
<rect x="230.33" y="342.50" width="2" height="22.50" fill="#f97316" opacity="0.35"/>
<rect x="234.15" y="342.50" width="2" height="22.50" fill="#f97316" opacity="0.35"/>
<rect x="237.98" y="297.50" width="2" height="67.50" fill="#f97316" opacity="0.35"/>
<rect x="244.09" y="342.50" width="2" height="22.50" fill="#f97316" opacity="0.35"/>
<rect x="250.21" y="275.00" width="2" height="90.00" fill="#f97316" opacity="0.35"/>
<rect x="251.74" y="342.50" width="2" height="22.50" fill="#f97316" opacity="0.35"/>
<rect x="254.03" y="320.00" width="2" height="45.00" fill="#f97316" opacity="0.35"/>
<rect x="257.09" y="342.50" width="2" height="22.50" fill="#f97316" opacity="0.35"/>
<rect x="262.45" y="342.50" width="2" height="22.50" fill="#f97316" opacity="0.35"/>
<rect x="263.21" y="342.50" width="2" height="22.50" fill="#f97316" opacity="0.35"/>
<rect x="267.80" y="342.50" width="2" height="22.50" fill="#f97316" opacity="0.35"/>
<rect x="268.56" y="342.50" width="2" height="22.50" fill="#f97316" opacity="0.35"/>
<rect x="273.15" y="342.50" width="2" height="22.50" fill="#f97316" opacity="0.35"/>
<rect x="273.91" y="342.50" width="2" height="22.50" fill="#f97316" opacity="0.35"/>
<rect x="274.68" y="342.50" width="2" height="22.50" fill="#f97316" opacity="0.35"/>
<rect x="280.80" y="342.50" width="2" height="22.50" fill="#f97316" opacity="0.35"/>
<rect x="284.62" y="320.00" width="2" height="45.00" fill="#f97316" opacity="0.35"/>
<rect x="293.03" y="297.50" width="2" height="67.50" fill="#f97316" opacity="0.35"/>
<rect x="294.56" y="342.50" width="2" height="22.50" fill="#f97316" opacity="0.35"/>
<rect x="299.15" y="342.50" width="2" height="22.50" fill="#f97316" opacity="0.35"/>
<rect x="303.73" y="342.50" width="2" height="22.50" fill="#f97316" opacity="0.35"/>
<rect x="306.79" y="342.50" width="2" height="22.50" fill="#f97316" opacity="0.35"/>
<rect x="310.62" y="342.50" width="2" height="22.50" fill="#f97316" opacity="0.35"/>
<rect x="312.91" y="342.50" width="2" height="22.50" fill="#f97316" opacity="0.35"/>
<rect x="318.26" y="320.00" width="2" height="45.00" fill="#f97316" opacity="0.35"/>
<rect x="319.03" y="342.50" width="2" height="22.50" fill="#f97316" opacity="0.35"/>
<rect x="320.55" y="320.00" width="2" height="45.00" fill="#f97316" opacity="0.35"/>
<rect x="322.85" y="342.50" width="2" height="22.50" fill="#f97316" opacity="0.35"/>
<rect x="326.67" y="342.50" width="2" height="22.50" fill="#f97316" opacity="0.35"/>
<rect x="332.79" y="342.50" width="2" height="22.50" fill="#f97316" opacity="0.35"/>
<rect x="334.32" y="342.50" width="2" height="22.50" fill="#f97316" opacity="0.35"/>
<rect x="335.85" y="342.50" width="2" height="22.50" fill="#f97316" opacity="0.35"/>
<rect x="336.61" y="342.50" width="2" height="22.50" fill="#f97316" opacity="0.35"/>
<rect x="337.38" y="342.50" width="2" height="22.50" fill="#f97316" opacity="0.35"/>
<rect x="338.14" y="342.50" width="2" height="22.50" fill="#f97316" opacity="0.35"/>
<rect x="338.91" y="342.50" width="2" height="22.50" fill="#f97316" opacity="0.35"/>
<rect x="341.20" y="342.50" width="2" height="22.50" fill="#f97316" opacity="0.35"/>
<rect x="345.02" y="342.50" width="2" height="22.50" fill="#f97316" opacity="0.35"/>
<rect x="348.85" y="320.00" width="2" height="45.00" fill="#f97316" opacity="0.35"/>
<rect x="349.61" y="342.50" width="2" height="22.50" fill="#f97316" opacity="0.35"/>
<rect x="355.73" y="342.50" width="2" height="22.50" fill="#f97316" opacity="0.35"/>
<rect x="364.14" y="342.50" width="2" height="22.50" fill="#f97316" opacity="0.35"/>
<rect x="367.20" y="342.50" width="2" height="22.50" fill="#f97316" opacity="0.35"/>
<rect x="368.73" y="320.00" width="2" height="45.00" fill="#f97316" opacity="0.35"/>
<rect x="370.25" y="342.50" width="2" height="22.50" fill="#f97316" opacity="0.35"/>
<rect x="371.78" y="342.50" width="2" height="22.50" fill="#f97316" opacity="0.35"/>
<rect x="374.08" y="342.50" width="2" height="22.50" fill="#f97316" opacity="0.35"/>
<rect x="377.14" y="342.50" width="2" height="22.50" fill="#f97316" opacity="0.35"/>
<rect x="379.43" y="342.50" width="2" height="22.50" fill="#f97316" opacity="0.35"/>
<rect x="382.49" y="342.50" width="2" height="22.50" fill="#f97316" opacity="0.35"/>
<rect x="384.78" y="342.50" width="2" height="22.50" fill="#f97316" opacity="0.35"/>
<rect x="387.84" y="342.50" width="2" height="22.50" fill="#f97316" opacity="0.35"/>
<rect x="388.60" y="342.50" width="2" height="22.50" fill="#f97316" opacity="0.35"/>
<rect x="394.72" y="342.50" width="2" height="22.50" fill="#f97316" opacity="0.35"/>
<rect x="397.02" y="342.50" width="2" height="22.50" fill="#f97316" opacity="0.35"/>
<rect x="397.78" y="342.50" width="2" height="22.50" fill="#f97316" opacity="0.35"/>
<rect x="398.54" y="342.50" width="2" height="22.50" fill="#f97316" opacity="0.35"/>
<rect x="411.54" y="342.50" width="2" height="22.50" fill="#f97316" opacity="0.35"/>
<rect x="413.84" y="342.50" width="2" height="22.50" fill="#f97316" opacity="0.35"/>
<rect x="417.66" y="342.50" width="2" height="22.50" fill="#f97316" opacity="0.35"/>
<rect x="419.95" y="342.50" width="2" height="22.50" fill="#f97316" opacity="0.35"/>
<rect x="425.31" y="320.00" width="2" height="45.00" fill="#f97316" opacity="0.35"/>
<rect x="426.84" y="342.50" width="2" height="22.50" fill="#f97316" opacity="0.35"/>
<rect x="429.89" y="342.50" width="2" height="22.50" fill="#f97316" opacity="0.35"/>
<rect x="432.95" y="342.50" width="2" height="22.50" fill="#f97316" opacity="0.35"/>
<rect x="433.72" y="342.50" width="2" height="22.50" fill="#f97316" opacity="0.35"/>
<rect x="435.25" y="342.50" width="2" height="22.50" fill="#f97316" opacity="0.35"/>
<rect x="437.54" y="342.50" width="2" height="22.50" fill="#f97316" opacity="0.35"/>
<rect x="439.83" y="342.50" width="2" height="22.50" fill="#f97316" opacity="0.35"/>
<rect x="445.95" y="342.50" width="2" height="22.50" fill="#f97316" opacity="0.35"/>
<rect x="448.24" y="342.50" width="2" height="22.50" fill="#f97316" opacity="0.35"/>
<rect x="449.77" y="342.50" width="2" height="22.50" fill="#f97316" opacity="0.35"/>
<rect x="450.54" y="342.50" width="2" height="22.50" fill="#f97316" opacity="0.35"/>
<rect x="452.07" y="297.50" width="2" height="67.50" fill="#f97316" opacity="0.35"/>
<rect x="456.65" y="342.50" width="2" height="22.50" fill="#f97316" opacity="0.35"/>
<rect x="457.42" y="342.50" width="2" height="22.50" fill="#f97316" opacity="0.35"/>
<rect x="460.48" y="342.50" width="2" height="22.50" fill="#f97316" opacity="0.35"/>
<rect x="462.01" y="342.50" width="2" height="22.50" fill="#f97316" opacity="0.35"/>
<rect x="464.30" y="342.50" width="2" height="22.50" fill="#f97316" opacity="0.35"/>
<rect x="465.07" y="342.50" width="2" height="22.50" fill="#f97316" opacity="0.35"/>
<rect x="468.89" y="320.00" width="2" height="45.00" fill="#f97316" opacity="0.35"/>
<rect x="469.65" y="342.50" width="2" height="22.50" fill="#f97316" opacity="0.35"/>
<rect x="472.71" y="342.50" width="2" height="22.50" fill="#f97316" opacity="0.35"/>
<rect x="473.48" y="342.50" width="2" height="22.50" fill="#f97316" opacity="0.35"/>
<rect x="476.53" y="342.50" width="2" height="22.50" fill="#f97316" opacity="0.35"/>
<rect x="479.59" y="342.50" width="2" height="22.50" fill="#f97316" opacity="0.35"/>
<rect x="488.00" y="342.50" width="2" height="22.50" fill="#f97316" opacity="0.35"/>
<rect x="491.83" y="342.50" width="2" height="22.50" fill="#f97316" opacity="0.35"/>
<rect x="493.36" y="342.50" width="2" height="22.50" fill="#f97316" opacity="0.35"/>
<rect x="494.12" y="342.50" width="2" height="22.50" fill="#f97316" opacity="0.35"/>
<rect x="494.88" y="342.50" width="2" height="22.50" fill="#f97316" opacity="0.35"/>
<rect x="496.41" y="342.50" width="2" height="22.50" fill="#f97316" opacity="0.35"/>
<rect x="503.30" y="342.50" width="2" height="22.50" fill="#f97316" opacity="0.35"/>
<rect x="506.35" y="342.50" width="2" height="22.50" fill="#f97316" opacity="0.35"/>
<rect x="509.41" y="342.50" width="2" height="22.50" fill="#f97316" opacity="0.35"/>
<rect x="512.47" y="342.50" width="2" height="22.50" fill="#f97316" opacity="0.35"/>
<rect x="518.59" y="342.50" width="2" height="22.50" fill="#f97316" opacity="0.35"/>
<rect x="530.06" y="342.50" width="2" height="22.50" fill="#f97316" opacity="0.35"/>
<rect x="532.35" y="342.50" width="2" height="22.50" fill="#f97316" opacity="0.35"/>
<rect x="534.64" y="342.50" width="2" height="22.50" fill="#f97316" opacity="0.35"/>
<rect x="535.41" y="342.50" width="2" height="22.50" fill="#f97316" opacity="0.35"/>
<rect x="539.23" y="320.00" width="2" height="45.00" fill="#f97316" opacity="0.35"/>
<rect x="546.11" y="320.00" width="2" height="45.00" fill="#f97316" opacity="0.35"/>
<rect x="548.41" y="342.50" width="2" height="22.50" fill="#f97316" opacity="0.35"/>
<rect x="551.47" y="342.50" width="2" height="22.50" fill="#f97316" opacity="0.35"/>
<rect x="552.99" y="342.50" width="2" height="22.50" fill="#f97316" opacity="0.35"/>
<rect x="555.29" y="342.50" width="2" height="22.50" fill="#f97316" opacity="0.35"/>
<rect x="556.82" y="342.50" width="2" height="22.50" fill="#f97316" opacity="0.35"/>
<rect x="557.58" y="342.50" width="2" height="22.50" fill="#f97316" opacity="0.35"/>
<rect x="558.35" y="342.50" width="2" height="22.50" fill="#f97316" opacity="0.35"/>
<rect x="560.64" y="320.00" width="2" height="45.00" fill="#f97316" opacity="0.35"/>
<rect x="561.41" y="342.50" width="2" height="22.50" fill="#f97316" opacity="0.35"/>
<rect x="566.76" y="342.50" width="2" height="22.50" fill="#f97316" opacity="0.35"/>
<rect x="570.58" y="342.50" width="2" height="22.50" fill="#f97316" opacity="0.35"/>
<rect x="584.34" y="342.50" width="2" height="22.50" fill="#f97316" opacity="0.35"/>
<rect x="593.52" y="342.50" width="2" height="22.50" fill="#f97316" opacity="0.35"/>
<rect x="594.28" y="342.50" width="2" height="22.50" fill="#f97316" opacity="0.35"/>
<rect x="595.05" y="342.50" width="2" height="22.50" fill="#f97316" opacity="0.35"/>
<rect x="596.58" y="342.50" width="2" height="22.50" fill="#f97316" opacity="0.35"/>
<rect x="597.34" y="342.50" width="2" height="22.50" fill="#f97316" opacity="0.35"/>
<rect x="598.87" y="342.50" width="2" height="22.50" fill="#f97316" opacity="0.35"/>
<rect x="600.40" y="342.50" width="2" height="22.50" fill="#f97316" opacity="0.35"/>
<rect x="601.93" y="342.50" width="2" height="22.50" fill="#f97316" opacity="0.35"/>
<rect x="602.69" y="320.00" width="2" height="45.00" fill="#f97316" opacity="0.35"/>
<rect x="603.46" y="342.50" width="2" height="22.50" fill="#f97316" opacity="0.35"/>
<rect x="605.75" y="342.50" width="2" height="22.50" fill="#f97316" opacity="0.35"/>
<rect x="606.52" y="342.50" width="2" height="22.50" fill="#f97316" opacity="0.35"/>
<rect x="612.63" y="342.50" width="2" height="22.50" fill="#f97316" opacity="0.35"/>
<rect x="614.16" y="342.50" width="2" height="22.50" fill="#f97316" opacity="0.35"/>
<rect x="614.93" y="342.50" width="2" height="22.50" fill="#f97316" opacity="0.35"/>
<rect x="616.46" y="342.50" width="2" height="22.50" fill="#f97316" opacity="0.35"/>
<rect x="621.04" y="342.50" width="2" height="22.50" fill="#f97316" opacity="0.35"/>
<rect x="627.16" y="342.50" width="2" height="22.50" fill="#f97316" opacity="0.35"/>
<rect x="634.04" y="342.50" width="2" height="22.50" fill="#f97316" opacity="0.35"/>
<rect x="647.81" y="320.00" width="2" height="45.00" fill="#f97316" opacity="0.35"/>
<rect x="653.92" y="342.50" width="2" height="22.50" fill="#f97316" opacity="0.35"/>
<rect x="660.80" y="342.50" width="2" height="22.50" fill="#f97316" opacity="0.35"/>
<rect x="664.63" y="342.50" width="2" height="22.50" fill="#f97316" opacity="0.35"/>
<rect x="666.92" y="342.50" width="2" height="22.50" fill="#f97316" opacity="0.35"/>
<rect x="672.27" y="342.50" width="2" height="22.50" fill="#f97316" opacity="0.35"/>
<rect x="673.04" y="320.00" width="2" height="45.00" fill="#f97316" opacity="0.35"/>
<rect x="673.80" y="342.50" width="2" height="22.50" fill="#f97316" opacity="0.35"/>
<rect x="676.10" y="342.50" width="2" height="22.50" fill="#f97316" opacity="0.35"/>
<rect x="689.09" y="342.50" width="2" height="22.50" fill="#f97316" opacity="0.35"/>
<rect x="689.86" y="342.50" width="2" height="22.50" fill="#f97316" opacity="0.35"/>
<rect x="691.39" y="342.50" width="2" height="22.50" fill="#f97316" opacity="0.35"/>
<rect x="700.56" y="342.50" width="2" height="22.50" fill="#f97316" opacity="0.35"/>
<rect x="701.33" y="342.50" width="2" height="22.50" fill="#f97316" opacity="0.35"/>
<rect x="702.86" y="342.50" width="2" height="22.50" fill="#f97316" opacity="0.35"/>
<rect x="703.62" y="342.50" width="2" height="22.50" fill="#f97316" opacity="0.35"/>
<rect x="708.21" y="342.50" width="2" height="22.50" fill="#f97316" opacity="0.35"/>
<rect x="713.56" y="342.50" width="2" height="22.50" fill="#f97316" opacity="0.35"/>
<rect x="718.15" y="342.50" width="2" height="22.50" fill="#f97316" opacity="0.35"/>
<rect x="721.21" y="342.50" width="2" height="22.50" fill="#f97316" opacity="0.35"/>
<rect x="724.27" y="342.50" width="2" height="22.50" fill="#f97316" opacity="0.35"/>
<rect x="728.09" y="342.50" width="2" height="22.50" fill="#f97316" opacity="0.35"/>
<rect x="731.15" y="320.00" width="2" height="45.00" fill="#f97316" opacity="0.35"/>
<rect x="731.91" y="342.50" width="2" height="22.50" fill="#f97316" opacity="0.35"/>
<rect x="732.68" y="342.50" width="2" height="22.50" fill="#f97316" opacity="0.35"/>
<rect x="734.97" y="297.50" width="2" height="67.50" fill="#f97316" opacity="0.35"/>
<rect x="736.50" y="342.50" width="2" height="22.50" fill="#f97316" opacity="0.35"/>
<rect x="739.56" y="342.50" width="2" height="22.50" fill="#f97316" opacity="0.35"/>
<rect x="741.85" y="342.50" width="2" height="22.50" fill="#f97316" opacity="0.35"/>
<rect x="743.38" y="342.50" width="2" height="22.50" fill="#f97316" opacity="0.35"/>
<rect x="744.91" y="342.50" width="2" height="22.50" fill="#f97316" opacity="0.35"/>
<rect x="745.68" y="342.50" width="2" height="22.50" fill="#f97316" opacity="0.35"/>
<rect x="746.44" y="342.50" width="2" height="22.50" fill="#f97316" opacity="0.35"/>
<rect x="748.73" y="342.50" width="2" height="22.50" fill="#f97316" opacity="0.35"/>
<rect x="753.32" y="342.50" width="2" height="22.50" fill="#f97316" opacity="0.35"/>
<rect x="760.20" y="342.50" width="2" height="22.50" fill="#f97316" opacity="0.35"/>
<rect x="766.32" y="342.50" width="2" height="22.50" fill="#f97316" opacity="0.35"/>
<rect x="767.85" y="320.00" width="2" height="45.00" fill="#f97316" opacity="0.35"/>
<rect x="779.32" y="342.50" width="2" height="22.50" fill="#f97316" opacity="0.35"/>
<rect x="784.67" y="342.50" width="2" height="22.50" fill="#f97316" opacity="0.35"/>
<rect x="786.96" y="342.50" width="2" height="22.50" fill="#f97316" opacity="0.35"/>
<rect x="789.26" y="342.50" width="2" height="22.50" fill="#f97316" opacity="0.35"/>
<rect x="790.02" y="342.50" width="2" height="22.50" fill="#f97316" opacity="0.35"/>
<rect x="791.55" y="342.50" width="2" height="22.50" fill="#f97316" opacity="0.35"/>
<rect x="799.20" y="342.50" width="2" height="22.50" fill="#f97316" opacity="0.35"/>
<rect x="808.37" y="342.50" width="2" height="22.50" fill="#f97316" opacity="0.35"/>
<rect x="809.14" y="342.50" width="2" height="22.50" fill="#f97316" opacity="0.35"/>
<rect x="816.02" y="342.50" width="2" height="22.50" fill="#f97316" opacity="0.35"/>
<rect x="822.90" y="342.50" width="2" height="22.50" fill="#f97316" opacity="0.35"/>
<rect x="824.43" y="320.00" width="2" height="45.00" fill="#f97316" opacity="0.35"/>
<rect x="827.49" y="342.50" width="2" height="22.50" fill="#f97316" opacity="0.35"/>
<rect x="829.78" y="342.50" width="2" height="22.50" fill="#f97316" opacity="0.35"/>
<rect x="831.31" y="342.50" width="2" height="22.50" fill="#f97316" opacity="0.35"/>
<rect x="837.43" y="342.50" width="2" height="22.50" fill="#f97316" opacity="0.35"/>
<rect x="843.54" y="342.50" width="2" height="22.50" fill="#f97316" opacity="0.35"/>
<rect x="844.31" y="342.50" width="2" height="22.50" fill="#f97316" opacity="0.35"/>
<rect x="859.60" y="342.50" width="2" height="22.50" fill="#f97316" opacity="0.35"/>
<rect x="867.25" y="275.00" width="2" height="90.00" fill="#f97316" opacity="0.35"/>
<rect x="871.07" y="342.50" width="2" height="22.50" fill="#f97316" opacity="0.35"/>
<rect x="872.60" y="342.50" width="2" height="22.50" fill="#f97316" opacity="0.35"/>
<rect x="877.19" y="342.50" width="2" height="22.50" fill="#f97316" opacity="0.35"/>
<rect x="879.48" y="342.50" width="2" height="22.50" fill="#f97316" opacity="0.35"/>
<rect x="884.83" y="342.50" width="2" height="22.50" fill="#f97316" opacity="0.35"/>
<rect x="892.48" y="320.00" width="2" height="45.00" fill="#f97316" opacity="0.35"/>
<rect x="913.89" y="342.50" width="2" height="22.50" fill="#f97316" opacity="0.35"/>
<rect x="920.01" y="320.00" width="2" height="45.00" fill="#f97316" opacity="0.35"/>
<rect x="930.71" y="342.50" width="2" height="22.50" fill="#f97316" opacity="0.35"/>
<rect x="935.30" y="342.50" width="2" height="22.50" fill="#f97316" opacity="0.35"/>
<rect x="946.00" y="342.50" width="2" height="22.50" fill="#f97316" opacity="0.35"/>
<rect x="946.77" y="342.50" width="2" height="22.50" fill="#f97316" opacity="0.35"/>
<rect x="958.24" y="342.50" width="2" height="22.50" fill="#f97316" opacity="0.35"/>
<polyline points="70.00,364.19 70.76,360.93 71.53,360.11 72.29,357.67 73.06,357.67 73.82,356.85 74.59,355.23 75.35,351.97 76.12,351.15 76.88,349.52 77.65,347.89 78.41,344.64 79.18,344.64 79.94,343.01 80.70,342.19 81.47,340.56 82.23,338.93 83.00,338.93 83.76,338.93 84.53,338.12 85.29,336.49 86.06,336.49 86.82,334.05 87.59,334.05 88.35,333.23 89.12,331.60 89.88,330.79 90.64,329.97 91.41,329.16 92.17,328.35 92.94,326.72 93.70,326.72 94.47,326.72 95.23,323.46 96.00,322.64 96.76,322.64 97.53,321.83 98.29,321.02 99.05,320.20 99.82,318.57 100.58,316.94 101.35,316.94 102.11,316.13 102.88,316.13 103.64,316.13 104.41,314.50 105.17,314.50 105.94,314.50 106.70,312.06 107.47,312.06 108.23,311.24 108.99,311.24 109.76,311.24 110.52,311.24 111.29,311.24 112.05,311.24 112.82,311.24 113.58,310.43 114.35,308.80 115.11,308.80 115.88,307.17 116.64,307.17 117.41,306.35 118.17,306.35 118.93,304.72 119.70,304.72 120.46,303.10 121.23,302.28 121.99,302.28 122.76,300.65 123.52,300.65 124.29,299.84 125.05,299.02 125.82,298.21 126.58,298.21 127.35,297.39 128.11,296.58 128.87,296.58 129.64,294.95 130.40,294.95 131.17,294.14 131.93,294.14 132.70,292.51 133.46,292.51 134.23,292.51 134.99,291.69 135.76,291.69 136.52,290.88 137.29,290.06 138.05,290.06 138.81,286.80 139.58,285.99 140.34,284.36 141.11,283.55 141.87,283.55 142.64,281.92 143.40,281.92 144.17,281.92 144.93,281.92 145.70,281.92 146.46,279.47 147.23,279.47 147.99,277.84 148.75,277.84 149.52,277.84 150.28,277.03 151.05,277.03 151.81,275.40 152.58,275.40 153.34,275.40 154.11,275.40 154.87,273.77 155.64,272.14 156.40,272.14 157.16,272.14 157.93,271.33 158.69,271.33 159.46,269.70 160.22,268.88 160.99,268.88 161.75,268.07 162.52,268.07 163.28,268.07 164.05,268.07 164.81,267.26 165.58,267.26 166.34,267.26 167.10,267.26 167.87,266.44 168.63,264.81 169.40,264.81 170.16,264.81 170.93,264.81 171.69,264.00 172.46,263.18 173.22,263.18 173.99,263.18 174.75,263.18 175.52,263.18 176.28,263.18 177.04,263.18 177.81,263.18 178.57,263.18 179.34,261.55 180.10,261.55 180.87,261.55 181.63,261.55 182.40,260.74 183.16,260.74 183.93,259.11 184.69,258.30 185.46,258.30 186.22,257.48 186.98,257.48 187.75,255.04 188.51,255.04 189.28,254.22 190.04,254.22 190.81,254.22 191.57,253.41 192.34,253.41 193.10,253.41 193.87,250.96 194.63,250.96 195.40,250.96 196.16,249.34 196.92,249.34 197.69,248.52 198.45,247.71 199.22,247.71 199.98,247.71 200.75,246.89 201.51,246.89 202.28,246.08 203.04,245.26 203.81,245.26 204.57,245.26 205.34,245.26 206.10,245.26 206.86,244.45 207.63,243.63 208.39,243.63 209.16,243.63 209.92,243.63 210.69,243.63 211.45,243.63 212.22,243.63 212.98,242.82 213.75,241.19 214.51,241.19 215.27,240.38 216.04,240.38 216.80,239.56 217.57,239.56 218.33,239.56 219.10,239.56 219.86,239.56 220.63,239.56 221.39,239.56 222.16,237.93 222.92,237.93 223.69,237.93 224.45,237.93 225.21,237.12 225.98,235.49 226.74,235.49 227.51,234.67 228.27,234.67 229.04,234.67 229.80,234.67 230.57,233.86 231.33,233.05 232.10,233.05 232.86,233.05 233.63,233.05 234.39,233.05 235.15,232.23 235.92,232.23 236.68,232.23 237.45,232.23 238.21,232.23 238.98,229.79 239.74,229.79 240.51,229.79 241.27,229.79 242.04,229.79 242.80,229.79 243.57,229.79 244.33,229.79 245.09,228.97 245.86,228.97 246.62,228.97 247.39,228.97 248.15,228.97 248.92,228.97 249.68,228.97 250.45,228.97 251.21,225.71 251.98,225.71 252.74,224.90 253.51,224.90 254.27,224.90 255.03,223.27 255.80,223.27 256.56,223.27 257.33,223.27 258.09,222.46 258.86,222.46 259.62,222.46 260.39,222.46 261.15,222.46 261.92,222.46 262.68,222.46 263.45,221.64 264.21,220.83 264.97,220.83 265.74,220.83 266.50,220.83 267.27,220.83 268.03,220.83 268.80,220.01 269.56,219.20 270.33,219.20 271.09,219.20 271.86,219.20 272.62,219.20 273.38,219.20 274.15,218.38 274.91,217.57 275.68,216.75 276.44,216.75 277.21,216.75 277.97,216.75 278.74,216.75 279.50,216.75 280.27,216.75 281.03,216.75 281.80,215.94 282.56,215.94 283.32,215.94 284.09,215.94 284.85,215.94 285.62,214.31 286.38,214.31 287.15,214.31 287.91,214.31 288.68,214.31 289.44,214.31 290.21,214.31 290.97,214.31 291.74,214.31 292.50,214.31 293.26,214.31 294.03,211.87 294.79,211.87 295.56,211.05 296.32,211.05 297.09,211.05 297.85,211.05 298.62,211.05 299.38,211.05 300.15,210.24 300.91,210.24 301.68,210.24 302.44,210.24 303.20,210.24 303.97,210.24 304.73,209.42 305.50,209.42 306.26,209.42 307.03,209.42 307.79,208.61 308.56,208.61 309.32,208.61 310.09,208.61 310.85,208.61 311.62,207.79 312.38,207.79 313.14,207.79 313.91,206.98 314.67,206.98 315.44,206.98 316.20,206.98 316.97,206.98 317.73,206.98 318.50,206.98 319.26,205.35 320.03,204.54 320.79,204.54 321.55,202.91 322.32,202.91 323.08,202.91 323.85,202.09 324.61,202.09 325.38,202.09 326.14,202.09 326.91,202.09 327.67,201.28 328.44,201.28 329.20,201.28 329.97,201.28 330.73,201.28 331.49,201.28 332.26,201.28 333.02,201.28 333.79,200.46 334.55,200.46 335.32,199.65 336.08,199.65 336.85,198.83 337.61,198.02 338.38,197.21 339.14,196.39 339.91,195.58 340.67,195.58 341.43,195.58 342.20,194.76 342.96,194.76 343.73,194.76 344.49,194.76 345.26,194.76 346.02,193.95 346.79,193.95 347.55,193.95 348.32,193.95 349.08,193.95 349.85,192.32 350.61,191.50 351.37,191.50 352.14,191.50 352.90,191.50 353.67,191.50 354.43,191.50 355.20,191.50 355.96,191.50 356.73,190.69 357.49,190.69 358.26,190.69 359.02,190.69 359.79,190.69 360.55,190.69 361.31,190.69 362.08,190.69 362.84,190.69 363.61,190.69 364.37,190.69 365.14,189.87 365.90,189.87 366.67,189.87 367.43,189.87 368.20,189.06 368.96,189.06 369.73,187.43 370.49,187.43 371.25,186.62 372.02,186.62 372.78,185.80 373.55,185.80 374.31,185.80 375.08,184.99 375.84,184.99 376.61,184.99 377.37,184.99 378.14,184.17 378.90,184.17 379.66,184.17 380.43,183.36 381.19,183.36 381.96,183.36 382.72,183.36 383.49,182.54 384.25,182.54 385.02,182.54 385.78,181.73 386.55,181.73 387.31,181.73 388.08,181.73 388.84,180.91 389.60,180.10 390.37,180.10 391.13,180.10 391.90,180.10 392.66,180.10 393.43,180.10 394.19,180.10 394.96,180.10 395.72,179.29 396.49,179.29 397.25,179.29 398.02,178.47 398.78,177.66 399.54,176.84 400.31,176.84 401.07,176.84 401.84,176.84 402.60,176.84 403.37,176.84 404.13,176.84 404.90,176.84 405.66,176.84 406.43,176.84 407.19,176.84 407.96,176.84 408.72,176.84 409.48,176.84 410.25,176.84 411.01,176.84 411.78,176.84 412.54,176.03 413.31,176.03 414.07,176.03 414.84,175.21 415.60,175.21 416.37,175.21 417.13,175.21 417.90,175.21 418.66,174.40 419.42,174.40 420.19,174.40 420.95,173.58 421.72,173.58 422.48,173.58 423.25,173.58 424.01,173.58 424.78,173.58 425.54,173.58 426.31,171.95 427.07,171.95 427.84,171.14 428.60,171.14 429.36,171.14 430.13,171.14 430.89,170.33 431.66,170.33 432.42,170.33 433.19,170.33 433.95,169.51 434.72,168.70 435.48,168.70 436.25,167.88 437.01,167.88 437.77,167.88 438.54,167.07 439.30,167.07 440.07,167.07 440.83,166.25 441.60,166.25 442.36,166.25 443.13,166.25 443.89,166.25 444.66,166.25 445.42,166.25 446.19,166.25 446.95,165.44 447.71,165.44 448.48,165.44 449.24,164.62 450.01,164.62 450.77,163.81 451.54,162.99 452.30,162.99 453.07,160.55 453.83,160.55 454.60,160.55 455.36,160.55 456.13,160.55 456.89,160.55 457.65,159.74 458.42,158.92 459.18,158.92 459.95,158.92 460.71,158.92 461.48,158.11 462.24,158.11 463.01,157.29 463.77,157.29 464.54,157.29 465.30,156.48 466.07,155.66 466.83,155.66 467.59,155.66 468.36,155.66 469.12,155.66 469.89,154.04 470.65,153.22 471.42,153.22 472.18,153.22 472.95,153.22 473.71,152.41 474.48,151.59 475.24,151.59 476.01,151.59 476.77,151.59 477.53,150.78 478.30,150.78 479.06,150.78 479.83,150.78 480.59,149.96 481.36,149.96 482.12,149.96 482.89,149.96 483.65,149.96 484.42,149.96 485.18,149.96 485.95,149.96 486.71,149.96 487.47,149.96 488.24,149.96 489.00,149.15 489.77,149.15 490.53,149.15 491.30,149.15 492.06,149.15 492.83,148.33 493.59,148.33 494.36,147.52 495.12,146.70 495.88,145.89 496.65,145.89 497.41,145.08 498.18,145.08 498.94,145.08 499.71,145.08 500.47,145.08 501.24,145.08 502.00,145.08 502.77,145.08 503.53,145.08 504.30,144.26 505.06,144.26 505.82,144.26 506.59,144.26 507.35,143.45 508.12,143.45 508.88,143.45 509.65,143.45 510.41,142.63 511.18,142.63 511.94,142.63 512.71,142.63 513.47,141.82 514.24,141.82 515.00,141.82 515.76,141.82 516.53,141.82 517.29,141.82 518.06,141.82 518.82,141.82 519.59,141.00 520.35,141.00 521.12,141.00 521.88,141.00 522.65,141.00 523.41,141.00 524.18,141.00 524.94,141.00 525.70,141.00 526.47,141.00 527.23,141.00 528.00,141.00 528.76,141.00 529.53,141.00 530.29,141.00 531.06,140.19 531.82,140.19 532.59,140.19 533.35,139.37 534.12,139.37 534.88,139.37 535.64,138.56 536.41,137.74 537.17,137.74 537.94,137.74 538.70,137.74 539.47,137.74 540.23,136.12 541.00,136.12 541.76,136.12 542.53,136.12 543.29,136.12 544.05,136.12 544.82,136.12 545.58,136.12 546.35,136.12 547.11,134.49 547.88,134.49 548.64,134.49 549.41,133.67 550.17,133.67 550.94,133.67 551.70,133.67 552.47,132.86 553.23,132.86 553.99,132.04 554.76,132.04 555.52,132.04 556.29,131.23 557.05,131.23 557.82,130.41 558.58,129.60 559.35,128.78 560.11,128.78 560.88,128.78 561.64,127.16 562.41,126.34 563.17,126.34 563.93,126.34 564.70,126.34 565.46,126.34 566.23,126.34 566.99,126.34 567.76,125.53 568.52,125.53 569.29,125.53 570.05,125.53 570.82,125.53 571.58,124.71 572.35,124.71 573.11,124.71 573.87,124.71 574.64,124.71 575.40,124.71 576.17,124.71 576.93,124.71 577.70,124.71 578.46,124.71 579.23,124.71 579.99,124.71 580.76,124.71 581.52,124.71 582.29,124.71 583.05,124.71 583.81,124.71 584.58,124.71 585.34,123.90 586.11,123.90 586.87,123.90 587.64,123.90 588.40,123.90 589.17,123.90 589.93,123.90 590.70,123.90 591.46,123.90 592.23,123.90 592.99,123.90 593.75,123.90 594.52,123.08 595.28,122.27 596.05,121.45 596.81,121.45 597.58,120.64 598.34,119.82 599.11,119.82 599.87,119.01 600.64,119.01 601.40,118.20 602.16,118.20 602.93,117.38 603.69,115.75 604.46,114.94 605.22,114.94 605.99,114.94 606.75,114.12 607.52,113.31 608.28,113.31 609.05,113.31 609.81,113.31 610.58,113.31 611.34,113.31 612.10,113.31 612.87,113.31 613.63,112.49 614.40,112.49 615.16,111.68 615.93,110.86 616.69,110.86 617.46,110.05 618.22,110.05 618.99,110.05 619.75,110.05 620.52,110.05 621.28,110.05 622.04,109.24 622.81,109.24 623.57,109.24 624.34,109.24 625.10,109.24 625.87,109.24 626.63,109.24 627.40,109.24 628.16,108.42 628.93,108.42 629.69,108.42 630.46,108.42 631.22,108.42 631.98,108.42 632.75,108.42 633.51,108.42 634.28,108.42 635.04,107.61 635.81,107.61 636.57,107.61 637.34,107.61 638.10,107.61 638.87,107.61 639.63,107.61 640.40,107.61 641.16,107.61 641.92,107.61 642.69,107.61 643.45,107.61 644.22,107.61 644.98,107.61 645.75,107.61 646.51,107.61 647.28,107.61 648.04,107.61 648.81,105.98 649.57,105.98 650.34,105.98 651.10,105.98 651.86,105.98 652.63,105.98 653.39,105.98 654.16,105.98 654.92,105.16 655.69,105.16 656.45,105.16 657.22,105.16 657.98,105.16 658.75,105.16 659.51,105.16 660.27,105.16 661.04,105.16 661.80,104.35 662.57,104.35 663.33,104.35 664.10,104.35 664.86,104.35 665.63,103.53 666.39,103.53 667.16,103.53 667.92,102.72 668.69,102.72 669.45,102.72 670.21,102.72 670.98,102.72 671.74,102.72 672.51,102.72 673.27,101.90 674.04,100.28 674.80,99.46 675.57,99.46 676.33,99.46 677.10,98.65 677.86,98.65 678.63,98.65 679.39,98.65 680.15,98.65 680.92,98.65 681.68,98.65 682.45,98.65 683.21,98.65 683.98,98.65 684.74,98.65 685.51,98.65 686.27,98.65 687.04,98.65 687.80,98.65 688.57,98.65 689.33,98.65 690.09,97.83 690.86,97.02 691.62,97.02 692.39,96.20 693.15,96.20 693.92,96.20 694.68,96.20 695.45,96.20 696.21,96.20 696.98,96.20 697.74,96.20 698.51,96.20 699.27,96.20 700.03,96.20 700.80,96.20 701.56,95.39 702.33,94.57 703.09,94.57 703.86,93.76 704.62,92.94 705.39,92.94 706.15,92.94 706.92,92.94 707.68,92.94 708.45,92.94 709.21,92.13 709.97,92.13 710.74,92.13 711.50,92.13 712.27,92.13 713.03,92.13 713.80,92.13 714.56,91.32 715.33,91.32 716.09,91.32 716.86,91.32 717.62,91.32 718.38,91.32 719.15,90.50 719.91,90.50 720.68,90.50 721.44,90.50 722.21,89.69 722.97,89.69 723.74,89.69 724.50,89.69 725.27,88.87 726.03,88.87 726.80,88.87 727.56,88.87 728.32,88.87 729.09,88.06 729.85,88.06 730.62,88.06 731.38,88.06 732.15,86.43 732.91,85.61 733.68,84.80 734.44,84.80 735.21,84.80 735.97,82.36 736.74,82.36 737.50,81.54 738.26,81.54 739.03,81.54 739.79,81.54 740.56,80.73 741.32,80.73 742.09,80.73 742.85,79.91 743.62,79.91 744.38,79.10 745.15,79.10 745.91,78.28 746.68,77.47 747.44,76.65 748.20,76.65 748.97,76.65 749.73,75.84 750.50,75.84 751.26,75.84 752.03,75.84 752.79,75.84 753.56,75.84 754.32,75.03 755.09,75.03 755.85,75.03 756.62,75.03 757.38,75.03 758.14,75.03 758.91,75.03 759.67,75.03 760.44,75.03 761.20,74.21 761.97,74.21 762.73,74.21 763.50,74.21 764.26,74.21 765.03,74.21 765.79,74.21 766.55,74.21 767.32,73.40 768.08,73.40 768.85,71.77 769.61,71.77 770.38,71.77 771.14,71.77 771.91,71.77 772.67,71.77 773.44,71.77 774.20,71.77 774.97,71.77 775.73,71.77 776.49,71.77 777.26,71.77 778.02,71.77 778.79,71.77 779.55,71.77 780.32,70.95 781.08,70.95 781.85,70.95 782.61,70.95 783.38,70.95 784.14,70.95 784.91,70.95 785.67,70.14 786.43,70.14 787.20,70.14 787.96,69.32 788.73,69.32 789.49,69.32 790.26,68.51 791.02,67.69 791.79,67.69 792.55,66.88 793.32,66.88 794.08,66.88 794.85,66.88 795.61,66.88 796.37,66.88 797.14,66.88 797.90,66.88 798.67,66.88 799.43,66.88 800.20,66.07 800.96,66.07 801.73,66.07 802.49,66.07 803.26,66.07 804.02,66.07 804.79,66.07 805.55,66.07 806.31,66.07 807.08,66.07 807.84,66.07 808.61,66.07 809.37,65.25 810.14,64.44 810.90,64.44 811.67,64.44 812.43,64.44 813.20,64.44 813.96,64.44 814.73,64.44 815.49,64.44 816.25,64.44 817.02,63.62 817.78,63.62 818.55,63.62 819.31,63.62 820.08,63.62 820.84,63.62 821.61,63.62 822.37,63.62 823.14,63.62 823.90,62.81 824.66,62.81 825.43,61.18 826.19,61.18 826.96,61.18 827.72,61.18 828.49,60.36 829.25,60.36 830.02,60.36 830.78,59.55 831.55,59.55 832.31,58.73 833.08,58.73 833.84,58.73 834.60,58.73 835.37,58.73 836.13,58.73 836.90,58.73 837.66,58.73 838.43,57.92 839.19,57.92 839.96,57.92 840.72,57.92 841.49,57.92 842.25,57.92 843.02,57.92 843.78,57.92 844.54,57.11 845.31,56.29 846.07,56.29 846.84,56.29 847.60,56.29 848.37,56.29 849.13,56.29 849.90,56.29 850.66,56.29 851.43,56.29 852.19,56.29 852.96,56.29 853.72,56.29 854.48,56.29 855.25,56.29 856.01,56.29 856.78,56.29 857.54,56.29 858.31,56.29 859.07,56.29 859.84,56.29 860.60,55.48 861.37,55.48 862.13,55.48 862.90,55.48 863.66,55.48 864.42,55.48 865.19,55.48 865.95,55.48 866.72,55.48 867.48,55.48 868.25,52.22 869.01,52.22 869.78,52.22 870.54,52.22 871.31,52.22 872.07,51.40 872.84,51.40 873.60,50.59 874.36,50.59 875.13,50.59 875.89,50.59 876.66,50.59 877.42,50.59 878.19,49.77 878.95,49.77 879.72,49.77 880.48,48.96 881.25,48.96 882.01,48.96 882.77,48.96 883.54,48.96 884.30,48.96 885.07,48.96 885.83,48.15 886.60,48.15 887.36,48.15 888.13,48.15 888.89,48.15 889.66,48.15 890.42,48.15 891.19,48.15 891.95,48.15 892.71,48.15 893.48,46.52 894.24,46.52 895.01,46.52 895.77,46.52 896.54,46.52 897.30,46.52 898.07,46.52 898.83,46.52 899.60,46.52 900.36,46.52 901.13,46.52 901.89,46.52 902.65,46.52 903.42,46.52 904.18,46.52 904.95,46.52 905.71,46.52 906.48,46.52 907.24,46.52 908.01,46.52 908.77,46.52 909.54,46.52 910.30,46.52 911.07,46.52 911.83,46.52 912.59,46.52 913.36,46.52 914.12,46.52 914.89,45.70 915.65,45.70 916.42,45.70 917.18,45.70 917.95,45.70 918.71,45.70 919.48,45.70 920.24,45.70 921.01,44.07 921.77,44.07 922.53,44.07 923.30,44.07 924.06,44.07 924.83,44.07 925.59,44.07 926.36,44.07 927.12,44.07 927.89,44.07 928.65,44.07 929.42,44.07 930.18,44.07 930.95,44.07 931.71,43.26 932.47,43.26 933.24,43.26 934.00,43.26 934.77,43.26 935.53,43.26 936.30,42.44 937.06,42.44 937.83,42.44 938.59,42.44 939.36,42.44 940.12,42.44 940.88,42.44 941.65,42.44 942.41,42.44 943.18,42.44 943.94,42.44 944.71,42.44 945.47,42.44 946.24,42.44 947.00,41.63 947.77,40.81 948.53,40.81 949.30,40.81 950.06,40.81 950.82,40.81 951.59,40.81 952.35,40.81 953.12,40.81 953.88,40.81 954.65,40.81 955.41,40.81 956.18,40.81 956.94,40.81 957.71,40.81 958.47,40.81 959.24,40.00 960.00,40.00" fill="none" stroke="#2563eb" stroke-width="2"/>
<text x="78" y="58" font-family="Arial" font-size="12" fill="#2563eb">blue: cumulative relations</text>
<text x="78" y="76" font-family="Arial" font-size="12" fill="#ea580c">orange bars: new relations at idx</text>
</svg>