<svg xmlns="http://www.w3.org/2000/svg" width="1000" height="430" viewBox="0 0 1000 430">
<rect width="100%" height="100%" fill="white"/>
<text x="500.0" y="24" text-anchor="middle" font-family="Arial" font-size="18" font-weight="700">Growth Curve: case6_weighted</text>
<line x1="70" y1="365" x2="960" y2="365" stroke="#111827"/>
<line x1="70" y1="40" x2="70" y2="365" stroke="#111827"/>
<text x="515.0" y="412" text-anchor="middle" font-family="Arial" font-size="13">sample idx</text>
<line x1="70" y1="365.00" x2="960" y2="365.00" stroke="#e5e7eb"/>
<text x="62" y="369.00" text-anchor="end" font-family="Arial" font-size="11">0</text>
<line x1="70" y1="300.00" x2="960" y2="300.00" stroke="#e5e7eb"/>
<text x="62" y="304.00" text-anchor="end" font-family="Arial" font-size="11">111</text>
<line x1="70" y1="235.00" x2="960" y2="235.00" stroke="#e5e7eb"/>
<text x="62" y="239.00" text-anchor="end" font-family="Arial" font-size="11">222</text>
<line x1="70" y1="170.00" x2="960" y2="170.00" stroke="#e5e7eb"/>
<text x="62" y="174.00" text-anchor="end" font-family="Arial" font-size="11">333</text>
<line x1="70" y1="105.00" x2="960" y2="105.00" stroke="#e5e7eb"/>
<text x="62" y="109.00" text-anchor="end" font-family="Arial" font-size="11">444</text>
<line x1="70" y1="40.00" x2="960" y2="40.00" stroke="#e5e7eb"/>
<text x="62" y="44.00" text-anchor="end" font-family="Arial" font-size="11">555</text>
<rect x="69.00" y="350.00" width="2" height="15.00" fill="#f97316" opacity="0.35"/>
<rect x="69.76" y="275.00" width="2" height="90.00" fill="#f97316" opacity="0.35"/>
<rect x="70.53" y="335.00" width="2" height="30.00" fill="#f97316" opacity="0.35"/>
<rect x="71.29" y="305.00" width="2" height="60.00" fill="#f97316" opacity="0.35"/>
<rect x="72.06" y="320.00" width="2" height="45.00" fill="#f97316" opacity="0.35"/>
<rect x="72.82" y="335.00" width="2" height="30.00" fill="#f97316" opacity="0.35"/>
<rect x="73.59" y="320.00" width="2" height="45.00" fill="#f97316" opacity="0.35"/>
<rect x="74.35" y="290.00" width="2" height="75.00" fill="#f97316" opacity="0.35"/>
<rect x="75.88" y="350.00" width="2" height="15.00" fill="#f97316" opacity="0.35"/>
<rect x="76.65" y="335.00" width="2" height="30.00" fill="#f97316" opacity="0.35"/>
<rect x="77.41" y="320.00" width="2" height="45.00" fill="#f97316" opacity="0.35"/>
<rect x="78.94" y="335.00" width="2" height="30.00" fill="#f97316" opacity="0.35"/>
<rect x="79.70" y="350.00" width="2" height="15.00" fill="#f97316" opacity="0.35"/>
<rect x="80.47" y="350.00" width="2" height="15.00" fill="#f97316" opacity="0.35"/>
<rect x="81.23" y="320.00" width="2" height="45.00" fill="#f97316" opacity="0.35"/>
<rect x="82.00" y="350.00" width="2" height="15.00" fill="#f97316" opacity="0.35"/>
<rect x="83.53" y="320.00" width="2" height="45.00" fill="#f97316" opacity="0.35"/>
<rect x="84.29" y="335.00" width="2" height="30.00" fill="#f97316" opacity="0.35"/>
<rect x="85.06" y="350.00" width="2" height="15.00" fill="#f97316" opacity="0.35"/>
<rect x="85.82" y="320.00" width="2" height="45.00" fill="#f97316" opacity="0.35"/>
<rect x="87.35" y="320.00" width="2" height="45.00" fill="#f97316" opacity="0.35"/>
<rect x="88.12" y="335.00" width="2" height="30.00" fill="#f97316" opacity="0.35"/>
<rect x="88.88" y="350.00" width="2" height="15.00" fill="#f97316" opacity="0.35"/>
<rect x="89.64" y="335.00" width="2" height="30.00" fill="#f97316" opacity="0.35"/>
<rect x="90.41" y="290.00" width="2" height="75.00" fill="#f97316" opacity="0.35"/>
<rect x="91.17" y="335.00" width="2" height="30.00" fill="#f97316" opacity="0.35"/>
<rect x="91.94" y="320.00" width="2" height="45.00" fill="#f97316" opacity="0.35"/>
<rect x="94.23" y="275.00" width="2" height="90.00" fill="#f97316" opacity="0.35"/>
<rect x="95.00" y="350.00" width="2" height="15.00" fill="#f97316" opacity="0.35"/>
<rect x="96.53" y="350.00" width="2" height="15.00" fill="#f97316" opacity="0.35"/>
<rect x="98.82" y="320.00" width="2" height="45.00" fill="#f97316" opacity="0.35"/>
<rect x="99.58" y="350.00" width="2" height="15.00" fill="#f97316" opacity="0.35"/>
<rect x="100.35" y="350.00" width="2" height="15.00" fill="#f97316" opacity="0.35"/>
<rect x="101.11" y="335.00" width="2" height="30.00" fill="#f97316" opacity="0.35"/>
<rect x="101.88" y="350.00" width="2" height="15.00" fill="#f97316" opacity="0.35"/>
<rect x="103.41" y="350.00" width="2" height="15.00" fill="#f97316" opacity="0.35"/>
<rect x="104.17" y="350.00" width="2" height="15.00" fill="#f97316" opacity="0.35"/>
<rect x="104.94" y="335.00" width="2" height="30.00" fill="#f97316" opacity="0.35"/>
<rect x="105.70" y="305.00" width="2" height="60.00" fill="#f97316" opacity="0.35"/>
<rect x="106.47" y="350.00" width="2" height="15.00" fill="#f97316" opacity="0.35"/>
<rect x="107.23" y="350.00" width="2" height="15.00" fill="#f97316" opacity="0.35"/>
<rect x="107.99" y="350.00" width="2" height="15.00" fill="#f97316" opacity="0.35"/>
<rect x="108.76" y="350.00" width="2" height="15.00" fill="#f97316" opacity="0.35"/>
<rect x="109.52" y="335.00" width="2" height="30.00" fill="#f97316" opacity="0.35"/>
<rect x="111.82" y="335.00" width="2" height="30.00" fill="#f97316" opacity="0.35"/>
<rect x="113.35" y="335.00" width="2" height="30.00" fill="#f97316" opacity="0.35"/>
<rect x="114.88" y="350.00" width="2" height="15.00" fill="#f97316" opacity="0.35"/>
<rect x="115.64" y="350.00" width="2" height="15.00" fill="#f97316" opacity="0.35"/>
<rect x="116.41" y="350.00" width="2" height="15.00" fill="#f97316" opacity="0.35"/>
<rect x="117.17" y="350.00" width="2" height="15.00" fill="#f97316" opacity="0.35"/>
<rect x="117.93" y="350.00" width="2" height="15.00" fill="#f97316" opacity="0.35"/>
<rect x="118.70" y="350.00" width="2" height="15.00" fill="#f97316" opacity="0.35"/>
<rect x="119.46" y="305.00" width="2" height="60.00" fill="#f97316" opacity="0.35"/>
<rect x="120.23" y="335.00" width="2" height="30.00" fill="#f97316" opacity="0.35"/>
<rect x="121.76" y="335.00" width="2" height="30.00" fill="#f97316" opacity="0.35"/>
<rect x="123.29" y="350.00" width="2" height="15.00" fill="#f97316" opacity="0.35"/>
<rect x="124.05" y="335.00" width="2" height="30.00" fill="#f97316" opacity="0.35"/>
<rect x="124.82" y="335.00" width="2" height="30.00" fill="#f97316" opacity="0.35"/>
<rect x="125.58" y="350.00" width="2" height="15.00" fill="#f97316" opacity="0.35"/>
<rect x="127.11" y="335.00" width="2" height="30.00" fill="#f97316" opacity="0.35"/>
<rect x="128.64" y="350.00" width="2" height="15.00" fill="#f97316" opacity="0.35"/>
<rect x="131.70" y="335.00" width="2" height="30.00" fill="#f97316" opacity="0.35"/>
<rect x="132.46" y="350.00" width="2" height="15.00" fill="#f97316" opacity="0.35"/>
<rect x="133.99" y="335.00" width="2" height="30.00" fill="#f97316" opacity="0.35"/>
<rect x="136.29" y="320.00" width="2" height="45.00" fill="#f97316" opacity="0.35"/>
<rect x="137.81" y="320.00" width="2" height="45.00" fill="#f97316" opacity="0.35"/>
<rect x="138.58" y="320.00" width="2" height="45.00" fill="#f97316" opacity="0.35"/>
<rect x="139.34" y="350.00" width="2" height="15.00" fill="#f97316" opacity="0.35"/>
<rect x="140.11" y="350.00" width="2" height="15.00" fill="#f97316" opacity="0.35"/>
<rect x="141.64" y="335.00" width="2" height="30.00" fill="#f97316" opacity="0.35"/>
<rect x="143.17" y="350.00" width="2" height="15.00" fill="#f97316" opacity="0.35"/>
<rect x="144.70" y="350.00" width="2" height="15.00" fill="#f97316" opacity="0.35"/>
<rect x="145.46" y="335.00" width="2" height="30.00" fill="#f97316" opacity="0.35"/>
<rect x="146.23" y="350.00" width="2" height="15.00" fill="#f97316" opacity="0.35"/>
<rect x="147.75" y="350.00" width="2" height="15.00" fill="#f97316" opacity="0.35"/>
<rect x="148.52" y="350.00" width="2" height="15.00" fill="#f97316" opacity="0.35"/>
<rect x="149.28" y="350.00" width="2" height="15.00" fill="#f97316" opacity="0.35"/>
<rect x="150.81" y="350.00" width="2" height="15.00" fill="#f97316" opacity="0.35"/>
<rect x="151.58" y="350.00" width="2" height="15.00" fill="#f97316" opacity="0.35"/>
<rect x="152.34" y="350.00" width="2" height="15.00" fill="#f97316" opacity="0.35"/>
<rect x="153.87" y="320.00" width="2" height="45.00" fill="#f97316" opacity="0.35"/>
<rect x="154.64" y="335.00" width="2" height="30.00" fill="#f97316" opacity="0.35"/>
<rect x="156.16" y="320.00" width="2" height="45.00" fill="#f97316" opacity="0.35"/>
<rect x="158.46" y="350.00" width="2" height="15.00" fill="#f97316" opacity="0.35"/>
<rect x="159.22" y="350.00" width="2" height="15.00" fill="#f97316" opacity="0.35"/>
<rect x="162.28" y="350.00" width="2" height="15.00" fill="#f97316" opacity="0.35"/>
<rect x="163.81" y="350.00" width="2" height="15.00" fill="#f97316" opacity="0.35"/>
<rect x="164.58" y="350.00" width="2" height="15.00" fill="#f97316" opacity="0.35"/>
<rect x="166.87" y="335.00" width="2" height="30.00" fill="#f97316" opacity="0.35"/>
<rect x="169.16" y="320.00" width="2" height="45.00" fill="#f97316" opacity="0.35"/>
<rect x="169.93" y="350.00" width="2" height="15.00" fill="#f97316" opacity="0.35"/>
<rect x="170.69" y="350.00" width="2" height="15.00" fill="#f97316" opacity="0.35"/>
<rect x="172.22" y="350.00" width="2" height="15.00" fill="#f97316" opacity="0.35"/>
<rect x="172.99" y="335.00" width="2" height="30.00" fill="#f97316" opacity="0.35"/>
<rect x="173.75" y="335.00" width="2" height="30.00" fill="#f97316" opacity="0.35"/>
<rect x="174.52" y="335.00" width="2" height="30.00" fill="#f97316" opacity="0.35"/>
<rect x="176.81" y="350.00" width="2" height="15.00" fill="#f97316" opacity="0.35"/>
<rect x="178.34" y="350.00" width="2" height="15.00" fill="#f97316" opacity="0.35"/>
<rect x="180.63" y="335.00" width="2" height="30.00" fill="#f97316" opacity="0.35"/>
<rect x="182.93" y="350.00" width="2" height="15.00" fill="#f97316" opacity="0.35"/>
<rect x="183.69" y="335.00" width="2" height="30.00" fill="#f97316" opacity="0.35"/>
<rect x="185.22" y="335.00" width="2" height="30.00" fill="#f97316" opacity="0.35"/>
<rect x="186.75" y="290.00" width="2" height="75.00" fill="#f97316" opacity="0.35"/>
<rect x="188.28" y="350.00" width="2" height="15.00" fill="#f97316" opacity="0.35"/>
<rect x="192.87" y="350.00" width="2" height="15.00" fill="#f97316" opacity="0.35"/>
<rect x="195.16" y="320.00" width="2" height="45.00" fill="#f97316" opacity="0.35"/>
<rect x="196.69" y="320.00" width="2" height="45.00" fill="#f97316" opacity="0.35"/>
<rect x="199.75" y="335.00" width="2" height="30.00" fill="#f97316" opacity="0.35"/>
<rect x="200.51" y="350.00" width="2" height="15.00" fill="#f97316" opacity="0.35"/>
<rect x="201.28" y="335.00" width="2" height="30.00" fill="#f97316" opacity="0.35"/>
<rect x="202.04" y="350.00" width="2" height="15.00" fill="#f97316" opacity="0.35"/>
<rect x="205.86" y="335.00" width="2" height="30.00" fill="#f97316" opacity="0.35"/>
<rect x="206.63" y="350.00" width="2" height="15.00" fill="#f97316" opacity="0.35"/>
<rect x="208.16" y="350.00" width="2" height="15.00" fill="#f97316" opacity="0.35"/>
<rect x="208.92" y="350.00" width="2" height="15.00" fill="#f97316" opacity="0.35"/>
<rect x="210.45" y="350.00" width="2" height="15.00" fill="#f97316" opacity="0.35"/>
<rect x="211.22" y="350.00" width="2" height="15.00" fill="#f97316" opacity="0.35"/>
<rect x="211.98" y="320.00" width="2" height="45.00" fill="#f97316" opacity="0.35"/>
<rect x="213.51" y="335.00" width="2" height="30.00" fill="#f97316" opacity="0.35"/>
<rect x="214.27" y="335.00" width="2" height="30.00" fill="#f97316" opacity="0.35"/>
<rect x="215.80" y="335.00" width="2" height="30.00" fill="#f97316" opacity="0.35"/>
<rect x="218.86" y="350.00" width="2" height="15.00" fill="#f97316" opacity="0.35"/>
<rect x="220.39" y="350.00" width="2" height="15.00" fill="#f97316" opacity="0.35"/>
<rect x="221.16" y="350.00" width="2" height="15.00" fill="#f97316" opacity="0.35"/>
<rect x="221.92" y="350.00" width="2" height="15.00" fill="#f97316" opacity="0.35"/>
<rect x="224.21" y="350.00" width="2" height="15.00" fill="#f97316" opacity="0.35"/>
<rect x="228.04" y="350.00" width="2" height="15.00" fill="#f97316" opacity="0.35"/>
<rect x="230.33" y="350.00" width="2" height="15.00" fill="#f97316" opacity="0.35"/>
<rect x="234.92" y="335.00" width="2" height="30.00" fill="#f97316" opacity="0.35"/>
<rect x="237.21" y="350.00" width="2" height="15.00" fill="#f97316" opacity="0.35"/>
<rect x="237.98" y="335.00" width="2" height="30.00" fill="#f97316" opacity="0.35"/>
<rect x="241.04" y="350.00" width="2" height="15.00" fill="#f97316" opacity="0.35"/>
<rect x="250.21" y="335.00" width="2" height="30.00" fill="#f97316" opacity="0.35"/>
<rect x="253.27" y="350.00" width="2" height="15.00" fill="#f97316" opacity="0.35"/>
<rect x="254.03" y="335.00" width="2" height="30.00" fill="#f97316" opacity="0.35"/>
<rect x="255.56" y="350.00" width="2" height="15.00" fill="#f97316" opacity="0.35"/>
<rect x="257.09" y="335.00" width="2" height="30.00" fill="#f97316" opacity="0.35"/>
<rect x="257.86" y="350.00" width="2" height="15.00" fill="#f97316" opacity="0.35"/>
<rect x="259.39" y="350.00" width="2" height="15.00" fill="#f97316" opacity="0.35"/>
<rect x="260.15" y="335.00" width="2" height="30.00" fill="#f97316" opacity="0.35"/>
<rect x="260.92" y="350.00" width="2" height="15.00" fill="#f97316" opacity="0.35"/>
<rect x="262.45" y="335.00" width="2" height="30.00" fill="#f97316" opacity="0.35"/>
<rect x="263.21" y="335.00" width="2" height="30.00" fill="#f97316" opacity="0.35"/>
<rect x="265.50" y="350.00" width="2" height="15.00" fill="#f97316" opacity="0.35"/>
<rect x="267.80" y="350.00" width="2" height="15.00" fill="#f97316" opacity="0.35"/>
<rect x="274.68" y="350.00" width="2" height="15.00" fill="#f97316" opacity="0.35"/>
<rect x="281.56" y="350.00" width="2" height="15.00" fill="#f97316" opacity="0.35"/>
<rect x="283.09" y="350.00" width="2" height="15.00" fill="#f97316" opacity="0.35"/>
<rect x="283.85" y="350.00" width="2" height="15.00" fill="#f97316" opacity="0.35"/>
<rect x="284.62" y="335.00" width="2" height="30.00" fill="#f97316" opacity="0.35"/>
<rect x="286.15" y="335.00" width="2" height="30.00" fill="#f97316" opacity="0.35"/>
<rect x="293.03" y="350.00" width="2" height="15.00" fill="#f97316" opacity="0.35"/>
<rect x="294.56" y="350.00" width="2" height="15.00" fill="#f97316" opacity="0.35"/>
<rect x="295.32" y="350.00" width="2" height="15.00" fill="#f97316" opacity="0.35"/>
<rect x="299.91" y="350.00" width="2" height="15.00" fill="#f97316" opacity="0.35"/>
<rect x="300.68" y="350.00" width="2" height="15.00" fill="#f97316" opacity="0.35"/>
<rect x="302.20" y="350.00" width="2" height="15.00" fill="#f97316" opacity="0.35"/>
<rect x="306.03" y="350.00" width="2" height="15.00" fill="#f97316" opacity="0.35"/>
<rect x="306.79" y="350.00" width="2" height="15.00" fill="#f97316" opacity="0.35"/>
<rect x="308.32" y="350.00" width="2" height="15.00" fill="#f97316" opacity="0.35"/>
<rect x="310.62" y="350.00" width="2" height="15.00" fill="#f97316" opacity="0.35"/>
<rect x="312.14" y="350.00" width="2" height="15.00" fill="#f97316" opacity="0.35"/>
<rect x="312.91" y="350.00" width="2" height="15.00" fill="#f97316" opacity="0.35"/>
<rect x="317.50" y="350.00" width="2" height="15.00" fill="#f97316" opacity="0.35"/>
<rect x="318.26" y="350.00" width="2" height="15.00" fill="#f97316" opacity="0.35"/>
<rect x="320.55" y="350.00" width="2" height="15.00" fill="#f97316" opacity="0.35"/>
<rect x="322.85" y="350.00" width="2" height="15.00" fill="#f97316" opacity="0.35"/>
<rect x="326.67" y="335.00" width="2" height="30.00" fill="#f97316" opacity="0.35"/>
<rect x="328.97" y="350.00" width="2" height="15.00" fill="#f97316" opacity="0.35"/>
<rect x="332.02" y="335.00" width="2" height="30.00" fill="#f97316" opacity="0.35"/>
<rect x="332.79" y="320.00" width="2" height="45.00" fill="#f97316" opacity="0.35"/>
<rect x="335.85" y="350.00" width="2" height="15.00" fill="#f97316" opacity="0.35"/>
<rect x="336.61" y="350.00" width="2" height="15.00" fill="#f97316" opacity="0.35"/>
<rect x="337.38" y="350.00" width="2" height="15.00" fill="#f97316" opacity="0.35"/>
<rect x="338.14" y="350.00" width="2" height="15.00" fill="#f97316" opacity="0.35"/>
<rect x="338.91" y="350.00" width="2" height="15.00" fill="#f97316" opacity="0.35"/>
<rect x="339.67" y="350.00" width="2" height="15.00" fill="#f97316" opacity="0.35"/>
<rect x="340.43" y="350.00" width="2" height="15.00" fill="#f97316" opacity="0.35"/>
<rect x="341.20" y="350.00" width="2" height="15.00" fill="#f97316" opacity="0.35"/>
<rect x="341.96" y="350.00" width="2" height="15.00" fill="#f97316" opacity="0.35"/>
<rect x="344.26" y="350.00" width="2" height="15.00" fill="#f97316" opacity="0.35"/>
<rect x="345.02" y="350.00" width="2" height="15.00" fill="#f97316" opacity="0.35"/>
<rect x="347.32" y="350.00" width="2" height="15.00" fill="#f97316" opacity="0.35"/>
<rect x="348.08" y="350.00" width="2" height="15.00" fill="#f97316" opacity="0.35"/>
<rect x="348.85" y="350.00" width="2" height="15.00" fill="#f97316" opacity="0.35"/>
<rect x="349.61" y="350.00" width="2" height="15.00" fill="#f97316" opacity="0.35"/>
<rect x="351.14" y="335.00" width="2" height="30.00" fill="#f97316" opacity="0.35"/>
<rect x="354.96" y="350.00" width="2" height="15.00" fill="#f97316" opacity="0.35"/>
<rect x="355.73" y="350.00" width="2" height="15.00" fill="#f97316" opacity="0.35"/>
<rect x="362.61" y="350.00" width="2" height="15.00" fill="#f97316" opacity="0.35"/>
<rect x="364.14" y="350.00" width="2" height="15.00" fill="#f97316" opacity="0.35"/>
<rect x="368.73" y="350.00" width="2" height="15.00" fill="#f97316" opacity="0.35"/>
<rect x="371.02" y="350.00" width="2" height="15.00" fill="#f97316" opacity="0.35"/>
<rect x="371.78" y="350.00" width="2" height="15.00" fill="#f97316" opacity="0.35"/>
<rect x="374.08" y="350.00" width="2" height="15.00" fill="#f97316" opacity="0.35"/>
<rect x="374.84" y="335.00" width="2" height="30.00" fill="#f97316" opacity="0.35"/>
<rect x="375.61" y="350.00" width="2" height="15.00" fill="#f97316" opacity="0.35"/>
<rect x="382.49" y="350.00" width="2" height="15.00" fill="#f97316" opacity="0.35"/>
<rect x="387.08" y="350.00" width="2" height="15.00" fill="#f97316" opacity="0.35"/>
<rect x="388.60" y="350.00" width="2" height="15.00" fill="#f97316" opacity="0.35"/>
<rect x="389.37" y="350.00" width="2" height="15.00" fill="#f97316" opacity="0.35"/>
<rect x="390.90" y="350.00" width="2" height="15.00" fill="#f97316" opacity="0.35"/>
<rect x="393.96" y="350.00" width="2" height="15.00" fill="#f97316" opacity="0.35"/>
<rect x="394.72" y="350.00" width="2" height="15.00" fill="#f97316" opacity="0.35"/>
<rect x="395.49" y="350.00" width="2" height="15.00" fill="#f97316" opacity="0.35"/>
<rect x="397.02" y="350.00" width="2" height="15.00" fill="#f97316" opacity="0.35"/>
<rect x="410.78" y="350.00" width="2" height="15.00" fill="#f97316" opacity="0.35"/>
<rect x="412.31" y="350.00" width="2" height="15.00" fill="#f97316" opacity="0.35"/>
<rect x="419.95" y="335.00" width="2" height="30.00" fill="#f97316" opacity="0.35"/>
<rect x="421.48" y="350.00" width="2" height="15.00" fill="#f97316" opacity="0.35"/>
<rect x="422.25" y="350.00" width="2" height="15.00" fill="#f97316" opacity="0.35"/>
<rect x="423.01" y="350.00" width="2" height="15.00" fill="#f97316" opacity="0.35"/>
<rect x="423.78" y="350.00" width="2" height="15.00" fill="#f97316" opacity="0.35"/>
<rect x="424.54" y="350.00" width="2" height="15.00" fill="#f97316" opacity="0.35"/>
<rect x="425.31" y="350.00" width="2" height="15.00" fill="#f97316" opacity="0.35"/>
<rect x="429.89" y="350.00" width="2" height="15.00" fill="#f97316" opacity="0.35"/>
<rect x="432.95" y="350.00" width="2" height="15.00" fill="#f97316" opacity="0.35"/>
<rect x="433.72" y="350.00" width="2" height="15.00" fill="#f97316" opacity="0.35"/>
<rect x="435.25" y="335.00" width="2" height="30.00" fill="#f97316" opacity="0.35"/>
<rect x="439.83" y="335.00" width="2" height="30.00" fill="#f97316" opacity="0.35"/>
<rect x="445.19" y="350.00" width="2" height="15.00" fill="#f97316" opacity="0.35"/>
<rect x="445.95" y="350.00" width="2" height="15.00" fill="#f97316" opacity="0.35"/>
<rect x="446.71" y="350.00" width="2" height="15.00" fill="#f97316" opacity="0.35"/>
<rect x="449.77" y="335.00" width="2" height="30.00" fill="#f97316" opacity="0.35"/>
<rect x="450.54" y="350.00" width="2" height="15.00" fill="#f97316" opacity="0.35"/>
<rect x="452.07" y="320.00" width="2" height="45.00" fill="#f97316" opacity="0.35"/>
<rect x="452.83" y="350.00" width="2" height="15.00" fill="#f97316" opacity="0.35"/>
<rect x="455.13" y="350.00" width="2" height="15.00" fill="#f97316" opacity="0.35"/>
<rect x="460.48" y="350.00" width="2" height="15.00" fill="#f97316" opacity="0.35"/>
<rect x="462.01" y="350.00" width="2" height="15.00" fill="#f97316" opacity="0.35"/>
<rect x="465.07" y="350.00" width="2" height="15.00" fill="#f97316" opacity="0.35"/>
<rect x="468.12" y="335.00" width="2" height="30.00" fill="#f97316" opacity="0.35"/>
<rect x="468.89" y="350.00" width="2" height="15.00" fill="#f97316" opacity="0.35"/>
<rect x="469.65" y="350.00" width="2" height="15.00" fill="#f97316" opacity="0.35"/>
<rect x="470.42" y="350.00" width="2" height="15.00" fill="#f97316" opacity="0.35"/>
<rect x="472.71" y="350.00" width="2" height="15.00" fill="#f97316" opacity="0.35"/>
<rect x="479.59" y="350.00" width="2" height="15.00" fill="#f97316" opacity="0.35"/>
<rect x="488.00" y="350.00" width="2" height="15.00" fill="#f97316" opacity="0.35"/>
<rect x="493.36" y="350.00" width="2" height="15.00" fill="#f97316" opacity="0.35"/>
<rect x="494.88" y="350.00" width="2" height="15.00" fill="#f97316" opacity="0.35"/>
<rect x="495.65" y="350.00" width="2" height="15.00" fill="#f97316" opacity="0.35"/>
<rect x="496.41" y="350.00" width="2" height="15.00" fill="#f97316" opacity="0.35"/>
<rect x="497.94" y="350.00" width="2" height="15.00" fill="#f97316" opacity="0.35"/>
<rect x="499.47" y="350.00" width="2" height="15.00" fill="#f97316" opacity="0.35"/>
<rect x="501.77" y="350.00" width="2" height="15.00" fill="#f97316" opacity="0.35"/>
<rect x="504.06" y="335.00" width="2" height="30.00" fill="#f97316" opacity="0.35"/>
<rect x="506.35" y="350.00" width="2" height="15.00" fill="#f97316" opacity="0.35"/>
<rect x="512.47" y="350.00" width="2" height="15.00" fill="#f97316" opacity="0.35"/>
<rect x="514.00" y="350.00" width="2" height="15.00" fill="#f97316" opacity="0.35"/>
<rect x="516.29" y="350.00" width="2" height="15.00" fill="#f97316" opacity="0.35"/>
<rect x="518.59" y="335.00" width="2" height="30.00" fill="#f97316" opacity="0.35"/>
<rect x="523.94" y="350.00" width="2" height="15.00" fill="#f97316" opacity="0.35"/>
<rect x="527.00" y="350.00" width="2" height="15.00" fill="#f97316" opacity="0.35"/>
<rect x="529.29" y="350.00" width="2" height="15.00" fill="#f97316" opacity="0.35"/>
<rect x="533.12" y="350.00" width="2" height="15.00" fill="#f97316" opacity="0.35"/>
<rect x="534.64" y="335.00" width="2" height="30.00" fill="#f97316" opacity="0.35"/>
<rect x="535.41" y="335.00" width="2" height="30.00" fill="#f97316" opacity="0.35"/>
<rect x="539.23" y="335.00" width="2" height="30.00" fill="#f97316" opacity="0.35"/>
<rect x="540.00" y="350.00" width="2" height="15.00" fill="#f97316" opacity="0.35"/>
<rect x="546.11" y="350.00" width="2" height="15.00" fill="#f97316" opacity="0.35"/>
<rect x="548.41" y="350.00" width="2" height="15.00" fill="#f97316" opacity="0.35"/>
<rect x="549.94" y="350.00" width="2" height="15.00" fill="#f97316" opacity="0.35"/>
<rect x="550.70" y="335.00" width="2" height="30.00" fill="#f97316" opacity="0.35"/>
<rect x="552.99" y="350.00" width="2" height="15.00" fill="#f97316" opacity="0.35"/>
<rect x="556.82" y="350.00" width="2" height="15.00" fill="#f97316" opacity="0.35"/>
<rect x="557.58" y="350.00" width="2" height="15.00" fill="#f97316" opacity="0.35"/>
<rect x="558.35" y="335.00" width="2" height="30.00" fill="#f97316" opacity="0.35"/>
<rect x="560.64" y="290.00" width="2" height="75.00" fill="#f97316" opacity="0.35"/>
<rect x="565.99" y="350.00" width="2" height="15.00" fill="#f97316" opacity="0.35"/>
<rect x="569.05" y="350.00" width="2" height="15.00" fill="#f97316" opacity="0.35"/>
<rect x="572.87" y="335.00" width="2" height="30.00" fill="#f97316" opacity="0.35"/>
<rect x="580.52" y="335.00" width="2" height="30.00" fill="#f97316" opacity="0.35"/>
<rect x="585.11" y="350.00" width="2" height="15.00" fill="#f97316" opacity="0.35"/>
<rect x="588.93" y="350.00" width="2" height="15.00" fill="#f97316" opacity="0.35"/>
<rect x="592.75" y="350.00" width="2" height="15.00" fill="#f97316" opacity="0.35"/>
<rect x="595.05" y="335.00" width="2" height="30.00" fill="#f97316" opacity="0.35"/>
<rect x="595.81" y="350.00" width="2" height="15.00" fill="#f97316" opacity="0.35"/>
<rect x="597.34" y="335.00" width="2" height="30.00" fill="#f97316" opacity="0.35"/>
<rect x="601.93" y="350.00" width="2" height="15.00" fill="#f97316" opacity="0.35"/>
<rect x="602.69" y="335.00" width="2" height="30.00" fill="#f97316" opacity="0.35"/>
<rect x="603.46" y="350.00" width="2" height="15.00" fill="#f97316" opacity="0.35"/>
<rect x="604.22" y="350.00" width="2" height="15.00" fill="#f97316" opacity="0.35"/>
<rect x="606.52" y="335.00" width="2" height="30.00" fill="#f97316" opacity="0.35"/>
<rect x="609.58" y="350.00" width="2" height="15.00" fill="#f97316" opacity="0.35"/>
<rect x="616.46" y="350.00" width="2" height="15.00" fill="#f97316" opacity="0.35"/>
<rect x="621.04" y="350.00" width="2" height="15.00" fill="#f97316" opacity="0.35"/>
<rect x="623.34" y="350.00" width="2" height="15.00" fill="#f97316" opacity="0.35"/>
<rect x="624.87" y="350.00" width="2" height="15.00" fill="#f97316" opacity="0.35"/>
<rect x="625.63" y="335.00" width="2" height="30.00" fill="#f97316" opacity="0.35"/>
<rect x="627.16" y="350.00" width="2" height="15.00" fill="#f97316" opacity="0.35"/>
<rect x="630.98" y="350.00" width="2" height="15.00" fill="#f97316" opacity="0.35"/>
<rect x="632.51" y="350.00" width="2" height="15.00" fill="#f97316" opacity="0.35"/>
<rect x="637.87" y="350.00" width="2" height="15.00" fill="#f97316" opacity="0.35"/>
<rect x="640.92" y="350.00" width="2" height="15.00" fill="#f97316" opacity="0.35"/>
<rect x="647.81" y="335.00" width="2" height="30.00" fill="#f97316" opacity="0.35"/>
<rect x="656.22" y="335.00" width="2" height="30.00" fill="#f97316" opacity="0.35"/>
<rect x="657.75" y="350.00" width="2" height="15.00" fill="#f97316" opacity="0.35"/>
<rect x="664.63" y="350.00" width="2" height="15.00" fill="#f97316" opacity="0.35"/>
<rect x="666.92" y="350.00" width="2" height="15.00" fill="#f97316" opacity="0.35"/>
<rect x="672.27" y="350.00" width="2" height="15.00" fill="#f97316" opacity="0.35"/>
<rect x="673.04" y="335.00" width="2" height="30.00" fill="#f97316" opacity="0.35"/>
<rect x="673.80" y="335.00" width="2" height="30.00" fill="#f97316" opacity="0.35"/>
<rect x="682.21" y="335.00" width="2" height="30.00" fill="#f97316" opacity="0.35"/>
<rect x="684.51" y="350.00" width="2" height="15.00" fill="#f97316" opacity="0.35"/>
<rect x="686.80" y="350.00" width="2" height="15.00" fill="#f97316" opacity="0.35"/>
<rect x="689.09" y="350.00" width="2" height="15.00" fill="#f97316" opacity="0.35"/>
<rect x="699.03" y="350.00" width="2" height="15.00" fill="#f97316" opacity="0.35"/>
<rect x="700.56" y="335.00" width="2" height="30.00" fill="#f97316" opacity="0.35"/>
<rect x="701.33" y="350.00" width="2" height="15.00" fill="#f97316" opacity="0.35"/>
<rect x="703.62" y="350.00" width="2" height="15.00" fill="#f97316" opacity="0.35"/>
<rect x="707.45" y="350.00" width="2" height="15.00" fill="#f97316" opacity="0.35"/>
<rect x="708.21" y="305.00" width="2" height="60.00" fill="#f97316" opacity="0.35"/>
<rect x="711.27" y="350.00" width="2" height="15.00" fill="#f97316" opacity="0.35"/>
<rect x="718.15" y="350.00" width="2" height="15.00" fill="#f97316" opacity="0.35"/>
<rect x="720.44" y="350.00" width="2" height="15.00" fill="#f97316" opacity="0.35"/>
<rect x="721.21" y="350.00" width="2" height="15.00" fill="#f97316" opacity="0.35"/>
<rect x="722.74" y="350.00" width="2" height="15.00" fill="#f97316" opacity="0.35"/>
<rect x="724.27" y="350.00" width="2" height="15.00" fill="#f97316" opacity="0.35"/>
<rect x="726.56" y="335.00" width="2" height="30.00" fill="#f97316" opacity="0.35"/>
<rect x="728.09" y="350.00" width="2" height="15.00" fill="#f97316" opacity="0.35"/>
<rect x="731.15" y="335.00" width="2" height="30.00" fill="#f97316" opacity="0.35"/>
<rect x="731.91" y="350.00" width="2" height="15.00" fill="#f97316" opacity="0.35"/>
<rect x="732.68" y="350.00" width="2" height="15.00" fill="#f97316" opacity="0.35"/>
<rect x="734.97" y="275.00" width="2" height="90.00" fill="#f97316" opacity="0.35"/>
<rect x="735.74" y="350.00" width="2" height="15.00" fill="#f97316" opacity="0.35"/>
<rect x="736.50" y="350.00" width="2" height="15.00" fill="#f97316" opacity="0.35"/>
<rect x="743.38" y="350.00" width="2" height="15.00" fill="#f97316" opacity="0.35"/>
<rect x="744.91" y="350.00" width="2" height="15.00" fill="#f97316" opacity="0.35"/>
<rect x="745.68" y="350.00" width="2" height="15.00" fill="#f97316" opacity="0.35"/>
<rect x="747.20" y="350.00" width="2" height="15.00" fill="#f97316" opacity="0.35"/>
<rect x="751.03" y="350.00" width="2" height="15.00" fill="#f97316" opacity="0.35"/>
<rect x="751.79" y="350.00" width="2" height="15.00" fill="#f97316" opacity="0.35"/>
<rect x="754.85" y="350.00" width="2" height="15.00" fill="#f97316" opacity="0.35"/>
<rect x="757.14" y="350.00" width="2" height="15.00" fill="#f97316" opacity="0.35"/>
<rect x="761.73" y="350.00" width="2" height="15.00" fill="#f97316" opacity="0.35"/>
<rect x="764.03" y="335.00" width="2" height="30.00" fill="#f97316" opacity="0.35"/>
<rect x="766.32" y="350.00" width="2" height="15.00" fill="#f97316" opacity="0.35"/>
<rect x="767.85" y="350.00" width="2" height="15.00" fill="#f97316" opacity="0.35"/>
<rect x="772.44" y="350.00" width="2" height="15.00" fill="#f97316" opacity="0.35"/>
<rect x="776.26" y="335.00" width="2" height="30.00" fill="#f97316" opacity="0.35"/>
<rect x="781.61" y="335.00" width="2" height="30.00" fill="#f97316" opacity="0.35"/>
<rect x="784.67" y="350.00" width="2" height="15.00" fill="#f97316" opacity="0.35"/>
<rect x="786.96" y="350.00" width="2" height="15.00" fill="#f97316" opacity="0.35"/>
<rect x="789.26" y="350.00" width="2" height="15.00" fill="#f97316" opacity="0.35"/>
<rect x="791.55" y="350.00" width="2" height="15.00" fill="#f97316" opacity="0.35"/>
<rect x="792.32" y="350.00" width="2" height="15.00" fill="#f97316" opacity="0.35"/>
<rect x="795.37" y="350.00" width="2" height="15.00" fill="#f97316" opacity="0.35"/>
<rect x="799.20" y="335.00" width="2" height="30.00" fill="#f97316" opacity="0.35"/>
<rect x="799.96" y="350.00" width="2" height="15.00" fill="#f97316" opacity="0.35"/>
<rect x="801.49" y="350.00" width="2" height="15.00" fill="#f97316" opacity="0.35"/>
<rect x="806.84" y="350.00" width="2" height="15.00" fill="#f97316" opacity="0.35"/>
<rect x="807.61" y="335.00" width="2" height="30.00" fill="#f97316" opacity="0.35"/>
<rect x="809.90" y="350.00" width="2" height="15.00" fill="#f97316" opacity="0.35"/>
<rect x="813.73" y="335.00" width="2" height="30.00" fill="#f97316" opacity="0.35"/>
<rect x="814.49" y="350.00" width="2" height="15.00" fill="#f97316" opacity="0.35"/>
<rect x="816.02" y="350.00" width="2" height="15.00" fill="#f97316" opacity="0.35"/>
<rect x="816.78" y="350.00" width="2" height="15.00" fill="#f97316" opacity="0.35"/>
<rect x="819.84" y="350.00" width="2" height="15.00" fill="#f97316" opacity="0.35"/>
<rect x="822.14" y="350.00" width="2" height="15.00" fill="#f97316" opacity="0.35"/>
<rect x="822.90" y="350.00" width="2" height="15.00" fill="#f97316" opacity="0.35"/>
<rect x="831.31" y="350.00" width="2" height="15.00" fill="#f97316" opacity="0.35"/>
<rect x="843.54" y="350.00" width="2" height="15.00" fill="#f97316" opacity="0.35"/>
<rect x="844.31" y="350.00" width="2" height="15.00" fill="#f97316" opacity="0.35"/>
<rect x="851.96" y="350.00" width="2" height="15.00" fill="#f97316" opacity="0.35"/>
<rect x="853.48" y="350.00" width="2" height="15.00" fill="#f97316" opacity="0.35"/>
<rect x="859.60" y="350.00" width="2" height="15.00" fill="#f97316" opacity="0.35"/>
<rect x="861.13" y="350.00" width="2" height="15.00" fill="#f97316" opacity="0.35"/>
<rect x="871.07" y="350.00" width="2" height="15.00" fill="#f97316" opacity="0.35"/>
<rect x="872.60" y="350.00" width="2" height="15.00" fill="#f97316" opacity="0.35"/>
<rect x="887.13" y="350.00" width="2" height="15.00" fill="#f97316" opacity="0.35"/>
<rect x="892.48" y="350.00" width="2" height="15.00" fill="#f97316" opacity="0.35"/>
<rect x="899.36" y="350.00" width="2" height="15.00" fill="#f97316" opacity="0.35"/>
<rect x="901.65" y="350.00" width="2" height="15.00" fill="#f97316" opacity="0.35"/>
<rect x="904.71" y="350.00" width="2" height="15.00" fill="#f97316" opacity="0.35"/>
<rect x="907.77" y="350.00" width="2" height="15.00" fill="#f97316" opacity="0.35"/>
<rect x="910.83" y="350.00" width="2" height="15.00" fill="#f97316" opacity="0.35"/>
<rect x="915.42" y="350.00" width="2" height="15.00" fill="#f97316" opacity="0.35"/>
<rect x="920.01" y="350.00" width="2" height="15.00" fill="#f97316" opacity="0.35"/>
<rect x="922.30" y="350.00" width="2" height="15.00" fill="#f97316" opacity="0.35"/>
<rect x="923.06" y="350.00" width="2" height="15.00" fill="#f97316" opacity="0.35"/>
<rect x="926.12" y="350.00" width="2" height="15.00" fill="#f97316" opacity="0.35"/>
<rect x="930.71" y="350.00" width="2" height="15.00" fill="#f97316" opacity="0.35"/>
<rect x="935.30" y="350.00" width="2" height="15.00" fill="#f97316" opacity="0.35"/>
<rect x="946.77" y="350.00" width="2" height="15.00" fill="#f97316" opacity="0.35"/>
<rect x="952.12" y="350.00" width="2" height="15.00" fill="#f97316" opacity="0.35"/>
<rect x="953.65" y="350.00" width="2" height="15.00" fill="#f97316" opacity="0.35"/>
<rect x="955.94" y="350.00" width="2" height="15.00" fill="#f97316" opacity="0.35"/>
<rect x="956.71" y="350.00" width="2" height="15.00" fill="#f97316" opacity="0.35"/>
<rect x="957.47" y="350.00" width="2" height="15.00" fill="#f97316" opacity="0.35"/>
<polyline points="70.00,364.41 70.76,360.90 71.53,359.73 72.29,357.39 73.06,355.63 73.82,354.46 74.59,352.70 75.35,349.77 76.12,349.77 76.88,349.19 77.65,348.02 78.41,346.26 79.18,346.26 79.94,345.09 80.70,344.50 81.47,343.92 82.23,342.16 83.00,341.58 83.76,341.58 84.53,339.82 85.29,338.65 86.06,338.06 86.82,336.31 87.59,336.31 88.35,334.55 89.12,333.38 89.88,332.79 90.64,331.62 91.41,328.69 92.17,327.52 92.94,325.77 93.70,325.77 94.47,325.77 95.23,322.25 96.00,321.67 96.76,321.67 97.53,321.08 98.29,321.08 99.05,321.08 99.82,319.32 100.58,318.74 101.35,318.15 102.11,316.98 102.88,316.40 103.64,316.40 104.41,315.81 105.17,315.23 105.94,314.05 106.70,311.71 107.47,311.13 108.23,310.54 108.99,309.95 109.76,309.37 110.52,308.20 111.29,308.20 112.05,308.20 112.82,307.03 113.58,307.03 114.35,305.86 115.11,305.86 115.88,305.27 116.64,304.68 117.41,304.10 118.17,303.51 118.93,302.93 119.70,302.34 120.46,300.00 121.23,298.83 121.99,298.83 122.76,297.66 123.52,297.66 124.29,297.07 125.05,295.90 125.82,294.73 126.58,294.14 127.35,294.14 128.11,292.97 128.87,292.97 129.64,292.39 130.40,292.39 131.17,292.39 131.93,292.39 132.70,291.22 133.46,290.63 134.23,290.63 134.99,289.46 135.76,289.46 136.52,289.46 137.29,287.70 138.05,287.70 138.81,285.95 139.58,284.19 140.34,283.60 141.11,283.02 141.87,283.02 142.64,281.85 143.40,281.85 144.17,281.26 144.93,281.26 145.70,280.68 146.46,279.50 147.23,278.92 147.99,278.92 148.75,278.33 149.52,277.75 150.28,277.16 151.05,277.16 151.81,276.58 152.58,275.99 153.34,275.41 154.11,275.41 154.87,273.65 155.64,272.48 156.40,272.48 157.16,270.72 157.93,270.72 158.69,270.72 159.46,270.14 160.22,269.55 160.99,269.55 161.75,269.55 162.52,269.55 163.28,268.96 164.05,268.96 164.81,268.38 165.58,267.79 166.34,267.79 167.10,267.79 167.87,266.62 168.63,266.62 169.40,266.62 170.16,264.86 170.93,264.28 171.69,263.69 172.46,263.69 173.22,263.11 173.99,261.94 174.75,260.77 175.52,259.59 176.28,259.59 177.04,259.59 177.81,259.01 178.57,259.01 179.34,258.42 180.10,258.42 180.87,258.42 181.63,257.25 182.40,257.25 183.16,257.25 183.93,256.67 184.69,255.50 185.46,255.50 186.22,254.32 186.98,254.32 187.75,251.40 188.51,251.40 189.28,250.81 190.04,250.81 190.81,250.81 191.57,250.81 192.34,250.81 193.10,250.81 193.87,250.23 194.63,250.23 195.40,250.23 196.16,248.47 196.92,248.47 197.69,246.71 198.45,246.71 199.22,246.71 199.98,246.71 200.75,245.54 201.51,244.95 202.28,243.78 203.04,243.20 203.81,243.20 204.57,243.20 205.34,243.20 206.10,243.20 206.86,242.03 207.63,241.44 208.39,241.44 209.16,240.86 209.92,240.27 210.69,240.27 211.45,239.68 212.22,239.10 212.98,237.34 213.75,237.34 214.51,236.17 215.27,235.00 216.04,235.00 216.80,233.83 217.57,233.83 218.33,233.83 219.10,233.83 219.86,233.24 220.63,233.24 221.39,232.66 222.16,232.07 222.92,231.49 223.69,231.49 224.45,231.49 225.21,230.90 225.98,230.90 226.74,230.90 227.51,230.90 228.27,230.90 229.04,230.32 229.80,230.32 230.57,230.32 231.33,229.73 232.10,229.73 232.86,229.73 233.63,229.73 234.39,229.73 235.15,229.73 235.92,228.56 236.68,228.56 237.45,228.56 238.21,227.97 238.98,226.80 239.74,226.80 240.51,226.80 241.27,226.80 242.04,226.22 242.80,226.22 243.57,226.22 244.33,226.22 245.09,226.22 245.86,226.22 246.62,226.22 247.39,226.22 248.15,226.22 248.92,226.22 249.68,226.22 250.45,226.22 251.21,225.05 251.98,225.05 252.74,225.05 253.51,225.05 254.27,224.46 255.03,223.29 255.80,223.29 256.56,222.70 257.33,222.70 258.09,221.53 258.86,220.95 259.62,220.95 260.39,220.36 261.15,219.19 261.92,218.60 262.68,218.60 263.45,217.43 264.21,216.26 264.97,216.26 265.74,216.26 266.50,215.68 267.27,215.68 268.03,215.68 268.80,215.09 269.56,215.09 270.33,215.09 271.09,215.09 271.86,215.09 272.62,215.09 273.38,215.09 274.15,215.09 274.91,215.09 275.68,214.50 276.44,214.50 277.21,214.50 277.97,214.50 278.74,214.50 279.50,214.50 280.27,214.50 281.03,214.50 281.80,214.50 282.56,213.92 283.32,213.92 284.09,213.33 284.85,212.75 285.62,211.58 286.38,211.58 287.15,210.41 287.91,210.41 288.68,210.41 289.44,210.41 290.21,210.41 290.97,210.41 291.74,210.41 292.50,210.41 293.26,210.41 294.03,209.82 294.79,209.82 295.56,209.23 296.32,208.65 297.09,208.65 297.85,208.65 298.62,208.65 299.38,208.65 300.15,208.65 300.91,208.06 301.68,207.48 302.44,207.48 303.20,206.89 303.97,206.89 304.73,206.89 305.50,206.89 306.26,206.89 307.03,206.31 307.79,205.72 308.56,205.72 309.32,205.14 310.09,205.14 310.85,205.14 311.62,204.55 312.38,204.55 313.14,203.96 313.91,203.38 314.67,203.38 315.44,203.38 316.20,203.38 316.97,203.38 317.73,203.38 318.50,202.79 319.26,202.21 320.03,202.21 320.79,202.21 321.55,201.62 322.32,201.62 323.08,201.62 323.85,201.04 324.61,201.04 325.38,201.04 326.14,201.04 326.91,201.04 327.67,199.86 328.44,199.86 329.20,199.86 329.97,199.28 330.73,199.28 331.49,199.28 332.26,199.28 333.02,198.11 333.79,196.35 334.55,196.35 335.32,196.35 336.08,196.35 336.85,195.77 337.61,195.18 338.38,194.59 339.14,194.01 339.91,193.42 340.67,192.84 341.43,192.25 342.20,191.67 342.96,191.08 343.73,191.08 344.49,191.08 345.26,190.50 346.02,189.91 346.79,189.91 347.55,189.91 348.32,189.32 349.08,188.74 349.85,188.15 350.61,187.57 351.37,187.57 352.14,186.40 352.90,186.40 353.67,186.40 354.43,186.40 355.20,186.40 355.96,185.81 356.73,185.23 357.49,185.23 358.26,185.23 359.02,185.23 359.79,185.23 360.55,185.23 361.31,185.23 362.08,185.23 362.84,185.23 363.61,184.64 364.37,184.64 365.14,184.05 365.90,184.05 366.67,184.05 367.43,184.05 368.20,184.05 368.96,184.05 369.73,183.47 370.49,183.47 371.25,183.47 372.02,182.88 372.78,182.30 373.55,182.30 374.31,182.30 375.08,181.71 375.84,180.54 376.61,179.95 377.37,179.95 378.14,179.95 378.90,179.95 379.66,179.95 380.43,179.95 381.19,179.95 381.96,179.95 382.72,179.95 383.49,179.37 384.25,179.37 385.02,179.37 385.78,179.37 386.55,179.37 387.31,179.37 388.08,178.78 388.84,178.78 389.60,178.20 390.37,177.61 391.13,177.61 391.90,177.03 392.66,177.03 393.43,177.03 394.19,177.03 394.96,176.44 395.72,175.86 396.49,175.27 397.25,175.27 398.02,174.68 398.78,174.68 399.54,174.68 400.31,174.68 401.07,174.68 401.84,174.68 402.60,174.68 403.37,174.68 404.13,174.68 404.90,174.68 405.66,174.68 406.43,174.68 407.19,174.68 407.96,174.68 408.72,174.68 409.48,174.68 410.25,174.68 411.01,174.68 411.78,174.10 412.54,174.10 413.31,173.51 414.07,173.51 414.84,173.51 415.60,173.51 416.37,173.51 417.13,173.51 417.90,173.51 418.66,173.51 419.42,173.51 420.19,173.51 420.95,172.34 421.72,172.34 422.48,171.76 423.25,171.17 424.01,170.59 424.78,170.00 425.54,169.41 426.31,168.83 427.07,168.83 427.84,168.83 428.60,168.83 429.36,168.83 430.13,168.83 430.89,168.24 431.66,168.24 432.42,168.24 433.19,168.24 433.95,167.66 434.72,167.07 435.48,167.07 436.25,165.90 437.01,165.90 437.77,165.90 438.54,165.90 439.30,165.90 440.07,165.90 440.83,164.73 441.60,164.73 442.36,164.73 443.13,164.73 443.89,164.73 444.66,164.73 445.42,164.73 446.19,164.14 446.95,163.56 447.71,162.97 448.48,162.97 449.24,162.97 450.01,162.97 450.77,161.80 451.54,161.22 452.30,161.22 453.07,159.46 453.83,158.87 454.60,158.87 455.36,158.87 456.13,158.29 456.89,158.29 457.65,158.29 458.42,158.29 459.18,158.29 459.95,158.29 460.71,158.29 461.48,157.70 462.24,157.70 463.01,157.12 463.77,157.12 464.54,157.12 465.30,157.12 466.07,156.53 466.83,156.53 467.59,156.53 468.36,156.53 469.12,155.36 469.89,154.77 470.65,154.19 471.42,153.60 472.18,153.60 472.95,153.60 473.71,153.02 474.48,153.02 475.24,153.02 476.01,153.02 476.77,153.02 477.53,153.02 478.30,153.02 479.06,153.02 479.83,153.02 480.59,152.43 481.36,152.43 482.12,152.43 482.89,152.43 483.65,152.43 484.42,152.43 485.18,152.43 485.95,152.43 486.71,152.43 487.47,152.43 488.24,152.43 489.00,151.85 489.77,151.85 490.53,151.85 491.30,151.85 492.06,151.85 492.83,151.85 493.59,151.85 494.36,151.26 495.12,151.26 495.88,150.68 496.65,150.09 497.41,149.50 498.18,149.50 498.94,148.92 499.71,148.92 500.47,148.33 501.24,148.33 502.00,148.33 502.77,147.75 503.53,147.75 504.30,147.75 505.06,146.58 505.82,146.58 506.59,146.58 507.35,145.99 508.12,145.99 508.88,145.99 509.65,145.99 510.41,145.99 511.18,145.99 511.94,145.99 512.71,145.99 513.47,145.41 514.24,145.41 515.00,144.82 515.76,144.82 516.53,144.82 517.29,144.23 518.06,144.23 518.82,144.23 519.59,143.06 520.35,143.06 521.12,143.06 521.88,143.06 522.65,143.06 523.41,143.06 524.18,143.06 524.94,142.48 525.70,142.48 526.47,142.48 527.23,142.48 528.00,141.89 528.76,141.89 529.53,141.89 530.29,141.31 531.06,141.31 531.82,141.31 532.59,141.31 533.35,141.31 534.12,140.72 534.88,140.72 535.64,139.55 536.41,138.38 537.17,138.38 537.94,138.38 538.70,138.38 539.47,138.38 540.23,137.21 541.00,136.62 541.76,136.62 542.53,136.62 543.29,136.62 544.05,136.62 544.82,136.62 545.58,136.62 546.35,136.62 547.11,136.04 547.88,136.04 548.64,136.04 549.41,135.45 550.17,135.45 550.94,134.86 551.70,133.69 552.47,133.69 553.23,133.69 553.99,133.11 554.76,133.11 555.52,133.11 556.29,133.11 557.05,133.11 557.82,132.52 558.58,131.94 559.35,130.77 560.11,130.77 560.88,130.77 561.64,127.84 562.41,127.84 563.17,127.84 563.93,127.84 564.70,127.84 565.46,127.84 566.23,127.84 566.99,127.25 567.76,127.25 568.52,127.25 569.29,127.25 570.05,126.67 570.82,126.67 571.58,126.67 572.35,126.67 573.11,126.67 573.87,125.50 574.64,125.50 575.40,125.50 576.17,125.50 576.93,125.50 577.70,125.50 578.46,125.50 579.23,125.50 579.99,125.50 580.76,125.50 581.52,124.32 582.29,124.32 583.05,124.32 583.81,124.32 584.58,124.32 585.34,124.32 586.11,123.74 586.87,123.74 587.64,123.74 588.40,123.74 589.17,123.74 589.93,123.15 590.70,123.15 591.46,123.15 592.23,123.15 592.99,123.15 593.75,122.57 594.52,122.57 595.28,122.57 596.05,121.40 596.81,120.81 597.58,120.81 598.34,119.64 599.11,119.64 599.87,119.64 600.64,119.64 601.40,119.64 602.16,119.64 602.93,119.05 603.69,117.88 604.46,117.30 605.22,116.71 605.99,116.71 606.75,116.71 607.52,115.54 608.28,115.54 609.05,115.54 609.81,115.54 610.58,114.95 611.34,114.95 612.10,114.95 612.87,114.95 613.63,114.95 614.40,114.95 615.16,114.95 615.93,114.95 616.69,114.95 617.46,114.37 618.22,114.37 618.99,114.37 619.75,114.37 620.52,114.37 621.28,114.37 622.04,113.78 622.81,113.78 623.57,113.78 624.34,113.20 625.10,113.20 625.87,112.61 626.63,111.44 627.40,111.44 628.16,110.86 628.93,110.86 629.69,110.86 630.46,110.86 631.22,110.86 631.98,110.27 632.75,110.27 633.51,109.68 634.28,109.68 635.04,109.68 635.81,109.68 636.57,109.68 637.34,109.68 638.10,109.68 638.87,109.10 639.63,109.10 640.40,109.10 641.16,109.10 641.92,108.51 642.69,108.51 643.45,108.51 644.22,108.51 644.98,108.51 645.75,108.51 646.51,108.51 647.28,108.51 648.04,108.51 648.81,107.34 649.57,107.34 650.34,107.34 651.10,107.34 651.86,107.34 652.63,107.34 653.39,107.34 654.16,107.34 654.92,107.34 655.69,107.34 656.45,107.34 657.22,106.17 657.98,106.17 658.75,105.59 659.51,105.59 660.27,105.59 661.04,105.59 661.80,105.59 662.57,105.59 663.33,105.59 664.10,105.59 664.86,105.59 665.63,105.00 666.39,105.00 667.16,105.00 667.92,104.41 668.69,104.41 669.45,104.41 670.21,104.41 670.98,104.41 671.74,104.41 672.51,104.41 673.27,103.83 674.04,102.66 674.80,101.49 675.57,101.49 676.33,101.49 677.10,101.49 677.86,101.49 678.63,101.49 679.39,101.49 680.15,101.49 680.92,101.49 681.68,101.49 682.45,101.49 683.21,100.32 683.98,100.32 684.74,100.32 685.51,99.73 686.27,99.73 687.04,99.73 687.80,99.14 688.57,99.14 689.33,99.14 690.09,98.56 690.86,98.56 691.62,98.56 692.39,98.56 693.15,98.56 693.92,98.56 694.68,98.56 695.45,98.56 696.21,98.56 696.98,98.56 697.74,98.56 698.51,98.56 699.27,98.56 700.03,97.97 700.80,97.97 701.56,96.80 702.33,96.22 703.09,96.22 703.86,96.22 704.62,95.63 705.39,95.63 706.15,95.63 706.92,95.63 707.68,95.63 708.45,95.05 709.21,92.70 709.97,92.70 710.74,92.70 711.50,92.70 712.27,92.12 713.03,92.12 713.80,92.12 714.56,92.12 715.33,92.12 716.09,92.12 716.86,92.12 717.62,92.12 718.38,92.12 719.15,91.53 719.91,91.53 720.68,91.53 721.44,90.95 722.21,90.36 722.97,90.36 723.74,89.77 724.50,89.77 725.27,89.19 726.03,89.19 726.80,89.19 727.56,88.02 728.32,88.02 729.09,87.43 729.85,87.43 730.62,87.43 731.38,87.43 732.15,86.26 732.91,85.68 733.68,85.09 734.44,85.09 735.21,85.09 735.97,81.58 736.74,80.99 737.50,80.41 738.26,80.41 739.03,80.41 739.79,80.41 740.56,80.41 741.32,80.41 742.09,80.41 742.85,80.41 743.62,80.41 744.38,79.82 745.15,79.82 745.91,79.23 746.68,78.65 747.44,78.65 748.20,78.06 748.97,78.06 749.73,78.06 750.50,78.06 751.26,78.06 752.03,77.48 752.79,76.89 753.56,76.89 754.32,76.89 755.09,76.89 755.85,76.31 756.62,76.31 757.38,76.31 758.14,75.72 758.91,75.72 759.67,75.72 760.44,75.72 761.20,75.72 761.97,75.72 762.73,75.14 763.50,75.14 764.26,75.14 765.03,73.96 765.79,73.96 766.55,73.96 767.32,73.38 768.08,73.38 768.85,72.79 769.61,72.79 770.38,72.79 771.14,72.79 771.91,72.79 772.67,72.79 773.44,72.21 774.20,72.21 774.97,72.21 775.73,72.21 776.49,72.21 777.26,71.04 778.02,71.04 778.79,71.04 779.55,71.04 780.32,71.04 781.08,71.04 781.85,71.04 782.61,69.86 783.38,69.86 784.14,69.86 784.91,69.86 785.67,69.28 786.43,69.28 787.20,69.28 787.96,68.69 788.73,68.69 789.49,68.69 790.26,68.11 791.02,68.11 791.79,68.11 792.55,67.52 793.32,66.94 794.08,66.94 794.85,66.94 795.61,66.94 796.37,66.35 797.14,66.35 797.90,66.35 798.67,66.35 799.43,66.35 800.20,65.18 800.96,64.59 801.73,64.59 802.49,64.01 803.26,64.01 804.02,64.01 804.79,64.01 805.55,64.01 806.31,64.01 807.08,64.01 807.84,63.42 808.61,62.25 809.37,62.25 810.14,62.25 810.90,61.67 811.67,61.67 812.43,61.67 813.20,61.67 813.96,61.67 814.73,60.50 815.49,59.91 816.25,59.91 817.02,59.32 817.78,58.74 818.55,58.74 819.31,58.74 820.08,58.74 820.84,58.15 821.61,58.15 822.37,58.15 823.14,57.57 823.90,56.98 824.66,56.98 825.43,56.98 826.19,56.98 826.96,56.98 827.72,56.98 828.49,56.98 829.25,56.98 830.02,56.98 830.78,56.98 831.55,56.98 832.31,56.40 833.08,56.40 833.84,56.40 834.60,56.40 835.37,56.40 836.13,56.40 836.90,56.40 837.66,56.40 838.43,56.40 839.19,56.40 839.96,56.40 840.72,56.40 841.49,56.40 842.25,56.40 843.02,56.40 843.78,56.40 844.54,55.81 845.31,55.23 846.07,55.23 846.84,55.23 847.60,55.23 848.37,55.23 849.13,55.23 849.90,55.23 850.66,55.23 851.43,55.23 852.19,55.23 852.96,54.64 853.72,54.64 854.48,54.05 855.25,54.05 856.01,54.05 856.78,54.05 857.54,54.05 858.31,54.05 859.07,54.05 859.84,54.05 860.60,53.47 861.37,53.47 862.13,52.88 862.90,52.88 863.66,52.88 864.42,52.88 865.19,52.88 865.95,52.88 866.72,52.88 867.48,52.88 868.25,52.88 869.01,52.88 869.78,52.88 870.54,52.88 871.31,52.88 872.07,52.30 872.84,52.30 873.60,51.71 874.36,51.71 875.13,51.71 875.89,51.71 876.66,51.71 877.42,51.71 878.19,51.71 878.95,51.71 879.72,51.71 880.48,51.71 881.25,51.71 882.01,51.71 882.77,51.71 883.54,51.71 884.30,51.71 885.07,51.71 885.83,51.71 886.60,51.71 887.36,51.71 888.13,51.13 888.89,51.13 889.66,51.13 890.42,51.13 891.19,51.13 891.95,51.13 892.71,51.13 893.48,50.54 894.24,50.54 895.01,50.54 895.77,50.54 896.54,50.54 897.30,50.54 898.07,50.54 898.83,50.54 899.60,50.54 900.36,49.95 901.13,49.95 901.89,49.95 902.65,49.37 903.42,49.37 904.18,49.37 904.95,49.37 905.71,48.78 906.48,48.78 907.24,48.78 908.01,48.78 908.77,48.20 909.54,48.20 910.30,48.20 911.07,48.20 911.83,47.61 912.59,47.61 913.36,47.61 914.12,47.61 914.89,47.61 915.65,47.61 916.42,47.03 917.18,47.03 917.95,47.03 918.71,47.03 919.48,47.03 920.24,47.03 921.01,46.44 921.77,46.44 922.53,46.44 923.30,45.86 924.06,45.27 924.83,45.27 925.59,45.27 926.36,45.27 927.12,44.68 927.89,44.68 928.65,44.68 929.42,44.68 930.18,44.68 930.95,44.68 931.71,44.10 932.47,44.10 933.24,44.10 934.00,44.10 934.77,44.10 935.53,44.10 936.30,43.51 937.06,43.51 937.83,43.51 938.59,43.51 939.36,43.51 940.12,43.51 940.88,43.51 941.65,43.51 942.41,43.51 943.18,43.51 943.94,43.51 944.71,43.51 945.47,43.51 946.24,43.51 947.00,43.51 947.77,42.93 948.53,42.93 949.30,42.93 950.06,42.93 950.82,42.93 951.59,42.93 952.35,42.93 953.12,42.34 953.88,42.34 954.65,41.76 955.41,41.76 956.18,41.76 956.94,41.17 957.71,40.59 958.47,40.00 959.24,40.00 960.00,40.00" fill="none" stroke="#2563eb" stroke-width="2"/>
<text x="78" y="58" font-family="Arial" font-size="12" fill="#2563eb">blue: cumulative relations</text>
<text x="78" y="76" font-family="Arial" font-size="12" fill="#ea580c">orange bars: new relations at idx</text>
</svg>