<svg xmlns="http://www.w3.org/2000/svg" width="1000" height="430" viewBox="0 0 1000 430">
<rect width="100%" height="100%" fill="white"/>
<text x="500.0" y="24" text-anchor="middle" font-family="Arial" font-size="18" font-weight="700">Growth Curve: case2_name_general</text>
<line x1="70" y1="365" x2="960" y2="365" stroke="#111827"/>
<line x1="70" y1="40" x2="70" y2="365" stroke="#111827"/>
<text x="515.0" y="412" text-anchor="middle" font-family="Arial" font-size="13">sample idx</text>
<line x1="70" y1="365.00" x2="960" y2="365.00" stroke="#e5e7eb"/>
<text x="62" y="369.00" text-anchor="end" font-family="Arial" font-size="11">0</text>
<line x1="70" y1="300.26" x2="960" y2="300.26" stroke="#e5e7eb"/>
<text x="62" y="304.26" text-anchor="end" font-family="Arial" font-size="11">100</text>
<line x1="70" y1="234.87" x2="960" y2="234.87" stroke="#e5e7eb"/>
<text x="62" y="238.87" text-anchor="end" font-family="Arial" font-size="11">201</text>
<line x1="70" y1="170.13" x2="960" y2="170.13" stroke="#e5e7eb"/>
<text x="62" y="174.13" text-anchor="end" font-family="Arial" font-size="11">301</text>
<line x1="70" y1="104.74" x2="960" y2="104.74" stroke="#e5e7eb"/>
<text x="62" y="108.74" text-anchor="end" font-family="Arial" font-size="11">402</text>
<line x1="70" y1="40.00" x2="960" y2="40.00" stroke="#e5e7eb"/>
<text x="62" y="44.00" text-anchor="end" font-family="Arial" font-size="11">502</text>
<rect x="69.00" y="350.00" width="2" height="15.00" fill="#f97316" opacity="0.35"/>
<rect x="69.76" y="275.00" width="2" height="90.00" fill="#f97316" opacity="0.35"/>
<rect x="70.53" y="335.00" width="2" height="30.00" fill="#f97316" opacity="0.35"/>
<rect x="71.29" y="305.00" width="2" height="60.00" fill="#f97316" opacity="0.35"/>
<rect x="72.06" y="320.00" width="2" height="45.00" fill="#f97316" opacity="0.35"/>
<rect x="72.82" y="335.00" width="2" height="30.00" fill="#f97316" opacity="0.35"/>
<rect x="73.59" y="320.00" width="2" height="45.00" fill="#f97316" opacity="0.35"/>
<rect x="74.35" y="290.00" width="2" height="75.00" fill="#f97316" opacity="0.35"/>
<rect x="75.88" y="350.00" width="2" height="15.00" fill="#f97316" opacity="0.35"/>
<rect x="76.65" y="335.00" width="2" height="30.00" fill="#f97316" opacity="0.35"/>
<rect x="77.41" y="320.00" width="2" height="45.00" fill="#f97316" opacity="0.35"/>
<rect x="78.94" y="320.00" width="2" height="45.00" fill="#f97316" opacity="0.35"/>
<rect x="79.70" y="350.00" width="2" height="15.00" fill="#f97316" opacity="0.35"/>
<rect x="80.47" y="350.00" width="2" height="15.00" fill="#f97316" opacity="0.35"/>
<rect x="81.23" y="320.00" width="2" height="45.00" fill="#f97316" opacity="0.35"/>
<rect x="82.00" y="350.00" width="2" height="15.00" fill="#f97316" opacity="0.35"/>
<rect x="83.53" y="320.00" width="2" height="45.00" fill="#f97316" opacity="0.35"/>
<rect x="84.29" y="335.00" width="2" height="30.00" fill="#f97316" opacity="0.35"/>
<rect x="85.82" y="320.00" width="2" height="45.00" fill="#f97316" opacity="0.35"/>
<rect x="87.35" y="320.00" width="2" height="45.00" fill="#f97316" opacity="0.35"/>
<rect x="88.12" y="335.00" width="2" height="30.00" fill="#f97316" opacity="0.35"/>
<rect x="88.88" y="350.00" width="2" height="15.00" fill="#f97316" opacity="0.35"/>
<rect x="89.64" y="335.00" width="2" height="30.00" fill="#f97316" opacity="0.35"/>
<rect x="90.41" y="320.00" width="2" height="45.00" fill="#f97316" opacity="0.35"/>
<rect x="91.17" y="335.00" width="2" height="30.00" fill="#f97316" opacity="0.35"/>
<rect x="91.94" y="320.00" width="2" height="45.00" fill="#f97316" opacity="0.35"/>
<rect x="92.70" y="350.00" width="2" height="15.00" fill="#f97316" opacity="0.35"/>
<rect x="94.23" y="275.00" width="2" height="90.00" fill="#f97316" opacity="0.35"/>
<rect x="95.00" y="350.00" width="2" height="15.00" fill="#f97316" opacity="0.35"/>
<rect x="96.53" y="350.00" width="2" height="15.00" fill="#f97316" opacity="0.35"/>
<rect x="98.05" y="350.00" width="2" height="15.00" fill="#f97316" opacity="0.35"/>
<rect x="98.82" y="320.00" width="2" height="45.00" fill="#f97316" opacity="0.35"/>
<rect x="99.58" y="350.00" width="2" height="15.00" fill="#f97316" opacity="0.35"/>
<rect x="100.35" y="350.00" width="2" height="15.00" fill="#f97316" opacity="0.35"/>
<rect x="101.11" y="350.00" width="2" height="15.00" fill="#f97316" opacity="0.35"/>
<rect x="101.88" y="350.00" width="2" height="15.00" fill="#f97316" opacity="0.35"/>
<rect x="103.41" y="350.00" width="2" height="15.00" fill="#f97316" opacity="0.35"/>
<rect x="104.17" y="350.00" width="2" height="15.00" fill="#f97316" opacity="0.35"/>
<rect x="104.94" y="335.00" width="2" height="30.00" fill="#f97316" opacity="0.35"/>
<rect x="105.70" y="305.00" width="2" height="60.00" fill="#f97316" opacity="0.35"/>
<rect x="106.47" y="350.00" width="2" height="15.00" fill="#f97316" opacity="0.35"/>
<rect x="107.23" y="335.00" width="2" height="30.00" fill="#f97316" opacity="0.35"/>
<rect x="107.99" y="335.00" width="2" height="30.00" fill="#f97316" opacity="0.35"/>
<rect x="108.76" y="350.00" width="2" height="15.00" fill="#f97316" opacity="0.35"/>
<rect x="109.52" y="335.00" width="2" height="30.00" fill="#f97316" opacity="0.35"/>
<rect x="111.82" y="335.00" width="2" height="30.00" fill="#f97316" opacity="0.35"/>
<rect x="114.88" y="335.00" width="2" height="30.00" fill="#f97316" opacity="0.35"/>
<rect x="115.64" y="350.00" width="2" height="15.00" fill="#f97316" opacity="0.35"/>
<rect x="116.41" y="350.00" width="2" height="15.00" fill="#f97316" opacity="0.35"/>
<rect x="117.17" y="350.00" width="2" height="15.00" fill="#f97316" opacity="0.35"/>
<rect x="117.93" y="350.00" width="2" height="15.00" fill="#f97316" opacity="0.35"/>
<rect x="118.70" y="350.00" width="2" height="15.00" fill="#f97316" opacity="0.35"/>
<rect x="119.46" y="305.00" width="2" height="60.00" fill="#f97316" opacity="0.35"/>
<rect x="120.23" y="335.00" width="2" height="30.00" fill="#f97316" opacity="0.35"/>
<rect x="121.76" y="350.00" width="2" height="15.00" fill="#f97316" opacity="0.35"/>
<rect x="122.52" y="350.00" width="2" height="15.00" fill="#f97316" opacity="0.35"/>
<rect x="124.05" y="335.00" width="2" height="30.00" fill="#f97316" opacity="0.35"/>
<rect x="124.82" y="335.00" width="2" height="30.00" fill="#f97316" opacity="0.35"/>
<rect x="125.58" y="350.00" width="2" height="15.00" fill="#f97316" opacity="0.35"/>
<rect x="127.11" y="350.00" width="2" height="15.00" fill="#f97316" opacity="0.35"/>
<rect x="128.64" y="350.00" width="2" height="15.00" fill="#f97316" opacity="0.35"/>
<rect x="131.70" y="335.00" width="2" height="30.00" fill="#f97316" opacity="0.35"/>
<rect x="132.46" y="350.00" width="2" height="15.00" fill="#f97316" opacity="0.35"/>
<rect x="133.99" y="335.00" width="2" height="30.00" fill="#f97316" opacity="0.35"/>
<rect x="136.29" y="320.00" width="2" height="45.00" fill="#f97316" opacity="0.35"/>
<rect x="137.81" y="305.00" width="2" height="60.00" fill="#f97316" opacity="0.35"/>
<rect x="138.58" y="320.00" width="2" height="45.00" fill="#f97316" opacity="0.35"/>
<rect x="140.11" y="350.00" width="2" height="15.00" fill="#f97316" opacity="0.35"/>
<rect x="141.64" y="335.00" width="2" height="30.00" fill="#f97316" opacity="0.35"/>
<rect x="144.70" y="350.00" width="2" height="15.00" fill="#f97316" opacity="0.35"/>
<rect x="145.46" y="335.00" width="2" height="30.00" fill="#f97316" opacity="0.35"/>
<rect x="146.23" y="350.00" width="2" height="15.00" fill="#f97316" opacity="0.35"/>
<rect x="147.75" y="350.00" width="2" height="15.00" fill="#f97316" opacity="0.35"/>
<rect x="148.52" y="320.00" width="2" height="45.00" fill="#f97316" opacity="0.35"/>
<rect x="149.28" y="350.00" width="2" height="15.00" fill="#f97316" opacity="0.35"/>
<rect x="150.81" y="350.00" width="2" height="15.00" fill="#f97316" opacity="0.35"/>
<rect x="151.58" y="335.00" width="2" height="30.00" fill="#f97316" opacity="0.35"/>
<rect x="152.34" y="350.00" width="2" height="15.00" fill="#f97316" opacity="0.35"/>
<rect x="153.87" y="320.00" width="2" height="45.00" fill="#f97316" opacity="0.35"/>
<rect x="154.64" y="335.00" width="2" height="30.00" fill="#f97316" opacity="0.35"/>
<rect x="156.16" y="320.00" width="2" height="45.00" fill="#f97316" opacity="0.35"/>
<rect x="158.46" y="350.00" width="2" height="15.00" fill="#f97316" opacity="0.35"/>
<rect x="159.22" y="350.00" width="2" height="15.00" fill="#f97316" opacity="0.35"/>
<rect x="160.75" y="350.00" width="2" height="15.00" fill="#f97316" opacity="0.35"/>
<rect x="162.28" y="350.00" width="2" height="15.00" fill="#f97316" opacity="0.35"/>
<rect x="163.81" y="350.00" width="2" height="15.00" fill="#f97316" opacity="0.35"/>
<rect x="166.87" y="335.00" width="2" height="30.00" fill="#f97316" opacity="0.35"/>
<rect x="167.63" y="350.00" width="2" height="15.00" fill="#f97316" opacity="0.35"/>
<rect x="169.16" y="320.00" width="2" height="45.00" fill="#f97316" opacity="0.35"/>
<rect x="169.93" y="350.00" width="2" height="15.00" fill="#f97316" opacity="0.35"/>
<rect x="170.69" y="350.00" width="2" height="15.00" fill="#f97316" opacity="0.35"/>
<rect x="172.22" y="350.00" width="2" height="15.00" fill="#f97316" opacity="0.35"/>
<rect x="172.99" y="335.00" width="2" height="30.00" fill="#f97316" opacity="0.35"/>
<rect x="173.75" y="350.00" width="2" height="15.00" fill="#f97316" opacity="0.35"/>
<rect x="176.81" y="350.00" width="2" height="15.00" fill="#f97316" opacity="0.35"/>
<rect x="178.34" y="350.00" width="2" height="15.00" fill="#f97316" opacity="0.35"/>
<rect x="180.63" y="320.00" width="2" height="45.00" fill="#f97316" opacity="0.35"/>
<rect x="181.40" y="350.00" width="2" height="15.00" fill="#f97316" opacity="0.35"/>
<rect x="182.93" y="350.00" width="2" height="15.00" fill="#f97316" opacity="0.35"/>
<rect x="183.69" y="350.00" width="2" height="15.00" fill="#f97316" opacity="0.35"/>
<rect x="184.46" y="350.00" width="2" height="15.00" fill="#f97316" opacity="0.35"/>
<rect x="185.22" y="350.00" width="2" height="15.00" fill="#f97316" opacity="0.35"/>
<rect x="186.75" y="290.00" width="2" height="75.00" fill="#f97316" opacity="0.35"/>
<rect x="188.28" y="350.00" width="2" height="15.00" fill="#f97316" opacity="0.35"/>
<rect x="195.16" y="320.00" width="2" height="45.00" fill="#f97316" opacity="0.35"/>
<rect x="196.69" y="350.00" width="2" height="15.00" fill="#f97316" opacity="0.35"/>
<rect x="199.75" y="335.00" width="2" height="30.00" fill="#f97316" opacity="0.35"/>
<rect x="200.51" y="350.00" width="2" height="15.00" fill="#f97316" opacity="0.35"/>
<rect x="201.28" y="335.00" width="2" height="30.00" fill="#f97316" opacity="0.35"/>
<rect x="202.04" y="350.00" width="2" height="15.00" fill="#f97316" opacity="0.35"/>
<rect x="205.86" y="350.00" width="2" height="15.00" fill="#f97316" opacity="0.35"/>
<rect x="208.16" y="350.00" width="2" height="15.00" fill="#f97316" opacity="0.35"/>
<rect x="208.92" y="350.00" width="2" height="15.00" fill="#f97316" opacity="0.35"/>
<rect x="210.45" y="350.00" width="2" height="15.00" fill="#f97316" opacity="0.35"/>
<rect x="211.22" y="350.00" width="2" height="15.00" fill="#f97316" opacity="0.35"/>
<rect x="211.98" y="350.00" width="2" height="15.00" fill="#f97316" opacity="0.35"/>
<rect x="213.51" y="350.00" width="2" height="15.00" fill="#f97316" opacity="0.35"/>
<rect x="214.27" y="350.00" width="2" height="15.00" fill="#f97316" opacity="0.35"/>
<rect x="215.80" y="350.00" width="2" height="15.00" fill="#f97316" opacity="0.35"/>
<rect x="216.57" y="350.00" width="2" height="15.00" fill="#f97316" opacity="0.35"/>
<rect x="218.86" y="350.00" width="2" height="15.00" fill="#f97316" opacity="0.35"/>
<rect x="220.39" y="350.00" width="2" height="15.00" fill="#f97316" opacity="0.35"/>
<rect x="221.16" y="320.00" width="2" height="45.00" fill="#f97316" opacity="0.35"/>
<rect x="221.92" y="350.00" width="2" height="15.00" fill="#f97316" opacity="0.35"/>
<rect x="224.21" y="350.00" width="2" height="15.00" fill="#f97316" opacity="0.35"/>
<rect x="228.04" y="350.00" width="2" height="15.00" fill="#f97316" opacity="0.35"/>
<rect x="234.92" y="335.00" width="2" height="30.00" fill="#f97316" opacity="0.35"/>
<rect x="236.45" y="350.00" width="2" height="15.00" fill="#f97316" opacity="0.35"/>
<rect x="237.98" y="335.00" width="2" height="30.00" fill="#f97316" opacity="0.35"/>
<rect x="241.04" y="350.00" width="2" height="15.00" fill="#f97316" opacity="0.35"/>
<rect x="253.27" y="350.00" width="2" height="15.00" fill="#f97316" opacity="0.35"/>
<rect x="254.03" y="335.00" width="2" height="30.00" fill="#f97316" opacity="0.35"/>
<rect x="255.56" y="350.00" width="2" height="15.00" fill="#f97316" opacity="0.35"/>
<rect x="257.09" y="350.00" width="2" height="15.00" fill="#f97316" opacity="0.35"/>
<rect x="257.86" y="350.00" width="2" height="15.00" fill="#f97316" opacity="0.35"/>
<rect x="259.39" y="350.00" width="2" height="15.00" fill="#f97316" opacity="0.35"/>
<rect x="260.15" y="335.00" width="2" height="30.00" fill="#f97316" opacity="0.35"/>
<rect x="260.92" y="350.00" width="2" height="15.00" fill="#f97316" opacity="0.35"/>
<rect x="262.45" y="335.00" width="2" height="30.00" fill="#f97316" opacity="0.35"/>
<rect x="265.50" y="350.00" width="2" height="15.00" fill="#f97316" opacity="0.35"/>
<rect x="267.80" y="350.00" width="2" height="15.00" fill="#f97316" opacity="0.35"/>
<rect x="274.68" y="350.00" width="2" height="15.00" fill="#f97316" opacity="0.35"/>
<rect x="277.74" y="350.00" width="2" height="15.00" fill="#f97316" opacity="0.35"/>
<rect x="283.09" y="350.00" width="2" height="15.00" fill="#f97316" opacity="0.35"/>
<rect x="284.62" y="350.00" width="2" height="15.00" fill="#f97316" opacity="0.35"/>
<rect x="286.15" y="320.00" width="2" height="45.00" fill="#f97316" opacity="0.35"/>
<rect x="293.03" y="335.00" width="2" height="30.00" fill="#f97316" opacity="0.35"/>
<rect x="294.56" y="350.00" width="2" height="15.00" fill="#f97316" opacity="0.35"/>
<rect x="295.32" y="350.00" width="2" height="15.00" fill="#f97316" opacity="0.35"/>
<rect x="300.68" y="350.00" width="2" height="15.00" fill="#f97316" opacity="0.35"/>
<rect x="302.20" y="350.00" width="2" height="15.00" fill="#f97316" opacity="0.35"/>
<rect x="303.73" y="350.00" width="2" height="15.00" fill="#f97316" opacity="0.35"/>
<rect x="306.79" y="350.00" width="2" height="15.00" fill="#f97316" opacity="0.35"/>
<rect x="308.32" y="350.00" width="2" height="15.00" fill="#f97316" opacity="0.35"/>
<rect x="309.85" y="350.00" width="2" height="15.00" fill="#f97316" opacity="0.35"/>
<rect x="312.14" y="350.00" width="2" height="15.00" fill="#f97316" opacity="0.35"/>
<rect x="312.91" y="350.00" width="2" height="15.00" fill="#f97316" opacity="0.35"/>
<rect x="317.50" y="350.00" width="2" height="15.00" fill="#f97316" opacity="0.35"/>
<rect x="318.26" y="335.00" width="2" height="30.00" fill="#f97316" opacity="0.35"/>
<rect x="322.85" y="335.00" width="2" height="30.00" fill="#f97316" opacity="0.35"/>
<rect x="325.91" y="350.00" width="2" height="15.00" fill="#f97316" opacity="0.35"/>
<rect x="326.67" y="350.00" width="2" height="15.00" fill="#f97316" opacity="0.35"/>
<rect x="328.97" y="350.00" width="2" height="15.00" fill="#f97316" opacity="0.35"/>
<rect x="331.26" y="350.00" width="2" height="15.00" fill="#f97316" opacity="0.35"/>
<rect x="332.02" y="350.00" width="2" height="15.00" fill="#f97316" opacity="0.35"/>
<rect x="332.79" y="335.00" width="2" height="30.00" fill="#f97316" opacity="0.35"/>
<rect x="333.55" y="350.00" width="2" height="15.00" fill="#f97316" opacity="0.35"/>
<rect x="335.85" y="350.00" width="2" height="15.00" fill="#f97316" opacity="0.35"/>
<rect x="336.61" y="350.00" width="2" height="15.00" fill="#f97316" opacity="0.35"/>
<rect x="337.38" y="350.00" width="2" height="15.00" fill="#f97316" opacity="0.35"/>
<rect x="338.91" y="350.00" width="2" height="15.00" fill="#f97316" opacity="0.35"/>
<rect x="339.67" y="350.00" width="2" height="15.00" fill="#f97316" opacity="0.35"/>
<rect x="340.43" y="350.00" width="2" height="15.00" fill="#f97316" opacity="0.35"/>
<rect x="341.20" y="350.00" width="2" height="15.00" fill="#f97316" opacity="0.35"/>
<rect x="341.96" y="350.00" width="2" height="15.00" fill="#f97316" opacity="0.35"/>
<rect x="345.02" y="350.00" width="2" height="15.00" fill="#f97316" opacity="0.35"/>
<rect x="347.32" y="350.00" width="2" height="15.00" fill="#f97316" opacity="0.35"/>
<rect x="348.08" y="350.00" width="2" height="15.00" fill="#f97316" opacity="0.35"/>
<rect x="348.85" y="350.00" width="2" height="15.00" fill="#f97316" opacity="0.35"/>
<rect x="349.61" y="350.00" width="2" height="15.00" fill="#f97316" opacity="0.35"/>
<rect x="351.14" y="335.00" width="2" height="30.00" fill="#f97316" opacity="0.35"/>
<rect x="354.96" y="350.00" width="2" height="15.00" fill="#f97316" opacity="0.35"/>
<rect x="356.49" y="335.00" width="2" height="30.00" fill="#f97316" opacity="0.35"/>
<rect x="358.79" y="350.00" width="2" height="15.00" fill="#f97316" opacity="0.35"/>
<rect x="360.31" y="350.00" width="2" height="15.00" fill="#f97316" opacity="0.35"/>
<rect x="362.61" y="350.00" width="2" height="15.00" fill="#f97316" opacity="0.35"/>
<rect x="364.14" y="350.00" width="2" height="15.00" fill="#f97316" opacity="0.35"/>
<rect x="368.73" y="335.00" width="2" height="30.00" fill="#f97316" opacity="0.35"/>
<rect x="371.02" y="350.00" width="2" height="15.00" fill="#f97316" opacity="0.35"/>
<rect x="371.78" y="350.00" width="2" height="15.00" fill="#f97316" opacity="0.35"/>
<rect x="374.08" y="350.00" width="2" height="15.00" fill="#f97316" opacity="0.35"/>
<rect x="374.84" y="335.00" width="2" height="30.00" fill="#f97316" opacity="0.35"/>
<rect x="377.14" y="350.00" width="2" height="15.00" fill="#f97316" opacity="0.35"/>
<rect x="382.49" y="350.00" width="2" height="15.00" fill="#f97316" opacity="0.35"/>
<rect x="387.08" y="350.00" width="2" height="15.00" fill="#f97316" opacity="0.35"/>
<rect x="388.60" y="350.00" width="2" height="15.00" fill="#f97316" opacity="0.35"/>
<rect x="389.37" y="350.00" width="2" height="15.00" fill="#f97316" opacity="0.35"/>
<rect x="390.90" y="350.00" width="2" height="15.00" fill="#f97316" opacity="0.35"/>
<rect x="393.96" y="350.00" width="2" height="15.00" fill="#f97316" opacity="0.35"/>
<rect x="394.72" y="350.00" width="2" height="15.00" fill="#f97316" opacity="0.35"/>
<rect x="395.49" y="350.00" width="2" height="15.00" fill="#f97316" opacity="0.35"/>
<rect x="397.02" y="350.00" width="2" height="15.00" fill="#f97316" opacity="0.35"/>
<rect x="397.78" y="350.00" width="2" height="15.00" fill="#f97316" opacity="0.35"/>
<rect x="410.78" y="350.00" width="2" height="15.00" fill="#f97316" opacity="0.35"/>
<rect x="411.54" y="350.00" width="2" height="15.00" fill="#f97316" opacity="0.35"/>
<rect x="412.31" y="350.00" width="2" height="15.00" fill="#f97316" opacity="0.35"/>
<rect x="421.48" y="350.00" width="2" height="15.00" fill="#f97316" opacity="0.35"/>
<rect x="422.25" y="350.00" width="2" height="15.00" fill="#f97316" opacity="0.35"/>
<rect x="423.01" y="350.00" width="2" height="15.00" fill="#f97316" opacity="0.35"/>
<rect x="424.54" y="350.00" width="2" height="15.00" fill="#f97316" opacity="0.35"/>
<rect x="425.31" y="350.00" width="2" height="15.00" fill="#f97316" opacity="0.35"/>
<rect x="429.89" y="350.00" width="2" height="15.00" fill="#f97316" opacity="0.35"/>
<rect x="432.95" y="350.00" width="2" height="15.00" fill="#f97316" opacity="0.35"/>
<rect x="433.72" y="320.00" width="2" height="45.00" fill="#f97316" opacity="0.35"/>
<rect x="435.25" y="350.00" width="2" height="15.00" fill="#f97316" opacity="0.35"/>
<rect x="439.83" y="335.00" width="2" height="30.00" fill="#f97316" opacity="0.35"/>
<rect x="445.19" y="335.00" width="2" height="30.00" fill="#f97316" opacity="0.35"/>
<rect x="445.95" y="350.00" width="2" height="15.00" fill="#f97316" opacity="0.35"/>
<rect x="449.77" y="335.00" width="2" height="30.00" fill="#f97316" opacity="0.35"/>
<rect x="450.54" y="350.00" width="2" height="15.00" fill="#f97316" opacity="0.35"/>
<rect x="452.07" y="320.00" width="2" height="45.00" fill="#f97316" opacity="0.35"/>
<rect x="452.83" y="350.00" width="2" height="15.00" fill="#f97316" opacity="0.35"/>
<rect x="455.13" y="350.00" width="2" height="15.00" fill="#f97316" opacity="0.35"/>
<rect x="460.48" y="350.00" width="2" height="15.00" fill="#f97316" opacity="0.35"/>
<rect x="465.07" y="350.00" width="2" height="15.00" fill="#f97316" opacity="0.35"/>
<rect x="466.59" y="350.00" width="2" height="15.00" fill="#f97316" opacity="0.35"/>
<rect x="467.36" y="350.00" width="2" height="15.00" fill="#f97316" opacity="0.35"/>
<rect x="468.12" y="350.00" width="2" height="15.00" fill="#f97316" opacity="0.35"/>
<rect x="469.65" y="350.00" width="2" height="15.00" fill="#f97316" opacity="0.35"/>
<rect x="470.42" y="350.00" width="2" height="15.00" fill="#f97316" opacity="0.35"/>
<rect x="476.53" y="350.00" width="2" height="15.00" fill="#f97316" opacity="0.35"/>
<rect x="483.42" y="350.00" width="2" height="15.00" fill="#f97316" opacity="0.35"/>
<rect x="488.00" y="350.00" width="2" height="15.00" fill="#f97316" opacity="0.35"/>
<rect x="494.12" y="335.00" width="2" height="30.00" fill="#f97316" opacity="0.35"/>
<rect x="494.88" y="350.00" width="2" height="15.00" fill="#f97316" opacity="0.35"/>
<rect x="495.65" y="350.00" width="2" height="15.00" fill="#f97316" opacity="0.35"/>
<rect x="497.94" y="350.00" width="2" height="15.00" fill="#f97316" opacity="0.35"/>
<rect x="499.47" y="350.00" width="2" height="15.00" fill="#f97316" opacity="0.35"/>
<rect x="504.06" y="335.00" width="2" height="30.00" fill="#f97316" opacity="0.35"/>
<rect x="506.35" y="350.00" width="2" height="15.00" fill="#f97316" opacity="0.35"/>
<rect x="507.88" y="350.00" width="2" height="15.00" fill="#f97316" opacity="0.35"/>
<rect x="512.47" y="350.00" width="2" height="15.00" fill="#f97316" opacity="0.35"/>
<rect x="516.29" y="350.00" width="2" height="15.00" fill="#f97316" opacity="0.35"/>
<rect x="518.59" y="335.00" width="2" height="30.00" fill="#f97316" opacity="0.35"/>
<rect x="523.94" y="350.00" width="2" height="15.00" fill="#f97316" opacity="0.35"/>
<rect x="527.00" y="350.00" width="2" height="15.00" fill="#f97316" opacity="0.35"/>
<rect x="533.12" y="350.00" width="2" height="15.00" fill="#f97316" opacity="0.35"/>
<rect x="534.64" y="335.00" width="2" height="30.00" fill="#f97316" opacity="0.35"/>
<rect x="535.41" y="350.00" width="2" height="15.00" fill="#f97316" opacity="0.35"/>
<rect x="539.23" y="335.00" width="2" height="30.00" fill="#f97316" opacity="0.35"/>
<rect x="540.00" y="350.00" width="2" height="15.00" fill="#f97316" opacity="0.35"/>
<rect x="548.41" y="350.00" width="2" height="15.00" fill="#f97316" opacity="0.35"/>
<rect x="549.94" y="335.00" width="2" height="30.00" fill="#f97316" opacity="0.35"/>
<rect x="550.70" y="350.00" width="2" height="15.00" fill="#f97316" opacity="0.35"/>
<rect x="552.99" y="350.00" width="2" height="15.00" fill="#f97316" opacity="0.35"/>
<rect x="556.82" y="350.00" width="2" height="15.00" fill="#f97316" opacity="0.35"/>
<rect x="558.35" y="335.00" width="2" height="30.00" fill="#f97316" opacity="0.35"/>
<rect x="560.64" y="335.00" width="2" height="30.00" fill="#f97316" opacity="0.35"/>
<rect x="563.70" y="350.00" width="2" height="15.00" fill="#f97316" opacity="0.35"/>
<rect x="572.87" y="350.00" width="2" height="15.00" fill="#f97316" opacity="0.35"/>
<rect x="580.52" y="335.00" width="2" height="30.00" fill="#f97316" opacity="0.35"/>
<rect x="582.81" y="350.00" width="2" height="15.00" fill="#f97316" opacity="0.35"/>
<rect x="584.34" y="350.00" width="2" height="15.00" fill="#f97316" opacity="0.35"/>
<rect x="592.75" y="350.00" width="2" height="15.00" fill="#f97316" opacity="0.35"/>
<rect x="594.28" y="350.00" width="2" height="15.00" fill="#f97316" opacity="0.35"/>
<rect x="595.05" y="335.00" width="2" height="30.00" fill="#f97316" opacity="0.35"/>
<rect x="597.34" y="335.00" width="2" height="30.00" fill="#f97316" opacity="0.35"/>
<rect x="601.93" y="350.00" width="2" height="15.00" fill="#f97316" opacity="0.35"/>
<rect x="603.46" y="350.00" width="2" height="15.00" fill="#f97316" opacity="0.35"/>
<rect x="604.22" y="350.00" width="2" height="15.00" fill="#f97316" opacity="0.35"/>
<rect x="605.75" y="350.00" width="2" height="15.00" fill="#f97316" opacity="0.35"/>
<rect x="606.52" y="350.00" width="2" height="15.00" fill="#f97316" opacity="0.35"/>
<rect x="616.46" y="350.00" width="2" height="15.00" fill="#f97316" opacity="0.35"/>
<rect x="621.04" y="350.00" width="2" height="15.00" fill="#f97316" opacity="0.35"/>
<rect x="623.34" y="350.00" width="2" height="15.00" fill="#f97316" opacity="0.35"/>
<rect x="624.87" y="350.00" width="2" height="15.00" fill="#f97316" opacity="0.35"/>
<rect x="625.63" y="350.00" width="2" height="15.00" fill="#f97316" opacity="0.35"/>
<rect x="627.16" y="350.00" width="2" height="15.00" fill="#f97316" opacity="0.35"/>
<rect x="630.98" y="350.00" width="2" height="15.00" fill="#f97316" opacity="0.35"/>
<rect x="632.51" y="350.00" width="2" height="15.00" fill="#f97316" opacity="0.35"/>
<rect x="634.04" y="350.00" width="2" height="15.00" fill="#f97316" opacity="0.35"/>
<rect x="637.87" y="350.00" width="2" height="15.00" fill="#f97316" opacity="0.35"/>
<rect x="640.92" y="350.00" width="2" height="15.00" fill="#f97316" opacity="0.35"/>
<rect x="641.69" y="350.00" width="2" height="15.00" fill="#f97316" opacity="0.35"/>
<rect x="647.04" y="350.00" width="2" height="15.00" fill="#f97316" opacity="0.35"/>
<rect x="656.22" y="335.00" width="2" height="30.00" fill="#f97316" opacity="0.35"/>
<rect x="658.51" y="350.00" width="2" height="15.00" fill="#f97316" opacity="0.35"/>
<rect x="664.63" y="350.00" width="2" height="15.00" fill="#f97316" opacity="0.35"/>
<rect x="672.27" y="350.00" width="2" height="15.00" fill="#f97316" opacity="0.35"/>
<rect x="673.04" y="335.00" width="2" height="30.00" fill="#f97316" opacity="0.35"/>
<rect x="673.80" y="350.00" width="2" height="15.00" fill="#f97316" opacity="0.35"/>
<rect x="682.21" y="335.00" width="2" height="30.00" fill="#f97316" opacity="0.35"/>
<rect x="686.80" y="350.00" width="2" height="15.00" fill="#f97316" opacity="0.35"/>
<rect x="689.09" y="350.00" width="2" height="15.00" fill="#f97316" opacity="0.35"/>
<rect x="694.45" y="350.00" width="2" height="15.00" fill="#f97316" opacity="0.35"/>
<rect x="699.03" y="350.00" width="2" height="15.00" fill="#f97316" opacity="0.35"/>
<rect x="700.56" y="335.00" width="2" height="30.00" fill="#f97316" opacity="0.35"/>
<rect x="703.62" y="350.00" width="2" height="15.00" fill="#f97316" opacity="0.35"/>
<rect x="704.39" y="350.00" width="2" height="15.00" fill="#f97316" opacity="0.35"/>
<rect x="707.45" y="350.00" width="2" height="15.00" fill="#f97316" opacity="0.35"/>
<rect x="708.21" y="335.00" width="2" height="30.00" fill="#f97316" opacity="0.35"/>
<rect x="711.27" y="350.00" width="2" height="15.00" fill="#f97316" opacity="0.35"/>
<rect x="720.44" y="350.00" width="2" height="15.00" fill="#f97316" opacity="0.35"/>
<rect x="722.74" y="350.00" width="2" height="15.00" fill="#f97316" opacity="0.35"/>
<rect x="724.27" y="350.00" width="2" height="15.00" fill="#f97316" opacity="0.35"/>
<rect x="726.56" y="335.00" width="2" height="30.00" fill="#f97316" opacity="0.35"/>
<rect x="728.09" y="350.00" width="2" height="15.00" fill="#f97316" opacity="0.35"/>
<rect x="731.15" y="350.00" width="2" height="15.00" fill="#f97316" opacity="0.35"/>
<rect x="734.97" y="290.00" width="2" height="75.00" fill="#f97316" opacity="0.35"/>
<rect x="736.50" y="350.00" width="2" height="15.00" fill="#f97316" opacity="0.35"/>
<rect x="739.56" y="350.00" width="2" height="15.00" fill="#f97316" opacity="0.35"/>
<rect x="740.32" y="350.00" width="2" height="15.00" fill="#f97316" opacity="0.35"/>
<rect x="743.38" y="350.00" width="2" height="15.00" fill="#f97316" opacity="0.35"/>
<rect x="745.68" y="350.00" width="2" height="15.00" fill="#f97316" opacity="0.35"/>
<rect x="751.79" y="350.00" width="2" height="15.00" fill="#f97316" opacity="0.35"/>
<rect x="754.85" y="350.00" width="2" height="15.00" fill="#f97316" opacity="0.35"/>
<rect x="757.14" y="350.00" width="2" height="15.00" fill="#f97316" opacity="0.35"/>
<rect x="761.73" y="350.00" width="2" height="15.00" fill="#f97316" opacity="0.35"/>
<rect x="764.03" y="335.00" width="2" height="30.00" fill="#f97316" opacity="0.35"/>
<rect x="766.32" y="350.00" width="2" height="15.00" fill="#f97316" opacity="0.35"/>
<rect x="767.08" y="350.00" width="2" height="15.00" fill="#f97316" opacity="0.35"/>
<rect x="767.85" y="350.00" width="2" height="15.00" fill="#f97316" opacity="0.35"/>
<rect x="772.44" y="350.00" width="2" height="15.00" fill="#f97316" opacity="0.35"/>
<rect x="775.49" y="350.00" width="2" height="15.00" fill="#f97316" opacity="0.35"/>
<rect x="776.26" y="350.00" width="2" height="15.00" fill="#f97316" opacity="0.35"/>
<rect x="779.32" y="350.00" width="2" height="15.00" fill="#f97316" opacity="0.35"/>
<rect x="781.61" y="350.00" width="2" height="15.00" fill="#f97316" opacity="0.35"/>
<rect x="784.67" y="350.00" width="2" height="15.00" fill="#f97316" opacity="0.35"/>
<rect x="791.55" y="350.00" width="2" height="15.00" fill="#f97316" opacity="0.35"/>
<rect x="792.32" y="350.00" width="2" height="15.00" fill="#f97316" opacity="0.35"/>
<rect x="799.20" y="350.00" width="2" height="15.00" fill="#f97316" opacity="0.35"/>
<rect x="801.49" y="350.00" width="2" height="15.00" fill="#f97316" opacity="0.35"/>
<rect x="806.08" y="350.00" width="2" height="15.00" fill="#f97316" opacity="0.35"/>
<rect x="806.84" y="350.00" width="2" height="15.00" fill="#f97316" opacity="0.35"/>
<rect x="807.61" y="350.00" width="2" height="15.00" fill="#f97316" opacity="0.35"/>
<rect x="809.90" y="350.00" width="2" height="15.00" fill="#f97316" opacity="0.35"/>
<rect x="813.73" y="350.00" width="2" height="15.00" fill="#f97316" opacity="0.35"/>
<rect x="814.49" y="350.00" width="2" height="15.00" fill="#f97316" opacity="0.35"/>
<rect x="822.14" y="350.00" width="2" height="15.00" fill="#f97316" opacity="0.35"/>
<rect x="822.90" y="350.00" width="2" height="15.00" fill="#f97316" opacity="0.35"/>
<rect x="829.02" y="350.00" width="2" height="15.00" fill="#f97316" opacity="0.35"/>
<rect x="831.31" y="350.00" width="2" height="15.00" fill="#f97316" opacity="0.35"/>
<rect x="853.48" y="350.00" width="2" height="15.00" fill="#f97316" opacity="0.35"/>
<rect x="859.60" y="350.00" width="2" height="15.00" fill="#f97316" opacity="0.35"/>
<rect x="861.13" y="350.00" width="2" height="15.00" fill="#f97316" opacity="0.35"/>
<rect x="871.07" y="350.00" width="2" height="15.00" fill="#f97316" opacity="0.35"/>
<rect x="877.19" y="350.00" width="2" height="15.00" fill="#f97316" opacity="0.35"/>
<rect x="892.48" y="350.00" width="2" height="15.00" fill="#f97316" opacity="0.35"/>
<rect x="896.30" y="350.00" width="2" height="15.00" fill="#f97316" opacity="0.35"/>
<rect x="899.36" y="350.00" width="2" height="15.00" fill="#f97316" opacity="0.35"/>
<rect x="904.71" y="350.00" width="2" height="15.00" fill="#f97316" opacity="0.35"/>
<rect x="907.77" y="350.00" width="2" height="15.00" fill="#f97316" opacity="0.35"/>
<rect x="910.83" y="350.00" width="2" height="15.00" fill="#f97316" opacity="0.35"/>
<rect x="915.42" y="350.00" width="2" height="15.00" fill="#f97316" opacity="0.35"/>
<rect x="920.01" y="350.00" width="2" height="15.00" fill="#f97316" opacity="0.35"/>
<rect x="922.30" y="350.00" width="2" height="15.00" fill="#f97316" opacity="0.35"/>
<rect x="926.12" y="350.00" width="2" height="15.00" fill="#f97316" opacity="0.35"/>
<rect x="930.71" y="335.00" width="2" height="30.00" fill="#f97316" opacity="0.35"/>
<rect x="935.30" y="350.00" width="2" height="15.00" fill="#f97316" opacity="0.35"/>
<rect x="952.12" y="350.00" width="2" height="15.00" fill="#f97316" opacity="0.35"/>
<rect x="956.71" y="350.00" width="2" height="15.00" fill="#f97316" opacity="0.35"/>
<polyline points="70.00,364.35 70.76,360.47 71.53,359.17 72.29,356.58 73.06,354.64 73.82,353.35 74.59,351.40 75.35,348.17 76.12,348.17 76.88,347.52 77.65,346.23 78.41,344.28 79.18,344.28 79.94,342.34 80.70,341.69 81.47,341.05 82.23,339.10 83.00,338.46 83.76,338.46 84.53,336.51 85.29,335.22 86.06,335.22 86.82,333.28 87.59,333.28 88.35,331.33 89.12,330.04 89.88,329.39 90.64,328.10 91.41,326.16 92.17,324.86 92.94,322.92 93.70,322.27 94.47,322.27 95.23,318.39 96.00,317.74 96.76,317.74 97.53,317.09 98.29,317.09 99.05,316.44 99.82,314.50 100.58,313.85 101.35,313.21 102.11,312.56 102.88,311.91 103.64,311.91 104.41,311.26 105.17,310.62 105.94,309.32 106.70,306.73 107.47,306.09 108.23,304.79 108.99,303.50 109.76,302.85 110.52,301.55 111.29,301.55 112.05,301.55 112.82,300.26 113.58,300.26 114.35,300.26 115.11,300.26 115.88,298.96 116.64,298.32 117.41,297.67 118.17,297.02 118.93,296.37 119.70,295.73 120.46,293.14 121.23,291.84 121.99,291.84 122.76,291.20 123.52,290.55 124.29,290.55 125.05,289.25 125.82,287.96 126.58,287.31 127.35,287.31 128.11,286.66 128.87,286.66 129.64,286.02 130.40,286.02 131.17,286.02 131.93,286.02 132.70,284.72 133.46,284.07 134.23,284.07 134.99,282.78 135.76,282.78 136.52,282.78 137.29,280.84 138.05,280.84 138.81,278.25 139.58,276.30 140.34,276.30 141.11,275.66 141.87,275.66 142.64,274.36 143.40,274.36 144.17,274.36 144.93,274.36 145.70,273.72 146.46,272.42 147.23,271.77 147.99,271.77 148.75,271.13 149.52,269.18 150.28,268.54 151.05,268.54 151.81,267.89 152.58,266.59 153.34,265.95 154.11,265.95 154.87,264.00 155.64,262.71 156.40,262.71 157.16,260.77 157.93,260.77 158.69,260.77 159.46,260.12 160.22,259.47 160.99,259.47 161.75,258.82 162.52,258.82 163.28,258.18 164.05,258.18 164.81,257.53 165.58,257.53 166.34,257.53 167.10,257.53 167.87,256.24 168.63,255.59 169.40,255.59 170.16,253.65 170.93,253.00 171.69,252.35 172.46,252.35 173.22,251.70 173.99,250.41 174.75,249.76 175.52,249.76 176.28,249.76 177.04,249.76 177.81,249.11 178.57,249.11 179.34,248.47 180.10,248.47 180.87,248.47 181.63,246.52 182.40,245.88 183.16,245.88 183.93,245.23 184.69,244.58 185.46,243.93 186.22,243.29 186.98,243.29 187.75,240.05 188.51,240.05 189.28,239.40 190.04,239.40 190.81,239.40 191.57,239.40 192.34,239.40 193.10,239.40 193.87,239.40 194.63,239.40 195.40,239.40 196.16,237.46 196.92,237.46 197.69,236.81 198.45,236.81 199.22,236.81 199.98,236.81 200.75,235.52 201.51,234.87 202.28,233.58 203.04,232.93 203.81,232.93 204.57,232.93 205.34,232.93 206.10,232.93 206.86,232.28 207.63,232.28 208.39,232.28 209.16,231.63 209.92,230.99 210.69,230.99 211.45,230.34 212.22,229.69 212.98,229.04 213.75,229.04 214.51,228.40 215.27,227.75 216.04,227.75 216.80,227.10 217.57,226.45 218.33,226.45 219.10,226.45 219.86,225.81 220.63,225.81 221.39,225.16 222.16,223.22 222.92,222.57 223.69,222.57 224.45,222.57 225.21,221.92 225.98,221.92 226.74,221.92 227.51,221.92 228.27,221.92 229.04,221.27 229.80,221.27 230.57,221.27 231.33,221.27 232.10,221.27 232.86,221.27 233.63,221.27 234.39,221.27 235.15,221.27 235.92,219.98 236.68,219.98 237.45,219.33 238.21,219.33 238.98,218.04 239.74,218.04 240.51,218.04 241.27,218.04 242.04,217.39 242.80,217.39 243.57,217.39 244.33,217.39 245.09,217.39 245.86,217.39 246.62,217.39 247.39,217.39 248.15,217.39 248.92,217.39 249.68,217.39 250.45,217.39 251.21,217.39 251.98,217.39 252.74,217.39 253.51,217.39 254.27,216.74 255.03,215.45 255.80,215.45 256.56,214.80 257.33,214.80 258.09,214.15 258.86,213.51 259.62,213.51 260.39,212.86 261.15,211.56 261.92,210.92 262.68,210.92 263.45,209.62 264.21,209.62 264.97,209.62 265.74,209.62 266.50,208.97 267.27,208.97 268.03,208.97 268.80,208.33 269.56,208.33 270.33,208.33 271.09,208.33 271.86,208.33 272.62,208.33 273.38,208.33 274.15,208.33 274.91,208.33 275.68,207.68 276.44,207.68 277.21,207.68 277.97,207.68 278.74,207.03 279.50,207.03 280.27,207.03 281.03,207.03 281.80,207.03 282.56,207.03 283.32,207.03 284.09,206.38 284.85,206.38 285.62,205.74 286.38,205.74 287.15,203.79 287.91,203.79 288.68,203.79 289.44,203.79 290.21,203.79 290.97,203.79 291.74,203.79 292.50,203.79 293.26,203.79 294.03,202.50 294.79,202.50 295.56,201.85 296.32,201.21 297.09,201.21 297.85,201.21 298.62,201.21 299.38,201.21 300.15,201.21 300.91,201.21 301.68,200.56 302.44,200.56 303.20,199.91 303.97,199.91 304.73,199.26 305.50,199.26 306.26,199.26 307.03,199.26 307.79,198.62 308.56,198.62 309.32,197.97 310.09,197.97 310.85,197.32 311.62,197.32 312.38,197.32 313.14,196.67 313.91,196.03 314.67,196.03 315.44,196.03 316.20,196.03 316.97,196.03 317.73,196.03 318.50,195.38 319.26,194.08 320.03,194.08 320.79,194.08 321.55,194.08 322.32,194.08 323.08,194.08 323.85,192.79 324.61,192.79 325.38,192.79 326.14,192.79 326.91,192.14 327.67,191.49 328.44,191.49 329.20,191.49 329.97,190.85 330.73,190.85 331.49,190.85 332.26,190.20 333.02,189.55 333.79,188.26 334.55,187.61 335.32,187.61 336.08,187.61 336.85,186.96 337.61,186.31 338.38,185.67 339.14,185.67 339.91,185.02 340.67,184.37 341.43,183.73 342.20,183.08 342.96,182.43 343.73,182.43 344.49,182.43 345.26,182.43 346.02,181.78 346.79,181.78 347.55,181.78 348.32,181.14 349.08,180.49 349.85,179.84 350.61,179.19 351.37,179.19 352.14,177.90 352.90,177.90 353.67,177.90 354.43,177.90 355.20,177.90 355.96,177.25 356.73,177.25 357.49,175.96 358.26,175.96 359.02,175.96 359.79,175.31 360.55,175.31 361.31,174.66 362.08,174.66 362.84,174.66 363.61,174.01 364.37,174.01 365.14,173.37 365.90,173.37 366.67,173.37 367.43,173.37 368.20,173.37 368.96,173.37 369.73,172.07 370.49,172.07 371.25,172.07 372.02,171.42 372.78,170.78 373.55,170.78 374.31,170.78 375.08,170.13 375.84,168.83 376.61,168.83 377.37,168.83 378.14,168.19 378.90,168.19 379.66,168.19 380.43,168.19 381.19,168.19 381.96,168.19 382.72,168.19 383.49,167.54 384.25,167.54 385.02,167.54 385.78,167.54 386.55,167.54 387.31,167.54 388.08,166.89 388.84,166.89 389.60,166.25 390.37,165.60 391.13,165.60 391.90,164.95 392.66,164.95 393.43,164.95 394.19,164.95 394.96,164.30 395.72,163.66 396.49,163.01 397.25,163.01 398.02,162.36 398.78,161.71 399.54,161.71 400.31,161.71 401.07,161.71 401.84,161.71 402.60,161.71 403.37,161.71 404.13,161.71 404.90,161.71 405.66,161.71 406.43,161.71 407.19,161.71 407.96,161.71 408.72,161.71 409.48,161.71 410.25,161.71 411.01,161.71 411.78,161.07 412.54,160.42 413.31,159.77 414.07,159.77 414.84,159.77 415.60,159.77 416.37,159.77 417.13,159.77 417.90,159.77 418.66,159.77 419.42,159.77 420.19,159.77 420.95,159.77 421.72,159.77 422.48,159.12 423.25,158.48 424.01,157.83 424.78,157.83 425.54,157.18 426.31,156.53 427.07,156.53 427.84,156.53 428.60,156.53 429.36,156.53 430.13,156.53 430.89,155.89 431.66,155.89 432.42,155.89 433.19,155.89 433.95,155.24 434.72,153.30 435.48,153.30 436.25,152.65 437.01,152.65 437.77,152.65 438.54,152.65 439.30,152.65 440.07,152.65 440.83,151.35 441.60,151.35 442.36,151.35 443.13,151.35 443.89,151.35 444.66,151.35 445.42,151.35 446.19,150.06 446.95,149.41 447.71,149.41 448.48,149.41 449.24,149.41 450.01,149.41 450.77,148.12 451.54,147.47 452.30,147.47 453.07,145.53 453.83,144.88 454.60,144.88 455.36,144.88 456.13,144.23 456.89,144.23 457.65,144.23 458.42,144.23 459.18,144.23 459.95,144.23 460.71,144.23 461.48,143.59 462.24,143.59 463.01,143.59 463.77,143.59 464.54,143.59 465.30,143.59 466.07,142.94 466.83,142.94 467.59,142.29 468.36,141.64 469.12,141.00 469.89,141.00 470.65,140.35 471.42,139.70 472.18,139.70 472.95,139.70 473.71,139.70 474.48,139.70 475.24,139.70 476.01,139.70 476.77,139.70 477.53,139.05 478.30,139.05 479.06,139.05 479.83,139.05 480.59,139.05 481.36,139.05 482.12,139.05 482.89,139.05 483.65,139.05 484.42,138.41 485.18,138.41 485.95,138.41 486.71,138.41 487.47,138.41 488.24,138.41 489.00,137.76 489.77,137.76 490.53,137.76 491.30,137.76 492.06,137.76 492.83,137.76 493.59,137.76 494.36,137.76 495.12,136.46 495.88,135.82 496.65,135.17 497.41,135.17 498.18,135.17 498.94,134.52 499.71,134.52 500.47,133.87 501.24,133.87 502.00,133.87 502.77,133.87 503.53,133.87 504.30,133.87 505.06,132.58 505.82,132.58 506.59,132.58 507.35,131.93 508.12,131.93 508.88,131.28 509.65,131.28 510.41,131.28 511.18,131.28 511.94,131.28 512.71,131.28 513.47,130.64 514.24,130.64 515.00,130.64 515.76,130.64 516.53,130.64 517.29,129.99 518.06,129.99 518.82,129.99 519.59,128.70 520.35,128.70 521.12,128.70 521.88,128.70 522.65,128.70 523.41,128.70 524.18,128.70 524.94,128.05 525.70,128.05 526.47,128.05 527.23,128.05 528.00,127.40 528.76,127.40 529.53,127.40 530.29,127.40 531.06,127.40 531.82,127.40 532.59,127.40 533.35,127.40 534.12,126.75 534.88,126.75 535.64,125.46 536.41,124.81 537.17,124.81 537.94,124.81 538.70,124.81 539.47,124.81 540.23,123.52 541.00,122.87 541.76,122.87 542.53,122.87 543.29,122.87 544.05,122.87 544.82,122.87 545.58,122.87 546.35,122.87 547.11,122.87 547.88,122.87 548.64,122.87 549.41,122.22 550.17,122.22 550.94,120.93 551.70,120.28 552.47,120.28 553.23,120.28 553.99,119.63 554.76,119.63 555.52,119.63 556.29,119.63 557.05,119.63 557.82,118.98 558.58,118.98 559.35,117.69 560.11,117.69 560.88,117.69 561.64,116.39 562.41,116.39 563.17,116.39 563.93,116.39 564.70,115.75 565.46,115.75 566.23,115.75 566.99,115.75 567.76,115.75 568.52,115.75 569.29,115.75 570.05,115.75 570.82,115.75 571.58,115.75 572.35,115.75 573.11,115.75 573.87,115.10 574.64,115.10 575.40,115.10 576.17,115.10 576.93,115.10 577.70,115.10 578.46,115.10 579.23,115.10 579.99,115.10 580.76,115.10 581.52,113.80 582.29,113.80 583.05,113.80 583.81,113.16 584.58,113.16 585.34,112.51 586.11,112.51 586.87,112.51 587.64,112.51 588.40,112.51 589.17,112.51 589.93,112.51 590.70,112.51 591.46,112.51 592.23,112.51 592.99,112.51 593.75,111.86 594.52,111.86 595.28,111.22 596.05,109.92 596.81,109.92 597.58,109.92 598.34,108.63 599.11,108.63 599.87,108.63 600.64,108.63 601.40,108.63 602.16,108.63 602.93,107.98 603.69,107.98 604.46,107.33 605.22,106.68 605.99,106.68 606.75,106.04 607.52,105.39 608.28,105.39 609.05,105.39 609.81,105.39 610.58,105.39 611.34,105.39 612.10,105.39 612.87,105.39 613.63,105.39 614.40,105.39 615.16,105.39 615.93,105.39 616.69,105.39 617.46,104.74 618.22,104.74 618.99,104.74 619.75,104.74 620.52,104.74 621.28,104.74 622.04,104.09 622.81,104.09 623.57,104.09 624.34,103.45 625.10,103.45 625.87,102.80 626.63,102.15 627.40,102.15 628.16,101.50 628.93,101.50 629.69,101.50 630.46,101.50 631.22,101.50 631.98,100.86 632.75,100.86 633.51,100.21 634.28,100.21 635.04,99.56 635.81,99.56 636.57,99.56 637.34,99.56 638.10,99.56 638.87,98.91 639.63,98.91 640.40,98.91 641.16,98.91 641.92,98.27 642.69,97.62 643.45,97.62 644.22,97.62 644.98,97.62 645.75,97.62 646.51,97.62 647.28,97.62 648.04,96.97 648.81,96.97 649.57,96.97 650.34,96.97 651.10,96.97 651.86,96.97 652.63,96.97 653.39,96.97 654.16,96.97 654.92,96.97 655.69,96.97 656.45,96.97 657.22,95.68 657.98,95.68 658.75,95.68 659.51,95.03 660.27,95.03 661.04,95.03 661.80,95.03 662.57,95.03 663.33,95.03 664.10,95.03 664.86,95.03 665.63,94.38 666.39,94.38 667.16,94.38 667.92,94.38 668.69,94.38 669.45,94.38 670.21,94.38 670.98,94.38 671.74,94.38 672.51,94.38 673.27,93.74 674.04,92.44 674.80,91.79 675.57,91.79 676.33,91.79 677.10,91.79 677.86,91.79 678.63,91.79 679.39,91.79 680.15,91.79 680.92,91.79 681.68,91.79 682.45,91.79 683.21,90.50 683.98,90.50 684.74,90.50 685.51,90.50 686.27,90.50 687.04,90.50 687.80,89.85 688.57,89.85 689.33,89.85 690.09,89.20 690.86,89.20 691.62,89.20 692.39,89.20 693.15,89.20 693.92,89.20 694.68,89.20 695.45,88.56 696.21,88.56 696.98,88.56 697.74,88.56 698.51,88.56 699.27,88.56 700.03,87.91 700.80,87.91 701.56,86.61 702.33,86.61 703.09,86.61 703.86,86.61 704.62,85.97 705.39,85.32 706.15,85.32 706.92,85.32 707.68,85.32 708.45,84.67 709.21,83.38 709.97,83.38 710.74,83.38 711.50,83.38 712.27,82.73 713.03,82.73 713.80,82.73 714.56,82.73 715.33,82.73 716.09,82.73 716.86,82.73 717.62,82.73 718.38,82.73 719.15,82.73 719.91,82.73 720.68,82.73 721.44,82.08 722.21,82.08 722.97,82.08 723.74,81.43 724.50,81.43 725.27,80.79 726.03,80.79 726.80,80.79 727.56,79.49 728.32,79.49 729.09,78.84 729.85,78.84 730.62,78.84 731.38,78.84 732.15,78.20 732.91,78.20 733.68,78.20 734.44,78.20 735.21,78.20 735.97,74.96 736.74,74.96 737.50,74.31 738.26,74.31 739.03,74.31 739.79,74.31 740.56,73.67 741.32,73.02 742.09,73.02 742.85,73.02 743.62,73.02 744.38,72.37 745.15,72.37 745.91,72.37 746.68,71.72 747.44,71.72 748.20,71.72 748.97,71.72 749.73,71.72 750.50,71.72 751.26,71.72 752.03,71.72 752.79,71.08 753.56,71.08 754.32,71.08 755.09,71.08 755.85,70.43 756.62,70.43 757.38,70.43 758.14,69.78 758.91,69.78 759.67,69.78 760.44,69.78 761.20,69.78 761.97,69.78 762.73,69.13 763.50,69.13 764.26,69.13 765.03,67.84 765.79,67.84 766.55,67.84 767.32,67.19 768.08,66.54 768.85,65.90 769.61,65.90 770.38,65.90 771.14,65.90 771.91,65.90 772.67,65.90 773.44,65.25 774.20,65.25 774.97,65.25 775.73,65.25 776.49,64.60 777.26,63.95 778.02,63.95 778.79,63.95 779.55,63.95 780.32,63.31 781.08,63.31 781.85,63.31 782.61,62.66 783.38,62.66 784.14,62.66 784.91,62.66 785.67,62.01 786.43,62.01 787.20,62.01 787.96,62.01 788.73,62.01 789.49,62.01 790.26,62.01 791.02,62.01 791.79,62.01 792.55,61.36 793.32,60.72 794.08,60.72 794.85,60.72 795.61,60.72 796.37,60.72 797.14,60.72 797.90,60.72 798.67,60.72 799.43,60.72 800.20,60.07 800.96,60.07 801.73,60.07 802.49,59.42 803.26,59.42 804.02,59.42 804.79,59.42 805.55,59.42 806.31,59.42 807.08,58.77 807.84,58.13 808.61,57.48 809.37,57.48 810.14,57.48 810.90,56.83 811.67,56.83 812.43,56.83 813.20,56.83 813.96,56.83 814.73,56.19 815.49,55.54 816.25,55.54 817.02,55.54 817.78,55.54 818.55,55.54 819.31,55.54 820.08,55.54 820.84,55.54 821.61,55.54 822.37,55.54 823.14,54.89 823.90,54.24 824.66,54.24 825.43,54.24 826.19,54.24 826.96,54.24 827.72,54.24 828.49,54.24 829.25,54.24 830.02,53.60 830.78,53.60 831.55,53.60 832.31,52.95 833.08,52.95 833.84,52.95 834.60,52.95 835.37,52.95 836.13,52.95 836.90,52.95 837.66,52.95 838.43,52.95 839.19,52.95 839.96,52.95 840.72,52.95 841.49,52.95 842.25,52.95 843.02,52.95 843.78,52.95 844.54,52.95 845.31,52.95 846.07,52.95 846.84,52.95 847.60,52.95 848.37,52.95 849.13,52.95 849.90,52.95 850.66,52.95 851.43,52.95 852.19,52.95 852.96,52.95 853.72,52.95 854.48,52.30 855.25,52.30 856.01,52.30 856.78,52.30 857.54,52.30 858.31,52.30 859.07,52.30 859.84,52.30 860.60,51.65 861.37,51.65 862.13,51.01 862.90,51.01 863.66,51.01 864.42,51.01 865.19,51.01 865.95,51.01 866.72,51.01 867.48,51.01 868.25,51.01 869.01,51.01 869.78,51.01 870.54,51.01 871.31,51.01 872.07,50.36 872.84,50.36 873.60,50.36 874.36,50.36 875.13,50.36 875.89,50.36 876.66,50.36 877.42,50.36 878.19,49.71 878.95,49.71 879.72,49.71 880.48,49.71 881.25,49.71 882.01,49.71 882.77,49.71 883.54,49.71 884.30,49.71 885.07,49.71 885.83,49.71 886.60,49.71 887.36,49.71 888.13,49.71 888.89,49.71 889.66,49.71 890.42,49.71 891.19,49.71 891.95,49.71 892.71,49.71 893.48,49.06 894.24,49.06 895.01,49.06 895.77,49.06 896.54,49.06 897.30,48.42 898.07,48.42 898.83,48.42 899.60,48.42 900.36,47.77 901.13,47.77 901.89,47.77 902.65,47.77 903.42,47.77 904.18,47.77 904.95,47.77 905.71,47.12 906.48,47.12 907.24,47.12 908.01,47.12 908.77,46.47 909.54,46.47 910.30,46.47 911.07,46.47 911.83,45.83 912.59,45.83 913.36,45.83 914.12,45.83 914.89,45.83 915.65,45.83 916.42,45.18 917.18,45.18 917.95,45.18 918.71,45.18 919.48,45.18 920.24,45.18 921.01,44.53 921.77,44.53 922.53,44.53 923.30,43.88 924.06,43.88 924.83,43.88 925.59,43.88 926.36,43.88 927.12,43.24 927.89,43.24 928.65,43.24 929.42,43.24 930.18,43.24 930.95,43.24 931.71,41.94 932.47,41.94 933.24,41.94 934.00,41.94 934.77,41.94 935.53,41.94 936.30,41.29 937.06,41.29 937.83,41.29 938.59,41.29 939.36,41.29 940.12,41.29 940.88,41.29 941.65,41.29 942.41,41.29 943.18,41.29 943.94,41.29 944.71,41.29 945.47,41.29 946.24,41.29 947.00,41.29 947.77,41.29 948.53,41.29 949.30,41.29 950.06,41.29 950.82,41.29 951.59,41.29 952.35,41.29 953.12,40.65 953.88,40.65 954.65,40.65 955.41,40.65 956.18,40.65 956.94,40.65 957.71,40.00 958.47,40.00 959.24,40.00 960.00,40.00" fill="none" stroke="#2563eb" stroke-width="2"/>
<text x="78" y="58" font-family="Arial" font-size="12" fill="#2563eb">blue: cumulative relations</text>
<text x="78" y="76" font-family="Arial" font-size="12" fill="#ea580c">orange bars: new relations at idx</text>
</svg>