<svg xmlns="http://www.w3.org/2000/svg" width="1000" height="430" viewBox="0 0 1000 430">
<rect width="100%" height="100%" fill="white"/>
<text x="500.0" y="24" text-anchor="middle" font-family="Arial" font-size="18" font-weight="700">Growth Curve: case5_concat</text>
<line x1="70" y1="365" x2="960" y2="365" stroke="#111827"/>
<line x1="70" y1="40" x2="70" y2="365" stroke="#111827"/>
<text x="515.0" y="412" text-anchor="middle" font-family="Arial" font-size="13">sample idx</text>
<line x1="70" y1="365.00" x2="960" y2="365.00" stroke="#e5e7eb"/>
<text x="62" y="369.00" text-anchor="end" font-family="Arial" font-size="11">0</text>
<line x1="70" y1="299.67" x2="960" y2="299.67" stroke="#e5e7eb"/>
<text x="62" y="303.67" text-anchor="end" font-family="Arial" font-size="11">79</text>
<line x1="70" y1="235.17" x2="960" y2="235.17" stroke="#e5e7eb"/>
<text x="62" y="239.17" text-anchor="end" font-family="Arial" font-size="11">157</text>
<line x1="70" y1="169.83" x2="960" y2="169.83" stroke="#e5e7eb"/>
<text x="62" y="173.83" text-anchor="end" font-family="Arial" font-size="11">236</text>
<line x1="70" y1="105.33" x2="960" y2="105.33" stroke="#e5e7eb"/>
<text x="62" y="109.33" text-anchor="end" font-family="Arial" font-size="11">314</text>
<line x1="70" y1="40.00" x2="960" y2="40.00" stroke="#e5e7eb"/>
<text x="62" y="44.00" text-anchor="end" font-family="Arial" font-size="11">393</text>
<rect x="69.00" y="342.50" width="2" height="22.50" fill="#f97316" opacity="0.35"/>
<rect x="69.76" y="297.50" width="2" height="67.50" fill="#f97316" opacity="0.35"/>
<rect x="70.53" y="342.50" width="2" height="22.50" fill="#f97316" opacity="0.35"/>
<rect x="71.29" y="320.00" width="2" height="45.00" fill="#f97316" opacity="0.35"/>
<rect x="72.06" y="342.50" width="2" height="22.50" fill="#f97316" opacity="0.35"/>
<rect x="72.82" y="297.50" width="2" height="67.50" fill="#f97316" opacity="0.35"/>
<rect x="73.59" y="297.50" width="2" height="67.50" fill="#f97316" opacity="0.35"/>
<rect x="74.35" y="297.50" width="2" height="67.50" fill="#f97316" opacity="0.35"/>
<rect x="75.12" y="342.50" width="2" height="22.50" fill="#f97316" opacity="0.35"/>
<rect x="75.88" y="342.50" width="2" height="22.50" fill="#f97316" opacity="0.35"/>
<rect x="76.65" y="320.00" width="2" height="45.00" fill="#f97316" opacity="0.35"/>
<rect x="77.41" y="297.50" width="2" height="67.50" fill="#f97316" opacity="0.35"/>
<rect x="78.94" y="320.00" width="2" height="45.00" fill="#f97316" opacity="0.35"/>
<rect x="80.47" y="320.00" width="2" height="45.00" fill="#f97316" opacity="0.35"/>
<rect x="81.23" y="320.00" width="2" height="45.00" fill="#f97316" opacity="0.35"/>
<rect x="82.00" y="342.50" width="2" height="22.50" fill="#f97316" opacity="0.35"/>
<rect x="83.53" y="342.50" width="2" height="22.50" fill="#f97316" opacity="0.35"/>
<rect x="84.29" y="320.00" width="2" height="45.00" fill="#f97316" opacity="0.35"/>
<rect x="85.06" y="342.50" width="2" height="22.50" fill="#f97316" opacity="0.35"/>
<rect x="85.82" y="320.00" width="2" height="45.00" fill="#f97316" opacity="0.35"/>
<rect x="87.35" y="320.00" width="2" height="45.00" fill="#f97316" opacity="0.35"/>
<rect x="88.12" y="320.00" width="2" height="45.00" fill="#f97316" opacity="0.35"/>
<rect x="88.88" y="342.50" width="2" height="22.50" fill="#f97316" opacity="0.35"/>
<rect x="89.64" y="342.50" width="2" height="22.50" fill="#f97316" opacity="0.35"/>
<rect x="90.41" y="320.00" width="2" height="45.00" fill="#f97316" opacity="0.35"/>
<rect x="91.94" y="320.00" width="2" height="45.00" fill="#f97316" opacity="0.35"/>
<rect x="94.23" y="297.50" width="2" height="67.50" fill="#f97316" opacity="0.35"/>
<rect x="95.00" y="320.00" width="2" height="45.00" fill="#f97316" opacity="0.35"/>
<rect x="96.53" y="342.50" width="2" height="22.50" fill="#f97316" opacity="0.35"/>
<rect x="98.82" y="342.50" width="2" height="22.50" fill="#f97316" opacity="0.35"/>
<rect x="99.58" y="320.00" width="2" height="45.00" fill="#f97316" opacity="0.35"/>
<rect x="100.35" y="342.50" width="2" height="22.50" fill="#f97316" opacity="0.35"/>
<rect x="101.11" y="342.50" width="2" height="22.50" fill="#f97316" opacity="0.35"/>
<rect x="103.41" y="342.50" width="2" height="22.50" fill="#f97316" opacity="0.35"/>
<rect x="104.94" y="342.50" width="2" height="22.50" fill="#f97316" opacity="0.35"/>
<rect x="105.70" y="275.00" width="2" height="90.00" fill="#f97316" opacity="0.35"/>
<rect x="106.47" y="342.50" width="2" height="22.50" fill="#f97316" opacity="0.35"/>
<rect x="107.23" y="342.50" width="2" height="22.50" fill="#f97316" opacity="0.35"/>
<rect x="109.52" y="342.50" width="2" height="22.50" fill="#f97316" opacity="0.35"/>
<rect x="110.29" y="342.50" width="2" height="22.50" fill="#f97316" opacity="0.35"/>
<rect x="111.82" y="320.00" width="2" height="45.00" fill="#f97316" opacity="0.35"/>
<rect x="112.58" y="342.50" width="2" height="22.50" fill="#f97316" opacity="0.35"/>
<rect x="113.35" y="320.00" width="2" height="45.00" fill="#f97316" opacity="0.35"/>
<rect x="114.11" y="342.50" width="2" height="22.50" fill="#f97316" opacity="0.35"/>
<rect x="114.88" y="320.00" width="2" height="45.00" fill="#f97316" opacity="0.35"/>
<rect x="116.41" y="342.50" width="2" height="22.50" fill="#f97316" opacity="0.35"/>
<rect x="117.93" y="320.00" width="2" height="45.00" fill="#f97316" opacity="0.35"/>
<rect x="119.46" y="297.50" width="2" height="67.50" fill="#f97316" opacity="0.35"/>
<rect x="121.76" y="320.00" width="2" height="45.00" fill="#f97316" opacity="0.35"/>
<rect x="123.29" y="342.50" width="2" height="22.50" fill="#f97316" opacity="0.35"/>
<rect x="124.05" y="342.50" width="2" height="22.50" fill="#f97316" opacity="0.35"/>
<rect x="124.82" y="342.50" width="2" height="22.50" fill="#f97316" opacity="0.35"/>
<rect x="126.35" y="342.50" width="2" height="22.50" fill="#f97316" opacity="0.35"/>
<rect x="127.11" y="342.50" width="2" height="22.50" fill="#f97316" opacity="0.35"/>
<rect x="128.64" y="320.00" width="2" height="45.00" fill="#f97316" opacity="0.35"/>
<rect x="130.17" y="342.50" width="2" height="22.50" fill="#f97316" opacity="0.35"/>
<rect x="131.70" y="320.00" width="2" height="45.00" fill="#f97316" opacity="0.35"/>
<rect x="133.99" y="320.00" width="2" height="45.00" fill="#f97316" opacity="0.35"/>
<rect x="135.52" y="342.50" width="2" height="22.50" fill="#f97316" opacity="0.35"/>
<rect x="136.29" y="320.00" width="2" height="45.00" fill="#f97316" opacity="0.35"/>
<rect x="137.81" y="275.00" width="2" height="90.00" fill="#f97316" opacity="0.35"/>
<rect x="138.58" y="342.50" width="2" height="22.50" fill="#f97316" opacity="0.35"/>
<rect x="141.64" y="320.00" width="2" height="45.00" fill="#f97316" opacity="0.35"/>
<rect x="143.17" y="342.50" width="2" height="22.50" fill="#f97316" opacity="0.35"/>
<rect x="145.46" y="297.50" width="2" height="67.50" fill="#f97316" opacity="0.35"/>
<rect x="146.99" y="342.50" width="2" height="22.50" fill="#f97316" opacity="0.35"/>
<rect x="150.81" y="297.50" width="2" height="67.50" fill="#f97316" opacity="0.35"/>
<rect x="151.58" y="342.50" width="2" height="22.50" fill="#f97316" opacity="0.35"/>
<rect x="153.87" y="320.00" width="2" height="45.00" fill="#f97316" opacity="0.35"/>
<rect x="154.64" y="342.50" width="2" height="22.50" fill="#f97316" opacity="0.35"/>
<rect x="156.16" y="342.50" width="2" height="22.50" fill="#f97316" opacity="0.35"/>
<rect x="156.93" y="342.50" width="2" height="22.50" fill="#f97316" opacity="0.35"/>
<rect x="158.46" y="320.00" width="2" height="45.00" fill="#f97316" opacity="0.35"/>
<rect x="160.75" y="342.50" width="2" height="22.50" fill="#f97316" opacity="0.35"/>
<rect x="163.81" y="320.00" width="2" height="45.00" fill="#f97316" opacity="0.35"/>
<rect x="170.69" y="342.50" width="2" height="22.50" fill="#f97316" opacity="0.35"/>
<rect x="171.46" y="342.50" width="2" height="22.50" fill="#f97316" opacity="0.35"/>
<rect x="176.04" y="342.50" width="2" height="22.50" fill="#f97316" opacity="0.35"/>
<rect x="178.34" y="320.00" width="2" height="45.00" fill="#f97316" opacity="0.35"/>
<rect x="181.40" y="342.50" width="2" height="22.50" fill="#f97316" opacity="0.35"/>
<rect x="182.93" y="320.00" width="2" height="45.00" fill="#f97316" opacity="0.35"/>
<rect x="183.69" y="342.50" width="2" height="22.50" fill="#f97316" opacity="0.35"/>
<rect x="185.22" y="342.50" width="2" height="22.50" fill="#f97316" opacity="0.35"/>
<rect x="186.75" y="342.50" width="2" height="22.50" fill="#f97316" opacity="0.35"/>
<rect x="188.28" y="320.00" width="2" height="45.00" fill="#f97316" opacity="0.35"/>
<rect x="190.57" y="342.50" width="2" height="22.50" fill="#f97316" opacity="0.35"/>
<rect x="191.34" y="342.50" width="2" height="22.50" fill="#f97316" opacity="0.35"/>
<rect x="192.87" y="320.00" width="2" height="45.00" fill="#f97316" opacity="0.35"/>
<rect x="195.16" y="320.00" width="2" height="45.00" fill="#f97316" opacity="0.35"/>
<rect x="197.45" y="342.50" width="2" height="22.50" fill="#f97316" opacity="0.35"/>
<rect x="199.75" y="342.50" width="2" height="22.50" fill="#f97316" opacity="0.35"/>
<rect x="201.28" y="342.50" width="2" height="22.50" fill="#f97316" opacity="0.35"/>
<rect x="206.63" y="342.50" width="2" height="22.50" fill="#f97316" opacity="0.35"/>
<rect x="208.92" y="342.50" width="2" height="22.50" fill="#f97316" opacity="0.35"/>
<rect x="211.98" y="342.50" width="2" height="22.50" fill="#f97316" opacity="0.35"/>
<rect x="212.75" y="320.00" width="2" height="45.00" fill="#f97316" opacity="0.35"/>
<rect x="213.51" y="320.00" width="2" height="45.00" fill="#f97316" opacity="0.35"/>
<rect x="215.80" y="342.50" width="2" height="22.50" fill="#f97316" opacity="0.35"/>
<rect x="220.39" y="342.50" width="2" height="22.50" fill="#f97316" opacity="0.35"/>
<rect x="221.16" y="342.50" width="2" height="22.50" fill="#f97316" opacity="0.35"/>
<rect x="224.98" y="342.50" width="2" height="22.50" fill="#f97316" opacity="0.35"/>
<rect x="226.51" y="342.50" width="2" height="22.50" fill="#f97316" opacity="0.35"/>
<rect x="228.04" y="342.50" width="2" height="22.50" fill="#f97316" opacity="0.35"/>
<rect x="234.92" y="342.50" width="2" height="22.50" fill="#f97316" opacity="0.35"/>
<rect x="237.98" y="320.00" width="2" height="45.00" fill="#f97316" opacity="0.35"/>
<rect x="250.21" y="320.00" width="2" height="45.00" fill="#f97316" opacity="0.35"/>
<rect x="252.51" y="342.50" width="2" height="22.50" fill="#f97316" opacity="0.35"/>
<rect x="255.56" y="342.50" width="2" height="22.50" fill="#f97316" opacity="0.35"/>
<rect x="257.86" y="342.50" width="2" height="22.50" fill="#f97316" opacity="0.35"/>
<rect x="260.15" y="342.50" width="2" height="22.50" fill="#f97316" opacity="0.35"/>
<rect x="263.97" y="342.50" width="2" height="22.50" fill="#f97316" opacity="0.35"/>
<rect x="265.50" y="342.50" width="2" height="22.50" fill="#f97316" opacity="0.35"/>
<rect x="267.80" y="342.50" width="2" height="22.50" fill="#f97316" opacity="0.35"/>
<rect x="274.68" y="342.50" width="2" height="22.50" fill="#f97316" opacity="0.35"/>
<rect x="280.80" y="342.50" width="2" height="22.50" fill="#f97316" opacity="0.35"/>
<rect x="283.85" y="342.50" width="2" height="22.50" fill="#f97316" opacity="0.35"/>
<rect x="284.62" y="297.50" width="2" height="67.50" fill="#f97316" opacity="0.35"/>
<rect x="286.15" y="342.50" width="2" height="22.50" fill="#f97316" opacity="0.35"/>
<rect x="293.03" y="342.50" width="2" height="22.50" fill="#f97316" opacity="0.35"/>
<rect x="294.56" y="342.50" width="2" height="22.50" fill="#f97316" opacity="0.35"/>
<rect x="300.68" y="342.50" width="2" height="22.50" fill="#f97316" opacity="0.35"/>
<rect x="301.44" y="342.50" width="2" height="22.50" fill="#f97316" opacity="0.35"/>
<rect x="303.73" y="342.50" width="2" height="22.50" fill="#f97316" opacity="0.35"/>
<rect x="310.62" y="342.50" width="2" height="22.50" fill="#f97316" opacity="0.35"/>
<rect x="312.14" y="342.50" width="2" height="22.50" fill="#f97316" opacity="0.35"/>
<rect x="312.91" y="342.50" width="2" height="22.50" fill="#f97316" opacity="0.35"/>
<rect x="314.44" y="342.50" width="2" height="22.50" fill="#f97316" opacity="0.35"/>
<rect x="315.20" y="342.50" width="2" height="22.50" fill="#f97316" opacity="0.35"/>
<rect x="317.50" y="342.50" width="2" height="22.50" fill="#f97316" opacity="0.35"/>
<rect x="318.26" y="342.50" width="2" height="22.50" fill="#f97316" opacity="0.35"/>
<rect x="319.03" y="342.50" width="2" height="22.50" fill="#f97316" opacity="0.35"/>
<rect x="320.55" y="320.00" width="2" height="45.00" fill="#f97316" opacity="0.35"/>
<rect x="325.91" y="342.50" width="2" height="22.50" fill="#f97316" opacity="0.35"/>
<rect x="326.67" y="342.50" width="2" height="22.50" fill="#f97316" opacity="0.35"/>
<rect x="334.32" y="342.50" width="2" height="22.50" fill="#f97316" opacity="0.35"/>
<rect x="337.38" y="342.50" width="2" height="22.50" fill="#f97316" opacity="0.35"/>
<rect x="338.14" y="320.00" width="2" height="45.00" fill="#f97316" opacity="0.35"/>
<rect x="340.43" y="342.50" width="2" height="22.50" fill="#f97316" opacity="0.35"/>
<rect x="341.20" y="342.50" width="2" height="22.50" fill="#f97316" opacity="0.35"/>
<rect x="345.02" y="342.50" width="2" height="22.50" fill="#f97316" opacity="0.35"/>
<rect x="346.55" y="342.50" width="2" height="22.50" fill="#f97316" opacity="0.35"/>
<rect x="349.61" y="342.50" width="2" height="22.50" fill="#f97316" opacity="0.35"/>
<rect x="351.14" y="342.50" width="2" height="22.50" fill="#f97316" opacity="0.35"/>
<rect x="354.96" y="342.50" width="2" height="22.50" fill="#f97316" opacity="0.35"/>
<rect x="355.73" y="320.00" width="2" height="45.00" fill="#f97316" opacity="0.35"/>
<rect x="356.49" y="342.50" width="2" height="22.50" fill="#f97316" opacity="0.35"/>
<rect x="362.61" y="342.50" width="2" height="22.50" fill="#f97316" opacity="0.35"/>
<rect x="367.20" y="342.50" width="2" height="22.50" fill="#f97316" opacity="0.35"/>
<rect x="368.73" y="320.00" width="2" height="45.00" fill="#f97316" opacity="0.35"/>
<rect x="374.84" y="320.00" width="2" height="45.00" fill="#f97316" opacity="0.35"/>
<rect x="377.14" y="342.50" width="2" height="22.50" fill="#f97316" opacity="0.35"/>
<rect x="379.43" y="342.50" width="2" height="22.50" fill="#f97316" opacity="0.35"/>
<rect x="382.49" y="342.50" width="2" height="22.50" fill="#f97316" opacity="0.35"/>
<rect x="384.78" y="342.50" width="2" height="22.50" fill="#f97316" opacity="0.35"/>
<rect x="387.08" y="342.50" width="2" height="22.50" fill="#f97316" opacity="0.35"/>
<rect x="388.60" y="342.50" width="2" height="22.50" fill="#f97316" opacity="0.35"/>
<rect x="390.90" y="342.50" width="2" height="22.50" fill="#f97316" opacity="0.35"/>
<rect x="394.72" y="320.00" width="2" height="45.00" fill="#f97316" opacity="0.35"/>
<rect x="397.78" y="342.50" width="2" height="22.50" fill="#f97316" opacity="0.35"/>
<rect x="402.37" y="342.50" width="2" height="22.50" fill="#f97316" opacity="0.35"/>
<rect x="406.96" y="342.50" width="2" height="22.50" fill="#f97316" opacity="0.35"/>
<rect x="411.54" y="342.50" width="2" height="22.50" fill="#f97316" opacity="0.35"/>
<rect x="415.37" y="342.50" width="2" height="22.50" fill="#f97316" opacity="0.35"/>
<rect x="417.66" y="342.50" width="2" height="22.50" fill="#f97316" opacity="0.35"/>
<rect x="421.48" y="342.50" width="2" height="22.50" fill="#f97316" opacity="0.35"/>
<rect x="425.31" y="320.00" width="2" height="45.00" fill="#f97316" opacity="0.35"/>
<rect x="426.07" y="342.50" width="2" height="22.50" fill="#f97316" opacity="0.35"/>
<rect x="433.72" y="342.50" width="2" height="22.50" fill="#f97316" opacity="0.35"/>
<rect x="436.01" y="342.50" width="2" height="22.50" fill="#f97316" opacity="0.35"/>
<rect x="436.77" y="342.50" width="2" height="22.50" fill="#f97316" opacity="0.35"/>
<rect x="437.54" y="342.50" width="2" height="22.50" fill="#f97316" opacity="0.35"/>
<rect x="443.66" y="342.50" width="2" height="22.50" fill="#f97316" opacity="0.35"/>
<rect x="445.95" y="342.50" width="2" height="22.50" fill="#f97316" opacity="0.35"/>
<rect x="449.77" y="342.50" width="2" height="22.50" fill="#f97316" opacity="0.35"/>
<rect x="450.54" y="342.50" width="2" height="22.50" fill="#f97316" opacity="0.35"/>
<rect x="457.42" y="342.50" width="2" height="22.50" fill="#f97316" opacity="0.35"/>
<rect x="458.18" y="342.50" width="2" height="22.50" fill="#f97316" opacity="0.35"/>
<rect x="460.48" y="342.50" width="2" height="22.50" fill="#f97316" opacity="0.35"/>
<rect x="469.65" y="342.50" width="2" height="22.50" fill="#f97316" opacity="0.35"/>
<rect x="470.42" y="342.50" width="2" height="22.50" fill="#f97316" opacity="0.35"/>
<rect x="471.18" y="342.50" width="2" height="22.50" fill="#f97316" opacity="0.35"/>
<rect x="472.71" y="342.50" width="2" height="22.50" fill="#f97316" opacity="0.35"/>
<rect x="476.53" y="342.50" width="2" height="22.50" fill="#f97316" opacity="0.35"/>
<rect x="477.30" y="342.50" width="2" height="22.50" fill="#f97316" opacity="0.35"/>
<rect x="479.59" y="342.50" width="2" height="22.50" fill="#f97316" opacity="0.35"/>
<rect x="480.36" y="342.50" width="2" height="22.50" fill="#f97316" opacity="0.35"/>
<rect x="483.42" y="342.50" width="2" height="22.50" fill="#f97316" opacity="0.35"/>
<rect x="488.00" y="297.50" width="2" height="67.50" fill="#f97316" opacity="0.35"/>
<rect x="493.36" y="320.00" width="2" height="45.00" fill="#f97316" opacity="0.35"/>
<rect x="494.12" y="342.50" width="2" height="22.50" fill="#f97316" opacity="0.35"/>
<rect x="494.88" y="342.50" width="2" height="22.50" fill="#f97316" opacity="0.35"/>
<rect x="496.41" y="320.00" width="2" height="45.00" fill="#f97316" opacity="0.35"/>
<rect x="498.71" y="342.50" width="2" height="22.50" fill="#f97316" opacity="0.35"/>
<rect x="503.30" y="342.50" width="2" height="22.50" fill="#f97316" opacity="0.35"/>
<rect x="509.41" y="342.50" width="2" height="22.50" fill="#f97316" opacity="0.35"/>
<rect x="514.00" y="342.50" width="2" height="22.50" fill="#f97316" opacity="0.35"/>
<rect x="514.76" y="342.50" width="2" height="22.50" fill="#f97316" opacity="0.35"/>
<rect x="523.18" y="342.50" width="2" height="22.50" fill="#f97316" opacity="0.35"/>
<rect x="524.70" y="342.50" width="2" height="22.50" fill="#f97316" opacity="0.35"/>
<rect x="527.00" y="342.50" width="2" height="22.50" fill="#f97316" opacity="0.35"/>
<rect x="530.82" y="342.50" width="2" height="22.50" fill="#f97316" opacity="0.35"/>
<rect x="532.35" y="342.50" width="2" height="22.50" fill="#f97316" opacity="0.35"/>
<rect x="539.23" y="320.00" width="2" height="45.00" fill="#f97316" opacity="0.35"/>
<rect x="546.11" y="342.50" width="2" height="22.50" fill="#f97316" opacity="0.35"/>
<rect x="546.88" y="342.50" width="2" height="22.50" fill="#f97316" opacity="0.35"/>
<rect x="548.41" y="342.50" width="2" height="22.50" fill="#f97316" opacity="0.35"/>
<rect x="549.94" y="342.50" width="2" height="22.50" fill="#f97316" opacity="0.35"/>
<rect x="552.99" y="342.50" width="2" height="22.50" fill="#f97316" opacity="0.35"/>
<rect x="555.29" y="342.50" width="2" height="22.50" fill="#f97316" opacity="0.35"/>
<rect x="560.64" y="297.50" width="2" height="67.50" fill="#f97316" opacity="0.35"/>
<rect x="561.41" y="342.50" width="2" height="22.50" fill="#f97316" opacity="0.35"/>
<rect x="569.05" y="342.50" width="2" height="22.50" fill="#f97316" opacity="0.35"/>
<rect x="572.87" y="342.50" width="2" height="22.50" fill="#f97316" opacity="0.35"/>
<rect x="582.81" y="342.50" width="2" height="22.50" fill="#f97316" opacity="0.35"/>
<rect x="585.87" y="342.50" width="2" height="22.50" fill="#f97316" opacity="0.35"/>
<rect x="588.93" y="342.50" width="2" height="22.50" fill="#f97316" opacity="0.35"/>
<rect x="592.75" y="342.50" width="2" height="22.50" fill="#f97316" opacity="0.35"/>
<rect x="593.52" y="342.50" width="2" height="22.50" fill="#f97316" opacity="0.35"/>
<rect x="594.28" y="342.50" width="2" height="22.50" fill="#f97316" opacity="0.35"/>
<rect x="596.58" y="342.50" width="2" height="22.50" fill="#f97316" opacity="0.35"/>
<rect x="597.34" y="320.00" width="2" height="45.00" fill="#f97316" opacity="0.35"/>
<rect x="601.93" y="342.50" width="2" height="22.50" fill="#f97316" opacity="0.35"/>
<rect x="603.46" y="342.50" width="2" height="22.50" fill="#f97316" opacity="0.35"/>
<rect x="604.99" y="342.50" width="2" height="22.50" fill="#f97316" opacity="0.35"/>
<rect x="609.58" y="320.00" width="2" height="45.00" fill="#f97316" opacity="0.35"/>
<rect x="612.63" y="342.50" width="2" height="22.50" fill="#f97316" opacity="0.35"/>
<rect x="614.16" y="342.50" width="2" height="22.50" fill="#f97316" opacity="0.35"/>
<rect x="614.93" y="320.00" width="2" height="45.00" fill="#f97316" opacity="0.35"/>
<rect x="621.81" y="342.50" width="2" height="22.50" fill="#f97316" opacity="0.35"/>
<rect x="625.63" y="342.50" width="2" height="22.50" fill="#f97316" opacity="0.35"/>
<rect x="634.04" y="342.50" width="2" height="22.50" fill="#f97316" opacity="0.35"/>
<rect x="646.28" y="342.50" width="2" height="22.50" fill="#f97316" opacity="0.35"/>
<rect x="650.10" y="342.50" width="2" height="22.50" fill="#f97316" opacity="0.35"/>
<rect x="660.80" y="342.50" width="2" height="22.50" fill="#f97316" opacity="0.35"/>
<rect x="666.92" y="342.50" width="2" height="22.50" fill="#f97316" opacity="0.35"/>
<rect x="673.04" y="320.00" width="2" height="45.00" fill="#f97316" opacity="0.35"/>
<rect x="675.33" y="342.50" width="2" height="22.50" fill="#f97316" opacity="0.35"/>
<rect x="676.10" y="342.50" width="2" height="22.50" fill="#f97316" opacity="0.35"/>
<rect x="684.51" y="342.50" width="2" height="22.50" fill="#f97316" opacity="0.35"/>
<rect x="688.33" y="342.50" width="2" height="22.50" fill="#f97316" opacity="0.35"/>
<rect x="689.09" y="342.50" width="2" height="22.50" fill="#f97316" opacity="0.35"/>
<rect x="691.39" y="342.50" width="2" height="22.50" fill="#f97316" opacity="0.35"/>
<rect x="696.74" y="342.50" width="2" height="22.50" fill="#f97316" opacity="0.35"/>
<rect x="699.03" y="342.50" width="2" height="22.50" fill="#f97316" opacity="0.35"/>
<rect x="700.56" y="342.50" width="2" height="22.50" fill="#f97316" opacity="0.35"/>
<rect x="701.33" y="342.50" width="2" height="22.50" fill="#f97316" opacity="0.35"/>
<rect x="702.86" y="342.50" width="2" height="22.50" fill="#f97316" opacity="0.35"/>
<rect x="703.62" y="342.50" width="2" height="22.50" fill="#f97316" opacity="0.35"/>
<rect x="704.39" y="342.50" width="2" height="22.50" fill="#f97316" opacity="0.35"/>
<rect x="708.21" y="320.00" width="2" height="45.00" fill="#f97316" opacity="0.35"/>
<rect x="713.56" y="342.50" width="2" height="22.50" fill="#f97316" opacity="0.35"/>
<rect x="721.21" y="342.50" width="2" height="22.50" fill="#f97316" opacity="0.35"/>
<rect x="724.27" y="342.50" width="2" height="22.50" fill="#f97316" opacity="0.35"/>
<rect x="728.09" y="342.50" width="2" height="22.50" fill="#f97316" opacity="0.35"/>
<rect x="734.97" y="320.00" width="2" height="45.00" fill="#f97316" opacity="0.35"/>
<rect x="735.74" y="342.50" width="2" height="22.50" fill="#f97316" opacity="0.35"/>
<rect x="736.50" y="342.50" width="2" height="22.50" fill="#f97316" opacity="0.35"/>
<rect x="738.03" y="342.50" width="2" height="22.50" fill="#f97316" opacity="0.35"/>
<rect x="739.56" y="342.50" width="2" height="22.50" fill="#f97316" opacity="0.35"/>
<rect x="740.32" y="342.50" width="2" height="22.50" fill="#f97316" opacity="0.35"/>
<rect x="745.68" y="297.50" width="2" height="67.50" fill="#f97316" opacity="0.35"/>
<rect x="747.20" y="342.50" width="2" height="22.50" fill="#f97316" opacity="0.35"/>
<rect x="748.73" y="342.50" width="2" height="22.50" fill="#f97316" opacity="0.35"/>
<rect x="757.91" y="342.50" width="2" height="22.50" fill="#f97316" opacity="0.35"/>
<rect x="760.20" y="342.50" width="2" height="22.50" fill="#f97316" opacity="0.35"/>
<rect x="777.79" y="342.50" width="2" height="22.50" fill="#f97316" opacity="0.35"/>
<rect x="779.32" y="342.50" width="2" height="22.50" fill="#f97316" opacity="0.35"/>
<rect x="781.61" y="342.50" width="2" height="22.50" fill="#f97316" opacity="0.35"/>
<rect x="786.20" y="342.50" width="2" height="22.50" fill="#f97316" opacity="0.35"/>
<rect x="786.96" y="342.50" width="2" height="22.50" fill="#f97316" opacity="0.35"/>
<rect x="790.02" y="342.50" width="2" height="22.50" fill="#f97316" opacity="0.35"/>
<rect x="792.32" y="342.50" width="2" height="22.50" fill="#f97316" opacity="0.35"/>
<rect x="793.85" y="342.50" width="2" height="22.50" fill="#f97316" opacity="0.35"/>
<rect x="795.37" y="342.50" width="2" height="22.50" fill="#f97316" opacity="0.35"/>
<rect x="799.20" y="342.50" width="2" height="22.50" fill="#f97316" opacity="0.35"/>
<rect x="804.55" y="342.50" width="2" height="22.50" fill="#f97316" opacity="0.35"/>
<rect x="813.73" y="320.00" width="2" height="45.00" fill="#f97316" opacity="0.35"/>
<rect x="814.49" y="342.50" width="2" height="22.50" fill="#f97316" opacity="0.35"/>
<rect x="816.78" y="342.50" width="2" height="22.50" fill="#f97316" opacity="0.35"/>
<rect x="821.37" y="342.50" width="2" height="22.50" fill="#f97316" opacity="0.35"/>
<rect x="822.90" y="342.50" width="2" height="22.50" fill="#f97316" opacity="0.35"/>
<rect x="824.43" y="342.50" width="2" height="22.50" fill="#f97316" opacity="0.35"/>
<rect x="827.49" y="342.50" width="2" height="22.50" fill="#f97316" opacity="0.35"/>
<rect x="829.78" y="342.50" width="2" height="22.50" fill="#f97316" opacity="0.35"/>
<rect x="831.31" y="342.50" width="2" height="22.50" fill="#f97316" opacity="0.35"/>
<rect x="843.54" y="342.50" width="2" height="22.50" fill="#f97316" opacity="0.35"/>
<rect x="845.07" y="342.50" width="2" height="22.50" fill="#f97316" opacity="0.35"/>
<rect x="845.84" y="342.50" width="2" height="22.50" fill="#f97316" opacity="0.35"/>
<rect x="859.60" y="342.50" width="2" height="22.50" fill="#f97316" opacity="0.35"/>
<rect x="861.13" y="342.50" width="2" height="22.50" fill="#f97316" opacity="0.35"/>
<rect x="867.25" y="297.50" width="2" height="67.50" fill="#f97316" opacity="0.35"/>
<rect x="870.31" y="342.50" width="2" height="22.50" fill="#f97316" opacity="0.35"/>
<rect x="872.60" y="342.50" width="2" height="22.50" fill="#f97316" opacity="0.35"/>
<rect x="877.19" y="342.50" width="2" height="22.50" fill="#f97316" opacity="0.35"/>
<rect x="880.25" y="342.50" width="2" height="22.50" fill="#f97316" opacity="0.35"/>
<rect x="890.19" y="342.50" width="2" height="22.50" fill="#f97316" opacity="0.35"/>
<rect x="892.48" y="297.50" width="2" height="67.50" fill="#f97316" opacity="0.35"/>
<rect x="898.60" y="342.50" width="2" height="22.50" fill="#f97316" opacity="0.35"/>
<rect x="915.42" y="342.50" width="2" height="22.50" fill="#f97316" opacity="0.35"/>
<rect x="920.01" y="342.50" width="2" height="22.50" fill="#f97316" opacity="0.35"/>
<rect x="943.71" y="342.50" width="2" height="22.50" fill="#f97316" opacity="0.35"/>
<rect x="946.00" y="342.50" width="2" height="22.50" fill="#f97316" opacity="0.35"/>
<rect x="946.77" y="342.50" width="2" height="22.50" fill="#f97316" opacity="0.35"/>
<rect x="948.30" y="342.50" width="2" height="22.50" fill="#f97316" opacity="0.35"/>
<rect x="955.94" y="342.50" width="2" height="22.50" fill="#f97316" opacity="0.35"/>
<polyline points="70.00,364.17 70.76,361.69 71.53,360.87 72.29,359.21 73.06,358.38 73.82,355.90 74.59,353.42 75.35,350.94 76.12,350.11 76.88,349.29 77.65,347.63 78.41,345.15 79.18,345.15 79.94,343.50 80.70,343.50 81.47,341.84 82.23,340.19 83.00,339.36 83.76,339.36 84.53,338.54 85.29,336.88 86.06,336.06 86.82,334.40 87.59,334.40 88.35,332.75 89.12,331.09 89.88,330.27 90.64,329.44 91.41,327.79 92.17,327.79 92.94,326.13 93.70,326.13 94.47,326.13 95.23,323.65 96.00,322.00 96.76,322.00 97.53,321.17 98.29,321.17 99.05,321.17 99.82,320.34 100.58,318.69 101.35,317.86 102.11,317.04 102.88,317.04 103.64,317.04 104.41,316.21 105.17,316.21 105.94,315.38 106.70,312.07 107.47,311.25 108.23,310.42 108.99,310.42 109.76,310.42 110.52,309.59 111.29,308.77 112.05,308.77 112.82,307.11 113.58,306.28 114.35,304.63 115.11,303.80 115.88,302.15 116.64,302.15 117.41,301.32 118.17,301.32 118.93,299.67 119.70,299.67 120.46,297.19 121.23,297.19 121.99,297.19 122.76,295.53 123.52,295.53 124.29,294.71 125.05,293.88 125.82,293.05 126.58,293.05 127.35,292.23 128.11,291.40 128.87,291.40 129.64,289.75 130.40,289.75 131.17,288.92 131.93,288.92 132.70,287.26 133.46,287.26 134.23,287.26 134.99,285.61 135.76,285.61 136.52,284.78 137.29,283.13 138.05,283.13 138.81,279.82 139.58,278.99 140.34,278.99 141.11,278.99 141.87,278.99 142.64,277.34 143.40,277.34 144.17,276.51 144.93,276.51 145.70,276.51 146.46,274.03 147.23,274.03 147.99,273.21 148.75,273.21 149.52,273.21 150.28,273.21 151.05,273.21 151.81,270.73 152.58,269.90 153.34,269.90 154.11,269.90 154.87,268.24 155.64,267.42 156.40,267.42 157.16,266.59 157.93,265.76 158.69,265.76 159.46,264.11 160.22,264.11 160.99,264.11 161.75,263.28 162.52,263.28 163.28,263.28 164.05,263.28 164.81,261.63 165.58,261.63 166.34,261.63 167.10,261.63 167.87,261.63 168.63,261.63 169.40,261.63 170.16,261.63 170.93,261.63 171.69,260.80 172.46,259.97 173.22,259.97 173.99,259.97 174.75,259.97 175.52,259.97 176.28,259.97 177.04,259.15 177.81,259.15 178.57,259.15 179.34,257.49 180.10,257.49 180.87,257.49 181.63,257.49 182.40,256.67 183.16,256.67 183.93,255.01 184.69,254.19 185.46,254.19 186.22,253.36 186.98,253.36 187.75,252.53 188.51,252.53 189.28,250.88 190.04,250.88 190.81,250.88 191.57,250.05 192.34,249.22 193.10,249.22 193.87,247.57 194.63,247.57 195.40,247.57 196.16,245.92 196.92,245.92 197.69,245.92 198.45,245.09 199.22,245.09 199.98,245.09 200.75,244.26 201.51,244.26 202.28,243.44 203.04,243.44 203.81,243.44 204.57,243.44 205.34,243.44 206.10,243.44 206.86,243.44 207.63,242.61 208.39,242.61 209.16,242.61 209.92,241.78 210.69,241.78 211.45,241.78 212.22,241.78 212.98,240.95 213.75,239.30 214.51,237.65 215.27,237.65 216.04,237.65 216.80,236.82 217.57,236.82 218.33,236.82 219.10,236.82 219.86,236.82 220.63,236.82 221.39,235.99 222.16,235.17 222.92,235.17 223.69,235.17 224.45,235.17 225.21,235.17 225.98,234.34 226.74,234.34 227.51,233.51 228.27,233.51 229.04,232.68 229.80,232.68 230.57,232.68 231.33,232.68 232.10,232.68 232.86,232.68 233.63,232.68 234.39,232.68 235.15,232.68 235.92,231.86 236.68,231.86 237.45,231.86 238.21,231.86 238.98,230.20 239.74,230.20 240.51,230.20 241.27,230.20 242.04,230.20 242.80,230.20 243.57,230.20 244.33,230.20 245.09,230.20 245.86,230.20 246.62,230.20 247.39,230.20 248.15,230.20 248.92,230.20 249.68,230.20 250.45,230.20 251.21,228.55 251.98,228.55 252.74,228.55 253.51,227.72 254.27,227.72 255.03,227.72 255.80,227.72 256.56,226.90 257.33,226.90 258.09,226.90 258.86,226.07 259.62,226.07 260.39,226.07 261.15,225.24 261.92,225.24 262.68,225.24 263.45,225.24 264.21,225.24 264.97,224.41 265.74,224.41 266.50,223.59 267.27,223.59 268.03,223.59 268.80,222.76 269.56,222.76 270.33,222.76 271.09,222.76 271.86,222.76 272.62,222.76 273.38,222.76 274.15,222.76 274.91,222.76 275.68,221.93 276.44,221.93 277.21,221.93 277.97,221.93 278.74,221.93 279.50,221.93 280.27,221.93 281.03,221.93 281.80,221.11 282.56,221.11 283.32,221.11 284.09,221.11 284.85,220.28 285.62,217.80 286.38,217.80 287.15,216.97 287.91,216.97 288.68,216.97 289.44,216.97 290.21,216.97 290.97,216.97 291.74,216.97 292.50,216.97 293.26,216.97 294.03,216.15 294.79,216.15 295.56,215.32 296.32,215.32 297.09,215.32 297.85,215.32 298.62,215.32 299.38,215.32 300.15,215.32 300.91,215.32 301.68,214.49 302.44,213.66 303.20,213.66 303.97,213.66 304.73,212.84 305.50,212.84 306.26,212.84 307.03,212.84 307.79,212.84 308.56,212.84 309.32,212.84 310.09,212.84 310.85,212.84 311.62,212.01 312.38,212.01 313.14,211.18 313.91,210.36 314.67,210.36 315.44,209.53 316.20,208.70 316.97,208.70 317.73,208.70 318.50,207.88 319.26,207.05 320.03,206.22 320.79,206.22 321.55,204.57 322.32,204.57 323.08,204.57 323.85,204.57 324.61,204.57 325.38,204.57 326.14,204.57 326.91,203.74 327.67,202.91 328.44,202.91 329.20,202.91 329.97,202.91 330.73,202.91 331.49,202.91 332.26,202.91 333.02,202.91 333.79,202.91 334.55,202.91 335.32,202.09 336.08,202.09 336.85,202.09 337.61,202.09 338.38,201.26 339.14,199.61 339.91,199.61 340.67,199.61 341.43,198.78 342.20,197.95 342.96,197.95 343.73,197.95 344.49,197.95 345.26,197.95 346.02,197.12 346.79,197.12 347.55,196.30 348.32,196.30 349.08,196.30 349.85,196.30 350.61,195.47 351.37,195.47 352.14,194.64 352.90,194.64 353.67,194.64 354.43,194.64 355.20,194.64 355.96,193.82 356.73,192.16 357.49,191.34 358.26,191.34 359.02,191.34 359.79,191.34 360.55,191.34 361.31,191.34 362.08,191.34 362.84,191.34 363.61,190.51 364.37,190.51 365.14,190.51 365.90,190.51 366.67,190.51 367.43,190.51 368.20,189.68 368.96,189.68 369.73,188.03 370.49,188.03 371.25,188.03 372.02,188.03 372.78,188.03 373.55,188.03 374.31,188.03 375.08,188.03 375.84,186.37 376.61,186.37 377.37,186.37 378.14,185.55 378.90,185.55 379.66,185.55 380.43,184.72 381.19,184.72 381.96,184.72 382.72,184.72 383.49,183.89 384.25,183.89 385.02,183.89 385.78,183.07 386.55,183.07 387.31,183.07 388.08,182.24 388.84,182.24 389.60,181.41 390.37,181.41 391.13,181.41 391.90,180.59 392.66,180.59 393.43,180.59 394.19,180.59 394.96,180.59 395.72,178.93 396.49,178.93 397.25,178.93 398.02,178.93 398.78,178.10 399.54,178.10 400.31,178.10 401.07,178.10 401.84,178.10 402.60,178.10 403.37,177.28 404.13,177.28 404.90,177.28 405.66,177.28 406.43,177.28 407.19,177.28 407.96,176.45 408.72,176.45 409.48,176.45 410.25,176.45 411.01,176.45 411.78,176.45 412.54,175.62 413.31,175.62 414.07,175.62 414.84,175.62 415.60,175.62 416.37,174.80 417.13,174.80 417.90,174.80 418.66,173.97 419.42,173.97 420.19,173.97 420.95,173.97 421.72,173.97 422.48,173.14 423.25,173.14 424.01,173.14 424.78,173.14 425.54,173.14 426.31,171.49 427.07,170.66 427.84,170.66 428.60,170.66 429.36,170.66 430.13,170.66 430.89,170.66 431.66,170.66 432.42,170.66 433.19,170.66 433.95,170.66 434.72,169.83 435.48,169.83 436.25,169.83 437.01,169.01 437.77,168.18 438.54,167.35 439.30,167.35 440.07,167.35 440.83,167.35 441.60,167.35 442.36,167.35 443.13,167.35 443.89,167.35 444.66,166.53 445.42,166.53 446.19,166.53 446.95,165.70 447.71,165.70 448.48,165.70 449.24,165.70 450.01,165.70 450.77,164.87 451.54,164.05 452.30,164.05 453.07,164.05 453.83,164.05 454.60,164.05 455.36,164.05 456.13,164.05 456.89,164.05 457.65,164.05 458.42,163.22 459.18,162.39 459.95,162.39 460.71,162.39 461.48,161.56 462.24,161.56 463.01,161.56 463.77,161.56 464.54,161.56 465.30,161.56 466.07,161.56 466.83,161.56 467.59,161.56 468.36,161.56 469.12,161.56 469.89,161.56 470.65,160.74 471.42,159.91 472.18,159.08 472.95,159.08 473.71,158.26 474.48,158.26 475.24,158.26 476.01,158.26 476.77,158.26 477.53,157.43 478.30,156.60 479.06,156.60 479.83,156.60 480.59,155.78 481.36,154.95 482.12,154.95 482.89,154.95 483.65,154.95 484.42,154.12 485.18,154.12 485.95,154.12 486.71,154.12 487.47,154.12 488.24,154.12 489.00,151.64 489.77,151.64 490.53,151.64 491.30,151.64 492.06,151.64 492.83,151.64 493.59,151.64 494.36,149.99 495.12,149.16 495.88,148.33 496.65,148.33 497.41,146.68 498.18,146.68 498.94,146.68 499.71,145.85 500.47,145.85 501.24,145.85 502.00,145.85 502.77,145.85 503.53,145.85 504.30,145.03 505.06,145.03 505.82,145.03 506.59,145.03 507.35,145.03 508.12,145.03 508.88,145.03 509.65,145.03 510.41,144.20 511.18,144.20 511.94,144.20 512.71,144.20 513.47,144.20 514.24,144.20 515.00,143.37 515.76,142.54 516.53,142.54 517.29,142.54 518.06,142.54 518.82,142.54 519.59,142.54 520.35,142.54 521.12,142.54 521.88,142.54 522.65,142.54 523.41,142.54 524.18,141.72 524.94,141.72 525.70,140.89 526.47,140.89 527.23,140.89 528.00,140.06 528.76,140.06 529.53,140.06 530.29,140.06 531.06,140.06 531.82,139.24 532.59,139.24 533.35,138.41 534.12,138.41 534.88,138.41 535.64,138.41 536.41,138.41 537.17,138.41 537.94,138.41 538.70,138.41 539.47,138.41 540.23,136.76 541.00,136.76 541.76,136.76 542.53,136.76 543.29,136.76 544.05,136.76 544.82,136.76 545.58,136.76 546.35,136.76 547.11,135.93 547.88,135.10 548.64,135.10 549.41,134.27 550.17,134.27 550.94,133.45 551.70,133.45 552.47,133.45 553.23,133.45 553.99,132.62 554.76,132.62 555.52,132.62 556.29,131.79 557.05,131.79 557.82,131.79 558.58,131.79 559.35,131.79 560.11,131.79 560.88,131.79 561.64,129.31 562.41,128.49 563.17,128.49 563.93,128.49 564.70,128.49 565.46,128.49 566.23,128.49 566.99,128.49 567.76,128.49 568.52,128.49 569.29,128.49 570.05,127.66 570.82,127.66 571.58,127.66 572.35,127.66 573.11,127.66 573.87,126.83 574.64,126.83 575.40,126.83 576.17,126.83 576.93,126.83 577.70,126.83 578.46,126.83 579.23,126.83 579.99,126.83 580.76,126.83 581.52,126.83 582.29,126.83 583.05,126.83 583.81,126.01 584.58,126.01 585.34,126.01 586.11,126.01 586.87,125.18 587.64,125.18 588.40,125.18 589.17,125.18 589.93,124.35 590.70,124.35 591.46,124.35 592.23,124.35 592.99,124.35 593.75,123.52 594.52,122.70 595.28,121.87 596.05,121.87 596.81,121.87 597.58,121.04 598.34,119.39 599.11,119.39 599.87,119.39 600.64,119.39 601.40,119.39 602.16,119.39 602.93,118.56 603.69,118.56 604.46,117.74 605.22,117.74 605.99,116.91 606.75,116.91 607.52,116.91 608.28,116.91 609.05,116.91 609.81,116.91 610.58,115.25 611.34,115.25 612.10,115.25 612.87,115.25 613.63,114.43 614.40,114.43 615.16,113.60 615.93,111.95 616.69,111.95 617.46,111.95 618.22,111.95 618.99,111.95 619.75,111.95 620.52,111.95 621.28,111.95 622.04,111.95 622.81,111.12 623.57,111.12 624.34,111.12 625.10,111.12 625.87,111.12 626.63,110.29 627.40,110.29 628.16,110.29 628.93,110.29 629.69,110.29 630.46,110.29 631.22,110.29 631.98,110.29 632.75,110.29 633.51,110.29 634.28,110.29 635.04,109.47 635.81,109.47 636.57,109.47 637.34,109.47 638.10,109.47 638.87,109.47 639.63,109.47 640.40,109.47 641.16,109.47 641.92,109.47 642.69,109.47 643.45,109.47 644.22,109.47 644.98,109.47 645.75,109.47 646.51,109.47 647.28,108.64 648.04,108.64 648.81,108.64 649.57,108.64 650.34,108.64 651.10,107.81 651.86,107.81 652.63,107.81 653.39,107.81 654.16,107.81 654.92,107.81 655.69,107.81 656.45,107.81 657.22,107.81 657.98,107.81 658.75,107.81 659.51,107.81 660.27,107.81 661.04,107.81 661.80,106.98 662.57,106.98 663.33,106.98 664.10,106.98 664.86,106.98 665.63,106.98 666.39,106.98 667.16,106.98 667.92,106.16 668.69,106.16 669.45,106.16 670.21,106.16 670.98,106.16 671.74,106.16 672.51,106.16 673.27,106.16 674.04,104.50 674.80,104.50 675.57,104.50 676.33,103.68 677.10,102.85 677.86,102.85 678.63,102.85 679.39,102.85 680.15,102.85 680.92,102.85 681.68,102.85 682.45,102.85 683.21,102.85 683.98,102.85 684.74,102.85 685.51,102.02 686.27,102.02 687.04,102.02 687.80,102.02 688.57,102.02 689.33,101.20 690.09,100.37 690.86,100.37 691.62,100.37 692.39,99.54 693.15,99.54 693.92,99.54 694.68,99.54 695.45,99.54 696.21,99.54 696.98,99.54 697.74,98.72 698.51,98.72 699.27,98.72 700.03,97.89 700.80,97.89 701.56,97.06 702.33,96.23 703.09,96.23 703.86,95.41 704.62,94.58 705.39,93.75 706.15,93.75 706.92,93.75 707.68,93.75 708.45,93.75 709.21,92.10 709.97,92.10 710.74,92.10 711.50,92.10 712.27,92.10 713.03,92.10 713.80,92.10 714.56,91.27 715.33,91.27 716.09,91.27 716.86,91.27 717.62,91.27 718.38,91.27 719.15,91.27 719.91,91.27 720.68,91.27 721.44,91.27 722.21,90.45 722.97,90.45 723.74,90.45 724.50,90.45 725.27,89.62 726.03,89.62 726.80,89.62 727.56,89.62 728.32,89.62 729.09,88.79 729.85,88.79 730.62,88.79 731.38,88.79 732.15,88.79 732.91,88.79 733.68,88.79 734.44,88.79 735.21,88.79 735.97,87.14 736.74,86.31 737.50,85.48 738.26,85.48 739.03,84.66 739.79,84.66 740.56,83.83 741.32,83.00 742.09,83.00 742.85,83.00 743.62,83.00 744.38,83.00 745.15,83.00 745.91,83.00 746.68,80.52 747.44,80.52 748.20,79.69 748.97,79.69 749.73,78.87 750.50,78.87 751.26,78.87 752.03,78.87 752.79,78.87 753.56,78.87 754.32,78.87 755.09,78.87 755.85,78.87 756.62,78.87 757.38,78.87 758.14,78.87 758.91,78.04 759.67,78.04 760.44,78.04 761.20,77.21 761.97,77.21 762.73,77.21 763.50,77.21 764.26,77.21 765.03,77.21 765.79,77.21 766.55,77.21 767.32,77.21 768.08,77.21 768.85,77.21 769.61,77.21 770.38,77.21 771.14,77.21 771.91,77.21 772.67,77.21 773.44,77.21 774.20,77.21 774.97,77.21 775.73,77.21 776.49,77.21 777.26,77.21 778.02,77.21 778.79,76.39 779.55,76.39 780.32,75.56 781.08,75.56 781.85,75.56 782.61,74.73 783.38,74.73 784.14,74.73 784.91,74.73 785.67,74.73 786.43,74.73 787.20,73.91 787.96,73.08 788.73,73.08 789.49,73.08 790.26,73.08 791.02,72.25 791.79,72.25 792.55,72.25 793.32,71.42 794.08,71.42 794.85,70.60 795.61,70.60 796.37,69.77 797.14,69.77 797.90,69.77 798.67,69.77 799.43,69.77 800.20,68.94 800.96,68.94 801.73,68.94 802.49,68.94 803.26,68.94 804.02,68.94 804.79,68.94 805.55,68.12 806.31,68.12 807.08,68.12 807.84,68.12 808.61,68.12 809.37,68.12 810.14,68.12 810.90,68.12 811.67,68.12 812.43,68.12 813.20,68.12 813.96,68.12 814.73,66.46 815.49,65.64 816.25,65.64 817.02,65.64 817.78,64.81 818.55,64.81 819.31,64.81 820.08,64.81 820.84,64.81 821.61,64.81 822.37,63.98 823.14,63.98 823.90,63.16 824.66,63.16 825.43,62.33 826.19,62.33 826.96,62.33 827.72,62.33 828.49,61.50 829.25,61.50 830.02,61.50 830.78,60.67 831.55,60.67 832.31,59.85 833.08,59.85 833.84,59.85 834.60,59.85 835.37,59.85 836.13,59.85 836.90,59.85 837.66,59.85 838.43,59.85 839.19,59.85 839.96,59.85 840.72,59.85 841.49,59.85 842.25,59.85 843.02,59.85 843.78,59.85 844.54,59.02 845.31,59.02 846.07,58.19 846.84,57.37 847.60,57.37 848.37,57.37 849.13,57.37 849.90,57.37 850.66,57.37 851.43,57.37 852.19,57.37 852.96,57.37 853.72,57.37 854.48,57.37 855.25,57.37 856.01,57.37 856.78,57.37 857.54,57.37 858.31,57.37 859.07,57.37 859.84,57.37 860.60,56.54 861.37,56.54 862.13,55.71 862.90,55.71 863.66,55.71 864.42,55.71 865.19,55.71 865.95,55.71 866.72,55.71 867.48,55.71 868.25,53.23 869.01,53.23 869.78,53.23 870.54,53.23 871.31,52.40 872.07,52.40 872.84,52.40 873.60,51.58 874.36,51.58 875.13,51.58 875.89,51.58 876.66,51.58 877.42,51.58 878.19,50.75 878.95,50.75 879.72,50.75 880.48,50.75 881.25,49.92 882.01,49.92 882.77,49.92 883.54,49.92 884.30,49.92 885.07,49.92 885.83,49.92 886.60,49.92 887.36,49.92 888.13,49.92 888.89,49.92 889.66,49.92 890.42,49.92 891.19,49.10 891.95,49.10 892.71,49.10 893.48,46.62 894.24,46.62 895.01,46.62 895.77,46.62 896.54,46.62 897.30,46.62 898.07,46.62 898.83,46.62 899.60,45.79 900.36,45.79 901.13,45.79 901.89,45.79 902.65,45.79 903.42,45.79 904.18,45.79 904.95,45.79 905.71,45.79 906.48,45.79 907.24,45.79 908.01,45.79 908.77,45.79 909.54,45.79 910.30,45.79 911.07,45.79 911.83,45.79 912.59,45.79 913.36,45.79 914.12,45.79 914.89,45.79 915.65,45.79 916.42,44.96 917.18,44.96 917.95,44.96 918.71,44.96 919.48,44.96 920.24,44.96 921.01,44.13 921.77,44.13 922.53,44.13 923.30,44.13 924.06,44.13 924.83,44.13 925.59,44.13 926.36,44.13 927.12,44.13 927.89,44.13 928.65,44.13 929.42,44.13 930.18,44.13 930.95,44.13 931.71,44.13 932.47,44.13 933.24,44.13 934.00,44.13 934.77,44.13 935.53,44.13 936.30,44.13 937.06,44.13 937.83,44.13 938.59,44.13 939.36,44.13 940.12,44.13 940.88,44.13 941.65,44.13 942.41,44.13 943.18,44.13 943.94,44.13 944.71,43.31 945.47,43.31 946.24,43.31 947.00,42.48 947.77,41.65 948.53,41.65 949.30,40.83 950.06,40.83 950.82,40.83 951.59,40.83 952.35,40.83 953.12,40.83 953.88,40.83 954.65,40.83 955.41,40.83 956.18,40.83 956.94,40.00 957.71,40.00 958.47,40.00 959.24,40.00 960.00,40.00" fill="none" stroke="#2563eb" stroke-width="2"/>
<text x="78" y="58" font-family="Arial" font-size="12" fill="#2563eb">blue: cumulative relations</text>
<text x="78" y="76" font-family="Arial" font-size="12" fill="#ea580c">orange bars: new relations at idx</text>
</svg>