<svg xmlns="http://www.w3.org/2000/svg" width="1000" height="430" viewBox="0 0 1000 430">
<rect width="100%" height="100%" fill="white"/>
<text x="500.0" y="24" text-anchor="middle" font-family="Arial" font-size="18" font-weight="700">Growth Curve: case6_weighted</text>
<line x1="70" y1="365" x2="960" y2="365" stroke="#111827"/>
<line x1="70" y1="40" x2="70" y2="365" stroke="#111827"/>
<text x="515.0" y="412" text-anchor="middle" font-family="Arial" font-size="13">sample idx</text>
<line x1="70" y1="365.00" x2="960" y2="365.00" stroke="#e5e7eb"/>
<text x="62" y="369.00" text-anchor="end" font-family="Arial" font-size="11">0</text>
<line x1="70" y1="300.34" x2="960" y2="300.34" stroke="#e5e7eb"/>
<text x="62" y="304.34" text-anchor="end" font-family="Arial" font-size="11">76</text>
<line x1="70" y1="234.83" x2="960" y2="234.83" stroke="#e5e7eb"/>
<text x="62" y="238.83" text-anchor="end" font-family="Arial" font-size="11">153</text>
<line x1="70" y1="170.17" x2="960" y2="170.17" stroke="#e5e7eb"/>
<text x="62" y="174.17" text-anchor="end" font-family="Arial" font-size="11">229</text>
<line x1="70" y1="104.66" x2="960" y2="104.66" stroke="#e5e7eb"/>
<text x="62" y="108.66" text-anchor="end" font-family="Arial" font-size="11">306</text>
<line x1="70" y1="40.00" x2="960" y2="40.00" stroke="#e5e7eb"/>
<text x="62" y="44.00" text-anchor="end" font-family="Arial" font-size="11">382</text>
<rect x="69.00" y="347.00" width="2" height="18.00" fill="#f97316" opacity="0.35"/>
<rect x="69.76" y="329.00" width="2" height="36.00" fill="#f97316" opacity="0.35"/>
<rect x="70.53" y="347.00" width="2" height="18.00" fill="#f97316" opacity="0.35"/>
<rect x="71.29" y="329.00" width="2" height="36.00" fill="#f97316" opacity="0.35"/>
<rect x="72.06" y="329.00" width="2" height="36.00" fill="#f97316" opacity="0.35"/>
<rect x="72.82" y="329.00" width="2" height="36.00" fill="#f97316" opacity="0.35"/>
<rect x="73.59" y="329.00" width="2" height="36.00" fill="#f97316" opacity="0.35"/>
<rect x="74.35" y="311.00" width="2" height="54.00" fill="#f97316" opacity="0.35"/>
<rect x="75.12" y="347.00" width="2" height="18.00" fill="#f97316" opacity="0.35"/>
<rect x="75.88" y="329.00" width="2" height="36.00" fill="#f97316" opacity="0.35"/>
<rect x="76.65" y="347.00" width="2" height="18.00" fill="#f97316" opacity="0.35"/>
<rect x="77.41" y="311.00" width="2" height="54.00" fill="#f97316" opacity="0.35"/>
<rect x="78.94" y="347.00" width="2" height="18.00" fill="#f97316" opacity="0.35"/>
<rect x="79.70" y="329.00" width="2" height="36.00" fill="#f97316" opacity="0.35"/>
<rect x="80.47" y="329.00" width="2" height="36.00" fill="#f97316" opacity="0.35"/>
<rect x="81.23" y="329.00" width="2" height="36.00" fill="#f97316" opacity="0.35"/>
<rect x="82.00" y="347.00" width="2" height="18.00" fill="#f97316" opacity="0.35"/>
<rect x="83.53" y="347.00" width="2" height="18.00" fill="#f97316" opacity="0.35"/>
<rect x="84.29" y="329.00" width="2" height="36.00" fill="#f97316" opacity="0.35"/>
<rect x="85.06" y="329.00" width="2" height="36.00" fill="#f97316" opacity="0.35"/>
<rect x="85.82" y="347.00" width="2" height="18.00" fill="#f97316" opacity="0.35"/>
<rect x="87.35" y="329.00" width="2" height="36.00" fill="#f97316" opacity="0.35"/>
<rect x="88.12" y="329.00" width="2" height="36.00" fill="#f97316" opacity="0.35"/>
<rect x="88.88" y="347.00" width="2" height="18.00" fill="#f97316" opacity="0.35"/>
<rect x="89.64" y="347.00" width="2" height="18.00" fill="#f97316" opacity="0.35"/>
<rect x="90.41" y="329.00" width="2" height="36.00" fill="#f97316" opacity="0.35"/>
<rect x="91.17" y="329.00" width="2" height="36.00" fill="#f97316" opacity="0.35"/>
<rect x="91.94" y="347.00" width="2" height="18.00" fill="#f97316" opacity="0.35"/>
<rect x="94.23" y="311.00" width="2" height="54.00" fill="#f97316" opacity="0.35"/>
<rect x="95.00" y="311.00" width="2" height="54.00" fill="#f97316" opacity="0.35"/>
<rect x="98.82" y="329.00" width="2" height="36.00" fill="#f97316" opacity="0.35"/>
<rect x="99.58" y="347.00" width="2" height="18.00" fill="#f97316" opacity="0.35"/>
<rect x="101.11" y="347.00" width="2" height="18.00" fill="#f97316" opacity="0.35"/>
<rect x="103.41" y="329.00" width="2" height="36.00" fill="#f97316" opacity="0.35"/>
<rect x="104.94" y="347.00" width="2" height="18.00" fill="#f97316" opacity="0.35"/>
<rect x="105.70" y="329.00" width="2" height="36.00" fill="#f97316" opacity="0.35"/>
<rect x="106.47" y="347.00" width="2" height="18.00" fill="#f97316" opacity="0.35"/>
<rect x="107.23" y="347.00" width="2" height="18.00" fill="#f97316" opacity="0.35"/>
<rect x="110.29" y="347.00" width="2" height="18.00" fill="#f97316" opacity="0.35"/>
<rect x="111.82" y="347.00" width="2" height="18.00" fill="#f97316" opacity="0.35"/>
<rect x="112.58" y="347.00" width="2" height="18.00" fill="#f97316" opacity="0.35"/>
<rect x="113.35" y="329.00" width="2" height="36.00" fill="#f97316" opacity="0.35"/>
<rect x="114.11" y="347.00" width="2" height="18.00" fill="#f97316" opacity="0.35"/>
<rect x="114.88" y="329.00" width="2" height="36.00" fill="#f97316" opacity="0.35"/>
<rect x="117.93" y="329.00" width="2" height="36.00" fill="#f97316" opacity="0.35"/>
<rect x="118.70" y="347.00" width="2" height="18.00" fill="#f97316" opacity="0.35"/>
<rect x="119.46" y="311.00" width="2" height="54.00" fill="#f97316" opacity="0.35"/>
<rect x="124.05" y="347.00" width="2" height="18.00" fill="#f97316" opacity="0.35"/>
<rect x="124.82" y="329.00" width="2" height="36.00" fill="#f97316" opacity="0.35"/>
<rect x="126.35" y="347.00" width="2" height="18.00" fill="#f97316" opacity="0.35"/>
<rect x="128.64" y="347.00" width="2" height="18.00" fill="#f97316" opacity="0.35"/>
<rect x="129.40" y="347.00" width="2" height="18.00" fill="#f97316" opacity="0.35"/>
<rect x="130.17" y="347.00" width="2" height="18.00" fill="#f97316" opacity="0.35"/>
<rect x="131.70" y="347.00" width="2" height="18.00" fill="#f97316" opacity="0.35"/>
<rect x="133.99" y="347.00" width="2" height="18.00" fill="#f97316" opacity="0.35"/>
<rect x="135.52" y="347.00" width="2" height="18.00" fill="#f97316" opacity="0.35"/>
<rect x="137.81" y="293.00" width="2" height="72.00" fill="#f97316" opacity="0.35"/>
<rect x="138.58" y="347.00" width="2" height="18.00" fill="#f97316" opacity="0.35"/>
<rect x="139.34" y="347.00" width="2" height="18.00" fill="#f97316" opacity="0.35"/>
<rect x="141.64" y="329.00" width="2" height="36.00" fill="#f97316" opacity="0.35"/>
<rect x="143.17" y="347.00" width="2" height="18.00" fill="#f97316" opacity="0.35"/>
<rect x="144.70" y="347.00" width="2" height="18.00" fill="#f97316" opacity="0.35"/>
<rect x="145.46" y="311.00" width="2" height="54.00" fill="#f97316" opacity="0.35"/>
<rect x="146.23" y="347.00" width="2" height="18.00" fill="#f97316" opacity="0.35"/>
<rect x="146.99" y="347.00" width="2" height="18.00" fill="#f97316" opacity="0.35"/>
<rect x="148.52" y="347.00" width="2" height="18.00" fill="#f97316" opacity="0.35"/>
<rect x="150.81" y="347.00" width="2" height="18.00" fill="#f97316" opacity="0.35"/>
<rect x="151.58" y="347.00" width="2" height="18.00" fill="#f97316" opacity="0.35"/>
<rect x="153.87" y="329.00" width="2" height="36.00" fill="#f97316" opacity="0.35"/>
<rect x="154.64" y="311.00" width="2" height="54.00" fill="#f97316" opacity="0.35"/>
<rect x="156.16" y="347.00" width="2" height="18.00" fill="#f97316" opacity="0.35"/>
<rect x="158.46" y="329.00" width="2" height="36.00" fill="#f97316" opacity="0.35"/>
<rect x="159.22" y="347.00" width="2" height="18.00" fill="#f97316" opacity="0.35"/>
<rect x="163.81" y="347.00" width="2" height="18.00" fill="#f97316" opacity="0.35"/>
<rect x="166.87" y="347.00" width="2" height="18.00" fill="#f97316" opacity="0.35"/>
<rect x="167.63" y="347.00" width="2" height="18.00" fill="#f97316" opacity="0.35"/>
<rect x="170.69" y="347.00" width="2" height="18.00" fill="#f97316" opacity="0.35"/>
<rect x="171.46" y="347.00" width="2" height="18.00" fill="#f97316" opacity="0.35"/>
<rect x="176.04" y="347.00" width="2" height="18.00" fill="#f97316" opacity="0.35"/>
<rect x="176.81" y="347.00" width="2" height="18.00" fill="#f97316" opacity="0.35"/>
<rect x="178.34" y="329.00" width="2" height="36.00" fill="#f97316" opacity="0.35"/>
<rect x="182.93" y="347.00" width="2" height="18.00" fill="#f97316" opacity="0.35"/>
<rect x="183.69" y="329.00" width="2" height="36.00" fill="#f97316" opacity="0.35"/>
<rect x="184.46" y="347.00" width="2" height="18.00" fill="#f97316" opacity="0.35"/>
<rect x="185.22" y="347.00" width="2" height="18.00" fill="#f97316" opacity="0.35"/>
<rect x="186.75" y="275.00" width="2" height="90.00" fill="#f97316" opacity="0.35"/>
<rect x="190.57" y="347.00" width="2" height="18.00" fill="#f97316" opacity="0.35"/>
<rect x="192.87" y="329.00" width="2" height="36.00" fill="#f97316" opacity="0.35"/>
<rect x="195.16" y="311.00" width="2" height="54.00" fill="#f97316" opacity="0.35"/>
<rect x="197.45" y="347.00" width="2" height="18.00" fill="#f97316" opacity="0.35"/>
<rect x="199.75" y="329.00" width="2" height="36.00" fill="#f97316" opacity="0.35"/>
<rect x="201.28" y="347.00" width="2" height="18.00" fill="#f97316" opacity="0.35"/>
<rect x="202.04" y="347.00" width="2" height="18.00" fill="#f97316" opacity="0.35"/>
<rect x="205.86" y="329.00" width="2" height="36.00" fill="#f97316" opacity="0.35"/>
<rect x="208.16" y="347.00" width="2" height="18.00" fill="#f97316" opacity="0.35"/>
<rect x="210.45" y="347.00" width="2" height="18.00" fill="#f97316" opacity="0.35"/>
<rect x="211.98" y="329.00" width="2" height="36.00" fill="#f97316" opacity="0.35"/>
<rect x="212.75" y="329.00" width="2" height="36.00" fill="#f97316" opacity="0.35"/>
<rect x="216.57" y="347.00" width="2" height="18.00" fill="#f97316" opacity="0.35"/>
<rect x="221.16" y="329.00" width="2" height="36.00" fill="#f97316" opacity="0.35"/>
<rect x="224.21" y="347.00" width="2" height="18.00" fill="#f97316" opacity="0.35"/>
<rect x="224.98" y="347.00" width="2" height="18.00" fill="#f97316" opacity="0.35"/>
<rect x="226.51" y="347.00" width="2" height="18.00" fill="#f97316" opacity="0.35"/>
<rect x="229.57" y="347.00" width="2" height="18.00" fill="#f97316" opacity="0.35"/>
<rect x="235.68" y="347.00" width="2" height="18.00" fill="#f97316" opacity="0.35"/>
<rect x="236.45" y="347.00" width="2" height="18.00" fill="#f97316" opacity="0.35"/>
<rect x="237.98" y="329.00" width="2" height="36.00" fill="#f97316" opacity="0.35"/>
<rect x="244.09" y="347.00" width="2" height="18.00" fill="#f97316" opacity="0.35"/>
<rect x="250.21" y="347.00" width="2" height="18.00" fill="#f97316" opacity="0.35"/>
<rect x="251.74" y="347.00" width="2" height="18.00" fill="#f97316" opacity="0.35"/>
<rect x="254.03" y="311.00" width="2" height="54.00" fill="#f97316" opacity="0.35"/>
<rect x="262.45" y="347.00" width="2" height="18.00" fill="#f97316" opacity="0.35"/>
<rect x="263.21" y="347.00" width="2" height="18.00" fill="#f97316" opacity="0.35"/>
<rect x="265.50" y="347.00" width="2" height="18.00" fill="#f97316" opacity="0.35"/>
<rect x="267.80" y="347.00" width="2" height="18.00" fill="#f97316" opacity="0.35"/>
<rect x="274.68" y="347.00" width="2" height="18.00" fill="#f97316" opacity="0.35"/>
<rect x="276.21" y="347.00" width="2" height="18.00" fill="#f97316" opacity="0.35"/>
<rect x="280.80" y="347.00" width="2" height="18.00" fill="#f97316" opacity="0.35"/>
<rect x="281.56" y="347.00" width="2" height="18.00" fill="#f97316" opacity="0.35"/>
<rect x="284.62" y="329.00" width="2" height="36.00" fill="#f97316" opacity="0.35"/>
<rect x="286.15" y="347.00" width="2" height="18.00" fill="#f97316" opacity="0.35"/>
<rect x="293.03" y="347.00" width="2" height="18.00" fill="#f97316" opacity="0.35"/>
<rect x="294.56" y="347.00" width="2" height="18.00" fill="#f97316" opacity="0.35"/>
<rect x="299.91" y="347.00" width="2" height="18.00" fill="#f97316" opacity="0.35"/>
<rect x="301.44" y="347.00" width="2" height="18.00" fill="#f97316" opacity="0.35"/>
<rect x="303.73" y="347.00" width="2" height="18.00" fill="#f97316" opacity="0.35"/>
<rect x="306.79" y="347.00" width="2" height="18.00" fill="#f97316" opacity="0.35"/>
<rect x="317.50" y="347.00" width="2" height="18.00" fill="#f97316" opacity="0.35"/>
<rect x="318.26" y="347.00" width="2" height="18.00" fill="#f97316" opacity="0.35"/>
<rect x="319.03" y="347.00" width="2" height="18.00" fill="#f97316" opacity="0.35"/>
<rect x="320.55" y="329.00" width="2" height="36.00" fill="#f97316" opacity="0.35"/>
<rect x="325.91" y="347.00" width="2" height="18.00" fill="#f97316" opacity="0.35"/>
<rect x="326.67" y="347.00" width="2" height="18.00" fill="#f97316" opacity="0.35"/>
<rect x="332.79" y="347.00" width="2" height="18.00" fill="#f97316" opacity="0.35"/>
<rect x="335.85" y="329.00" width="2" height="36.00" fill="#f97316" opacity="0.35"/>
<rect x="338.91" y="347.00" width="2" height="18.00" fill="#f97316" opacity="0.35"/>
<rect x="340.43" y="347.00" width="2" height="18.00" fill="#f97316" opacity="0.35"/>
<rect x="341.20" y="347.00" width="2" height="18.00" fill="#f97316" opacity="0.35"/>
<rect x="346.55" y="347.00" width="2" height="18.00" fill="#f97316" opacity="0.35"/>
<rect x="348.85" y="347.00" width="2" height="18.00" fill="#f97316" opacity="0.35"/>
<rect x="351.14" y="347.00" width="2" height="18.00" fill="#f97316" opacity="0.35"/>
<rect x="354.96" y="347.00" width="2" height="18.00" fill="#f97316" opacity="0.35"/>
<rect x="355.73" y="347.00" width="2" height="18.00" fill="#f97316" opacity="0.35"/>
<rect x="364.14" y="347.00" width="2" height="18.00" fill="#f97316" opacity="0.35"/>
<rect x="366.43" y="347.00" width="2" height="18.00" fill="#f97316" opacity="0.35"/>
<rect x="367.20" y="347.00" width="2" height="18.00" fill="#f97316" opacity="0.35"/>
<rect x="368.73" y="347.00" width="2" height="18.00" fill="#f97316" opacity="0.35"/>
<rect x="370.25" y="347.00" width="2" height="18.00" fill="#f97316" opacity="0.35"/>
<rect x="371.78" y="347.00" width="2" height="18.00" fill="#f97316" opacity="0.35"/>
<rect x="379.43" y="347.00" width="2" height="18.00" fill="#f97316" opacity="0.35"/>
<rect x="382.49" y="329.00" width="2" height="36.00" fill="#f97316" opacity="0.35"/>
<rect x="383.25" y="347.00" width="2" height="18.00" fill="#f97316" opacity="0.35"/>
<rect x="388.60" y="347.00" width="2" height="18.00" fill="#f97316" opacity="0.35"/>
<rect x="394.72" y="329.00" width="2" height="36.00" fill="#f97316" opacity="0.35"/>
<rect x="397.02" y="347.00" width="2" height="18.00" fill="#f97316" opacity="0.35"/>
<rect x="398.54" y="347.00" width="2" height="18.00" fill="#f97316" opacity="0.35"/>
<rect x="402.37" y="347.00" width="2" height="18.00" fill="#f97316" opacity="0.35"/>
<rect x="403.13" y="347.00" width="2" height="18.00" fill="#f97316" opacity="0.35"/>
<rect x="411.54" y="329.00" width="2" height="36.00" fill="#f97316" opacity="0.35"/>
<rect x="413.07" y="347.00" width="2" height="18.00" fill="#f97316" opacity="0.35"/>
<rect x="415.37" y="347.00" width="2" height="18.00" fill="#f97316" opacity="0.35"/>
<rect x="417.66" y="347.00" width="2" height="18.00" fill="#f97316" opacity="0.35"/>
<rect x="419.95" y="347.00" width="2" height="18.00" fill="#f97316" opacity="0.35"/>
<rect x="422.25" y="347.00" width="2" height="18.00" fill="#f97316" opacity="0.35"/>
<rect x="425.31" y="347.00" width="2" height="18.00" fill="#f97316" opacity="0.35"/>
<rect x="427.60" y="347.00" width="2" height="18.00" fill="#f97316" opacity="0.35"/>
<rect x="429.89" y="329.00" width="2" height="36.00" fill="#f97316" opacity="0.35"/>
<rect x="433.72" y="347.00" width="2" height="18.00" fill="#f97316" opacity="0.35"/>
<rect x="449.77" y="347.00" width="2" height="18.00" fill="#f97316" opacity="0.35"/>
<rect x="452.07" y="329.00" width="2" height="36.00" fill="#f97316" opacity="0.35"/>
<rect x="457.42" y="347.00" width="2" height="18.00" fill="#f97316" opacity="0.35"/>
<rect x="462.01" y="347.00" width="2" height="18.00" fill="#f97316" opacity="0.35"/>
<rect x="465.07" y="347.00" width="2" height="18.00" fill="#f97316" opacity="0.35"/>
<rect x="468.89" y="329.00" width="2" height="36.00" fill="#f97316" opacity="0.35"/>
<rect x="470.42" y="347.00" width="2" height="18.00" fill="#f97316" opacity="0.35"/>
<rect x="472.71" y="347.00" width="2" height="18.00" fill="#f97316" opacity="0.35"/>
<rect x="479.59" y="347.00" width="2" height="18.00" fill="#f97316" opacity="0.35"/>
<rect x="483.42" y="347.00" width="2" height="18.00" fill="#f97316" opacity="0.35"/>
<rect x="484.95" y="347.00" width="2" height="18.00" fill="#f97316" opacity="0.35"/>
<rect x="488.00" y="329.00" width="2" height="36.00" fill="#f97316" opacity="0.35"/>
<rect x="493.36" y="347.00" width="2" height="18.00" fill="#f97316" opacity="0.35"/>
<rect x="494.12" y="329.00" width="2" height="36.00" fill="#f97316" opacity="0.35"/>
<rect x="494.88" y="347.00" width="2" height="18.00" fill="#f97316" opacity="0.35"/>
<rect x="496.41" y="347.00" width="2" height="18.00" fill="#f97316" opacity="0.35"/>
<rect x="497.18" y="347.00" width="2" height="18.00" fill="#f97316" opacity="0.35"/>
<rect x="498.71" y="347.00" width="2" height="18.00" fill="#f97316" opacity="0.35"/>
<rect x="503.30" y="347.00" width="2" height="18.00" fill="#f97316" opacity="0.35"/>
<rect x="504.06" y="347.00" width="2" height="18.00" fill="#f97316" opacity="0.35"/>
<rect x="509.41" y="347.00" width="2" height="18.00" fill="#f97316" opacity="0.35"/>
<rect x="512.47" y="347.00" width="2" height="18.00" fill="#f97316" opacity="0.35"/>
<rect x="514.76" y="347.00" width="2" height="18.00" fill="#f97316" opacity="0.35"/>
<rect x="518.59" y="329.00" width="2" height="36.00" fill="#f97316" opacity="0.35"/>
<rect x="520.88" y="347.00" width="2" height="18.00" fill="#f97316" opacity="0.35"/>
<rect x="522.41" y="347.00" width="2" height="18.00" fill="#f97316" opacity="0.35"/>
<rect x="529.29" y="347.00" width="2" height="18.00" fill="#f97316" opacity="0.35"/>
<rect x="530.06" y="347.00" width="2" height="18.00" fill="#f97316" opacity="0.35"/>
<rect x="530.82" y="347.00" width="2" height="18.00" fill="#f97316" opacity="0.35"/>
<rect x="531.59" y="347.00" width="2" height="18.00" fill="#f97316" opacity="0.35"/>
<rect x="532.35" y="347.00" width="2" height="18.00" fill="#f97316" opacity="0.35"/>
<rect x="539.23" y="347.00" width="2" height="18.00" fill="#f97316" opacity="0.35"/>
<rect x="540.00" y="347.00" width="2" height="18.00" fill="#f97316" opacity="0.35"/>
<rect x="546.11" y="347.00" width="2" height="18.00" fill="#f97316" opacity="0.35"/>
<rect x="546.88" y="347.00" width="2" height="18.00" fill="#f97316" opacity="0.35"/>
<rect x="548.41" y="347.00" width="2" height="18.00" fill="#f97316" opacity="0.35"/>
<rect x="549.94" y="347.00" width="2" height="18.00" fill="#f97316" opacity="0.35"/>
<rect x="551.47" y="347.00" width="2" height="18.00" fill="#f97316" opacity="0.35"/>
<rect x="555.29" y="347.00" width="2" height="18.00" fill="#f97316" opacity="0.35"/>
<rect x="556.82" y="347.00" width="2" height="18.00" fill="#f97316" opacity="0.35"/>
<rect x="557.58" y="347.00" width="2" height="18.00" fill="#f97316" opacity="0.35"/>
<rect x="560.64" y="311.00" width="2" height="54.00" fill="#f97316" opacity="0.35"/>
<rect x="561.41" y="347.00" width="2" height="18.00" fill="#f97316" opacity="0.35"/>
<rect x="563.70" y="347.00" width="2" height="18.00" fill="#f97316" opacity="0.35"/>
<rect x="569.05" y="329.00" width="2" height="36.00" fill="#f97316" opacity="0.35"/>
<rect x="572.87" y="347.00" width="2" height="18.00" fill="#f97316" opacity="0.35"/>
<rect x="573.64" y="347.00" width="2" height="18.00" fill="#f97316" opacity="0.35"/>
<rect x="585.87" y="347.00" width="2" height="18.00" fill="#f97316" opacity="0.35"/>
<rect x="588.93" y="347.00" width="2" height="18.00" fill="#f97316" opacity="0.35"/>
<rect x="594.28" y="347.00" width="2" height="18.00" fill="#f97316" opacity="0.35"/>
<rect x="595.05" y="347.00" width="2" height="18.00" fill="#f97316" opacity="0.35"/>
<rect x="596.58" y="347.00" width="2" height="18.00" fill="#f97316" opacity="0.35"/>
<rect x="600.40" y="347.00" width="2" height="18.00" fill="#f97316" opacity="0.35"/>
<rect x="603.46" y="347.00" width="2" height="18.00" fill="#f97316" opacity="0.35"/>
<rect x="611.10" y="347.00" width="2" height="18.00" fill="#f97316" opacity="0.35"/>
<rect x="614.16" y="347.00" width="2" height="18.00" fill="#f97316" opacity="0.35"/>
<rect x="614.93" y="347.00" width="2" height="18.00" fill="#f97316" opacity="0.35"/>
<rect x="623.34" y="347.00" width="2" height="18.00" fill="#f97316" opacity="0.35"/>
<rect x="625.63" y="347.00" width="2" height="18.00" fill="#f97316" opacity="0.35"/>
<rect x="634.04" y="347.00" width="2" height="18.00" fill="#f97316" opacity="0.35"/>
<rect x="636.34" y="347.00" width="2" height="18.00" fill="#f97316" opacity="0.35"/>
<rect x="647.81" y="347.00" width="2" height="18.00" fill="#f97316" opacity="0.35"/>
<rect x="650.10" y="347.00" width="2" height="18.00" fill="#f97316" opacity="0.35"/>
<rect x="657.75" y="347.00" width="2" height="18.00" fill="#f97316" opacity="0.35"/>
<rect x="660.80" y="347.00" width="2" height="18.00" fill="#f97316" opacity="0.35"/>
<rect x="664.63" y="347.00" width="2" height="18.00" fill="#f97316" opacity="0.35"/>
<rect x="666.92" y="347.00" width="2" height="18.00" fill="#f97316" opacity="0.35"/>
<rect x="673.04" y="347.00" width="2" height="18.00" fill="#f97316" opacity="0.35"/>
<rect x="673.80" y="347.00" width="2" height="18.00" fill="#f97316" opacity="0.35"/>
<rect x="689.86" y="347.00" width="2" height="18.00" fill="#f97316" opacity="0.35"/>
<rect x="691.39" y="347.00" width="2" height="18.00" fill="#f97316" opacity="0.35"/>
<rect x="700.56" y="347.00" width="2" height="18.00" fill="#f97316" opacity="0.35"/>
<rect x="702.86" y="347.00" width="2" height="18.00" fill="#f97316" opacity="0.35"/>
<rect x="708.21" y="347.00" width="2" height="18.00" fill="#f97316" opacity="0.35"/>
<rect x="713.56" y="347.00" width="2" height="18.00" fill="#f97316" opacity="0.35"/>
<rect x="718.15" y="347.00" width="2" height="18.00" fill="#f97316" opacity="0.35"/>
<rect x="721.21" y="347.00" width="2" height="18.00" fill="#f97316" opacity="0.35"/>
<rect x="731.15" y="347.00" width="2" height="18.00" fill="#f97316" opacity="0.35"/>
<rect x="732.68" y="347.00" width="2" height="18.00" fill="#f97316" opacity="0.35"/>
<rect x="734.97" y="329.00" width="2" height="36.00" fill="#f97316" opacity="0.35"/>
<rect x="739.56" y="347.00" width="2" height="18.00" fill="#f97316" opacity="0.35"/>
<rect x="740.32" y="329.00" width="2" height="36.00" fill="#f97316" opacity="0.35"/>
<rect x="741.85" y="347.00" width="2" height="18.00" fill="#f97316" opacity="0.35"/>
<rect x="743.38" y="347.00" width="2" height="18.00" fill="#f97316" opacity="0.35"/>
<rect x="744.91" y="347.00" width="2" height="18.00" fill="#f97316" opacity="0.35"/>
<rect x="747.20" y="347.00" width="2" height="18.00" fill="#f97316" opacity="0.35"/>
<rect x="754.85" y="347.00" width="2" height="18.00" fill="#f97316" opacity="0.35"/>
<rect x="760.20" y="347.00" width="2" height="18.00" fill="#f97316" opacity="0.35"/>
<rect x="764.03" y="347.00" width="2" height="18.00" fill="#f97316" opacity="0.35"/>
<rect x="767.85" y="311.00" width="2" height="54.00" fill="#f97316" opacity="0.35"/>
<rect x="777.79" y="347.00" width="2" height="18.00" fill="#f97316" opacity="0.35"/>
<rect x="779.32" y="329.00" width="2" height="36.00" fill="#f97316" opacity="0.35"/>
<rect x="786.96" y="329.00" width="2" height="36.00" fill="#f97316" opacity="0.35"/>
<rect x="791.55" y="347.00" width="2" height="18.00" fill="#f97316" opacity="0.35"/>
<rect x="795.37" y="347.00" width="2" height="18.00" fill="#f97316" opacity="0.35"/>
<rect x="813.73" y="347.00" width="2" height="18.00" fill="#f97316" opacity="0.35"/>
<rect x="816.02" y="347.00" width="2" height="18.00" fill="#f97316" opacity="0.35"/>
<rect x="816.78" y="347.00" width="2" height="18.00" fill="#f97316" opacity="0.35"/>
<rect x="821.37" y="347.00" width="2" height="18.00" fill="#f97316" opacity="0.35"/>
<rect x="822.90" y="347.00" width="2" height="18.00" fill="#f97316" opacity="0.35"/>
<rect x="824.43" y="347.00" width="2" height="18.00" fill="#f97316" opacity="0.35"/>
<rect x="827.49" y="347.00" width="2" height="18.00" fill="#f97316" opacity="0.35"/>
<rect x="829.02" y="347.00" width="2" height="18.00" fill="#f97316" opacity="0.35"/>
<rect x="841.25" y="347.00" width="2" height="18.00" fill="#f97316" opacity="0.35"/>
<rect x="843.54" y="347.00" width="2" height="18.00" fill="#f97316" opacity="0.35"/>
<rect x="844.31" y="329.00" width="2" height="36.00" fill="#f97316" opacity="0.35"/>
<rect x="861.13" y="347.00" width="2" height="18.00" fill="#f97316" opacity="0.35"/>
<rect x="865.72" y="347.00" width="2" height="18.00" fill="#f97316" opacity="0.35"/>
<rect x="867.25" y="329.00" width="2" height="36.00" fill="#f97316" opacity="0.35"/>
<rect x="871.07" y="347.00" width="2" height="18.00" fill="#f97316" opacity="0.35"/>
<rect x="877.19" y="347.00" width="2" height="18.00" fill="#f97316" opacity="0.35"/>
<rect x="879.48" y="347.00" width="2" height="18.00" fill="#f97316" opacity="0.35"/>
<rect x="887.13" y="311.00" width="2" height="54.00" fill="#f97316" opacity="0.35"/>
<rect x="892.48" y="329.00" width="2" height="36.00" fill="#f97316" opacity="0.35"/>
<rect x="899.36" y="329.00" width="2" height="36.00" fill="#f97316" opacity="0.35"/>
<rect x="909.30" y="347.00" width="2" height="18.00" fill="#f97316" opacity="0.35"/>
<rect x="910.07" y="347.00" width="2" height="18.00" fill="#f97316" opacity="0.35"/>
<rect x="913.12" y="347.00" width="2" height="18.00" fill="#f97316" opacity="0.35"/>
<rect x="920.77" y="347.00" width="2" height="18.00" fill="#f97316" opacity="0.35"/>
<rect x="926.12" y="347.00" width="2" height="18.00" fill="#f97316" opacity="0.35"/>
<rect x="935.30" y="347.00" width="2" height="18.00" fill="#f97316" opacity="0.35"/>
<rect x="942.94" y="329.00" width="2" height="36.00" fill="#f97316" opacity="0.35"/>
<rect x="946.00" y="347.00" width="2" height="18.00" fill="#f97316" opacity="0.35"/>
<rect x="948.30" y="347.00" width="2" height="18.00" fill="#f97316" opacity="0.35"/>
<rect x="952.12" y="347.00" width="2" height="18.00" fill="#f97316" opacity="0.35"/>
<rect x="955.94" y="347.00" width="2" height="18.00" fill="#f97316" opacity="0.35"/>
<rect x="959.00" y="347.00" width="2" height="18.00" fill="#f97316" opacity="0.35"/>
<polyline points="70.00,364.15 70.76,362.45 71.53,361.60 72.29,359.90 73.06,358.19 73.82,356.49 74.59,354.79 75.35,352.24 76.12,351.39 76.88,349.69 77.65,348.84 78.41,346.28 79.18,346.28 79.94,345.43 80.70,343.73 81.47,342.03 82.23,340.33 83.00,339.48 83.76,339.48 84.53,338.63 85.29,336.92 86.06,335.22 86.82,334.37 87.59,334.37 88.35,332.67 89.12,330.97 89.88,330.12 90.64,329.27 91.41,327.57 92.17,325.86 92.94,325.01 93.70,325.01 94.47,325.01 95.23,322.46 96.00,319.91 96.76,319.91 97.53,319.91 98.29,319.91 99.05,319.91 99.82,318.21 100.58,317.36 101.35,317.36 102.11,316.51 102.88,316.51 103.64,316.51 104.41,314.80 105.17,314.80 105.94,313.95 106.70,312.25 107.47,311.40 108.23,310.55 108.99,310.55 109.76,310.55 110.52,310.55 111.29,309.70 112.05,309.70 112.82,308.85 113.58,308.00 114.35,306.30 115.11,305.45 115.88,303.74 116.64,303.74 117.41,303.74 118.17,303.74 118.93,302.04 119.70,301.19 120.46,298.64 121.23,298.64 121.99,298.64 122.76,298.64 123.52,298.64 124.29,298.64 125.05,297.79 125.82,296.09 126.58,296.09 127.35,295.24 128.11,295.24 128.87,295.24 129.64,294.38 130.40,293.53 131.17,292.68 131.93,292.68 132.70,291.83 133.46,291.83 134.23,291.83 134.99,290.98 135.76,290.98 136.52,290.13 137.29,290.13 138.05,290.13 138.81,286.73 139.58,285.88 140.34,285.03 141.11,285.03 141.87,285.03 142.64,283.32 143.40,283.32 144.17,282.47 144.93,282.47 145.70,281.62 146.46,279.07 147.23,278.22 147.99,277.37 148.75,277.37 149.52,276.52 150.28,276.52 151.05,276.52 151.81,275.67 152.58,274.82 153.34,274.82 154.11,274.82 154.87,273.12 155.64,270.56 156.40,270.56 157.16,269.71 157.93,269.71 158.69,269.71 159.46,268.01 160.22,267.16 160.99,267.16 161.75,267.16 162.52,267.16 163.28,267.16 164.05,267.16 164.81,266.31 165.58,266.31 166.34,266.31 167.10,266.31 167.87,265.46 168.63,264.61 169.40,264.61 170.16,264.61 170.93,264.61 171.69,263.76 172.46,262.91 173.22,262.91 173.99,262.91 174.75,262.91 175.52,262.91 176.28,262.91 177.04,262.05 177.81,261.20 178.57,261.20 179.34,259.50 180.10,259.50 180.87,259.50 181.63,259.50 182.40,259.50 183.16,259.50 183.93,258.65 184.69,256.95 185.46,256.10 186.22,255.25 186.98,255.25 187.75,250.99 188.51,250.99 189.28,250.99 190.04,250.99 190.81,250.99 191.57,250.14 192.34,250.14 193.10,250.14 193.87,248.44 194.63,248.44 195.40,248.44 196.16,245.89 196.92,245.89 197.69,245.89 198.45,245.04 199.22,245.04 199.98,245.04 200.75,243.34 201.51,243.34 202.28,242.49 203.04,241.64 203.81,241.64 204.57,241.64 205.34,241.64 206.10,241.64 206.86,239.93 207.63,239.93 208.39,239.93 209.16,239.08 209.92,239.08 210.69,239.08 211.45,238.23 212.22,238.23 212.98,236.53 213.75,234.83 214.51,234.83 215.27,234.83 216.04,234.83 216.80,234.83 217.57,233.98 218.33,233.98 219.10,233.98 219.86,233.98 220.63,233.98 221.39,233.98 222.16,232.28 222.92,232.28 223.69,232.28 224.45,232.28 225.21,231.43 225.98,230.58 226.74,230.58 227.51,229.73 228.27,229.73 229.04,229.73 229.80,229.73 230.57,228.87 231.33,228.87 232.10,228.87 232.86,228.87 233.63,228.87 234.39,228.87 235.15,228.87 235.92,228.87 236.68,228.02 237.45,227.17 238.21,227.17 238.98,225.47 239.74,225.47 240.51,225.47 241.27,225.47 242.04,225.47 242.80,225.47 243.57,225.47 244.33,225.47 245.09,224.62 245.86,224.62 246.62,224.62 247.39,224.62 248.15,224.62 248.92,224.62 249.68,224.62 250.45,224.62 251.21,223.77 251.98,223.77 252.74,222.92 253.51,222.92 254.27,222.92 255.03,220.37 255.80,220.37 256.56,220.37 257.33,220.37 258.09,220.37 258.86,220.37 259.62,220.37 260.39,220.37 261.15,220.37 261.92,220.37 262.68,220.37 263.45,219.52 264.21,218.66 264.97,218.66 265.74,218.66 266.50,217.81 267.27,217.81 268.03,217.81 268.80,216.96 269.56,216.96 270.33,216.96 271.09,216.96 271.86,216.96 272.62,216.96 273.38,216.96 274.15,216.96 274.91,216.96 275.68,216.11 276.44,216.11 277.21,215.26 277.97,215.26 278.74,215.26 279.50,215.26 280.27,215.26 281.03,215.26 281.80,214.41 282.56,213.56 283.32,213.56 284.09,213.56 284.85,213.56 285.62,211.86 286.38,211.86 287.15,211.01 287.91,211.01 288.68,211.01 289.44,211.01 290.21,211.01 290.97,211.01 291.74,211.01 292.50,211.01 293.26,211.01 294.03,210.16 294.79,210.16 295.56,209.31 296.32,209.31 297.09,209.31 297.85,209.31 298.62,209.31 299.38,209.31 300.15,209.31 300.91,208.46 301.68,208.46 302.44,207.60 303.20,207.60 303.97,207.60 304.73,206.75 305.50,206.75 306.26,206.75 307.03,206.75 307.79,205.90 308.56,205.90 309.32,205.90 310.09,205.90 310.85,205.90 311.62,205.90 312.38,205.90 313.14,205.90 313.91,205.90 314.67,205.90 315.44,205.90 316.20,205.90 316.97,205.90 317.73,205.90 318.50,205.05 319.26,204.20 320.03,203.35 320.79,203.35 321.55,201.65 322.32,201.65 323.08,201.65 323.85,201.65 324.61,201.65 325.38,201.65 326.14,201.65 326.91,200.80 327.67,199.95 328.44,199.95 329.20,199.95 329.97,199.95 330.73,199.95 331.49,199.95 332.26,199.95 333.02,199.95 333.79,199.10 334.55,199.10 335.32,199.10 336.08,199.10 336.85,197.40 337.61,197.40 338.38,197.40 339.14,197.40 339.91,196.54 340.67,196.54 341.43,195.69 342.20,194.84 342.96,194.84 343.73,194.84 344.49,194.84 345.26,194.84 346.02,194.84 346.79,194.84 347.55,193.99 348.32,193.99 349.08,193.99 349.85,193.14 350.61,193.14 351.37,193.14 352.14,192.29 352.90,192.29 353.67,192.29 354.43,192.29 355.20,192.29 355.96,191.44 356.73,190.59 357.49,190.59 358.26,190.59 359.02,190.59 359.79,190.59 360.55,190.59 361.31,190.59 362.08,190.59 362.84,190.59 363.61,190.59 364.37,190.59 365.14,189.74 365.90,189.74 366.67,189.74 367.43,188.89 368.20,188.04 368.96,188.04 369.73,187.19 370.49,187.19 371.25,186.34 372.02,186.34 372.78,185.48 373.55,185.48 374.31,185.48 375.08,185.48 375.84,185.48 376.61,185.48 377.37,185.48 378.14,185.48 378.90,185.48 379.66,185.48 380.43,184.63 381.19,184.63 381.96,184.63 382.72,184.63 383.49,182.93 384.25,182.08 385.02,182.08 385.78,182.08 386.55,182.08 387.31,182.08 388.08,182.08 388.84,182.08 389.60,181.23 390.37,181.23 391.13,181.23 391.90,181.23 392.66,181.23 393.43,181.23 394.19,181.23 394.96,181.23 395.72,179.53 396.49,179.53 397.25,179.53 398.02,178.68 398.78,178.68 399.54,177.83 400.31,177.83 401.07,177.83 401.84,177.83 402.60,177.83 403.37,176.98 404.13,176.13 404.90,176.13 405.66,176.13 406.43,176.13 407.19,176.13 407.96,176.13 408.72,176.13 409.48,176.13 410.25,176.13 411.01,176.13 411.78,176.13 412.54,174.42 413.31,174.42 414.07,173.57 414.84,173.57 415.60,173.57 416.37,172.72 417.13,172.72 417.90,172.72 418.66,171.87 419.42,171.87 420.19,171.87 420.95,171.02 421.72,171.02 422.48,171.02 423.25,170.17 424.01,170.17 424.78,170.17 425.54,170.17 426.31,169.32 427.07,169.32 427.84,169.32 428.60,168.47 429.36,168.47 430.13,168.47 430.89,166.77 431.66,166.77 432.42,166.77 433.19,166.77 433.95,166.77 434.72,165.92 435.48,165.92 436.25,165.92 437.01,165.92 437.77,165.92 438.54,165.92 439.30,165.92 440.07,165.92 440.83,165.92 441.60,165.92 442.36,165.92 443.13,165.92 443.89,165.92 444.66,165.92 445.42,165.92 446.19,165.92 446.95,165.92 447.71,165.92 448.48,165.92 449.24,165.92 450.01,165.92 450.77,165.07 451.54,165.07 452.30,165.07 453.07,163.36 453.83,163.36 454.60,163.36 455.36,163.36 456.13,163.36 456.89,163.36 457.65,163.36 458.42,162.51 459.18,162.51 459.95,162.51 460.71,162.51 461.48,162.51 462.24,162.51 463.01,161.66 463.77,161.66 464.54,161.66 465.30,161.66 466.07,160.81 466.83,160.81 467.59,160.81 468.36,160.81 469.12,160.81 469.89,159.11 470.65,159.11 471.42,158.26 472.18,158.26 472.95,158.26 473.71,157.41 474.48,157.41 475.24,157.41 476.01,157.41 476.77,157.41 477.53,157.41 478.30,157.41 479.06,157.41 479.83,157.41 480.59,156.56 481.36,156.56 482.12,156.56 482.89,156.56 483.65,156.56 484.42,155.71 485.18,155.71 485.95,154.86 486.71,154.86 487.47,154.86 488.24,154.86 489.00,153.15 489.77,153.15 490.53,153.15 491.30,153.15 492.06,153.15 492.83,153.15 493.59,153.15 494.36,152.30 495.12,150.60 495.88,149.75 496.65,149.75 497.41,148.90 498.18,148.05 498.94,148.05 499.71,147.20 500.47,147.20 501.24,147.20 502.00,147.20 502.77,147.20 503.53,147.20 504.30,146.35 505.06,145.50 505.82,145.50 506.59,145.50 507.35,145.50 508.12,145.50 508.88,145.50 509.65,145.50 510.41,144.65 511.18,144.65 511.94,144.65 512.71,144.65 513.47,143.80 514.24,143.80 515.00,143.80 515.76,142.95 516.53,142.95 517.29,142.95 518.06,142.95 518.82,142.95 519.59,141.24 520.35,141.24 521.12,141.24 521.88,140.39 522.65,140.39 523.41,139.54 524.18,139.54 524.94,139.54 525.70,139.54 526.47,139.54 527.23,139.54 528.00,139.54 528.76,139.54 529.53,139.54 530.29,138.69 531.06,137.84 531.82,136.99 532.59,136.14 533.35,135.29 534.12,135.29 534.88,135.29 535.64,135.29 536.41,135.29 537.17,135.29 537.94,135.29 538.70,135.29 539.47,135.29 540.23,134.44 541.00,133.59 541.76,133.59 542.53,133.59 543.29,133.59 544.05,133.59 544.82,133.59 545.58,133.59 546.35,133.59 547.11,132.74 547.88,131.88 548.64,131.88 549.41,131.03 550.17,131.03 550.94,130.18 551.70,130.18 552.47,129.33 553.23,129.33 553.99,129.33 554.76,129.33 555.52,129.33 556.29,128.48 557.05,128.48 557.82,127.63 558.58,126.78 559.35,126.78 560.11,126.78 560.88,126.78 561.64,124.23 562.41,123.38 563.17,123.38 563.93,123.38 564.70,122.53 565.46,122.53 566.23,122.53 566.99,122.53 567.76,122.53 568.52,122.53 569.29,122.53 570.05,120.82 570.82,120.82 571.58,120.82 572.35,120.82 573.11,120.82 573.87,119.97 574.64,119.12 575.40,119.12 576.17,119.12 576.93,119.12 577.70,119.12 578.46,119.12 579.23,119.12 579.99,119.12 580.76,119.12 581.52,119.12 582.29,119.12 583.05,119.12 583.81,119.12 584.58,119.12 585.34,119.12 586.11,119.12 586.87,118.27 587.64,118.27 588.40,118.27 589.17,118.27 589.93,117.42 590.70,117.42 591.46,117.42 592.23,117.42 592.99,117.42 593.75,117.42 594.52,117.42 595.28,116.57 596.05,115.72 596.81,115.72 597.58,114.87 598.34,114.87 599.11,114.87 599.87,114.87 600.64,114.87 601.40,114.02 602.16,114.02 602.93,114.02 603.69,114.02 604.46,113.17 605.22,113.17 605.99,113.17 606.75,113.17 607.52,113.17 608.28,113.17 609.05,113.17 609.81,113.17 610.58,113.17 611.34,113.17 612.10,112.32 612.87,112.32 613.63,112.32 614.40,112.32 615.16,111.47 615.93,110.62 616.69,110.62 617.46,110.62 618.22,110.62 618.99,110.62 619.75,110.62 620.52,110.62 621.28,110.62 622.04,110.62 622.81,110.62 623.57,110.62 624.34,109.76 625.10,109.76 625.87,109.76 626.63,108.91 627.40,108.91 628.16,108.91 628.93,108.91 629.69,108.91 630.46,108.91 631.22,108.91 631.98,108.91 632.75,108.91 633.51,108.91 634.28,108.91 635.04,108.06 635.81,108.06 636.57,108.06 637.34,107.21 638.10,107.21 638.87,107.21 639.63,107.21 640.40,107.21 641.16,107.21 641.92,107.21 642.69,107.21 643.45,107.21 644.22,107.21 644.98,107.21 645.75,107.21 646.51,107.21 647.28,107.21 648.04,107.21 648.81,106.36 649.57,106.36 650.34,106.36 651.10,105.51 651.86,105.51 652.63,105.51 653.39,105.51 654.16,105.51 654.92,105.51 655.69,105.51 656.45,105.51 657.22,105.51 657.98,105.51 658.75,104.66 659.51,104.66 660.27,104.66 661.04,104.66 661.80,103.81 662.57,103.81 663.33,103.81 664.10,103.81 664.86,103.81 665.63,102.96 666.39,102.96 667.16,102.96 667.92,102.11 668.69,102.11 669.45,102.11 670.21,102.11 670.98,102.11 671.74,102.11 672.51,102.11 673.27,102.11 674.04,101.26 674.80,100.41 675.57,100.41 676.33,100.41 677.10,100.41 677.86,100.41 678.63,100.41 679.39,100.41 680.15,100.41 680.92,100.41 681.68,100.41 682.45,100.41 683.21,100.41 683.98,100.41 684.74,100.41 685.51,100.41 686.27,100.41 687.04,100.41 687.80,100.41 688.57,100.41 689.33,100.41 690.09,100.41 690.86,99.55 691.62,99.55 692.39,98.70 693.15,98.70 693.92,98.70 694.68,98.70 695.45,98.70 696.21,98.70 696.98,98.70 697.74,98.70 698.51,98.70 699.27,98.70 700.03,98.70 700.80,98.70 701.56,97.85 702.33,97.85 703.09,97.85 703.86,97.00 704.62,97.00 705.39,97.00 706.15,97.00 706.92,97.00 707.68,97.00 708.45,97.00 709.21,96.15 709.97,96.15 710.74,96.15 711.50,96.15 712.27,96.15 713.03,96.15 713.80,96.15 714.56,95.30 715.33,95.30 716.09,95.30 716.86,95.30 717.62,95.30 718.38,95.30 719.15,94.45 719.91,94.45 720.68,94.45 721.44,94.45 722.21,93.60 722.97,93.60 723.74,93.60 724.50,93.60 725.27,93.60 726.03,93.60 726.80,93.60 727.56,93.60 728.32,93.60 729.09,93.60 729.85,93.60 730.62,93.60 731.38,93.60 732.15,92.75 732.91,92.75 733.68,91.90 734.44,91.90 735.21,91.90 735.97,90.20 736.74,90.20 737.50,90.20 738.26,90.20 739.03,90.20 739.79,90.20 740.56,89.35 741.32,87.64 742.09,87.64 742.85,86.79 743.62,86.79 744.38,85.94 745.15,85.94 745.91,85.09 746.68,85.09 747.44,85.09 748.20,84.24 748.97,84.24 749.73,84.24 750.50,84.24 751.26,84.24 752.03,84.24 752.79,84.24 753.56,84.24 754.32,84.24 755.09,84.24 755.85,83.39 756.62,83.39 757.38,83.39 758.14,83.39 758.91,83.39 759.67,83.39 760.44,83.39 761.20,82.54 761.97,82.54 762.73,82.54 763.50,82.54 764.26,82.54 765.03,81.69 765.79,81.69 766.55,81.69 767.32,81.69 768.08,81.69 768.85,79.14 769.61,79.14 770.38,79.14 771.14,79.14 771.91,79.14 772.67,79.14 773.44,79.14 774.20,79.14 774.97,79.14 775.73,79.14 776.49,79.14 777.26,79.14 778.02,79.14 778.79,78.29 779.55,78.29 780.32,76.58 781.08,76.58 781.85,76.58 782.61,76.58 783.38,76.58 784.14,76.58 784.91,76.58 785.67,76.58 786.43,76.58 787.20,76.58 787.96,74.88 788.73,74.88 789.49,74.88 790.26,74.88 791.02,74.88 791.79,74.88 792.55,74.03 793.32,74.03 794.08,74.03 794.85,74.03 795.61,74.03 796.37,73.18 797.14,73.18 797.90,73.18 798.67,73.18 799.43,73.18 800.20,73.18 800.96,73.18 801.73,73.18 802.49,73.18 803.26,73.18 804.02,73.18 804.79,73.18 805.55,73.18 806.31,73.18 807.08,73.18 807.84,73.18 808.61,73.18 809.37,73.18 810.14,73.18 810.90,73.18 811.67,73.18 812.43,73.18 813.20,73.18 813.96,73.18 814.73,72.33 815.49,72.33 816.25,72.33 817.02,71.48 817.78,70.63 818.55,70.63 819.31,70.63 820.08,70.63 820.84,70.63 821.61,70.63 822.37,69.78 823.14,69.78 823.90,68.93 824.66,68.93 825.43,68.08 826.19,68.08 826.96,68.08 827.72,68.08 828.49,67.23 829.25,67.23 830.02,66.37 830.78,66.37 831.55,66.37 832.31,66.37 833.08,66.37 833.84,66.37 834.60,66.37 835.37,66.37 836.13,66.37 836.90,66.37 837.66,66.37 838.43,66.37 839.19,66.37 839.96,66.37 840.72,66.37 841.49,66.37 842.25,65.52 843.02,65.52 843.78,65.52 844.54,64.67 845.31,62.97 846.07,62.97 846.84,62.97 847.60,62.97 848.37,62.97 849.13,62.97 849.90,62.97 850.66,62.97 851.43,62.97 852.19,62.97 852.96,62.97 853.72,62.97 854.48,62.97 855.25,62.97 856.01,62.97 856.78,62.97 857.54,62.97 858.31,62.97 859.07,62.97 859.84,62.97 860.60,62.97 861.37,62.97 862.13,62.12 862.90,62.12 863.66,62.12 864.42,62.12 865.19,62.12 865.95,62.12 866.72,61.27 867.48,61.27 868.25,59.57 869.01,59.57 869.78,59.57 870.54,59.57 871.31,59.57 872.07,58.72 872.84,58.72 873.60,58.72 874.36,58.72 875.13,58.72 875.89,58.72 876.66,58.72 877.42,58.72 878.19,57.87 878.95,57.87 879.72,57.87 880.48,57.02 881.25,57.02 882.01,57.02 882.77,57.02 883.54,57.02 884.30,57.02 885.07,57.02 885.83,57.02 886.60,57.02 887.36,57.02 888.13,54.46 888.89,54.46 889.66,54.46 890.42,54.46 891.19,54.46 891.95,54.46 892.71,54.46 893.48,52.76 894.24,52.76 895.01,52.76 895.77,52.76 896.54,52.76 897.30,52.76 898.07,52.76 898.83,52.76 899.60,52.76 900.36,51.06 901.13,51.06 901.89,51.06 902.65,51.06 903.42,51.06 904.18,51.06 904.95,51.06 905.71,51.06 906.48,51.06 907.24,51.06 908.01,51.06 908.77,51.06 909.54,51.06 910.30,50.21 911.07,49.36 911.83,49.36 912.59,49.36 913.36,49.36 914.12,48.51 914.89,48.51 915.65,48.51 916.42,48.51 917.18,48.51 917.95,48.51 918.71,48.51 919.48,48.51 920.24,48.51 921.01,48.51 921.77,47.66 922.53,47.66 923.30,47.66 924.06,47.66 924.83,47.66 925.59,47.66 926.36,47.66 927.12,46.81 927.89,46.81 928.65,46.81 929.42,46.81 930.18,46.81 930.95,46.81 931.71,46.81 932.47,46.81 933.24,46.81 934.00,46.81 934.77,46.81 935.53,46.81 936.30,45.96 937.06,45.96 937.83,45.96 938.59,45.96 939.36,45.96 940.12,45.96 940.88,45.96 941.65,45.96 942.41,45.96 943.18,45.96 943.94,44.25 944.71,44.25 945.47,44.25 946.24,44.25 947.00,43.40 947.77,43.40 948.53,43.40 949.30,42.55 950.06,42.55 950.82,42.55 951.59,42.55 952.35,42.55 953.12,41.70 953.88,41.70 954.65,41.70 955.41,41.70 956.18,41.70 956.94,40.85 957.71,40.85 958.47,40.85 959.24,40.85 960.00,40.00" fill="none" stroke="#2563eb" stroke-width="2"/>
<text x="78" y="58" font-family="Arial" font-size="12" fill="#2563eb">blue: cumulative relations</text>
<text x="78" y="76" font-family="Arial" font-size="12" fill="#ea580c">orange bars: new relations at idx</text>
</svg>