<svg xmlns="http://www.w3.org/2000/svg" width="1000" height="430" viewBox="0 0 1000 430">
<rect width="100%" height="100%" fill="white"/>
<text x="500.0" y="24" text-anchor="middle" font-family="Arial" font-size="18" font-weight="700">Growth Curve: case1_name_only</text>
<line x1="70" y1="365" x2="960" y2="365" stroke="#111827"/>
<line x1="70" y1="40" x2="70" y2="365" stroke="#111827"/>
<text x="515.0" y="412" text-anchor="middle" font-family="Arial" font-size="13">sample idx</text>
<line x1="70" y1="365.00" x2="960" y2="365.00" stroke="#e5e7eb"/>
<text x="62" y="369.00" text-anchor="end" font-family="Arial" font-size="11">0</text>
<line x1="70" y1="300.34" x2="960" y2="300.34" stroke="#e5e7eb"/>
<text x="62" y="304.34" text-anchor="end" font-family="Arial" font-size="11">76</text>
<line x1="70" y1="234.83" x2="960" y2="234.83" stroke="#e5e7eb"/>
<text x="62" y="238.83" text-anchor="end" font-family="Arial" font-size="11">153</text>
<line x1="70" y1="170.17" x2="960" y2="170.17" stroke="#e5e7eb"/>
<text x="62" y="174.17" text-anchor="end" font-family="Arial" font-size="11">229</text>
<line x1="70" y1="104.66" x2="960" y2="104.66" stroke="#e5e7eb"/>
<text x="62" y="108.66" text-anchor="end" font-family="Arial" font-size="11">306</text>
<line x1="70" y1="40.00" x2="960" y2="40.00" stroke="#e5e7eb"/>
<text x="62" y="44.00" text-anchor="end" font-family="Arial" font-size="11">382</text>
<rect x="69.00" y="342.50" width="2" height="22.50" fill="#f97316" opacity="0.35"/>
<rect x="69.76" y="275.00" width="2" height="90.00" fill="#f97316" opacity="0.35"/>
<rect x="70.53" y="342.50" width="2" height="22.50" fill="#f97316" opacity="0.35"/>
<rect x="71.29" y="342.50" width="2" height="22.50" fill="#f97316" opacity="0.35"/>
<rect x="72.06" y="342.50" width="2" height="22.50" fill="#f97316" opacity="0.35"/>
<rect x="72.82" y="320.00" width="2" height="45.00" fill="#f97316" opacity="0.35"/>
<rect x="73.59" y="320.00" width="2" height="45.00" fill="#f97316" opacity="0.35"/>
<rect x="74.35" y="275.00" width="2" height="90.00" fill="#f97316" opacity="0.35"/>
<rect x="75.88" y="297.50" width="2" height="67.50" fill="#f97316" opacity="0.35"/>
<rect x="76.65" y="320.00" width="2" height="45.00" fill="#f97316" opacity="0.35"/>
<rect x="77.41" y="297.50" width="2" height="67.50" fill="#f97316" opacity="0.35"/>
<rect x="78.94" y="320.00" width="2" height="45.00" fill="#f97316" opacity="0.35"/>
<rect x="79.70" y="342.50" width="2" height="22.50" fill="#f97316" opacity="0.35"/>
<rect x="80.47" y="342.50" width="2" height="22.50" fill="#f97316" opacity="0.35"/>
<rect x="81.23" y="320.00" width="2" height="45.00" fill="#f97316" opacity="0.35"/>
<rect x="82.00" y="342.50" width="2" height="22.50" fill="#f97316" opacity="0.35"/>
<rect x="84.29" y="320.00" width="2" height="45.00" fill="#f97316" opacity="0.35"/>
<rect x="85.82" y="297.50" width="2" height="67.50" fill="#f97316" opacity="0.35"/>
<rect x="87.35" y="342.50" width="2" height="22.50" fill="#f97316" opacity="0.35"/>
<rect x="88.12" y="320.00" width="2" height="45.00" fill="#f97316" opacity="0.35"/>
<rect x="88.88" y="342.50" width="2" height="22.50" fill="#f97316" opacity="0.35"/>
<rect x="90.41" y="342.50" width="2" height="22.50" fill="#f97316" opacity="0.35"/>
<rect x="91.17" y="320.00" width="2" height="45.00" fill="#f97316" opacity="0.35"/>
<rect x="94.23" y="297.50" width="2" height="67.50" fill="#f97316" opacity="0.35"/>
<rect x="95.00" y="342.50" width="2" height="22.50" fill="#f97316" opacity="0.35"/>
<rect x="97.29" y="342.50" width="2" height="22.50" fill="#f97316" opacity="0.35"/>
<rect x="98.82" y="342.50" width="2" height="22.50" fill="#f97316" opacity="0.35"/>
<rect x="100.35" y="342.50" width="2" height="22.50" fill="#f97316" opacity="0.35"/>
<rect x="101.11" y="342.50" width="2" height="22.50" fill="#f97316" opacity="0.35"/>
<rect x="103.41" y="320.00" width="2" height="45.00" fill="#f97316" opacity="0.35"/>
<rect x="104.17" y="342.50" width="2" height="22.50" fill="#f97316" opacity="0.35"/>
<rect x="104.94" y="342.50" width="2" height="22.50" fill="#f97316" opacity="0.35"/>
<rect x="105.70" y="297.50" width="2" height="67.50" fill="#f97316" opacity="0.35"/>
<rect x="106.47" y="320.00" width="2" height="45.00" fill="#f97316" opacity="0.35"/>
<rect x="107.23" y="320.00" width="2" height="45.00" fill="#f97316" opacity="0.35"/>
<rect x="107.99" y="342.50" width="2" height="22.50" fill="#f97316" opacity="0.35"/>
<rect x="108.76" y="342.50" width="2" height="22.50" fill="#f97316" opacity="0.35"/>
<rect x="110.29" y="320.00" width="2" height="45.00" fill="#f97316" opacity="0.35"/>
<rect x="112.58" y="342.50" width="2" height="22.50" fill="#f97316" opacity="0.35"/>
<rect x="113.35" y="342.50" width="2" height="22.50" fill="#f97316" opacity="0.35"/>
<rect x="114.88" y="320.00" width="2" height="45.00" fill="#f97316" opacity="0.35"/>
<rect x="115.64" y="342.50" width="2" height="22.50" fill="#f97316" opacity="0.35"/>
<rect x="117.17" y="342.50" width="2" height="22.50" fill="#f97316" opacity="0.35"/>
<rect x="117.93" y="320.00" width="2" height="45.00" fill="#f97316" opacity="0.35"/>
<rect x="119.46" y="342.50" width="2" height="22.50" fill="#f97316" opacity="0.35"/>
<rect x="121.76" y="342.50" width="2" height="22.50" fill="#f97316" opacity="0.35"/>
<rect x="124.05" y="342.50" width="2" height="22.50" fill="#f97316" opacity="0.35"/>
<rect x="124.82" y="320.00" width="2" height="45.00" fill="#f97316" opacity="0.35"/>
<rect x="126.35" y="342.50" width="2" height="22.50" fill="#f97316" opacity="0.35"/>
<rect x="127.11" y="342.50" width="2" height="22.50" fill="#f97316" opacity="0.35"/>
<rect x="128.64" y="320.00" width="2" height="45.00" fill="#f97316" opacity="0.35"/>
<rect x="130.17" y="320.00" width="2" height="45.00" fill="#f97316" opacity="0.35"/>
<rect x="131.70" y="342.50" width="2" height="22.50" fill="#f97316" opacity="0.35"/>
<rect x="133.99" y="320.00" width="2" height="45.00" fill="#f97316" opacity="0.35"/>
<rect x="135.52" y="342.50" width="2" height="22.50" fill="#f97316" opacity="0.35"/>
<rect x="136.29" y="342.50" width="2" height="22.50" fill="#f97316" opacity="0.35"/>
<rect x="137.81" y="320.00" width="2" height="45.00" fill="#f97316" opacity="0.35"/>
<rect x="138.58" y="342.50" width="2" height="22.50" fill="#f97316" opacity="0.35"/>
<rect x="139.34" y="342.50" width="2" height="22.50" fill="#f97316" opacity="0.35"/>
<rect x="141.64" y="320.00" width="2" height="45.00" fill="#f97316" opacity="0.35"/>
<rect x="143.17" y="342.50" width="2" height="22.50" fill="#f97316" opacity="0.35"/>
<rect x="145.46" y="275.00" width="2" height="90.00" fill="#f97316" opacity="0.35"/>
<rect x="146.99" y="342.50" width="2" height="22.50" fill="#f97316" opacity="0.35"/>
<rect x="148.52" y="320.00" width="2" height="45.00" fill="#f97316" opacity="0.35"/>
<rect x="150.81" y="297.50" width="2" height="67.50" fill="#f97316" opacity="0.35"/>
<rect x="153.87" y="342.50" width="2" height="22.50" fill="#f97316" opacity="0.35"/>
<rect x="156.16" y="342.50" width="2" height="22.50" fill="#f97316" opacity="0.35"/>
<rect x="158.46" y="320.00" width="2" height="45.00" fill="#f97316" opacity="0.35"/>
<rect x="160.75" y="342.50" width="2" height="22.50" fill="#f97316" opacity="0.35"/>
<rect x="162.28" y="342.50" width="2" height="22.50" fill="#f97316" opacity="0.35"/>
<rect x="163.81" y="342.50" width="2" height="22.50" fill="#f97316" opacity="0.35"/>
<rect x="165.34" y="342.50" width="2" height="22.50" fill="#f97316" opacity="0.35"/>
<rect x="166.87" y="342.50" width="2" height="22.50" fill="#f97316" opacity="0.35"/>
<rect x="167.63" y="342.50" width="2" height="22.50" fill="#f97316" opacity="0.35"/>
<rect x="169.16" y="342.50" width="2" height="22.50" fill="#f97316" opacity="0.35"/>
<rect x="170.69" y="342.50" width="2" height="22.50" fill="#f97316" opacity="0.35"/>
<rect x="172.22" y="342.50" width="2" height="22.50" fill="#f97316" opacity="0.35"/>
<rect x="174.52" y="342.50" width="2" height="22.50" fill="#f97316" opacity="0.35"/>
<rect x="176.81" y="342.50" width="2" height="22.50" fill="#f97316" opacity="0.35"/>
<rect x="178.34" y="320.00" width="2" height="45.00" fill="#f97316" opacity="0.35"/>
<rect x="181.40" y="320.00" width="2" height="45.00" fill="#f97316" opacity="0.35"/>
<rect x="183.69" y="342.50" width="2" height="22.50" fill="#f97316" opacity="0.35"/>
<rect x="184.46" y="342.50" width="2" height="22.50" fill="#f97316" opacity="0.35"/>
<rect x="186.75" y="320.00" width="2" height="45.00" fill="#f97316" opacity="0.35"/>
<rect x="190.57" y="342.50" width="2" height="22.50" fill="#f97316" opacity="0.35"/>
<rect x="192.87" y="320.00" width="2" height="45.00" fill="#f97316" opacity="0.35"/>
<rect x="194.40" y="342.50" width="2" height="22.50" fill="#f97316" opacity="0.35"/>
<rect x="195.16" y="320.00" width="2" height="45.00" fill="#f97316" opacity="0.35"/>
<rect x="196.69" y="342.50" width="2" height="22.50" fill="#f97316" opacity="0.35"/>
<rect x="197.45" y="342.50" width="2" height="22.50" fill="#f97316" opacity="0.35"/>
<rect x="199.75" y="342.50" width="2" height="22.50" fill="#f97316" opacity="0.35"/>
<rect x="200.51" y="342.50" width="2" height="22.50" fill="#f97316" opacity="0.35"/>
<rect x="201.28" y="297.50" width="2" height="67.50" fill="#f97316" opacity="0.35"/>
<rect x="204.34" y="342.50" width="2" height="22.50" fill="#f97316" opacity="0.35"/>
<rect x="205.10" y="342.50" width="2" height="22.50" fill="#f97316" opacity="0.35"/>
<rect x="205.86" y="342.50" width="2" height="22.50" fill="#f97316" opacity="0.35"/>
<rect x="206.63" y="342.50" width="2" height="22.50" fill="#f97316" opacity="0.35"/>
<rect x="208.16" y="342.50" width="2" height="22.50" fill="#f97316" opacity="0.35"/>
<rect x="211.98" y="297.50" width="2" height="67.50" fill="#f97316" opacity="0.35"/>
<rect x="214.27" y="342.50" width="2" height="22.50" fill="#f97316" opacity="0.35"/>
<rect x="216.57" y="342.50" width="2" height="22.50" fill="#f97316" opacity="0.35"/>
<rect x="218.86" y="342.50" width="2" height="22.50" fill="#f97316" opacity="0.35"/>
<rect x="220.39" y="342.50" width="2" height="22.50" fill="#f97316" opacity="0.35"/>
<rect x="221.16" y="320.00" width="2" height="45.00" fill="#f97316" opacity="0.35"/>
<rect x="224.21" y="342.50" width="2" height="22.50" fill="#f97316" opacity="0.35"/>
<rect x="224.98" y="342.50" width="2" height="22.50" fill="#f97316" opacity="0.35"/>
<rect x="226.51" y="342.50" width="2" height="22.50" fill="#f97316" opacity="0.35"/>
<rect x="228.80" y="342.50" width="2" height="22.50" fill="#f97316" opacity="0.35"/>
<rect x="237.21" y="342.50" width="2" height="22.50" fill="#f97316" opacity="0.35"/>
<rect x="237.98" y="320.00" width="2" height="45.00" fill="#f97316" opacity="0.35"/>
<rect x="244.09" y="342.50" width="2" height="22.50" fill="#f97316" opacity="0.35"/>
<rect x="248.68" y="342.50" width="2" height="22.50" fill="#f97316" opacity="0.35"/>
<rect x="250.21" y="342.50" width="2" height="22.50" fill="#f97316" opacity="0.35"/>
<rect x="251.74" y="320.00" width="2" height="45.00" fill="#f97316" opacity="0.35"/>
<rect x="254.03" y="320.00" width="2" height="45.00" fill="#f97316" opacity="0.35"/>
<rect x="257.09" y="342.50" width="2" height="22.50" fill="#f97316" opacity="0.35"/>
<rect x="260.15" y="297.50" width="2" height="67.50" fill="#f97316" opacity="0.35"/>
<rect x="260.92" y="342.50" width="2" height="22.50" fill="#f97316" opacity="0.35"/>
<rect x="263.97" y="342.50" width="2" height="22.50" fill="#f97316" opacity="0.35"/>
<rect x="265.50" y="320.00" width="2" height="45.00" fill="#f97316" opacity="0.35"/>
<rect x="267.80" y="342.50" width="2" height="22.50" fill="#f97316" opacity="0.35"/>
<rect x="276.21" y="342.50" width="2" height="22.50" fill="#f97316" opacity="0.35"/>
<rect x="280.80" y="342.50" width="2" height="22.50" fill="#f97316" opacity="0.35"/>
<rect x="283.85" y="342.50" width="2" height="22.50" fill="#f97316" opacity="0.35"/>
<rect x="284.62" y="320.00" width="2" height="45.00" fill="#f97316" opacity="0.35"/>
<rect x="286.15" y="342.50" width="2" height="22.50" fill="#f97316" opacity="0.35"/>
<rect x="293.03" y="320.00" width="2" height="45.00" fill="#f97316" opacity="0.35"/>
<rect x="301.44" y="342.50" width="2" height="22.50" fill="#f97316" opacity="0.35"/>
<rect x="306.79" y="320.00" width="2" height="45.00" fill="#f97316" opacity="0.35"/>
<rect x="308.32" y="342.50" width="2" height="22.50" fill="#f97316" opacity="0.35"/>
<rect x="310.62" y="342.50" width="2" height="22.50" fill="#f97316" opacity="0.35"/>
<rect x="316.73" y="342.50" width="2" height="22.50" fill="#f97316" opacity="0.35"/>
<rect x="317.50" y="342.50" width="2" height="22.50" fill="#f97316" opacity="0.35"/>
<rect x="318.26" y="342.50" width="2" height="22.50" fill="#f97316" opacity="0.35"/>
<rect x="319.03" y="342.50" width="2" height="22.50" fill="#f97316" opacity="0.35"/>
<rect x="320.55" y="342.50" width="2" height="22.50" fill="#f97316" opacity="0.35"/>
<rect x="323.61" y="342.50" width="2" height="22.50" fill="#f97316" opacity="0.35"/>
<rect x="325.91" y="342.50" width="2" height="22.50" fill="#f97316" opacity="0.35"/>
<rect x="332.02" y="342.50" width="2" height="22.50" fill="#f97316" opacity="0.35"/>
<rect x="332.79" y="297.50" width="2" height="67.50" fill="#f97316" opacity="0.35"/>
<rect x="335.85" y="342.50" width="2" height="22.50" fill="#f97316" opacity="0.35"/>
<rect x="336.61" y="342.50" width="2" height="22.50" fill="#f97316" opacity="0.35"/>
<rect x="337.38" y="342.50" width="2" height="22.50" fill="#f97316" opacity="0.35"/>
<rect x="338.14" y="342.50" width="2" height="22.50" fill="#f97316" opacity="0.35"/>
<rect x="345.02" y="342.50" width="2" height="22.50" fill="#f97316" opacity="0.35"/>
<rect x="348.85" y="320.00" width="2" height="45.00" fill="#f97316" opacity="0.35"/>
<rect x="349.61" y="342.50" width="2" height="22.50" fill="#f97316" opacity="0.35"/>
<rect x="351.14" y="342.50" width="2" height="22.50" fill="#f97316" opacity="0.35"/>
<rect x="354.96" y="342.50" width="2" height="22.50" fill="#f97316" opacity="0.35"/>
<rect x="356.49" y="342.50" width="2" height="22.50" fill="#f97316" opacity="0.35"/>
<rect x="364.14" y="320.00" width="2" height="45.00" fill="#f97316" opacity="0.35"/>
<rect x="364.90" y="342.50" width="2" height="22.50" fill="#f97316" opacity="0.35"/>
<rect x="365.67" y="342.50" width="2" height="22.50" fill="#f97316" opacity="0.35"/>
<rect x="367.20" y="342.50" width="2" height="22.50" fill="#f97316" opacity="0.35"/>
<rect x="368.73" y="342.50" width="2" height="22.50" fill="#f97316" opacity="0.35"/>
<rect x="370.25" y="342.50" width="2" height="22.50" fill="#f97316" opacity="0.35"/>
<rect x="377.14" y="320.00" width="2" height="45.00" fill="#f97316" opacity="0.35"/>
<rect x="379.43" y="342.50" width="2" height="22.50" fill="#f97316" opacity="0.35"/>
<rect x="382.49" y="342.50" width="2" height="22.50" fill="#f97316" opacity="0.35"/>
<rect x="384.78" y="342.50" width="2" height="22.50" fill="#f97316" opacity="0.35"/>
<rect x="385.55" y="342.50" width="2" height="22.50" fill="#f97316" opacity="0.35"/>
<rect x="394.72" y="342.50" width="2" height="22.50" fill="#f97316" opacity="0.35"/>
<rect x="397.02" y="342.50" width="2" height="22.50" fill="#f97316" opacity="0.35"/>
<rect x="398.54" y="342.50" width="2" height="22.50" fill="#f97316" opacity="0.35"/>
<rect x="402.37" y="342.50" width="2" height="22.50" fill="#f97316" opacity="0.35"/>
<rect x="411.54" y="342.50" width="2" height="22.50" fill="#f97316" opacity="0.35"/>
<rect x="413.07" y="342.50" width="2" height="22.50" fill="#f97316" opacity="0.35"/>
<rect x="417.66" y="342.50" width="2" height="22.50" fill="#f97316" opacity="0.35"/>
<rect x="423.78" y="342.50" width="2" height="22.50" fill="#f97316" opacity="0.35"/>
<rect x="425.31" y="342.50" width="2" height="22.50" fill="#f97316" opacity="0.35"/>
<rect x="433.72" y="342.50" width="2" height="22.50" fill="#f97316" opacity="0.35"/>
<rect x="435.25" y="342.50" width="2" height="22.50" fill="#f97316" opacity="0.35"/>
<rect x="437.54" y="342.50" width="2" height="22.50" fill="#f97316" opacity="0.35"/>
<rect x="445.19" y="320.00" width="2" height="45.00" fill="#f97316" opacity="0.35"/>
<rect x="452.07" y="320.00" width="2" height="45.00" fill="#f97316" opacity="0.35"/>
<rect x="455.13" y="342.50" width="2" height="22.50" fill="#f97316" opacity="0.35"/>
<rect x="457.42" y="342.50" width="2" height="22.50" fill="#f97316" opacity="0.35"/>
<rect x="458.18" y="342.50" width="2" height="22.50" fill="#f97316" opacity="0.35"/>
<rect x="460.48" y="320.00" width="2" height="45.00" fill="#f97316" opacity="0.35"/>
<rect x="464.30" y="342.50" width="2" height="22.50" fill="#f97316" opacity="0.35"/>
<rect x="465.07" y="342.50" width="2" height="22.50" fill="#f97316" opacity="0.35"/>
<rect x="466.59" y="342.50" width="2" height="22.50" fill="#f97316" opacity="0.35"/>
<rect x="468.89" y="342.50" width="2" height="22.50" fill="#f97316" opacity="0.35"/>
<rect x="472.71" y="342.50" width="2" height="22.50" fill="#f97316" opacity="0.35"/>
<rect x="483.42" y="342.50" width="2" height="22.50" fill="#f97316" opacity="0.35"/>
<rect x="488.00" y="320.00" width="2" height="45.00" fill="#f97316" opacity="0.35"/>
<rect x="491.83" y="342.50" width="2" height="22.50" fill="#f97316" opacity="0.35"/>
<rect x="493.36" y="342.50" width="2" height="22.50" fill="#f97316" opacity="0.35"/>
<rect x="494.12" y="320.00" width="2" height="45.00" fill="#f97316" opacity="0.35"/>
<rect x="496.41" y="342.50" width="2" height="22.50" fill="#f97316" opacity="0.35"/>
<rect x="498.71" y="320.00" width="2" height="45.00" fill="#f97316" opacity="0.35"/>
<rect x="501.77" y="342.50" width="2" height="22.50" fill="#f97316" opacity="0.35"/>
<rect x="503.30" y="342.50" width="2" height="22.50" fill="#f97316" opacity="0.35"/>
<rect x="504.06" y="342.50" width="2" height="22.50" fill="#f97316" opacity="0.35"/>
<rect x="509.41" y="342.50" width="2" height="22.50" fill="#f97316" opacity="0.35"/>
<rect x="514.76" y="342.50" width="2" height="22.50" fill="#f97316" opacity="0.35"/>
<rect x="518.59" y="342.50" width="2" height="22.50" fill="#f97316" opacity="0.35"/>
<rect x="520.12" y="342.50" width="2" height="22.50" fill="#f97316" opacity="0.35"/>
<rect x="520.88" y="342.50" width="2" height="22.50" fill="#f97316" opacity="0.35"/>
<rect x="532.35" y="342.50" width="2" height="22.50" fill="#f97316" opacity="0.35"/>
<rect x="534.64" y="342.50" width="2" height="22.50" fill="#f97316" opacity="0.35"/>
<rect x="539.23" y="342.50" width="2" height="22.50" fill="#f97316" opacity="0.35"/>
<rect x="546.11" y="342.50" width="2" height="22.50" fill="#f97316" opacity="0.35"/>
<rect x="546.88" y="342.50" width="2" height="22.50" fill="#f97316" opacity="0.35"/>
<rect x="550.70" y="342.50" width="2" height="22.50" fill="#f97316" opacity="0.35"/>
<rect x="552.99" y="342.50" width="2" height="22.50" fill="#f97316" opacity="0.35"/>
<rect x="554.52" y="342.50" width="2" height="22.50" fill="#f97316" opacity="0.35"/>
<rect x="555.29" y="342.50" width="2" height="22.50" fill="#f97316" opacity="0.35"/>
<rect x="556.82" y="342.50" width="2" height="22.50" fill="#f97316" opacity="0.35"/>
<rect x="557.58" y="342.50" width="2" height="22.50" fill="#f97316" opacity="0.35"/>
<rect x="558.35" y="342.50" width="2" height="22.50" fill="#f97316" opacity="0.35"/>
<rect x="560.64" y="297.50" width="2" height="67.50" fill="#f97316" opacity="0.35"/>
<rect x="561.41" y="342.50" width="2" height="22.50" fill="#f97316" opacity="0.35"/>
<rect x="562.17" y="342.50" width="2" height="22.50" fill="#f97316" opacity="0.35"/>
<rect x="580.52" y="342.50" width="2" height="22.50" fill="#f97316" opacity="0.35"/>
<rect x="582.05" y="342.50" width="2" height="22.50" fill="#f97316" opacity="0.35"/>
<rect x="585.11" y="342.50" width="2" height="22.50" fill="#f97316" opacity="0.35"/>
<rect x="594.28" y="342.50" width="2" height="22.50" fill="#f97316" opacity="0.35"/>
<rect x="595.05" y="342.50" width="2" height="22.50" fill="#f97316" opacity="0.35"/>
<rect x="596.58" y="342.50" width="2" height="22.50" fill="#f97316" opacity="0.35"/>
<rect x="597.34" y="342.50" width="2" height="22.50" fill="#f97316" opacity="0.35"/>
<rect x="601.93" y="342.50" width="2" height="22.50" fill="#f97316" opacity="0.35"/>
<rect x="602.69" y="342.50" width="2" height="22.50" fill="#f97316" opacity="0.35"/>
<rect x="603.46" y="342.50" width="2" height="22.50" fill="#f97316" opacity="0.35"/>
<rect x="605.75" y="342.50" width="2" height="22.50" fill="#f97316" opacity="0.35"/>
<rect x="611.10" y="342.50" width="2" height="22.50" fill="#f97316" opacity="0.35"/>
<rect x="614.16" y="320.00" width="2" height="45.00" fill="#f97316" opacity="0.35"/>
<rect x="625.63" y="342.50" width="2" height="22.50" fill="#f97316" opacity="0.35"/>
<rect x="632.51" y="320.00" width="2" height="45.00" fill="#f97316" opacity="0.35"/>
<rect x="634.04" y="342.50" width="2" height="22.50" fill="#f97316" opacity="0.35"/>
<rect x="637.87" y="342.50" width="2" height="22.50" fill="#f97316" opacity="0.35"/>
<rect x="647.04" y="342.50" width="2" height="22.50" fill="#f97316" opacity="0.35"/>
<rect x="650.10" y="342.50" width="2" height="22.50" fill="#f97316" opacity="0.35"/>
<rect x="653.16" y="342.50" width="2" height="22.50" fill="#f97316" opacity="0.35"/>
<rect x="656.22" y="342.50" width="2" height="22.50" fill="#f97316" opacity="0.35"/>
<rect x="660.80" y="342.50" width="2" height="22.50" fill="#f97316" opacity="0.35"/>
<rect x="664.63" y="342.50" width="2" height="22.50" fill="#f97316" opacity="0.35"/>
<rect x="673.04" y="342.50" width="2" height="22.50" fill="#f97316" opacity="0.35"/>
<rect x="673.80" y="320.00" width="2" height="45.00" fill="#f97316" opacity="0.35"/>
<rect x="682.21" y="342.50" width="2" height="22.50" fill="#f97316" opacity="0.35"/>
<rect x="684.51" y="342.50" width="2" height="22.50" fill="#f97316" opacity="0.35"/>
<rect x="689.86" y="342.50" width="2" height="22.50" fill="#f97316" opacity="0.35"/>
<rect x="691.39" y="342.50" width="2" height="22.50" fill="#f97316" opacity="0.35"/>
<rect x="700.56" y="320.00" width="2" height="45.00" fill="#f97316" opacity="0.35"/>
<rect x="701.33" y="342.50" width="2" height="22.50" fill="#f97316" opacity="0.35"/>
<rect x="702.86" y="342.50" width="2" height="22.50" fill="#f97316" opacity="0.35"/>
<rect x="703.62" y="342.50" width="2" height="22.50" fill="#f97316" opacity="0.35"/>
<rect x="704.39" y="342.50" width="2" height="22.50" fill="#f97316" opacity="0.35"/>
<rect x="708.21" y="320.00" width="2" height="45.00" fill="#f97316" opacity="0.35"/>
<rect x="713.56" y="342.50" width="2" height="22.50" fill="#f97316" opacity="0.35"/>
<rect x="724.27" y="342.50" width="2" height="22.50" fill="#f97316" opacity="0.35"/>
<rect x="726.56" y="342.50" width="2" height="22.50" fill="#f97316" opacity="0.35"/>
<rect x="728.09" y="342.50" width="2" height="22.50" fill="#f97316" opacity="0.35"/>
<rect x="731.91" y="342.50" width="2" height="22.50" fill="#f97316" opacity="0.35"/>
<rect x="734.97" y="320.00" width="2" height="45.00" fill="#f97316" opacity="0.35"/>
<rect x="735.74" y="342.50" width="2" height="22.50" fill="#f97316" opacity="0.35"/>
<rect x="738.03" y="342.50" width="2" height="22.50" fill="#f97316" opacity="0.35"/>
<rect x="741.85" y="342.50" width="2" height="22.50" fill="#f97316" opacity="0.35"/>
<rect x="743.38" y="342.50" width="2" height="22.50" fill="#f97316" opacity="0.35"/>
<rect x="744.91" y="342.50" width="2" height="22.50" fill="#f97316" opacity="0.35"/>
<rect x="745.68" y="342.50" width="2" height="22.50" fill="#f97316" opacity="0.35"/>
<rect x="747.20" y="342.50" width="2" height="22.50" fill="#f97316" opacity="0.35"/>
<rect x="751.79" y="342.50" width="2" height="22.50" fill="#f97316" opacity="0.35"/>
<rect x="763.26" y="342.50" width="2" height="22.50" fill="#f97316" opacity="0.35"/>
<rect x="776.26" y="342.50" width="2" height="22.50" fill="#f97316" opacity="0.35"/>
<rect x="777.79" y="342.50" width="2" height="22.50" fill="#f97316" opacity="0.35"/>
<rect x="779.32" y="342.50" width="2" height="22.50" fill="#f97316" opacity="0.35"/>
<rect x="781.61" y="342.50" width="2" height="22.50" fill="#f97316" opacity="0.35"/>
<rect x="786.96" y="342.50" width="2" height="22.50" fill="#f97316" opacity="0.35"/>
<rect x="795.37" y="342.50" width="2" height="22.50" fill="#f97316" opacity="0.35"/>
<rect x="799.20" y="320.00" width="2" height="45.00" fill="#f97316" opacity="0.35"/>
<rect x="806.84" y="342.50" width="2" height="22.50" fill="#f97316" opacity="0.35"/>
<rect x="807.61" y="342.50" width="2" height="22.50" fill="#f97316" opacity="0.35"/>
<rect x="816.02" y="342.50" width="2" height="22.50" fill="#f97316" opacity="0.35"/>
<rect x="816.78" y="342.50" width="2" height="22.50" fill="#f97316" opacity="0.35"/>
<rect x="819.84" y="342.50" width="2" height="22.50" fill="#f97316" opacity="0.35"/>
<rect x="821.37" y="342.50" width="2" height="22.50" fill="#f97316" opacity="0.35"/>
<rect x="822.14" y="342.50" width="2" height="22.50" fill="#f97316" opacity="0.35"/>
<rect x="822.90" y="342.50" width="2" height="22.50" fill="#f97316" opacity="0.35"/>
<rect x="824.43" y="342.50" width="2" height="22.50" fill="#f97316" opacity="0.35"/>
<rect x="827.49" y="342.50" width="2" height="22.50" fill="#f97316" opacity="0.35"/>
<rect x="843.54" y="342.50" width="2" height="22.50" fill="#f97316" opacity="0.35"/>
<rect x="844.31" y="320.00" width="2" height="45.00" fill="#f97316" opacity="0.35"/>
<rect x="865.72" y="342.50" width="2" height="22.50" fill="#f97316" opacity="0.35"/>
<rect x="877.19" y="342.50" width="2" height="22.50" fill="#f97316" opacity="0.35"/>
<rect x="879.48" y="342.50" width="2" height="22.50" fill="#f97316" opacity="0.35"/>
<rect x="892.48" y="320.00" width="2" height="45.00" fill="#f97316" opacity="0.35"/>
<rect x="913.12" y="342.50" width="2" height="22.50" fill="#f97316" opacity="0.35"/>
<rect x="920.01" y="342.50" width="2" height="22.50" fill="#f97316" opacity="0.35"/>
<rect x="920.77" y="342.50" width="2" height="22.50" fill="#f97316" opacity="0.35"/>
<rect x="942.94" y="342.50" width="2" height="22.50" fill="#f97316" opacity="0.35"/>
<rect x="946.00" y="342.50" width="2" height="22.50" fill="#f97316" opacity="0.35"/>
<rect x="946.77" y="342.50" width="2" height="22.50" fill="#f97316" opacity="0.35"/>
<rect x="950.59" y="342.50" width="2" height="22.50" fill="#f97316" opacity="0.35"/>
<rect x="952.12" y="342.50" width="2" height="22.50" fill="#f97316" opacity="0.35"/>
<rect x="953.65" y="342.50" width="2" height="22.50" fill="#f97316" opacity="0.35"/>
<rect x="958.24" y="342.50" width="2" height="22.50" fill="#f97316" opacity="0.35"/>
<rect x="959.00" y="342.50" width="2" height="22.50" fill="#f97316" opacity="0.35"/>
<polyline points="70.00,364.15 70.76,360.75 71.53,359.90 72.29,359.04 73.06,358.19 73.82,356.49 74.59,354.79 75.35,351.39 76.12,351.39 76.88,348.84 77.65,347.13 78.41,344.58 79.18,344.58 79.94,342.88 80.70,342.03 81.47,341.18 82.23,339.48 83.00,338.63 83.76,338.63 84.53,338.63 85.29,336.92 86.06,336.92 86.82,334.37 87.59,334.37 88.35,333.52 89.12,331.82 89.88,330.97 90.64,330.97 91.41,330.12 92.17,328.42 92.94,328.42 93.70,328.42 94.47,328.42 95.23,325.86 96.00,325.01 96.76,325.01 97.53,325.01 98.29,324.16 99.05,324.16 99.82,323.31 100.58,323.31 101.35,322.46 102.11,321.61 102.88,321.61 103.64,321.61 104.41,319.91 105.17,319.06 105.94,318.21 106.70,315.65 107.47,313.95 108.23,312.25 108.99,311.40 109.76,310.55 110.52,310.55 111.29,308.85 112.05,308.85 112.82,308.85 113.58,308.00 114.35,307.15 115.11,307.15 115.88,305.45 116.64,304.59 117.41,304.59 118.17,303.74 118.93,302.04 119.70,302.04 120.46,301.19 121.23,301.19 121.99,301.19 122.76,300.34 123.52,300.34 124.29,300.34 125.05,299.49 125.82,297.79 126.58,297.79 127.35,296.94 128.11,296.09 128.87,296.09 129.64,294.38 130.40,294.38 131.17,292.68 131.93,292.68 132.70,291.83 133.46,291.83 134.23,291.83 134.99,290.13 135.76,290.13 136.52,289.28 137.29,288.43 138.05,288.43 138.81,286.73 139.58,285.88 140.34,285.03 141.11,285.03 141.87,285.03 142.64,283.32 143.40,283.32 144.17,282.47 144.93,282.47 145.70,282.47 146.46,279.07 147.23,279.07 147.99,278.22 148.75,278.22 149.52,276.52 150.28,276.52 151.05,276.52 151.81,273.97 152.58,273.97 153.34,273.97 154.11,273.97 154.87,273.12 155.64,273.12 156.40,273.12 157.16,272.26 157.93,272.26 158.69,272.26 159.46,270.56 160.22,270.56 160.99,270.56 161.75,269.71 162.52,269.71 163.28,268.86 164.05,268.86 164.81,268.01 165.58,268.01 166.34,267.16 167.10,267.16 167.87,266.31 168.63,265.46 169.40,265.46 170.16,264.61 170.93,264.61 171.69,263.76 172.46,263.76 173.22,262.91 173.99,262.91 174.75,262.91 175.52,262.05 176.28,262.05 177.04,262.05 177.81,261.20 178.57,261.20 179.34,259.50 180.10,259.50 180.87,259.50 181.63,259.50 182.40,257.80 183.16,257.80 183.93,257.80 184.69,256.95 185.46,256.10 186.22,256.10 186.98,256.10 187.75,254.40 188.51,254.40 189.28,254.40 190.04,254.40 190.81,254.40 191.57,253.55 192.34,253.55 193.10,253.55 193.87,251.85 194.63,251.85 195.40,250.99 196.16,249.29 196.92,249.29 197.69,248.44 198.45,247.59 199.22,247.59 199.98,247.59 200.75,246.74 201.51,245.89 202.28,243.34 203.04,243.34 203.81,243.34 204.57,243.34 205.34,242.49 206.10,241.64 206.86,240.79 207.63,239.93 208.39,239.93 209.16,239.08 209.92,239.08 210.69,239.08 211.45,239.08 212.22,239.08 212.98,236.53 213.75,236.53 214.51,236.53 215.27,235.68 216.04,235.68 216.80,235.68 217.57,234.83 218.33,234.83 219.10,234.83 219.86,233.98 220.63,233.98 221.39,233.13 222.16,231.43 222.92,231.43 223.69,231.43 224.45,231.43 225.21,230.58 225.98,229.73 226.74,229.73 227.51,228.87 228.27,228.87 229.04,228.87 229.80,228.02 230.57,228.02 231.33,228.02 232.10,228.02 232.86,228.02 233.63,228.02 234.39,228.02 235.15,228.02 235.92,228.02 236.68,228.02 237.45,228.02 238.21,227.17 238.98,225.47 239.74,225.47 240.51,225.47 241.27,225.47 242.04,225.47 242.80,225.47 243.57,225.47 244.33,225.47 245.09,224.62 245.86,224.62 246.62,224.62 247.39,224.62 248.15,224.62 248.92,224.62 249.68,223.77 250.45,223.77 251.21,222.92 251.98,222.92 252.74,221.22 253.51,221.22 254.27,221.22 255.03,219.52 255.80,219.52 256.56,219.52 257.33,219.52 258.09,218.66 258.86,218.66 259.62,218.66 260.39,218.66 261.15,216.11 261.92,215.26 262.68,215.26 263.45,215.26 264.21,215.26 264.97,214.41 265.74,214.41 266.50,212.71 267.27,212.71 268.03,212.71 268.80,211.86 269.56,211.86 270.33,211.86 271.09,211.86 271.86,211.86 272.62,211.86 273.38,211.86 274.15,211.86 274.91,211.86 275.68,211.86 276.44,211.86 277.21,211.01 277.97,211.01 278.74,211.01 279.50,211.01 280.27,211.01 281.03,211.01 281.80,210.16 282.56,210.16 283.32,210.16 284.09,210.16 284.85,209.31 285.62,207.60 286.38,207.60 287.15,206.75 287.91,206.75 288.68,206.75 289.44,206.75 290.21,206.75 290.97,206.75 291.74,206.75 292.50,206.75 293.26,206.75 294.03,205.05 294.79,205.05 295.56,205.05 296.32,205.05 297.09,205.05 297.85,205.05 298.62,205.05 299.38,205.05 300.15,205.05 300.91,205.05 301.68,205.05 302.44,204.20 303.20,204.20 303.97,204.20 304.73,204.20 305.50,204.20 306.26,204.20 307.03,204.20 307.79,202.50 308.56,202.50 309.32,201.65 310.09,201.65 310.85,201.65 311.62,200.80 312.38,200.80 313.14,200.80 313.91,200.80 314.67,200.80 315.44,200.80 316.20,200.80 316.97,200.80 317.73,199.95 318.50,199.10 319.26,198.25 320.03,197.40 320.79,197.40 321.55,196.54 322.32,196.54 323.08,196.54 323.85,196.54 324.61,195.69 325.38,195.69 326.14,195.69 326.91,194.84 327.67,194.84 328.44,194.84 329.20,194.84 329.97,194.84 330.73,194.84 331.49,194.84 332.26,194.84 333.02,193.99 333.79,191.44 334.55,191.44 335.32,191.44 336.08,191.44 336.85,190.59 337.61,189.74 338.38,188.89 339.14,188.04 339.91,188.04 340.67,188.04 341.43,188.04 342.20,188.04 342.96,188.04 343.73,188.04 344.49,188.04 345.26,188.04 346.02,187.19 346.79,187.19 347.55,187.19 348.32,187.19 349.08,187.19 349.85,185.48 350.61,184.63 351.37,184.63 352.14,183.78 352.90,183.78 353.67,183.78 354.43,183.78 355.20,183.78 355.96,182.93 356.73,182.93 357.49,182.08 358.26,182.08 359.02,182.08 359.79,182.08 360.55,182.08 361.31,182.08 362.08,182.08 362.84,182.08 363.61,182.08 364.37,182.08 365.14,180.38 365.90,179.53 366.67,178.68 367.43,178.68 368.20,177.83 368.96,177.83 369.73,176.98 370.49,176.98 371.25,176.13 372.02,176.13 372.78,176.13 373.55,176.13 374.31,176.13 375.08,176.13 375.84,176.13 376.61,176.13 377.37,176.13 378.14,174.42 378.90,174.42 379.66,174.42 380.43,173.57 381.19,173.57 381.96,173.57 382.72,173.57 383.49,172.72 384.25,172.72 385.02,172.72 385.78,171.87 386.55,171.02 387.31,171.02 388.08,171.02 388.84,171.02 389.60,171.02 390.37,171.02 391.13,171.02 391.90,171.02 392.66,171.02 393.43,171.02 394.19,171.02 394.96,171.02 395.72,170.17 396.49,170.17 397.25,170.17 398.02,169.32 398.78,169.32 399.54,168.47 400.31,168.47 401.07,168.47 401.84,168.47 402.60,168.47 403.37,167.62 404.13,167.62 404.90,167.62 405.66,167.62 406.43,167.62 407.19,167.62 407.96,167.62 408.72,167.62 409.48,167.62 410.25,167.62 411.01,167.62 411.78,167.62 412.54,166.77 413.31,166.77 414.07,165.92 414.84,165.92 415.60,165.92 416.37,165.92 417.13,165.92 417.90,165.92 418.66,165.07 419.42,165.07 420.19,165.07 420.95,165.07 421.72,165.07 422.48,165.07 423.25,165.07 424.01,165.07 424.78,164.21 425.54,164.21 426.31,163.36 427.07,163.36 427.84,163.36 428.60,163.36 429.36,163.36 430.13,163.36 430.89,163.36 431.66,163.36 432.42,163.36 433.19,163.36 433.95,163.36 434.72,162.51 435.48,162.51 436.25,161.66 437.01,161.66 437.77,161.66 438.54,160.81 439.30,160.81 440.07,160.81 440.83,160.81 441.60,160.81 442.36,160.81 443.13,160.81 443.89,160.81 444.66,160.81 445.42,160.81 446.19,159.11 446.95,159.11 447.71,159.11 448.48,159.11 449.24,159.11 450.01,159.11 450.77,159.11 451.54,159.11 452.30,159.11 453.07,157.41 453.83,157.41 454.60,157.41 455.36,157.41 456.13,156.56 456.89,156.56 457.65,156.56 458.42,155.71 459.18,154.86 459.95,154.86 460.71,154.86 461.48,153.15 462.24,153.15 463.01,153.15 463.77,153.15 464.54,153.15 465.30,152.30 466.07,151.45 466.83,151.45 467.59,150.60 468.36,150.60 469.12,150.60 469.89,149.75 470.65,149.75 471.42,149.75 472.18,149.75 472.95,149.75 473.71,148.90 474.48,148.90 475.24,148.90 476.01,148.90 476.77,148.90 477.53,148.90 478.30,148.90 479.06,148.90 479.83,148.90 480.59,148.90 481.36,148.90 482.12,148.90 482.89,148.90 483.65,148.90 484.42,148.05 485.18,148.05 485.95,148.05 486.71,148.05 487.47,148.05 488.24,148.05 489.00,146.35 489.77,146.35 490.53,146.35 491.30,146.35 492.06,146.35 492.83,145.50 493.59,145.50 494.36,144.65 495.12,142.95 495.88,142.95 496.65,142.95 497.41,142.09 498.18,142.09 498.94,142.09 499.71,140.39 500.47,140.39 501.24,140.39 502.00,140.39 502.77,139.54 503.53,139.54 504.30,138.69 505.06,137.84 505.82,137.84 506.59,137.84 507.35,137.84 508.12,137.84 508.88,137.84 509.65,137.84 510.41,136.99 511.18,136.99 511.94,136.99 512.71,136.99 513.47,136.99 514.24,136.99 515.00,136.99 515.76,136.14 516.53,136.14 517.29,136.14 518.06,136.14 518.82,136.14 519.59,135.29 520.35,135.29 521.12,134.44 521.88,133.59 522.65,133.59 523.41,133.59 524.18,133.59 524.94,133.59 525.70,133.59 526.47,133.59 527.23,133.59 528.00,133.59 528.76,133.59 529.53,133.59 530.29,133.59 531.06,133.59 531.82,133.59 532.59,133.59 533.35,132.74 534.12,132.74 534.88,132.74 535.64,131.88 536.41,131.88 537.17,131.88 537.94,131.88 538.70,131.88 539.47,131.88 540.23,131.03 541.00,131.03 541.76,131.03 542.53,131.03 543.29,131.03 544.05,131.03 544.82,131.03 545.58,131.03 546.35,131.03 547.11,130.18 547.88,129.33 548.64,129.33 549.41,129.33 550.17,129.33 550.94,129.33 551.70,128.48 552.47,128.48 553.23,128.48 553.99,127.63 554.76,127.63 555.52,126.78 556.29,125.93 557.05,125.93 557.82,125.08 558.58,124.23 559.35,123.38 560.11,123.38 560.88,123.38 561.64,120.82 562.41,119.97 563.17,119.12 563.93,119.12 564.70,119.12 565.46,119.12 566.23,119.12 566.99,119.12 567.76,119.12 568.52,119.12 569.29,119.12 570.05,119.12 570.82,119.12 571.58,119.12 572.35,119.12 573.11,119.12 573.87,119.12 574.64,119.12 575.40,119.12 576.17,119.12 576.93,119.12 577.70,119.12 578.46,119.12 579.23,119.12 579.99,119.12 580.76,119.12 581.52,118.27 582.29,118.27 583.05,117.42 583.81,117.42 584.58,117.42 585.34,117.42 586.11,116.57 586.87,116.57 587.64,116.57 588.40,116.57 589.17,116.57 589.93,116.57 590.70,116.57 591.46,116.57 592.23,116.57 592.99,116.57 593.75,116.57 594.52,116.57 595.28,115.72 596.05,114.87 596.81,114.87 597.58,114.02 598.34,113.17 599.11,113.17 599.87,113.17 600.64,113.17 601.40,113.17 602.16,113.17 602.93,112.32 603.69,111.47 604.46,110.62 605.22,110.62 605.99,110.62 606.75,109.76 607.52,109.76 608.28,109.76 609.05,109.76 609.81,109.76 610.58,109.76 611.34,109.76 612.10,108.91 612.87,108.91 613.63,108.91 614.40,108.91 615.16,107.21 615.93,107.21 616.69,107.21 617.46,107.21 618.22,107.21 618.99,107.21 619.75,107.21 620.52,107.21 621.28,107.21 622.04,107.21 622.81,107.21 623.57,107.21 624.34,107.21 625.10,107.21 625.87,107.21 626.63,106.36 627.40,106.36 628.16,106.36 628.93,106.36 629.69,106.36 630.46,106.36 631.22,106.36 631.98,106.36 632.75,106.36 633.51,104.66 634.28,104.66 635.04,103.81 635.81,103.81 636.57,103.81 637.34,103.81 638.10,103.81 638.87,102.96 639.63,102.96 640.40,102.96 641.16,102.96 641.92,102.96 642.69,102.96 643.45,102.96 644.22,102.96 644.98,102.96 645.75,102.96 646.51,102.96 647.28,102.96 648.04,102.11 648.81,102.11 649.57,102.11 650.34,102.11 651.10,101.26 651.86,101.26 652.63,101.26 653.39,101.26 654.16,100.41 654.92,100.41 655.69,100.41 656.45,100.41 657.22,99.55 657.98,99.55 658.75,99.55 659.51,99.55 660.27,99.55 661.04,99.55 661.80,98.70 662.57,98.70 663.33,98.70 664.10,98.70 664.86,98.70 665.63,97.85 666.39,97.85 667.16,97.85 667.92,97.85 668.69,97.85 669.45,97.85 670.21,97.85 670.98,97.85 671.74,97.85 672.51,97.85 673.27,97.85 674.04,97.00 674.80,95.30 675.57,95.30 676.33,95.30 677.10,95.30 677.86,95.30 678.63,95.30 679.39,95.30 680.15,95.30 680.92,95.30 681.68,95.30 682.45,95.30 683.21,94.45 683.98,94.45 684.74,94.45 685.51,93.60 686.27,93.60 687.04,93.60 687.80,93.60 688.57,93.60 689.33,93.60 690.09,93.60 690.86,92.75 691.62,92.75 692.39,91.90 693.15,91.90 693.92,91.90 694.68,91.90 695.45,91.90 696.21,91.90 696.98,91.90 697.74,91.90 698.51,91.90 699.27,91.90 700.03,91.90 700.80,91.90 701.56,90.20 702.33,89.35 703.09,89.35 703.86,88.49 704.62,87.64 705.39,86.79 706.15,86.79 706.92,86.79 707.68,86.79 708.45,86.79 709.21,85.09 709.97,85.09 710.74,85.09 711.50,85.09 712.27,85.09 713.03,85.09 713.80,85.09 714.56,84.24 715.33,84.24 716.09,84.24 716.86,84.24 717.62,84.24 718.38,84.24 719.15,84.24 719.91,84.24 720.68,84.24 721.44,84.24 722.21,84.24 722.97,84.24 723.74,84.24 724.50,84.24 725.27,83.39 726.03,83.39 726.80,83.39 727.56,82.54 728.32,82.54 729.09,81.69 729.85,81.69 730.62,81.69 731.38,81.69 732.15,81.69 732.91,80.84 733.68,80.84 734.44,80.84 735.21,80.84 735.97,79.14 736.74,78.29 737.50,78.29 738.26,78.29 739.03,77.43 739.79,77.43 740.56,77.43 741.32,77.43 742.09,77.43 742.85,76.58 743.62,76.58 744.38,75.73 745.15,75.73 745.91,74.88 746.68,74.03 747.44,74.03 748.20,73.18 748.97,73.18 749.73,73.18 750.50,73.18 751.26,73.18 752.03,73.18 752.79,72.33 753.56,72.33 754.32,72.33 755.09,72.33 755.85,72.33 756.62,72.33 757.38,72.33 758.14,72.33 758.91,72.33 759.67,72.33 760.44,72.33 761.20,72.33 761.97,72.33 762.73,72.33 763.50,72.33 764.26,71.48 765.03,71.48 765.79,71.48 766.55,71.48 767.32,71.48 768.08,71.48 768.85,71.48 769.61,71.48 770.38,71.48 771.14,71.48 771.91,71.48 772.67,71.48 773.44,71.48 774.20,71.48 774.97,71.48 775.73,71.48 776.49,71.48 777.26,70.63 778.02,70.63 778.79,69.78 779.55,69.78 780.32,68.93 781.08,68.93 781.85,68.93 782.61,68.08 783.38,68.08 784.14,68.08 784.91,68.08 785.67,68.08 786.43,68.08 787.20,68.08 787.96,67.23 788.73,67.23 789.49,67.23 790.26,67.23 791.02,67.23 791.79,67.23 792.55,67.23 793.32,67.23 794.08,67.23 794.85,67.23 795.61,67.23 796.37,66.37 797.14,66.37 797.90,66.37 798.67,66.37 799.43,66.37 800.20,64.67 800.96,64.67 801.73,64.67 802.49,64.67 803.26,64.67 804.02,64.67 804.79,64.67 805.55,64.67 806.31,64.67 807.08,64.67 807.84,63.82 808.61,62.97 809.37,62.97 810.14,62.97 810.90,62.97 811.67,62.97 812.43,62.97 813.20,62.97 813.96,62.97 814.73,62.97 815.49,62.97 816.25,62.97 817.02,62.12 817.78,61.27 818.55,61.27 819.31,61.27 820.08,61.27 820.84,60.42 821.61,60.42 822.37,59.57 823.14,58.72 823.90,57.87 824.66,57.87 825.43,57.02 826.19,57.02 826.96,57.02 827.72,57.02 828.49,56.16 829.25,56.16 830.02,56.16 830.78,56.16 831.55,56.16 832.31,56.16 833.08,56.16 833.84,56.16 834.60,56.16 835.37,56.16 836.13,56.16 836.90,56.16 837.66,56.16 838.43,56.16 839.19,56.16 839.96,56.16 840.72,56.16 841.49,56.16 842.25,56.16 843.02,56.16 843.78,56.16 844.54,55.31 845.31,53.61 846.07,53.61 846.84,53.61 847.60,53.61 848.37,53.61 849.13,53.61 849.90,53.61 850.66,53.61 851.43,53.61 852.19,53.61 852.96,53.61 853.72,53.61 854.48,53.61 855.25,53.61 856.01,53.61 856.78,53.61 857.54,53.61 858.31,53.61 859.07,53.61 859.84,53.61 860.60,53.61 861.37,53.61 862.13,53.61 862.90,53.61 863.66,53.61 864.42,53.61 865.19,53.61 865.95,53.61 866.72,52.76 867.48,52.76 868.25,52.76 869.01,52.76 869.78,52.76 870.54,52.76 871.31,52.76 872.07,52.76 872.84,52.76 873.60,52.76 874.36,52.76 875.13,52.76 875.89,52.76 876.66,52.76 877.42,52.76 878.19,51.91 878.95,51.91 879.72,51.91 880.48,51.06 881.25,51.06 882.01,51.06 882.77,51.06 883.54,51.06 884.30,51.06 885.07,51.06 885.83,51.06 886.60,51.06 887.36,51.06 888.13,51.06 888.89,51.06 889.66,51.06 890.42,51.06 891.19,51.06 891.95,51.06 892.71,51.06 893.48,49.36 894.24,49.36 895.01,49.36 895.77,49.36 896.54,49.36 897.30,49.36 898.07,49.36 898.83,49.36 899.60,49.36 900.36,49.36 901.13,49.36 901.89,49.36 902.65,49.36 903.42,49.36 904.18,49.36 904.95,49.36 905.71,49.36 906.48,49.36 907.24,49.36 908.01,49.36 908.77,49.36 909.54,49.36 910.30,49.36 911.07,49.36 911.83,49.36 912.59,49.36 913.36,49.36 914.12,48.51 914.89,48.51 915.65,48.51 916.42,48.51 917.18,48.51 917.95,48.51 918.71,48.51 919.48,48.51 920.24,48.51 921.01,47.66 921.77,46.81 922.53,46.81 923.30,46.81 924.06,46.81 924.83,46.81 925.59,46.81 926.36,46.81 927.12,46.81 927.89,46.81 928.65,46.81 929.42,46.81 930.18,46.81 930.95,46.81 931.71,46.81 932.47,46.81 933.24,46.81 934.00,46.81 934.77,46.81 935.53,46.81 936.30,46.81 937.06,46.81 937.83,46.81 938.59,46.81 939.36,46.81 940.12,46.81 940.88,46.81 941.65,46.81 942.41,46.81 943.18,46.81 943.94,45.96 944.71,45.96 945.47,45.96 946.24,45.96 947.00,45.10 947.77,44.25 948.53,44.25 949.30,44.25 950.06,44.25 950.82,44.25 951.59,43.40 952.35,43.40 953.12,42.55 953.88,42.55 954.65,41.70 955.41,41.70 956.18,41.70 956.94,41.70 957.71,41.70 958.47,41.70 959.24,40.85 960.00,40.00" fill="none" stroke="#2563eb" stroke-width="2"/>
<text x="78" y="58" font-family="Arial" font-size="12" fill="#2563eb">blue: cumulative relations</text>
<text x="78" y="76" font-family="Arial" font-size="12" fill="#ea580c">orange bars: new relations at idx</text>
</svg>