<svg xmlns="http://www.w3.org/2000/svg" width="1000" height="430" viewBox="0 0 1000 430">
<rect width="100%" height="100%" fill="white"/>
<text x="500.0" y="24" text-anchor="middle" font-family="Arial" font-size="18" font-weight="700">Growth Curve: case3_name_detail</text>
<line x1="70" y1="365" x2="960" y2="365" stroke="#111827"/>
<line x1="70" y1="40" x2="70" y2="365" stroke="#111827"/>
<text x="515.0" y="412" text-anchor="middle" font-family="Arial" font-size="13">sample idx</text>
<line x1="70" y1="365.00" x2="960" y2="365.00" stroke="#e5e7eb"/>
<text x="62" y="369.00" text-anchor="end" font-family="Arial" font-size="11">0</text>
<line x1="70" y1="300.25" x2="960" y2="300.25" stroke="#e5e7eb"/>
<text x="62" y="304.25" text-anchor="end" font-family="Arial" font-size="11">105</text>
<line x1="70" y1="234.88" x2="960" y2="234.88" stroke="#e5e7eb"/>
<text x="62" y="238.88" text-anchor="end" font-family="Arial" font-size="11">211</text>
<line x1="70" y1="170.12" x2="960" y2="170.12" stroke="#e5e7eb"/>
<text x="62" y="174.12" text-anchor="end" font-family="Arial" font-size="11">316</text>
<line x1="70" y1="104.75" x2="960" y2="104.75" stroke="#e5e7eb"/>
<text x="62" y="108.75" text-anchor="end" font-family="Arial" font-size="11">422</text>
<line x1="70" y1="40.00" x2="960" y2="40.00" stroke="#e5e7eb"/>
<text x="62" y="44.00" text-anchor="end" font-family="Arial" font-size="11">527</text>
<rect x="69.00" y="350.00" width="2" height="15.00" fill="#f97316" opacity="0.35"/>
<rect x="69.76" y="275.00" width="2" height="90.00" fill="#f97316" opacity="0.35"/>
<rect x="70.53" y="335.00" width="2" height="30.00" fill="#f97316" opacity="0.35"/>
<rect x="71.29" y="305.00" width="2" height="60.00" fill="#f97316" opacity="0.35"/>
<rect x="72.06" y="320.00" width="2" height="45.00" fill="#f97316" opacity="0.35"/>
<rect x="72.82" y="335.00" width="2" height="30.00" fill="#f97316" opacity="0.35"/>
<rect x="73.59" y="320.00" width="2" height="45.00" fill="#f97316" opacity="0.35"/>
<rect x="74.35" y="290.00" width="2" height="75.00" fill="#f97316" opacity="0.35"/>
<rect x="76.65" y="350.00" width="2" height="15.00" fill="#f97316" opacity="0.35"/>
<rect x="77.41" y="320.00" width="2" height="45.00" fill="#f97316" opacity="0.35"/>
<rect x="78.94" y="320.00" width="2" height="45.00" fill="#f97316" opacity="0.35"/>
<rect x="79.70" y="350.00" width="2" height="15.00" fill="#f97316" opacity="0.35"/>
<rect x="80.47" y="335.00" width="2" height="30.00" fill="#f97316" opacity="0.35"/>
<rect x="81.23" y="320.00" width="2" height="45.00" fill="#f97316" opacity="0.35"/>
<rect x="82.00" y="350.00" width="2" height="15.00" fill="#f97316" opacity="0.35"/>
<rect x="83.53" y="320.00" width="2" height="45.00" fill="#f97316" opacity="0.35"/>
<rect x="84.29" y="335.00" width="2" height="30.00" fill="#f97316" opacity="0.35"/>
<rect x="85.82" y="320.00" width="2" height="45.00" fill="#f97316" opacity="0.35"/>
<rect x="87.35" y="320.00" width="2" height="45.00" fill="#f97316" opacity="0.35"/>
<rect x="88.12" y="335.00" width="2" height="30.00" fill="#f97316" opacity="0.35"/>
<rect x="88.88" y="350.00" width="2" height="15.00" fill="#f97316" opacity="0.35"/>
<rect x="89.64" y="335.00" width="2" height="30.00" fill="#f97316" opacity="0.35"/>
<rect x="90.41" y="320.00" width="2" height="45.00" fill="#f97316" opacity="0.35"/>
<rect x="91.17" y="335.00" width="2" height="30.00" fill="#f97316" opacity="0.35"/>
<rect x="91.94" y="320.00" width="2" height="45.00" fill="#f97316" opacity="0.35"/>
<rect x="92.70" y="350.00" width="2" height="15.00" fill="#f97316" opacity="0.35"/>
<rect x="94.23" y="275.00" width="2" height="90.00" fill="#f97316" opacity="0.35"/>
<rect x="95.00" y="350.00" width="2" height="15.00" fill="#f97316" opacity="0.35"/>
<rect x="96.53" y="350.00" width="2" height="15.00" fill="#f97316" opacity="0.35"/>
<rect x="98.05" y="350.00" width="2" height="15.00" fill="#f97316" opacity="0.35"/>
<rect x="98.82" y="320.00" width="2" height="45.00" fill="#f97316" opacity="0.35"/>
<rect x="99.58" y="335.00" width="2" height="30.00" fill="#f97316" opacity="0.35"/>
<rect x="100.35" y="335.00" width="2" height="30.00" fill="#f97316" opacity="0.35"/>
<rect x="101.11" y="335.00" width="2" height="30.00" fill="#f97316" opacity="0.35"/>
<rect x="104.17" y="350.00" width="2" height="15.00" fill="#f97316" opacity="0.35"/>
<rect x="104.94" y="335.00" width="2" height="30.00" fill="#f97316" opacity="0.35"/>
<rect x="105.70" y="305.00" width="2" height="60.00" fill="#f97316" opacity="0.35"/>
<rect x="106.47" y="350.00" width="2" height="15.00" fill="#f97316" opacity="0.35"/>
<rect x="107.23" y="335.00" width="2" height="30.00" fill="#f97316" opacity="0.35"/>
<rect x="107.99" y="335.00" width="2" height="30.00" fill="#f97316" opacity="0.35"/>
<rect x="108.76" y="350.00" width="2" height="15.00" fill="#f97316" opacity="0.35"/>
<rect x="109.52" y="335.00" width="2" height="30.00" fill="#f97316" opacity="0.35"/>
<rect x="111.82" y="335.00" width="2" height="30.00" fill="#f97316" opacity="0.35"/>
<rect x="113.35" y="350.00" width="2" height="15.00" fill="#f97316" opacity="0.35"/>
<rect x="114.88" y="335.00" width="2" height="30.00" fill="#f97316" opacity="0.35"/>
<rect x="115.64" y="350.00" width="2" height="15.00" fill="#f97316" opacity="0.35"/>
<rect x="116.41" y="350.00" width="2" height="15.00" fill="#f97316" opacity="0.35"/>
<rect x="117.17" y="350.00" width="2" height="15.00" fill="#f97316" opacity="0.35"/>
<rect x="117.93" y="350.00" width="2" height="15.00" fill="#f97316" opacity="0.35"/>
<rect x="119.46" y="305.00" width="2" height="60.00" fill="#f97316" opacity="0.35"/>
<rect x="120.23" y="350.00" width="2" height="15.00" fill="#f97316" opacity="0.35"/>
<rect x="121.76" y="350.00" width="2" height="15.00" fill="#f97316" opacity="0.35"/>
<rect x="122.52" y="350.00" width="2" height="15.00" fill="#f97316" opacity="0.35"/>
<rect x="124.05" y="335.00" width="2" height="30.00" fill="#f97316" opacity="0.35"/>
<rect x="124.82" y="335.00" width="2" height="30.00" fill="#f97316" opacity="0.35"/>
<rect x="125.58" y="350.00" width="2" height="15.00" fill="#f97316" opacity="0.35"/>
<rect x="127.11" y="335.00" width="2" height="30.00" fill="#f97316" opacity="0.35"/>
<rect x="128.64" y="350.00" width="2" height="15.00" fill="#f97316" opacity="0.35"/>
<rect x="131.70" y="335.00" width="2" height="30.00" fill="#f97316" opacity="0.35"/>
<rect x="132.46" y="350.00" width="2" height="15.00" fill="#f97316" opacity="0.35"/>
<rect x="133.99" y="335.00" width="2" height="30.00" fill="#f97316" opacity="0.35"/>
<rect x="136.29" y="320.00" width="2" height="45.00" fill="#f97316" opacity="0.35"/>
<rect x="137.81" y="320.00" width="2" height="45.00" fill="#f97316" opacity="0.35"/>
<rect x="138.58" y="320.00" width="2" height="45.00" fill="#f97316" opacity="0.35"/>
<rect x="140.11" y="350.00" width="2" height="15.00" fill="#f97316" opacity="0.35"/>
<rect x="141.64" y="350.00" width="2" height="15.00" fill="#f97316" opacity="0.35"/>
<rect x="143.17" y="350.00" width="2" height="15.00" fill="#f97316" opacity="0.35"/>
<rect x="144.70" y="350.00" width="2" height="15.00" fill="#f97316" opacity="0.35"/>
<rect x="145.46" y="335.00" width="2" height="30.00" fill="#f97316" opacity="0.35"/>
<rect x="146.23" y="350.00" width="2" height="15.00" fill="#f97316" opacity="0.35"/>
<rect x="147.75" y="350.00" width="2" height="15.00" fill="#f97316" opacity="0.35"/>
<rect x="148.52" y="335.00" width="2" height="30.00" fill="#f97316" opacity="0.35"/>
<rect x="149.28" y="350.00" width="2" height="15.00" fill="#f97316" opacity="0.35"/>
<rect x="150.81" y="350.00" width="2" height="15.00" fill="#f97316" opacity="0.35"/>
<rect x="151.58" y="335.00" width="2" height="30.00" fill="#f97316" opacity="0.35"/>
<rect x="152.34" y="350.00" width="2" height="15.00" fill="#f97316" opacity="0.35"/>
<rect x="153.11" y="350.00" width="2" height="15.00" fill="#f97316" opacity="0.35"/>
<rect x="153.87" y="320.00" width="2" height="45.00" fill="#f97316" opacity="0.35"/>
<rect x="154.64" y="320.00" width="2" height="45.00" fill="#f97316" opacity="0.35"/>
<rect x="155.40" y="350.00" width="2" height="15.00" fill="#f97316" opacity="0.35"/>
<rect x="156.16" y="320.00" width="2" height="45.00" fill="#f97316" opacity="0.35"/>
<rect x="158.46" y="350.00" width="2" height="15.00" fill="#f97316" opacity="0.35"/>
<rect x="159.22" y="350.00" width="2" height="15.00" fill="#f97316" opacity="0.35"/>
<rect x="160.75" y="350.00" width="2" height="15.00" fill="#f97316" opacity="0.35"/>
<rect x="162.28" y="350.00" width="2" height="15.00" fill="#f97316" opacity="0.35"/>
<rect x="163.81" y="350.00" width="2" height="15.00" fill="#f97316" opacity="0.35"/>
<rect x="166.87" y="335.00" width="2" height="30.00" fill="#f97316" opacity="0.35"/>
<rect x="169.16" y="320.00" width="2" height="45.00" fill="#f97316" opacity="0.35"/>
<rect x="169.93" y="350.00" width="2" height="15.00" fill="#f97316" opacity="0.35"/>
<rect x="170.69" y="350.00" width="2" height="15.00" fill="#f97316" opacity="0.35"/>
<rect x="172.99" y="350.00" width="2" height="15.00" fill="#f97316" opacity="0.35"/>
<rect x="173.75" y="350.00" width="2" height="15.00" fill="#f97316" opacity="0.35"/>
<rect x="174.52" y="335.00" width="2" height="30.00" fill="#f97316" opacity="0.35"/>
<rect x="176.81" y="350.00" width="2" height="15.00" fill="#f97316" opacity="0.35"/>
<rect x="178.34" y="350.00" width="2" height="15.00" fill="#f97316" opacity="0.35"/>
<rect x="180.63" y="320.00" width="2" height="45.00" fill="#f97316" opacity="0.35"/>
<rect x="181.40" y="350.00" width="2" height="15.00" fill="#f97316" opacity="0.35"/>
<rect x="182.93" y="350.00" width="2" height="15.00" fill="#f97316" opacity="0.35"/>
<rect x="184.46" y="350.00" width="2" height="15.00" fill="#f97316" opacity="0.35"/>
<rect x="185.22" y="350.00" width="2" height="15.00" fill="#f97316" opacity="0.35"/>
<rect x="186.75" y="290.00" width="2" height="75.00" fill="#f97316" opacity="0.35"/>
<rect x="188.28" y="350.00" width="2" height="15.00" fill="#f97316" opacity="0.35"/>
<rect x="192.87" y="335.00" width="2" height="30.00" fill="#f97316" opacity="0.35"/>
<rect x="195.16" y="320.00" width="2" height="45.00" fill="#f97316" opacity="0.35"/>
<rect x="196.69" y="335.00" width="2" height="30.00" fill="#f97316" opacity="0.35"/>
<rect x="199.75" y="335.00" width="2" height="30.00" fill="#f97316" opacity="0.35"/>
<rect x="200.51" y="350.00" width="2" height="15.00" fill="#f97316" opacity="0.35"/>
<rect x="201.28" y="335.00" width="2" height="30.00" fill="#f97316" opacity="0.35"/>
<rect x="202.04" y="350.00" width="2" height="15.00" fill="#f97316" opacity="0.35"/>
<rect x="205.86" y="335.00" width="2" height="30.00" fill="#f97316" opacity="0.35"/>
<rect x="208.16" y="335.00" width="2" height="30.00" fill="#f97316" opacity="0.35"/>
<rect x="208.92" y="350.00" width="2" height="15.00" fill="#f97316" opacity="0.35"/>
<rect x="210.45" y="350.00" width="2" height="15.00" fill="#f97316" opacity="0.35"/>
<rect x="211.98" y="320.00" width="2" height="45.00" fill="#f97316" opacity="0.35"/>
<rect x="213.51" y="335.00" width="2" height="30.00" fill="#f97316" opacity="0.35"/>
<rect x="214.27" y="350.00" width="2" height="15.00" fill="#f97316" opacity="0.35"/>
<rect x="215.80" y="320.00" width="2" height="45.00" fill="#f97316" opacity="0.35"/>
<rect x="216.57" y="350.00" width="2" height="15.00" fill="#f97316" opacity="0.35"/>
<rect x="218.86" y="350.00" width="2" height="15.00" fill="#f97316" opacity="0.35"/>
<rect x="220.39" y="350.00" width="2" height="15.00" fill="#f97316" opacity="0.35"/>
<rect x="221.16" y="320.00" width="2" height="45.00" fill="#f97316" opacity="0.35"/>
<rect x="221.92" y="350.00" width="2" height="15.00" fill="#f97316" opacity="0.35"/>
<rect x="224.21" y="350.00" width="2" height="15.00" fill="#f97316" opacity="0.35"/>
<rect x="228.04" y="350.00" width="2" height="15.00" fill="#f97316" opacity="0.35"/>
<rect x="234.92" y="335.00" width="2" height="30.00" fill="#f97316" opacity="0.35"/>
<rect x="237.98" y="335.00" width="2" height="30.00" fill="#f97316" opacity="0.35"/>
<rect x="241.04" y="350.00" width="2" height="15.00" fill="#f97316" opacity="0.35"/>
<rect x="253.27" y="350.00" width="2" height="15.00" fill="#f97316" opacity="0.35"/>
<rect x="254.03" y="335.00" width="2" height="30.00" fill="#f97316" opacity="0.35"/>
<rect x="257.09" y="350.00" width="2" height="15.00" fill="#f97316" opacity="0.35"/>
<rect x="257.86" y="350.00" width="2" height="15.00" fill="#f97316" opacity="0.35"/>
<rect x="259.39" y="350.00" width="2" height="15.00" fill="#f97316" opacity="0.35"/>
<rect x="260.15" y="335.00" width="2" height="30.00" fill="#f97316" opacity="0.35"/>
<rect x="260.92" y="350.00" width="2" height="15.00" fill="#f97316" opacity="0.35"/>
<rect x="262.45" y="335.00" width="2" height="30.00" fill="#f97316" opacity="0.35"/>
<rect x="265.50" y="350.00" width="2" height="15.00" fill="#f97316" opacity="0.35"/>
<rect x="267.80" y="350.00" width="2" height="15.00" fill="#f97316" opacity="0.35"/>
<rect x="274.68" y="350.00" width="2" height="15.00" fill="#f97316" opacity="0.35"/>
<rect x="277.74" y="350.00" width="2" height="15.00" fill="#f97316" opacity="0.35"/>
<rect x="281.56" y="350.00" width="2" height="15.00" fill="#f97316" opacity="0.35"/>
<rect x="283.09" y="350.00" width="2" height="15.00" fill="#f97316" opacity="0.35"/>
<rect x="283.85" y="335.00" width="2" height="30.00" fill="#f97316" opacity="0.35"/>
<rect x="284.62" y="350.00" width="2" height="15.00" fill="#f97316" opacity="0.35"/>
<rect x="286.15" y="320.00" width="2" height="45.00" fill="#f97316" opacity="0.35"/>
<rect x="293.03" y="335.00" width="2" height="30.00" fill="#f97316" opacity="0.35"/>
<rect x="294.56" y="350.00" width="2" height="15.00" fill="#f97316" opacity="0.35"/>
<rect x="295.32" y="350.00" width="2" height="15.00" fill="#f97316" opacity="0.35"/>
<rect x="300.68" y="350.00" width="2" height="15.00" fill="#f97316" opacity="0.35"/>
<rect x="302.20" y="350.00" width="2" height="15.00" fill="#f97316" opacity="0.35"/>
<rect x="303.73" y="350.00" width="2" height="15.00" fill="#f97316" opacity="0.35"/>
<rect x="306.79" y="335.00" width="2" height="30.00" fill="#f97316" opacity="0.35"/>
<rect x="312.14" y="350.00" width="2" height="15.00" fill="#f97316" opacity="0.35"/>
<rect x="317.50" y="350.00" width="2" height="15.00" fill="#f97316" opacity="0.35"/>
<rect x="318.26" y="335.00" width="2" height="30.00" fill="#f97316" opacity="0.35"/>
<rect x="320.55" y="350.00" width="2" height="15.00" fill="#f97316" opacity="0.35"/>
<rect x="322.85" y="335.00" width="2" height="30.00" fill="#f97316" opacity="0.35"/>
<rect x="326.67" y="350.00" width="2" height="15.00" fill="#f97316" opacity="0.35"/>
<rect x="328.97" y="350.00" width="2" height="15.00" fill="#f97316" opacity="0.35"/>
<rect x="331.26" y="350.00" width="2" height="15.00" fill="#f97316" opacity="0.35"/>
<rect x="332.02" y="350.00" width="2" height="15.00" fill="#f97316" opacity="0.35"/>
<rect x="332.79" y="335.00" width="2" height="30.00" fill="#f97316" opacity="0.35"/>
<rect x="335.85" y="350.00" width="2" height="15.00" fill="#f97316" opacity="0.35"/>
<rect x="336.61" y="350.00" width="2" height="15.00" fill="#f97316" opacity="0.35"/>
<rect x="337.38" y="350.00" width="2" height="15.00" fill="#f97316" opacity="0.35"/>
<rect x="338.14" y="350.00" width="2" height="15.00" fill="#f97316" opacity="0.35"/>
<rect x="338.91" y="350.00" width="2" height="15.00" fill="#f97316" opacity="0.35"/>
<rect x="339.67" y="350.00" width="2" height="15.00" fill="#f97316" opacity="0.35"/>
<rect x="340.43" y="350.00" width="2" height="15.00" fill="#f97316" opacity="0.35"/>
<rect x="341.20" y="350.00" width="2" height="15.00" fill="#f97316" opacity="0.35"/>
<rect x="341.96" y="350.00" width="2" height="15.00" fill="#f97316" opacity="0.35"/>
<rect x="345.02" y="350.00" width="2" height="15.00" fill="#f97316" opacity="0.35"/>
<rect x="347.32" y="350.00" width="2" height="15.00" fill="#f97316" opacity="0.35"/>
<rect x="348.08" y="350.00" width="2" height="15.00" fill="#f97316" opacity="0.35"/>
<rect x="348.85" y="350.00" width="2" height="15.00" fill="#f97316" opacity="0.35"/>
<rect x="349.61" y="350.00" width="2" height="15.00" fill="#f97316" opacity="0.35"/>
<rect x="351.14" y="350.00" width="2" height="15.00" fill="#f97316" opacity="0.35"/>
<rect x="354.96" y="350.00" width="2" height="15.00" fill="#f97316" opacity="0.35"/>
<rect x="355.73" y="350.00" width="2" height="15.00" fill="#f97316" opacity="0.35"/>
<rect x="356.49" y="335.00" width="2" height="30.00" fill="#f97316" opacity="0.35"/>
<rect x="358.79" y="350.00" width="2" height="15.00" fill="#f97316" opacity="0.35"/>
<rect x="362.61" y="350.00" width="2" height="15.00" fill="#f97316" opacity="0.35"/>
<rect x="364.14" y="350.00" width="2" height="15.00" fill="#f97316" opacity="0.35"/>
<rect x="365.67" y="350.00" width="2" height="15.00" fill="#f97316" opacity="0.35"/>
<rect x="366.43" y="350.00" width="2" height="15.00" fill="#f97316" opacity="0.35"/>
<rect x="368.73" y="350.00" width="2" height="15.00" fill="#f97316" opacity="0.35"/>
<rect x="371.78" y="350.00" width="2" height="15.00" fill="#f97316" opacity="0.35"/>
<rect x="374.08" y="350.00" width="2" height="15.00" fill="#f97316" opacity="0.35"/>
<rect x="374.84" y="335.00" width="2" height="30.00" fill="#f97316" opacity="0.35"/>
<rect x="379.43" y="350.00" width="2" height="15.00" fill="#f97316" opacity="0.35"/>
<rect x="382.49" y="350.00" width="2" height="15.00" fill="#f97316" opacity="0.35"/>
<rect x="385.55" y="350.00" width="2" height="15.00" fill="#f97316" opacity="0.35"/>
<rect x="387.08" y="350.00" width="2" height="15.00" fill="#f97316" opacity="0.35"/>
<rect x="388.60" y="350.00" width="2" height="15.00" fill="#f97316" opacity="0.35"/>
<rect x="389.37" y="350.00" width="2" height="15.00" fill="#f97316" opacity="0.35"/>
<rect x="390.90" y="335.00" width="2" height="30.00" fill="#f97316" opacity="0.35"/>
<rect x="393.96" y="350.00" width="2" height="15.00" fill="#f97316" opacity="0.35"/>
<rect x="397.02" y="335.00" width="2" height="30.00" fill="#f97316" opacity="0.35"/>
<rect x="397.78" y="350.00" width="2" height="15.00" fill="#f97316" opacity="0.35"/>
<rect x="398.54" y="350.00" width="2" height="15.00" fill="#f97316" opacity="0.35"/>
<rect x="403.13" y="350.00" width="2" height="15.00" fill="#f97316" opacity="0.35"/>
<rect x="410.78" y="350.00" width="2" height="15.00" fill="#f97316" opacity="0.35"/>
<rect x="411.54" y="350.00" width="2" height="15.00" fill="#f97316" opacity="0.35"/>
<rect x="412.31" y="350.00" width="2" height="15.00" fill="#f97316" opacity="0.35"/>
<rect x="419.95" y="350.00" width="2" height="15.00" fill="#f97316" opacity="0.35"/>
<rect x="421.48" y="350.00" width="2" height="15.00" fill="#f97316" opacity="0.35"/>
<rect x="422.25" y="350.00" width="2" height="15.00" fill="#f97316" opacity="0.35"/>
<rect x="423.01" y="350.00" width="2" height="15.00" fill="#f97316" opacity="0.35"/>
<rect x="424.54" y="350.00" width="2" height="15.00" fill="#f97316" opacity="0.35"/>
<rect x="425.31" y="350.00" width="2" height="15.00" fill="#f97316" opacity="0.35"/>
<rect x="429.89" y="350.00" width="2" height="15.00" fill="#f97316" opacity="0.35"/>
<rect x="432.95" y="350.00" width="2" height="15.00" fill="#f97316" opacity="0.35"/>
<rect x="433.72" y="335.00" width="2" height="30.00" fill="#f97316" opacity="0.35"/>
<rect x="435.25" y="335.00" width="2" height="30.00" fill="#f97316" opacity="0.35"/>
<rect x="437.54" y="350.00" width="2" height="15.00" fill="#f97316" opacity="0.35"/>
<rect x="439.83" y="350.00" width="2" height="15.00" fill="#f97316" opacity="0.35"/>
<rect x="445.19" y="350.00" width="2" height="15.00" fill="#f97316" opacity="0.35"/>
<rect x="445.95" y="350.00" width="2" height="15.00" fill="#f97316" opacity="0.35"/>
<rect x="446.71" y="350.00" width="2" height="15.00" fill="#f97316" opacity="0.35"/>
<rect x="449.77" y="335.00" width="2" height="30.00" fill="#f97316" opacity="0.35"/>
<rect x="450.54" y="350.00" width="2" height="15.00" fill="#f97316" opacity="0.35"/>
<rect x="452.07" y="320.00" width="2" height="45.00" fill="#f97316" opacity="0.35"/>
<rect x="452.83" y="350.00" width="2" height="15.00" fill="#f97316" opacity="0.35"/>
<rect x="455.13" y="350.00" width="2" height="15.00" fill="#f97316" opacity="0.35"/>
<rect x="456.65" y="350.00" width="2" height="15.00" fill="#f97316" opacity="0.35"/>
<rect x="460.48" y="350.00" width="2" height="15.00" fill="#f97316" opacity="0.35"/>
<rect x="465.07" y="350.00" width="2" height="15.00" fill="#f97316" opacity="0.35"/>
<rect x="466.59" y="350.00" width="2" height="15.00" fill="#f97316" opacity="0.35"/>
<rect x="468.12" y="350.00" width="2" height="15.00" fill="#f97316" opacity="0.35"/>
<rect x="468.89" y="350.00" width="2" height="15.00" fill="#f97316" opacity="0.35"/>
<rect x="469.65" y="350.00" width="2" height="15.00" fill="#f97316" opacity="0.35"/>
<rect x="476.53" y="350.00" width="2" height="15.00" fill="#f97316" opacity="0.35"/>
<rect x="479.59" y="350.00" width="2" height="15.00" fill="#f97316" opacity="0.35"/>
<rect x="488.00" y="350.00" width="2" height="15.00" fill="#f97316" opacity="0.35"/>
<rect x="493.36" y="350.00" width="2" height="15.00" fill="#f97316" opacity="0.35"/>
<rect x="494.12" y="350.00" width="2" height="15.00" fill="#f97316" opacity="0.35"/>
<rect x="494.88" y="350.00" width="2" height="15.00" fill="#f97316" opacity="0.35"/>
<rect x="495.65" y="350.00" width="2" height="15.00" fill="#f97316" opacity="0.35"/>
<rect x="497.94" y="350.00" width="2" height="15.00" fill="#f97316" opacity="0.35"/>
<rect x="498.71" y="335.00" width="2" height="30.00" fill="#f97316" opacity="0.35"/>
<rect x="499.47" y="350.00" width="2" height="15.00" fill="#f97316" opacity="0.35"/>
<rect x="504.06" y="350.00" width="2" height="15.00" fill="#f97316" opacity="0.35"/>
<rect x="506.35" y="350.00" width="2" height="15.00" fill="#f97316" opacity="0.35"/>
<rect x="511.71" y="350.00" width="2" height="15.00" fill="#f97316" opacity="0.35"/>
<rect x="512.47" y="350.00" width="2" height="15.00" fill="#f97316" opacity="0.35"/>
<rect x="516.29" y="350.00" width="2" height="15.00" fill="#f97316" opacity="0.35"/>
<rect x="518.59" y="350.00" width="2" height="15.00" fill="#f97316" opacity="0.35"/>
<rect x="523.94" y="350.00" width="2" height="15.00" fill="#f97316" opacity="0.35"/>
<rect x="527.00" y="350.00" width="2" height="15.00" fill="#f97316" opacity="0.35"/>
<rect x="533.12" y="350.00" width="2" height="15.00" fill="#f97316" opacity="0.35"/>
<rect x="534.64" y="335.00" width="2" height="30.00" fill="#f97316" opacity="0.35"/>
<rect x="535.41" y="335.00" width="2" height="30.00" fill="#f97316" opacity="0.35"/>
<rect x="538.47" y="350.00" width="2" height="15.00" fill="#f97316" opacity="0.35"/>
<rect x="539.23" y="335.00" width="2" height="30.00" fill="#f97316" opacity="0.35"/>
<rect x="548.41" y="350.00" width="2" height="15.00" fill="#f97316" opacity="0.35"/>
<rect x="549.94" y="350.00" width="2" height="15.00" fill="#f97316" opacity="0.35"/>
<rect x="550.70" y="350.00" width="2" height="15.00" fill="#f97316" opacity="0.35"/>
<rect x="552.99" y="350.00" width="2" height="15.00" fill="#f97316" opacity="0.35"/>
<rect x="556.82" y="350.00" width="2" height="15.00" fill="#f97316" opacity="0.35"/>
<rect x="557.58" y="350.00" width="2" height="15.00" fill="#f97316" opacity="0.35"/>
<rect x="558.35" y="335.00" width="2" height="30.00" fill="#f97316" opacity="0.35"/>
<rect x="560.64" y="320.00" width="2" height="45.00" fill="#f97316" opacity="0.35"/>
<rect x="569.05" y="350.00" width="2" height="15.00" fill="#f97316" opacity="0.35"/>
<rect x="572.87" y="335.00" width="2" height="30.00" fill="#f97316" opacity="0.35"/>
<rect x="580.52" y="320.00" width="2" height="45.00" fill="#f97316" opacity="0.35"/>
<rect x="582.81" y="350.00" width="2" height="15.00" fill="#f97316" opacity="0.35"/>
<rect x="584.34" y="350.00" width="2" height="15.00" fill="#f97316" opacity="0.35"/>
<rect x="592.75" y="350.00" width="2" height="15.00" fill="#f97316" opacity="0.35"/>
<rect x="595.05" y="335.00" width="2" height="30.00" fill="#f97316" opacity="0.35"/>
<rect x="595.81" y="350.00" width="2" height="15.00" fill="#f97316" opacity="0.35"/>
<rect x="597.34" y="350.00" width="2" height="15.00" fill="#f97316" opacity="0.35"/>
<rect x="601.93" y="350.00" width="2" height="15.00" fill="#f97316" opacity="0.35"/>
<rect x="602.69" y="350.00" width="2" height="15.00" fill="#f97316" opacity="0.35"/>
<rect x="603.46" y="350.00" width="2" height="15.00" fill="#f97316" opacity="0.35"/>
<rect x="604.22" y="350.00" width="2" height="15.00" fill="#f97316" opacity="0.35"/>
<rect x="606.52" y="320.00" width="2" height="45.00" fill="#f97316" opacity="0.35"/>
<rect x="609.58" y="350.00" width="2" height="15.00" fill="#f97316" opacity="0.35"/>
<rect x="616.46" y="350.00" width="2" height="15.00" fill="#f97316" opacity="0.35"/>
<rect x="621.04" y="350.00" width="2" height="15.00" fill="#f97316" opacity="0.35"/>
<rect x="623.34" y="350.00" width="2" height="15.00" fill="#f97316" opacity="0.35"/>
<rect x="624.87" y="335.00" width="2" height="30.00" fill="#f97316" opacity="0.35"/>
<rect x="625.63" y="350.00" width="2" height="15.00" fill="#f97316" opacity="0.35"/>
<rect x="627.16" y="350.00" width="2" height="15.00" fill="#f97316" opacity="0.35"/>
<rect x="632.51" y="350.00" width="2" height="15.00" fill="#f97316" opacity="0.35"/>
<rect x="634.04" y="350.00" width="2" height="15.00" fill="#f97316" opacity="0.35"/>
<rect x="637.87" y="350.00" width="2" height="15.00" fill="#f97316" opacity="0.35"/>
<rect x="640.92" y="350.00" width="2" height="15.00" fill="#f97316" opacity="0.35"/>
<rect x="641.69" y="350.00" width="2" height="15.00" fill="#f97316" opacity="0.35"/>
<rect x="647.81" y="350.00" width="2" height="15.00" fill="#f97316" opacity="0.35"/>
<rect x="656.22" y="335.00" width="2" height="30.00" fill="#f97316" opacity="0.35"/>
<rect x="658.51" y="350.00" width="2" height="15.00" fill="#f97316" opacity="0.35"/>
<rect x="664.63" y="350.00" width="2" height="15.00" fill="#f97316" opacity="0.35"/>
<rect x="666.92" y="350.00" width="2" height="15.00" fill="#f97316" opacity="0.35"/>
<rect x="672.27" y="350.00" width="2" height="15.00" fill="#f97316" opacity="0.35"/>
<rect x="673.04" y="335.00" width="2" height="30.00" fill="#f97316" opacity="0.35"/>
<rect x="673.80" y="335.00" width="2" height="30.00" fill="#f97316" opacity="0.35"/>
<rect x="682.21" y="335.00" width="2" height="30.00" fill="#f97316" opacity="0.35"/>
<rect x="684.51" y="350.00" width="2" height="15.00" fill="#f97316" opacity="0.35"/>
<rect x="686.80" y="350.00" width="2" height="15.00" fill="#f97316" opacity="0.35"/>
<rect x="689.09" y="350.00" width="2" height="15.00" fill="#f97316" opacity="0.35"/>
<rect x="699.03" y="350.00" width="2" height="15.00" fill="#f97316" opacity="0.35"/>
<rect x="700.56" y="350.00" width="2" height="15.00" fill="#f97316" opacity="0.35"/>
<rect x="701.33" y="350.00" width="2" height="15.00" fill="#f97316" opacity="0.35"/>
<rect x="703.62" y="350.00" width="2" height="15.00" fill="#f97316" opacity="0.35"/>
<rect x="704.39" y="350.00" width="2" height="15.00" fill="#f97316" opacity="0.35"/>
<rect x="708.21" y="335.00" width="2" height="30.00" fill="#f97316" opacity="0.35"/>
<rect x="711.27" y="350.00" width="2" height="15.00" fill="#f97316" opacity="0.35"/>
<rect x="718.15" y="350.00" width="2" height="15.00" fill="#f97316" opacity="0.35"/>
<rect x="720.44" y="350.00" width="2" height="15.00" fill="#f97316" opacity="0.35"/>
<rect x="721.21" y="350.00" width="2" height="15.00" fill="#f97316" opacity="0.35"/>
<rect x="722.74" y="350.00" width="2" height="15.00" fill="#f97316" opacity="0.35"/>
<rect x="724.27" y="350.00" width="2" height="15.00" fill="#f97316" opacity="0.35"/>
<rect x="726.56" y="350.00" width="2" height="15.00" fill="#f97316" opacity="0.35"/>
<rect x="728.09" y="350.00" width="2" height="15.00" fill="#f97316" opacity="0.35"/>
<rect x="731.15" y="350.00" width="2" height="15.00" fill="#f97316" opacity="0.35"/>
<rect x="731.91" y="350.00" width="2" height="15.00" fill="#f97316" opacity="0.35"/>
<rect x="732.68" y="350.00" width="2" height="15.00" fill="#f97316" opacity="0.35"/>
<rect x="734.97" y="290.00" width="2" height="75.00" fill="#f97316" opacity="0.35"/>
<rect x="735.74" y="350.00" width="2" height="15.00" fill="#f97316" opacity="0.35"/>
<rect x="736.50" y="350.00" width="2" height="15.00" fill="#f97316" opacity="0.35"/>
<rect x="740.32" y="350.00" width="2" height="15.00" fill="#f97316" opacity="0.35"/>
<rect x="747.20" y="335.00" width="2" height="30.00" fill="#f97316" opacity="0.35"/>
<rect x="751.03" y="350.00" width="2" height="15.00" fill="#f97316" opacity="0.35"/>
<rect x="751.79" y="350.00" width="2" height="15.00" fill="#f97316" opacity="0.35"/>
<rect x="761.73" y="350.00" width="2" height="15.00" fill="#f97316" opacity="0.35"/>
<rect x="764.03" y="335.00" width="2" height="30.00" fill="#f97316" opacity="0.35"/>
<rect x="767.85" y="350.00" width="2" height="15.00" fill="#f97316" opacity="0.35"/>
<rect x="772.44" y="350.00" width="2" height="15.00" fill="#f97316" opacity="0.35"/>
<rect x="776.26" y="335.00" width="2" height="30.00" fill="#f97316" opacity="0.35"/>
<rect x="781.61" y="350.00" width="2" height="15.00" fill="#f97316" opacity="0.35"/>
<rect x="784.67" y="350.00" width="2" height="15.00" fill="#f97316" opacity="0.35"/>
<rect x="791.55" y="350.00" width="2" height="15.00" fill="#f97316" opacity="0.35"/>
<rect x="792.32" y="350.00" width="2" height="15.00" fill="#f97316" opacity="0.35"/>
<rect x="799.20" y="350.00" width="2" height="15.00" fill="#f97316" opacity="0.35"/>
<rect x="801.49" y="350.00" width="2" height="15.00" fill="#f97316" opacity="0.35"/>
<rect x="806.08" y="350.00" width="2" height="15.00" fill="#f97316" opacity="0.35"/>
<rect x="806.84" y="350.00" width="2" height="15.00" fill="#f97316" opacity="0.35"/>
<rect x="807.61" y="350.00" width="2" height="15.00" fill="#f97316" opacity="0.35"/>
<rect x="809.90" y="350.00" width="2" height="15.00" fill="#f97316" opacity="0.35"/>
<rect x="813.73" y="350.00" width="2" height="15.00" fill="#f97316" opacity="0.35"/>
<rect x="814.49" y="350.00" width="2" height="15.00" fill="#f97316" opacity="0.35"/>
<rect x="816.78" y="350.00" width="2" height="15.00" fill="#f97316" opacity="0.35"/>
<rect x="822.14" y="350.00" width="2" height="15.00" fill="#f97316" opacity="0.35"/>
<rect x="822.90" y="350.00" width="2" height="15.00" fill="#f97316" opacity="0.35"/>
<rect x="826.72" y="350.00" width="2" height="15.00" fill="#f97316" opacity="0.35"/>
<rect x="829.02" y="350.00" width="2" height="15.00" fill="#f97316" opacity="0.35"/>
<rect x="831.31" y="350.00" width="2" height="15.00" fill="#f97316" opacity="0.35"/>
<rect x="844.31" y="350.00" width="2" height="15.00" fill="#f97316" opacity="0.35"/>
<rect x="851.96" y="350.00" width="2" height="15.00" fill="#f97316" opacity="0.35"/>
<rect x="853.48" y="350.00" width="2" height="15.00" fill="#f97316" opacity="0.35"/>
<rect x="859.60" y="350.00" width="2" height="15.00" fill="#f97316" opacity="0.35"/>
<rect x="861.13" y="350.00" width="2" height="15.00" fill="#f97316" opacity="0.35"/>
<rect x="870.31" y="350.00" width="2" height="15.00" fill="#f97316" opacity="0.35"/>
<rect x="871.07" y="350.00" width="2" height="15.00" fill="#f97316" opacity="0.35"/>
<rect x="872.60" y="350.00" width="2" height="15.00" fill="#f97316" opacity="0.35"/>
<rect x="877.19" y="350.00" width="2" height="15.00" fill="#f97316" opacity="0.35"/>
<rect x="890.95" y="350.00" width="2" height="15.00" fill="#f97316" opacity="0.35"/>
<rect x="892.48" y="350.00" width="2" height="15.00" fill="#f97316" opacity="0.35"/>
<rect x="899.36" y="350.00" width="2" height="15.00" fill="#f97316" opacity="0.35"/>
<rect x="904.71" y="350.00" width="2" height="15.00" fill="#f97316" opacity="0.35"/>
<rect x="907.77" y="350.00" width="2" height="15.00" fill="#f97316" opacity="0.35"/>
<rect x="910.83" y="350.00" width="2" height="15.00" fill="#f97316" opacity="0.35"/>
<rect x="926.12" y="350.00" width="2" height="15.00" fill="#f97316" opacity="0.35"/>
<rect x="928.42" y="350.00" width="2" height="15.00" fill="#f97316" opacity="0.35"/>
<rect x="930.71" y="335.00" width="2" height="30.00" fill="#f97316" opacity="0.35"/>
<rect x="935.30" y="350.00" width="2" height="15.00" fill="#f97316" opacity="0.35"/>
<rect x="952.12" y="350.00" width="2" height="15.00" fill="#f97316" opacity="0.35"/>
<rect x="953.65" y="350.00" width="2" height="15.00" fill="#f97316" opacity="0.35"/>
<rect x="955.94" y="350.00" width="2" height="15.00" fill="#f97316" opacity="0.35"/>
<rect x="956.71" y="335.00" width="2" height="30.00" fill="#f97316" opacity="0.35"/>
<rect x="957.47" y="350.00" width="2" height="15.00" fill="#f97316" opacity="0.35"/>
<rect x="959.00" y="350.00" width="2" height="15.00" fill="#f97316" opacity="0.35"/>
<polyline points="70.00,364.38 70.76,360.68 71.53,359.45 72.29,356.98 73.06,355.13 73.82,353.90 74.59,352.05 75.35,348.97 76.12,348.97 76.88,348.97 77.65,348.35 78.41,346.50 79.18,346.50 79.94,344.65 80.70,344.03 81.47,342.80 82.23,340.95 83.00,340.33 83.76,340.33 84.53,338.48 85.29,337.25 86.06,337.25 86.82,335.40 87.59,335.40 88.35,333.55 89.12,332.31 89.88,331.70 90.64,330.46 91.41,328.61 92.17,327.38 92.94,325.53 93.70,324.91 94.47,324.91 95.23,321.21 96.00,320.60 96.76,320.60 97.53,319.98 98.29,319.98 99.05,319.36 99.82,317.51 100.58,316.28 101.35,315.05 102.11,313.81 102.88,313.81 103.64,313.81 104.41,313.81 105.17,313.20 105.94,311.96 106.70,309.50 107.47,308.88 108.23,307.65 108.99,306.41 109.76,305.80 110.52,304.56 111.29,304.56 112.05,304.56 112.82,303.33 113.58,303.33 114.35,302.71 115.11,302.71 115.88,301.48 116.64,300.86 117.41,300.25 118.17,299.63 118.93,299.01 119.70,299.01 120.46,296.55 121.23,295.93 121.99,295.93 122.76,295.31 123.52,294.70 124.29,294.70 125.05,293.46 125.82,292.23 126.58,291.61 127.35,291.61 128.11,290.38 128.87,290.38 129.64,289.76 130.40,289.76 131.17,289.76 131.93,289.76 132.70,288.53 133.46,287.91 134.23,287.91 134.99,286.68 135.76,286.68 136.52,286.68 137.29,284.83 138.05,284.83 138.81,282.98 139.58,281.13 140.34,281.13 141.11,280.51 141.87,280.51 142.64,279.90 143.40,279.90 144.17,279.28 144.93,279.28 145.70,278.66 146.46,277.43 147.23,276.81 147.99,276.81 148.75,276.20 149.52,274.96 150.28,274.35 151.05,274.35 151.81,273.73 152.58,272.50 153.34,271.88 154.11,271.26 154.87,269.41 155.64,267.56 156.40,266.94 157.16,265.09 157.93,265.09 158.69,265.09 159.46,264.48 160.22,263.86 160.99,263.86 161.75,263.24 162.52,263.24 163.28,262.63 164.05,262.63 164.81,262.01 165.58,262.01 166.34,262.01 167.10,262.01 167.87,260.78 168.63,260.78 169.40,260.78 170.16,258.93 170.93,258.31 171.69,257.69 172.46,257.69 173.22,257.69 173.99,257.08 174.75,256.46 175.52,255.23 176.28,255.23 177.04,255.23 177.81,254.61 178.57,254.61 179.34,253.99 180.10,253.99 180.87,253.99 181.63,252.14 182.40,251.53 183.16,251.53 183.93,250.91 184.69,250.91 185.46,250.29 186.22,249.68 186.98,249.68 187.75,246.59 188.51,246.59 189.28,245.98 190.04,245.98 190.81,245.98 191.57,245.98 192.34,245.98 193.10,245.98 193.87,244.74 194.63,244.74 195.40,244.74 196.16,242.89 196.92,242.89 197.69,241.66 198.45,241.66 199.22,241.66 199.98,241.66 200.75,240.43 201.51,239.81 202.28,238.58 203.04,237.96 203.81,237.96 204.57,237.96 205.34,237.96 206.10,237.96 206.86,236.73 207.63,236.73 208.39,236.73 209.16,235.49 209.92,234.88 210.69,234.88 211.45,234.26 212.22,234.26 212.98,232.41 213.75,232.41 214.51,231.18 215.27,230.56 216.04,230.56 216.80,228.71 217.57,228.09 218.33,228.09 219.10,228.09 219.86,227.48 220.63,227.48 221.39,226.86 222.16,225.01 222.92,224.39 223.69,224.39 224.45,224.39 225.21,223.78 225.98,223.78 226.74,223.78 227.51,223.78 228.27,223.78 229.04,223.16 229.80,223.16 230.57,223.16 231.33,223.16 232.10,223.16 232.86,223.16 233.63,223.16 234.39,223.16 235.15,223.16 235.92,221.93 236.68,221.93 237.45,221.93 238.21,221.93 238.98,220.69 239.74,220.69 240.51,220.69 241.27,220.69 242.04,220.08 242.80,220.08 243.57,220.08 244.33,220.08 245.09,220.08 245.86,220.08 246.62,220.08 247.39,220.08 248.15,220.08 248.92,220.08 249.68,220.08 250.45,220.08 251.21,220.08 251.98,220.08 252.74,220.08 253.51,220.08 254.27,219.46 255.03,218.23 255.80,218.23 256.56,218.23 257.33,218.23 258.09,217.61 258.86,216.99 259.62,216.99 260.39,216.38 261.15,215.14 261.92,214.53 262.68,214.53 263.45,213.29 264.21,213.29 264.97,213.29 265.74,213.29 266.50,212.68 267.27,212.68 268.03,212.68 268.80,212.06 269.56,212.06 270.33,212.06 271.09,212.06 271.86,212.06 272.62,212.06 273.38,212.06 274.15,212.06 274.91,212.06 275.68,211.44 276.44,211.44 277.21,211.44 277.97,211.44 278.74,210.83 279.50,210.83 280.27,210.83 281.03,210.83 281.80,210.83 282.56,210.21 283.32,210.21 284.09,209.59 284.85,208.36 285.62,207.74 286.38,207.74 287.15,205.89 287.91,205.89 288.68,205.89 289.44,205.89 290.21,205.89 290.97,205.89 291.74,205.89 292.50,205.89 293.26,205.89 294.03,204.66 294.79,204.66 295.56,204.04 296.32,203.43 297.09,203.43 297.85,203.43 298.62,203.43 299.38,203.43 300.15,203.43 300.91,203.43 301.68,202.81 302.44,202.81 303.20,202.19 303.97,202.19 304.73,201.57 305.50,201.57 306.26,201.57 307.03,201.57 307.79,200.34 308.56,200.34 309.32,200.34 310.09,200.34 310.85,200.34 311.62,200.34 312.38,200.34 313.14,199.72 313.91,199.72 314.67,199.72 315.44,199.72 316.20,199.72 316.97,199.72 317.73,199.72 318.50,199.11 319.26,197.87 320.03,197.87 320.79,197.87 321.55,197.26 322.32,197.26 323.08,197.26 323.85,196.02 324.61,196.02 325.38,196.02 326.14,196.02 326.91,196.02 327.67,195.41 328.44,195.41 329.20,195.41 329.97,194.79 330.73,194.79 331.49,194.79 332.26,194.17 333.02,193.56 333.79,192.32 334.55,192.32 335.32,192.32 336.08,192.32 336.85,191.71 337.61,191.09 338.38,190.47 339.14,189.86 339.91,189.24 340.67,188.62 341.43,188.01 342.20,187.39 342.96,186.77 343.73,186.77 344.49,186.77 345.26,186.77 346.02,186.16 346.79,186.16 347.55,186.16 348.32,185.54 349.08,184.92 349.85,184.31 350.61,183.69 351.37,183.69 352.14,183.07 352.90,183.07 353.67,183.07 354.43,183.07 355.20,183.07 355.96,182.46 356.73,181.84 357.49,180.61 358.26,180.61 359.02,180.61 359.79,179.99 360.55,179.99 361.31,179.99 362.08,179.99 362.84,179.99 363.61,179.37 364.37,179.37 365.14,178.76 365.90,178.76 366.67,178.14 367.43,177.52 368.20,177.52 368.96,177.52 369.73,176.91 370.49,176.91 371.25,176.91 372.02,176.91 372.78,176.29 373.55,176.29 374.31,176.29 375.08,175.67 375.84,174.44 376.61,174.44 377.37,174.44 378.14,174.44 378.90,174.44 379.66,174.44 380.43,173.82 381.19,173.82 381.96,173.82 382.72,173.82 383.49,173.21 384.25,173.21 385.02,173.21 385.78,173.21 386.55,172.59 387.31,172.59 388.08,171.97 388.84,171.97 389.60,171.36 390.37,170.74 391.13,170.74 391.90,169.51 392.66,169.51 393.43,169.51 394.19,169.51 394.96,168.89 395.72,168.89 396.49,168.89 397.25,168.89 398.02,167.66 398.78,167.04 399.54,166.42 400.31,166.42 401.07,166.42 401.84,166.42 402.60,166.42 403.37,166.42 404.13,165.81 404.90,165.81 405.66,165.81 406.43,165.81 407.19,165.81 407.96,165.81 408.72,165.81 409.48,165.81 410.25,165.81 411.01,165.81 411.78,165.19 412.54,164.57 413.31,163.96 414.07,163.96 414.84,163.96 415.60,163.96 416.37,163.96 417.13,163.96 417.90,163.96 418.66,163.96 419.42,163.96 420.19,163.96 420.95,163.34 421.72,163.34 422.48,162.72 423.25,162.11 424.01,161.49 424.78,161.49 425.54,160.87 426.31,160.26 427.07,160.26 427.84,160.26 428.60,160.26 429.36,160.26 430.13,160.26 430.89,159.64 431.66,159.64 432.42,159.64 433.19,159.64 433.95,159.02 434.72,157.79 435.48,157.79 436.25,156.56 437.01,156.56 437.77,156.56 438.54,155.94 439.30,155.94 440.07,155.94 440.83,155.32 441.60,155.32 442.36,155.32 443.13,155.32 443.89,155.32 444.66,155.32 445.42,155.32 446.19,154.71 446.95,154.09 447.71,153.47 448.48,153.47 449.24,153.47 450.01,153.47 450.77,152.24 451.54,151.62 452.30,151.62 453.07,149.77 453.83,149.16 454.60,149.16 455.36,149.16 456.13,148.54 456.89,148.54 457.65,147.92 458.42,147.92 459.18,147.92 459.95,147.92 460.71,147.92 461.48,147.31 462.24,147.31 463.01,147.31 463.77,147.31 464.54,147.31 465.30,147.31 466.07,146.69 466.83,146.69 467.59,146.07 468.36,146.07 469.12,145.46 469.89,144.84 470.65,144.22 471.42,144.22 472.18,144.22 472.95,144.22 473.71,144.22 474.48,144.22 475.24,144.22 476.01,144.22 476.77,144.22 477.53,143.61 478.30,143.61 479.06,143.61 479.83,143.61 480.59,142.99 481.36,142.99 482.12,142.99 482.89,142.99 483.65,142.99 484.42,142.99 485.18,142.99 485.95,142.99 486.71,142.99 487.47,142.99 488.24,142.99 489.00,142.37 489.77,142.37 490.53,142.37 491.30,142.37 492.06,142.37 492.83,142.37 493.59,142.37 494.36,141.76 495.12,141.14 495.88,140.52 496.65,139.91 497.41,139.91 498.18,139.91 498.94,139.29 499.71,138.06 500.47,137.44 501.24,137.44 502.00,137.44 502.77,137.44 503.53,137.44 504.30,137.44 505.06,136.82 505.82,136.82 506.59,136.82 507.35,136.20 508.12,136.20 508.88,136.20 509.65,136.20 510.41,136.20 511.18,136.20 511.94,136.20 512.71,135.59 513.47,134.97 514.24,134.97 515.00,134.97 515.76,134.97 516.53,134.97 517.29,134.35 518.06,134.35 518.82,134.35 519.59,133.74 520.35,133.74 521.12,133.74 521.88,133.74 522.65,133.74 523.41,133.74 524.18,133.74 524.94,133.12 525.70,133.12 526.47,133.12 527.23,133.12 528.00,132.50 528.76,132.50 529.53,132.50 530.29,132.50 531.06,132.50 531.82,132.50 532.59,132.50 533.35,132.50 534.12,131.89 534.88,131.89 535.64,130.65 536.41,129.42 537.17,129.42 537.94,129.42 538.70,129.42 539.47,128.80 540.23,127.57 541.00,127.57 541.76,127.57 542.53,127.57 543.29,127.57 544.05,127.57 544.82,127.57 545.58,127.57 546.35,127.57 547.11,127.57 547.88,127.57 548.64,127.57 549.41,126.95 550.17,126.95 550.94,126.34 551.70,125.72 552.47,125.72 553.23,125.72 553.99,125.10 554.76,125.10 555.52,125.10 556.29,125.10 557.05,125.10 557.82,124.49 558.58,123.87 559.35,122.64 560.11,122.64 560.88,122.64 561.64,120.79 562.41,120.79 563.17,120.79 563.93,120.79 564.70,120.79 565.46,120.79 566.23,120.79 566.99,120.79 567.76,120.79 568.52,120.79 569.29,120.79 570.05,120.17 570.82,120.17 571.58,120.17 572.35,120.17 573.11,120.17 573.87,118.94 574.64,118.94 575.40,118.94 576.17,118.94 576.93,118.94 577.70,118.94 578.46,118.94 579.23,118.94 579.99,118.94 580.76,118.94 581.52,117.09 582.29,117.09 583.05,117.09 583.81,116.47 584.58,116.47 585.34,115.85 586.11,115.85 586.87,115.85 587.64,115.85 588.40,115.85 589.17,115.85 589.93,115.85 590.70,115.85 591.46,115.85 592.23,115.85 592.99,115.85 593.75,115.24 594.52,115.24 595.28,115.24 596.05,114.00 596.81,113.39 597.58,113.39 598.34,112.77 599.11,112.77 599.87,112.77 600.64,112.77 601.40,112.77 602.16,112.77 602.93,112.15 603.69,111.54 604.46,110.92 605.22,110.30 605.99,110.30 606.75,110.30 607.52,108.45 608.28,108.45 609.05,108.45 609.81,108.45 610.58,107.84 611.34,107.84 612.10,107.84 612.87,107.84 613.63,107.84 614.40,107.84 615.16,107.84 615.93,107.84 616.69,107.84 617.46,107.22 618.22,107.22 618.99,107.22 619.75,107.22 620.52,107.22 621.28,107.22 622.04,106.60 622.81,106.60 623.57,106.60 624.34,105.99 625.10,105.99 625.87,104.75 626.63,104.14 627.40,104.14 628.16,103.52 628.93,103.52 629.69,103.52 630.46,103.52 631.22,103.52 631.98,103.52 632.75,103.52 633.51,102.90 634.28,102.90 635.04,102.29 635.81,102.29 636.57,102.29 637.34,102.29 638.10,102.29 638.87,101.67 639.63,101.67 640.40,101.67 641.16,101.67 641.92,101.05 642.69,100.44 643.45,100.44 644.22,100.44 644.98,100.44 645.75,100.44 646.51,100.44 647.28,100.44 648.04,100.44 648.81,99.82 649.57,99.82 650.34,99.82 651.10,99.82 651.86,99.82 652.63,99.82 653.39,99.82 654.16,99.82 654.92,99.82 655.69,99.82 656.45,99.82 657.22,98.59 657.98,98.59 658.75,98.59 659.51,97.97 660.27,97.97 661.04,97.97 661.80,97.97 662.57,97.97 663.33,97.97 664.10,97.97 664.86,97.97 665.63,97.35 666.39,97.35 667.16,97.35 667.92,96.74 668.69,96.74 669.45,96.74 670.21,96.74 670.98,96.74 671.74,96.74 672.51,96.74 673.27,96.12 674.04,94.89 674.80,93.65 675.57,93.65 676.33,93.65 677.10,93.65 677.86,93.65 678.63,93.65 679.39,93.65 680.15,93.65 680.92,93.65 681.68,93.65 682.45,93.65 683.21,92.42 683.98,92.42 684.74,92.42 685.51,91.80 686.27,91.80 687.04,91.80 687.80,91.19 688.57,91.19 689.33,91.19 690.09,90.57 690.86,90.57 691.62,90.57 692.39,90.57 693.15,90.57 693.92,90.57 694.68,90.57 695.45,90.57 696.21,90.57 696.98,90.57 697.74,90.57 698.51,90.57 699.27,90.57 700.03,89.95 700.80,89.95 701.56,89.34 702.33,88.72 703.09,88.72 703.86,88.72 704.62,88.10 705.39,87.49 706.15,87.49 706.92,87.49 707.68,87.49 708.45,87.49 709.21,86.25 709.97,86.25 710.74,86.25 711.50,86.25 712.27,85.64 713.03,85.64 713.80,85.64 714.56,85.64 715.33,85.64 716.09,85.64 716.86,85.64 717.62,85.64 718.38,85.64 719.15,85.02 719.91,85.02 720.68,85.02 721.44,84.40 722.21,83.79 722.97,83.79 723.74,83.17 724.50,83.17 725.27,82.55 726.03,82.55 726.80,82.55 727.56,81.94 728.32,81.94 729.09,81.32 729.85,81.32 730.62,81.32 731.38,81.32 732.15,80.70 732.91,80.09 733.68,79.47 734.44,79.47 735.21,79.47 735.97,76.39 736.74,75.77 737.50,75.15 738.26,75.15 739.03,75.15 739.79,75.15 740.56,75.15 741.32,74.54 742.09,74.54 742.85,74.54 743.62,74.54 744.38,74.54 745.15,74.54 745.91,74.54 746.68,74.54 747.44,74.54 748.20,73.30 748.97,73.30 749.73,73.30 750.50,73.30 751.26,73.30 752.03,72.69 752.79,72.07 753.56,72.07 754.32,72.07 755.09,72.07 755.85,72.07 756.62,72.07 757.38,72.07 758.14,72.07 758.91,72.07 759.67,72.07 760.44,72.07 761.20,72.07 761.97,72.07 762.73,71.45 763.50,71.45 764.26,71.45 765.03,70.22 765.79,70.22 766.55,70.22 767.32,70.22 768.08,70.22 768.85,69.60 769.61,69.60 770.38,69.60 771.14,69.60 771.91,69.60 772.67,69.60 773.44,68.98 774.20,68.98 774.97,68.98 775.73,68.98 776.49,68.98 777.26,67.75 778.02,67.75 778.79,67.75 779.55,67.75 780.32,67.75 781.08,67.75 781.85,67.75 782.61,67.13 783.38,67.13 784.14,67.13 784.91,67.13 785.67,66.52 786.43,66.52 787.20,66.52 787.96,66.52 788.73,66.52 789.49,66.52 790.26,66.52 791.02,66.52 791.79,66.52 792.55,65.90 793.32,65.28 794.08,65.28 794.85,65.28 795.61,65.28 796.37,65.28 797.14,65.28 797.90,65.28 798.67,65.28 799.43,65.28 800.20,64.67 800.96,64.67 801.73,64.67 802.49,64.05 803.26,64.05 804.02,64.05 804.79,64.05 805.55,64.05 806.31,64.05 807.08,63.43 807.84,62.82 808.61,62.20 809.37,62.20 810.14,62.20 810.90,61.58 811.67,61.58 812.43,61.58 813.20,61.58 813.96,61.58 814.73,60.97 815.49,60.35 816.25,60.35 817.02,60.35 817.78,59.73 818.55,59.73 819.31,59.73 820.08,59.73 820.84,59.73 821.61,59.73 822.37,59.73 823.14,59.12 823.90,58.50 824.66,58.50 825.43,58.50 826.19,58.50 826.96,58.50 827.72,57.88 828.49,57.88 829.25,57.88 830.02,57.27 830.78,57.27 831.55,57.27 832.31,56.65 833.08,56.65 833.84,56.65 834.60,56.65 835.37,56.65 836.13,56.65 836.90,56.65 837.66,56.65 838.43,56.65 839.19,56.65 839.96,56.65 840.72,56.65 841.49,56.65 842.25,56.65 843.02,56.65 843.78,56.65 844.54,56.65 845.31,56.03 846.07,56.03 846.84,56.03 847.60,56.03 848.37,56.03 849.13,56.03 849.90,56.03 850.66,56.03 851.43,56.03 852.19,56.03 852.96,55.42 853.72,55.42 854.48,54.80 855.25,54.80 856.01,54.80 856.78,54.80 857.54,54.80 858.31,54.80 859.07,54.80 859.84,54.80 860.60,54.18 861.37,54.18 862.13,53.57 862.90,53.57 863.66,53.57 864.42,53.57 865.19,53.57 865.95,53.57 866.72,53.57 867.48,53.57 868.25,53.57 869.01,53.57 869.78,53.57 870.54,53.57 871.31,52.95 872.07,52.33 872.84,52.33 873.60,51.72 874.36,51.72 875.13,51.72 875.89,51.72 876.66,51.72 877.42,51.72 878.19,51.10 878.95,51.10 879.72,51.10 880.48,51.10 881.25,51.10 882.01,51.10 882.77,51.10 883.54,51.10 884.30,51.10 885.07,51.10 885.83,51.10 886.60,51.10 887.36,51.10 888.13,51.10 888.89,51.10 889.66,51.10 890.42,51.10 891.19,51.10 891.95,50.48 892.71,50.48 893.48,49.87 894.24,49.87 895.01,49.87 895.77,49.87 896.54,49.87 897.30,49.87 898.07,49.87 898.83,49.87 899.60,49.87 900.36,49.25 901.13,49.25 901.89,49.25 902.65,49.25 903.42,49.25 904.18,49.25 904.95,49.25 905.71,48.63 906.48,48.63 907.24,48.63 908.01,48.63 908.77,48.02 909.54,48.02 910.30,48.02 911.07,48.02 911.83,47.40 912.59,47.40 913.36,47.40 914.12,47.40 914.89,47.40 915.65,47.40 916.42,47.40 917.18,47.40 917.95,47.40 918.71,47.40 919.48,47.40 920.24,47.40 921.01,47.40 921.77,47.40 922.53,47.40 923.30,47.40 924.06,47.40 924.83,47.40 925.59,47.40 926.36,47.40 927.12,46.78 927.89,46.78 928.65,46.78 929.42,46.17 930.18,46.17 930.95,46.17 931.71,44.93 932.47,44.93 933.24,44.93 934.00,44.93 934.77,44.93 935.53,44.93 936.30,44.32 937.06,44.32 937.83,44.32 938.59,44.32 939.36,44.32 940.12,44.32 940.88,44.32 941.65,44.32 942.41,44.32 943.18,44.32 943.94,44.32 944.71,44.32 945.47,44.32 946.24,44.32 947.00,44.32 947.77,44.32 948.53,44.32 949.30,44.32 950.06,44.32 950.82,44.32 951.59,44.32 952.35,44.32 953.12,43.70 953.88,43.70 954.65,43.08 955.41,43.08 956.18,43.08 956.94,42.47 957.71,41.23 958.47,40.62 959.24,40.62 960.00,40.00" fill="none" stroke="#2563eb" stroke-width="2"/>
<text x="78" y="58" font-family="Arial" font-size="12" fill="#2563eb">blue: cumulative relations</text>
<text x="78" y="76" font-family="Arial" font-size="12" fill="#ea580c">orange bars: new relations at idx</text>
</svg>