<svg xmlns="http://www.w3.org/2000/svg" width="1000" height="430" viewBox="0 0 1000 430">
<rect width="100%" height="100%" fill="white"/>
<text x="500.0" y="24" text-anchor="middle" font-family="Arial" font-size="18" font-weight="700">Growth Curve: case2_name_general</text>
<line x1="70" y1="365" x2="960" y2="365" stroke="#111827"/>
<line x1="70" y1="40" x2="70" y2="365" stroke="#111827"/>
<text x="515.0" y="412" text-anchor="middle" font-family="Arial" font-size="13">sample idx</text>
<line x1="70" y1="365.00" x2="960" y2="365.00" stroke="#e5e7eb"/>
<text x="62" y="369.00" text-anchor="end" font-family="Arial" font-size="11">0</text>
<line x1="70" y1="300.34" x2="960" y2="300.34" stroke="#e5e7eb"/>
<text x="62" y="304.34" text-anchor="end" font-family="Arial" font-size="11">77</text>
<line x1="70" y1="234.83" x2="960" y2="234.83" stroke="#e5e7eb"/>
<text x="62" y="238.83" text-anchor="end" font-family="Arial" font-size="11">155</text>
<line x1="70" y1="170.17" x2="960" y2="170.17" stroke="#e5e7eb"/>
<text x="62" y="174.17" text-anchor="end" font-family="Arial" font-size="11">232</text>
<line x1="70" y1="104.66" x2="960" y2="104.66" stroke="#e5e7eb"/>
<text x="62" y="108.66" text-anchor="end" font-family="Arial" font-size="11">310</text>
<line x1="70" y1="40.00" x2="960" y2="40.00" stroke="#e5e7eb"/>
<text x="62" y="44.00" text-anchor="end" font-family="Arial" font-size="11">387</text>
<rect x="69.00" y="347.00" width="2" height="18.00" fill="#f97316" opacity="0.35"/>
<rect x="69.76" y="293.00" width="2" height="72.00" fill="#f97316" opacity="0.35"/>
<rect x="70.53" y="347.00" width="2" height="18.00" fill="#f97316" opacity="0.35"/>
<rect x="71.29" y="329.00" width="2" height="36.00" fill="#f97316" opacity="0.35"/>
<rect x="72.06" y="329.00" width="2" height="36.00" fill="#f97316" opacity="0.35"/>
<rect x="72.82" y="347.00" width="2" height="18.00" fill="#f97316" opacity="0.35"/>
<rect x="73.59" y="329.00" width="2" height="36.00" fill="#f97316" opacity="0.35"/>
<rect x="74.35" y="275.00" width="2" height="90.00" fill="#f97316" opacity="0.35"/>
<rect x="75.12" y="347.00" width="2" height="18.00" fill="#f97316" opacity="0.35"/>
<rect x="75.88" y="347.00" width="2" height="18.00" fill="#f97316" opacity="0.35"/>
<rect x="76.65" y="347.00" width="2" height="18.00" fill="#f97316" opacity="0.35"/>
<rect x="77.41" y="293.00" width="2" height="72.00" fill="#f97316" opacity="0.35"/>
<rect x="78.94" y="329.00" width="2" height="36.00" fill="#f97316" opacity="0.35"/>
<rect x="80.47" y="347.00" width="2" height="18.00" fill="#f97316" opacity="0.35"/>
<rect x="81.23" y="329.00" width="2" height="36.00" fill="#f97316" opacity="0.35"/>
<rect x="82.00" y="347.00" width="2" height="18.00" fill="#f97316" opacity="0.35"/>
<rect x="83.53" y="347.00" width="2" height="18.00" fill="#f97316" opacity="0.35"/>
<rect x="84.29" y="329.00" width="2" height="36.00" fill="#f97316" opacity="0.35"/>
<rect x="85.06" y="347.00" width="2" height="18.00" fill="#f97316" opacity="0.35"/>
<rect x="85.82" y="311.00" width="2" height="54.00" fill="#f97316" opacity="0.35"/>
<rect x="88.12" y="329.00" width="2" height="36.00" fill="#f97316" opacity="0.35"/>
<rect x="88.88" y="329.00" width="2" height="36.00" fill="#f97316" opacity="0.35"/>
<rect x="89.64" y="347.00" width="2" height="18.00" fill="#f97316" opacity="0.35"/>
<rect x="90.41" y="347.00" width="2" height="18.00" fill="#f97316" opacity="0.35"/>
<rect x="91.17" y="347.00" width="2" height="18.00" fill="#f97316" opacity="0.35"/>
<rect x="91.94" y="347.00" width="2" height="18.00" fill="#f97316" opacity="0.35"/>
<rect x="92.70" y="347.00" width="2" height="18.00" fill="#f97316" opacity="0.35"/>
<rect x="94.23" y="311.00" width="2" height="54.00" fill="#f97316" opacity="0.35"/>
<rect x="95.00" y="329.00" width="2" height="36.00" fill="#f97316" opacity="0.35"/>
<rect x="96.53" y="347.00" width="2" height="18.00" fill="#f97316" opacity="0.35"/>
<rect x="97.29" y="347.00" width="2" height="18.00" fill="#f97316" opacity="0.35"/>
<rect x="98.82" y="347.00" width="2" height="18.00" fill="#f97316" opacity="0.35"/>
<rect x="99.58" y="347.00" width="2" height="18.00" fill="#f97316" opacity="0.35"/>
<rect x="101.11" y="347.00" width="2" height="18.00" fill="#f97316" opacity="0.35"/>
<rect x="103.41" y="311.00" width="2" height="54.00" fill="#f97316" opacity="0.35"/>
<rect x="105.70" y="329.00" width="2" height="36.00" fill="#f97316" opacity="0.35"/>
<rect x="106.47" y="347.00" width="2" height="18.00" fill="#f97316" opacity="0.35"/>
<rect x="107.23" y="347.00" width="2" height="18.00" fill="#f97316" opacity="0.35"/>
<rect x="108.76" y="347.00" width="2" height="18.00" fill="#f97316" opacity="0.35"/>
<rect x="111.82" y="347.00" width="2" height="18.00" fill="#f97316" opacity="0.35"/>
<rect x="112.58" y="347.00" width="2" height="18.00" fill="#f97316" opacity="0.35"/>
<rect x="113.35" y="329.00" width="2" height="36.00" fill="#f97316" opacity="0.35"/>
<rect x="114.11" y="347.00" width="2" height="18.00" fill="#f97316" opacity="0.35"/>
<rect x="114.88" y="329.00" width="2" height="36.00" fill="#f97316" opacity="0.35"/>
<rect x="117.17" y="347.00" width="2" height="18.00" fill="#f97316" opacity="0.35"/>
<rect x="117.93" y="347.00" width="2" height="18.00" fill="#f97316" opacity="0.35"/>
<rect x="118.70" y="347.00" width="2" height="18.00" fill="#f97316" opacity="0.35"/>
<rect x="119.46" y="329.00" width="2" height="36.00" fill="#f97316" opacity="0.35"/>
<rect x="121.76" y="329.00" width="2" height="36.00" fill="#f97316" opacity="0.35"/>
<rect x="123.29" y="347.00" width="2" height="18.00" fill="#f97316" opacity="0.35"/>
<rect x="124.82" y="347.00" width="2" height="18.00" fill="#f97316" opacity="0.35"/>
<rect x="126.35" y="347.00" width="2" height="18.00" fill="#f97316" opacity="0.35"/>
<rect x="127.11" y="347.00" width="2" height="18.00" fill="#f97316" opacity="0.35"/>
<rect x="128.64" y="329.00" width="2" height="36.00" fill="#f97316" opacity="0.35"/>
<rect x="130.17" y="329.00" width="2" height="36.00" fill="#f97316" opacity="0.35"/>
<rect x="131.70" y="347.00" width="2" height="18.00" fill="#f97316" opacity="0.35"/>
<rect x="133.99" y="311.00" width="2" height="54.00" fill="#f97316" opacity="0.35"/>
<rect x="135.52" y="347.00" width="2" height="18.00" fill="#f97316" opacity="0.35"/>
<rect x="136.29" y="347.00" width="2" height="18.00" fill="#f97316" opacity="0.35"/>
<rect x="137.81" y="293.00" width="2" height="72.00" fill="#f97316" opacity="0.35"/>
<rect x="138.58" y="347.00" width="2" height="18.00" fill="#f97316" opacity="0.35"/>
<rect x="140.11" y="347.00" width="2" height="18.00" fill="#f97316" opacity="0.35"/>
<rect x="141.64" y="329.00" width="2" height="36.00" fill="#f97316" opacity="0.35"/>
<rect x="145.46" y="293.00" width="2" height="72.00" fill="#f97316" opacity="0.35"/>
<rect x="146.99" y="329.00" width="2" height="36.00" fill="#f97316" opacity="0.35"/>
<rect x="149.28" y="347.00" width="2" height="18.00" fill="#f97316" opacity="0.35"/>
<rect x="150.81" y="329.00" width="2" height="36.00" fill="#f97316" opacity="0.35"/>
<rect x="151.58" y="347.00" width="2" height="18.00" fill="#f97316" opacity="0.35"/>
<rect x="153.87" y="347.00" width="2" height="18.00" fill="#f97316" opacity="0.35"/>
<rect x="154.64" y="347.00" width="2" height="18.00" fill="#f97316" opacity="0.35"/>
<rect x="156.16" y="347.00" width="2" height="18.00" fill="#f97316" opacity="0.35"/>
<rect x="158.46" y="329.00" width="2" height="36.00" fill="#f97316" opacity="0.35"/>
<rect x="160.75" y="347.00" width="2" height="18.00" fill="#f97316" opacity="0.35"/>
<rect x="162.28" y="347.00" width="2" height="18.00" fill="#f97316" opacity="0.35"/>
<rect x="163.81" y="347.00" width="2" height="18.00" fill="#f97316" opacity="0.35"/>
<rect x="166.87" y="329.00" width="2" height="36.00" fill="#f97316" opacity="0.35"/>
<rect x="167.63" y="329.00" width="2" height="36.00" fill="#f97316" opacity="0.35"/>
<rect x="169.16" y="347.00" width="2" height="18.00" fill="#f97316" opacity="0.35"/>
<rect x="170.69" y="347.00" width="2" height="18.00" fill="#f97316" opacity="0.35"/>
<rect x="171.46" y="347.00" width="2" height="18.00" fill="#f97316" opacity="0.35"/>
<rect x="172.99" y="347.00" width="2" height="18.00" fill="#f97316" opacity="0.35"/>
<rect x="178.34" y="329.00" width="2" height="36.00" fill="#f97316" opacity="0.35"/>
<rect x="180.63" y="347.00" width="2" height="18.00" fill="#f97316" opacity="0.35"/>
<rect x="181.40" y="347.00" width="2" height="18.00" fill="#f97316" opacity="0.35"/>
<rect x="182.93" y="347.00" width="2" height="18.00" fill="#f97316" opacity="0.35"/>
<rect x="183.69" y="347.00" width="2" height="18.00" fill="#f97316" opacity="0.35"/>
<rect x="185.22" y="347.00" width="2" height="18.00" fill="#f97316" opacity="0.35"/>
<rect x="186.75" y="293.00" width="2" height="72.00" fill="#f97316" opacity="0.35"/>
<rect x="190.57" y="347.00" width="2" height="18.00" fill="#f97316" opacity="0.35"/>
<rect x="192.87" y="311.00" width="2" height="54.00" fill="#f97316" opacity="0.35"/>
<rect x="195.16" y="347.00" width="2" height="18.00" fill="#f97316" opacity="0.35"/>
<rect x="197.45" y="347.00" width="2" height="18.00" fill="#f97316" opacity="0.35"/>
<rect x="201.28" y="347.00" width="2" height="18.00" fill="#f97316" opacity="0.35"/>
<rect x="202.04" y="347.00" width="2" height="18.00" fill="#f97316" opacity="0.35"/>
<rect x="205.86" y="347.00" width="2" height="18.00" fill="#f97316" opacity="0.35"/>
<rect x="206.63" y="347.00" width="2" height="18.00" fill="#f97316" opacity="0.35"/>
<rect x="208.16" y="347.00" width="2" height="18.00" fill="#f97316" opacity="0.35"/>
<rect x="211.98" y="329.00" width="2" height="36.00" fill="#f97316" opacity="0.35"/>
<rect x="212.75" y="329.00" width="2" height="36.00" fill="#f97316" opacity="0.35"/>
<rect x="221.16" y="329.00" width="2" height="36.00" fill="#f97316" opacity="0.35"/>
<rect x="224.21" y="347.00" width="2" height="18.00" fill="#f97316" opacity="0.35"/>
<rect x="224.98" y="329.00" width="2" height="36.00" fill="#f97316" opacity="0.35"/>
<rect x="226.51" y="347.00" width="2" height="18.00" fill="#f97316" opacity="0.35"/>
<rect x="229.57" y="347.00" width="2" height="18.00" fill="#f97316" opacity="0.35"/>
<rect x="237.98" y="329.00" width="2" height="36.00" fill="#f97316" opacity="0.35"/>
<rect x="244.09" y="347.00" width="2" height="18.00" fill="#f97316" opacity="0.35"/>
<rect x="250.21" y="347.00" width="2" height="18.00" fill="#f97316" opacity="0.35"/>
<rect x="251.74" y="347.00" width="2" height="18.00" fill="#f97316" opacity="0.35"/>
<rect x="254.03" y="329.00" width="2" height="36.00" fill="#f97316" opacity="0.35"/>
<rect x="257.09" y="347.00" width="2" height="18.00" fill="#f97316" opacity="0.35"/>
<rect x="258.62" y="347.00" width="2" height="18.00" fill="#f97316" opacity="0.35"/>
<rect x="260.92" y="347.00" width="2" height="18.00" fill="#f97316" opacity="0.35"/>
<rect x="262.45" y="347.00" width="2" height="18.00" fill="#f97316" opacity="0.35"/>
<rect x="263.21" y="347.00" width="2" height="18.00" fill="#f97316" opacity="0.35"/>
<rect x="265.50" y="329.00" width="2" height="36.00" fill="#f97316" opacity="0.35"/>
<rect x="267.80" y="347.00" width="2" height="18.00" fill="#f97316" opacity="0.35"/>
<rect x="273.15" y="347.00" width="2" height="18.00" fill="#f97316" opacity="0.35"/>
<rect x="274.68" y="347.00" width="2" height="18.00" fill="#f97316" opacity="0.35"/>
<rect x="280.80" y="347.00" width="2" height="18.00" fill="#f97316" opacity="0.35"/>
<rect x="283.85" y="347.00" width="2" height="18.00" fill="#f97316" opacity="0.35"/>
<rect x="284.62" y="347.00" width="2" height="18.00" fill="#f97316" opacity="0.35"/>
<rect x="289.21" y="347.00" width="2" height="18.00" fill="#f97316" opacity="0.35"/>
<rect x="290.74" y="347.00" width="2" height="18.00" fill="#f97316" opacity="0.35"/>
<rect x="293.03" y="329.00" width="2" height="36.00" fill="#f97316" opacity="0.35"/>
<rect x="294.56" y="347.00" width="2" height="18.00" fill="#f97316" opacity="0.35"/>
<rect x="303.73" y="347.00" width="2" height="18.00" fill="#f97316" opacity="0.35"/>
<rect x="306.79" y="347.00" width="2" height="18.00" fill="#f97316" opacity="0.35"/>
<rect x="308.32" y="347.00" width="2" height="18.00" fill="#f97316" opacity="0.35"/>
<rect x="310.62" y="347.00" width="2" height="18.00" fill="#f97316" opacity="0.35"/>
<rect x="312.91" y="347.00" width="2" height="18.00" fill="#f97316" opacity="0.35"/>
<rect x="317.50" y="347.00" width="2" height="18.00" fill="#f97316" opacity="0.35"/>
<rect x="318.26" y="347.00" width="2" height="18.00" fill="#f97316" opacity="0.35"/>
<rect x="319.03" y="347.00" width="2" height="18.00" fill="#f97316" opacity="0.35"/>
<rect x="322.85" y="347.00" width="2" height="18.00" fill="#f97316" opacity="0.35"/>
<rect x="326.67" y="347.00" width="2" height="18.00" fill="#f97316" opacity="0.35"/>
<rect x="332.79" y="329.00" width="2" height="36.00" fill="#f97316" opacity="0.35"/>
<rect x="334.32" y="347.00" width="2" height="18.00" fill="#f97316" opacity="0.35"/>
<rect x="335.85" y="347.00" width="2" height="18.00" fill="#f97316" opacity="0.35"/>
<rect x="336.61" y="347.00" width="2" height="18.00" fill="#f97316" opacity="0.35"/>
<rect x="337.38" y="347.00" width="2" height="18.00" fill="#f97316" opacity="0.35"/>
<rect x="338.14" y="347.00" width="2" height="18.00" fill="#f97316" opacity="0.35"/>
<rect x="339.67" y="347.00" width="2" height="18.00" fill="#f97316" opacity="0.35"/>
<rect x="341.20" y="347.00" width="2" height="18.00" fill="#f97316" opacity="0.35"/>
<rect x="341.96" y="347.00" width="2" height="18.00" fill="#f97316" opacity="0.35"/>
<rect x="348.85" y="329.00" width="2" height="36.00" fill="#f97316" opacity="0.35"/>
<rect x="349.61" y="347.00" width="2" height="18.00" fill="#f97316" opacity="0.35"/>
<rect x="351.14" y="347.00" width="2" height="18.00" fill="#f97316" opacity="0.35"/>
<rect x="351.90" y="347.00" width="2" height="18.00" fill="#f97316" opacity="0.35"/>
<rect x="356.49" y="347.00" width="2" height="18.00" fill="#f97316" opacity="0.35"/>
<rect x="360.31" y="347.00" width="2" height="18.00" fill="#f97316" opacity="0.35"/>
<rect x="367.20" y="347.00" width="2" height="18.00" fill="#f97316" opacity="0.35"/>
<rect x="368.73" y="329.00" width="2" height="36.00" fill="#f97316" opacity="0.35"/>
<rect x="370.25" y="347.00" width="2" height="18.00" fill="#f97316" opacity="0.35"/>
<rect x="371.78" y="347.00" width="2" height="18.00" fill="#f97316" opacity="0.35"/>
<rect x="377.14" y="347.00" width="2" height="18.00" fill="#f97316" opacity="0.35"/>
<rect x="379.43" y="347.00" width="2" height="18.00" fill="#f97316" opacity="0.35"/>
<rect x="382.49" y="347.00" width="2" height="18.00" fill="#f97316" opacity="0.35"/>
<rect x="384.78" y="329.00" width="2" height="36.00" fill="#f97316" opacity="0.35"/>
<rect x="389.37" y="347.00" width="2" height="18.00" fill="#f97316" opacity="0.35"/>
<rect x="393.19" y="347.00" width="2" height="18.00" fill="#f97316" opacity="0.35"/>
<rect x="394.72" y="347.00" width="2" height="18.00" fill="#f97316" opacity="0.35"/>
<rect x="397.02" y="347.00" width="2" height="18.00" fill="#f97316" opacity="0.35"/>
<rect x="397.78" y="347.00" width="2" height="18.00" fill="#f97316" opacity="0.35"/>
<rect x="403.13" y="347.00" width="2" height="18.00" fill="#f97316" opacity="0.35"/>
<rect x="411.54" y="347.00" width="2" height="18.00" fill="#f97316" opacity="0.35"/>
<rect x="413.07" y="347.00" width="2" height="18.00" fill="#f97316" opacity="0.35"/>
<rect x="413.84" y="347.00" width="2" height="18.00" fill="#f97316" opacity="0.35"/>
<rect x="421.48" y="347.00" width="2" height="18.00" fill="#f97316" opacity="0.35"/>
<rect x="425.31" y="329.00" width="2" height="36.00" fill="#f97316" opacity="0.35"/>
<rect x="426.07" y="329.00" width="2" height="36.00" fill="#f97316" opacity="0.35"/>
<rect x="426.84" y="347.00" width="2" height="18.00" fill="#f97316" opacity="0.35"/>
<rect x="429.89" y="347.00" width="2" height="18.00" fill="#f97316" opacity="0.35"/>
<rect x="430.66" y="347.00" width="2" height="18.00" fill="#f97316" opacity="0.35"/>
<rect x="432.95" y="347.00" width="2" height="18.00" fill="#f97316" opacity="0.35"/>
<rect x="433.72" y="347.00" width="2" height="18.00" fill="#f97316" opacity="0.35"/>
<rect x="435.25" y="329.00" width="2" height="36.00" fill="#f97316" opacity="0.35"/>
<rect x="437.54" y="347.00" width="2" height="18.00" fill="#f97316" opacity="0.35"/>
<rect x="448.24" y="347.00" width="2" height="18.00" fill="#f97316" opacity="0.35"/>
<rect x="452.07" y="311.00" width="2" height="54.00" fill="#f97316" opacity="0.35"/>
<rect x="457.42" y="347.00" width="2" height="18.00" fill="#f97316" opacity="0.35"/>
<rect x="460.48" y="347.00" width="2" height="18.00" fill="#f97316" opacity="0.35"/>
<rect x="462.01" y="347.00" width="2" height="18.00" fill="#f97316" opacity="0.35"/>
<rect x="464.30" y="347.00" width="2" height="18.00" fill="#f97316" opacity="0.35"/>
<rect x="465.07" y="347.00" width="2" height="18.00" fill="#f97316" opacity="0.35"/>
<rect x="469.65" y="347.00" width="2" height="18.00" fill="#f97316" opacity="0.35"/>
<rect x="472.71" y="347.00" width="2" height="18.00" fill="#f97316" opacity="0.35"/>
<rect x="473.48" y="347.00" width="2" height="18.00" fill="#f97316" opacity="0.35"/>
<rect x="475.01" y="347.00" width="2" height="18.00" fill="#f97316" opacity="0.35"/>
<rect x="484.95" y="347.00" width="2" height="18.00" fill="#f97316" opacity="0.35"/>
<rect x="491.83" y="347.00" width="2" height="18.00" fill="#f97316" opacity="0.35"/>
<rect x="494.12" y="347.00" width="2" height="18.00" fill="#f97316" opacity="0.35"/>
<rect x="494.88" y="347.00" width="2" height="18.00" fill="#f97316" opacity="0.35"/>
<rect x="496.41" y="347.00" width="2" height="18.00" fill="#f97316" opacity="0.35"/>
<rect x="498.71" y="347.00" width="2" height="18.00" fill="#f97316" opacity="0.35"/>
<rect x="503.30" y="329.00" width="2" height="36.00" fill="#f97316" opacity="0.35"/>
<rect x="504.06" y="347.00" width="2" height="18.00" fill="#f97316" opacity="0.35"/>
<rect x="507.88" y="347.00" width="2" height="18.00" fill="#f97316" opacity="0.35"/>
<rect x="509.41" y="347.00" width="2" height="18.00" fill="#f97316" opacity="0.35"/>
<rect x="512.47" y="347.00" width="2" height="18.00" fill="#f97316" opacity="0.35"/>
<rect x="514.76" y="347.00" width="2" height="18.00" fill="#f97316" opacity="0.35"/>
<rect x="516.29" y="347.00" width="2" height="18.00" fill="#f97316" opacity="0.35"/>
<rect x="518.59" y="329.00" width="2" height="36.00" fill="#f97316" opacity="0.35"/>
<rect x="523.94" y="329.00" width="2" height="36.00" fill="#f97316" opacity="0.35"/>
<rect x="530.06" y="347.00" width="2" height="18.00" fill="#f97316" opacity="0.35"/>
<rect x="532.35" y="347.00" width="2" height="18.00" fill="#f97316" opacity="0.35"/>
<rect x="534.64" y="347.00" width="2" height="18.00" fill="#f97316" opacity="0.35"/>
<rect x="535.41" y="347.00" width="2" height="18.00" fill="#f97316" opacity="0.35"/>
<rect x="540.00" y="347.00" width="2" height="18.00" fill="#f97316" opacity="0.35"/>
<rect x="546.11" y="329.00" width="2" height="36.00" fill="#f97316" opacity="0.35"/>
<rect x="548.41" y="347.00" width="2" height="18.00" fill="#f97316" opacity="0.35"/>
<rect x="552.99" y="347.00" width="2" height="18.00" fill="#f97316" opacity="0.35"/>
<rect x="555.29" y="347.00" width="2" height="18.00" fill="#f97316" opacity="0.35"/>
<rect x="556.82" y="347.00" width="2" height="18.00" fill="#f97316" opacity="0.35"/>
<rect x="560.64" y="329.00" width="2" height="36.00" fill="#f97316" opacity="0.35"/>
<rect x="561.41" y="347.00" width="2" height="18.00" fill="#f97316" opacity="0.35"/>
<rect x="569.05" y="347.00" width="2" height="18.00" fill="#f97316" opacity="0.35"/>
<rect x="572.87" y="347.00" width="2" height="18.00" fill="#f97316" opacity="0.35"/>
<rect x="582.05" y="347.00" width="2" height="18.00" fill="#f97316" opacity="0.35"/>
<rect x="584.34" y="347.00" width="2" height="18.00" fill="#f97316" opacity="0.35"/>
<rect x="595.81" y="347.00" width="2" height="18.00" fill="#f97316" opacity="0.35"/>
<rect x="596.58" y="347.00" width="2" height="18.00" fill="#f97316" opacity="0.35"/>
<rect x="597.34" y="347.00" width="2" height="18.00" fill="#f97316" opacity="0.35"/>
<rect x="598.87" y="347.00" width="2" height="18.00" fill="#f97316" opacity="0.35"/>
<rect x="601.93" y="347.00" width="2" height="18.00" fill="#f97316" opacity="0.35"/>
<rect x="602.69" y="329.00" width="2" height="36.00" fill="#f97316" opacity="0.35"/>
<rect x="603.46" y="347.00" width="2" height="18.00" fill="#f97316" opacity="0.35"/>
<rect x="606.52" y="329.00" width="2" height="36.00" fill="#f97316" opacity="0.35"/>
<rect x="611.10" y="347.00" width="2" height="18.00" fill="#f97316" opacity="0.35"/>
<rect x="614.16" y="347.00" width="2" height="18.00" fill="#f97316" opacity="0.35"/>
<rect x="614.93" y="347.00" width="2" height="18.00" fill="#f97316" opacity="0.35"/>
<rect x="632.51" y="347.00" width="2" height="18.00" fill="#f97316" opacity="0.35"/>
<rect x="647.81" y="347.00" width="2" height="18.00" fill="#f97316" opacity="0.35"/>
<rect x="656.22" y="347.00" width="2" height="18.00" fill="#f97316" opacity="0.35"/>
<rect x="660.80" y="347.00" width="2" height="18.00" fill="#f97316" opacity="0.35"/>
<rect x="664.63" y="347.00" width="2" height="18.00" fill="#f97316" opacity="0.35"/>
<rect x="666.92" y="347.00" width="2" height="18.00" fill="#f97316" opacity="0.35"/>
<rect x="672.27" y="347.00" width="2" height="18.00" fill="#f97316" opacity="0.35"/>
<rect x="673.04" y="347.00" width="2" height="18.00" fill="#f97316" opacity="0.35"/>
<rect x="688.33" y="347.00" width="2" height="18.00" fill="#f97316" opacity="0.35"/>
<rect x="689.09" y="347.00" width="2" height="18.00" fill="#f97316" opacity="0.35"/>
<rect x="691.39" y="347.00" width="2" height="18.00" fill="#f97316" opacity="0.35"/>
<rect x="700.56" y="329.00" width="2" height="36.00" fill="#f97316" opacity="0.35"/>
<rect x="702.86" y="347.00" width="2" height="18.00" fill="#f97316" opacity="0.35"/>
<rect x="708.21" y="347.00" width="2" height="18.00" fill="#f97316" opacity="0.35"/>
<rect x="712.80" y="347.00" width="2" height="18.00" fill="#f97316" opacity="0.35"/>
<rect x="713.56" y="347.00" width="2" height="18.00" fill="#f97316" opacity="0.35"/>
<rect x="718.15" y="347.00" width="2" height="18.00" fill="#f97316" opacity="0.35"/>
<rect x="721.21" y="347.00" width="2" height="18.00" fill="#f97316" opacity="0.35"/>
<rect x="726.56" y="347.00" width="2" height="18.00" fill="#f97316" opacity="0.35"/>
<rect x="728.09" y="347.00" width="2" height="18.00" fill="#f97316" opacity="0.35"/>
<rect x="731.15" y="347.00" width="2" height="18.00" fill="#f97316" opacity="0.35"/>
<rect x="734.97" y="311.00" width="2" height="54.00" fill="#f97316" opacity="0.35"/>
<rect x="735.74" y="311.00" width="2" height="54.00" fill="#f97316" opacity="0.35"/>
<rect x="741.85" y="347.00" width="2" height="18.00" fill="#f97316" opacity="0.35"/>
<rect x="743.38" y="347.00" width="2" height="18.00" fill="#f97316" opacity="0.35"/>
<rect x="744.91" y="347.00" width="2" height="18.00" fill="#f97316" opacity="0.35"/>
<rect x="745.68" y="347.00" width="2" height="18.00" fill="#f97316" opacity="0.35"/>
<rect x="746.44" y="347.00" width="2" height="18.00" fill="#f97316" opacity="0.35"/>
<rect x="748.73" y="347.00" width="2" height="18.00" fill="#f97316" opacity="0.35"/>
<rect x="754.85" y="347.00" width="2" height="18.00" fill="#f97316" opacity="0.35"/>
<rect x="757.91" y="347.00" width="2" height="18.00" fill="#f97316" opacity="0.35"/>
<rect x="758.67" y="347.00" width="2" height="18.00" fill="#f97316" opacity="0.35"/>
<rect x="760.20" y="329.00" width="2" height="36.00" fill="#f97316" opacity="0.35"/>
<rect x="766.32" y="347.00" width="2" height="18.00" fill="#f97316" opacity="0.35"/>
<rect x="767.85" y="329.00" width="2" height="36.00" fill="#f97316" opacity="0.35"/>
<rect x="773.97" y="347.00" width="2" height="18.00" fill="#f97316" opacity="0.35"/>
<rect x="775.49" y="347.00" width="2" height="18.00" fill="#f97316" opacity="0.35"/>
<rect x="779.32" y="329.00" width="2" height="36.00" fill="#f97316" opacity="0.35"/>
<rect x="780.08" y="347.00" width="2" height="18.00" fill="#f97316" opacity="0.35"/>
<rect x="781.61" y="347.00" width="2" height="18.00" fill="#f97316" opacity="0.35"/>
<rect x="786.20" y="329.00" width="2" height="36.00" fill="#f97316" opacity="0.35"/>
<rect x="786.96" y="347.00" width="2" height="18.00" fill="#f97316" opacity="0.35"/>
<rect x="793.85" y="347.00" width="2" height="18.00" fill="#f97316" opacity="0.35"/>
<rect x="816.78" y="347.00" width="2" height="18.00" fill="#f97316" opacity="0.35"/>
<rect x="822.90" y="347.00" width="2" height="18.00" fill="#f97316" opacity="0.35"/>
<rect x="824.43" y="347.00" width="2" height="18.00" fill="#f97316" opacity="0.35"/>
<rect x="827.49" y="347.00" width="2" height="18.00" fill="#f97316" opacity="0.35"/>
<rect x="829.78" y="347.00" width="2" height="18.00" fill="#f97316" opacity="0.35"/>
<rect x="834.37" y="347.00" width="2" height="18.00" fill="#f97316" opacity="0.35"/>
<rect x="837.43" y="347.00" width="2" height="18.00" fill="#f97316" opacity="0.35"/>
<rect x="843.54" y="347.00" width="2" height="18.00" fill="#f97316" opacity="0.35"/>
<rect x="848.13" y="347.00" width="2" height="18.00" fill="#f97316" opacity="0.35"/>
<rect x="853.48" y="347.00" width="2" height="18.00" fill="#f97316" opacity="0.35"/>
<rect x="859.60" y="347.00" width="2" height="18.00" fill="#f97316" opacity="0.35"/>
<rect x="860.37" y="329.00" width="2" height="36.00" fill="#f97316" opacity="0.35"/>
<rect x="867.25" y="311.00" width="2" height="54.00" fill="#f97316" opacity="0.35"/>
<rect x="871.07" y="347.00" width="2" height="18.00" fill="#f97316" opacity="0.35"/>
<rect x="872.60" y="347.00" width="2" height="18.00" fill="#f97316" opacity="0.35"/>
<rect x="877.19" y="347.00" width="2" height="18.00" fill="#f97316" opacity="0.35"/>
<rect x="879.48" y="347.00" width="2" height="18.00" fill="#f97316" opacity="0.35"/>
<rect x="884.83" y="347.00" width="2" height="18.00" fill="#f97316" opacity="0.35"/>
<rect x="887.13" y="329.00" width="2" height="36.00" fill="#f97316" opacity="0.35"/>
<rect x="892.48" y="329.00" width="2" height="36.00" fill="#f97316" opacity="0.35"/>
<rect x="904.71" y="347.00" width="2" height="18.00" fill="#f97316" opacity="0.35"/>
<rect x="909.30" y="347.00" width="2" height="18.00" fill="#f97316" opacity="0.35"/>
<rect x="946.00" y="347.00" width="2" height="18.00" fill="#f97316" opacity="0.35"/>
<rect x="946.77" y="347.00" width="2" height="18.00" fill="#f97316" opacity="0.35"/>
<polyline points="70.00,364.16 70.76,360.80 71.53,359.96 72.29,358.28 73.06,356.60 73.82,355.76 74.59,354.08 75.35,349.88 76.12,349.04 76.88,348.20 77.65,347.36 78.41,344.01 79.18,344.01 79.94,342.33 80.70,342.33 81.47,341.49 82.23,339.81 83.00,338.97 83.76,338.97 84.53,338.13 85.29,336.45 86.06,335.61 86.82,333.09 87.59,333.09 88.35,333.09 89.12,331.41 89.88,329.73 90.64,328.89 91.41,328.05 92.17,327.21 92.94,326.37 93.70,325.53 94.47,325.53 95.23,323.01 96.00,321.33 96.76,321.33 97.53,320.49 98.29,319.65 99.05,319.65 99.82,318.81 100.58,317.97 101.35,317.97 102.11,317.13 102.88,317.13 103.64,317.13 104.41,314.61 105.17,314.61 105.94,314.61 106.70,312.93 107.47,312.09 108.23,311.25 108.99,311.25 109.76,310.41 110.52,310.41 111.29,310.41 112.05,310.41 112.82,309.57 113.58,308.73 114.35,307.05 115.11,306.21 115.88,304.53 116.64,304.53 117.41,304.53 118.17,303.70 118.93,302.86 119.70,302.02 120.46,300.34 121.23,300.34 121.99,300.34 122.76,298.66 123.52,298.66 124.29,297.82 125.05,297.82 125.82,296.98 126.58,296.98 127.35,296.14 128.11,295.30 128.87,295.30 129.64,293.62 130.40,293.62 131.17,291.94 131.93,291.94 132.70,291.10 133.46,291.10 134.23,291.10 134.99,288.58 135.76,288.58 136.52,287.74 137.29,286.90 138.05,286.90 138.81,283.54 139.58,282.70 140.34,282.70 141.11,281.86 141.87,281.86 142.64,280.18 143.40,280.18 144.17,280.18 144.93,280.18 145.70,280.18 146.46,276.82 147.23,276.82 147.99,275.14 148.75,275.14 149.52,275.14 150.28,274.30 151.05,274.30 151.81,272.62 152.58,271.78 153.34,271.78 154.11,271.78 154.87,270.94 155.64,270.10 156.40,270.10 157.16,269.26 157.93,269.26 158.69,269.26 159.46,267.58 160.22,267.58 160.99,267.58 161.75,266.74 162.52,266.74 163.28,265.90 164.05,265.90 164.81,265.06 165.58,265.06 166.34,265.06 167.10,265.06 167.87,263.39 168.63,261.71 169.40,261.71 170.16,260.87 170.93,260.87 171.69,260.03 172.46,259.19 173.22,259.19 173.99,258.35 174.75,258.35 175.52,258.35 176.28,258.35 177.04,258.35 177.81,258.35 178.57,258.35 179.34,256.67 180.10,256.67 180.87,256.67 181.63,255.83 182.40,254.99 183.16,254.99 183.93,254.15 184.69,253.31 185.46,253.31 186.22,252.47 186.98,252.47 187.75,249.11 188.51,249.11 189.28,249.11 190.04,249.11 190.81,249.11 191.57,248.27 192.34,248.27 193.10,248.27 193.87,245.75 194.63,245.75 195.40,245.75 196.16,244.91 196.92,244.91 197.69,244.91 198.45,244.07 199.22,244.07 199.98,244.07 200.75,244.07 201.51,244.07 202.28,243.23 203.04,242.39 203.81,242.39 204.57,242.39 205.34,242.39 206.10,242.39 206.86,241.55 207.63,240.71 208.39,240.71 209.16,239.87 209.92,239.87 210.69,239.87 211.45,239.87 212.22,239.87 212.98,238.19 213.75,236.51 214.51,236.51 215.27,236.51 216.04,236.51 216.80,236.51 217.57,236.51 218.33,236.51 219.10,236.51 219.86,236.51 220.63,236.51 221.39,236.51 222.16,234.83 222.92,234.83 223.69,234.83 224.45,234.83 225.21,233.99 225.98,232.31 226.74,232.31 227.51,231.47 228.27,231.47 229.04,231.47 229.80,231.47 230.57,230.63 231.33,230.63 232.10,230.63 232.86,230.63 233.63,230.63 234.39,230.63 235.15,230.63 235.92,230.63 236.68,230.63 237.45,230.63 238.21,230.63 238.98,228.95 239.74,228.95 240.51,228.95 241.27,228.95 242.04,228.95 242.80,228.95 243.57,228.95 244.33,228.95 245.09,228.11 245.86,228.11 246.62,228.11 247.39,228.11 248.15,228.11 248.92,228.11 249.68,228.11 250.45,228.11 251.21,227.27 251.98,227.27 252.74,226.43 253.51,226.43 254.27,226.43 255.03,224.75 255.80,224.75 256.56,224.75 257.33,224.75 258.09,223.91 258.86,223.91 259.62,223.07 260.39,223.07 261.15,223.07 261.92,222.24 262.68,222.24 263.45,221.40 264.21,220.56 264.97,220.56 265.74,220.56 266.50,218.88 267.27,218.88 268.03,218.88 268.80,218.04 269.56,218.04 270.33,218.04 271.09,218.04 271.86,218.04 272.62,218.04 273.38,218.04 274.15,217.20 274.91,217.20 275.68,216.36 276.44,216.36 277.21,216.36 277.97,216.36 278.74,216.36 279.50,216.36 280.27,216.36 281.03,216.36 281.80,215.52 282.56,215.52 283.32,215.52 284.09,215.52 284.85,214.68 285.62,213.84 286.38,213.84 287.15,213.84 287.91,213.84 288.68,213.84 289.44,213.84 290.21,213.00 290.97,213.00 291.74,212.16 292.50,212.16 293.26,212.16 294.03,210.48 294.79,210.48 295.56,209.64 296.32,209.64 297.09,209.64 297.85,209.64 298.62,209.64 299.38,209.64 300.15,209.64 300.91,209.64 301.68,209.64 302.44,209.64 303.20,209.64 303.97,209.64 304.73,208.80 305.50,208.80 306.26,208.80 307.03,208.80 307.79,207.96 308.56,207.96 309.32,207.12 310.09,207.12 310.85,207.12 311.62,206.28 312.38,206.28 313.14,206.28 313.91,205.44 314.67,205.44 315.44,205.44 316.20,205.44 316.97,205.44 317.73,205.44 318.50,204.60 319.26,203.76 320.03,202.92 320.79,202.92 321.55,202.92 322.32,202.92 323.08,202.92 323.85,202.08 324.61,202.08 325.38,202.08 326.14,202.08 326.91,202.08 327.67,201.24 328.44,201.24 329.20,201.24 329.97,201.24 330.73,201.24 331.49,201.24 332.26,201.24 333.02,201.24 333.79,199.56 334.55,199.56 335.32,198.72 336.08,198.72 336.85,197.88 337.61,197.04 338.38,196.20 339.14,195.36 339.91,195.36 340.67,194.52 341.43,194.52 342.20,193.68 342.96,192.84 343.73,192.84 344.49,192.84 345.26,192.84 346.02,192.84 346.79,192.84 347.55,192.84 348.32,192.84 349.08,192.84 349.85,191.16 350.61,190.32 351.37,190.32 352.14,189.48 352.90,188.64 353.67,188.64 354.43,188.64 355.20,188.64 355.96,188.64 356.73,188.64 357.49,187.80 358.26,187.80 359.02,187.80 359.79,187.80 360.55,187.80 361.31,186.96 362.08,186.96 362.84,186.96 363.61,186.96 364.37,186.96 365.14,186.96 365.90,186.96 366.67,186.96 367.43,186.96 368.20,186.12 368.96,186.12 369.73,184.44 370.49,184.44 371.25,183.60 372.02,183.60 372.78,182.76 373.55,182.76 374.31,182.76 375.08,182.76 375.84,182.76 376.61,182.76 377.37,182.76 378.14,181.93 378.90,181.93 379.66,181.93 380.43,181.09 381.19,181.09 381.96,181.09 382.72,181.09 383.49,180.25 384.25,180.25 385.02,180.25 385.78,178.57 386.55,178.57 387.31,178.57 388.08,178.57 388.84,178.57 389.60,178.57 390.37,177.73 391.13,177.73 391.90,177.73 392.66,177.73 393.43,177.73 394.19,176.89 394.96,176.89 395.72,176.05 396.49,176.05 397.25,176.05 398.02,175.21 398.78,174.37 399.54,174.37 400.31,174.37 401.07,174.37 401.84,174.37 402.60,174.37 403.37,174.37 404.13,173.53 404.90,173.53 405.66,173.53 406.43,173.53 407.19,173.53 407.96,173.53 408.72,173.53 409.48,173.53 410.25,173.53 411.01,173.53 411.78,173.53 412.54,172.69 413.31,172.69 414.07,171.85 414.84,171.01 415.60,171.01 416.37,171.01 417.13,171.01 417.90,171.01 418.66,171.01 419.42,171.01 420.19,171.01 420.95,171.01 421.72,171.01 422.48,170.17 423.25,170.17 424.01,170.17 424.78,170.17 425.54,170.17 426.31,168.49 427.07,166.81 427.84,165.97 428.60,165.97 429.36,165.97 430.13,165.97 430.89,165.13 431.66,164.29 432.42,164.29 433.19,164.29 433.95,163.45 434.72,162.61 435.48,162.61 436.25,160.93 437.01,160.93 437.77,160.93 438.54,160.09 439.30,160.09 440.07,160.09 440.83,160.09 441.60,160.09 442.36,160.09 443.13,160.09 443.89,160.09 444.66,160.09 445.42,160.09 446.19,160.09 446.95,160.09 447.71,160.09 448.48,160.09 449.24,159.25 450.01,159.25 450.77,159.25 451.54,159.25 452.30,159.25 453.07,156.73 453.83,156.73 454.60,156.73 455.36,156.73 456.13,156.73 456.89,156.73 457.65,156.73 458.42,155.89 459.18,155.89 459.95,155.89 460.71,155.89 461.48,155.05 462.24,155.05 463.01,154.21 463.77,154.21 464.54,154.21 465.30,153.37 466.07,152.53 466.83,152.53 467.59,152.53 468.36,152.53 469.12,152.53 469.89,152.53 470.65,151.69 471.42,151.69 472.18,151.69 472.95,151.69 473.71,150.85 474.48,150.01 475.24,150.01 476.01,149.17 476.77,149.17 477.53,149.17 478.30,149.17 479.06,149.17 479.83,149.17 480.59,149.17 481.36,149.17 482.12,149.17 482.89,149.17 483.65,149.17 484.42,149.17 485.18,149.17 485.95,148.33 486.71,148.33 487.47,148.33 488.24,148.33 489.00,148.33 489.77,148.33 490.53,148.33 491.30,148.33 492.06,148.33 492.83,147.49 493.59,147.49 494.36,147.49 495.12,146.65 495.88,145.81 496.65,145.81 497.41,144.97 498.18,144.97 498.94,144.97 499.71,144.13 500.47,144.13 501.24,144.13 502.00,144.13 502.77,144.13 503.53,144.13 504.30,142.45 505.06,141.61 505.82,141.61 506.59,141.61 507.35,141.61 508.12,141.61 508.88,140.78 509.65,140.78 510.41,139.94 511.18,139.94 511.94,139.94 512.71,139.94 513.47,139.10 514.24,139.10 515.00,139.10 515.76,138.26 516.53,138.26 517.29,137.42 518.06,137.42 518.82,137.42 519.59,135.74 520.35,135.74 521.12,135.74 521.88,135.74 522.65,135.74 523.41,135.74 524.18,135.74 524.94,134.06 525.70,134.06 526.47,134.06 527.23,134.06 528.00,134.06 528.76,134.06 529.53,134.06 530.29,134.06 531.06,133.22 531.82,133.22 532.59,133.22 533.35,132.38 534.12,132.38 534.88,132.38 535.64,131.54 536.41,130.70 537.17,130.70 537.94,130.70 538.70,130.70 539.47,130.70 540.23,130.70 541.00,129.86 541.76,129.86 542.53,129.86 543.29,129.86 544.05,129.86 544.82,129.86 545.58,129.86 546.35,129.86 547.11,128.18 547.88,128.18 548.64,128.18 549.41,127.34 550.17,127.34 550.94,127.34 551.70,127.34 552.47,127.34 553.23,127.34 553.99,126.50 554.76,126.50 555.52,126.50 556.29,125.66 557.05,125.66 557.82,124.82 558.58,124.82 559.35,124.82 560.11,124.82 560.88,124.82 561.64,123.14 562.41,122.30 563.17,122.30 563.93,122.30 564.70,122.30 565.46,122.30 566.23,122.30 566.99,122.30 567.76,122.30 568.52,122.30 569.29,122.30 570.05,121.46 570.82,121.46 571.58,121.46 572.35,121.46 573.11,121.46 573.87,120.62 574.64,120.62 575.40,120.62 576.17,120.62 576.93,120.62 577.70,120.62 578.46,120.62 579.23,120.62 579.99,120.62 580.76,120.62 581.52,120.62 582.29,120.62 583.05,119.78 583.81,119.78 584.58,119.78 585.34,118.94 586.11,118.94 586.87,118.94 587.64,118.94 588.40,118.94 589.17,118.94 589.93,118.94 590.70,118.94 591.46,118.94 592.23,118.94 592.99,118.94 593.75,118.94 594.52,118.94 595.28,118.94 596.05,118.94 596.81,118.10 597.58,117.26 598.34,116.42 599.11,116.42 599.87,115.58 600.64,115.58 601.40,115.58 602.16,115.58 602.93,114.74 603.69,113.06 604.46,112.22 605.22,112.22 605.99,112.22 606.75,112.22 607.52,110.54 608.28,110.54 609.05,110.54 609.81,110.54 610.58,110.54 611.34,110.54 612.10,109.70 612.87,109.70 613.63,109.70 614.40,109.70 615.16,108.86 615.93,108.02 616.69,108.02 617.46,108.02 618.22,108.02 618.99,108.02 619.75,108.02 620.52,108.02 621.28,108.02 622.04,108.02 622.81,108.02 623.57,108.02 624.34,108.02 625.10,108.02 625.87,108.02 626.63,108.02 627.40,108.02 628.16,108.02 628.93,108.02 629.69,108.02 630.46,108.02 631.22,108.02 631.98,108.02 632.75,108.02 633.51,107.18 634.28,107.18 635.04,107.18 635.81,107.18 636.57,107.18 637.34,107.18 638.10,107.18 638.87,107.18 639.63,107.18 640.40,107.18 641.16,107.18 641.92,107.18 642.69,107.18 643.45,107.18 644.22,107.18 644.98,107.18 645.75,107.18 646.51,107.18 647.28,107.18 648.04,107.18 648.81,106.34 649.57,106.34 650.34,106.34 651.10,106.34 651.86,106.34 652.63,106.34 653.39,106.34 654.16,106.34 654.92,106.34 655.69,106.34 656.45,106.34 657.22,105.50 657.98,105.50 658.75,105.50 659.51,105.50 660.27,105.50 661.04,105.50 661.80,104.66 662.57,104.66 663.33,104.66 664.10,104.66 664.86,104.66 665.63,103.82 666.39,103.82 667.16,103.82 667.92,102.98 668.69,102.98 669.45,102.98 670.21,102.98 670.98,102.98 671.74,102.98 672.51,102.98 673.27,102.14 674.04,101.30 674.80,101.30 675.57,101.30 676.33,101.30 677.10,101.30 677.86,101.30 678.63,101.30 679.39,101.30 680.15,101.30 680.92,101.30 681.68,101.30 682.45,101.30 683.21,101.30 683.98,101.30 684.74,101.30 685.51,101.30 686.27,101.30 687.04,101.30 687.80,101.30 688.57,101.30 689.33,100.47 690.09,99.63 690.86,99.63 691.62,99.63 692.39,98.79 693.15,98.79 693.92,98.79 694.68,98.79 695.45,98.79 696.21,98.79 696.98,98.79 697.74,98.79 698.51,98.79 699.27,98.79 700.03,98.79 700.80,98.79 701.56,97.11 702.33,97.11 703.09,97.11 703.86,96.27 704.62,96.27 705.39,96.27 706.15,96.27 706.92,96.27 707.68,96.27 708.45,96.27 709.21,95.43 709.97,95.43 710.74,95.43 711.50,95.43 712.27,95.43 713.03,95.43 713.80,94.59 714.56,93.75 715.33,93.75 716.09,93.75 716.86,93.75 717.62,93.75 718.38,93.75 719.15,92.91 719.91,92.91 720.68,92.91 721.44,92.91 722.21,92.07 722.97,92.07 723.74,92.07 724.50,92.07 725.27,92.07 726.03,92.07 726.80,92.07 727.56,91.23 728.32,91.23 729.09,90.39 729.85,90.39 730.62,90.39 731.38,90.39 732.15,89.55 732.91,89.55 733.68,89.55 734.44,89.55 735.21,89.55 735.97,87.03 736.74,84.51 737.50,84.51 738.26,84.51 739.03,84.51 739.79,84.51 740.56,84.51 741.32,84.51 742.09,84.51 742.85,83.67 743.62,83.67 744.38,82.83 745.15,82.83 745.91,81.99 746.68,81.15 747.44,80.31 748.20,80.31 748.97,80.31 749.73,79.47 750.50,79.47 751.26,79.47 752.03,79.47 752.79,79.47 753.56,79.47 754.32,79.47 755.09,79.47 755.85,78.63 756.62,78.63 757.38,78.63 758.14,78.63 758.91,77.79 759.67,76.95 760.44,76.95 761.20,75.27 761.97,75.27 762.73,75.27 763.50,75.27 764.26,75.27 765.03,75.27 765.79,75.27 766.55,75.27 767.32,74.43 768.08,74.43 768.85,72.75 769.61,72.75 770.38,72.75 771.14,72.75 771.91,72.75 772.67,72.75 773.44,72.75 774.20,72.75 774.97,71.91 775.73,71.91 776.49,71.07 777.26,71.07 778.02,71.07 778.79,71.07 779.55,71.07 780.32,69.39 781.08,68.55 781.85,68.55 782.61,67.71 783.38,67.71 784.14,67.71 784.91,67.71 785.67,67.71 786.43,67.71 787.20,66.03 787.96,65.19 788.73,65.19 789.49,65.19 790.26,65.19 791.02,65.19 791.79,65.19 792.55,65.19 793.32,65.19 794.08,65.19 794.85,64.35 795.61,64.35 796.37,64.35 797.14,64.35 797.90,64.35 798.67,64.35 799.43,64.35 800.20,64.35 800.96,64.35 801.73,64.35 802.49,64.35 803.26,64.35 804.02,64.35 804.79,64.35 805.55,64.35 806.31,64.35 807.08,64.35 807.84,64.35 808.61,64.35 809.37,64.35 810.14,64.35 810.90,64.35 811.67,64.35 812.43,64.35 813.20,64.35 813.96,64.35 814.73,64.35 815.49,64.35 816.25,64.35 817.02,64.35 817.78,63.51 818.55,63.51 819.31,63.51 820.08,63.51 820.84,63.51 821.61,63.51 822.37,63.51 823.14,63.51 823.90,62.67 824.66,62.67 825.43,61.83 826.19,61.83 826.96,61.83 827.72,61.83 828.49,60.99 829.25,60.99 830.02,60.99 830.78,60.16 831.55,60.16 832.31,60.16 833.08,60.16 833.84,60.16 834.60,60.16 835.37,59.32 836.13,59.32 836.90,59.32 837.66,59.32 838.43,58.48 839.19,58.48 839.96,58.48 840.72,58.48 841.49,58.48 842.25,58.48 843.02,58.48 843.78,58.48 844.54,57.64 845.31,57.64 846.07,57.64 846.84,57.64 847.60,57.64 848.37,57.64 849.13,56.80 849.90,56.80 850.66,56.80 851.43,56.80 852.19,56.80 852.96,56.80 853.72,56.80 854.48,55.96 855.25,55.96 856.01,55.96 856.78,55.96 857.54,55.96 858.31,55.96 859.07,55.96 859.84,55.96 860.60,55.12 861.37,53.44 862.13,53.44 862.90,53.44 863.66,53.44 864.42,53.44 865.19,53.44 865.95,53.44 866.72,53.44 867.48,53.44 868.25,50.92 869.01,50.92 869.78,50.92 870.54,50.92 871.31,50.92 872.07,50.08 872.84,50.08 873.60,49.24 874.36,49.24 875.13,49.24 875.89,49.24 876.66,49.24 877.42,49.24 878.19,48.40 878.95,48.40 879.72,48.40 880.48,47.56 881.25,47.56 882.01,47.56 882.77,47.56 883.54,47.56 884.30,47.56 885.07,47.56 885.83,46.72 886.60,46.72 887.36,46.72 888.13,45.04 888.89,45.04 889.66,45.04 890.42,45.04 891.19,45.04 891.95,45.04 892.71,45.04 893.48,43.36 894.24,43.36 895.01,43.36 895.77,43.36 896.54,43.36 897.30,43.36 898.07,43.36 898.83,43.36 899.60,43.36 900.36,43.36 901.13,43.36 901.89,43.36 902.65,43.36 903.42,43.36 904.18,43.36 904.95,43.36 905.71,42.52 906.48,42.52 907.24,42.52 908.01,42.52 908.77,42.52 909.54,42.52 910.30,41.68 911.07,41.68 911.83,41.68 912.59,41.68 913.36,41.68 914.12,41.68 914.89,41.68 915.65,41.68 916.42,41.68 917.18,41.68 917.95,41.68 918.71,41.68 919.48,41.68 920.24,41.68 921.01,41.68 921.77,41.68 922.53,41.68 923.30,41.68 924.06,41.68 924.83,41.68 925.59,41.68 926.36,41.68 927.12,41.68 927.89,41.68 928.65,41.68 929.42,41.68 930.18,41.68 930.95,41.68 931.71,41.68 932.47,41.68 933.24,41.68 934.00,41.68 934.77,41.68 935.53,41.68 936.30,41.68 937.06,41.68 937.83,41.68 938.59,41.68 939.36,41.68 940.12,41.68 940.88,41.68 941.65,41.68 942.41,41.68 943.18,41.68 943.94,41.68 944.71,41.68 945.47,41.68 946.24,41.68 947.00,40.84 947.77,40.00 948.53,40.00 949.30,40.00 950.06,40.00 950.82,40.00 951.59,40.00 952.35,40.00 953.12,40.00 953.88,40.00 954.65,40.00 955.41,40.00 956.18,40.00 956.94,40.00 957.71,40.00 958.47,40.00 959.24,40.00 960.00,40.00" fill="none" stroke="#2563eb" stroke-width="2"/>
<text x="78" y="58" font-family="Arial" font-size="12" fill="#2563eb">blue: cumulative relations</text>
<text x="78" y="76" font-family="Arial" font-size="12" fill="#ea580c">orange bars: new relations at idx</text>
</svg>