<svg xmlns="http://www.w3.org/2000/svg" width="1000" height="430" viewBox="0 0 1000 430">
<rect width="100%" height="100%" fill="white"/>
<text x="500.0" y="24" text-anchor="middle" font-family="Arial" font-size="18" font-weight="700">Growth Curve: case4_detail_strict</text>
<line x1="70" y1="365" x2="960" y2="365" stroke="#111827"/>
<line x1="70" y1="40" x2="70" y2="365" stroke="#111827"/>
<text x="515.0" y="412" text-anchor="middle" font-family="Arial" font-size="13">sample idx</text>
<line x1="70" y1="365.00" x2="960" y2="365.00" stroke="#e5e7eb"/>
<text x="62" y="369.00" text-anchor="end" font-family="Arial" font-size="11">0</text>
<line x1="70" y1="299.87" x2="960" y2="299.87" stroke="#e5e7eb"/>
<text x="62" y="303.87" text-anchor="end" font-family="Arial" font-size="11">97</text>
<line x1="70" y1="234.73" x2="960" y2="234.73" stroke="#e5e7eb"/>
<text x="62" y="238.73" text-anchor="end" font-family="Arial" font-size="11">194</text>
<line x1="70" y1="170.27" x2="960" y2="170.27" stroke="#e5e7eb"/>
<text x="62" y="174.27" text-anchor="end" font-family="Arial" font-size="11">290</text>
<line x1="70" y1="105.13" x2="960" y2="105.13" stroke="#e5e7eb"/>
<text x="62" y="109.13" text-anchor="end" font-family="Arial" font-size="11">387</text>
<line x1="70" y1="40.00" x2="960" y2="40.00" stroke="#e5e7eb"/>
<text x="62" y="44.00" text-anchor="end" font-family="Arial" font-size="11">484</text>
<rect x="69.00" y="350.00" width="2" height="15.00" fill="#f97316" opacity="0.35"/>
<rect x="69.76" y="275.00" width="2" height="90.00" fill="#f97316" opacity="0.35"/>
<rect x="70.53" y="335.00" width="2" height="30.00" fill="#f97316" opacity="0.35"/>
<rect x="71.29" y="305.00" width="2" height="60.00" fill="#f97316" opacity="0.35"/>
<rect x="72.06" y="320.00" width="2" height="45.00" fill="#f97316" opacity="0.35"/>
<rect x="72.82" y="335.00" width="2" height="30.00" fill="#f97316" opacity="0.35"/>
<rect x="73.59" y="320.00" width="2" height="45.00" fill="#f97316" opacity="0.35"/>
<rect x="74.35" y="290.00" width="2" height="75.00" fill="#f97316" opacity="0.35"/>
<rect x="76.65" y="335.00" width="2" height="30.00" fill="#f97316" opacity="0.35"/>
<rect x="77.41" y="320.00" width="2" height="45.00" fill="#f97316" opacity="0.35"/>
<rect x="78.94" y="320.00" width="2" height="45.00" fill="#f97316" opacity="0.35"/>
<rect x="79.70" y="350.00" width="2" height="15.00" fill="#f97316" opacity="0.35"/>
<rect x="80.47" y="350.00" width="2" height="15.00" fill="#f97316" opacity="0.35"/>
<rect x="81.23" y="320.00" width="2" height="45.00" fill="#f97316" opacity="0.35"/>
<rect x="82.00" y="335.00" width="2" height="30.00" fill="#f97316" opacity="0.35"/>
<rect x="83.53" y="320.00" width="2" height="45.00" fill="#f97316" opacity="0.35"/>
<rect x="84.29" y="335.00" width="2" height="30.00" fill="#f97316" opacity="0.35"/>
<rect x="85.82" y="320.00" width="2" height="45.00" fill="#f97316" opacity="0.35"/>
<rect x="87.35" y="320.00" width="2" height="45.00" fill="#f97316" opacity="0.35"/>
<rect x="88.12" y="335.00" width="2" height="30.00" fill="#f97316" opacity="0.35"/>
<rect x="88.88" y="350.00" width="2" height="15.00" fill="#f97316" opacity="0.35"/>
<rect x="89.64" y="335.00" width="2" height="30.00" fill="#f97316" opacity="0.35"/>
<rect x="90.41" y="320.00" width="2" height="45.00" fill="#f97316" opacity="0.35"/>
<rect x="91.17" y="335.00" width="2" height="30.00" fill="#f97316" opacity="0.35"/>
<rect x="91.94" y="320.00" width="2" height="45.00" fill="#f97316" opacity="0.35"/>
<rect x="94.23" y="275.00" width="2" height="90.00" fill="#f97316" opacity="0.35"/>
<rect x="95.00" y="350.00" width="2" height="15.00" fill="#f97316" opacity="0.35"/>
<rect x="96.53" y="350.00" width="2" height="15.00" fill="#f97316" opacity="0.35"/>
<rect x="98.05" y="350.00" width="2" height="15.00" fill="#f97316" opacity="0.35"/>
<rect x="98.82" y="320.00" width="2" height="45.00" fill="#f97316" opacity="0.35"/>
<rect x="99.58" y="335.00" width="2" height="30.00" fill="#f97316" opacity="0.35"/>
<rect x="100.35" y="350.00" width="2" height="15.00" fill="#f97316" opacity="0.35"/>
<rect x="101.11" y="335.00" width="2" height="30.00" fill="#f97316" opacity="0.35"/>
<rect x="104.17" y="350.00" width="2" height="15.00" fill="#f97316" opacity="0.35"/>
<rect x="104.94" y="350.00" width="2" height="15.00" fill="#f97316" opacity="0.35"/>
<rect x="105.70" y="335.00" width="2" height="30.00" fill="#f97316" opacity="0.35"/>
<rect x="106.47" y="350.00" width="2" height="15.00" fill="#f97316" opacity="0.35"/>
<rect x="107.23" y="350.00" width="2" height="15.00" fill="#f97316" opacity="0.35"/>
<rect x="107.99" y="335.00" width="2" height="30.00" fill="#f97316" opacity="0.35"/>
<rect x="108.76" y="350.00" width="2" height="15.00" fill="#f97316" opacity="0.35"/>
<rect x="109.52" y="335.00" width="2" height="30.00" fill="#f97316" opacity="0.35"/>
<rect x="111.82" y="335.00" width="2" height="30.00" fill="#f97316" opacity="0.35"/>
<rect x="113.35" y="350.00" width="2" height="15.00" fill="#f97316" opacity="0.35"/>
<rect x="114.88" y="335.00" width="2" height="30.00" fill="#f97316" opacity="0.35"/>
<rect x="115.64" y="350.00" width="2" height="15.00" fill="#f97316" opacity="0.35"/>
<rect x="116.41" y="350.00" width="2" height="15.00" fill="#f97316" opacity="0.35"/>
<rect x="117.17" y="350.00" width="2" height="15.00" fill="#f97316" opacity="0.35"/>
<rect x="117.93" y="350.00" width="2" height="15.00" fill="#f97316" opacity="0.35"/>
<rect x="119.46" y="320.00" width="2" height="45.00" fill="#f97316" opacity="0.35"/>
<rect x="120.23" y="335.00" width="2" height="30.00" fill="#f97316" opacity="0.35"/>
<rect x="121.76" y="335.00" width="2" height="30.00" fill="#f97316" opacity="0.35"/>
<rect x="122.52" y="350.00" width="2" height="15.00" fill="#f97316" opacity="0.35"/>
<rect x="124.05" y="335.00" width="2" height="30.00" fill="#f97316" opacity="0.35"/>
<rect x="124.82" y="350.00" width="2" height="15.00" fill="#f97316" opacity="0.35"/>
<rect x="125.58" y="350.00" width="2" height="15.00" fill="#f97316" opacity="0.35"/>
<rect x="127.11" y="335.00" width="2" height="30.00" fill="#f97316" opacity="0.35"/>
<rect x="128.64" y="350.00" width="2" height="15.00" fill="#f97316" opacity="0.35"/>
<rect x="131.70" y="335.00" width="2" height="30.00" fill="#f97316" opacity="0.35"/>
<rect x="133.99" y="335.00" width="2" height="30.00" fill="#f97316" opacity="0.35"/>
<rect x="136.29" y="320.00" width="2" height="45.00" fill="#f97316" opacity="0.35"/>
<rect x="137.81" y="320.00" width="2" height="45.00" fill="#f97316" opacity="0.35"/>
<rect x="138.58" y="320.00" width="2" height="45.00" fill="#f97316" opacity="0.35"/>
<rect x="140.11" y="350.00" width="2" height="15.00" fill="#f97316" opacity="0.35"/>
<rect x="141.64" y="350.00" width="2" height="15.00" fill="#f97316" opacity="0.35"/>
<rect x="144.70" y="350.00" width="2" height="15.00" fill="#f97316" opacity="0.35"/>
<rect x="145.46" y="335.00" width="2" height="30.00" fill="#f97316" opacity="0.35"/>
<rect x="147.75" y="350.00" width="2" height="15.00" fill="#f97316" opacity="0.35"/>
<rect x="148.52" y="320.00" width="2" height="45.00" fill="#f97316" opacity="0.35"/>
<rect x="149.28" y="350.00" width="2" height="15.00" fill="#f97316" opacity="0.35"/>
<rect x="150.81" y="350.00" width="2" height="15.00" fill="#f97316" opacity="0.35"/>
<rect x="151.58" y="350.00" width="2" height="15.00" fill="#f97316" opacity="0.35"/>
<rect x="152.34" y="350.00" width="2" height="15.00" fill="#f97316" opacity="0.35"/>
<rect x="153.87" y="320.00" width="2" height="45.00" fill="#f97316" opacity="0.35"/>
<rect x="154.64" y="320.00" width="2" height="45.00" fill="#f97316" opacity="0.35"/>
<rect x="156.16" y="320.00" width="2" height="45.00" fill="#f97316" opacity="0.35"/>
<rect x="158.46" y="350.00" width="2" height="15.00" fill="#f97316" opacity="0.35"/>
<rect x="160.75" y="350.00" width="2" height="15.00" fill="#f97316" opacity="0.35"/>
<rect x="162.28" y="350.00" width="2" height="15.00" fill="#f97316" opacity="0.35"/>
<rect x="163.81" y="350.00" width="2" height="15.00" fill="#f97316" opacity="0.35"/>
<rect x="166.87" y="335.00" width="2" height="30.00" fill="#f97316" opacity="0.35"/>
<rect x="167.63" y="350.00" width="2" height="15.00" fill="#f97316" opacity="0.35"/>
<rect x="169.16" y="320.00" width="2" height="45.00" fill="#f97316" opacity="0.35"/>
<rect x="169.93" y="350.00" width="2" height="15.00" fill="#f97316" opacity="0.35"/>
<rect x="170.69" y="350.00" width="2" height="15.00" fill="#f97316" opacity="0.35"/>
<rect x="172.99" y="350.00" width="2" height="15.00" fill="#f97316" opacity="0.35"/>
<rect x="173.75" y="350.00" width="2" height="15.00" fill="#f97316" opacity="0.35"/>
<rect x="174.52" y="350.00" width="2" height="15.00" fill="#f97316" opacity="0.35"/>
<rect x="176.81" y="350.00" width="2" height="15.00" fill="#f97316" opacity="0.35"/>
<rect x="178.34" y="350.00" width="2" height="15.00" fill="#f97316" opacity="0.35"/>
<rect x="180.63" y="335.00" width="2" height="30.00" fill="#f97316" opacity="0.35"/>
<rect x="181.40" y="350.00" width="2" height="15.00" fill="#f97316" opacity="0.35"/>
<rect x="182.93" y="350.00" width="2" height="15.00" fill="#f97316" opacity="0.35"/>
<rect x="183.69" y="350.00" width="2" height="15.00" fill="#f97316" opacity="0.35"/>
<rect x="184.46" y="350.00" width="2" height="15.00" fill="#f97316" opacity="0.35"/>
<rect x="185.22" y="335.00" width="2" height="30.00" fill="#f97316" opacity="0.35"/>
<rect x="186.75" y="320.00" width="2" height="45.00" fill="#f97316" opacity="0.35"/>
<rect x="188.28" y="350.00" width="2" height="15.00" fill="#f97316" opacity="0.35"/>
<rect x="192.87" y="350.00" width="2" height="15.00" fill="#f97316" opacity="0.35"/>
<rect x="195.16" y="335.00" width="2" height="30.00" fill="#f97316" opacity="0.35"/>
<rect x="196.69" y="335.00" width="2" height="30.00" fill="#f97316" opacity="0.35"/>
<rect x="199.75" y="335.00" width="2" height="30.00" fill="#f97316" opacity="0.35"/>
<rect x="200.51" y="350.00" width="2" height="15.00" fill="#f97316" opacity="0.35"/>
<rect x="201.28" y="335.00" width="2" height="30.00" fill="#f97316" opacity="0.35"/>
<rect x="202.04" y="350.00" width="2" height="15.00" fill="#f97316" opacity="0.35"/>
<rect x="205.86" y="335.00" width="2" height="30.00" fill="#f97316" opacity="0.35"/>
<rect x="206.63" y="350.00" width="2" height="15.00" fill="#f97316" opacity="0.35"/>
<rect x="208.16" y="350.00" width="2" height="15.00" fill="#f97316" opacity="0.35"/>
<rect x="208.92" y="350.00" width="2" height="15.00" fill="#f97316" opacity="0.35"/>
<rect x="211.22" y="350.00" width="2" height="15.00" fill="#f97316" opacity="0.35"/>
<rect x="211.98" y="320.00" width="2" height="45.00" fill="#f97316" opacity="0.35"/>
<rect x="213.51" y="350.00" width="2" height="15.00" fill="#f97316" opacity="0.35"/>
<rect x="214.27" y="350.00" width="2" height="15.00" fill="#f97316" opacity="0.35"/>
<rect x="215.80" y="350.00" width="2" height="15.00" fill="#f97316" opacity="0.35"/>
<rect x="216.57" y="350.00" width="2" height="15.00" fill="#f97316" opacity="0.35"/>
<rect x="218.86" y="350.00" width="2" height="15.00" fill="#f97316" opacity="0.35"/>
<rect x="220.39" y="350.00" width="2" height="15.00" fill="#f97316" opacity="0.35"/>
<rect x="221.16" y="335.00" width="2" height="30.00" fill="#f97316" opacity="0.35"/>
<rect x="221.92" y="350.00" width="2" height="15.00" fill="#f97316" opacity="0.35"/>
<rect x="224.21" y="350.00" width="2" height="15.00" fill="#f97316" opacity="0.35"/>
<rect x="228.04" y="350.00" width="2" height="15.00" fill="#f97316" opacity="0.35"/>
<rect x="234.92" y="335.00" width="2" height="30.00" fill="#f97316" opacity="0.35"/>
<rect x="237.98" y="335.00" width="2" height="30.00" fill="#f97316" opacity="0.35"/>
<rect x="241.04" y="350.00" width="2" height="15.00" fill="#f97316" opacity="0.35"/>
<rect x="250.21" y="350.00" width="2" height="15.00" fill="#f97316" opacity="0.35"/>
<rect x="253.27" y="350.00" width="2" height="15.00" fill="#f97316" opacity="0.35"/>
<rect x="254.03" y="335.00" width="2" height="30.00" fill="#f97316" opacity="0.35"/>
<rect x="257.09" y="350.00" width="2" height="15.00" fill="#f97316" opacity="0.35"/>
<rect x="257.86" y="350.00" width="2" height="15.00" fill="#f97316" opacity="0.35"/>
<rect x="259.39" y="350.00" width="2" height="15.00" fill="#f97316" opacity="0.35"/>
<rect x="260.15" y="335.00" width="2" height="30.00" fill="#f97316" opacity="0.35"/>
<rect x="260.92" y="350.00" width="2" height="15.00" fill="#f97316" opacity="0.35"/>
<rect x="262.45" y="350.00" width="2" height="15.00" fill="#f97316" opacity="0.35"/>
<rect x="263.21" y="350.00" width="2" height="15.00" fill="#f97316" opacity="0.35"/>
<rect x="264.74" y="350.00" width="2" height="15.00" fill="#f97316" opacity="0.35"/>
<rect x="265.50" y="350.00" width="2" height="15.00" fill="#f97316" opacity="0.35"/>
<rect x="267.80" y="350.00" width="2" height="15.00" fill="#f97316" opacity="0.35"/>
<rect x="274.68" y="350.00" width="2" height="15.00" fill="#f97316" opacity="0.35"/>
<rect x="281.56" y="350.00" width="2" height="15.00" fill="#f97316" opacity="0.35"/>
<rect x="283.09" y="350.00" width="2" height="15.00" fill="#f97316" opacity="0.35"/>
<rect x="283.85" y="335.00" width="2" height="30.00" fill="#f97316" opacity="0.35"/>
<rect x="284.62" y="350.00" width="2" height="15.00" fill="#f97316" opacity="0.35"/>
<rect x="286.15" y="320.00" width="2" height="45.00" fill="#f97316" opacity="0.35"/>
<rect x="294.56" y="350.00" width="2" height="15.00" fill="#f97316" opacity="0.35"/>
<rect x="295.32" y="350.00" width="2" height="15.00" fill="#f97316" opacity="0.35"/>
<rect x="300.68" y="350.00" width="2" height="15.00" fill="#f97316" opacity="0.35"/>
<rect x="302.20" y="350.00" width="2" height="15.00" fill="#f97316" opacity="0.35"/>
<rect x="303.73" y="350.00" width="2" height="15.00" fill="#f97316" opacity="0.35"/>
<rect x="306.79" y="350.00" width="2" height="15.00" fill="#f97316" opacity="0.35"/>
<rect x="312.14" y="350.00" width="2" height="15.00" fill="#f97316" opacity="0.35"/>
<rect x="312.91" y="350.00" width="2" height="15.00" fill="#f97316" opacity="0.35"/>
<rect x="317.50" y="350.00" width="2" height="15.00" fill="#f97316" opacity="0.35"/>
<rect x="318.26" y="335.00" width="2" height="30.00" fill="#f97316" opacity="0.35"/>
<rect x="320.55" y="350.00" width="2" height="15.00" fill="#f97316" opacity="0.35"/>
<rect x="322.85" y="350.00" width="2" height="15.00" fill="#f97316" opacity="0.35"/>
<rect x="325.91" y="350.00" width="2" height="15.00" fill="#f97316" opacity="0.35"/>
<rect x="326.67" y="350.00" width="2" height="15.00" fill="#f97316" opacity="0.35"/>
<rect x="328.97" y="350.00" width="2" height="15.00" fill="#f97316" opacity="0.35"/>
<rect x="332.02" y="335.00" width="2" height="30.00" fill="#f97316" opacity="0.35"/>
<rect x="332.79" y="335.00" width="2" height="30.00" fill="#f97316" opacity="0.35"/>
<rect x="335.85" y="350.00" width="2" height="15.00" fill="#f97316" opacity="0.35"/>
<rect x="336.61" y="350.00" width="2" height="15.00" fill="#f97316" opacity="0.35"/>
<rect x="337.38" y="350.00" width="2" height="15.00" fill="#f97316" opacity="0.35"/>
<rect x="339.67" y="350.00" width="2" height="15.00" fill="#f97316" opacity="0.35"/>
<rect x="340.43" y="350.00" width="2" height="15.00" fill="#f97316" opacity="0.35"/>
<rect x="341.20" y="350.00" width="2" height="15.00" fill="#f97316" opacity="0.35"/>
<rect x="341.96" y="350.00" width="2" height="15.00" fill="#f97316" opacity="0.35"/>
<rect x="344.26" y="350.00" width="2" height="15.00" fill="#f97316" opacity="0.35"/>
<rect x="345.02" y="350.00" width="2" height="15.00" fill="#f97316" opacity="0.35"/>
<rect x="347.32" y="350.00" width="2" height="15.00" fill="#f97316" opacity="0.35"/>
<rect x="348.08" y="350.00" width="2" height="15.00" fill="#f97316" opacity="0.35"/>
<rect x="348.85" y="350.00" width="2" height="15.00" fill="#f97316" opacity="0.35"/>
<rect x="349.61" y="350.00" width="2" height="15.00" fill="#f97316" opacity="0.35"/>
<rect x="351.14" y="335.00" width="2" height="30.00" fill="#f97316" opacity="0.35"/>
<rect x="354.96" y="350.00" width="2" height="15.00" fill="#f97316" opacity="0.35"/>
<rect x="355.73" y="350.00" width="2" height="15.00" fill="#f97316" opacity="0.35"/>
<rect x="358.79" y="350.00" width="2" height="15.00" fill="#f97316" opacity="0.35"/>
<rect x="362.61" y="350.00" width="2" height="15.00" fill="#f97316" opacity="0.35"/>
<rect x="364.14" y="335.00" width="2" height="30.00" fill="#f97316" opacity="0.35"/>
<rect x="365.67" y="350.00" width="2" height="15.00" fill="#f97316" opacity="0.35"/>
<rect x="371.02" y="350.00" width="2" height="15.00" fill="#f97316" opacity="0.35"/>
<rect x="374.08" y="350.00" width="2" height="15.00" fill="#f97316" opacity="0.35"/>
<rect x="374.84" y="335.00" width="2" height="30.00" fill="#f97316" opacity="0.35"/>
<rect x="377.14" y="350.00" width="2" height="15.00" fill="#f97316" opacity="0.35"/>
<rect x="379.43" y="350.00" width="2" height="15.00" fill="#f97316" opacity="0.35"/>
<rect x="381.72" y="350.00" width="2" height="15.00" fill="#f97316" opacity="0.35"/>
<rect x="382.49" y="350.00" width="2" height="15.00" fill="#f97316" opacity="0.35"/>
<rect x="387.08" y="350.00" width="2" height="15.00" fill="#f97316" opacity="0.35"/>
<rect x="388.60" y="350.00" width="2" height="15.00" fill="#f97316" opacity="0.35"/>
<rect x="390.90" y="350.00" width="2" height="15.00" fill="#f97316" opacity="0.35"/>
<rect x="393.96" y="350.00" width="2" height="15.00" fill="#f97316" opacity="0.35"/>
<rect x="395.49" y="350.00" width="2" height="15.00" fill="#f97316" opacity="0.35"/>
<rect x="397.02" y="335.00" width="2" height="30.00" fill="#f97316" opacity="0.35"/>
<rect x="410.78" y="350.00" width="2" height="15.00" fill="#f97316" opacity="0.35"/>
<rect x="411.54" y="350.00" width="2" height="15.00" fill="#f97316" opacity="0.35"/>
<rect x="412.31" y="350.00" width="2" height="15.00" fill="#f97316" opacity="0.35"/>
<rect x="413.07" y="350.00" width="2" height="15.00" fill="#f97316" opacity="0.35"/>
<rect x="419.19" y="350.00" width="2" height="15.00" fill="#f97316" opacity="0.35"/>
<rect x="421.48" y="350.00" width="2" height="15.00" fill="#f97316" opacity="0.35"/>
<rect x="423.01" y="350.00" width="2" height="15.00" fill="#f97316" opacity="0.35"/>
<rect x="424.54" y="350.00" width="2" height="15.00" fill="#f97316" opacity="0.35"/>
<rect x="425.31" y="350.00" width="2" height="15.00" fill="#f97316" opacity="0.35"/>
<rect x="429.89" y="350.00" width="2" height="15.00" fill="#f97316" opacity="0.35"/>
<rect x="432.95" y="350.00" width="2" height="15.00" fill="#f97316" opacity="0.35"/>
<rect x="433.72" y="335.00" width="2" height="30.00" fill="#f97316" opacity="0.35"/>
<rect x="435.25" y="335.00" width="2" height="30.00" fill="#f97316" opacity="0.35"/>
<rect x="439.83" y="335.00" width="2" height="30.00" fill="#f97316" opacity="0.35"/>
<rect x="445.19" y="350.00" width="2" height="15.00" fill="#f97316" opacity="0.35"/>
<rect x="445.95" y="350.00" width="2" height="15.00" fill="#f97316" opacity="0.35"/>
<rect x="446.71" y="350.00" width="2" height="15.00" fill="#f97316" opacity="0.35"/>
<rect x="449.77" y="350.00" width="2" height="15.00" fill="#f97316" opacity="0.35"/>
<rect x="450.54" y="350.00" width="2" height="15.00" fill="#f97316" opacity="0.35"/>
<rect x="452.07" y="350.00" width="2" height="15.00" fill="#f97316" opacity="0.35"/>
<rect x="452.83" y="350.00" width="2" height="15.00" fill="#f97316" opacity="0.35"/>
<rect x="455.13" y="350.00" width="2" height="15.00" fill="#f97316" opacity="0.35"/>
<rect x="465.07" y="350.00" width="2" height="15.00" fill="#f97316" opacity="0.35"/>
<rect x="468.12" y="350.00" width="2" height="15.00" fill="#f97316" opacity="0.35"/>
<rect x="468.89" y="350.00" width="2" height="15.00" fill="#f97316" opacity="0.35"/>
<rect x="469.65" y="350.00" width="2" height="15.00" fill="#f97316" opacity="0.35"/>
<rect x="472.71" y="335.00" width="2" height="30.00" fill="#f97316" opacity="0.35"/>
<rect x="494.88" y="335.00" width="2" height="30.00" fill="#f97316" opacity="0.35"/>
<rect x="495.65" y="350.00" width="2" height="15.00" fill="#f97316" opacity="0.35"/>
<rect x="497.94" y="350.00" width="2" height="15.00" fill="#f97316" opacity="0.35"/>
<rect x="498.71" y="335.00" width="2" height="30.00" fill="#f97316" opacity="0.35"/>
<rect x="499.47" y="350.00" width="2" height="15.00" fill="#f97316" opacity="0.35"/>
<rect x="504.06" y="350.00" width="2" height="15.00" fill="#f97316" opacity="0.35"/>
<rect x="506.35" y="350.00" width="2" height="15.00" fill="#f97316" opacity="0.35"/>
<rect x="514.00" y="350.00" width="2" height="15.00" fill="#f97316" opacity="0.35"/>
<rect x="516.29" y="350.00" width="2" height="15.00" fill="#f97316" opacity="0.35"/>
<rect x="518.59" y="350.00" width="2" height="15.00" fill="#f97316" opacity="0.35"/>
<rect x="527.00" y="350.00" width="2" height="15.00" fill="#f97316" opacity="0.35"/>
<rect x="533.12" y="350.00" width="2" height="15.00" fill="#f97316" opacity="0.35"/>
<rect x="534.64" y="335.00" width="2" height="30.00" fill="#f97316" opacity="0.35"/>
<rect x="535.41" y="350.00" width="2" height="15.00" fill="#f97316" opacity="0.35"/>
<rect x="540.00" y="350.00" width="2" height="15.00" fill="#f97316" opacity="0.35"/>
<rect x="548.41" y="350.00" width="2" height="15.00" fill="#f97316" opacity="0.35"/>
<rect x="549.94" y="350.00" width="2" height="15.00" fill="#f97316" opacity="0.35"/>
<rect x="550.70" y="350.00" width="2" height="15.00" fill="#f97316" opacity="0.35"/>
<rect x="556.82" y="350.00" width="2" height="15.00" fill="#f97316" opacity="0.35"/>
<rect x="558.35" y="335.00" width="2" height="30.00" fill="#f97316" opacity="0.35"/>
<rect x="560.64" y="335.00" width="2" height="30.00" fill="#f97316" opacity="0.35"/>
<rect x="569.05" y="350.00" width="2" height="15.00" fill="#f97316" opacity="0.35"/>
<rect x="572.87" y="335.00" width="2" height="30.00" fill="#f97316" opacity="0.35"/>
<rect x="580.52" y="320.00" width="2" height="45.00" fill="#f97316" opacity="0.35"/>
<rect x="582.81" y="350.00" width="2" height="15.00" fill="#f97316" opacity="0.35"/>
<rect x="584.34" y="350.00" width="2" height="15.00" fill="#f97316" opacity="0.35"/>
<rect x="585.11" y="350.00" width="2" height="15.00" fill="#f97316" opacity="0.35"/>
<rect x="592.75" y="350.00" width="2" height="15.00" fill="#f97316" opacity="0.35"/>
<rect x="594.28" y="350.00" width="2" height="15.00" fill="#f97316" opacity="0.35"/>
<rect x="595.05" y="350.00" width="2" height="15.00" fill="#f97316" opacity="0.35"/>
<rect x="597.34" y="335.00" width="2" height="30.00" fill="#f97316" opacity="0.35"/>
<rect x="601.93" y="350.00" width="2" height="15.00" fill="#f97316" opacity="0.35"/>
<rect x="602.69" y="350.00" width="2" height="15.00" fill="#f97316" opacity="0.35"/>
<rect x="603.46" y="350.00" width="2" height="15.00" fill="#f97316" opacity="0.35"/>
<rect x="604.22" y="350.00" width="2" height="15.00" fill="#f97316" opacity="0.35"/>
<rect x="605.75" y="350.00" width="2" height="15.00" fill="#f97316" opacity="0.35"/>
<rect x="606.52" y="350.00" width="2" height="15.00" fill="#f97316" opacity="0.35"/>
<rect x="609.58" y="350.00" width="2" height="15.00" fill="#f97316" opacity="0.35"/>
<rect x="620.28" y="350.00" width="2" height="15.00" fill="#f97316" opacity="0.35"/>
<rect x="621.04" y="350.00" width="2" height="15.00" fill="#f97316" opacity="0.35"/>
<rect x="623.34" y="350.00" width="2" height="15.00" fill="#f97316" opacity="0.35"/>
<rect x="624.87" y="335.00" width="2" height="30.00" fill="#f97316" opacity="0.35"/>
<rect x="625.63" y="350.00" width="2" height="15.00" fill="#f97316" opacity="0.35"/>
<rect x="632.51" y="350.00" width="2" height="15.00" fill="#f97316" opacity="0.35"/>
<rect x="637.87" y="350.00" width="2" height="15.00" fill="#f97316" opacity="0.35"/>
<rect x="640.92" y="350.00" width="2" height="15.00" fill="#f97316" opacity="0.35"/>
<rect x="641.69" y="350.00" width="2" height="15.00" fill="#f97316" opacity="0.35"/>
<rect x="647.81" y="335.00" width="2" height="30.00" fill="#f97316" opacity="0.35"/>
<rect x="653.92" y="350.00" width="2" height="15.00" fill="#f97316" opacity="0.35"/>
<rect x="656.22" y="320.00" width="2" height="45.00" fill="#f97316" opacity="0.35"/>
<rect x="658.51" y="350.00" width="2" height="15.00" fill="#f97316" opacity="0.35"/>
<rect x="664.63" y="350.00" width="2" height="15.00" fill="#f97316" opacity="0.35"/>
<rect x="666.92" y="350.00" width="2" height="15.00" fill="#f97316" opacity="0.35"/>
<rect x="672.27" y="350.00" width="2" height="15.00" fill="#f97316" opacity="0.35"/>
<rect x="673.04" y="335.00" width="2" height="30.00" fill="#f97316" opacity="0.35"/>
<rect x="673.80" y="335.00" width="2" height="30.00" fill="#f97316" opacity="0.35"/>
<rect x="682.21" y="335.00" width="2" height="30.00" fill="#f97316" opacity="0.35"/>
<rect x="684.51" y="350.00" width="2" height="15.00" fill="#f97316" opacity="0.35"/>
<rect x="686.80" y="350.00" width="2" height="15.00" fill="#f97316" opacity="0.35"/>
<rect x="688.33" y="350.00" width="2" height="15.00" fill="#f97316" opacity="0.35"/>
<rect x="689.09" y="350.00" width="2" height="15.00" fill="#f97316" opacity="0.35"/>
<rect x="699.03" y="350.00" width="2" height="15.00" fill="#f97316" opacity="0.35"/>
<rect x="700.56" y="350.00" width="2" height="15.00" fill="#f97316" opacity="0.35"/>
<rect x="701.33" y="350.00" width="2" height="15.00" fill="#f97316" opacity="0.35"/>
<rect x="703.62" y="350.00" width="2" height="15.00" fill="#f97316" opacity="0.35"/>
<rect x="704.39" y="350.00" width="2" height="15.00" fill="#f97316" opacity="0.35"/>
<rect x="708.21" y="335.00" width="2" height="30.00" fill="#f97316" opacity="0.35"/>
<rect x="711.27" y="350.00" width="2" height="15.00" fill="#f97316" opacity="0.35"/>
<rect x="718.15" y="350.00" width="2" height="15.00" fill="#f97316" opacity="0.35"/>
<rect x="720.44" y="350.00" width="2" height="15.00" fill="#f97316" opacity="0.35"/>
<rect x="722.74" y="350.00" width="2" height="15.00" fill="#f97316" opacity="0.35"/>
<rect x="724.27" y="350.00" width="2" height="15.00" fill="#f97316" opacity="0.35"/>
<rect x="728.09" y="350.00" width="2" height="15.00" fill="#f97316" opacity="0.35"/>
<rect x="731.15" y="350.00" width="2" height="15.00" fill="#f97316" opacity="0.35"/>
<rect x="734.97" y="290.00" width="2" height="75.00" fill="#f97316" opacity="0.35"/>
<rect x="735.74" y="350.00" width="2" height="15.00" fill="#f97316" opacity="0.35"/>
<rect x="736.50" y="350.00" width="2" height="15.00" fill="#f97316" opacity="0.35"/>
<rect x="740.32" y="350.00" width="2" height="15.00" fill="#f97316" opacity="0.35"/>
<rect x="743.38" y="350.00" width="2" height="15.00" fill="#f97316" opacity="0.35"/>
<rect x="745.68" y="350.00" width="2" height="15.00" fill="#f97316" opacity="0.35"/>
<rect x="747.20" y="350.00" width="2" height="15.00" fill="#f97316" opacity="0.35"/>
<rect x="751.03" y="350.00" width="2" height="15.00" fill="#f97316" opacity="0.35"/>
<rect x="757.14" y="350.00" width="2" height="15.00" fill="#f97316" opacity="0.35"/>
<rect x="761.73" y="350.00" width="2" height="15.00" fill="#f97316" opacity="0.35"/>
<rect x="764.03" y="335.00" width="2" height="30.00" fill="#f97316" opacity="0.35"/>
<rect x="767.85" y="350.00" width="2" height="15.00" fill="#f97316" opacity="0.35"/>
<rect x="776.26" y="335.00" width="2" height="30.00" fill="#f97316" opacity="0.35"/>
<rect x="781.61" y="350.00" width="2" height="15.00" fill="#f97316" opacity="0.35"/>
<rect x="784.67" y="350.00" width="2" height="15.00" fill="#f97316" opacity="0.35"/>
<rect x="791.55" y="350.00" width="2" height="15.00" fill="#f97316" opacity="0.35"/>
<rect x="799.20" y="335.00" width="2" height="30.00" fill="#f97316" opacity="0.35"/>
<rect x="799.96" y="350.00" width="2" height="15.00" fill="#f97316" opacity="0.35"/>
<rect x="801.49" y="350.00" width="2" height="15.00" fill="#f97316" opacity="0.35"/>
<rect x="806.08" y="350.00" width="2" height="15.00" fill="#f97316" opacity="0.35"/>
<rect x="807.61" y="335.00" width="2" height="30.00" fill="#f97316" opacity="0.35"/>
<rect x="809.90" y="350.00" width="2" height="15.00" fill="#f97316" opacity="0.35"/>
<rect x="813.73" y="335.00" width="2" height="30.00" fill="#f97316" opacity="0.35"/>
<rect x="814.49" y="350.00" width="2" height="15.00" fill="#f97316" opacity="0.35"/>
<rect x="816.02" y="350.00" width="2" height="15.00" fill="#f97316" opacity="0.35"/>
<rect x="816.78" y="350.00" width="2" height="15.00" fill="#f97316" opacity="0.35"/>
<rect x="819.08" y="350.00" width="2" height="15.00" fill="#f97316" opacity="0.35"/>
<rect x="822.14" y="350.00" width="2" height="15.00" fill="#f97316" opacity="0.35"/>
<rect x="822.90" y="350.00" width="2" height="15.00" fill="#f97316" opacity="0.35"/>
<rect x="826.72" y="350.00" width="2" height="15.00" fill="#f97316" opacity="0.35"/>
<rect x="829.02" y="350.00" width="2" height="15.00" fill="#f97316" opacity="0.35"/>
<rect x="831.31" y="350.00" width="2" height="15.00" fill="#f97316" opacity="0.35"/>
<rect x="844.31" y="350.00" width="2" height="15.00" fill="#f97316" opacity="0.35"/>
<rect x="851.96" y="350.00" width="2" height="15.00" fill="#f97316" opacity="0.35"/>
<rect x="853.48" y="350.00" width="2" height="15.00" fill="#f97316" opacity="0.35"/>
<rect x="859.60" y="350.00" width="2" height="15.00" fill="#f97316" opacity="0.35"/>
<rect x="861.13" y="350.00" width="2" height="15.00" fill="#f97316" opacity="0.35"/>
<rect x="867.25" y="335.00" width="2" height="30.00" fill="#f97316" opacity="0.35"/>
<rect x="872.60" y="350.00" width="2" height="15.00" fill="#f97316" opacity="0.35"/>
<rect x="877.19" y="350.00" width="2" height="15.00" fill="#f97316" opacity="0.35"/>
<rect x="890.95" y="350.00" width="2" height="15.00" fill="#f97316" opacity="0.35"/>
<rect x="892.48" y="350.00" width="2" height="15.00" fill="#f97316" opacity="0.35"/>
<rect x="904.71" y="350.00" width="2" height="15.00" fill="#f97316" opacity="0.35"/>
<rect x="907.77" y="350.00" width="2" height="15.00" fill="#f97316" opacity="0.35"/>
<rect x="910.83" y="350.00" width="2" height="15.00" fill="#f97316" opacity="0.35"/>
<rect x="920.01" y="350.00" width="2" height="15.00" fill="#f97316" opacity="0.35"/>
<rect x="926.12" y="350.00" width="2" height="15.00" fill="#f97316" opacity="0.35"/>
<rect x="930.71" y="335.00" width="2" height="30.00" fill="#f97316" opacity="0.35"/>
<rect x="935.30" y="350.00" width="2" height="15.00" fill="#f97316" opacity="0.35"/>
<rect x="952.12" y="350.00" width="2" height="15.00" fill="#f97316" opacity="0.35"/>
<rect x="953.65" y="350.00" width="2" height="15.00" fill="#f97316" opacity="0.35"/>
<rect x="956.71" y="350.00" width="2" height="15.00" fill="#f97316" opacity="0.35"/>
<rect x="957.47" y="350.00" width="2" height="15.00" fill="#f97316" opacity="0.35"/>
<polyline points="70.00,364.33 70.76,360.30 71.53,358.96 72.29,356.27 73.06,354.26 73.82,352.91 74.59,350.90 75.35,347.54 76.12,347.54 76.88,347.54 77.65,346.20 78.41,344.18 79.18,344.18 79.94,342.17 80.70,341.50 81.47,340.83 82.23,338.81 83.00,337.47 83.76,337.47 84.53,335.45 85.29,334.11 86.06,334.11 86.82,332.10 87.59,332.10 88.35,330.08 89.12,328.74 89.88,328.07 90.64,326.73 91.41,324.71 92.17,323.37 92.94,321.35 93.70,321.35 94.47,321.35 95.23,317.32 96.00,316.65 96.76,316.65 97.53,315.98 98.29,315.98 99.05,315.31 99.82,313.30 100.58,311.95 101.35,311.28 102.11,309.94 102.88,309.94 103.64,309.94 104.41,309.94 105.17,309.27 105.94,308.60 106.70,307.25 107.47,306.58 108.23,305.91 108.99,304.57 109.76,303.89 110.52,302.55 111.29,302.55 112.05,302.55 112.82,301.21 113.58,301.21 114.35,300.54 115.11,300.54 115.88,299.19 116.64,298.52 117.41,297.85 118.17,297.18 118.93,296.51 119.70,296.51 120.46,294.49 121.23,293.15 121.99,293.15 122.76,291.81 123.52,291.14 124.29,291.14 125.05,289.79 125.82,289.12 126.58,288.45 127.35,288.45 128.11,287.11 128.87,287.11 129.64,286.44 130.40,286.44 131.17,286.44 131.93,286.44 132.70,285.09 133.46,285.09 134.23,285.09 134.99,283.75 135.76,283.75 136.52,283.75 137.29,281.74 138.05,281.74 138.81,279.72 139.58,277.71 140.34,277.71 141.11,277.04 141.87,277.04 142.64,276.36 143.40,276.36 144.17,276.36 144.93,276.36 145.70,275.69 146.46,274.35 147.23,274.35 147.99,274.35 148.75,273.68 149.52,271.66 150.28,270.99 151.05,270.99 151.81,270.32 152.58,269.65 153.34,268.98 154.11,268.98 154.87,266.96 155.64,264.95 156.40,264.95 157.16,262.93 157.93,262.93 158.69,262.93 159.46,262.26 160.22,262.26 160.99,262.26 161.75,261.59 162.52,261.59 163.28,260.92 164.05,260.92 164.81,260.25 165.58,260.25 166.34,260.25 167.10,260.25 167.87,258.90 168.63,258.23 169.40,258.23 170.16,256.22 170.93,255.55 171.69,254.88 172.46,254.88 173.22,254.88 173.99,254.20 174.75,253.53 175.52,252.86 176.28,252.86 177.04,252.86 177.81,252.19 178.57,252.19 179.34,251.52 180.10,251.52 180.87,251.52 181.63,250.18 182.40,249.50 183.16,249.50 183.93,248.83 184.69,248.16 185.46,247.49 186.22,246.15 186.98,246.15 187.75,244.13 188.51,244.13 189.28,243.46 190.04,243.46 190.81,243.46 191.57,243.46 192.34,243.46 193.10,243.46 193.87,242.79 194.63,242.79 195.40,242.79 196.16,241.45 196.92,241.45 197.69,240.10 198.45,240.10 199.22,240.10 199.98,240.10 200.75,238.76 201.51,238.09 202.28,236.75 203.04,236.07 203.81,236.07 204.57,236.07 205.34,236.07 206.10,236.07 206.86,234.73 207.63,234.06 208.39,234.06 209.16,233.39 209.92,232.72 210.69,232.72 211.45,232.72 212.22,232.05 212.98,230.03 213.75,230.03 214.51,229.36 215.27,228.69 216.04,228.69 216.80,228.02 217.57,227.35 218.33,227.35 219.10,227.35 219.86,226.67 220.63,226.67 221.39,226.00 222.16,224.66 222.92,223.99 223.69,223.99 224.45,223.99 225.21,223.32 225.98,223.32 226.74,223.32 227.51,223.32 228.27,223.32 229.04,222.64 229.80,222.64 230.57,222.64 231.33,222.64 232.10,222.64 232.86,222.64 233.63,222.64 234.39,222.64 235.15,222.64 235.92,221.30 236.68,221.30 237.45,221.30 238.21,221.30 238.98,219.96 239.74,219.96 240.51,219.96 241.27,219.96 242.04,219.29 242.80,219.29 243.57,219.29 244.33,219.29 245.09,219.29 245.86,219.29 246.62,219.29 247.39,219.29 248.15,219.29 248.92,219.29 249.68,219.29 250.45,219.29 251.21,218.62 251.98,218.62 252.74,218.62 253.51,218.62 254.27,217.94 255.03,216.60 255.80,216.60 256.56,216.60 257.33,216.60 258.09,215.93 258.86,215.26 259.62,215.26 260.39,214.59 261.15,213.24 261.92,212.57 262.68,212.57 263.45,211.90 264.21,211.23 264.97,211.23 265.74,210.56 266.50,209.89 267.27,209.89 268.03,209.89 268.80,209.21 269.56,209.21 270.33,209.21 271.09,209.21 271.86,209.21 272.62,209.21 273.38,209.21 274.15,209.21 274.91,209.21 275.68,208.54 276.44,208.54 277.21,208.54 277.97,208.54 278.74,208.54 279.50,208.54 280.27,208.54 281.03,208.54 281.80,208.54 282.56,207.87 283.32,207.87 284.09,207.20 284.85,205.86 285.62,205.19 286.38,205.19 287.15,203.17 287.91,203.17 288.68,203.17 289.44,203.17 290.21,203.17 290.97,203.17 291.74,203.17 292.50,203.17 293.26,203.17 294.03,203.17 294.79,203.17 295.56,202.50 296.32,201.83 297.09,201.83 297.85,201.83 298.62,201.83 299.38,201.83 300.15,201.83 300.91,201.83 301.68,201.16 302.44,201.16 303.20,200.49 303.97,200.49 304.73,199.81 305.50,199.81 306.26,199.81 307.03,199.81 307.79,199.14 308.56,199.14 309.32,199.14 310.09,199.14 310.85,199.14 311.62,199.14 312.38,199.14 313.14,198.47 313.91,197.80 314.67,197.80 315.44,197.80 316.20,197.80 316.97,197.80 317.73,197.80 318.50,197.13 319.26,195.79 320.03,195.79 320.79,195.79 321.55,195.11 322.32,195.11 323.08,195.11 323.85,194.44 324.61,194.44 325.38,194.44 326.14,194.44 326.91,193.77 327.67,193.10 328.44,193.10 329.20,193.10 329.97,192.43 330.73,192.43 331.49,192.43 332.26,192.43 333.02,191.08 333.79,189.74 334.55,189.74 335.32,189.74 336.08,189.74 336.85,189.07 337.61,188.40 338.38,187.73 339.14,187.73 339.91,187.73 340.67,187.06 341.43,186.38 342.20,185.71 342.96,185.04 343.73,185.04 344.49,185.04 345.26,184.37 346.02,183.70 346.79,183.70 347.55,183.70 348.32,183.03 349.08,182.36 349.85,181.68 350.61,181.01 351.37,181.01 352.14,179.67 352.90,179.67 353.67,179.67 354.43,179.67 355.20,179.67 355.96,179.00 356.73,178.33 357.49,178.33 358.26,178.33 359.02,178.33 359.79,177.65 360.55,177.65 361.31,177.65 362.08,177.65 362.84,177.65 363.61,176.98 364.37,176.98 365.14,175.64 365.90,175.64 366.67,174.97 367.43,174.97 368.20,174.97 368.96,174.97 369.73,174.97 370.49,174.97 371.25,174.97 372.02,174.30 372.78,174.30 373.55,174.30 374.31,174.30 375.08,173.63 375.84,172.28 376.61,172.28 377.37,172.28 378.14,171.61 378.90,171.61 379.66,171.61 380.43,170.94 381.19,170.94 381.96,170.94 382.72,170.27 383.49,169.60 384.25,169.60 385.02,169.60 385.78,169.60 386.55,169.60 387.31,169.60 388.08,168.93 388.84,168.93 389.60,168.25 390.37,168.25 391.13,168.25 391.90,167.58 392.66,167.58 393.43,167.58 394.19,167.58 394.96,166.91 395.72,166.91 396.49,166.24 397.25,166.24 398.02,164.90 398.78,164.90 399.54,164.90 400.31,164.90 401.07,164.90 401.84,164.90 402.60,164.90 403.37,164.90 404.13,164.90 404.90,164.90 405.66,164.90 406.43,164.90 407.19,164.90 407.96,164.90 408.72,164.90 409.48,164.90 410.25,164.90 411.01,164.90 411.78,164.23 412.54,163.55 413.31,162.88 414.07,162.21 414.84,162.21 415.60,162.21 416.37,162.21 417.13,162.21 417.90,162.21 418.66,162.21 419.42,162.21 420.19,161.54 420.95,161.54 421.72,161.54 422.48,160.87 423.25,160.87 424.01,160.20 424.78,160.20 425.54,159.52 426.31,158.85 427.07,158.85 427.84,158.85 428.60,158.85 429.36,158.85 430.13,158.85 430.89,158.18 431.66,158.18 432.42,158.18 433.19,158.18 433.95,157.51 434.72,156.17 435.48,156.17 436.25,154.82 437.01,154.82 437.77,154.82 438.54,154.82 439.30,154.82 440.07,154.82 440.83,153.48 441.60,153.48 442.36,153.48 443.13,153.48 443.89,153.48 444.66,153.48 445.42,153.48 446.19,152.81 446.95,152.14 447.71,151.47 448.48,151.47 449.24,151.47 450.01,151.47 450.77,150.80 451.54,150.12 452.30,150.12 453.07,149.45 453.83,148.78 454.60,148.78 455.36,148.78 456.13,148.11 456.89,148.11 457.65,148.11 458.42,148.11 459.18,148.11 459.95,148.11 460.71,148.11 461.48,148.11 462.24,148.11 463.01,148.11 463.77,148.11 464.54,148.11 465.30,148.11 466.07,147.44 466.83,147.44 467.59,147.44 468.36,147.44 469.12,146.77 469.89,146.10 470.65,145.42 471.42,145.42 472.18,145.42 472.95,145.42 473.71,144.08 474.48,144.08 475.24,144.08 476.01,144.08 476.77,144.08 477.53,144.08 478.30,144.08 479.06,144.08 479.83,144.08 480.59,144.08 481.36,144.08 482.12,144.08 482.89,144.08 483.65,144.08 484.42,144.08 485.18,144.08 485.95,144.08 486.71,144.08 487.47,144.08 488.24,144.08 489.00,144.08 489.77,144.08 490.53,144.08 491.30,144.08 492.06,144.08 492.83,144.08 493.59,144.08 494.36,144.08 495.12,144.08 495.88,142.74 496.65,142.07 497.41,142.07 498.18,142.07 498.94,141.39 499.71,140.05 500.47,139.38 501.24,139.38 502.00,139.38 502.77,139.38 503.53,139.38 504.30,139.38 505.06,138.71 505.82,138.71 506.59,138.71 507.35,138.04 508.12,138.04 508.88,138.04 509.65,138.04 510.41,138.04 511.18,138.04 511.94,138.04 512.71,138.04 513.47,138.04 514.24,138.04 515.00,137.37 515.76,137.37 516.53,137.37 517.29,136.69 518.06,136.69 518.82,136.69 519.59,136.02 520.35,136.02 521.12,136.02 521.88,136.02 522.65,136.02 523.41,136.02 524.18,136.02 524.94,136.02 525.70,136.02 526.47,136.02 527.23,136.02 528.00,135.35 528.76,135.35 529.53,135.35 530.29,135.35 531.06,135.35 531.82,135.35 532.59,135.35 533.35,135.35 534.12,134.68 534.88,134.68 535.64,133.34 536.41,132.67 537.17,132.67 537.94,132.67 538.70,132.67 539.47,132.67 540.23,132.67 541.00,131.99 541.76,131.99 542.53,131.99 543.29,131.99 544.05,131.99 544.82,131.99 545.58,131.99 546.35,131.99 547.11,131.99 547.88,131.99 548.64,131.99 549.41,131.32 550.17,131.32 550.94,130.65 551.70,129.98 552.47,129.98 553.23,129.98 553.99,129.98 554.76,129.98 555.52,129.98 556.29,129.98 557.05,129.98 557.82,129.31 558.58,129.31 559.35,127.96 560.11,127.96 560.88,127.96 561.64,126.62 562.41,126.62 563.17,126.62 563.93,126.62 564.70,126.62 565.46,126.62 566.23,126.62 566.99,126.62 567.76,126.62 568.52,126.62 569.29,126.62 570.05,125.95 570.82,125.95 571.58,125.95 572.35,125.95 573.11,125.95 573.87,124.61 574.64,124.61 575.40,124.61 576.17,124.61 576.93,124.61 577.70,124.61 578.46,124.61 579.23,124.61 579.99,124.61 580.76,124.61 581.52,122.59 582.29,122.59 583.05,122.59 583.81,121.92 584.58,121.92 585.34,121.25 586.11,120.58 586.87,120.58 587.64,120.58 588.40,120.58 589.17,120.58 589.93,120.58 590.70,120.58 591.46,120.58 592.23,120.58 592.99,120.58 593.75,119.91 594.52,119.91 595.28,119.24 596.05,118.56 596.81,118.56 597.58,118.56 598.34,117.22 599.11,117.22 599.87,117.22 600.64,117.22 601.40,117.22 602.16,117.22 602.93,116.55 603.69,115.88 604.46,115.21 605.22,114.54 605.99,114.54 606.75,113.86 607.52,113.19 608.28,113.19 609.05,113.19 609.81,113.19 610.58,112.52 611.34,112.52 612.10,112.52 612.87,112.52 613.63,112.52 614.40,112.52 615.16,112.52 615.93,112.52 616.69,112.52 617.46,112.52 618.22,112.52 618.99,112.52 619.75,112.52 620.52,112.52 621.28,111.85 622.04,111.18 622.81,111.18 623.57,111.18 624.34,110.51 625.10,110.51 625.87,109.16 626.63,108.49 627.40,108.49 628.16,108.49 628.93,108.49 629.69,108.49 630.46,108.49 631.22,108.49 631.98,108.49 632.75,108.49 633.51,107.82 634.28,107.82 635.04,107.82 635.81,107.82 636.57,107.82 637.34,107.82 638.10,107.82 638.87,107.15 639.63,107.15 640.40,107.15 641.16,107.15 641.92,106.48 642.69,105.81 643.45,105.81 644.22,105.81 644.98,105.81 645.75,105.81 646.51,105.81 647.28,105.81 648.04,105.81 648.81,104.46 649.57,104.46 650.34,104.46 651.10,104.46 651.86,104.46 652.63,104.46 653.39,104.46 654.16,104.46 654.92,103.79 655.69,103.79 656.45,103.79 657.22,101.78 657.98,101.78 658.75,101.78 659.51,101.11 660.27,101.11 661.04,101.11 661.80,101.11 662.57,101.11 663.33,101.11 664.10,101.11 664.86,101.11 665.63,100.43 666.39,100.43 667.16,100.43 667.92,99.76 668.69,99.76 669.45,99.76 670.21,99.76 670.98,99.76 671.74,99.76 672.51,99.76 673.27,99.09 674.04,97.75 674.80,96.40 675.57,96.40 676.33,96.40 677.10,96.40 677.86,96.40 678.63,96.40 679.39,96.40 680.15,96.40 680.92,96.40 681.68,96.40 682.45,96.40 683.21,95.06 683.98,95.06 684.74,95.06 685.51,94.39 686.27,94.39 687.04,94.39 687.80,93.72 688.57,93.72 689.33,93.05 690.09,92.38 690.86,92.38 691.62,92.38 692.39,92.38 693.15,92.38 693.92,92.38 694.68,92.38 695.45,92.38 696.21,92.38 696.98,92.38 697.74,92.38 698.51,92.38 699.27,92.38 700.03,91.70 700.80,91.70 701.56,91.03 702.33,90.36 703.09,90.36 703.86,90.36 704.62,89.69 705.39,89.02 706.15,89.02 706.92,89.02 707.68,89.02 708.45,89.02 709.21,87.68 709.97,87.68 710.74,87.68 711.50,87.68 712.27,87.00 713.03,87.00 713.80,87.00 714.56,87.00 715.33,87.00 716.09,87.00 716.86,87.00 717.62,87.00 718.38,87.00 719.15,86.33 719.91,86.33 720.68,86.33 721.44,85.66 722.21,85.66 722.97,85.66 723.74,84.99 724.50,84.99 725.27,84.32 726.03,84.32 726.80,84.32 727.56,84.32 728.32,84.32 729.09,83.65 729.85,83.65 730.62,83.65 731.38,83.65 732.15,82.98 732.91,82.98 733.68,82.98 734.44,82.98 735.21,82.98 735.97,79.62 736.74,78.95 737.50,78.27 738.26,78.27 739.03,78.27 739.79,78.27 740.56,78.27 741.32,77.60 742.09,77.60 742.85,77.60 743.62,77.60 744.38,76.93 745.15,76.93 745.91,76.93 746.68,76.26 747.44,76.26 748.20,75.59 748.97,75.59 749.73,75.59 750.50,75.59 751.26,75.59 752.03,74.92 752.79,74.92 753.56,74.92 754.32,74.92 755.09,74.92 755.85,74.92 756.62,74.92 757.38,74.92 758.14,74.25 758.91,74.25 759.67,74.25 760.44,74.25 761.20,74.25 761.97,74.25 762.73,73.57 763.50,73.57 764.26,73.57 765.03,72.23 765.79,72.23 766.55,72.23 767.32,72.23 768.08,72.23 768.85,71.56 769.61,71.56 770.38,71.56 771.14,71.56 771.91,71.56 772.67,71.56 773.44,71.56 774.20,71.56 774.97,71.56 775.73,71.56 776.49,71.56 777.26,70.22 778.02,70.22 778.79,70.22 779.55,70.22 780.32,70.22 781.08,70.22 781.85,70.22 782.61,69.55 783.38,69.55 784.14,69.55 784.91,69.55 785.67,68.87 786.43,68.87 787.20,68.87 787.96,68.87 788.73,68.87 789.49,68.87 790.26,68.87 791.02,68.87 791.79,68.87 792.55,68.20 793.32,68.20 794.08,68.20 794.85,68.20 795.61,68.20 796.37,68.20 797.14,68.20 797.90,68.20 798.67,68.20 799.43,68.20 800.20,66.86 800.96,66.19 801.73,66.19 802.49,65.52 803.26,65.52 804.02,65.52 804.79,65.52 805.55,65.52 806.31,65.52 807.08,64.85 807.84,64.85 808.61,63.50 809.37,63.50 810.14,63.50 810.90,62.83 811.67,62.83 812.43,62.83 813.20,62.83 813.96,62.83 814.73,61.49 815.49,60.82 816.25,60.82 817.02,60.14 817.78,59.47 818.55,59.47 819.31,59.47 820.08,58.80 820.84,58.80 821.61,58.80 822.37,58.80 823.14,58.13 823.90,57.46 824.66,57.46 825.43,57.46 826.19,57.46 826.96,57.46 827.72,56.79 828.49,56.79 829.25,56.79 830.02,56.12 830.78,56.12 831.55,56.12 832.31,55.44 833.08,55.44 833.84,55.44 834.60,55.44 835.37,55.44 836.13,55.44 836.90,55.44 837.66,55.44 838.43,55.44 839.19,55.44 839.96,55.44 840.72,55.44 841.49,55.44 842.25,55.44 843.02,55.44 843.78,55.44 844.54,55.44 845.31,54.77 846.07,54.77 846.84,54.77 847.60,54.77 848.37,54.77 849.13,54.77 849.90,54.77 850.66,54.77 851.43,54.77 852.19,54.77 852.96,54.10 853.72,54.10 854.48,53.43 855.25,53.43 856.01,53.43 856.78,53.43 857.54,53.43 858.31,53.43 859.07,53.43 859.84,53.43 860.60,52.76 861.37,52.76 862.13,52.09 862.90,52.09 863.66,52.09 864.42,52.09 865.19,52.09 865.95,52.09 866.72,52.09 867.48,52.09 868.25,50.74 869.01,50.74 869.78,50.74 870.54,50.74 871.31,50.74 872.07,50.74 872.84,50.74 873.60,50.07 874.36,50.07 875.13,50.07 875.89,50.07 876.66,50.07 877.42,50.07 878.19,49.40 878.95,49.40 879.72,49.40 880.48,49.40 881.25,49.40 882.01,49.40 882.77,49.40 883.54,49.40 884.30,49.40 885.07,49.40 885.83,49.40 886.60,49.40 887.36,49.40 888.13,49.40 888.89,49.40 889.66,49.40 890.42,49.40 891.19,49.40 891.95,48.73 892.71,48.73 893.48,48.06 894.24,48.06 895.01,48.06 895.77,48.06 896.54,48.06 897.30,48.06 898.07,48.06 898.83,48.06 899.60,48.06 900.36,48.06 901.13,48.06 901.89,48.06 902.65,48.06 903.42,48.06 904.18,48.06 904.95,48.06 905.71,47.39 906.48,47.39 907.24,47.39 908.01,47.39 908.77,46.71 909.54,46.71 910.30,46.71 911.07,46.71 911.83,46.04 912.59,46.04 913.36,46.04 914.12,46.04 914.89,46.04 915.65,46.04 916.42,46.04 917.18,46.04 917.95,46.04 918.71,46.04 919.48,46.04 920.24,46.04 921.01,45.37 921.77,45.37 922.53,45.37 923.30,45.37 924.06,45.37 924.83,45.37 925.59,45.37 926.36,45.37 927.12,44.70 927.89,44.70 928.65,44.70 929.42,44.70 930.18,44.70 930.95,44.70 931.71,43.36 932.47,43.36 933.24,43.36 934.00,43.36 934.77,43.36 935.53,43.36 936.30,42.69 937.06,42.69 937.83,42.69 938.59,42.69 939.36,42.69 940.12,42.69 940.88,42.69 941.65,42.69 942.41,42.69 943.18,42.69 943.94,42.69 944.71,42.69 945.47,42.69 946.24,42.69 947.00,42.69 947.77,42.69 948.53,42.69 949.30,42.69 950.06,42.69 950.82,42.69 951.59,42.69 952.35,42.69 953.12,42.01 953.88,42.01 954.65,41.34 955.41,41.34 956.18,41.34 956.94,41.34 957.71,40.67 958.47,40.00 959.24,40.00 960.00,40.00" fill="none" stroke="#2563eb" stroke-width="2"/>
<text x="78" y="58" font-family="Arial" font-size="12" fill="#2563eb">blue: cumulative relations</text>
<text x="78" y="76" font-family="Arial" font-size="12" fill="#ea580c">orange bars: new relations at idx</text>
</svg>