<svg xmlns="http://www.w3.org/2000/svg" width="1000" height="430" viewBox="0 0 1000 430">
<rect width="100%" height="100%" fill="white"/>
<text x="500.0" y="24" text-anchor="middle" font-family="Arial" font-size="18" font-weight="700">Growth Curve: case5_concat</text>
<line x1="70" y1="365" x2="960" y2="365" stroke="#111827"/>
<line x1="70" y1="40" x2="70" y2="365" stroke="#111827"/>
<text x="515.0" y="412" text-anchor="middle" font-family="Arial" font-size="13">sample idx</text>
<line x1="70" y1="365.00" x2="960" y2="365.00" stroke="#e5e7eb"/>
<text x="62" y="369.00" text-anchor="end" font-family="Arial" font-size="11">0</text>
<line x1="70" y1="299.74" x2="960" y2="299.74" stroke="#e5e7eb"/>
<text x="62" y="303.74" text-anchor="end" font-family="Arial" font-size="11">99</text>
<line x1="70" y1="235.13" x2="960" y2="235.13" stroke="#e5e7eb"/>
<text x="62" y="239.13" text-anchor="end" font-family="Arial" font-size="11">197</text>
<line x1="70" y1="169.87" x2="960" y2="169.87" stroke="#e5e7eb"/>
<text x="62" y="173.87" text-anchor="end" font-family="Arial" font-size="11">296</text>
<line x1="70" y1="105.26" x2="960" y2="105.26" stroke="#e5e7eb"/>
<text x="62" y="109.26" text-anchor="end" font-family="Arial" font-size="11">394</text>
<line x1="70" y1="40.00" x2="960" y2="40.00" stroke="#e5e7eb"/>
<text x="62" y="44.00" text-anchor="end" font-family="Arial" font-size="11">493</text>
<rect x="69.00" y="350.00" width="2" height="15.00" fill="#f97316" opacity="0.35"/>
<rect x="69.76" y="275.00" width="2" height="90.00" fill="#f97316" opacity="0.35"/>
<rect x="70.53" y="335.00" width="2" height="30.00" fill="#f97316" opacity="0.35"/>
<rect x="71.29" y="305.00" width="2" height="60.00" fill="#f97316" opacity="0.35"/>
<rect x="72.06" y="320.00" width="2" height="45.00" fill="#f97316" opacity="0.35"/>
<rect x="72.82" y="335.00" width="2" height="30.00" fill="#f97316" opacity="0.35"/>
<rect x="73.59" y="320.00" width="2" height="45.00" fill="#f97316" opacity="0.35"/>
<rect x="74.35" y="275.00" width="2" height="90.00" fill="#f97316" opacity="0.35"/>
<rect x="75.88" y="350.00" width="2" height="15.00" fill="#f97316" opacity="0.35"/>
<rect x="76.65" y="335.00" width="2" height="30.00" fill="#f97316" opacity="0.35"/>
<rect x="77.41" y="320.00" width="2" height="45.00" fill="#f97316" opacity="0.35"/>
<rect x="78.94" y="335.00" width="2" height="30.00" fill="#f97316" opacity="0.35"/>
<rect x="79.70" y="350.00" width="2" height="15.00" fill="#f97316" opacity="0.35"/>
<rect x="80.47" y="350.00" width="2" height="15.00" fill="#f97316" opacity="0.35"/>
<rect x="81.23" y="320.00" width="2" height="45.00" fill="#f97316" opacity="0.35"/>
<rect x="82.00" y="350.00" width="2" height="15.00" fill="#f97316" opacity="0.35"/>
<rect x="83.53" y="320.00" width="2" height="45.00" fill="#f97316" opacity="0.35"/>
<rect x="84.29" y="335.00" width="2" height="30.00" fill="#f97316" opacity="0.35"/>
<rect x="85.06" y="350.00" width="2" height="15.00" fill="#f97316" opacity="0.35"/>
<rect x="85.82" y="320.00" width="2" height="45.00" fill="#f97316" opacity="0.35"/>
<rect x="87.35" y="320.00" width="2" height="45.00" fill="#f97316" opacity="0.35"/>
<rect x="88.12" y="335.00" width="2" height="30.00" fill="#f97316" opacity="0.35"/>
<rect x="88.88" y="350.00" width="2" height="15.00" fill="#f97316" opacity="0.35"/>
<rect x="89.64" y="335.00" width="2" height="30.00" fill="#f97316" opacity="0.35"/>
<rect x="90.41" y="305.00" width="2" height="60.00" fill="#f97316" opacity="0.35"/>
<rect x="91.17" y="335.00" width="2" height="30.00" fill="#f97316" opacity="0.35"/>
<rect x="91.94" y="320.00" width="2" height="45.00" fill="#f97316" opacity="0.35"/>
<rect x="94.23" y="275.00" width="2" height="90.00" fill="#f97316" opacity="0.35"/>
<rect x="95.00" y="350.00" width="2" height="15.00" fill="#f97316" opacity="0.35"/>
<rect x="96.53" y="350.00" width="2" height="15.00" fill="#f97316" opacity="0.35"/>
<rect x="98.82" y="320.00" width="2" height="45.00" fill="#f97316" opacity="0.35"/>
<rect x="99.58" y="350.00" width="2" height="15.00" fill="#f97316" opacity="0.35"/>
<rect x="100.35" y="350.00" width="2" height="15.00" fill="#f97316" opacity="0.35"/>
<rect x="101.11" y="350.00" width="2" height="15.00" fill="#f97316" opacity="0.35"/>
<rect x="103.41" y="350.00" width="2" height="15.00" fill="#f97316" opacity="0.35"/>
<rect x="104.17" y="350.00" width="2" height="15.00" fill="#f97316" opacity="0.35"/>
<rect x="104.94" y="350.00" width="2" height="15.00" fill="#f97316" opacity="0.35"/>
<rect x="105.70" y="335.00" width="2" height="30.00" fill="#f97316" opacity="0.35"/>
<rect x="106.47" y="350.00" width="2" height="15.00" fill="#f97316" opacity="0.35"/>
<rect x="107.23" y="350.00" width="2" height="15.00" fill="#f97316" opacity="0.35"/>
<rect x="107.99" y="335.00" width="2" height="30.00" fill="#f97316" opacity="0.35"/>
<rect x="108.76" y="350.00" width="2" height="15.00" fill="#f97316" opacity="0.35"/>
<rect x="109.52" y="335.00" width="2" height="30.00" fill="#f97316" opacity="0.35"/>
<rect x="111.82" y="335.00" width="2" height="30.00" fill="#f97316" opacity="0.35"/>
<rect x="113.35" y="350.00" width="2" height="15.00" fill="#f97316" opacity="0.35"/>
<rect x="114.88" y="335.00" width="2" height="30.00" fill="#f97316" opacity="0.35"/>
<rect x="115.64" y="350.00" width="2" height="15.00" fill="#f97316" opacity="0.35"/>
<rect x="116.41" y="350.00" width="2" height="15.00" fill="#f97316" opacity="0.35"/>
<rect x="117.93" y="350.00" width="2" height="15.00" fill="#f97316" opacity="0.35"/>
<rect x="118.70" y="350.00" width="2" height="15.00" fill="#f97316" opacity="0.35"/>
<rect x="119.46" y="305.00" width="2" height="60.00" fill="#f97316" opacity="0.35"/>
<rect x="120.23" y="350.00" width="2" height="15.00" fill="#f97316" opacity="0.35"/>
<rect x="121.76" y="320.00" width="2" height="45.00" fill="#f97316" opacity="0.35"/>
<rect x="123.29" y="350.00" width="2" height="15.00" fill="#f97316" opacity="0.35"/>
<rect x="124.05" y="335.00" width="2" height="30.00" fill="#f97316" opacity="0.35"/>
<rect x="124.82" y="350.00" width="2" height="15.00" fill="#f97316" opacity="0.35"/>
<rect x="125.58" y="350.00" width="2" height="15.00" fill="#f97316" opacity="0.35"/>
<rect x="127.11" y="335.00" width="2" height="30.00" fill="#f97316" opacity="0.35"/>
<rect x="128.64" y="350.00" width="2" height="15.00" fill="#f97316" opacity="0.35"/>
<rect x="131.70" y="335.00" width="2" height="30.00" fill="#f97316" opacity="0.35"/>
<rect x="133.99" y="335.00" width="2" height="30.00" fill="#f97316" opacity="0.35"/>
<rect x="136.29" y="320.00" width="2" height="45.00" fill="#f97316" opacity="0.35"/>
<rect x="137.81" y="305.00" width="2" height="60.00" fill="#f97316" opacity="0.35"/>
<rect x="138.58" y="320.00" width="2" height="45.00" fill="#f97316" opacity="0.35"/>
<rect x="140.11" y="350.00" width="2" height="15.00" fill="#f97316" opacity="0.35"/>
<rect x="141.64" y="335.00" width="2" height="30.00" fill="#f97316" opacity="0.35"/>
<rect x="144.70" y="350.00" width="2" height="15.00" fill="#f97316" opacity="0.35"/>
<rect x="145.46" y="335.00" width="2" height="30.00" fill="#f97316" opacity="0.35"/>
<rect x="146.23" y="350.00" width="2" height="15.00" fill="#f97316" opacity="0.35"/>
<rect x="147.75" y="350.00" width="2" height="15.00" fill="#f97316" opacity="0.35"/>
<rect x="148.52" y="320.00" width="2" height="45.00" fill="#f97316" opacity="0.35"/>
<rect x="149.28" y="350.00" width="2" height="15.00" fill="#f97316" opacity="0.35"/>
<rect x="150.81" y="350.00" width="2" height="15.00" fill="#f97316" opacity="0.35"/>
<rect x="151.58" y="350.00" width="2" height="15.00" fill="#f97316" opacity="0.35"/>
<rect x="152.34" y="350.00" width="2" height="15.00" fill="#f97316" opacity="0.35"/>
<rect x="153.87" y="335.00" width="2" height="30.00" fill="#f97316" opacity="0.35"/>
<rect x="154.64" y="335.00" width="2" height="30.00" fill="#f97316" opacity="0.35"/>
<rect x="156.16" y="320.00" width="2" height="45.00" fill="#f97316" opacity="0.35"/>
<rect x="158.46" y="350.00" width="2" height="15.00" fill="#f97316" opacity="0.35"/>
<rect x="159.22" y="350.00" width="2" height="15.00" fill="#f97316" opacity="0.35"/>
<rect x="160.75" y="350.00" width="2" height="15.00" fill="#f97316" opacity="0.35"/>
<rect x="162.28" y="350.00" width="2" height="15.00" fill="#f97316" opacity="0.35"/>
<rect x="163.81" y="350.00" width="2" height="15.00" fill="#f97316" opacity="0.35"/>
<rect x="166.87" y="350.00" width="2" height="15.00" fill="#f97316" opacity="0.35"/>
<rect x="169.16" y="320.00" width="2" height="45.00" fill="#f97316" opacity="0.35"/>
<rect x="169.93" y="350.00" width="2" height="15.00" fill="#f97316" opacity="0.35"/>
<rect x="170.69" y="350.00" width="2" height="15.00" fill="#f97316" opacity="0.35"/>
<rect x="172.99" y="350.00" width="2" height="15.00" fill="#f97316" opacity="0.35"/>
<rect x="173.75" y="350.00" width="2" height="15.00" fill="#f97316" opacity="0.35"/>
<rect x="174.52" y="350.00" width="2" height="15.00" fill="#f97316" opacity="0.35"/>
<rect x="176.81" y="350.00" width="2" height="15.00" fill="#f97316" opacity="0.35"/>
<rect x="178.34" y="350.00" width="2" height="15.00" fill="#f97316" opacity="0.35"/>
<rect x="180.63" y="350.00" width="2" height="15.00" fill="#f97316" opacity="0.35"/>
<rect x="181.40" y="350.00" width="2" height="15.00" fill="#f97316" opacity="0.35"/>
<rect x="182.93" y="350.00" width="2" height="15.00" fill="#f97316" opacity="0.35"/>
<rect x="183.69" y="350.00" width="2" height="15.00" fill="#f97316" opacity="0.35"/>
<rect x="184.46" y="350.00" width="2" height="15.00" fill="#f97316" opacity="0.35"/>
<rect x="185.22" y="335.00" width="2" height="30.00" fill="#f97316" opacity="0.35"/>
<rect x="186.75" y="320.00" width="2" height="45.00" fill="#f97316" opacity="0.35"/>
<rect x="188.28" y="350.00" width="2" height="15.00" fill="#f97316" opacity="0.35"/>
<rect x="195.16" y="320.00" width="2" height="45.00" fill="#f97316" opacity="0.35"/>
<rect x="196.69" y="320.00" width="2" height="45.00" fill="#f97316" opacity="0.35"/>
<rect x="199.75" y="350.00" width="2" height="15.00" fill="#f97316" opacity="0.35"/>
<rect x="200.51" y="350.00" width="2" height="15.00" fill="#f97316" opacity="0.35"/>
<rect x="201.28" y="350.00" width="2" height="15.00" fill="#f97316" opacity="0.35"/>
<rect x="202.04" y="350.00" width="2" height="15.00" fill="#f97316" opacity="0.35"/>
<rect x="205.86" y="350.00" width="2" height="15.00" fill="#f97316" opacity="0.35"/>
<rect x="206.63" y="350.00" width="2" height="15.00" fill="#f97316" opacity="0.35"/>
<rect x="208.16" y="350.00" width="2" height="15.00" fill="#f97316" opacity="0.35"/>
<rect x="208.92" y="350.00" width="2" height="15.00" fill="#f97316" opacity="0.35"/>
<rect x="210.45" y="350.00" width="2" height="15.00" fill="#f97316" opacity="0.35"/>
<rect x="211.98" y="320.00" width="2" height="45.00" fill="#f97316" opacity="0.35"/>
<rect x="213.51" y="350.00" width="2" height="15.00" fill="#f97316" opacity="0.35"/>
<rect x="214.27" y="350.00" width="2" height="15.00" fill="#f97316" opacity="0.35"/>
<rect x="215.80" y="335.00" width="2" height="30.00" fill="#f97316" opacity="0.35"/>
<rect x="216.57" y="350.00" width="2" height="15.00" fill="#f97316" opacity="0.35"/>
<rect x="218.86" y="350.00" width="2" height="15.00" fill="#f97316" opacity="0.35"/>
<rect x="220.39" y="350.00" width="2" height="15.00" fill="#f97316" opacity="0.35"/>
<rect x="221.16" y="320.00" width="2" height="45.00" fill="#f97316" opacity="0.35"/>
<rect x="221.92" y="350.00" width="2" height="15.00" fill="#f97316" opacity="0.35"/>
<rect x="224.21" y="350.00" width="2" height="15.00" fill="#f97316" opacity="0.35"/>
<rect x="228.04" y="350.00" width="2" height="15.00" fill="#f97316" opacity="0.35"/>
<rect x="230.33" y="350.00" width="2" height="15.00" fill="#f97316" opacity="0.35"/>
<rect x="234.92" y="350.00" width="2" height="15.00" fill="#f97316" opacity="0.35"/>
<rect x="237.21" y="350.00" width="2" height="15.00" fill="#f97316" opacity="0.35"/>
<rect x="237.98" y="335.00" width="2" height="30.00" fill="#f97316" opacity="0.35"/>
<rect x="241.04" y="350.00" width="2" height="15.00" fill="#f97316" opacity="0.35"/>
<rect x="243.33" y="350.00" width="2" height="15.00" fill="#f97316" opacity="0.35"/>
<rect x="250.21" y="350.00" width="2" height="15.00" fill="#f97316" opacity="0.35"/>
<rect x="253.27" y="350.00" width="2" height="15.00" fill="#f97316" opacity="0.35"/>
<rect x="254.03" y="335.00" width="2" height="30.00" fill="#f97316" opacity="0.35"/>
<rect x="255.56" y="350.00" width="2" height="15.00" fill="#f97316" opacity="0.35"/>
<rect x="257.09" y="350.00" width="2" height="15.00" fill="#f97316" opacity="0.35"/>
<rect x="257.86" y="350.00" width="2" height="15.00" fill="#f97316" opacity="0.35"/>
<rect x="259.39" y="350.00" width="2" height="15.00" fill="#f97316" opacity="0.35"/>
<rect x="260.15" y="335.00" width="2" height="30.00" fill="#f97316" opacity="0.35"/>
<rect x="260.92" y="350.00" width="2" height="15.00" fill="#f97316" opacity="0.35"/>
<rect x="262.45" y="335.00" width="2" height="30.00" fill="#f97316" opacity="0.35"/>
<rect x="263.21" y="335.00" width="2" height="30.00" fill="#f97316" opacity="0.35"/>
<rect x="265.50" y="335.00" width="2" height="30.00" fill="#f97316" opacity="0.35"/>
<rect x="267.80" y="350.00" width="2" height="15.00" fill="#f97316" opacity="0.35"/>
<rect x="274.68" y="350.00" width="2" height="15.00" fill="#f97316" opacity="0.35"/>
<rect x="277.74" y="350.00" width="2" height="15.00" fill="#f97316" opacity="0.35"/>
<rect x="281.56" y="350.00" width="2" height="15.00" fill="#f97316" opacity="0.35"/>
<rect x="283.09" y="350.00" width="2" height="15.00" fill="#f97316" opacity="0.35"/>
<rect x="283.85" y="350.00" width="2" height="15.00" fill="#f97316" opacity="0.35"/>
<rect x="284.62" y="335.00" width="2" height="30.00" fill="#f97316" opacity="0.35"/>
<rect x="286.15" y="335.00" width="2" height="30.00" fill="#f97316" opacity="0.35"/>
<rect x="293.03" y="335.00" width="2" height="30.00" fill="#f97316" opacity="0.35"/>
<rect x="294.56" y="350.00" width="2" height="15.00" fill="#f97316" opacity="0.35"/>
<rect x="295.32" y="350.00" width="2" height="15.00" fill="#f97316" opacity="0.35"/>
<rect x="300.68" y="350.00" width="2" height="15.00" fill="#f97316" opacity="0.35"/>
<rect x="302.20" y="350.00" width="2" height="15.00" fill="#f97316" opacity="0.35"/>
<rect x="306.03" y="350.00" width="2" height="15.00" fill="#f97316" opacity="0.35"/>
<rect x="306.79" y="350.00" width="2" height="15.00" fill="#f97316" opacity="0.35"/>
<rect x="307.56" y="350.00" width="2" height="15.00" fill="#f97316" opacity="0.35"/>
<rect x="308.32" y="350.00" width="2" height="15.00" fill="#f97316" opacity="0.35"/>
<rect x="310.62" y="350.00" width="2" height="15.00" fill="#f97316" opacity="0.35"/>
<rect x="312.14" y="350.00" width="2" height="15.00" fill="#f97316" opacity="0.35"/>
<rect x="312.91" y="350.00" width="2" height="15.00" fill="#f97316" opacity="0.35"/>
<rect x="317.50" y="335.00" width="2" height="30.00" fill="#f97316" opacity="0.35"/>
<rect x="318.26" y="350.00" width="2" height="15.00" fill="#f97316" opacity="0.35"/>
<rect x="320.55" y="350.00" width="2" height="15.00" fill="#f97316" opacity="0.35"/>
<rect x="322.85" y="335.00" width="2" height="30.00" fill="#f97316" opacity="0.35"/>
<rect x="328.97" y="350.00" width="2" height="15.00" fill="#f97316" opacity="0.35"/>
<rect x="332.02" y="350.00" width="2" height="15.00" fill="#f97316" opacity="0.35"/>
<rect x="332.79" y="335.00" width="2" height="30.00" fill="#f97316" opacity="0.35"/>
<rect x="335.85" y="335.00" width="2" height="30.00" fill="#f97316" opacity="0.35"/>
<rect x="336.61" y="350.00" width="2" height="15.00" fill="#f97316" opacity="0.35"/>
<rect x="337.38" y="350.00" width="2" height="15.00" fill="#f97316" opacity="0.35"/>
<rect x="338.14" y="350.00" width="2" height="15.00" fill="#f97316" opacity="0.35"/>
<rect x="339.67" y="350.00" width="2" height="15.00" fill="#f97316" opacity="0.35"/>
<rect x="340.43" y="350.00" width="2" height="15.00" fill="#f97316" opacity="0.35"/>
<rect x="341.20" y="350.00" width="2" height="15.00" fill="#f97316" opacity="0.35"/>
<rect x="341.96" y="350.00" width="2" height="15.00" fill="#f97316" opacity="0.35"/>
<rect x="344.26" y="350.00" width="2" height="15.00" fill="#f97316" opacity="0.35"/>
<rect x="345.02" y="350.00" width="2" height="15.00" fill="#f97316" opacity="0.35"/>
<rect x="348.08" y="350.00" width="2" height="15.00" fill="#f97316" opacity="0.35"/>
<rect x="349.61" y="350.00" width="2" height="15.00" fill="#f97316" opacity="0.35"/>
<rect x="351.14" y="350.00" width="2" height="15.00" fill="#f97316" opacity="0.35"/>
<rect x="354.96" y="350.00" width="2" height="15.00" fill="#f97316" opacity="0.35"/>
<rect x="355.73" y="350.00" width="2" height="15.00" fill="#f97316" opacity="0.35"/>
<rect x="356.49" y="350.00" width="2" height="15.00" fill="#f97316" opacity="0.35"/>
<rect x="358.79" y="350.00" width="2" height="15.00" fill="#f97316" opacity="0.35"/>
<rect x="362.61" y="350.00" width="2" height="15.00" fill="#f97316" opacity="0.35"/>
<rect x="364.14" y="350.00" width="2" height="15.00" fill="#f97316" opacity="0.35"/>
<rect x="368.73" y="350.00" width="2" height="15.00" fill="#f97316" opacity="0.35"/>
<rect x="371.02" y="350.00" width="2" height="15.00" fill="#f97316" opacity="0.35"/>
<rect x="374.08" y="350.00" width="2" height="15.00" fill="#f97316" opacity="0.35"/>
<rect x="374.84" y="335.00" width="2" height="30.00" fill="#f97316" opacity="0.35"/>
<rect x="375.61" y="350.00" width="2" height="15.00" fill="#f97316" opacity="0.35"/>
<rect x="377.14" y="350.00" width="2" height="15.00" fill="#f97316" opacity="0.35"/>
<rect x="379.43" y="350.00" width="2" height="15.00" fill="#f97316" opacity="0.35"/>
<rect x="382.49" y="350.00" width="2" height="15.00" fill="#f97316" opacity="0.35"/>
<rect x="385.55" y="350.00" width="2" height="15.00" fill="#f97316" opacity="0.35"/>
<rect x="387.08" y="350.00" width="2" height="15.00" fill="#f97316" opacity="0.35"/>
<rect x="388.60" y="350.00" width="2" height="15.00" fill="#f97316" opacity="0.35"/>
<rect x="389.37" y="350.00" width="2" height="15.00" fill="#f97316" opacity="0.35"/>
<rect x="390.13" y="350.00" width="2" height="15.00" fill="#f97316" opacity="0.35"/>
<rect x="390.90" y="350.00" width="2" height="15.00" fill="#f97316" opacity="0.35"/>
<rect x="394.72" y="350.00" width="2" height="15.00" fill="#f97316" opacity="0.35"/>
<rect x="397.02" y="335.00" width="2" height="30.00" fill="#f97316" opacity="0.35"/>
<rect x="403.13" y="350.00" width="2" height="15.00" fill="#f97316" opacity="0.35"/>
<rect x="410.78" y="350.00" width="2" height="15.00" fill="#f97316" opacity="0.35"/>
<rect x="411.54" y="350.00" width="2" height="15.00" fill="#f97316" opacity="0.35"/>
<rect x="412.31" y="350.00" width="2" height="15.00" fill="#f97316" opacity="0.35"/>
<rect x="421.48" y="350.00" width="2" height="15.00" fill="#f97316" opacity="0.35"/>
<rect x="422.25" y="350.00" width="2" height="15.00" fill="#f97316" opacity="0.35"/>
<rect x="423.01" y="350.00" width="2" height="15.00" fill="#f97316" opacity="0.35"/>
<rect x="424.54" y="350.00" width="2" height="15.00" fill="#f97316" opacity="0.35"/>
<rect x="429.89" y="335.00" width="2" height="30.00" fill="#f97316" opacity="0.35"/>
<rect x="432.95" y="350.00" width="2" height="15.00" fill="#f97316" opacity="0.35"/>
<rect x="433.72" y="320.00" width="2" height="45.00" fill="#f97316" opacity="0.35"/>
<rect x="435.25" y="335.00" width="2" height="30.00" fill="#f97316" opacity="0.35"/>
<rect x="439.83" y="335.00" width="2" height="30.00" fill="#f97316" opacity="0.35"/>
<rect x="445.19" y="350.00" width="2" height="15.00" fill="#f97316" opacity="0.35"/>
<rect x="445.95" y="350.00" width="2" height="15.00" fill="#f97316" opacity="0.35"/>
<rect x="446.71" y="350.00" width="2" height="15.00" fill="#f97316" opacity="0.35"/>
<rect x="449.77" y="335.00" width="2" height="30.00" fill="#f97316" opacity="0.35"/>
<rect x="450.54" y="350.00" width="2" height="15.00" fill="#f97316" opacity="0.35"/>
<rect x="452.07" y="350.00" width="2" height="15.00" fill="#f97316" opacity="0.35"/>
<rect x="452.83" y="350.00" width="2" height="15.00" fill="#f97316" opacity="0.35"/>
<rect x="455.13" y="350.00" width="2" height="15.00" fill="#f97316" opacity="0.35"/>
<rect x="460.48" y="350.00" width="2" height="15.00" fill="#f97316" opacity="0.35"/>
<rect x="465.07" y="335.00" width="2" height="30.00" fill="#f97316" opacity="0.35"/>
<rect x="468.12" y="350.00" width="2" height="15.00" fill="#f97316" opacity="0.35"/>
<rect x="472.71" y="350.00" width="2" height="15.00" fill="#f97316" opacity="0.35"/>
<rect x="476.53" y="350.00" width="2" height="15.00" fill="#f97316" opacity="0.35"/>
<rect x="479.59" y="350.00" width="2" height="15.00" fill="#f97316" opacity="0.35"/>
<rect x="488.00" y="350.00" width="2" height="15.00" fill="#f97316" opacity="0.35"/>
<rect x="493.36" y="350.00" width="2" height="15.00" fill="#f97316" opacity="0.35"/>
<rect x="494.12" y="350.00" width="2" height="15.00" fill="#f97316" opacity="0.35"/>
<rect x="495.65" y="350.00" width="2" height="15.00" fill="#f97316" opacity="0.35"/>
<rect x="496.41" y="350.00" width="2" height="15.00" fill="#f97316" opacity="0.35"/>
<rect x="497.94" y="350.00" width="2" height="15.00" fill="#f97316" opacity="0.35"/>
<rect x="498.71" y="335.00" width="2" height="30.00" fill="#f97316" opacity="0.35"/>
<rect x="499.47" y="350.00" width="2" height="15.00" fill="#f97316" opacity="0.35"/>
<rect x="501.77" y="350.00" width="2" height="15.00" fill="#f97316" opacity="0.35"/>
<rect x="503.30" y="350.00" width="2" height="15.00" fill="#f97316" opacity="0.35"/>
<rect x="504.06" y="335.00" width="2" height="30.00" fill="#f97316" opacity="0.35"/>
<rect x="506.35" y="350.00" width="2" height="15.00" fill="#f97316" opacity="0.35"/>
<rect x="512.47" y="350.00" width="2" height="15.00" fill="#f97316" opacity="0.35"/>
<rect x="514.00" y="350.00" width="2" height="15.00" fill="#f97316" opacity="0.35"/>
<rect x="518.59" y="350.00" width="2" height="15.00" fill="#f97316" opacity="0.35"/>
<rect x="527.00" y="350.00" width="2" height="15.00" fill="#f97316" opacity="0.35"/>
<rect x="533.12" y="350.00" width="2" height="15.00" fill="#f97316" opacity="0.35"/>
<rect x="534.64" y="335.00" width="2" height="30.00" fill="#f97316" opacity="0.35"/>
<rect x="535.41" y="350.00" width="2" height="15.00" fill="#f97316" opacity="0.35"/>
<rect x="538.47" y="350.00" width="2" height="15.00" fill="#f97316" opacity="0.35"/>
<rect x="539.23" y="350.00" width="2" height="15.00" fill="#f97316" opacity="0.35"/>
<rect x="546.11" y="350.00" width="2" height="15.00" fill="#f97316" opacity="0.35"/>
<rect x="548.41" y="350.00" width="2" height="15.00" fill="#f97316" opacity="0.35"/>
<rect x="549.94" y="350.00" width="2" height="15.00" fill="#f97316" opacity="0.35"/>
<rect x="550.70" y="350.00" width="2" height="15.00" fill="#f97316" opacity="0.35"/>
<rect x="551.47" y="350.00" width="2" height="15.00" fill="#f97316" opacity="0.35"/>
<rect x="552.99" y="350.00" width="2" height="15.00" fill="#f97316" opacity="0.35"/>
<rect x="558.35" y="335.00" width="2" height="30.00" fill="#f97316" opacity="0.35"/>
<rect x="560.64" y="305.00" width="2" height="60.00" fill="#f97316" opacity="0.35"/>
<rect x="569.05" y="335.00" width="2" height="30.00" fill="#f97316" opacity="0.35"/>
<rect x="572.87" y="350.00" width="2" height="15.00" fill="#f97316" opacity="0.35"/>
<rect x="580.52" y="320.00" width="2" height="45.00" fill="#f97316" opacity="0.35"/>
<rect x="585.11" y="350.00" width="2" height="15.00" fill="#f97316" opacity="0.35"/>
<rect x="592.75" y="350.00" width="2" height="15.00" fill="#f97316" opacity="0.35"/>
<rect x="595.05" y="335.00" width="2" height="30.00" fill="#f97316" opacity="0.35"/>
<rect x="595.81" y="350.00" width="2" height="15.00" fill="#f97316" opacity="0.35"/>
<rect x="597.34" y="335.00" width="2" height="30.00" fill="#f97316" opacity="0.35"/>
<rect x="601.93" y="350.00" width="2" height="15.00" fill="#f97316" opacity="0.35"/>
<rect x="602.69" y="350.00" width="2" height="15.00" fill="#f97316" opacity="0.35"/>
<rect x="603.46" y="350.00" width="2" height="15.00" fill="#f97316" opacity="0.35"/>
<rect x="604.22" y="350.00" width="2" height="15.00" fill="#f97316" opacity="0.35"/>
<rect x="605.75" y="350.00" width="2" height="15.00" fill="#f97316" opacity="0.35"/>
<rect x="606.52" y="350.00" width="2" height="15.00" fill="#f97316" opacity="0.35"/>
<rect x="609.58" y="350.00" width="2" height="15.00" fill="#f97316" opacity="0.35"/>
<rect x="611.10" y="350.00" width="2" height="15.00" fill="#f97316" opacity="0.35"/>
<rect x="620.28" y="350.00" width="2" height="15.00" fill="#f97316" opacity="0.35"/>
<rect x="621.04" y="350.00" width="2" height="15.00" fill="#f97316" opacity="0.35"/>
<rect x="624.87" y="335.00" width="2" height="30.00" fill="#f97316" opacity="0.35"/>
<rect x="625.63" y="350.00" width="2" height="15.00" fill="#f97316" opacity="0.35"/>
<rect x="632.51" y="350.00" width="2" height="15.00" fill="#f97316" opacity="0.35"/>
<rect x="634.04" y="350.00" width="2" height="15.00" fill="#f97316" opacity="0.35"/>
<rect x="637.87" y="350.00" width="2" height="15.00" fill="#f97316" opacity="0.35"/>
<rect x="640.92" y="350.00" width="2" height="15.00" fill="#f97316" opacity="0.35"/>
<rect x="658.51" y="350.00" width="2" height="15.00" fill="#f97316" opacity="0.35"/>
<rect x="664.63" y="350.00" width="2" height="15.00" fill="#f97316" opacity="0.35"/>
<rect x="666.92" y="350.00" width="2" height="15.00" fill="#f97316" opacity="0.35"/>
<rect x="672.27" y="350.00" width="2" height="15.00" fill="#f97316" opacity="0.35"/>
<rect x="673.04" y="335.00" width="2" height="30.00" fill="#f97316" opacity="0.35"/>
<rect x="673.80" y="335.00" width="2" height="30.00" fill="#f97316" opacity="0.35"/>
<rect x="682.21" y="335.00" width="2" height="30.00" fill="#f97316" opacity="0.35"/>
<rect x="684.51" y="350.00" width="2" height="15.00" fill="#f97316" opacity="0.35"/>
<rect x="686.80" y="350.00" width="2" height="15.00" fill="#f97316" opacity="0.35"/>
<rect x="688.33" y="350.00" width="2" height="15.00" fill="#f97316" opacity="0.35"/>
<rect x="694.45" y="350.00" width="2" height="15.00" fill="#f97316" opacity="0.35"/>
<rect x="700.56" y="350.00" width="2" height="15.00" fill="#f97316" opacity="0.35"/>
<rect x="703.62" y="350.00" width="2" height="15.00" fill="#f97316" opacity="0.35"/>
<rect x="708.21" y="320.00" width="2" height="45.00" fill="#f97316" opacity="0.35"/>
<rect x="711.27" y="350.00" width="2" height="15.00" fill="#f97316" opacity="0.35"/>
<rect x="718.15" y="350.00" width="2" height="15.00" fill="#f97316" opacity="0.35"/>
<rect x="720.44" y="350.00" width="2" height="15.00" fill="#f97316" opacity="0.35"/>
<rect x="721.21" y="350.00" width="2" height="15.00" fill="#f97316" opacity="0.35"/>
<rect x="722.74" y="350.00" width="2" height="15.00" fill="#f97316" opacity="0.35"/>
<rect x="724.27" y="350.00" width="2" height="15.00" fill="#f97316" opacity="0.35"/>
<rect x="726.56" y="350.00" width="2" height="15.00" fill="#f97316" opacity="0.35"/>
<rect x="728.09" y="350.00" width="2" height="15.00" fill="#f97316" opacity="0.35"/>
<rect x="731.15" y="335.00" width="2" height="30.00" fill="#f97316" opacity="0.35"/>
<rect x="734.97" y="290.00" width="2" height="75.00" fill="#f97316" opacity="0.35"/>
<rect x="735.74" y="350.00" width="2" height="15.00" fill="#f97316" opacity="0.35"/>
<rect x="736.50" y="350.00" width="2" height="15.00" fill="#f97316" opacity="0.35"/>
<rect x="741.09" y="350.00" width="2" height="15.00" fill="#f97316" opacity="0.35"/>
<rect x="745.68" y="335.00" width="2" height="30.00" fill="#f97316" opacity="0.35"/>
<rect x="747.20" y="335.00" width="2" height="30.00" fill="#f97316" opacity="0.35"/>
<rect x="751.79" y="350.00" width="2" height="15.00" fill="#f97316" opacity="0.35"/>
<rect x="757.14" y="350.00" width="2" height="15.00" fill="#f97316" opacity="0.35"/>
<rect x="761.73" y="350.00" width="2" height="15.00" fill="#f97316" opacity="0.35"/>
<rect x="764.03" y="350.00" width="2" height="15.00" fill="#f97316" opacity="0.35"/>
<rect x="767.08" y="350.00" width="2" height="15.00" fill="#f97316" opacity="0.35"/>
<rect x="767.85" y="350.00" width="2" height="15.00" fill="#f97316" opacity="0.35"/>
<rect x="772.44" y="350.00" width="2" height="15.00" fill="#f97316" opacity="0.35"/>
<rect x="776.26" y="335.00" width="2" height="30.00" fill="#f97316" opacity="0.35"/>
<rect x="779.32" y="335.00" width="2" height="30.00" fill="#f97316" opacity="0.35"/>
<rect x="781.61" y="350.00" width="2" height="15.00" fill="#f97316" opacity="0.35"/>
<rect x="792.32" y="350.00" width="2" height="15.00" fill="#f97316" opacity="0.35"/>
<rect x="795.37" y="350.00" width="2" height="15.00" fill="#f97316" opacity="0.35"/>
<rect x="799.20" y="335.00" width="2" height="30.00" fill="#f97316" opacity="0.35"/>
<rect x="806.84" y="350.00" width="2" height="15.00" fill="#f97316" opacity="0.35"/>
<rect x="807.61" y="350.00" width="2" height="15.00" fill="#f97316" opacity="0.35"/>
<rect x="809.90" y="350.00" width="2" height="15.00" fill="#f97316" opacity="0.35"/>
<rect x="813.73" y="350.00" width="2" height="15.00" fill="#f97316" opacity="0.35"/>
<rect x="816.02" y="350.00" width="2" height="15.00" fill="#f97316" opacity="0.35"/>
<rect x="816.78" y="350.00" width="2" height="15.00" fill="#f97316" opacity="0.35"/>
<rect x="822.14" y="350.00" width="2" height="15.00" fill="#f97316" opacity="0.35"/>
<rect x="822.90" y="350.00" width="2" height="15.00" fill="#f97316" opacity="0.35"/>
<rect x="824.43" y="350.00" width="2" height="15.00" fill="#f97316" opacity="0.35"/>
<rect x="829.02" y="350.00" width="2" height="15.00" fill="#f97316" opacity="0.35"/>
<rect x="834.37" y="350.00" width="2" height="15.00" fill="#f97316" opacity="0.35"/>
<rect x="851.96" y="350.00" width="2" height="15.00" fill="#f97316" opacity="0.35"/>
<rect x="853.48" y="350.00" width="2" height="15.00" fill="#f97316" opacity="0.35"/>
<rect x="859.60" y="350.00" width="2" height="15.00" fill="#f97316" opacity="0.35"/>
<rect x="861.13" y="350.00" width="2" height="15.00" fill="#f97316" opacity="0.35"/>
<rect x="870.31" y="350.00" width="2" height="15.00" fill="#f97316" opacity="0.35"/>
<rect x="877.19" y="350.00" width="2" height="15.00" fill="#f97316" opacity="0.35"/>
<rect x="879.48" y="350.00" width="2" height="15.00" fill="#f97316" opacity="0.35"/>
<rect x="892.48" y="350.00" width="2" height="15.00" fill="#f97316" opacity="0.35"/>
<rect x="904.71" y="350.00" width="2" height="15.00" fill="#f97316" opacity="0.35"/>
<rect x="907.77" y="350.00" width="2" height="15.00" fill="#f97316" opacity="0.35"/>
<rect x="910.83" y="350.00" width="2" height="15.00" fill="#f97316" opacity="0.35"/>
<rect x="922.30" y="350.00" width="2" height="15.00" fill="#f97316" opacity="0.35"/>
<rect x="926.12" y="350.00" width="2" height="15.00" fill="#f97316" opacity="0.35"/>
<rect x="952.12" y="350.00" width="2" height="15.00" fill="#f97316" opacity="0.35"/>
<rect x="953.65" y="350.00" width="2" height="15.00" fill="#f97316" opacity="0.35"/>
<rect x="955.94" y="350.00" width="2" height="15.00" fill="#f97316" opacity="0.35"/>
<rect x="956.71" y="350.00" width="2" height="15.00" fill="#f97316" opacity="0.35"/>
<rect x="957.47" y="350.00" width="2" height="15.00" fill="#f97316" opacity="0.35"/>
<polyline points="70.00,364.34 70.76,360.39 71.53,359.07 72.29,356.43 73.06,354.45 73.82,353.13 74.59,351.16 75.35,347.20 76.12,347.20 76.88,346.54 77.65,345.22 78.41,343.25 79.18,343.25 79.94,341.93 80.70,341.27 81.47,340.61 82.23,338.63 83.00,337.97 83.76,337.97 84.53,335.99 85.29,334.68 86.06,334.02 86.82,332.04 87.59,332.04 88.35,330.06 89.12,328.74 89.88,328.08 90.64,326.76 91.41,324.13 92.17,322.81 92.94,320.83 93.70,320.83 94.47,320.83 95.23,316.88 96.00,316.22 96.76,316.22 97.53,315.56 98.29,315.56 99.05,315.56 99.82,313.58 100.58,312.92 101.35,312.26 102.11,311.60 102.88,311.60 103.64,311.60 104.41,310.94 105.17,310.28 105.94,309.62 106.70,308.31 107.47,307.65 108.23,306.99 108.99,305.67 109.76,305.01 110.52,303.69 111.29,303.69 112.05,303.69 112.82,302.37 113.58,302.37 114.35,301.71 115.11,301.71 115.88,300.40 116.64,299.74 117.41,299.08 118.17,299.08 118.93,298.42 119.70,297.76 120.46,295.12 121.23,294.46 121.99,294.46 122.76,292.48 123.52,292.48 124.29,291.83 125.05,290.51 125.82,289.85 126.58,289.19 127.35,289.19 128.11,287.87 128.87,287.87 129.64,287.21 130.40,287.21 131.17,287.21 131.93,287.21 132.70,285.89 133.46,285.89 134.23,285.89 134.99,284.57 135.76,284.57 136.52,284.57 137.29,282.60 138.05,282.60 138.81,279.96 139.58,277.98 140.34,277.98 141.11,277.32 141.87,277.32 142.64,276.00 143.40,276.00 144.17,276.00 144.93,276.00 145.70,275.34 146.46,274.03 147.23,273.37 147.99,273.37 148.75,272.71 149.52,270.73 150.28,270.07 151.05,270.07 151.81,269.41 152.58,268.75 153.34,268.09 154.11,268.09 154.87,266.77 155.64,265.46 156.40,265.46 157.16,263.48 157.93,263.48 158.69,263.48 159.46,262.82 160.22,262.16 160.99,262.16 161.75,261.50 162.52,261.50 163.28,260.84 164.05,260.84 164.81,260.18 165.58,260.18 166.34,260.18 167.10,260.18 167.87,259.52 168.63,259.52 169.40,259.52 170.16,257.55 170.93,256.89 171.69,256.23 172.46,256.23 173.22,256.23 173.99,255.57 174.75,254.91 175.52,254.25 176.28,254.25 177.04,254.25 177.81,253.59 178.57,253.59 179.34,252.93 180.10,252.93 180.87,252.93 181.63,252.27 182.40,251.61 183.16,251.61 183.93,250.95 184.69,250.29 185.46,249.63 186.22,248.32 186.98,248.32 187.75,246.34 188.51,246.34 189.28,245.68 190.04,245.68 190.81,245.68 191.57,245.68 192.34,245.68 193.10,245.68 193.87,245.68 194.63,245.68 195.40,245.68 196.16,243.70 196.92,243.70 197.69,241.72 198.45,241.72 199.22,241.72 199.98,241.72 200.75,241.06 201.51,240.41 202.28,239.75 203.04,239.09 203.81,239.09 204.57,239.09 205.34,239.09 206.10,239.09 206.86,238.43 207.63,237.77 208.39,237.77 209.16,237.11 209.92,236.45 210.69,236.45 211.45,235.79 212.22,235.79 212.98,233.81 213.75,233.81 214.51,233.15 215.27,232.49 216.04,232.49 216.80,231.18 217.57,230.52 218.33,230.52 219.10,230.52 219.86,229.86 220.63,229.86 221.39,229.20 222.16,227.22 222.92,226.56 223.69,226.56 224.45,226.56 225.21,225.90 225.98,225.90 226.74,225.90 227.51,225.90 228.27,225.90 229.04,225.24 229.80,225.24 230.57,225.24 231.33,224.58 232.10,224.58 232.86,224.58 233.63,224.58 234.39,224.58 235.15,224.58 235.92,223.92 236.68,223.92 237.45,223.92 238.21,223.27 238.98,221.95 239.74,221.95 240.51,221.95 241.27,221.95 242.04,221.29 242.80,221.29 243.57,221.29 244.33,220.63 245.09,220.63 245.86,220.63 246.62,220.63 247.39,220.63 248.15,220.63 248.92,220.63 249.68,220.63 250.45,220.63 251.21,219.97 251.98,219.97 252.74,219.97 253.51,219.97 254.27,219.31 255.03,217.99 255.80,217.99 256.56,217.33 257.33,217.33 258.09,216.67 258.86,216.01 259.62,216.01 260.39,215.35 261.15,214.04 261.92,213.38 262.68,213.38 263.45,212.06 264.21,210.74 264.97,210.74 265.74,210.74 266.50,209.42 267.27,209.42 268.03,209.42 268.80,208.76 269.56,208.76 270.33,208.76 271.09,208.76 271.86,208.76 272.62,208.76 273.38,208.76 274.15,208.76 274.91,208.76 275.68,208.10 276.44,208.10 277.21,208.10 277.97,208.10 278.74,207.44 279.50,207.44 280.27,207.44 281.03,207.44 281.80,207.44 282.56,206.78 283.32,206.78 284.09,206.13 284.85,205.47 285.62,204.15 286.38,204.15 287.15,202.83 287.91,202.83 288.68,202.83 289.44,202.83 290.21,202.83 290.97,202.83 291.74,202.83 292.50,202.83 293.26,202.83 294.03,201.51 294.79,201.51 295.56,200.85 296.32,200.19 297.09,200.19 297.85,200.19 298.62,200.19 299.38,200.19 300.15,200.19 300.91,200.19 301.68,199.53 302.44,199.53 303.20,198.87 303.97,198.87 304.73,198.87 305.50,198.87 306.26,198.87 307.03,198.22 307.79,197.56 308.56,196.90 309.32,196.24 310.09,196.24 310.85,196.24 311.62,195.58 312.38,195.58 313.14,194.92 313.91,194.26 314.67,194.26 315.44,194.26 316.20,194.26 316.97,194.26 317.73,194.26 318.50,192.94 319.26,192.28 320.03,192.28 320.79,192.28 321.55,191.62 322.32,191.62 323.08,191.62 323.85,190.30 324.61,190.30 325.38,190.30 326.14,190.30 326.91,190.30 327.67,190.30 328.44,190.30 329.20,190.30 329.97,189.65 330.73,189.65 331.49,189.65 332.26,189.65 333.02,188.99 333.79,187.67 334.55,187.67 335.32,187.67 336.08,187.67 336.85,186.35 337.61,185.69 338.38,185.03 339.14,184.37 339.91,184.37 340.67,183.71 341.43,183.05 342.20,182.39 342.96,181.73 343.73,181.73 344.49,181.73 345.26,181.08 346.02,180.42 346.79,180.42 347.55,180.42 348.32,180.42 349.08,179.76 349.85,179.76 350.61,179.10 351.37,179.10 352.14,178.44 352.90,178.44 353.67,178.44 354.43,178.44 355.20,178.44 355.96,177.78 356.73,177.12 357.49,176.46 358.26,176.46 359.02,176.46 359.79,175.80 360.55,175.80 361.31,175.80 362.08,175.80 362.84,175.80 363.61,175.14 364.37,175.14 365.14,174.48 365.90,174.48 366.67,174.48 367.43,174.48 368.20,174.48 368.96,174.48 369.73,173.82 370.49,173.82 371.25,173.82 372.02,173.16 372.78,173.16 373.55,173.16 374.31,173.16 375.08,172.51 375.84,171.19 376.61,170.53 377.37,170.53 378.14,169.87 378.90,169.87 379.66,169.87 380.43,169.21 381.19,169.21 381.96,169.21 382.72,169.21 383.49,168.55 384.25,168.55 385.02,168.55 385.78,168.55 386.55,167.89 387.31,167.89 388.08,167.23 388.84,167.23 389.60,166.57 390.37,165.91 391.13,165.25 391.90,164.59 392.66,164.59 393.43,164.59 394.19,164.59 394.96,164.59 395.72,163.94 396.49,163.94 397.25,163.94 398.02,162.62 398.78,162.62 399.54,162.62 400.31,162.62 401.07,162.62 401.84,162.62 402.60,162.62 403.37,162.62 404.13,161.96 404.90,161.96 405.66,161.96 406.43,161.96 407.19,161.96 407.96,161.96 408.72,161.96 409.48,161.96 410.25,161.96 411.01,161.96 411.78,161.30 412.54,160.64 413.31,159.98 414.07,159.98 414.84,159.98 415.60,159.98 416.37,159.98 417.13,159.98 417.90,159.98 418.66,159.98 419.42,159.98 420.19,159.98 420.95,159.98 421.72,159.98 422.48,159.32 423.25,158.66 424.01,158.00 424.78,158.00 425.54,157.34 426.31,157.34 427.07,157.34 427.84,157.34 428.60,157.34 429.36,157.34 430.13,157.34 430.89,156.02 431.66,156.02 432.42,156.02 433.19,156.02 433.95,155.37 434.72,153.39 435.48,153.39 436.25,152.07 437.01,152.07 437.77,152.07 438.54,152.07 439.30,152.07 440.07,152.07 440.83,150.75 441.60,150.75 442.36,150.75 443.13,150.75 443.89,150.75 444.66,150.75 445.42,150.75 446.19,150.09 446.95,149.43 447.71,148.77 448.48,148.77 449.24,148.77 450.01,148.77 450.77,147.45 451.54,146.80 452.30,146.80 453.07,146.14 453.83,145.48 454.60,145.48 455.36,145.48 456.13,144.82 456.89,144.82 457.65,144.82 458.42,144.82 459.18,144.82 459.95,144.82 460.71,144.82 461.48,144.16 462.24,144.16 463.01,144.16 463.77,144.16 464.54,144.16 465.30,144.16 466.07,142.84 466.83,142.84 467.59,142.84 468.36,142.84 469.12,142.18 469.89,142.18 470.65,142.18 471.42,142.18 472.18,142.18 472.95,142.18 473.71,141.52 474.48,141.52 475.24,141.52 476.01,141.52 476.77,141.52 477.53,140.86 478.30,140.86 479.06,140.86 479.83,140.86 480.59,140.20 481.36,140.20 482.12,140.20 482.89,140.20 483.65,140.20 484.42,140.20 485.18,140.20 485.95,140.20 486.71,140.20 487.47,140.20 488.24,140.20 489.00,139.54 489.77,139.54 490.53,139.54 491.30,139.54 492.06,139.54 492.83,139.54 493.59,139.54 494.36,138.88 495.12,138.23 495.88,138.23 496.65,137.57 497.41,136.91 498.18,136.91 498.94,136.25 499.71,134.93 500.47,134.27 501.24,134.27 502.00,134.27 502.77,133.61 503.53,133.61 504.30,132.95 505.06,131.63 505.82,131.63 506.59,131.63 507.35,130.97 508.12,130.97 508.88,130.97 509.65,130.97 510.41,130.97 511.18,130.97 511.94,130.97 512.71,130.97 513.47,130.31 514.24,130.31 515.00,129.66 515.76,129.66 516.53,129.66 517.29,129.66 518.06,129.66 518.82,129.66 519.59,129.00 520.35,129.00 521.12,129.00 521.88,129.00 522.65,129.00 523.41,129.00 524.18,129.00 524.94,129.00 525.70,129.00 526.47,129.00 527.23,129.00 528.00,128.34 528.76,128.34 529.53,128.34 530.29,128.34 531.06,128.34 531.82,128.34 532.59,128.34 533.35,128.34 534.12,127.68 534.88,127.68 535.64,126.36 536.41,125.70 537.17,125.70 537.94,125.70 538.70,125.70 539.47,125.04 540.23,124.38 541.00,124.38 541.76,124.38 542.53,124.38 543.29,124.38 544.05,124.38 544.82,124.38 545.58,124.38 546.35,124.38 547.11,123.72 547.88,123.72 548.64,123.72 549.41,123.06 550.17,123.06 550.94,122.40 551.70,121.74 552.47,121.09 553.23,121.09 553.99,120.43 554.76,120.43 555.52,120.43 556.29,120.43 557.05,120.43 557.82,120.43 558.58,120.43 559.35,119.11 560.11,119.11 560.88,119.11 561.64,116.47 562.41,116.47 563.17,116.47 563.93,116.47 564.70,116.47 565.46,116.47 566.23,116.47 566.99,116.47 567.76,116.47 568.52,116.47 569.29,116.47 570.05,115.15 570.82,115.15 571.58,115.15 572.35,115.15 573.11,115.15 573.87,114.49 574.64,114.49 575.40,114.49 576.17,114.49 576.93,114.49 577.70,114.49 578.46,114.49 579.23,114.49 579.99,114.49 580.76,114.49 581.52,112.52 582.29,112.52 583.05,112.52 583.81,112.52 584.58,112.52 585.34,112.52 586.11,111.86 586.87,111.86 587.64,111.86 588.40,111.86 589.17,111.86 589.93,111.86 590.70,111.86 591.46,111.86 592.23,111.86 592.99,111.86 593.75,111.20 594.52,111.20 595.28,111.20 596.05,109.88 596.81,109.22 597.58,109.22 598.34,107.90 599.11,107.90 599.87,107.90 600.64,107.90 601.40,107.90 602.16,107.90 602.93,107.24 603.69,106.58 604.46,105.92 605.22,105.26 605.99,105.26 606.75,104.60 607.52,103.95 608.28,103.95 609.05,103.95 609.81,103.95 610.58,103.29 611.34,103.29 612.10,102.63 612.87,102.63 613.63,102.63 614.40,102.63 615.16,102.63 615.93,102.63 616.69,102.63 617.46,102.63 618.22,102.63 618.99,102.63 619.75,102.63 620.52,102.63 621.28,101.97 622.04,101.31 622.81,101.31 623.57,101.31 624.34,101.31 625.10,101.31 625.87,99.99 626.63,99.33 627.40,99.33 628.16,99.33 628.93,99.33 629.69,99.33 630.46,99.33 631.22,99.33 631.98,99.33 632.75,99.33 633.51,98.67 634.28,98.67 635.04,98.01 635.81,98.01 636.57,98.01 637.34,98.01 638.10,98.01 638.87,97.35 639.63,97.35 640.40,97.35 641.16,97.35 641.92,96.69 642.69,96.69 643.45,96.69 644.22,96.69 644.98,96.69 645.75,96.69 646.51,96.69 647.28,96.69 648.04,96.69 648.81,96.69 649.57,96.69 650.34,96.69 651.10,96.69 651.86,96.69 652.63,96.69 653.39,96.69 654.16,96.69 654.92,96.69 655.69,96.69 656.45,96.69 657.22,96.69 657.98,96.69 658.75,96.69 659.51,96.03 660.27,96.03 661.04,96.03 661.80,96.03 662.57,96.03 663.33,96.03 664.10,96.03 664.86,96.03 665.63,95.38 666.39,95.38 667.16,95.38 667.92,94.72 668.69,94.72 669.45,94.72 670.21,94.72 670.98,94.72 671.74,94.72 672.51,94.72 673.27,94.06 674.04,92.74 674.80,91.42 675.57,91.42 676.33,91.42 677.10,91.42 677.86,91.42 678.63,91.42 679.39,91.42 680.15,91.42 680.92,91.42 681.68,91.42 682.45,91.42 683.21,90.10 683.98,90.10 684.74,90.10 685.51,89.44 686.27,89.44 687.04,89.44 687.80,88.78 688.57,88.78 689.33,88.12 690.09,88.12 690.86,88.12 691.62,88.12 692.39,88.12 693.15,88.12 693.92,88.12 694.68,88.12 695.45,87.46 696.21,87.46 696.98,87.46 697.74,87.46 698.51,87.46 699.27,87.46 700.03,87.46 700.80,87.46 701.56,86.81 702.33,86.81 703.09,86.81 703.86,86.81 704.62,86.15 705.39,86.15 706.15,86.15 706.92,86.15 707.68,86.15 708.45,86.15 709.21,84.17 709.97,84.17 710.74,84.17 711.50,84.17 712.27,83.51 713.03,83.51 713.80,83.51 714.56,83.51 715.33,83.51 716.09,83.51 716.86,83.51 717.62,83.51 718.38,83.51 719.15,82.85 719.91,82.85 720.68,82.85 721.44,82.19 722.21,81.53 722.97,81.53 723.74,80.87 724.50,80.87 725.27,80.21 726.03,80.21 726.80,80.21 727.56,79.55 728.32,79.55 729.09,78.89 729.85,78.89 730.62,78.89 731.38,78.89 732.15,77.58 732.91,77.58 733.68,77.58 734.44,77.58 735.21,77.58 735.97,74.28 736.74,73.62 737.50,72.96 738.26,72.96 739.03,72.96 739.79,72.96 740.56,72.96 741.32,72.96 742.09,72.30 742.85,72.30 743.62,72.30 744.38,72.30 745.15,72.30 745.91,72.30 746.68,70.98 747.44,70.98 748.20,69.67 748.97,69.67 749.73,69.67 750.50,69.67 751.26,69.67 752.03,69.67 752.79,69.01 753.56,69.01 754.32,69.01 755.09,69.01 755.85,69.01 756.62,69.01 757.38,69.01 758.14,68.35 758.91,68.35 759.67,68.35 760.44,68.35 761.20,68.35 761.97,68.35 762.73,67.69 763.50,67.69 764.26,67.69 765.03,67.03 765.79,67.03 766.55,67.03 767.32,67.03 768.08,66.37 768.85,65.71 769.61,65.71 770.38,65.71 771.14,65.71 771.91,65.71 772.67,65.71 773.44,65.05 774.20,65.05 774.97,65.05 775.73,65.05 776.49,65.05 777.26,63.73 778.02,63.73 778.79,63.73 779.55,63.73 780.32,62.41 781.08,62.41 781.85,62.41 782.61,61.75 783.38,61.75 784.14,61.75 784.91,61.75 785.67,61.75 786.43,61.75 787.20,61.75 787.96,61.75 788.73,61.75 789.49,61.75 790.26,61.75 791.02,61.75 791.79,61.75 792.55,61.75 793.32,61.10 794.08,61.10 794.85,61.10 795.61,61.10 796.37,60.44 797.14,60.44 797.90,60.44 798.67,60.44 799.43,60.44 800.20,59.12 800.96,59.12 801.73,59.12 802.49,59.12 803.26,59.12 804.02,59.12 804.79,59.12 805.55,59.12 806.31,59.12 807.08,59.12 807.84,58.46 808.61,57.80 809.37,57.80 810.14,57.80 810.90,57.14 811.67,57.14 812.43,57.14 813.20,57.14 813.96,57.14 814.73,56.48 815.49,56.48 816.25,56.48 817.02,55.82 817.78,55.16 818.55,55.16 819.31,55.16 820.08,55.16 820.84,55.16 821.61,55.16 822.37,55.16 823.14,54.50 823.90,53.84 824.66,53.84 825.43,53.18 826.19,53.18 826.96,53.18 827.72,53.18 828.49,53.18 829.25,53.18 830.02,52.53 830.78,52.53 831.55,52.53 832.31,52.53 833.08,52.53 833.84,52.53 834.60,52.53 835.37,51.87 836.13,51.87 836.90,51.87 837.66,51.87 838.43,51.87 839.19,51.87 839.96,51.87 840.72,51.87 841.49,51.87 842.25,51.87 843.02,51.87 843.78,51.87 844.54,51.87 845.31,51.87 846.07,51.87 846.84,51.87 847.60,51.87 848.37,51.87 849.13,51.87 849.90,51.87 850.66,51.87 851.43,51.87 852.19,51.87 852.96,51.21 853.72,51.21 854.48,50.55 855.25,50.55 856.01,50.55 856.78,50.55 857.54,50.55 858.31,50.55 859.07,50.55 859.84,50.55 860.60,49.89 861.37,49.89 862.13,49.23 862.90,49.23 863.66,49.23 864.42,49.23 865.19,49.23 865.95,49.23 866.72,49.23 867.48,49.23 868.25,49.23 869.01,49.23 869.78,49.23 870.54,49.23 871.31,48.57 872.07,48.57 872.84,48.57 873.60,48.57 874.36,48.57 875.13,48.57 875.89,48.57 876.66,48.57 877.42,48.57 878.19,47.91 878.95,47.91 879.72,47.91 880.48,47.25 881.25,47.25 882.01,47.25 882.77,47.25 883.54,47.25 884.30,47.25 885.07,47.25 885.83,47.25 886.60,47.25 887.36,47.25 888.13,47.25 888.89,47.25 889.66,47.25 890.42,47.25 891.19,47.25 891.95,47.25 892.71,47.25 893.48,46.59 894.24,46.59 895.01,46.59 895.77,46.59 896.54,46.59 897.30,46.59 898.07,46.59 898.83,46.59 899.60,46.59 900.36,46.59 901.13,46.59 901.89,46.59 902.65,46.59 903.42,46.59 904.18,46.59 904.95,46.59 905.71,45.93 906.48,45.93 907.24,45.93 908.01,45.93 908.77,45.27 909.54,45.27 910.30,45.27 911.07,45.27 911.83,44.61 912.59,44.61 913.36,44.61 914.12,44.61 914.89,44.61 915.65,44.61 916.42,44.61 917.18,44.61 917.95,44.61 918.71,44.61 919.48,44.61 920.24,44.61 921.01,44.61 921.77,44.61 922.53,44.61 923.30,43.96 924.06,43.96 924.83,43.96 925.59,43.96 926.36,43.96 927.12,43.30 927.89,43.30 928.65,43.30 929.42,43.30 930.18,43.30 930.95,43.30 931.71,43.30 932.47,43.30 933.24,43.30 934.00,43.30 934.77,43.30 935.53,43.30 936.30,43.30 937.06,43.30 937.83,43.30 938.59,43.30 939.36,43.30 940.12,43.30 940.88,43.30 941.65,43.30 942.41,43.30 943.18,43.30 943.94,43.30 944.71,43.30 945.47,43.30 946.24,43.30 947.00,43.30 947.77,43.30 948.53,43.30 949.30,43.30 950.06,43.30 950.82,43.30 951.59,43.30 952.35,43.30 953.12,42.64 953.88,42.64 954.65,41.98 955.41,41.98 956.18,41.98 956.94,41.32 957.71,40.66 958.47,40.00 959.24,40.00 960.00,40.00" fill="none" stroke="#2563eb" stroke-width="2"/>
<text x="78" y="58" font-family="Arial" font-size="12" fill="#2563eb">blue: cumulative relations</text>
<text x="78" y="76" font-family="Arial" font-size="12" fill="#ea580c">orange bars: new relations at idx</text>
</svg>