<svg xmlns="http://www.w3.org/2000/svg" width="1000" height="430" viewBox="0 0 1000 430">
<rect width="100%" height="100%" fill="white"/>
<text x="500.0" y="24" text-anchor="middle" font-family="Arial" font-size="18" font-weight="700">Growth Curve: case4_detail_strict</text>
<line x1="70" y1="365" x2="960" y2="365" stroke="#111827"/>
<line x1="70" y1="40" x2="70" y2="365" stroke="#111827"/>
<text x="515.0" y="412" text-anchor="middle" font-family="Arial" font-size="13">sample idx</text>
<line x1="70" y1="365.00" x2="960" y2="365.00" stroke="#e5e7eb"/>
<text x="62" y="369.00" text-anchor="end" font-family="Arial" font-size="11">0</text>
<line x1="70" y1="299.83" x2="960" y2="299.83" stroke="#e5e7eb"/>
<text x="62" y="303.83" text-anchor="end" font-family="Arial" font-size="11">75</text>
<line x1="70" y1="234.65" x2="960" y2="234.65" stroke="#e5e7eb"/>
<text x="62" y="238.65" text-anchor="end" font-family="Arial" font-size="11">150</text>
<line x1="70" y1="170.35" x2="960" y2="170.35" stroke="#e5e7eb"/>
<text x="62" y="174.35" text-anchor="end" font-family="Arial" font-size="11">224</text>
<line x1="70" y1="105.17" x2="960" y2="105.17" stroke="#e5e7eb"/>
<text x="62" y="109.17" text-anchor="end" font-family="Arial" font-size="11">299</text>
<line x1="70" y1="40.00" x2="960" y2="40.00" stroke="#e5e7eb"/>
<text x="62" y="44.00" text-anchor="end" font-family="Arial" font-size="11">374</text>
<rect x="69.00" y="342.50" width="2" height="22.50" fill="#f97316" opacity="0.35"/>
<rect x="69.76" y="275.00" width="2" height="90.00" fill="#f97316" opacity="0.35"/>
<rect x="70.53" y="342.50" width="2" height="22.50" fill="#f97316" opacity="0.35"/>
<rect x="71.29" y="297.50" width="2" height="67.50" fill="#f97316" opacity="0.35"/>
<rect x="72.82" y="342.50" width="2" height="22.50" fill="#f97316" opacity="0.35"/>
<rect x="73.59" y="320.00" width="2" height="45.00" fill="#f97316" opacity="0.35"/>
<rect x="74.35" y="275.00" width="2" height="90.00" fill="#f97316" opacity="0.35"/>
<rect x="75.12" y="342.50" width="2" height="22.50" fill="#f97316" opacity="0.35"/>
<rect x="75.88" y="320.00" width="2" height="45.00" fill="#f97316" opacity="0.35"/>
<rect x="76.65" y="320.00" width="2" height="45.00" fill="#f97316" opacity="0.35"/>
<rect x="77.41" y="297.50" width="2" height="67.50" fill="#f97316" opacity="0.35"/>
<rect x="78.94" y="320.00" width="2" height="45.00" fill="#f97316" opacity="0.35"/>
<rect x="79.70" y="342.50" width="2" height="22.50" fill="#f97316" opacity="0.35"/>
<rect x="80.47" y="320.00" width="2" height="45.00" fill="#f97316" opacity="0.35"/>
<rect x="81.23" y="320.00" width="2" height="45.00" fill="#f97316" opacity="0.35"/>
<rect x="83.53" y="342.50" width="2" height="22.50" fill="#f97316" opacity="0.35"/>
<rect x="84.29" y="320.00" width="2" height="45.00" fill="#f97316" opacity="0.35"/>
<rect x="85.82" y="297.50" width="2" height="67.50" fill="#f97316" opacity="0.35"/>
<rect x="87.35" y="342.50" width="2" height="22.50" fill="#f97316" opacity="0.35"/>
<rect x="88.12" y="320.00" width="2" height="45.00" fill="#f97316" opacity="0.35"/>
<rect x="88.88" y="342.50" width="2" height="22.50" fill="#f97316" opacity="0.35"/>
<rect x="89.64" y="320.00" width="2" height="45.00" fill="#f97316" opacity="0.35"/>
<rect x="90.41" y="342.50" width="2" height="22.50" fill="#f97316" opacity="0.35"/>
<rect x="91.17" y="342.50" width="2" height="22.50" fill="#f97316" opacity="0.35"/>
<rect x="91.94" y="320.00" width="2" height="45.00" fill="#f97316" opacity="0.35"/>
<rect x="94.23" y="275.00" width="2" height="90.00" fill="#f97316" opacity="0.35"/>
<rect x="95.00" y="342.50" width="2" height="22.50" fill="#f97316" opacity="0.35"/>
<rect x="96.53" y="342.50" width="2" height="22.50" fill="#f97316" opacity="0.35"/>
<rect x="98.05" y="342.50" width="2" height="22.50" fill="#f97316" opacity="0.35"/>
<rect x="98.82" y="342.50" width="2" height="22.50" fill="#f97316" opacity="0.35"/>
<rect x="99.58" y="320.00" width="2" height="45.00" fill="#f97316" opacity="0.35"/>
<rect x="101.11" y="342.50" width="2" height="22.50" fill="#f97316" opacity="0.35"/>
<rect x="103.41" y="320.00" width="2" height="45.00" fill="#f97316" opacity="0.35"/>
<rect x="105.70" y="320.00" width="2" height="45.00" fill="#f97316" opacity="0.35"/>
<rect x="107.23" y="342.50" width="2" height="22.50" fill="#f97316" opacity="0.35"/>
<rect x="110.29" y="342.50" width="2" height="22.50" fill="#f97316" opacity="0.35"/>
<rect x="112.58" y="342.50" width="2" height="22.50" fill="#f97316" opacity="0.35"/>
<rect x="113.35" y="320.00" width="2" height="45.00" fill="#f97316" opacity="0.35"/>
<rect x="114.88" y="320.00" width="2" height="45.00" fill="#f97316" opacity="0.35"/>
<rect x="116.41" y="342.50" width="2" height="22.50" fill="#f97316" opacity="0.35"/>
<rect x="117.93" y="320.00" width="2" height="45.00" fill="#f97316" opacity="0.35"/>
<rect x="119.46" y="342.50" width="2" height="22.50" fill="#f97316" opacity="0.35"/>
<rect x="121.76" y="342.50" width="2" height="22.50" fill="#f97316" opacity="0.35"/>
<rect x="123.29" y="342.50" width="2" height="22.50" fill="#f97316" opacity="0.35"/>
<rect x="124.05" y="342.50" width="2" height="22.50" fill="#f97316" opacity="0.35"/>
<rect x="124.82" y="342.50" width="2" height="22.50" fill="#f97316" opacity="0.35"/>
<rect x="126.35" y="342.50" width="2" height="22.50" fill="#f97316" opacity="0.35"/>
<rect x="127.11" y="342.50" width="2" height="22.50" fill="#f97316" opacity="0.35"/>
<rect x="128.64" y="320.00" width="2" height="45.00" fill="#f97316" opacity="0.35"/>
<rect x="130.17" y="342.50" width="2" height="22.50" fill="#f97316" opacity="0.35"/>
<rect x="131.70" y="320.00" width="2" height="45.00" fill="#f97316" opacity="0.35"/>
<rect x="133.99" y="342.50" width="2" height="22.50" fill="#f97316" opacity="0.35"/>
<rect x="135.52" y="342.50" width="2" height="22.50" fill="#f97316" opacity="0.35"/>
<rect x="136.29" y="342.50" width="2" height="22.50" fill="#f97316" opacity="0.35"/>
<rect x="137.81" y="275.00" width="2" height="90.00" fill="#f97316" opacity="0.35"/>
<rect x="138.58" y="342.50" width="2" height="22.50" fill="#f97316" opacity="0.35"/>
<rect x="139.34" y="320.00" width="2" height="45.00" fill="#f97316" opacity="0.35"/>
<rect x="140.11" y="342.50" width="2" height="22.50" fill="#f97316" opacity="0.35"/>
<rect x="141.64" y="320.00" width="2" height="45.00" fill="#f97316" opacity="0.35"/>
<rect x="145.46" y="297.50" width="2" height="67.50" fill="#f97316" opacity="0.35"/>
<rect x="146.99" y="320.00" width="2" height="45.00" fill="#f97316" opacity="0.35"/>
<rect x="150.81" y="320.00" width="2" height="45.00" fill="#f97316" opacity="0.35"/>
<rect x="153.87" y="320.00" width="2" height="45.00" fill="#f97316" opacity="0.35"/>
<rect x="154.64" y="320.00" width="2" height="45.00" fill="#f97316" opacity="0.35"/>
<rect x="156.93" y="342.50" width="2" height="22.50" fill="#f97316" opacity="0.35"/>
<rect x="158.46" y="320.00" width="2" height="45.00" fill="#f97316" opacity="0.35"/>
<rect x="159.22" y="342.50" width="2" height="22.50" fill="#f97316" opacity="0.35"/>
<rect x="160.75" y="342.50" width="2" height="22.50" fill="#f97316" opacity="0.35"/>
<rect x="163.81" y="342.50" width="2" height="22.50" fill="#f97316" opacity="0.35"/>
<rect x="167.63" y="342.50" width="2" height="22.50" fill="#f97316" opacity="0.35"/>
<rect x="170.69" y="342.50" width="2" height="22.50" fill="#f97316" opacity="0.35"/>
<rect x="171.46" y="320.00" width="2" height="45.00" fill="#f97316" opacity="0.35"/>
<rect x="174.52" y="342.50" width="2" height="22.50" fill="#f97316" opacity="0.35"/>
<rect x="178.34" y="320.00" width="2" height="45.00" fill="#f97316" opacity="0.35"/>
<rect x="181.40" y="342.50" width="2" height="22.50" fill="#f97316" opacity="0.35"/>
<rect x="182.93" y="320.00" width="2" height="45.00" fill="#f97316" opacity="0.35"/>
<rect x="183.69" y="342.50" width="2" height="22.50" fill="#f97316" opacity="0.35"/>
<rect x="185.22" y="320.00" width="2" height="45.00" fill="#f97316" opacity="0.35"/>
<rect x="186.75" y="297.50" width="2" height="67.50" fill="#f97316" opacity="0.35"/>
<rect x="188.28" y="342.50" width="2" height="22.50" fill="#f97316" opacity="0.35"/>
<rect x="190.57" y="342.50" width="2" height="22.50" fill="#f97316" opacity="0.35"/>
<rect x="191.34" y="342.50" width="2" height="22.50" fill="#f97316" opacity="0.35"/>
<rect x="192.87" y="342.50" width="2" height="22.50" fill="#f97316" opacity="0.35"/>
<rect x="195.16" y="320.00" width="2" height="45.00" fill="#f97316" opacity="0.35"/>
<rect x="197.45" y="342.50" width="2" height="22.50" fill="#f97316" opacity="0.35"/>
<rect x="199.75" y="320.00" width="2" height="45.00" fill="#f97316" opacity="0.35"/>
<rect x="201.28" y="342.50" width="2" height="22.50" fill="#f97316" opacity="0.35"/>
<rect x="202.04" y="342.50" width="2" height="22.50" fill="#f97316" opacity="0.35"/>
<rect x="205.86" y="342.50" width="2" height="22.50" fill="#f97316" opacity="0.35"/>
<rect x="211.98" y="342.50" width="2" height="22.50" fill="#f97316" opacity="0.35"/>
<rect x="212.75" y="342.50" width="2" height="22.50" fill="#f97316" opacity="0.35"/>
<rect x="213.51" y="342.50" width="2" height="22.50" fill="#f97316" opacity="0.35"/>
<rect x="215.80" y="342.50" width="2" height="22.50" fill="#f97316" opacity="0.35"/>
<rect x="216.57" y="320.00" width="2" height="45.00" fill="#f97316" opacity="0.35"/>
<rect x="219.63" y="342.50" width="2" height="22.50" fill="#f97316" opacity="0.35"/>
<rect x="221.16" y="320.00" width="2" height="45.00" fill="#f97316" opacity="0.35"/>
<rect x="224.21" y="342.50" width="2" height="22.50" fill="#f97316" opacity="0.35"/>
<rect x="224.98" y="342.50" width="2" height="22.50" fill="#f97316" opacity="0.35"/>
<rect x="226.51" y="342.50" width="2" height="22.50" fill="#f97316" opacity="0.35"/>
<rect x="229.57" y="342.50" width="2" height="22.50" fill="#f97316" opacity="0.35"/>
<rect x="233.39" y="342.50" width="2" height="22.50" fill="#f97316" opacity="0.35"/>
<rect x="237.98" y="297.50" width="2" height="67.50" fill="#f97316" opacity="0.35"/>
<rect x="250.21" y="320.00" width="2" height="45.00" fill="#f97316" opacity="0.35"/>
<rect x="254.03" y="320.00" width="2" height="45.00" fill="#f97316" opacity="0.35"/>
<rect x="257.09" y="342.50" width="2" height="22.50" fill="#f97316" opacity="0.35"/>
<rect x="262.45" y="342.50" width="2" height="22.50" fill="#f97316" opacity="0.35"/>
<rect x="263.21" y="342.50" width="2" height="22.50" fill="#f97316" opacity="0.35"/>
<rect x="267.80" y="342.50" width="2" height="22.50" fill="#f97316" opacity="0.35"/>
<rect x="273.15" y="342.50" width="2" height="22.50" fill="#f97316" opacity="0.35"/>
<rect x="273.91" y="342.50" width="2" height="22.50" fill="#f97316" opacity="0.35"/>
<rect x="274.68" y="342.50" width="2" height="22.50" fill="#f97316" opacity="0.35"/>
<rect x="280.80" y="342.50" width="2" height="22.50" fill="#f97316" opacity="0.35"/>
<rect x="283.85" y="342.50" width="2" height="22.50" fill="#f97316" opacity="0.35"/>
<rect x="284.62" y="320.00" width="2" height="45.00" fill="#f97316" opacity="0.35"/>
<rect x="293.03" y="342.50" width="2" height="22.50" fill="#f97316" opacity="0.35"/>
<rect x="294.56" y="342.50" width="2" height="22.50" fill="#f97316" opacity="0.35"/>
<rect x="299.15" y="342.50" width="2" height="22.50" fill="#f97316" opacity="0.35"/>
<rect x="300.68" y="342.50" width="2" height="22.50" fill="#f97316" opacity="0.35"/>
<rect x="303.73" y="342.50" width="2" height="22.50" fill="#f97316" opacity="0.35"/>
<rect x="306.79" y="342.50" width="2" height="22.50" fill="#f97316" opacity="0.35"/>
<rect x="310.62" y="342.50" width="2" height="22.50" fill="#f97316" opacity="0.35"/>
<rect x="318.26" y="342.50" width="2" height="22.50" fill="#f97316" opacity="0.35"/>
<rect x="319.03" y="342.50" width="2" height="22.50" fill="#f97316" opacity="0.35"/>
<rect x="320.55" y="297.50" width="2" height="67.50" fill="#f97316" opacity="0.35"/>
<rect x="322.85" y="342.50" width="2" height="22.50" fill="#f97316" opacity="0.35"/>
<rect x="332.02" y="342.50" width="2" height="22.50" fill="#f97316" opacity="0.35"/>
<rect x="332.79" y="342.50" width="2" height="22.50" fill="#f97316" opacity="0.35"/>
<rect x="334.32" y="342.50" width="2" height="22.50" fill="#f97316" opacity="0.35"/>
<rect x="335.85" y="342.50" width="2" height="22.50" fill="#f97316" opacity="0.35"/>
<rect x="336.61" y="342.50" width="2" height="22.50" fill="#f97316" opacity="0.35"/>
<rect x="337.38" y="342.50" width="2" height="22.50" fill="#f97316" opacity="0.35"/>
<rect x="338.14" y="320.00" width="2" height="45.00" fill="#f97316" opacity="0.35"/>
<rect x="338.91" y="342.50" width="2" height="22.50" fill="#f97316" opacity="0.35"/>
<rect x="340.43" y="342.50" width="2" height="22.50" fill="#f97316" opacity="0.35"/>
<rect x="341.20" y="342.50" width="2" height="22.50" fill="#f97316" opacity="0.35"/>
<rect x="345.02" y="342.50" width="2" height="22.50" fill="#f97316" opacity="0.35"/>
<rect x="346.55" y="342.50" width="2" height="22.50" fill="#f97316" opacity="0.35"/>
<rect x="348.85" y="275.00" width="2" height="90.00" fill="#f97316" opacity="0.35"/>
<rect x="355.73" y="342.50" width="2" height="22.50" fill="#f97316" opacity="0.35"/>
<rect x="362.61" y="342.50" width="2" height="22.50" fill="#f97316" opacity="0.35"/>
<rect x="367.20" y="342.50" width="2" height="22.50" fill="#f97316" opacity="0.35"/>
<rect x="368.73" y="320.00" width="2" height="45.00" fill="#f97316" opacity="0.35"/>
<rect x="371.78" y="342.50" width="2" height="22.50" fill="#f97316" opacity="0.35"/>
<rect x="374.08" y="342.50" width="2" height="22.50" fill="#f97316" opacity="0.35"/>
<rect x="374.84" y="342.50" width="2" height="22.50" fill="#f97316" opacity="0.35"/>
<rect x="379.43" y="342.50" width="2" height="22.50" fill="#f97316" opacity="0.35"/>
<rect x="381.72" y="342.50" width="2" height="22.50" fill="#f97316" opacity="0.35"/>
<rect x="382.49" y="342.50" width="2" height="22.50" fill="#f97316" opacity="0.35"/>
<rect x="384.78" y="320.00" width="2" height="45.00" fill="#f97316" opacity="0.35"/>
<rect x="390.90" y="342.50" width="2" height="22.50" fill="#f97316" opacity="0.35"/>
<rect x="394.72" y="342.50" width="2" height="22.50" fill="#f97316" opacity="0.35"/>
<rect x="397.78" y="342.50" width="2" height="22.50" fill="#f97316" opacity="0.35"/>
<rect x="398.54" y="342.50" width="2" height="22.50" fill="#f97316" opacity="0.35"/>
<rect x="403.13" y="342.50" width="2" height="22.50" fill="#f97316" opacity="0.35"/>
<rect x="425.31" y="320.00" width="2" height="45.00" fill="#f97316" opacity="0.35"/>
<rect x="432.95" y="342.50" width="2" height="22.50" fill="#f97316" opacity="0.35"/>
<rect x="433.72" y="342.50" width="2" height="22.50" fill="#f97316" opacity="0.35"/>
<rect x="435.25" y="342.50" width="2" height="22.50" fill="#f97316" opacity="0.35"/>
<rect x="436.01" y="342.50" width="2" height="22.50" fill="#f97316" opacity="0.35"/>
<rect x="437.54" y="320.00" width="2" height="45.00" fill="#f97316" opacity="0.35"/>
<rect x="442.13" y="342.50" width="2" height="22.50" fill="#f97316" opacity="0.35"/>
<rect x="445.95" y="342.50" width="2" height="22.50" fill="#f97316" opacity="0.35"/>
<rect x="449.77" y="342.50" width="2" height="22.50" fill="#f97316" opacity="0.35"/>
<rect x="450.54" y="342.50" width="2" height="22.50" fill="#f97316" opacity="0.35"/>
<rect x="452.07" y="342.50" width="2" height="22.50" fill="#f97316" opacity="0.35"/>
<rect x="455.13" y="342.50" width="2" height="22.50" fill="#f97316" opacity="0.35"/>
<rect x="456.65" y="342.50" width="2" height="22.50" fill="#f97316" opacity="0.35"/>
<rect x="457.42" y="342.50" width="2" height="22.50" fill="#f97316" opacity="0.35"/>
<rect x="458.18" y="342.50" width="2" height="22.50" fill="#f97316" opacity="0.35"/>
<rect x="458.95" y="342.50" width="2" height="22.50" fill="#f97316" opacity="0.35"/>
<rect x="460.48" y="342.50" width="2" height="22.50" fill="#f97316" opacity="0.35"/>
<rect x="462.01" y="342.50" width="2" height="22.50" fill="#f97316" opacity="0.35"/>
<rect x="464.30" y="342.50" width="2" height="22.50" fill="#f97316" opacity="0.35"/>
<rect x="465.07" y="320.00" width="2" height="45.00" fill="#f97316" opacity="0.35"/>
<rect x="468.89" y="342.50" width="2" height="22.50" fill="#f97316" opacity="0.35"/>
<rect x="472.71" y="342.50" width="2" height="22.50" fill="#f97316" opacity="0.35"/>
<rect x="476.53" y="342.50" width="2" height="22.50" fill="#f97316" opacity="0.35"/>
<rect x="491.83" y="342.50" width="2" height="22.50" fill="#f97316" opacity="0.35"/>
<rect x="493.36" y="320.00" width="2" height="45.00" fill="#f97316" opacity="0.35"/>
<rect x="494.12" y="342.50" width="2" height="22.50" fill="#f97316" opacity="0.35"/>
<rect x="494.88" y="342.50" width="2" height="22.50" fill="#f97316" opacity="0.35"/>
<rect x="496.41" y="342.50" width="2" height="22.50" fill="#f97316" opacity="0.35"/>
<rect x="499.47" y="342.50" width="2" height="22.50" fill="#f97316" opacity="0.35"/>
<rect x="509.41" y="342.50" width="2" height="22.50" fill="#f97316" opacity="0.35"/>
<rect x="518.59" y="342.50" width="2" height="22.50" fill="#f97316" opacity="0.35"/>
<rect x="530.06" y="342.50" width="2" height="22.50" fill="#f97316" opacity="0.35"/>
<rect x="532.35" y="342.50" width="2" height="22.50" fill="#f97316" opacity="0.35"/>
<rect x="534.64" y="342.50" width="2" height="22.50" fill="#f97316" opacity="0.35"/>
<rect x="539.23" y="342.50" width="2" height="22.50" fill="#f97316" opacity="0.35"/>
<rect x="546.11" y="342.50" width="2" height="22.50" fill="#f97316" opacity="0.35"/>
<rect x="548.41" y="342.50" width="2" height="22.50" fill="#f97316" opacity="0.35"/>
<rect x="549.94" y="342.50" width="2" height="22.50" fill="#f97316" opacity="0.35"/>
<rect x="552.99" y="342.50" width="2" height="22.50" fill="#f97316" opacity="0.35"/>
<rect x="555.29" y="342.50" width="2" height="22.50" fill="#f97316" opacity="0.35"/>
<rect x="556.05" y="342.50" width="2" height="22.50" fill="#f97316" opacity="0.35"/>
<rect x="556.82" y="342.50" width="2" height="22.50" fill="#f97316" opacity="0.35"/>
<rect x="560.64" y="320.00" width="2" height="45.00" fill="#f97316" opacity="0.35"/>
<rect x="561.41" y="342.50" width="2" height="22.50" fill="#f97316" opacity="0.35"/>
<rect x="570.58" y="342.50" width="2" height="22.50" fill="#f97316" opacity="0.35"/>
<rect x="580.52" y="342.50" width="2" height="22.50" fill="#f97316" opacity="0.35"/>
<rect x="584.34" y="342.50" width="2" height="22.50" fill="#f97316" opacity="0.35"/>
<rect x="592.75" y="342.50" width="2" height="22.50" fill="#f97316" opacity="0.35"/>
<rect x="594.28" y="320.00" width="2" height="45.00" fill="#f97316" opacity="0.35"/>
<rect x="595.05" y="342.50" width="2" height="22.50" fill="#f97316" opacity="0.35"/>
<rect x="596.58" y="342.50" width="2" height="22.50" fill="#f97316" opacity="0.35"/>
<rect x="597.34" y="342.50" width="2" height="22.50" fill="#f97316" opacity="0.35"/>
<rect x="600.40" y="342.50" width="2" height="22.50" fill="#f97316" opacity="0.35"/>
<rect x="602.69" y="342.50" width="2" height="22.50" fill="#f97316" opacity="0.35"/>
<rect x="603.46" y="342.50" width="2" height="22.50" fill="#f97316" opacity="0.35"/>
<rect x="606.52" y="342.50" width="2" height="22.50" fill="#f97316" opacity="0.35"/>
<rect x="612.63" y="342.50" width="2" height="22.50" fill="#f97316" opacity="0.35"/>
<rect x="614.16" y="342.50" width="2" height="22.50" fill="#f97316" opacity="0.35"/>
<rect x="614.93" y="342.50" width="2" height="22.50" fill="#f97316" opacity="0.35"/>
<rect x="625.63" y="342.50" width="2" height="22.50" fill="#f97316" opacity="0.35"/>
<rect x="634.04" y="342.50" width="2" height="22.50" fill="#f97316" opacity="0.35"/>
<rect x="635.57" y="342.50" width="2" height="22.50" fill="#f97316" opacity="0.35"/>
<rect x="642.45" y="342.50" width="2" height="22.50" fill="#f97316" opacity="0.35"/>
<rect x="650.10" y="342.50" width="2" height="22.50" fill="#f97316" opacity="0.35"/>
<rect x="659.27" y="342.50" width="2" height="22.50" fill="#f97316" opacity="0.35"/>
<rect x="660.80" y="342.50" width="2" height="22.50" fill="#f97316" opacity="0.35"/>
<rect x="664.63" y="342.50" width="2" height="22.50" fill="#f97316" opacity="0.35"/>
<rect x="666.92" y="342.50" width="2" height="22.50" fill="#f97316" opacity="0.35"/>
<rect x="672.27" y="342.50" width="2" height="22.50" fill="#f97316" opacity="0.35"/>
<rect x="673.04" y="320.00" width="2" height="45.00" fill="#f97316" opacity="0.35"/>
<rect x="673.80" y="342.50" width="2" height="22.50" fill="#f97316" opacity="0.35"/>
<rect x="676.10" y="342.50" width="2" height="22.50" fill="#f97316" opacity="0.35"/>
<rect x="688.33" y="342.50" width="2" height="22.50" fill="#f97316" opacity="0.35"/>
<rect x="689.09" y="342.50" width="2" height="22.50" fill="#f97316" opacity="0.35"/>
<rect x="690.62" y="342.50" width="2" height="22.50" fill="#f97316" opacity="0.35"/>
<rect x="691.39" y="342.50" width="2" height="22.50" fill="#f97316" opacity="0.35"/>
<rect x="700.56" y="320.00" width="2" height="45.00" fill="#f97316" opacity="0.35"/>
<rect x="702.86" y="342.50" width="2" height="22.50" fill="#f97316" opacity="0.35"/>
<rect x="708.21" y="320.00" width="2" height="45.00" fill="#f97316" opacity="0.35"/>
<rect x="712.80" y="342.50" width="2" height="22.50" fill="#f97316" opacity="0.35"/>
<rect x="713.56" y="342.50" width="2" height="22.50" fill="#f97316" opacity="0.35"/>
<rect x="718.15" y="342.50" width="2" height="22.50" fill="#f97316" opacity="0.35"/>
<rect x="721.21" y="342.50" width="2" height="22.50" fill="#f97316" opacity="0.35"/>
<rect x="728.09" y="342.50" width="2" height="22.50" fill="#f97316" opacity="0.35"/>
<rect x="731.15" y="342.50" width="2" height="22.50" fill="#f97316" opacity="0.35"/>
<rect x="731.91" y="320.00" width="2" height="45.00" fill="#f97316" opacity="0.35"/>
<rect x="734.97" y="297.50" width="2" height="67.50" fill="#f97316" opacity="0.35"/>
<rect x="736.50" y="342.50" width="2" height="22.50" fill="#f97316" opacity="0.35"/>
<rect x="739.56" y="342.50" width="2" height="22.50" fill="#f97316" opacity="0.35"/>
<rect x="745.68" y="342.50" width="2" height="22.50" fill="#f97316" opacity="0.35"/>
<rect x="748.73" y="342.50" width="2" height="22.50" fill="#f97316" opacity="0.35"/>
<rect x="753.32" y="342.50" width="2" height="22.50" fill="#f97316" opacity="0.35"/>
<rect x="757.14" y="342.50" width="2" height="22.50" fill="#f97316" opacity="0.35"/>
<rect x="757.91" y="342.50" width="2" height="22.50" fill="#f97316" opacity="0.35"/>
<rect x="760.20" y="320.00" width="2" height="45.00" fill="#f97316" opacity="0.35"/>
<rect x="764.03" y="342.50" width="2" height="22.50" fill="#f97316" opacity="0.35"/>
<rect x="767.85" y="342.50" width="2" height="22.50" fill="#f97316" opacity="0.35"/>
<rect x="770.14" y="320.00" width="2" height="45.00" fill="#f97316" opacity="0.35"/>
<rect x="777.79" y="342.50" width="2" height="22.50" fill="#f97316" opacity="0.35"/>
<rect x="779.32" y="342.50" width="2" height="22.50" fill="#f97316" opacity="0.35"/>
<rect x="781.61" y="342.50" width="2" height="22.50" fill="#f97316" opacity="0.35"/>
<rect x="784.67" y="342.50" width="2" height="22.50" fill="#f97316" opacity="0.35"/>
<rect x="786.96" y="320.00" width="2" height="45.00" fill="#f97316" opacity="0.35"/>
<rect x="787.73" y="342.50" width="2" height="22.50" fill="#f97316" opacity="0.35"/>
<rect x="790.02" y="342.50" width="2" height="22.50" fill="#f97316" opacity="0.35"/>
<rect x="791.55" y="342.50" width="2" height="22.50" fill="#f97316" opacity="0.35"/>
<rect x="799.20" y="342.50" width="2" height="22.50" fill="#f97316" opacity="0.35"/>
<rect x="799.96" y="342.50" width="2" height="22.50" fill="#f97316" opacity="0.35"/>
<rect x="809.14" y="342.50" width="2" height="22.50" fill="#f97316" opacity="0.35"/>
<rect x="811.43" y="342.50" width="2" height="22.50" fill="#f97316" opacity="0.35"/>
<rect x="816.02" y="342.50" width="2" height="22.50" fill="#f97316" opacity="0.35"/>
<rect x="816.78" y="342.50" width="2" height="22.50" fill="#f97316" opacity="0.35"/>
<rect x="821.37" y="342.50" width="2" height="22.50" fill="#f97316" opacity="0.35"/>
<rect x="822.90" y="342.50" width="2" height="22.50" fill="#f97316" opacity="0.35"/>
<rect x="824.43" y="342.50" width="2" height="22.50" fill="#f97316" opacity="0.35"/>
<rect x="827.49" y="342.50" width="2" height="22.50" fill="#f97316" opacity="0.35"/>
<rect x="829.78" y="342.50" width="2" height="22.50" fill="#f97316" opacity="0.35"/>
<rect x="837.43" y="342.50" width="2" height="22.50" fill="#f97316" opacity="0.35"/>
<rect x="843.54" y="342.50" width="2" height="22.50" fill="#f97316" opacity="0.35"/>
<rect x="853.48" y="342.50" width="2" height="22.50" fill="#f97316" opacity="0.35"/>
<rect x="859.60" y="342.50" width="2" height="22.50" fill="#f97316" opacity="0.35"/>
<rect x="861.13" y="342.50" width="2" height="22.50" fill="#f97316" opacity="0.35"/>
<rect x="866.48" y="342.50" width="2" height="22.50" fill="#f97316" opacity="0.35"/>
<rect x="867.25" y="320.00" width="2" height="45.00" fill="#f97316" opacity="0.35"/>
<rect x="871.84" y="342.50" width="2" height="22.50" fill="#f97316" opacity="0.35"/>
<rect x="877.19" y="342.50" width="2" height="22.50" fill="#f97316" opacity="0.35"/>
<rect x="892.48" y="320.00" width="2" height="45.00" fill="#f97316" opacity="0.35"/>
<rect x="903.18" y="342.50" width="2" height="22.50" fill="#f97316" opacity="0.35"/>
<rect x="915.42" y="342.50" width="2" height="22.50" fill="#f97316" opacity="0.35"/>
<rect x="918.48" y="342.50" width="2" height="22.50" fill="#f97316" opacity="0.35"/>
<rect x="920.01" y="342.50" width="2" height="22.50" fill="#f97316" opacity="0.35"/>
<rect x="934.53" y="342.50" width="2" height="22.50" fill="#f97316" opacity="0.35"/>
<rect x="946.00" y="342.50" width="2" height="22.50" fill="#f97316" opacity="0.35"/>
<rect x="946.77" y="342.50" width="2" height="22.50" fill="#f97316" opacity="0.35"/>
<rect x="959.00" y="342.50" width="2" height="22.50" fill="#f97316" opacity="0.35"/>
<polyline points="70.00,364.13 70.76,360.66 71.53,359.79 72.29,357.18 73.06,357.18 73.82,356.31 74.59,354.57 75.35,351.10 76.12,350.23 76.88,348.49 77.65,346.75 78.41,344.14 79.18,344.14 79.94,342.41 80.70,341.54 81.47,339.80 82.23,338.06 83.00,338.06 83.76,338.06 84.53,337.19 85.29,335.45 86.06,335.45 86.82,332.85 87.59,332.85 88.35,331.98 89.12,330.24 89.88,329.37 90.64,327.63 91.41,326.76 92.17,325.90 92.94,324.16 93.70,324.16 94.47,324.16 95.23,320.68 96.00,319.81 96.76,319.81 97.53,318.94 98.29,318.94 99.05,318.07 99.82,317.21 100.58,315.47 101.35,315.47 102.11,314.60 102.88,314.60 103.64,314.60 104.41,312.86 105.17,312.86 105.94,312.86 106.70,311.12 107.47,311.12 108.23,310.25 108.99,310.25 109.76,310.25 110.52,310.25 111.29,309.39 112.05,309.39 112.82,309.39 113.58,308.52 114.35,306.78 115.11,306.78 115.88,305.04 116.64,305.04 117.41,304.17 118.17,304.17 118.93,302.43 119.70,302.43 120.46,301.56 121.23,301.56 121.99,301.56 122.76,300.70 123.52,300.70 124.29,299.83 125.05,298.96 125.82,298.09 126.58,298.09 127.35,297.22 128.11,296.35 128.87,296.35 129.64,294.61 130.40,294.61 131.17,293.74 131.93,293.74 132.70,292.01 133.46,292.01 134.23,292.01 134.99,291.14 135.76,291.14 136.52,290.27 137.29,289.40 138.05,289.40 138.81,285.92 139.58,285.05 140.34,283.32 141.11,282.45 141.87,282.45 142.64,280.71 143.40,280.71 144.17,280.71 144.93,280.71 145.70,280.71 146.46,278.10 147.23,278.10 147.99,276.36 148.75,276.36 149.52,276.36 150.28,276.36 151.05,276.36 151.81,274.63 152.58,274.63 153.34,274.63 154.11,274.63 154.87,272.89 155.64,271.15 156.40,271.15 157.16,271.15 157.93,270.28 158.69,270.28 159.46,268.54 160.22,267.67 160.99,267.67 161.75,266.80 162.52,266.80 163.28,266.80 164.05,266.80 164.81,265.94 165.58,265.94 166.34,265.94 167.10,265.94 167.87,265.94 168.63,265.07 169.40,265.07 170.16,265.07 170.93,265.07 171.69,264.20 172.46,262.46 173.22,262.46 173.99,262.46 174.75,262.46 175.52,261.59 176.28,261.59 177.04,261.59 177.81,261.59 178.57,261.59 179.34,259.85 180.10,259.85 180.87,259.85 181.63,259.85 182.40,258.98 183.16,258.98 183.93,257.25 184.69,256.38 185.46,256.38 186.22,254.64 186.98,254.64 187.75,252.03 188.51,252.03 189.28,251.16 190.04,251.16 190.81,251.16 191.57,250.29 192.34,249.43 193.10,249.43 193.87,248.56 194.63,248.56 195.40,248.56 196.16,246.82 196.92,246.82 197.69,246.82 198.45,245.95 199.22,245.95 199.98,245.95 200.75,244.21 201.51,244.21 202.28,243.34 203.04,242.47 203.81,242.47 204.57,242.47 205.34,242.47 206.10,242.47 206.86,241.60 207.63,241.60 208.39,241.60 209.16,241.60 209.92,241.60 210.69,241.60 211.45,241.60 212.22,241.60 212.98,240.74 213.75,239.87 214.51,239.00 215.27,239.00 216.04,239.00 216.80,238.13 217.57,236.39 218.33,236.39 219.10,236.39 219.86,236.39 220.63,235.52 221.39,235.52 222.16,233.78 222.92,233.78 223.69,233.78 224.45,233.78 225.21,232.91 225.98,232.05 226.74,232.05 227.51,231.18 228.27,231.18 229.04,231.18 229.80,231.18 230.57,230.31 231.33,230.31 232.10,230.31 232.86,230.31 233.63,230.31 234.39,229.44 235.15,229.44 235.92,229.44 236.68,229.44 237.45,229.44 238.21,229.44 238.98,226.83 239.74,226.83 240.51,226.83 241.27,226.83 242.04,226.83 242.80,226.83 243.57,226.83 244.33,226.83 245.09,226.83 245.86,226.83 246.62,226.83 247.39,226.83 248.15,226.83 248.92,226.83 249.68,226.83 250.45,226.83 251.21,225.09 251.98,225.09 252.74,225.09 253.51,225.09 254.27,225.09 255.03,223.36 255.80,223.36 256.56,223.36 257.33,223.36 258.09,222.49 258.86,222.49 259.62,222.49 260.39,222.49 261.15,222.49 261.92,222.49 262.68,222.49 263.45,221.62 264.21,220.75 264.97,220.75 265.74,220.75 266.50,220.75 267.27,220.75 268.03,220.75 268.80,219.88 269.56,219.88 270.33,219.88 271.09,219.88 271.86,219.88 272.62,219.88 273.38,219.88 274.15,219.01 274.91,218.14 275.68,217.27 276.44,217.27 277.21,217.27 277.97,217.27 278.74,217.27 279.50,217.27 280.27,217.27 281.03,217.27 281.80,216.40 282.56,216.40 283.32,216.40 284.09,216.40 284.85,215.53 285.62,213.80 286.38,213.80 287.15,213.80 287.91,213.80 288.68,213.80 289.44,213.80 290.21,213.80 290.97,213.80 291.74,213.80 292.50,213.80 293.26,213.80 294.03,212.93 294.79,212.93 295.56,212.06 296.32,212.06 297.09,212.06 297.85,212.06 298.62,212.06 299.38,212.06 300.15,211.19 300.91,211.19 301.68,210.32 302.44,210.32 303.20,210.32 303.97,210.32 304.73,209.45 305.50,209.45 306.26,209.45 307.03,209.45 307.79,208.58 308.56,208.58 309.32,208.58 310.09,208.58 310.85,208.58 311.62,207.71 312.38,207.71 313.14,207.71 313.91,207.71 314.67,207.71 315.44,207.71 316.20,207.71 316.97,207.71 317.73,207.71 318.50,207.71 319.26,206.84 320.03,205.98 320.79,205.98 321.55,203.37 322.32,203.37 323.08,203.37 323.85,202.50 324.61,202.50 325.38,202.50 326.14,202.50 326.91,202.50 327.67,202.50 328.44,202.50 329.20,202.50 329.97,202.50 330.73,202.50 331.49,202.50 332.26,202.50 333.02,201.63 333.79,200.76 334.55,200.76 335.32,199.89 336.08,199.89 336.85,199.02 337.61,198.16 338.38,197.29 339.14,195.55 339.91,194.68 340.67,194.68 341.43,193.81 342.20,192.94 342.96,192.94 343.73,192.94 344.49,192.94 345.26,192.94 346.02,192.07 346.79,192.07 347.55,191.20 348.32,191.20 349.08,191.20 349.85,187.73 350.61,187.73 351.37,187.73 352.14,187.73 352.90,187.73 353.67,187.73 354.43,187.73 355.20,187.73 355.96,187.73 356.73,186.86 357.49,186.86 358.26,186.86 359.02,186.86 359.79,186.86 360.55,186.86 361.31,186.86 362.08,186.86 362.84,186.86 363.61,185.99 364.37,185.99 365.14,185.99 365.90,185.99 366.67,185.99 367.43,185.99 368.20,185.12 368.96,185.12 369.73,183.38 370.49,183.38 371.25,183.38 372.02,183.38 372.78,182.51 373.55,182.51 374.31,182.51 375.08,181.64 375.84,180.78 376.61,180.78 377.37,180.78 378.14,180.78 378.90,180.78 379.66,180.78 380.43,179.91 381.19,179.91 381.96,179.91 382.72,179.04 383.49,178.17 384.25,178.17 385.02,178.17 385.78,176.43 386.55,176.43 387.31,176.43 388.08,176.43 388.84,176.43 389.60,176.43 390.37,176.43 391.13,176.43 391.90,175.56 392.66,175.56 393.43,175.56 394.19,175.56 394.96,175.56 395.72,174.69 396.49,174.69 397.25,174.69 398.02,174.69 398.78,173.82 399.54,172.95 400.31,172.95 401.07,172.95 401.84,172.95 402.60,172.95 403.37,172.95 404.13,172.09 404.90,172.09 405.66,172.09 406.43,172.09 407.19,172.09 407.96,172.09 408.72,172.09 409.48,172.09 410.25,172.09 411.01,172.09 411.78,172.09 412.54,172.09 413.31,172.09 414.07,172.09 414.84,172.09 415.60,172.09 416.37,172.09 417.13,172.09 417.90,172.09 418.66,172.09 419.42,172.09 420.19,172.09 420.95,172.09 421.72,172.09 422.48,172.09 423.25,172.09 424.01,172.09 424.78,172.09 425.54,172.09 426.31,170.35 427.07,170.35 427.84,170.35 428.60,170.35 429.36,170.35 430.13,170.35 430.89,170.35 431.66,170.35 432.42,170.35 433.19,170.35 433.95,169.48 434.72,168.61 435.48,168.61 436.25,167.74 437.01,166.87 437.77,166.87 438.54,165.13 439.30,165.13 440.07,165.13 440.83,165.13 441.60,165.13 442.36,165.13 443.13,164.26 443.89,164.26 444.66,164.26 445.42,164.26 446.19,164.26 446.95,163.40 447.71,163.40 448.48,163.40 449.24,163.40 450.01,163.40 450.77,162.53 451.54,161.66 452.30,161.66 453.07,160.79 453.83,160.79 454.60,160.79 455.36,160.79 456.13,159.92 456.89,159.92 457.65,159.05 458.42,158.18 459.18,157.31 459.95,156.44 460.71,156.44 461.48,155.57 462.24,155.57 463.01,154.71 463.77,154.71 464.54,154.71 465.30,153.84 466.07,152.10 466.83,152.10 467.59,152.10 468.36,152.10 469.12,152.10 469.89,151.23 470.65,151.23 471.42,151.23 472.18,151.23 472.95,151.23 473.71,150.36 474.48,150.36 475.24,150.36 476.01,150.36 476.77,150.36 477.53,149.49 478.30,149.49 479.06,149.49 479.83,149.49 480.59,149.49 481.36,149.49 482.12,149.49 482.89,149.49 483.65,149.49 484.42,149.49 485.18,149.49 485.95,149.49 486.71,149.49 487.47,149.49 488.24,149.49 489.00,149.49 489.77,149.49 490.53,149.49 491.30,149.49 492.06,149.49 492.83,148.62 493.59,148.62 494.36,146.89 495.12,146.02 495.88,145.15 496.65,145.15 497.41,144.28 498.18,144.28 498.94,144.28 499.71,144.28 500.47,143.41 501.24,143.41 502.00,143.41 502.77,143.41 503.53,143.41 504.30,143.41 505.06,143.41 505.82,143.41 506.59,143.41 507.35,143.41 508.12,143.41 508.88,143.41 509.65,143.41 510.41,142.54 511.18,142.54 511.94,142.54 512.71,142.54 513.47,142.54 514.24,142.54 515.00,142.54 515.76,142.54 516.53,142.54 517.29,142.54 518.06,142.54 518.82,142.54 519.59,141.67 520.35,141.67 521.12,141.67 521.88,141.67 522.65,141.67 523.41,141.67 524.18,141.67 524.94,141.67 525.70,141.67 526.47,141.67 527.23,141.67 528.00,141.67 528.76,141.67 529.53,141.67 530.29,141.67 531.06,140.80 531.82,140.80 532.59,140.80 533.35,139.93 534.12,139.93 534.88,139.93 535.64,139.06 536.41,139.06 537.17,139.06 537.94,139.06 538.70,139.06 539.47,139.06 540.23,138.20 541.00,138.20 541.76,138.20 542.53,138.20 543.29,138.20 544.05,138.20 544.82,138.20 545.58,138.20 546.35,138.20 547.11,137.33 547.88,137.33 548.64,137.33 549.41,136.46 550.17,136.46 550.94,135.59 551.70,135.59 552.47,135.59 553.23,135.59 553.99,134.72 554.76,134.72 555.52,134.72 556.29,133.85 557.05,132.98 557.82,132.11 558.58,132.11 559.35,132.11 560.11,132.11 560.88,132.11 561.64,130.37 562.41,129.51 563.17,129.51 563.93,129.51 564.70,129.51 565.46,129.51 566.23,129.51 566.99,129.51 567.76,129.51 568.52,129.51 569.29,129.51 570.05,129.51 570.82,129.51 571.58,128.64 572.35,128.64 573.11,128.64 573.87,128.64 574.64,128.64 575.40,128.64 576.17,128.64 576.93,128.64 577.70,128.64 578.46,128.64 579.23,128.64 579.99,128.64 580.76,128.64 581.52,127.77 582.29,127.77 583.05,127.77 583.81,127.77 584.58,127.77 585.34,126.90 586.11,126.90 586.87,126.90 587.64,126.90 588.40,126.90 589.17,126.90 589.93,126.90 590.70,126.90 591.46,126.90 592.23,126.90 592.99,126.90 593.75,126.03 594.52,126.03 595.28,124.29 596.05,123.42 596.81,123.42 597.58,122.55 598.34,121.68 599.11,121.68 599.87,121.68 600.64,121.68 601.40,120.82 602.16,120.82 602.93,120.82 603.69,119.95 604.46,119.08 605.22,119.08 605.99,119.08 606.75,119.08 607.52,118.21 608.28,118.21 609.05,118.21 609.81,118.21 610.58,118.21 611.34,118.21 612.10,118.21 612.87,118.21 613.63,117.34 614.40,117.34 615.16,116.47 615.93,115.60 616.69,115.60 617.46,115.60 618.22,115.60 618.99,115.60 619.75,115.60 620.52,115.60 621.28,115.60 622.04,115.60 622.81,115.60 623.57,115.60 624.34,115.60 625.10,115.60 625.87,115.60 626.63,114.73 627.40,114.73 628.16,114.73 628.93,114.73 629.69,114.73 630.46,114.73 631.22,114.73 631.98,114.73 632.75,114.73 633.51,114.73 634.28,114.73 635.04,113.86 635.81,113.86 636.57,112.99 637.34,112.99 638.10,112.99 638.87,112.99 639.63,112.99 640.40,112.99 641.16,112.99 641.92,112.99 642.69,112.99 643.45,112.13 644.22,112.13 644.98,112.13 645.75,112.13 646.51,112.13 647.28,112.13 648.04,112.13 648.81,112.13 649.57,112.13 650.34,112.13 651.10,111.26 651.86,111.26 652.63,111.26 653.39,111.26 654.16,111.26 654.92,111.26 655.69,111.26 656.45,111.26 657.22,111.26 657.98,111.26 658.75,111.26 659.51,111.26 660.27,110.39 661.04,110.39 661.80,109.52 662.57,109.52 663.33,109.52 664.10,109.52 664.86,109.52 665.63,108.65 666.39,108.65 667.16,108.65 667.92,107.78 668.69,107.78 669.45,107.78 670.21,107.78 670.98,107.78 671.74,107.78 672.51,107.78 673.27,106.91 674.04,105.17 674.80,104.30 675.57,104.30 676.33,104.30 677.10,103.44 677.86,103.44 678.63,103.44 679.39,103.44 680.15,103.44 680.92,103.44 681.68,103.44 682.45,103.44 683.21,103.44 683.98,103.44 684.74,103.44 685.51,103.44 686.27,103.44 687.04,103.44 687.80,103.44 688.57,103.44 689.33,102.57 690.09,101.70 690.86,101.70 691.62,100.83 692.39,99.96 693.15,99.96 693.92,99.96 694.68,99.96 695.45,99.96 696.21,99.96 696.98,99.96 697.74,99.96 698.51,99.96 699.27,99.96 700.03,99.96 700.80,99.96 701.56,98.22 702.33,98.22 703.09,98.22 703.86,97.35 704.62,97.35 705.39,97.35 706.15,97.35 706.92,97.35 707.68,97.35 708.45,97.35 709.21,95.61 709.97,95.61 710.74,95.61 711.50,95.61 712.27,95.61 713.03,95.61 713.80,94.75 714.56,93.88 715.33,93.88 716.09,93.88 716.86,93.88 717.62,93.88 718.38,93.88 719.15,93.01 719.91,93.01 720.68,93.01 721.44,93.01 722.21,92.14 722.97,92.14 723.74,92.14 724.50,92.14 725.27,92.14 726.03,92.14 726.80,92.14 727.56,92.14 728.32,92.14 729.09,91.27 729.85,91.27 730.62,91.27 731.38,91.27 732.15,90.40 732.91,88.66 733.68,88.66 734.44,88.66 735.21,88.66 735.97,86.06 736.74,86.06 737.50,85.19 738.26,85.19 739.03,85.19 739.79,85.19 740.56,84.32 741.32,84.32 742.09,84.32 742.85,84.32 743.62,84.32 744.38,84.32 745.15,84.32 745.91,84.32 746.68,83.45 747.44,83.45 748.20,83.45 748.97,83.45 749.73,82.58 750.50,82.58 751.26,82.58 752.03,82.58 752.79,82.58 753.56,82.58 754.32,81.71 755.09,81.71 755.85,81.71 756.62,81.71 757.38,81.71 758.14,80.84 758.91,79.97 759.67,79.97 760.44,79.97 761.20,78.24 761.97,78.24 762.73,78.24 763.50,78.24 764.26,78.24 765.03,77.37 765.79,77.37 766.55,77.37 767.32,77.37 768.08,77.37 768.85,76.50 769.61,76.50 770.38,76.50 771.14,74.76 771.91,74.76 772.67,74.76 773.44,74.76 774.20,74.76 774.97,74.76 775.73,74.76 776.49,74.76 777.26,74.76 778.02,74.76 778.79,73.89 779.55,73.89 780.32,73.02 781.08,73.02 781.85,73.02 782.61,72.15 783.38,72.15 784.14,72.15 784.91,72.15 785.67,71.28 786.43,71.28 787.20,71.28 787.96,69.55 788.73,68.68 789.49,68.68 790.26,68.68 791.02,67.81 791.79,67.81 792.55,66.94 793.32,66.94 794.08,66.94 794.85,66.94 795.61,66.94 796.37,66.94 797.14,66.94 797.90,66.94 798.67,66.94 799.43,66.94 800.20,66.07 800.96,65.20 801.73,65.20 802.49,65.20 803.26,65.20 804.02,65.20 804.79,65.20 805.55,65.20 806.31,65.20 807.08,65.20 807.84,65.20 808.61,65.20 809.37,65.20 810.14,64.33 810.90,64.33 811.67,64.33 812.43,63.46 813.20,63.46 813.96,63.46 814.73,63.46 815.49,63.46 816.25,63.46 817.02,62.59 817.78,61.72 818.55,61.72 819.31,61.72 820.08,61.72 820.84,61.72 821.61,61.72 822.37,60.86 823.14,60.86 823.90,59.99 824.66,59.99 825.43,59.12 826.19,59.12 826.96,59.12 827.72,59.12 828.49,58.25 829.25,58.25 830.02,58.25 830.78,57.38 831.55,57.38 832.31,57.38 833.08,57.38 833.84,57.38 834.60,57.38 835.37,57.38 836.13,57.38 836.90,57.38 837.66,57.38 838.43,56.51 839.19,56.51 839.96,56.51 840.72,56.51 841.49,56.51 842.25,56.51 843.02,56.51 843.78,56.51 844.54,55.64 845.31,55.64 846.07,55.64 846.84,55.64 847.60,55.64 848.37,55.64 849.13,55.64 849.90,55.64 850.66,55.64 851.43,55.64 852.19,55.64 852.96,55.64 853.72,55.64 854.48,54.77 855.25,54.77 856.01,54.77 856.78,54.77 857.54,54.77 858.31,54.77 859.07,54.77 859.84,54.77 860.60,53.90 861.37,53.90 862.13,53.03 862.90,53.03 863.66,53.03 864.42,53.03 865.19,53.03 865.95,53.03 866.72,53.03 867.48,52.17 868.25,50.43 869.01,50.43 869.78,50.43 870.54,50.43 871.31,50.43 872.07,50.43 872.84,49.56 873.60,49.56 874.36,49.56 875.13,49.56 875.89,49.56 876.66,49.56 877.42,49.56 878.19,48.69 878.95,48.69 879.72,48.69 880.48,48.69 881.25,48.69 882.01,48.69 882.77,48.69 883.54,48.69 884.30,48.69 885.07,48.69 885.83,48.69 886.60,48.69 887.36,48.69 888.13,48.69 888.89,48.69 889.66,48.69 890.42,48.69 891.19,48.69 891.95,48.69 892.71,48.69 893.48,46.95 894.24,46.95 895.01,46.95 895.77,46.95 896.54,46.95 897.30,46.95 898.07,46.95 898.83,46.95 899.60,46.95 900.36,46.95 901.13,46.95 901.89,46.95 902.65,46.95 903.42,46.95 904.18,46.08 904.95,46.08 905.71,46.08 906.48,46.08 907.24,46.08 908.01,46.08 908.77,46.08 909.54,46.08 910.30,46.08 911.07,46.08 911.83,46.08 912.59,46.08 913.36,46.08 914.12,46.08 914.89,46.08 915.65,46.08 916.42,45.21 917.18,45.21 917.95,45.21 918.71,45.21 919.48,44.34 920.24,44.34 921.01,43.48 921.77,43.48 922.53,43.48 923.30,43.48 924.06,43.48 924.83,43.48 925.59,43.48 926.36,43.48 927.12,43.48 927.89,43.48 928.65,43.48 929.42,43.48 930.18,43.48 930.95,43.48 931.71,43.48 932.47,43.48 933.24,43.48 934.00,43.48 934.77,43.48 935.53,42.61 936.30,42.61 937.06,42.61 937.83,42.61 938.59,42.61 939.36,42.61 940.12,42.61 940.88,42.61 941.65,42.61 942.41,42.61 943.18,42.61 943.94,42.61 944.71,42.61 945.47,42.61 946.24,42.61 947.00,41.74 947.77,40.87 948.53,40.87 949.30,40.87 950.06,40.87 950.82,40.87 951.59,40.87 952.35,40.87 953.12,40.87 953.88,40.87 954.65,40.87 955.41,40.87 956.18,40.87 956.94,40.87 957.71,40.87 958.47,40.87 959.24,40.87 960.00,40.00" fill="none" stroke="#2563eb" stroke-width="2"/>
<text x="78" y="58" font-family="Arial" font-size="12" fill="#2563eb">blue: cumulative relations</text>
<text x="78" y="76" font-family="Arial" font-size="12" fill="#ea580c">orange bars: new relations at idx</text>
</svg>