<svg xmlns="http://www.w3.org/2000/svg" width="1000" height="430" viewBox="0 0 1000 430">
<rect width="100%" height="100%" fill="white"/>
<text x="500.0" y="24" text-anchor="middle" font-family="Arial" font-size="18" font-weight="700">Growth Curve: case1_name_only</text>
<line x1="70" y1="365" x2="960" y2="365" stroke="#111827"/>
<line x1="70" y1="40" x2="70" y2="365" stroke="#111827"/>
<text x="515.0" y="412" text-anchor="middle" font-family="Arial" font-size="13">sample idx</text>
<line x1="70" y1="365.00" x2="960" y2="365.00" stroke="#e5e7eb"/>
<text x="62" y="369.00" text-anchor="end" font-family="Arial" font-size="11">0</text>
<line x1="70" y1="300.13" x2="960" y2="300.13" stroke="#e5e7eb"/>
<text x="62" y="304.13" text-anchor="end" font-family="Arial" font-size="11">102</text>
<line x1="70" y1="235.25" x2="960" y2="235.25" stroke="#e5e7eb"/>
<text x="62" y="239.25" text-anchor="end" font-family="Arial" font-size="11">204</text>
<line x1="70" y1="169.75" x2="960" y2="169.75" stroke="#e5e7eb"/>
<text x="62" y="173.75" text-anchor="end" font-family="Arial" font-size="11">307</text>
<line x1="70" y1="104.87" x2="960" y2="104.87" stroke="#e5e7eb"/>
<text x="62" y="108.87" text-anchor="end" font-family="Arial" font-size="11">409</text>
<line x1="70" y1="40.00" x2="960" y2="40.00" stroke="#e5e7eb"/>
<text x="62" y="44.00" text-anchor="end" font-family="Arial" font-size="11">511</text>
<rect x="69.00" y="350.00" width="2" height="15.00" fill="#f97316" opacity="0.35"/>
<rect x="69.76" y="275.00" width="2" height="90.00" fill="#f97316" opacity="0.35"/>
<rect x="70.53" y="335.00" width="2" height="30.00" fill="#f97316" opacity="0.35"/>
<rect x="71.29" y="305.00" width="2" height="60.00" fill="#f97316" opacity="0.35"/>
<rect x="72.06" y="320.00" width="2" height="45.00" fill="#f97316" opacity="0.35"/>
<rect x="72.82" y="335.00" width="2" height="30.00" fill="#f97316" opacity="0.35"/>
<rect x="73.59" y="320.00" width="2" height="45.00" fill="#f97316" opacity="0.35"/>
<rect x="74.35" y="290.00" width="2" height="75.00" fill="#f97316" opacity="0.35"/>
<rect x="75.88" y="350.00" width="2" height="15.00" fill="#f97316" opacity="0.35"/>
<rect x="76.65" y="335.00" width="2" height="30.00" fill="#f97316" opacity="0.35"/>
<rect x="77.41" y="320.00" width="2" height="45.00" fill="#f97316" opacity="0.35"/>
<rect x="78.94" y="320.00" width="2" height="45.00" fill="#f97316" opacity="0.35"/>
<rect x="79.70" y="350.00" width="2" height="15.00" fill="#f97316" opacity="0.35"/>
<rect x="80.47" y="350.00" width="2" height="15.00" fill="#f97316" opacity="0.35"/>
<rect x="81.23" y="320.00" width="2" height="45.00" fill="#f97316" opacity="0.35"/>
<rect x="82.00" y="350.00" width="2" height="15.00" fill="#f97316" opacity="0.35"/>
<rect x="83.53" y="320.00" width="2" height="45.00" fill="#f97316" opacity="0.35"/>
<rect x="84.29" y="335.00" width="2" height="30.00" fill="#f97316" opacity="0.35"/>
<rect x="85.06" y="350.00" width="2" height="15.00" fill="#f97316" opacity="0.35"/>
<rect x="85.82" y="320.00" width="2" height="45.00" fill="#f97316" opacity="0.35"/>
<rect x="87.35" y="320.00" width="2" height="45.00" fill="#f97316" opacity="0.35"/>
<rect x="88.12" y="335.00" width="2" height="30.00" fill="#f97316" opacity="0.35"/>
<rect x="88.88" y="350.00" width="2" height="15.00" fill="#f97316" opacity="0.35"/>
<rect x="89.64" y="335.00" width="2" height="30.00" fill="#f97316" opacity="0.35"/>
<rect x="90.41" y="320.00" width="2" height="45.00" fill="#f97316" opacity="0.35"/>
<rect x="91.17" y="335.00" width="2" height="30.00" fill="#f97316" opacity="0.35"/>
<rect x="91.94" y="335.00" width="2" height="30.00" fill="#f97316" opacity="0.35"/>
<rect x="92.70" y="350.00" width="2" height="15.00" fill="#f97316" opacity="0.35"/>
<rect x="94.23" y="275.00" width="2" height="90.00" fill="#f97316" opacity="0.35"/>
<rect x="95.00" y="350.00" width="2" height="15.00" fill="#f97316" opacity="0.35"/>
<rect x="96.53" y="350.00" width="2" height="15.00" fill="#f97316" opacity="0.35"/>
<rect x="98.05" y="350.00" width="2" height="15.00" fill="#f97316" opacity="0.35"/>
<rect x="98.82" y="320.00" width="2" height="45.00" fill="#f97316" opacity="0.35"/>
<rect x="99.58" y="335.00" width="2" height="30.00" fill="#f97316" opacity="0.35"/>
<rect x="101.11" y="335.00" width="2" height="30.00" fill="#f97316" opacity="0.35"/>
<rect x="104.17" y="350.00" width="2" height="15.00" fill="#f97316" opacity="0.35"/>
<rect x="104.94" y="335.00" width="2" height="30.00" fill="#f97316" opacity="0.35"/>
<rect x="105.70" y="305.00" width="2" height="60.00" fill="#f97316" opacity="0.35"/>
<rect x="106.47" y="350.00" width="2" height="15.00" fill="#f97316" opacity="0.35"/>
<rect x="107.23" y="335.00" width="2" height="30.00" fill="#f97316" opacity="0.35"/>
<rect x="107.99" y="335.00" width="2" height="30.00" fill="#f97316" opacity="0.35"/>
<rect x="108.76" y="350.00" width="2" height="15.00" fill="#f97316" opacity="0.35"/>
<rect x="109.52" y="335.00" width="2" height="30.00" fill="#f97316" opacity="0.35"/>
<rect x="111.82" y="350.00" width="2" height="15.00" fill="#f97316" opacity="0.35"/>
<rect x="114.88" y="335.00" width="2" height="30.00" fill="#f97316" opacity="0.35"/>
<rect x="115.64" y="350.00" width="2" height="15.00" fill="#f97316" opacity="0.35"/>
<rect x="116.41" y="350.00" width="2" height="15.00" fill="#f97316" opacity="0.35"/>
<rect x="117.93" y="350.00" width="2" height="15.00" fill="#f97316" opacity="0.35"/>
<rect x="118.70" y="350.00" width="2" height="15.00" fill="#f97316" opacity="0.35"/>
<rect x="119.46" y="320.00" width="2" height="45.00" fill="#f97316" opacity="0.35"/>
<rect x="120.23" y="335.00" width="2" height="30.00" fill="#f97316" opacity="0.35"/>
<rect x="121.76" y="335.00" width="2" height="30.00" fill="#f97316" opacity="0.35"/>
<rect x="122.52" y="350.00" width="2" height="15.00" fill="#f97316" opacity="0.35"/>
<rect x="124.05" y="335.00" width="2" height="30.00" fill="#f97316" opacity="0.35"/>
<rect x="124.82" y="335.00" width="2" height="30.00" fill="#f97316" opacity="0.35"/>
<rect x="125.58" y="350.00" width="2" height="15.00" fill="#f97316" opacity="0.35"/>
<rect x="127.11" y="350.00" width="2" height="15.00" fill="#f97316" opacity="0.35"/>
<rect x="128.64" y="350.00" width="2" height="15.00" fill="#f97316" opacity="0.35"/>
<rect x="131.70" y="335.00" width="2" height="30.00" fill="#f97316" opacity="0.35"/>
<rect x="132.46" y="350.00" width="2" height="15.00" fill="#f97316" opacity="0.35"/>
<rect x="133.99" y="335.00" width="2" height="30.00" fill="#f97316" opacity="0.35"/>
<rect x="136.29" y="320.00" width="2" height="45.00" fill="#f97316" opacity="0.35"/>
<rect x="137.81" y="320.00" width="2" height="45.00" fill="#f97316" opacity="0.35"/>
<rect x="138.58" y="320.00" width="2" height="45.00" fill="#f97316" opacity="0.35"/>
<rect x="139.34" y="350.00" width="2" height="15.00" fill="#f97316" opacity="0.35"/>
<rect x="140.11" y="335.00" width="2" height="30.00" fill="#f97316" opacity="0.35"/>
<rect x="141.64" y="335.00" width="2" height="30.00" fill="#f97316" opacity="0.35"/>
<rect x="144.70" y="350.00" width="2" height="15.00" fill="#f97316" opacity="0.35"/>
<rect x="145.46" y="335.00" width="2" height="30.00" fill="#f97316" opacity="0.35"/>
<rect x="146.23" y="350.00" width="2" height="15.00" fill="#f97316" opacity="0.35"/>
<rect x="147.75" y="350.00" width="2" height="15.00" fill="#f97316" opacity="0.35"/>
<rect x="148.52" y="320.00" width="2" height="45.00" fill="#f97316" opacity="0.35"/>
<rect x="149.28" y="350.00" width="2" height="15.00" fill="#f97316" opacity="0.35"/>
<rect x="150.81" y="350.00" width="2" height="15.00" fill="#f97316" opacity="0.35"/>
<rect x="151.58" y="350.00" width="2" height="15.00" fill="#f97316" opacity="0.35"/>
<rect x="152.34" y="350.00" width="2" height="15.00" fill="#f97316" opacity="0.35"/>
<rect x="153.87" y="320.00" width="2" height="45.00" fill="#f97316" opacity="0.35"/>
<rect x="154.64" y="335.00" width="2" height="30.00" fill="#f97316" opacity="0.35"/>
<rect x="156.16" y="320.00" width="2" height="45.00" fill="#f97316" opacity="0.35"/>
<rect x="158.46" y="350.00" width="2" height="15.00" fill="#f97316" opacity="0.35"/>
<rect x="159.22" y="350.00" width="2" height="15.00" fill="#f97316" opacity="0.35"/>
<rect x="160.75" y="350.00" width="2" height="15.00" fill="#f97316" opacity="0.35"/>
<rect x="162.28" y="350.00" width="2" height="15.00" fill="#f97316" opacity="0.35"/>
<rect x="163.81" y="350.00" width="2" height="15.00" fill="#f97316" opacity="0.35"/>
<rect x="164.58" y="350.00" width="2" height="15.00" fill="#f97316" opacity="0.35"/>
<rect x="166.87" y="335.00" width="2" height="30.00" fill="#f97316" opacity="0.35"/>
<rect x="169.16" y="320.00" width="2" height="45.00" fill="#f97316" opacity="0.35"/>
<rect x="169.93" y="350.00" width="2" height="15.00" fill="#f97316" opacity="0.35"/>
<rect x="170.69" y="350.00" width="2" height="15.00" fill="#f97316" opacity="0.35"/>
<rect x="172.22" y="350.00" width="2" height="15.00" fill="#f97316" opacity="0.35"/>
<rect x="172.99" y="335.00" width="2" height="30.00" fill="#f97316" opacity="0.35"/>
<rect x="173.75" y="350.00" width="2" height="15.00" fill="#f97316" opacity="0.35"/>
<rect x="174.52" y="335.00" width="2" height="30.00" fill="#f97316" opacity="0.35"/>
<rect x="178.34" y="350.00" width="2" height="15.00" fill="#f97316" opacity="0.35"/>
<rect x="180.63" y="335.00" width="2" height="30.00" fill="#f97316" opacity="0.35"/>
<rect x="181.40" y="350.00" width="2" height="15.00" fill="#f97316" opacity="0.35"/>
<rect x="182.93" y="350.00" width="2" height="15.00" fill="#f97316" opacity="0.35"/>
<rect x="183.69" y="350.00" width="2" height="15.00" fill="#f97316" opacity="0.35"/>
<rect x="185.22" y="350.00" width="2" height="15.00" fill="#f97316" opacity="0.35"/>
<rect x="186.75" y="290.00" width="2" height="75.00" fill="#f97316" opacity="0.35"/>
<rect x="188.28" y="350.00" width="2" height="15.00" fill="#f97316" opacity="0.35"/>
<rect x="194.40" y="350.00" width="2" height="15.00" fill="#f97316" opacity="0.35"/>
<rect x="195.16" y="305.00" width="2" height="60.00" fill="#f97316" opacity="0.35"/>
<rect x="196.69" y="335.00" width="2" height="30.00" fill="#f97316" opacity="0.35"/>
<rect x="199.75" y="335.00" width="2" height="30.00" fill="#f97316" opacity="0.35"/>
<rect x="200.51" y="350.00" width="2" height="15.00" fill="#f97316" opacity="0.35"/>
<rect x="201.28" y="350.00" width="2" height="15.00" fill="#f97316" opacity="0.35"/>
<rect x="202.04" y="350.00" width="2" height="15.00" fill="#f97316" opacity="0.35"/>
<rect x="205.86" y="335.00" width="2" height="30.00" fill="#f97316" opacity="0.35"/>
<rect x="208.16" y="350.00" width="2" height="15.00" fill="#f97316" opacity="0.35"/>
<rect x="208.92" y="350.00" width="2" height="15.00" fill="#f97316" opacity="0.35"/>
<rect x="210.45" y="350.00" width="2" height="15.00" fill="#f97316" opacity="0.35"/>
<rect x="211.22" y="350.00" width="2" height="15.00" fill="#f97316" opacity="0.35"/>
<rect x="211.98" y="320.00" width="2" height="45.00" fill="#f97316" opacity="0.35"/>
<rect x="213.51" y="350.00" width="2" height="15.00" fill="#f97316" opacity="0.35"/>
<rect x="214.27" y="350.00" width="2" height="15.00" fill="#f97316" opacity="0.35"/>
<rect x="215.80" y="350.00" width="2" height="15.00" fill="#f97316" opacity="0.35"/>
<rect x="218.86" y="350.00" width="2" height="15.00" fill="#f97316" opacity="0.35"/>
<rect x="220.39" y="350.00" width="2" height="15.00" fill="#f97316" opacity="0.35"/>
<rect x="221.16" y="335.00" width="2" height="30.00" fill="#f97316" opacity="0.35"/>
<rect x="221.92" y="350.00" width="2" height="15.00" fill="#f97316" opacity="0.35"/>
<rect x="224.21" y="350.00" width="2" height="15.00" fill="#f97316" opacity="0.35"/>
<rect x="228.04" y="350.00" width="2" height="15.00" fill="#f97316" opacity="0.35"/>
<rect x="234.92" y="335.00" width="2" height="30.00" fill="#f97316" opacity="0.35"/>
<rect x="236.45" y="350.00" width="2" height="15.00" fill="#f97316" opacity="0.35"/>
<rect x="237.21" y="350.00" width="2" height="15.00" fill="#f97316" opacity="0.35"/>
<rect x="237.98" y="335.00" width="2" height="30.00" fill="#f97316" opacity="0.35"/>
<rect x="241.04" y="350.00" width="2" height="15.00" fill="#f97316" opacity="0.35"/>
<rect x="250.21" y="350.00" width="2" height="15.00" fill="#f97316" opacity="0.35"/>
<rect x="251.74" y="350.00" width="2" height="15.00" fill="#f97316" opacity="0.35"/>
<rect x="252.51" y="350.00" width="2" height="15.00" fill="#f97316" opacity="0.35"/>
<rect x="253.27" y="350.00" width="2" height="15.00" fill="#f97316" opacity="0.35"/>
<rect x="254.03" y="320.00" width="2" height="45.00" fill="#f97316" opacity="0.35"/>
<rect x="255.56" y="350.00" width="2" height="15.00" fill="#f97316" opacity="0.35"/>
<rect x="257.09" y="350.00" width="2" height="15.00" fill="#f97316" opacity="0.35"/>
<rect x="257.86" y="350.00" width="2" height="15.00" fill="#f97316" opacity="0.35"/>
<rect x="259.39" y="350.00" width="2" height="15.00" fill="#f97316" opacity="0.35"/>
<rect x="260.15" y="350.00" width="2" height="15.00" fill="#f97316" opacity="0.35"/>
<rect x="260.92" y="350.00" width="2" height="15.00" fill="#f97316" opacity="0.35"/>
<rect x="262.45" y="335.00" width="2" height="30.00" fill="#f97316" opacity="0.35"/>
<rect x="263.21" y="335.00" width="2" height="30.00" fill="#f97316" opacity="0.35"/>
<rect x="263.97" y="350.00" width="2" height="15.00" fill="#f97316" opacity="0.35"/>
<rect x="265.50" y="350.00" width="2" height="15.00" fill="#f97316" opacity="0.35"/>
<rect x="267.80" y="350.00" width="2" height="15.00" fill="#f97316" opacity="0.35"/>
<rect x="274.68" y="350.00" width="2" height="15.00" fill="#f97316" opacity="0.35"/>
<rect x="277.74" y="350.00" width="2" height="15.00" fill="#f97316" opacity="0.35"/>
<rect x="281.56" y="350.00" width="2" height="15.00" fill="#f97316" opacity="0.35"/>
<rect x="283.09" y="350.00" width="2" height="15.00" fill="#f97316" opacity="0.35"/>
<rect x="283.85" y="350.00" width="2" height="15.00" fill="#f97316" opacity="0.35"/>
<rect x="284.62" y="350.00" width="2" height="15.00" fill="#f97316" opacity="0.35"/>
<rect x="286.15" y="350.00" width="2" height="15.00" fill="#f97316" opacity="0.35"/>
<rect x="293.03" y="350.00" width="2" height="15.00" fill="#f97316" opacity="0.35"/>
<rect x="294.56" y="350.00" width="2" height="15.00" fill="#f97316" opacity="0.35"/>
<rect x="295.32" y="350.00" width="2" height="15.00" fill="#f97316" opacity="0.35"/>
<rect x="299.15" y="350.00" width="2" height="15.00" fill="#f97316" opacity="0.35"/>
<rect x="300.68" y="350.00" width="2" height="15.00" fill="#f97316" opacity="0.35"/>
<rect x="302.20" y="350.00" width="2" height="15.00" fill="#f97316" opacity="0.35"/>
<rect x="306.03" y="350.00" width="2" height="15.00" fill="#f97316" opacity="0.35"/>
<rect x="306.79" y="335.00" width="2" height="30.00" fill="#f97316" opacity="0.35"/>
<rect x="308.32" y="350.00" width="2" height="15.00" fill="#f97316" opacity="0.35"/>
<rect x="310.62" y="350.00" width="2" height="15.00" fill="#f97316" opacity="0.35"/>
<rect x="312.91" y="350.00" width="2" height="15.00" fill="#f97316" opacity="0.35"/>
<rect x="317.50" y="350.00" width="2" height="15.00" fill="#f97316" opacity="0.35"/>
<rect x="318.26" y="350.00" width="2" height="15.00" fill="#f97316" opacity="0.35"/>
<rect x="320.55" y="350.00" width="2" height="15.00" fill="#f97316" opacity="0.35"/>
<rect x="322.85" y="335.00" width="2" height="30.00" fill="#f97316" opacity="0.35"/>
<rect x="326.67" y="335.00" width="2" height="30.00" fill="#f97316" opacity="0.35"/>
<rect x="328.97" y="350.00" width="2" height="15.00" fill="#f97316" opacity="0.35"/>
<rect x="331.26" y="350.00" width="2" height="15.00" fill="#f97316" opacity="0.35"/>
<rect x="332.02" y="350.00" width="2" height="15.00" fill="#f97316" opacity="0.35"/>
<rect x="332.79" y="320.00" width="2" height="45.00" fill="#f97316" opacity="0.35"/>
<rect x="333.55" y="350.00" width="2" height="15.00" fill="#f97316" opacity="0.35"/>
<rect x="335.85" y="350.00" width="2" height="15.00" fill="#f97316" opacity="0.35"/>
<rect x="337.38" y="350.00" width="2" height="15.00" fill="#f97316" opacity="0.35"/>
<rect x="338.14" y="335.00" width="2" height="30.00" fill="#f97316" opacity="0.35"/>
<rect x="338.91" y="350.00" width="2" height="15.00" fill="#f97316" opacity="0.35"/>
<rect x="339.67" y="350.00" width="2" height="15.00" fill="#f97316" opacity="0.35"/>
<rect x="340.43" y="335.00" width="2" height="30.00" fill="#f97316" opacity="0.35"/>
<rect x="341.20" y="350.00" width="2" height="15.00" fill="#f97316" opacity="0.35"/>
<rect x="341.96" y="350.00" width="2" height="15.00" fill="#f97316" opacity="0.35"/>
<rect x="344.26" y="350.00" width="2" height="15.00" fill="#f97316" opacity="0.35"/>
<rect x="345.02" y="350.00" width="2" height="15.00" fill="#f97316" opacity="0.35"/>
<rect x="348.08" y="350.00" width="2" height="15.00" fill="#f97316" opacity="0.35"/>
<rect x="349.61" y="350.00" width="2" height="15.00" fill="#f97316" opacity="0.35"/>
<rect x="351.14" y="335.00" width="2" height="30.00" fill="#f97316" opacity="0.35"/>
<rect x="354.96" y="335.00" width="2" height="30.00" fill="#f97316" opacity="0.35"/>
<rect x="358.79" y="350.00" width="2" height="15.00" fill="#f97316" opacity="0.35"/>
<rect x="364.14" y="350.00" width="2" height="15.00" fill="#f97316" opacity="0.35"/>
<rect x="365.67" y="350.00" width="2" height="15.00" fill="#f97316" opacity="0.35"/>
<rect x="368.73" y="335.00" width="2" height="30.00" fill="#f97316" opacity="0.35"/>
<rect x="371.02" y="350.00" width="2" height="15.00" fill="#f97316" opacity="0.35"/>
<rect x="371.78" y="350.00" width="2" height="15.00" fill="#f97316" opacity="0.35"/>
<rect x="374.08" y="350.00" width="2" height="15.00" fill="#f97316" opacity="0.35"/>
<rect x="374.84" y="335.00" width="2" height="30.00" fill="#f97316" opacity="0.35"/>
<rect x="379.43" y="350.00" width="2" height="15.00" fill="#f97316" opacity="0.35"/>
<rect x="381.72" y="350.00" width="2" height="15.00" fill="#f97316" opacity="0.35"/>
<rect x="382.49" y="350.00" width="2" height="15.00" fill="#f97316" opacity="0.35"/>
<rect x="387.08" y="350.00" width="2" height="15.00" fill="#f97316" opacity="0.35"/>
<rect x="388.60" y="350.00" width="2" height="15.00" fill="#f97316" opacity="0.35"/>
<rect x="389.37" y="350.00" width="2" height="15.00" fill="#f97316" opacity="0.35"/>
<rect x="390.90" y="350.00" width="2" height="15.00" fill="#f97316" opacity="0.35"/>
<rect x="393.96" y="350.00" width="2" height="15.00" fill="#f97316" opacity="0.35"/>
<rect x="394.72" y="335.00" width="2" height="30.00" fill="#f97316" opacity="0.35"/>
<rect x="397.02" y="350.00" width="2" height="15.00" fill="#f97316" opacity="0.35"/>
<rect x="397.78" y="350.00" width="2" height="15.00" fill="#f97316" opacity="0.35"/>
<rect x="403.13" y="350.00" width="2" height="15.00" fill="#f97316" opacity="0.35"/>
<rect x="410.78" y="350.00" width="2" height="15.00" fill="#f97316" opacity="0.35"/>
<rect x="411.54" y="350.00" width="2" height="15.00" fill="#f97316" opacity="0.35"/>
<rect x="412.31" y="350.00" width="2" height="15.00" fill="#f97316" opacity="0.35"/>
<rect x="419.95" y="335.00" width="2" height="30.00" fill="#f97316" opacity="0.35"/>
<rect x="421.48" y="350.00" width="2" height="15.00" fill="#f97316" opacity="0.35"/>
<rect x="422.25" y="350.00" width="2" height="15.00" fill="#f97316" opacity="0.35"/>
<rect x="423.01" y="350.00" width="2" height="15.00" fill="#f97316" opacity="0.35"/>
<rect x="424.54" y="350.00" width="2" height="15.00" fill="#f97316" opacity="0.35"/>
<rect x="425.31" y="350.00" width="2" height="15.00" fill="#f97316" opacity="0.35"/>
<rect x="429.89" y="335.00" width="2" height="30.00" fill="#f97316" opacity="0.35"/>
<rect x="432.95" y="350.00" width="2" height="15.00" fill="#f97316" opacity="0.35"/>
<rect x="433.72" y="335.00" width="2" height="30.00" fill="#f97316" opacity="0.35"/>
<rect x="435.25" y="350.00" width="2" height="15.00" fill="#f97316" opacity="0.35"/>
<rect x="439.83" y="335.00" width="2" height="30.00" fill="#f97316" opacity="0.35"/>
<rect x="445.19" y="350.00" width="2" height="15.00" fill="#f97316" opacity="0.35"/>
<rect x="445.95" y="350.00" width="2" height="15.00" fill="#f97316" opacity="0.35"/>
<rect x="447.48" y="350.00" width="2" height="15.00" fill="#f97316" opacity="0.35"/>
<rect x="449.77" y="350.00" width="2" height="15.00" fill="#f97316" opacity="0.35"/>
<rect x="450.54" y="350.00" width="2" height="15.00" fill="#f97316" opacity="0.35"/>
<rect x="452.07" y="335.00" width="2" height="30.00" fill="#f97316" opacity="0.35"/>
<rect x="455.13" y="350.00" width="2" height="15.00" fill="#f97316" opacity="0.35"/>
<rect x="456.65" y="350.00" width="2" height="15.00" fill="#f97316" opacity="0.35"/>
<rect x="465.07" y="350.00" width="2" height="15.00" fill="#f97316" opacity="0.35"/>
<rect x="467.36" y="350.00" width="2" height="15.00" fill="#f97316" opacity="0.35"/>
<rect x="468.12" y="335.00" width="2" height="30.00" fill="#f97316" opacity="0.35"/>
<rect x="469.65" y="350.00" width="2" height="15.00" fill="#f97316" opacity="0.35"/>
<rect x="470.42" y="350.00" width="2" height="15.00" fill="#f97316" opacity="0.35"/>
<rect x="472.71" y="350.00" width="2" height="15.00" fill="#f97316" opacity="0.35"/>
<rect x="476.53" y="350.00" width="2" height="15.00" fill="#f97316" opacity="0.35"/>
<rect x="483.42" y="350.00" width="2" height="15.00" fill="#f97316" opacity="0.35"/>
<rect x="484.95" y="350.00" width="2" height="15.00" fill="#f97316" opacity="0.35"/>
<rect x="488.00" y="350.00" width="2" height="15.00" fill="#f97316" opacity="0.35"/>
<rect x="493.36" y="350.00" width="2" height="15.00" fill="#f97316" opacity="0.35"/>
<rect x="494.12" y="350.00" width="2" height="15.00" fill="#f97316" opacity="0.35"/>
<rect x="494.88" y="350.00" width="2" height="15.00" fill="#f97316" opacity="0.35"/>
<rect x="495.65" y="350.00" width="2" height="15.00" fill="#f97316" opacity="0.35"/>
<rect x="497.94" y="350.00" width="2" height="15.00" fill="#f97316" opacity="0.35"/>
<rect x="499.47" y="350.00" width="2" height="15.00" fill="#f97316" opacity="0.35"/>
<rect x="501.77" y="350.00" width="2" height="15.00" fill="#f97316" opacity="0.35"/>
<rect x="504.06" y="350.00" width="2" height="15.00" fill="#f97316" opacity="0.35"/>
<rect x="506.35" y="350.00" width="2" height="15.00" fill="#f97316" opacity="0.35"/>
<rect x="514.00" y="335.00" width="2" height="30.00" fill="#f97316" opacity="0.35"/>
<rect x="516.29" y="350.00" width="2" height="15.00" fill="#f97316" opacity="0.35"/>
<rect x="518.59" y="350.00" width="2" height="15.00" fill="#f97316" opacity="0.35"/>
<rect x="523.94" y="350.00" width="2" height="15.00" fill="#f97316" opacity="0.35"/>
<rect x="527.00" y="350.00" width="2" height="15.00" fill="#f97316" opacity="0.35"/>
<rect x="529.29" y="350.00" width="2" height="15.00" fill="#f97316" opacity="0.35"/>
<rect x="533.12" y="350.00" width="2" height="15.00" fill="#f97316" opacity="0.35"/>
<rect x="534.64" y="335.00" width="2" height="30.00" fill="#f97316" opacity="0.35"/>
<rect x="535.41" y="335.00" width="2" height="30.00" fill="#f97316" opacity="0.35"/>
<rect x="539.23" y="350.00" width="2" height="15.00" fill="#f97316" opacity="0.35"/>
<rect x="540.00" y="350.00" width="2" height="15.00" fill="#f97316" opacity="0.35"/>
<rect x="550.70" y="350.00" width="2" height="15.00" fill="#f97316" opacity="0.35"/>
<rect x="552.99" y="335.00" width="2" height="30.00" fill="#f97316" opacity="0.35"/>
<rect x="556.82" y="350.00" width="2" height="15.00" fill="#f97316" opacity="0.35"/>
<rect x="557.58" y="350.00" width="2" height="15.00" fill="#f97316" opacity="0.35"/>
<rect x="558.35" y="350.00" width="2" height="15.00" fill="#f97316" opacity="0.35"/>
<rect x="560.64" y="335.00" width="2" height="30.00" fill="#f97316" opacity="0.35"/>
<rect x="565.99" y="350.00" width="2" height="15.00" fill="#f97316" opacity="0.35"/>
<rect x="572.87" y="350.00" width="2" height="15.00" fill="#f97316" opacity="0.35"/>
<rect x="580.52" y="320.00" width="2" height="45.00" fill="#f97316" opacity="0.35"/>
<rect x="585.11" y="350.00" width="2" height="15.00" fill="#f97316" opacity="0.35"/>
<rect x="587.40" y="350.00" width="2" height="15.00" fill="#f97316" opacity="0.35"/>
<rect x="588.93" y="350.00" width="2" height="15.00" fill="#f97316" opacity="0.35"/>
<rect x="592.75" y="350.00" width="2" height="15.00" fill="#f97316" opacity="0.35"/>
<rect x="595.05" y="335.00" width="2" height="30.00" fill="#f97316" opacity="0.35"/>
<rect x="597.34" y="335.00" width="2" height="30.00" fill="#f97316" opacity="0.35"/>
<rect x="602.69" y="350.00" width="2" height="15.00" fill="#f97316" opacity="0.35"/>
<rect x="603.46" y="350.00" width="2" height="15.00" fill="#f97316" opacity="0.35"/>
<rect x="604.22" y="335.00" width="2" height="30.00" fill="#f97316" opacity="0.35"/>
<rect x="605.75" y="350.00" width="2" height="15.00" fill="#f97316" opacity="0.35"/>
<rect x="606.52" y="350.00" width="2" height="15.00" fill="#f97316" opacity="0.35"/>
<rect x="609.58" y="335.00" width="2" height="30.00" fill="#f97316" opacity="0.35"/>
<rect x="616.46" y="350.00" width="2" height="15.00" fill="#f97316" opacity="0.35"/>
<rect x="623.34" y="350.00" width="2" height="15.00" fill="#f97316" opacity="0.35"/>
<rect x="624.87" y="350.00" width="2" height="15.00" fill="#f97316" opacity="0.35"/>
<rect x="625.63" y="350.00" width="2" height="15.00" fill="#f97316" opacity="0.35"/>
<rect x="630.98" y="350.00" width="2" height="15.00" fill="#f97316" opacity="0.35"/>
<rect x="632.51" y="350.00" width="2" height="15.00" fill="#f97316" opacity="0.35"/>
<rect x="634.04" y="350.00" width="2" height="15.00" fill="#f97316" opacity="0.35"/>
<rect x="637.87" y="350.00" width="2" height="15.00" fill="#f97316" opacity="0.35"/>
<rect x="640.92" y="350.00" width="2" height="15.00" fill="#f97316" opacity="0.35"/>
<rect x="647.81" y="350.00" width="2" height="15.00" fill="#f97316" opacity="0.35"/>
<rect x="656.22" y="350.00" width="2" height="15.00" fill="#f97316" opacity="0.35"/>
<rect x="658.51" y="350.00" width="2" height="15.00" fill="#f97316" opacity="0.35"/>
<rect x="664.63" y="350.00" width="2" height="15.00" fill="#f97316" opacity="0.35"/>
<rect x="666.92" y="350.00" width="2" height="15.00" fill="#f97316" opacity="0.35"/>
<rect x="672.27" y="350.00" width="2" height="15.00" fill="#f97316" opacity="0.35"/>
<rect x="673.04" y="350.00" width="2" height="15.00" fill="#f97316" opacity="0.35"/>
<rect x="673.80" y="335.00" width="2" height="30.00" fill="#f97316" opacity="0.35"/>
<rect x="682.21" y="335.00" width="2" height="30.00" fill="#f97316" opacity="0.35"/>
<rect x="684.51" y="350.00" width="2" height="15.00" fill="#f97316" opacity="0.35"/>
<rect x="686.80" y="350.00" width="2" height="15.00" fill="#f97316" opacity="0.35"/>
<rect x="689.09" y="350.00" width="2" height="15.00" fill="#f97316" opacity="0.35"/>
<rect x="694.45" y="350.00" width="2" height="15.00" fill="#f97316" opacity="0.35"/>
<rect x="699.03" y="350.00" width="2" height="15.00" fill="#f97316" opacity="0.35"/>
<rect x="700.56" y="335.00" width="2" height="30.00" fill="#f97316" opacity="0.35"/>
<rect x="703.62" y="350.00" width="2" height="15.00" fill="#f97316" opacity="0.35"/>
<rect x="704.39" y="350.00" width="2" height="15.00" fill="#f97316" opacity="0.35"/>
<rect x="707.45" y="350.00" width="2" height="15.00" fill="#f97316" opacity="0.35"/>
<rect x="708.21" y="320.00" width="2" height="45.00" fill="#f97316" opacity="0.35"/>
<rect x="711.27" y="350.00" width="2" height="15.00" fill="#f97316" opacity="0.35"/>
<rect x="720.44" y="350.00" width="2" height="15.00" fill="#f97316" opacity="0.35"/>
<rect x="721.21" y="350.00" width="2" height="15.00" fill="#f97316" opacity="0.35"/>
<rect x="724.27" y="350.00" width="2" height="15.00" fill="#f97316" opacity="0.35"/>
<rect x="726.56" y="335.00" width="2" height="30.00" fill="#f97316" opacity="0.35"/>
<rect x="728.09" y="350.00" width="2" height="15.00" fill="#f97316" opacity="0.35"/>
<rect x="731.15" y="350.00" width="2" height="15.00" fill="#f97316" opacity="0.35"/>
<rect x="731.91" y="350.00" width="2" height="15.00" fill="#f97316" opacity="0.35"/>
<rect x="732.68" y="350.00" width="2" height="15.00" fill="#f97316" opacity="0.35"/>
<rect x="734.97" y="320.00" width="2" height="45.00" fill="#f97316" opacity="0.35"/>
<rect x="735.74" y="350.00" width="2" height="15.00" fill="#f97316" opacity="0.35"/>
<rect x="736.50" y="350.00" width="2" height="15.00" fill="#f97316" opacity="0.35"/>
<rect x="743.38" y="335.00" width="2" height="30.00" fill="#f97316" opacity="0.35"/>
<rect x="744.91" y="350.00" width="2" height="15.00" fill="#f97316" opacity="0.35"/>
<rect x="747.20" y="350.00" width="2" height="15.00" fill="#f97316" opacity="0.35"/>
<rect x="751.03" y="350.00" width="2" height="15.00" fill="#f97316" opacity="0.35"/>
<rect x="754.85" y="350.00" width="2" height="15.00" fill="#f97316" opacity="0.35"/>
<rect x="757.14" y="350.00" width="2" height="15.00" fill="#f97316" opacity="0.35"/>
<rect x="761.73" y="350.00" width="2" height="15.00" fill="#f97316" opacity="0.35"/>
<rect x="764.03" y="350.00" width="2" height="15.00" fill="#f97316" opacity="0.35"/>
<rect x="767.08" y="350.00" width="2" height="15.00" fill="#f97316" opacity="0.35"/>
<rect x="767.85" y="350.00" width="2" height="15.00" fill="#f97316" opacity="0.35"/>
<rect x="772.44" y="350.00" width="2" height="15.00" fill="#f97316" opacity="0.35"/>
<rect x="776.26" y="335.00" width="2" height="30.00" fill="#f97316" opacity="0.35"/>
<rect x="784.67" y="350.00" width="2" height="15.00" fill="#f97316" opacity="0.35"/>
<rect x="789.26" y="350.00" width="2" height="15.00" fill="#f97316" opacity="0.35"/>
<rect x="791.55" y="350.00" width="2" height="15.00" fill="#f97316" opacity="0.35"/>
<rect x="799.20" y="335.00" width="2" height="30.00" fill="#f97316" opacity="0.35"/>
<rect x="801.49" y="350.00" width="2" height="15.00" fill="#f97316" opacity="0.35"/>
<rect x="806.84" y="350.00" width="2" height="15.00" fill="#f97316" opacity="0.35"/>
<rect x="807.61" y="350.00" width="2" height="15.00" fill="#f97316" opacity="0.35"/>
<rect x="809.90" y="350.00" width="2" height="15.00" fill="#f97316" opacity="0.35"/>
<rect x="814.49" y="350.00" width="2" height="15.00" fill="#f97316" opacity="0.35"/>
<rect x="816.02" y="350.00" width="2" height="15.00" fill="#f97316" opacity="0.35"/>
<rect x="816.78" y="350.00" width="2" height="15.00" fill="#f97316" opacity="0.35"/>
<rect x="819.84" y="350.00" width="2" height="15.00" fill="#f97316" opacity="0.35"/>
<rect x="822.14" y="350.00" width="2" height="15.00" fill="#f97316" opacity="0.35"/>
<rect x="822.90" y="350.00" width="2" height="15.00" fill="#f97316" opacity="0.35"/>
<rect x="826.72" y="350.00" width="2" height="15.00" fill="#f97316" opacity="0.35"/>
<rect x="844.31" y="350.00" width="2" height="15.00" fill="#f97316" opacity="0.35"/>
<rect x="851.96" y="350.00" width="2" height="15.00" fill="#f97316" opacity="0.35"/>
<rect x="859.60" y="350.00" width="2" height="15.00" fill="#f97316" opacity="0.35"/>
<rect x="861.13" y="350.00" width="2" height="15.00" fill="#f97316" opacity="0.35"/>
<rect x="867.25" y="350.00" width="2" height="15.00" fill="#f97316" opacity="0.35"/>
<rect x="870.31" y="350.00" width="2" height="15.00" fill="#f97316" opacity="0.35"/>
<rect x="877.19" y="350.00" width="2" height="15.00" fill="#f97316" opacity="0.35"/>
<rect x="887.13" y="350.00" width="2" height="15.00" fill="#f97316" opacity="0.35"/>
<rect x="892.48" y="350.00" width="2" height="15.00" fill="#f97316" opacity="0.35"/>
<rect x="899.36" y="350.00" width="2" height="15.00" fill="#f97316" opacity="0.35"/>
<rect x="901.65" y="350.00" width="2" height="15.00" fill="#f97316" opacity="0.35"/>
<rect x="907.77" y="350.00" width="2" height="15.00" fill="#f97316" opacity="0.35"/>
<rect x="910.83" y="350.00" width="2" height="15.00" fill="#f97316" opacity="0.35"/>
<rect x="926.12" y="350.00" width="2" height="15.00" fill="#f97316" opacity="0.35"/>
<rect x="930.71" y="350.00" width="2" height="15.00" fill="#f97316" opacity="0.35"/>
<rect x="948.30" y="350.00" width="2" height="15.00" fill="#f97316" opacity="0.35"/>
<rect x="952.12" y="350.00" width="2" height="15.00" fill="#f97316" opacity="0.35"/>
<rect x="953.65" y="350.00" width="2" height="15.00" fill="#f97316" opacity="0.35"/>
<rect x="955.94" y="350.00" width="2" height="15.00" fill="#f97316" opacity="0.35"/>
<rect x="956.71" y="350.00" width="2" height="15.00" fill="#f97316" opacity="0.35"/>
<rect x="957.47" y="350.00" width="2" height="15.00" fill="#f97316" opacity="0.35"/>
<polyline points="70.00,364.36 70.76,360.55 71.53,359.28 72.29,356.73 73.06,354.82 73.82,353.55 74.59,351.64 75.35,348.46 76.12,348.46 76.88,347.83 77.65,346.56 78.41,344.65 79.18,344.65 79.94,342.74 80.70,342.10 81.47,341.47 82.23,339.56 83.00,338.92 83.76,338.92 84.53,337.02 85.29,335.74 86.06,335.11 86.82,333.20 87.59,333.20 88.35,331.29 89.12,330.02 89.88,329.38 90.64,328.11 91.41,326.20 92.17,324.93 92.94,323.66 93.70,323.02 94.47,323.02 95.23,319.21 96.00,318.57 96.76,318.57 97.53,317.94 98.29,317.94 99.05,317.30 99.82,315.39 100.58,314.12 101.35,314.12 102.11,312.85 102.88,312.85 103.64,312.85 104.41,312.85 105.17,312.21 105.94,310.94 106.70,308.40 107.47,307.76 108.23,306.49 108.99,305.22 109.76,304.58 110.52,303.31 111.29,303.31 112.05,303.31 112.82,302.67 113.58,302.67 114.35,302.67 115.11,302.67 115.88,301.40 116.64,300.76 117.41,300.13 118.17,300.13 118.93,299.49 119.70,298.86 120.46,296.95 121.23,295.68 121.99,295.68 122.76,294.40 123.52,293.77 124.29,293.77 125.05,292.50 125.82,291.22 126.58,290.59 127.35,290.59 128.11,289.95 128.87,289.95 129.64,289.32 130.40,289.32 131.17,289.32 131.93,289.32 132.70,288.04 133.46,287.41 134.23,287.41 134.99,286.14 135.76,286.14 136.52,286.14 137.29,284.23 138.05,284.23 138.81,282.32 139.58,280.41 140.34,279.77 141.11,278.50 141.87,278.50 142.64,277.23 143.40,277.23 144.17,277.23 144.93,277.23 145.70,276.59 146.46,275.32 147.23,274.69 147.99,274.69 148.75,274.05 149.52,272.14 150.28,271.51 151.05,271.51 151.81,270.87 152.58,270.23 153.34,269.60 154.11,269.60 154.87,267.69 155.64,266.42 156.40,266.42 157.16,264.51 157.93,264.51 158.69,264.51 159.46,263.87 160.22,263.24 160.99,263.24 161.75,262.60 162.52,262.60 163.28,261.97 164.05,261.97 164.81,261.33 165.58,260.69 166.34,260.69 167.10,260.69 167.87,259.42 168.63,259.42 169.40,259.42 170.16,257.51 170.93,256.88 171.69,256.24 172.46,256.24 173.22,255.61 173.99,254.33 174.75,253.70 175.52,252.43 176.28,252.43 177.04,252.43 177.81,252.43 178.57,252.43 179.34,251.79 180.10,251.79 180.87,251.79 181.63,250.52 182.40,249.88 183.16,249.88 183.93,249.25 184.69,248.61 185.46,248.61 186.22,247.97 186.98,247.97 187.75,244.79 188.51,244.79 189.28,244.16 190.04,244.16 190.81,244.16 191.57,244.16 192.34,244.16 193.10,244.16 193.87,244.16 194.63,244.16 195.40,243.52 196.16,240.98 196.92,240.98 197.69,239.71 198.45,239.71 199.22,239.71 199.98,239.71 200.75,238.43 201.51,237.80 202.28,237.16 203.04,236.53 203.81,236.53 204.57,236.53 205.34,236.53 206.10,236.53 206.86,235.25 207.63,235.25 208.39,235.25 209.16,234.62 209.92,233.98 210.69,233.98 211.45,233.35 212.22,232.71 212.98,230.80 213.75,230.80 214.51,230.17 215.27,229.53 216.04,229.53 216.80,228.89 217.57,228.89 218.33,228.89 219.10,228.89 219.86,228.26 220.63,228.26 221.39,227.62 222.16,226.35 222.92,225.71 223.69,225.71 224.45,225.71 225.21,225.08 225.98,225.08 226.74,225.08 227.51,225.08 228.27,225.08 229.04,224.44 229.80,224.44 230.57,224.44 231.33,224.44 232.10,224.44 232.86,224.44 233.63,224.44 234.39,224.44 235.15,224.44 235.92,223.17 236.68,223.17 237.45,222.53 238.21,221.90 238.98,220.63 239.74,220.63 240.51,220.63 241.27,220.63 242.04,219.99 242.80,219.99 243.57,219.99 244.33,219.99 245.09,219.99 245.86,219.99 246.62,219.99 247.39,219.99 248.15,219.99 248.92,219.99 249.68,219.99 250.45,219.99 251.21,219.35 251.98,219.35 252.74,218.72 253.51,218.08 254.27,217.45 255.03,215.54 255.80,215.54 256.56,214.90 257.33,214.90 258.09,214.27 258.86,213.63 259.62,213.63 260.39,212.99 261.15,212.36 261.92,211.72 262.68,211.72 263.45,210.45 264.21,209.18 264.97,208.54 265.74,208.54 266.50,207.91 267.27,207.91 268.03,207.91 268.80,207.27 269.56,207.27 270.33,207.27 271.09,207.27 271.86,207.27 272.62,207.27 273.38,207.27 274.15,207.27 274.91,207.27 275.68,206.63 276.44,206.63 277.21,206.63 277.97,206.63 278.74,206.00 279.50,206.00 280.27,206.00 281.03,206.00 281.80,206.00 282.56,205.36 283.32,205.36 284.09,204.73 284.85,204.09 285.62,203.45 286.38,203.45 287.15,202.82 287.91,202.82 288.68,202.82 289.44,202.82 290.21,202.82 290.97,202.82 291.74,202.82 292.50,202.82 293.26,202.82 294.03,202.18 294.79,202.18 295.56,201.55 296.32,200.91 297.09,200.91 297.85,200.91 298.62,200.91 299.38,200.91 300.15,200.27 300.91,200.27 301.68,199.64 302.44,199.64 303.20,199.00 303.97,199.00 304.73,199.00 305.50,199.00 306.26,199.00 307.03,198.37 307.79,197.09 308.56,197.09 309.32,196.46 310.09,196.46 310.85,196.46 311.62,195.82 312.38,195.82 313.14,195.82 313.91,195.19 314.67,195.19 315.44,195.19 316.20,195.19 316.97,195.19 317.73,195.19 318.50,194.55 319.26,193.91 320.03,193.91 320.79,193.91 321.55,193.28 322.32,193.28 323.08,193.28 323.85,192.01 324.61,192.01 325.38,192.01 326.14,192.01 326.91,192.01 327.67,190.73 328.44,190.73 329.20,190.73 329.97,190.10 330.73,190.10 331.49,190.10 332.26,189.46 333.02,188.83 333.79,186.92 334.55,186.28 335.32,186.28 336.08,186.28 336.85,185.65 337.61,185.65 338.38,185.01 339.14,183.74 339.91,183.10 340.67,182.47 341.43,181.19 342.20,180.56 342.96,179.92 343.73,179.92 344.49,179.92 345.26,179.29 346.02,178.65 346.79,178.65 347.55,178.65 348.32,178.65 349.08,178.01 349.85,178.01 350.61,177.38 351.37,177.38 352.14,176.11 352.90,176.11 353.67,176.11 354.43,176.11 355.20,176.11 355.96,174.83 356.73,174.83 357.49,174.83 358.26,174.83 359.02,174.83 359.79,174.20 360.55,174.20 361.31,174.20 362.08,174.20 362.84,174.20 363.61,174.20 364.37,174.20 365.14,173.56 365.90,173.56 366.67,172.93 367.43,172.93 368.20,172.93 368.96,172.93 369.73,171.65 370.49,171.65 371.25,171.65 372.02,171.02 372.78,170.38 373.55,170.38 374.31,170.38 375.08,169.75 375.84,168.47 376.61,168.47 377.37,168.47 378.14,168.47 378.90,168.47 379.66,168.47 380.43,167.84 381.19,167.84 381.96,167.84 382.72,167.20 383.49,166.57 384.25,166.57 385.02,166.57 385.78,166.57 386.55,166.57 387.31,166.57 388.08,165.93 388.84,165.93 389.60,165.29 390.37,164.66 391.13,164.66 391.90,164.02 392.66,164.02 393.43,164.02 394.19,164.02 394.96,163.39 395.72,162.11 396.49,162.11 397.25,162.11 398.02,161.48 398.78,160.84 399.54,160.84 400.31,160.84 401.07,160.84 401.84,160.84 402.60,160.84 403.37,160.84 404.13,160.21 404.90,160.21 405.66,160.21 406.43,160.21 407.19,160.21 407.96,160.21 408.72,160.21 409.48,160.21 410.25,160.21 411.01,160.21 411.78,159.57 412.54,158.93 413.31,158.30 414.07,158.30 414.84,158.30 415.60,158.30 416.37,158.30 417.13,158.30 417.90,158.30 418.66,158.30 419.42,158.30 420.19,158.30 420.95,157.03 421.72,157.03 422.48,156.39 423.25,155.75 424.01,155.12 424.78,155.12 425.54,154.48 426.31,153.85 427.07,153.85 427.84,153.85 428.60,153.85 429.36,153.85 430.13,153.85 430.89,152.57 431.66,152.57 432.42,152.57 433.19,152.57 433.95,151.94 434.72,150.67 435.48,150.67 436.25,150.03 437.01,150.03 437.77,150.03 438.54,150.03 439.30,150.03 440.07,150.03 440.83,148.76 441.60,148.76 442.36,148.76 443.13,148.76 443.89,148.76 444.66,148.76 445.42,148.76 446.19,148.12 446.95,147.49 447.71,147.49 448.48,146.85 449.24,146.85 450.01,146.85 450.77,146.21 451.54,145.58 452.30,145.58 453.07,144.31 453.83,144.31 454.60,144.31 455.36,144.31 456.13,143.67 456.89,143.67 457.65,143.03 458.42,143.03 459.18,143.03 459.95,143.03 460.71,143.03 461.48,143.03 462.24,143.03 463.01,143.03 463.77,143.03 464.54,143.03 465.30,143.03 466.07,142.40 466.83,142.40 467.59,142.40 468.36,141.76 469.12,140.49 469.89,140.49 470.65,139.85 471.42,139.22 472.18,139.22 472.95,139.22 473.71,138.58 474.48,138.58 475.24,138.58 476.01,138.58 476.77,138.58 477.53,137.95 478.30,137.95 479.06,137.95 479.83,137.95 480.59,137.95 481.36,137.95 482.12,137.95 482.89,137.95 483.65,137.95 484.42,137.31 485.18,137.31 485.95,136.67 486.71,136.67 487.47,136.67 488.24,136.67 489.00,136.04 489.77,136.04 490.53,136.04 491.30,136.04 492.06,136.04 492.83,136.04 493.59,136.04 494.36,135.40 495.12,134.77 495.88,134.13 496.65,133.49 497.41,133.49 498.18,133.49 498.94,132.86 499.71,132.86 500.47,132.22 501.24,132.22 502.00,132.22 502.77,131.59 503.53,131.59 504.30,131.59 505.06,130.95 505.82,130.95 506.59,130.95 507.35,130.31 508.12,130.31 508.88,130.31 509.65,130.31 510.41,130.31 511.18,130.31 511.94,130.31 512.71,130.31 513.47,130.31 514.24,130.31 515.00,129.04 515.76,129.04 516.53,129.04 517.29,128.41 518.06,128.41 518.82,128.41 519.59,127.77 520.35,127.77 521.12,127.77 521.88,127.77 522.65,127.77 523.41,127.77 524.18,127.77 524.94,127.13 525.70,127.13 526.47,127.13 527.23,127.13 528.00,126.50 528.76,126.50 529.53,126.50 530.29,125.86 531.06,125.86 531.82,125.86 532.59,125.86 533.35,125.86 534.12,125.23 534.88,125.23 535.64,123.95 536.41,122.68 537.17,122.68 537.94,122.68 538.70,122.68 539.47,122.68 540.23,122.05 541.00,121.41 541.76,121.41 542.53,121.41 543.29,121.41 544.05,121.41 544.82,121.41 545.58,121.41 546.35,121.41 547.11,121.41 547.88,121.41 548.64,121.41 549.41,121.41 550.17,121.41 550.94,121.41 551.70,120.77 552.47,120.77 553.23,120.77 553.99,119.50 554.76,119.50 555.52,119.50 556.29,119.50 557.05,119.50 557.82,118.86 558.58,118.23 559.35,117.59 560.11,117.59 560.88,117.59 561.64,116.32 562.41,116.32 563.17,116.32 563.93,116.32 564.70,116.32 565.46,116.32 566.23,116.32 566.99,115.68 567.76,115.68 568.52,115.68 569.29,115.68 570.05,115.68 570.82,115.68 571.58,115.68 572.35,115.68 573.11,115.68 573.87,115.05 574.64,115.05 575.40,115.05 576.17,115.05 576.93,115.05 577.70,115.05 578.46,115.05 579.23,115.05 579.99,115.05 580.76,115.05 581.52,113.14 582.29,113.14 583.05,113.14 583.81,113.14 584.58,113.14 585.34,113.14 586.11,112.50 586.87,112.50 587.64,112.50 588.40,111.87 589.17,111.87 589.93,111.23 590.70,111.23 591.46,111.23 592.23,111.23 592.99,111.23 593.75,110.60 594.52,110.60 595.28,110.60 596.05,109.32 596.81,109.32 597.58,109.32 598.34,108.05 599.11,108.05 599.87,108.05 600.64,108.05 601.40,108.05 602.16,108.05 602.93,108.05 603.69,107.42 604.46,106.78 605.22,105.51 605.99,105.51 606.75,104.87 607.52,104.24 608.28,104.24 609.05,104.24 609.81,104.24 610.58,102.96 611.34,102.96 612.10,102.96 612.87,102.96 613.63,102.96 614.40,102.96 615.16,102.96 615.93,102.96 616.69,102.96 617.46,102.33 618.22,102.33 618.99,102.33 619.75,102.33 620.52,102.33 621.28,102.33 622.04,102.33 622.81,102.33 623.57,102.33 624.34,101.69 625.10,101.69 625.87,101.06 626.63,100.42 627.40,100.42 628.16,100.42 628.93,100.42 629.69,100.42 630.46,100.42 631.22,100.42 631.98,99.78 632.75,99.78 633.51,99.15 634.28,99.15 635.04,98.51 635.81,98.51 636.57,98.51 637.34,98.51 638.10,98.51 638.87,97.88 639.63,97.88 640.40,97.88 641.16,97.88 641.92,97.24 642.69,97.24 643.45,97.24 644.22,97.24 644.98,97.24 645.75,97.24 646.51,97.24 647.28,97.24 648.04,97.24 648.81,96.60 649.57,96.60 650.34,96.60 651.10,96.60 651.86,96.60 652.63,96.60 653.39,96.60 654.16,96.60 654.92,96.60 655.69,96.60 656.45,96.60 657.22,95.97 657.98,95.97 658.75,95.97 659.51,95.33 660.27,95.33 661.04,95.33 661.80,95.33 662.57,95.33 663.33,95.33 664.10,95.33 664.86,95.33 665.63,94.70 666.39,94.70 667.16,94.70 667.92,94.06 668.69,94.06 669.45,94.06 670.21,94.06 670.98,94.06 671.74,94.06 672.51,94.06 673.27,93.42 674.04,92.79 674.80,91.52 675.57,91.52 676.33,91.52 677.10,91.52 677.86,91.52 678.63,91.52 679.39,91.52 680.15,91.52 680.92,91.52 681.68,91.52 682.45,91.52 683.21,90.24 683.98,90.24 684.74,90.24 685.51,89.61 686.27,89.61 687.04,89.61 687.80,88.97 688.57,88.97 689.33,88.97 690.09,88.34 690.86,88.34 691.62,88.34 692.39,88.34 693.15,88.34 693.92,88.34 694.68,88.34 695.45,87.70 696.21,87.70 696.98,87.70 697.74,87.70 698.51,87.70 699.27,87.70 700.03,87.06 700.80,87.06 701.56,85.79 702.33,85.79 703.09,85.79 703.86,85.79 704.62,85.16 705.39,84.52 706.15,84.52 706.92,84.52 707.68,84.52 708.45,83.88 709.21,81.98 709.97,81.98 710.74,81.98 711.50,81.98 712.27,81.34 713.03,81.34 713.80,81.34 714.56,81.34 715.33,81.34 716.09,81.34 716.86,81.34 717.62,81.34 718.38,81.34 719.15,81.34 719.91,81.34 720.68,81.34 721.44,80.70 722.21,80.07 722.97,80.07 723.74,80.07 724.50,80.07 725.27,79.43 726.03,79.43 726.80,79.43 727.56,78.16 728.32,78.16 729.09,77.52 729.85,77.52 730.62,77.52 731.38,77.52 732.15,76.89 732.91,76.25 733.68,75.62 734.44,75.62 735.21,75.62 735.97,73.71 736.74,73.07 737.50,72.44 738.26,72.44 739.03,72.44 739.79,72.44 740.56,72.44 741.32,72.44 742.09,72.44 742.85,72.44 743.62,72.44 744.38,71.16 745.15,71.16 745.91,70.53 746.68,70.53 747.44,70.53 748.20,69.89 748.97,69.89 749.73,69.89 750.50,69.89 751.26,69.89 752.03,69.26 752.79,69.26 753.56,69.26 754.32,69.26 755.09,69.26 755.85,68.62 756.62,68.62 757.38,68.62 758.14,67.98 758.91,67.98 759.67,67.98 760.44,67.98 761.20,67.98 761.97,67.98 762.73,67.35 763.50,67.35 764.26,67.35 765.03,66.71 765.79,66.71 766.55,66.71 767.32,66.71 768.08,66.08 768.85,65.44 769.61,65.44 770.38,65.44 771.14,65.44 771.91,65.44 772.67,65.44 773.44,64.80 774.20,64.80 774.97,64.80 775.73,64.80 776.49,64.80 777.26,63.53 778.02,63.53 778.79,63.53 779.55,63.53 780.32,63.53 781.08,63.53 781.85,63.53 782.61,63.53 783.38,63.53 784.14,63.53 784.91,63.53 785.67,62.90 786.43,62.90 787.20,62.90 787.96,62.90 788.73,62.90 789.49,62.90 790.26,62.26 791.02,62.26 791.79,62.26 792.55,61.62 793.32,61.62 794.08,61.62 794.85,61.62 795.61,61.62 796.37,61.62 797.14,61.62 797.90,61.62 798.67,61.62 799.43,61.62 800.20,60.35 800.96,60.35 801.73,60.35 802.49,59.72 803.26,59.72 804.02,59.72 804.79,59.72 805.55,59.72 806.31,59.72 807.08,59.72 807.84,59.08 808.61,58.44 809.37,58.44 810.14,58.44 810.90,57.81 811.67,57.81 812.43,57.81 813.20,57.81 813.96,57.81 814.73,57.81 815.49,57.17 816.25,57.17 817.02,56.54 817.78,55.90 818.55,55.90 819.31,55.90 820.08,55.90 820.84,55.26 821.61,55.26 822.37,55.26 823.14,54.63 823.90,53.99 824.66,53.99 825.43,53.99 826.19,53.99 826.96,53.99 827.72,53.36 828.49,53.36 829.25,53.36 830.02,53.36 830.78,53.36 831.55,53.36 832.31,53.36 833.08,53.36 833.84,53.36 834.60,53.36 835.37,53.36 836.13,53.36 836.90,53.36 837.66,53.36 838.43,53.36 839.19,53.36 839.96,53.36 840.72,53.36 841.49,53.36 842.25,53.36 843.02,53.36 843.78,53.36 844.54,53.36 845.31,52.72 846.07,52.72 846.84,52.72 847.60,52.72 848.37,52.72 849.13,52.72 849.90,52.72 850.66,52.72 851.43,52.72 852.19,52.72 852.96,52.08 853.72,52.08 854.48,52.08 855.25,52.08 856.01,52.08 856.78,52.08 857.54,52.08 858.31,52.08 859.07,52.08 859.84,52.08 860.60,51.45 861.37,51.45 862.13,50.81 862.90,50.81 863.66,50.81 864.42,50.81 865.19,50.81 865.95,50.81 866.72,50.81 867.48,50.81 868.25,50.18 869.01,50.18 869.78,50.18 870.54,50.18 871.31,49.54 872.07,49.54 872.84,49.54 873.60,49.54 874.36,49.54 875.13,49.54 875.89,49.54 876.66,49.54 877.42,49.54 878.19,48.90 878.95,48.90 879.72,48.90 880.48,48.90 881.25,48.90 882.01,48.90 882.77,48.90 883.54,48.90 884.30,48.90 885.07,48.90 885.83,48.90 886.60,48.90 887.36,48.90 888.13,48.27 888.89,48.27 889.66,48.27 890.42,48.27 891.19,48.27 891.95,48.27 892.71,48.27 893.48,47.63 894.24,47.63 895.01,47.63 895.77,47.63 896.54,47.63 897.30,47.63 898.07,47.63 898.83,47.63 899.60,47.63 900.36,47.00 901.13,47.00 901.89,47.00 902.65,46.36 903.42,46.36 904.18,46.36 904.95,46.36 905.71,46.36 906.48,46.36 907.24,46.36 908.01,46.36 908.77,45.72 909.54,45.72 910.30,45.72 911.07,45.72 911.83,45.09 912.59,45.09 913.36,45.09 914.12,45.09 914.89,45.09 915.65,45.09 916.42,45.09 917.18,45.09 917.95,45.09 918.71,45.09 919.48,45.09 920.24,45.09 921.01,45.09 921.77,45.09 922.53,45.09 923.30,45.09 924.06,45.09 924.83,45.09 925.59,45.09 926.36,45.09 927.12,44.45 927.89,44.45 928.65,44.45 929.42,44.45 930.18,44.45 930.95,44.45 931.71,43.82 932.47,43.82 933.24,43.82 934.00,43.82 934.77,43.82 935.53,43.82 936.30,43.82 937.06,43.82 937.83,43.82 938.59,43.82 939.36,43.82 940.12,43.82 940.88,43.82 941.65,43.82 942.41,43.82 943.18,43.82 943.94,43.82 944.71,43.82 945.47,43.82 946.24,43.82 947.00,43.82 947.77,43.82 948.53,43.82 949.30,43.18 950.06,43.18 950.82,43.18 951.59,43.18 952.35,43.18 953.12,42.54 953.88,42.54 954.65,41.91 955.41,41.91 956.18,41.91 956.94,41.27 957.71,40.64 958.47,40.00 959.24,40.00 960.00,40.00" fill="none" stroke="#2563eb" stroke-width="2"/>
<text x="78" y="58" font-family="Arial" font-size="12" fill="#2563eb">blue: cumulative relations</text>
<text x="78" y="76" font-family="Arial" font-size="12" fill="#ea580c">orange bars: new relations at idx</text>
</svg>