<svg xmlns="http://www.w3.org/2000/svg" width="1100" height="620" viewBox="0 0 1100 620">
<rect width="100%" height="100%" fill="white"/>
<text x="550.0" y="24" text-anchor="middle" font-family="Arial" font-size="18" font-weight="700">Schema Growth Curve by Case</text>
<line x1="70" y1="550" x2="870" y2="550" stroke="#111827"/>
<line x1="70" y1="40" x2="70" y2="550" stroke="#111827"/>
<text x="470.0" y="600" text-anchor="middle" font-family="Arial" font-size="13">sample idx</text>
<text x="18" y="295.0" transform="rotate(-90 18 295.0)" text-anchor="middle" font-family="Arial" font-size="13">cumulative # Top-1 canonical relations</text>
<line x1="70" y1="550.00" x2="870" y2="550.00" stroke="#e5e7eb"/>
<text x="62" y="554.00" text-anchor="end" font-family="Arial" font-size="11">0</text>
<line x1="70" y1="447.74" x2="870" y2="447.74" stroke="#e5e7eb"/>
<text x="62" y="451.74" text-anchor="end" font-family="Arial" font-size="11">80</text>
<line x1="70" y1="345.49" x2="870" y2="345.49" stroke="#e5e7eb"/>
<text x="62" y="349.49" text-anchor="end" font-family="Arial" font-size="11">160</text>
<line x1="70" y1="244.51" x2="870" y2="244.51" stroke="#e5e7eb"/>
<text x="62" y="248.51" text-anchor="end" font-family="Arial" font-size="11">239</text>
<line x1="70" y1="142.26" x2="870" y2="142.26" stroke="#e5e7eb"/>
<text x="62" y="146.26" text-anchor="end" font-family="Arial" font-size="11">319</text>
<line x1="70" y1="40.00" x2="870" y2="40.00" stroke="#e5e7eb"/>
<text x="62" y="44.00" text-anchor="end" font-family="Arial" font-size="11">399</text>
<text x="70.00" y="568" text-anchor="middle" font-family="Arial" font-size="11">0</text>
<text x="230.14" y="568" text-anchor="middle" font-family="Arial" font-size="11">233</text>
<text x="390.27" y="568" text-anchor="middle" font-family="Arial" font-size="11">466</text>
<text x="549.73" y="568" text-anchor="middle" font-family="Arial" font-size="11">698</text>
<text x="709.86" y="568" text-anchor="middle" font-family="Arial" font-size="11">931</text>
<text x="870.00" y="568" text-anchor="middle" font-family="Arial" font-size="11">1164</text>
<polyline points="70.00,548.72 70.69,543.61 71.37,542.33 72.06,541.05 72.75,539.77 73.44,537.22 74.12,534.66 74.81,529.55 75.50,529.55 76.19,525.71 76.87,523.16 77.56,519.32 78.25,519.32 78.93,516.77 79.62,515.49 80.31,514.21 81.00,511.65 81.68,510.38 82.37,510.38 83.06,510.38 83.75,507.82 84.43,507.82 85.12,503.98 85.81,503.98 86.49,502.71 87.18,500.15 87.87,498.87 88.56,498.87 89.24,497.59 89.93,495.04 90.62,495.04 91.31,495.04 91.99,495.04 92.68,491.20 93.37,489.92 94.05,489.92 94.74,489.92 95.43,488.65 96.12,488.65 96.80,487.37 97.49,487.37 98.18,486.09 98.87,484.81 99.55,484.81 100.24,484.81 100.93,482.26 101.62,480.98 102.30,479.70 102.99,475.86 103.68,473.31 104.36,470.75 105.05,469.47 105.74,468.20 106.43,468.20 107.11,465.64 107.80,465.64 108.49,465.64 109.18,464.36 109.86,463.08 110.55,463.08 111.24,460.53 111.92,459.25 112.61,459.25 113.30,457.97 113.99,455.41 114.67,455.41 115.36,454.14 116.05,454.14 116.74,454.14 117.42,452.86 118.11,452.86 118.80,452.86 119.48,451.58 120.17,449.02 120.86,449.02 121.55,447.74 122.23,446.47 122.92,446.47 123.61,443.91 124.30,443.91 124.98,441.35 125.67,441.35 126.36,440.08 127.04,440.08 127.73,440.08 128.42,437.52 129.11,437.52 129.79,436.24 130.48,434.96 131.17,434.96 131.86,432.41 132.54,431.13 133.23,429.85 133.92,429.85 134.60,429.85 135.29,427.29 135.98,427.29 136.67,426.02 137.35,426.02 138.04,426.02 138.73,420.90 139.42,420.90 140.10,419.62 140.79,419.62 141.48,417.07 142.16,417.07 142.85,417.07 143.54,413.23 144.23,413.23 144.91,413.23 145.60,413.23 146.29,411.95 146.98,411.95 147.66,411.95 148.35,410.68 149.04,410.68 149.73,410.68 150.41,408.12 151.10,408.12 151.79,408.12 152.47,406.84 153.16,406.84 153.85,405.56 154.54,405.56 155.22,404.29 155.91,404.29 156.60,403.01 157.29,403.01 157.97,401.73 158.66,400.45 159.35,400.45 160.03,399.17 160.72,399.17 161.41,397.89 162.10,397.89 162.78,396.62 163.47,396.62 164.16,396.62 164.85,395.34 165.53,395.34 166.22,395.34 166.91,394.06 167.59,394.06 168.28,391.50 168.97,391.50 169.66,391.50 170.34,391.50 171.03,388.95 171.72,388.95 172.41,388.95 173.09,387.67 173.78,386.39 174.47,386.39 175.15,386.39 175.84,383.83 176.53,383.83 177.22,383.83 177.90,383.83 178.59,383.83 179.28,382.56 179.97,382.56 180.65,382.56 181.34,380.00 182.03,380.00 182.71,378.72 183.40,376.17 184.09,376.17 184.78,374.89 185.46,373.61 186.15,373.61 186.84,373.61 187.53,372.33 188.21,371.05 188.90,367.22 189.59,367.22 190.27,367.22 190.96,367.22 191.65,365.94 192.34,364.66 193.02,363.38 193.71,362.11 194.40,362.11 195.09,360.83 195.77,360.83 196.46,360.83 197.15,360.83 197.84,360.83 198.52,356.99 199.21,356.99 199.90,356.99 200.58,355.71 201.27,355.71 201.96,355.71 202.65,354.44 203.33,354.44 204.02,354.44 204.71,353.16 205.40,353.16 206.08,351.88 206.77,349.32 207.46,349.32 208.14,349.32 208.83,349.32 209.52,348.05 210.21,346.77 210.89,346.77 211.58,345.49 212.27,345.49 212.96,345.49 213.64,344.21 214.33,344.21 215.02,344.21 215.70,344.21 216.39,344.21 217.08,344.21 217.77,344.21 218.45,344.21 219.14,344.21 219.83,344.21 220.52,344.21 221.20,342.93 221.89,340.38 222.58,340.38 223.26,340.38 223.95,340.38 224.64,340.38 225.33,340.38 226.01,340.38 226.70,340.38 227.39,339.10 228.08,339.10 228.76,339.10 229.45,339.10 230.14,339.10 230.82,339.10 231.51,337.82 232.20,337.82 232.89,336.54 233.57,336.54 234.26,333.98 234.95,333.98 235.64,333.98 236.32,331.43 237.01,331.43 237.70,331.43 238.38,331.43 239.07,330.15 239.76,330.15 240.45,330.15 241.13,330.15 241.82,326.32 242.51,325.04 243.20,325.04 243.88,325.04 244.57,325.04 245.26,323.76 245.95,323.76 246.63,321.20 247.32,321.20 248.01,321.20 248.69,319.92 249.38,319.92 250.07,319.92 250.76,319.92 251.44,319.92 252.13,319.92 252.82,319.92 253.51,319.92 254.19,319.92 254.88,319.92 255.57,319.92 256.25,318.65 256.94,318.65 257.63,318.65 258.32,318.65 259.00,318.65 259.69,318.65 260.38,317.37 261.07,317.37 261.75,317.37 262.44,317.37 263.13,316.09 263.81,313.53 264.50,313.53 265.19,312.26 265.88,312.26 266.56,312.26 267.25,312.26 267.94,312.26 268.63,312.26 269.31,312.26 270.00,312.26 270.69,312.26 271.37,309.70 272.06,309.70 272.75,309.70 273.44,309.70 274.12,309.70 274.81,309.70 275.50,309.70 276.19,309.70 276.87,309.70 277.56,309.70 278.25,309.70 278.93,308.42 279.62,308.42 280.31,308.42 281.00,308.42 281.68,308.42 282.37,308.42 283.06,308.42 283.75,305.86 284.43,305.86 285.12,304.59 285.81,304.59 286.49,304.59 287.18,303.31 287.87,303.31 288.56,303.31 289.24,303.31 289.93,303.31 290.62,303.31 291.31,303.31 291.99,303.31 292.68,302.03 293.37,300.75 294.05,299.47 294.74,298.20 295.43,298.20 296.12,296.92 296.80,296.92 297.49,296.92 298.18,296.92 298.87,295.64 299.55,295.64 300.24,295.64 300.93,294.36 301.62,294.36 302.30,294.36 302.99,294.36 303.68,294.36 304.36,294.36 305.05,294.36 305.74,294.36 306.43,293.08 307.11,289.25 307.80,289.25 308.49,289.25 309.18,289.25 309.86,287.97 310.55,286.69 311.24,285.41 311.92,284.14 312.61,284.14 313.30,284.14 313.99,284.14 314.67,284.14 315.36,284.14 316.05,284.14 316.74,284.14 317.42,284.14 318.11,282.86 318.80,282.86 319.48,282.86 320.17,282.86 320.86,282.86 321.55,280.30 322.23,279.02 322.92,279.02 323.61,277.74 324.30,277.74 324.98,277.74 325.67,277.74 326.36,277.74 327.04,276.47 327.73,276.47 328.42,275.19 329.11,275.19 329.79,275.19 330.48,275.19 331.17,275.19 331.86,275.19 332.54,275.19 333.23,275.19 333.92,275.19 334.60,275.19 335.29,272.63 335.98,271.35 336.67,270.08 337.35,270.08 338.04,268.80 338.73,268.80 339.42,267.52 340.10,267.52 340.79,266.24 341.48,266.24 342.16,266.24 342.85,266.24 343.54,266.24 344.23,266.24 344.91,266.24 345.60,266.24 346.29,266.24 346.98,263.68 347.66,263.68 348.35,263.68 349.04,262.41 349.73,262.41 350.41,262.41 351.10,262.41 351.79,261.13 352.47,261.13 353.16,261.13 353.85,259.85 354.54,258.57 355.22,258.57 355.91,258.57 356.60,258.57 357.29,258.57 357.97,258.57 358.66,258.57 359.35,258.57 360.03,258.57 360.72,258.57 361.41,258.57 362.10,258.57 362.78,257.29 363.47,257.29 364.16,257.29 364.85,256.02 365.53,256.02 366.22,254.74 366.91,254.74 367.59,254.74 368.28,254.74 368.97,254.74 369.66,253.46 370.34,253.46 371.03,253.46 371.72,253.46 372.41,253.46 373.09,253.46 373.78,253.46 374.47,253.46 375.15,253.46 375.84,253.46 376.53,253.46 377.22,253.46 377.90,252.18 378.59,252.18 379.28,250.90 379.97,250.90 380.65,250.90 381.34,250.90 382.03,250.90 382.71,250.90 383.40,249.62 384.09,249.62 384.78,249.62 385.46,249.62 386.15,249.62 386.84,249.62 387.53,249.62 388.21,249.62 388.90,248.35 389.59,248.35 390.27,247.07 390.96,247.07 391.65,247.07 392.34,247.07 393.02,247.07 393.71,247.07 394.40,247.07 395.09,247.07 395.77,247.07 396.46,247.07 397.15,247.07 397.84,245.79 398.52,245.79 399.21,244.51 399.90,244.51 400.58,244.51 401.27,243.23 401.96,243.23 402.65,243.23 403.33,243.23 404.02,243.23 404.71,243.23 405.40,243.23 406.08,243.23 406.77,243.23 407.46,243.23 408.14,240.68 408.83,240.68 409.52,240.68 410.21,240.68 410.89,240.68 411.58,240.68 412.27,240.68 412.96,240.68 413.64,240.68 414.33,238.12 415.02,238.12 415.70,238.12 416.39,238.12 417.08,236.84 417.77,236.84 418.45,236.84 419.14,235.56 419.83,234.29 420.52,234.29 421.20,234.29 421.89,231.73 422.58,231.73 423.26,231.73 423.95,231.73 424.64,231.73 425.33,230.45 426.01,229.17 426.70,229.17 427.39,227.89 428.08,227.89 428.76,227.89 429.45,226.62 430.14,226.62 430.82,226.62 431.51,226.62 432.20,226.62 432.89,225.34 433.57,225.34 434.26,225.34 434.95,225.34 435.64,225.34 436.32,225.34 437.01,225.34 437.70,225.34 438.38,225.34 439.07,225.34 439.76,225.34 440.45,225.34 441.13,225.34 441.82,225.34 442.51,224.06 443.20,224.06 443.88,224.06 444.57,224.06 445.26,224.06 445.95,224.06 446.63,221.50 447.32,221.50 448.01,221.50 448.69,221.50 449.38,221.50 450.07,220.23 450.76,220.23 451.44,218.95 452.13,216.39 452.82,216.39 453.51,216.39 454.19,215.11 454.88,215.11 455.57,215.11 456.25,212.56 456.94,212.56 457.63,212.56 458.32,212.56 459.00,211.28 459.69,211.28 460.38,210.00 461.07,208.72 461.75,208.72 462.44,208.72 463.13,208.72 463.81,208.72 464.50,208.72 465.19,208.72 465.88,207.44 466.56,207.44 467.25,207.44 467.94,207.44 468.63,207.44 469.31,207.44 470.00,207.44 470.69,206.17 471.37,206.17 472.06,206.17 472.75,206.17 473.44,206.17 474.12,204.89 474.81,204.89 475.50,203.61 476.19,202.33 476.87,202.33 477.56,202.33 478.25,202.33 478.93,202.33 479.62,202.33 480.31,202.33 481.00,202.33 481.68,202.33 482.37,202.33 483.06,202.33 483.75,202.33 484.43,202.33 485.12,202.33 485.81,202.33 486.49,201.05 487.18,201.05 487.87,201.05 488.56,199.77 489.24,199.77 489.93,199.77 490.62,199.77 491.31,199.77 491.99,199.77 492.68,198.50 493.37,198.50 494.05,198.50 494.74,198.50 495.43,198.50 496.12,198.50 496.80,198.50 497.49,198.50 498.18,198.50 498.87,197.22 499.55,195.94 500.24,195.94 500.93,195.94 501.62,195.94 502.30,195.94 502.99,194.66 503.68,194.66 504.36,194.66 505.05,193.38 505.74,193.38 506.43,192.11 507.11,190.83 507.80,190.83 508.49,189.55 509.18,188.27 509.86,186.99 510.55,186.99 511.24,186.99 511.92,183.16 512.61,181.88 513.30,180.60 513.99,180.60 514.67,180.60 515.36,180.60 516.05,180.60 516.74,180.60 517.42,180.60 518.11,180.60 518.80,180.60 519.48,180.60 520.17,180.60 520.86,180.60 521.55,180.60 522.23,180.60 522.92,180.60 523.61,180.60 524.30,180.60 524.98,180.60 525.67,180.60 526.36,180.60 527.04,180.60 527.73,180.60 528.42,180.60 529.11,180.60 529.79,179.32 530.48,179.32 531.17,178.05 531.86,178.05 532.54,178.05 533.23,178.05 533.92,176.77 534.60,176.77 535.29,176.77 535.98,176.77 536.67,176.77 537.35,176.77 538.04,176.77 538.73,176.77 539.42,176.77 540.10,176.77 540.79,176.77 541.48,176.77 542.16,175.49 542.85,174.21 543.54,174.21 544.23,172.93 544.91,171.65 545.60,171.65 546.29,171.65 546.98,171.65 547.66,171.65 548.35,171.65 549.04,170.38 549.73,169.10 550.41,167.82 551.10,167.82 551.79,167.82 552.47,166.54 553.16,166.54 553.85,166.54 554.54,166.54 555.22,166.54 555.91,166.54 556.60,166.54 557.29,165.26 557.97,165.26 558.66,165.26 559.35,165.26 560.03,162.71 560.72,162.71 561.41,162.71 562.10,162.71 562.78,162.71 563.47,162.71 564.16,162.71 564.85,162.71 565.53,162.71 566.22,162.71 566.91,162.71 567.59,162.71 568.28,162.71 568.97,162.71 569.66,162.71 570.34,161.43 571.03,161.43 571.72,161.43 572.41,161.43 573.09,161.43 573.78,161.43 574.47,161.43 575.15,161.43 575.84,161.43 576.53,158.87 577.22,158.87 577.90,157.59 578.59,157.59 579.28,157.59 579.97,157.59 580.65,157.59 581.34,156.32 582.03,156.32 582.71,156.32 583.40,156.32 584.09,156.32 584.78,156.32 585.46,156.32 586.15,156.32 586.84,156.32 587.53,156.32 588.21,156.32 588.90,156.32 589.59,155.04 590.27,155.04 590.96,155.04 591.65,155.04 592.34,153.76 593.02,153.76 593.71,153.76 594.40,153.76 595.09,152.48 595.77,152.48 596.46,152.48 597.15,152.48 597.84,151.20 598.52,151.20 599.21,151.20 599.90,151.20 600.58,151.20 601.27,151.20 601.96,149.92 602.65,149.92 603.33,149.92 604.02,149.92 604.71,149.92 605.40,148.65 606.08,148.65 606.77,148.65 607.46,148.65 608.14,148.65 608.83,148.65 609.52,148.65 610.21,148.65 610.89,148.65 611.58,148.65 612.27,148.65 612.96,147.37 613.64,144.81 614.33,144.81 615.02,144.81 615.70,144.81 616.39,144.81 617.08,144.81 617.77,144.81 618.45,144.81 619.14,144.81 619.83,144.81 620.52,144.81 621.20,143.53 621.89,143.53 622.58,143.53 623.26,142.26 623.95,142.26 624.64,142.26 625.33,142.26 626.01,142.26 626.70,142.26 627.39,142.26 628.08,140.98 628.76,140.98 629.45,139.70 630.14,139.70 630.82,139.70 631.51,139.70 632.20,139.70 632.89,139.70 633.57,139.70 634.26,139.70 634.95,139.70 635.64,139.70 636.32,139.70 637.01,139.70 637.70,137.14 638.38,135.86 639.07,135.86 639.76,134.59 640.45,133.31 641.13,132.03 641.82,132.03 642.51,132.03 643.20,132.03 643.88,132.03 644.57,129.47 645.26,129.47 645.95,129.47 646.63,129.47 647.32,129.47 648.01,129.47 648.69,129.47 649.38,128.20 650.07,128.20 650.76,128.20 651.44,128.20 652.13,128.20 652.82,128.20 653.51,128.20 654.19,128.20 654.88,128.20 655.57,128.20 656.25,128.20 656.94,128.20 657.63,128.20 658.32,128.20 659.00,126.92 659.69,126.92 660.38,126.92 661.07,125.64 661.75,125.64 662.44,124.36 663.13,124.36 663.81,124.36 664.50,124.36 665.19,124.36 665.88,123.08 666.56,123.08 667.25,123.08 667.94,123.08 668.63,120.53 669.31,119.25 670.00,119.25 670.69,119.25 671.37,117.97 672.06,117.97 672.75,117.97 673.44,117.97 674.12,117.97 674.81,116.69 675.50,116.69 676.19,115.41 676.87,115.41 677.56,114.14 678.25,112.86 678.93,112.86 679.62,111.58 680.31,111.58 681.00,111.58 681.68,111.58 682.37,111.58 683.06,111.58 683.75,110.30 684.43,110.30 685.12,110.30 685.81,110.30 686.49,110.30 687.18,110.30 687.87,110.30 688.56,110.30 689.24,110.30 689.93,110.30 690.62,110.30 691.31,110.30 691.99,110.30 692.68,110.30 693.37,110.30 694.05,109.02 694.74,109.02 695.43,109.02 696.12,109.02 696.80,109.02 697.49,109.02 698.18,109.02 698.87,109.02 699.55,109.02 700.24,109.02 700.93,109.02 701.62,109.02 702.30,109.02 702.99,109.02 703.68,109.02 704.36,109.02 705.05,109.02 705.74,107.74 706.43,107.74 707.11,106.47 707.80,106.47 708.49,105.19 709.18,105.19 709.86,105.19 710.55,103.91 711.24,103.91 711.92,103.91 712.61,103.91 713.30,103.91 713.99,103.91 714.67,103.91 715.36,102.63 716.05,102.63 716.74,102.63 717.42,102.63 718.11,102.63 718.80,102.63 719.48,102.63 720.17,102.63 720.86,102.63 721.55,102.63 722.23,102.63 722.92,101.35 723.61,101.35 724.30,101.35 724.98,101.35 725.67,101.35 726.36,98.80 727.04,98.80 727.73,98.80 728.42,98.80 729.11,98.80 729.79,98.80 730.48,98.80 731.17,98.80 731.86,98.80 732.54,98.80 733.23,97.52 733.92,96.24 734.60,96.24 735.29,96.24 735.98,96.24 736.67,96.24 737.35,96.24 738.04,96.24 738.73,96.24 739.42,96.24 740.10,96.24 740.79,96.24 741.48,94.96 742.16,93.68 742.85,93.68 743.54,93.68 744.23,93.68 744.91,92.41 745.60,92.41 746.29,91.13 746.98,89.85 747.66,88.57 748.35,88.57 749.04,87.29 749.73,87.29 750.41,87.29 751.10,87.29 751.79,86.02 752.47,86.02 753.16,86.02 753.85,86.02 754.54,86.02 755.22,86.02 755.91,86.02 756.60,86.02 757.29,86.02 757.97,86.02 758.66,86.02 759.35,86.02 760.03,86.02 760.72,86.02 761.41,86.02 762.10,86.02 762.78,86.02 763.47,86.02 764.16,86.02 764.85,86.02 765.53,86.02 766.22,84.74 766.91,82.18 767.59,82.18 768.28,82.18 768.97,82.18 769.66,82.18 770.34,82.18 771.03,82.18 771.72,82.18 772.41,82.18 773.09,82.18 773.78,82.18 774.47,82.18 775.15,82.18 775.84,82.18 776.53,82.18 777.22,82.18 777.90,82.18 778.59,82.18 779.28,82.18 779.97,82.18 780.65,82.18 781.34,82.18 782.03,82.18 782.71,82.18 783.40,82.18 784.09,82.18 784.78,82.18 785.46,82.18 786.15,80.90 786.84,80.90 787.53,80.90 788.21,80.90 788.90,80.90 789.59,80.90 790.27,80.90 790.96,80.90 791.65,80.90 792.34,80.90 793.02,80.90 793.71,80.90 794.40,80.90 795.09,80.90 795.77,80.90 796.46,79.62 797.15,79.62 797.84,79.62 798.52,78.35 799.21,78.35 799.90,78.35 800.58,78.35 801.27,78.35 801.96,78.35 802.65,78.35 803.33,78.35 804.02,78.35 804.71,78.35 805.40,78.35 806.08,78.35 806.77,78.35 807.46,78.35 808.14,78.35 808.83,78.35 809.52,78.35 810.21,75.79 810.89,75.79 811.58,75.79 812.27,75.79 812.96,75.79 813.64,75.79 814.33,75.79 815.02,75.79 815.70,75.79 816.39,75.79 817.08,75.79 817.77,75.79 818.45,75.79 819.14,75.79 819.83,75.79 820.52,75.79 821.20,75.79 821.89,75.79 822.58,75.79 823.26,75.79 823.95,75.79 824.64,75.79 825.33,75.79 826.01,75.79 826.70,75.79 827.39,75.79 828.08,75.79 828.76,74.51 829.45,74.51 830.14,74.51 830.82,74.51 831.51,74.51 832.20,74.51 832.89,74.51 833.57,74.51 834.26,74.51 834.95,73.23 835.64,71.95 836.32,71.95 837.01,71.95 837.70,71.95 838.38,71.95 839.07,71.95 839.76,71.95 840.45,71.95 841.13,71.95 841.82,71.95 842.51,71.95 843.20,71.95 843.88,71.95 844.57,71.95 845.26,71.95 845.95,71.95 846.63,71.95 847.32,71.95 848.01,71.95 848.69,71.95 849.38,71.95 850.07,71.95 850.76,71.95 851.44,71.95 852.13,71.95 852.82,71.95 853.51,71.95 854.19,71.95 854.88,71.95 855.57,70.68 856.25,70.68 856.94,70.68 857.63,70.68 858.32,69.40 859.00,68.12 859.69,68.12 860.38,68.12 861.07,68.12 861.75,68.12 862.44,66.84 863.13,66.84 863.81,65.56 864.50,65.56 865.19,64.29 865.88,64.29 866.56,64.29 867.25,64.29 867.94,64.29 868.63,64.29 869.31,63.01 870.00,61.73" fill="none" stroke="#2563eb" stroke-width="2"/>
<line x1="895" y1="60" x2="913" y2="60" stroke="#2563eb" stroke-width="3"/>
<text x="919" y="64" font-family="Arial" font-size="12">case1_name_only</text>
<polyline points="70.00,548.72 70.69,543.61 71.37,542.33 72.06,539.77 72.75,537.22 73.44,535.94 74.12,533.38 74.81,526.99 75.50,525.71 76.19,524.44 76.87,523.16 77.56,518.05 78.25,518.05 78.93,515.49 79.62,515.49 80.31,514.21 81.00,511.65 81.68,510.38 82.37,510.38 83.06,509.10 83.75,506.54 84.43,505.26 85.12,501.43 85.81,501.43 86.49,501.43 87.18,498.87 87.87,496.32 88.56,495.04 89.24,493.76 89.93,492.48 90.62,491.20 91.31,489.92 91.99,489.92 92.68,486.09 93.37,483.53 94.05,483.53 94.74,482.26 95.43,480.98 96.12,480.98 96.80,479.70 97.49,478.42 98.18,478.42 98.87,477.14 99.55,477.14 100.24,477.14 100.93,473.31 101.62,473.31 102.30,473.31 102.99,470.75 103.68,469.47 104.36,468.20 105.05,468.20 105.74,466.92 106.43,466.92 107.11,466.92 107.80,466.92 108.49,465.64 109.18,464.36 109.86,461.80 110.55,460.53 111.24,457.97 111.92,457.97 112.61,457.97 113.30,456.69 113.99,455.41 114.67,454.14 115.36,451.58 116.05,451.58 116.74,451.58 117.42,449.02 118.11,449.02 118.80,447.74 119.48,447.74 120.17,446.47 120.86,446.47 121.55,445.19 122.23,443.91 122.92,443.91 123.61,441.35 124.30,441.35 124.98,438.80 125.67,438.80 126.36,437.52 127.04,437.52 127.73,437.52 128.42,433.68 129.11,433.68 129.79,432.41 130.48,431.13 131.17,431.13 131.86,426.02 132.54,424.74 133.23,424.74 133.92,423.46 134.60,423.46 135.29,420.90 135.98,420.90 136.67,420.90 137.35,420.90 138.04,420.90 138.73,415.79 139.42,415.79 140.10,413.23 140.79,413.23 141.48,413.23 142.16,411.95 142.85,411.95 143.54,409.40 144.23,408.12 144.91,408.12 145.60,408.12 146.29,406.84 146.98,405.56 147.66,405.56 148.35,404.29 149.04,404.29 149.73,404.29 150.41,401.73 151.10,401.73 151.79,401.73 152.47,400.45 153.16,400.45 153.85,399.17 154.54,399.17 155.22,397.89 155.91,397.89 156.60,397.89 157.29,397.89 157.97,395.34 158.66,392.78 159.35,392.78 160.03,391.50 160.72,391.50 161.41,390.23 162.10,388.95 162.78,388.95 163.47,387.67 164.16,387.67 164.85,387.67 165.53,387.67 166.22,387.67 166.91,387.67 167.59,387.67 168.28,385.11 168.97,385.11 169.66,385.11 170.34,383.83 171.03,382.56 171.72,382.56 172.41,381.28 173.09,380.00 173.78,380.00 174.47,378.72 175.15,378.72 175.84,373.61 176.53,373.61 177.22,373.61 177.90,373.61 178.59,373.61 179.28,372.33 179.97,372.33 180.65,372.33 181.34,368.50 182.03,368.50 182.71,368.50 183.40,367.22 184.09,367.22 184.78,367.22 185.46,365.94 186.15,365.94 186.84,365.94 187.53,365.94 188.21,365.94 188.90,364.66 189.59,363.38 190.27,363.38 190.96,363.38 191.65,363.38 192.34,363.38 193.02,362.11 193.71,360.83 194.40,360.83 195.09,359.55 195.77,359.55 196.46,359.55 197.15,359.55 197.84,359.55 198.52,356.99 199.21,354.44 199.90,354.44 200.58,354.44 201.27,354.44 201.96,354.44 202.65,354.44 203.33,354.44 204.02,354.44 204.71,354.44 205.40,354.44 206.08,354.44 206.77,351.88 207.46,351.88 208.14,351.88 208.83,351.88 209.52,350.60 210.21,348.05 210.89,348.05 211.58,346.77 212.27,346.77 212.96,346.77 213.64,346.77 214.33,345.49 215.02,345.49 215.70,345.49 216.39,345.49 217.08,345.49 217.77,345.49 218.45,345.49 219.14,345.49 219.83,345.49 220.52,345.49 221.20,345.49 221.89,342.93 222.58,342.93 223.26,342.93 223.95,342.93 224.64,342.93 225.33,342.93 226.01,342.93 226.70,342.93 227.39,341.65 228.08,341.65 228.76,341.65 229.45,341.65 230.14,341.65 230.82,341.65 231.51,341.65 232.20,341.65 232.89,340.38 233.57,340.38 234.26,339.10 234.95,339.10 235.64,339.10 236.32,336.54 237.01,336.54 237.70,336.54 238.38,336.54 239.07,335.26 239.76,335.26 240.45,333.98 241.13,333.98 241.82,333.98 242.51,332.71 243.20,332.71 243.88,331.43 244.57,330.15 245.26,330.15 245.95,330.15 246.63,327.59 247.32,327.59 248.01,327.59 248.69,326.32 249.38,326.32 250.07,326.32 250.76,326.32 251.44,326.32 252.13,326.32 252.82,326.32 253.51,325.04 254.19,325.04 254.88,323.76 255.57,323.76 256.25,323.76 256.94,323.76 257.63,323.76 258.32,323.76 259.00,323.76 259.69,323.76 260.38,322.48 261.07,322.48 261.75,322.48 262.44,322.48 263.13,321.20 263.81,319.92 264.50,319.92 265.19,319.92 265.88,319.92 266.56,319.92 267.25,319.92 267.94,318.65 268.63,318.65 269.31,317.37 270.00,317.37 270.69,317.37 271.37,314.81 272.06,314.81 272.75,313.53 273.44,313.53 274.12,313.53 274.81,313.53 275.50,313.53 276.19,313.53 276.87,313.53 277.56,313.53 278.25,313.53 278.93,313.53 279.62,313.53 280.31,313.53 281.00,312.26 281.68,312.26 282.37,312.26 283.06,312.26 283.75,310.98 284.43,310.98 285.12,309.70 285.81,309.70 286.49,309.70 287.18,308.42 287.87,308.42 288.56,308.42 289.24,307.14 289.93,307.14 290.62,307.14 291.31,307.14 291.99,307.14 292.68,307.14 293.37,305.86 294.05,304.59 294.74,303.31 295.43,303.31 296.12,303.31 296.80,303.31 297.49,303.31 298.18,302.03 298.87,302.03 299.55,302.03 300.24,302.03 300.93,302.03 301.62,300.75 302.30,300.75 302.99,300.75 303.68,300.75 304.36,300.75 305.05,300.75 305.74,300.75 306.43,300.75 307.11,298.20 307.80,298.20 308.49,296.92 309.18,296.92 309.86,295.64 310.55,294.36 311.24,293.08 311.92,291.80 312.61,291.80 313.30,290.53 313.99,290.53 314.67,289.25 315.36,287.97 316.05,287.97 316.74,287.97 317.42,287.97 318.11,287.97 318.80,287.97 319.48,287.97 320.17,287.97 320.86,287.97 321.55,285.41 322.23,284.14 322.92,284.14 323.61,282.86 324.30,281.58 324.98,281.58 325.67,281.58 326.36,281.58 327.04,281.58 327.73,281.58 328.42,280.30 329.11,280.30 329.79,280.30 330.48,280.30 331.17,280.30 331.86,279.02 332.54,279.02 333.23,279.02 333.92,279.02 334.60,279.02 335.29,279.02 335.98,279.02 336.67,279.02 337.35,279.02 338.04,277.74 338.73,277.74 339.42,275.19 340.10,275.19 340.79,273.91 341.48,273.91 342.16,272.63 342.85,272.63 343.54,272.63 344.23,272.63 344.91,272.63 345.60,272.63 346.29,272.63 346.98,271.35 347.66,271.35 348.35,271.35 349.04,270.08 349.73,270.08 350.41,270.08 351.10,270.08 351.79,268.80 352.47,268.80 353.16,268.80 353.85,266.24 354.54,266.24 355.22,266.24 355.91,266.24 356.60,266.24 357.29,266.24 357.97,264.96 358.66,264.96 359.35,264.96 360.03,264.96 360.72,264.96 361.41,263.68 362.10,263.68 362.78,262.41 363.47,262.41 364.16,262.41 364.85,261.13 365.53,259.85 366.22,259.85 366.91,259.85 367.59,259.85 368.28,259.85 368.97,259.85 369.66,259.85 370.34,258.57 371.03,258.57 371.72,258.57 372.41,258.57 373.09,258.57 373.78,258.57 374.47,258.57 375.15,258.57 375.84,258.57 376.53,258.57 377.22,258.57 377.90,257.29 378.59,257.29 379.28,256.02 379.97,254.74 380.65,254.74 381.34,254.74 382.03,254.74 382.71,254.74 383.40,254.74 384.09,254.74 384.78,254.74 385.46,254.74 386.15,254.74 386.84,253.46 387.53,253.46 388.21,253.46 388.90,253.46 389.59,253.46 390.27,250.90 390.96,248.35 391.65,247.07 392.34,247.07 393.02,247.07 393.71,247.07 394.40,245.79 395.09,244.51 395.77,244.51 396.46,244.51 397.15,243.23 397.84,241.95 398.52,241.95 399.21,239.40 399.90,239.40 400.58,239.40 401.27,238.12 401.96,238.12 402.65,238.12 403.33,238.12 404.02,238.12 404.71,238.12 405.40,238.12 406.08,238.12 406.77,238.12 407.46,238.12 408.14,238.12 408.83,238.12 409.52,238.12 410.21,238.12 410.89,236.84 411.58,236.84 412.27,236.84 412.96,236.84 413.64,236.84 414.33,233.01 415.02,233.01 415.70,233.01 416.39,233.01 417.08,233.01 417.77,233.01 418.45,233.01 419.14,231.73 419.83,231.73 420.52,231.73 421.20,231.73 421.89,230.45 422.58,230.45 423.26,229.17 423.95,229.17 424.64,229.17 425.33,227.89 426.01,226.62 426.70,226.62 427.39,226.62 428.08,226.62 428.76,226.62 429.45,226.62 430.14,225.34 430.82,225.34 431.51,225.34 432.20,225.34 432.89,224.06 433.57,222.78 434.26,222.78 434.95,221.50 435.64,221.50 436.32,221.50 437.01,221.50 437.70,221.50 438.38,221.50 439.07,221.50 439.76,221.50 440.45,221.50 441.13,221.50 441.82,221.50 442.51,221.50 443.20,221.50 443.88,220.23 444.57,220.23 445.26,220.23 445.95,220.23 446.63,220.23 447.32,220.23 448.01,220.23 448.69,220.23 449.38,220.23 450.07,218.95 450.76,218.95 451.44,218.95 452.13,217.67 452.82,216.39 453.51,216.39 454.19,215.11 454.88,215.11 455.57,215.11 456.25,213.83 456.94,213.83 457.63,213.83 458.32,213.83 459.00,213.83 459.69,213.83 460.38,211.28 461.07,210.00 461.75,210.00 462.44,210.00 463.13,210.00 463.81,210.00 464.50,208.72 465.19,208.72 465.88,207.44 466.56,207.44 467.25,207.44 467.94,207.44 468.63,206.17 469.31,206.17 470.00,206.17 470.69,204.89 471.37,204.89 472.06,203.61 472.75,203.61 473.44,203.61 474.12,201.05 474.81,201.05 475.50,201.05 476.19,201.05 476.87,201.05 477.56,201.05 478.25,201.05 478.93,198.50 479.62,198.50 480.31,198.50 481.00,198.50 481.68,198.50 482.37,198.50 483.06,198.50 483.75,198.50 484.43,197.22 485.12,197.22 485.81,197.22 486.49,195.94 487.18,195.94 487.87,195.94 488.56,194.66 489.24,193.38 489.93,193.38 490.62,193.38 491.31,193.38 491.99,193.38 492.68,193.38 493.37,192.11 494.05,192.11 494.74,192.11 495.43,192.11 496.12,192.11 496.80,192.11 497.49,192.11 498.18,192.11 498.87,189.55 499.55,189.55 500.24,189.55 500.93,188.27 501.62,188.27 502.30,188.27 502.99,188.27 503.68,188.27 504.36,188.27 505.05,186.99 505.74,186.99 506.43,186.99 507.11,185.71 507.80,185.71 508.49,184.44 509.18,184.44 509.86,184.44 510.55,184.44 511.24,184.44 511.92,181.88 512.61,180.60 513.30,180.60 513.99,180.60 514.67,180.60 515.36,180.60 516.05,180.60 516.74,180.60 517.42,180.60 518.11,180.60 518.80,180.60 519.48,179.32 520.17,179.32 520.86,179.32 521.55,179.32 522.23,179.32 522.92,178.05 523.61,178.05 524.30,178.05 524.98,178.05 525.67,178.05 526.36,178.05 527.04,178.05 527.73,178.05 528.42,178.05 529.11,178.05 529.79,178.05 530.48,178.05 531.17,176.77 531.86,176.77 532.54,176.77 533.23,175.49 533.92,175.49 534.60,175.49 535.29,175.49 535.98,175.49 536.67,175.49 537.35,175.49 538.04,175.49 538.73,175.49 539.42,175.49 540.10,175.49 540.79,175.49 541.48,175.49 542.16,175.49 542.85,175.49 543.54,174.21 544.23,172.93 544.91,171.65 545.60,171.65 546.29,170.38 546.98,170.38 547.66,170.38 548.35,170.38 549.04,169.10 549.73,166.54 550.41,165.26 551.10,165.26 551.79,165.26 552.47,165.26 553.16,162.71 553.85,162.71 554.54,162.71 555.22,162.71 555.91,162.71 556.60,162.71 557.29,161.43 557.97,161.43 558.66,161.43 559.35,161.43 560.03,160.15 560.72,158.87 561.41,158.87 562.10,158.87 562.78,158.87 563.47,158.87 564.16,158.87 564.85,158.87 565.53,158.87 566.22,158.87 566.91,158.87 567.59,158.87 568.28,158.87 568.97,158.87 569.66,158.87 570.34,158.87 571.03,158.87 571.72,158.87 572.41,158.87 573.09,158.87 573.78,158.87 574.47,158.87 575.15,158.87 575.84,158.87 576.53,157.59 577.22,157.59 577.90,157.59 578.59,157.59 579.28,157.59 579.97,157.59 580.65,157.59 581.34,157.59 582.03,157.59 582.71,157.59 583.40,157.59 584.09,157.59 584.78,157.59 585.46,157.59 586.15,157.59 586.84,157.59 587.53,157.59 588.21,157.59 588.90,157.59 589.59,157.59 590.27,156.32 590.96,156.32 591.65,156.32 592.34,156.32 593.02,156.32 593.71,156.32 594.40,156.32 595.09,156.32 595.77,156.32 596.46,156.32 597.15,156.32 597.84,155.04 598.52,155.04 599.21,155.04 599.90,155.04 600.58,155.04 601.27,155.04 601.96,153.76 602.65,153.76 603.33,153.76 604.02,153.76 604.71,153.76 605.40,152.48 606.08,152.48 606.77,152.48 607.46,151.20 608.14,151.20 608.83,151.20 609.52,151.20 610.21,151.20 610.89,151.20 611.58,151.20 612.27,149.92 612.96,148.65 613.64,148.65 614.33,148.65 615.02,148.65 615.70,148.65 616.39,148.65 617.08,148.65 617.77,148.65 618.45,148.65 619.14,148.65 619.83,148.65 620.52,148.65 621.20,148.65 621.89,148.65 622.58,148.65 623.26,148.65 623.95,148.65 624.64,148.65 625.33,148.65 626.01,148.65 626.70,147.37 627.39,146.09 628.08,146.09 628.76,146.09 629.45,144.81 630.14,144.81 630.82,144.81 631.51,144.81 632.20,144.81 632.89,144.81 633.57,144.81 634.26,144.81 634.95,144.81 635.64,144.81 636.32,144.81 637.01,144.81 637.70,142.26 638.38,142.26 639.07,142.26 639.76,140.98 640.45,140.98 641.13,140.98 641.82,140.98 642.51,140.98 643.20,140.98 643.88,140.98 644.57,139.70 645.26,139.70 645.95,139.70 646.63,139.70 647.32,139.70 648.01,139.70 648.69,138.42 649.38,137.14 650.07,137.14 650.76,137.14 651.44,137.14 652.13,137.14 652.82,137.14 653.51,135.86 654.19,135.86 654.88,135.86 655.57,135.86 656.25,134.59 656.94,134.59 657.63,134.59 658.32,134.59 659.00,134.59 659.69,134.59 660.38,134.59 661.07,133.31 661.75,133.31 662.44,132.03 663.13,132.03 663.81,132.03 664.50,132.03 665.19,130.75 665.88,130.75 666.56,130.75 667.25,130.75 667.94,130.75 668.63,126.92 669.31,123.08 670.00,123.08 670.69,123.08 671.37,123.08 672.06,123.08 672.75,123.08 673.44,123.08 674.12,123.08 674.81,121.80 675.50,121.80 676.19,120.53 676.87,120.53 677.56,119.25 678.25,117.97 678.93,116.69 679.62,116.69 680.31,116.69 681.00,115.41 681.68,115.41 682.37,115.41 683.06,115.41 683.75,115.41 684.43,115.41 685.12,115.41 685.81,115.41 686.49,114.14 687.18,114.14 687.87,114.14 688.56,114.14 689.24,112.86 689.93,111.58 690.62,111.58 691.31,109.02 691.99,109.02 692.68,109.02 693.37,109.02 694.05,109.02 694.74,109.02 695.43,109.02 696.12,109.02 696.80,107.74 697.49,107.74 698.18,105.19 698.87,105.19 699.55,105.19 700.24,105.19 700.93,105.19 701.62,105.19 702.30,105.19 702.99,105.19 703.68,103.91 704.36,103.91 705.05,102.63 705.74,102.63 706.43,102.63 707.11,102.63 707.80,102.63 708.49,100.08 709.18,98.80 709.86,98.80 710.55,97.52 711.24,97.52 711.92,97.52 712.61,97.52 713.30,97.52 713.99,97.52 714.67,94.96 715.36,93.68 716.05,93.68 716.74,93.68 717.42,93.68 718.11,93.68 718.80,93.68 719.48,93.68 720.17,93.68 720.86,93.68 721.55,92.41 722.23,92.41 722.92,92.41 723.61,92.41 724.30,92.41 724.98,92.41 725.67,92.41 726.36,92.41 727.04,92.41 727.73,92.41 728.42,92.41 729.11,92.41 729.79,92.41 730.48,92.41 731.17,92.41 731.86,92.41 732.54,92.41 733.23,92.41 733.92,92.41 734.60,92.41 735.29,92.41 735.98,92.41 736.67,92.41 737.35,92.41 738.04,92.41 738.73,92.41 739.42,92.41 740.10,92.41 740.79,92.41 741.48,92.41 742.16,91.13 742.85,91.13 743.54,91.13 744.23,91.13 744.91,91.13 745.60,91.13 746.29,91.13 746.98,91.13 747.66,89.85 748.35,89.85 749.04,88.57 749.73,88.57 750.41,88.57 751.10,88.57 751.79,87.29 752.47,87.29 753.16,87.29 753.85,86.02 754.54,86.02 755.22,86.02 755.91,86.02 756.60,86.02 757.29,86.02 757.97,84.74 758.66,84.74 759.35,84.74 760.03,84.74 760.72,83.46 761.41,83.46 762.10,83.46 762.78,83.46 763.47,83.46 764.16,83.46 764.85,83.46 765.53,83.46 766.22,82.18 766.91,82.18 767.59,82.18 768.28,82.18 768.97,82.18 769.66,82.18 770.34,80.90 771.03,80.90 771.72,80.90 772.41,80.90 773.09,80.90 773.78,80.90 774.47,80.90 775.15,79.62 775.84,79.62 776.53,79.62 777.22,79.62 777.90,79.62 778.59,79.62 779.28,79.62 779.97,79.62 780.65,78.35 781.34,75.79 782.03,75.79 782.71,75.79 783.40,75.79 784.09,75.79 784.78,75.79 785.46,75.79 786.15,75.79 786.84,75.79 787.53,71.95 788.21,71.95 788.90,71.95 789.59,71.95 790.27,71.95 790.96,70.68 791.65,70.68 792.34,69.40 793.02,69.40 793.71,69.40 794.40,69.40 795.09,69.40 795.77,69.40 796.46,68.12 797.15,68.12 797.84,68.12 798.52,66.84 799.21,66.84 799.90,66.84 800.58,66.84 801.27,66.84 801.96,66.84 802.65,66.84 803.33,65.56 804.02,65.56 804.71,65.56 805.40,63.01 806.08,63.01 806.77,63.01 807.46,63.01 808.14,63.01 808.83,63.01 809.52,63.01 810.21,60.45 810.89,60.45 811.58,60.45 812.27,60.45 812.96,60.45 813.64,60.45 814.33,60.45 815.02,60.45 815.70,60.45 816.39,60.45 817.08,60.45 817.77,60.45 818.45,60.45 819.14,60.45 819.83,60.45 820.52,60.45 821.20,59.17 821.89,59.17 822.58,59.17 823.26,59.17 823.95,59.17 824.64,59.17 825.33,57.89 826.01,57.89 826.70,57.89 827.39,57.89 828.08,57.89 828.76,57.89 829.45,57.89 830.14,57.89 830.82,57.89 831.51,57.89 832.20,57.89 832.89,57.89 833.57,57.89 834.26,57.89 834.95,57.89 835.64,57.89 836.32,57.89 837.01,57.89 837.70,57.89 838.38,57.89 839.07,57.89 839.76,57.89 840.45,57.89 841.13,57.89 841.82,57.89 842.51,57.89 843.20,57.89 843.88,57.89 844.57,57.89 845.26,57.89 845.95,57.89 846.63,57.89 847.32,57.89 848.01,57.89 848.69,57.89 849.38,57.89 850.07,57.89 850.76,57.89 851.44,57.89 852.13,57.89 852.82,57.89 853.51,57.89 854.19,57.89 854.88,57.89 855.57,57.89 856.25,57.89 856.94,57.89 857.63,57.89 858.32,56.62 859.00,55.34 859.69,55.34 860.38,55.34 861.07,55.34 861.75,55.34 862.44,55.34 863.13,55.34 863.81,55.34 864.50,55.34 865.19,55.34 865.88,55.34 866.56,55.34 867.25,55.34 867.94,55.34 868.63,55.34 869.31,55.34 870.00,55.34" fill="none" stroke="#dc2626" stroke-width="2"/>
<line x1="895" y1="82" x2="913" y2="82" stroke="#dc2626" stroke-width="3"/>
<text x="919" y="86" font-family="Arial" font-size="12">case2_name_general</text>
<polyline points="70.00,548.72 70.69,543.61 71.37,542.33 72.06,538.50 72.75,538.50 73.44,537.22 74.12,534.66 74.81,529.55 75.50,528.27 76.19,525.71 76.87,523.16 77.56,518.05 78.25,518.05 78.93,515.49 79.62,514.21 80.31,511.65 81.00,509.10 81.68,509.10 82.37,509.10 83.06,507.82 83.75,505.26 84.43,505.26 85.12,501.43 85.81,501.43 86.49,500.15 87.18,497.59 87.87,496.32 88.56,495.04 89.24,493.76 89.93,492.48 90.62,489.92 91.31,489.92 91.99,489.92 92.68,484.81 93.37,483.53 94.05,483.53 94.74,482.26 95.43,480.98 96.12,479.70 96.80,477.14 97.49,474.59 98.18,474.59 98.87,473.31 99.55,473.31 100.24,473.31 100.93,470.75 101.62,470.75 102.30,470.75 102.99,466.92 103.68,466.92 104.36,465.64 105.05,465.64 105.74,465.64 106.43,465.64 107.11,465.64 107.80,465.64 108.49,465.64 109.18,464.36 109.86,461.80 110.55,461.80 111.24,459.25 111.92,459.25 112.61,457.97 113.30,457.97 113.99,455.41 114.67,455.41 115.36,452.86 116.05,451.58 116.74,451.58 117.42,449.02 118.11,449.02 118.80,447.74 119.48,446.47 120.17,445.19 120.86,445.19 121.55,443.91 122.23,442.63 122.92,442.63 123.61,440.08 124.30,440.08 124.98,438.80 125.67,438.80 126.36,436.24 127.04,436.24 127.73,436.24 128.42,434.96 129.11,434.96 129.79,433.68 130.48,432.41 131.17,432.41 131.86,427.29 132.54,426.02 133.23,423.46 133.92,422.18 134.60,422.18 135.29,419.62 135.98,419.62 136.67,419.62 137.35,419.62 138.04,419.62 138.73,415.79 139.42,415.79 140.10,413.23 140.79,413.23 141.48,413.23 142.16,411.95 142.85,411.95 143.54,409.40 144.23,409.40 144.91,409.40 145.60,409.40 146.29,406.84 146.98,404.29 147.66,404.29 148.35,404.29 149.04,403.01 149.73,403.01 150.41,400.45 151.10,399.17 151.79,399.17 152.47,397.89 153.16,397.89 153.85,397.89 154.54,397.89 155.22,396.62 155.91,396.62 156.60,396.62 157.29,396.62 157.97,395.34 158.66,392.78 159.35,392.78 160.03,392.78 160.72,392.78 161.41,391.50 162.10,390.23 162.78,390.23 163.47,390.23 164.16,390.23 164.85,390.23 165.53,390.23 166.22,390.23 166.91,390.23 167.59,390.23 168.28,387.67 168.97,387.67 169.66,387.67 170.34,387.67 171.03,386.39 171.72,386.39 172.41,383.83 173.09,382.56 173.78,382.56 174.47,381.28 175.15,381.28 175.84,377.44 176.53,377.44 177.22,376.17 177.90,376.17 178.59,376.17 179.28,374.89 179.97,374.89 180.65,374.89 181.34,371.05 182.03,371.05 182.71,371.05 183.40,368.50 184.09,368.50 184.78,367.22 185.46,365.94 186.15,365.94 186.84,365.94 187.53,364.66 188.21,364.66 188.90,363.38 189.59,362.11 190.27,362.11 190.96,362.11 191.65,362.11 192.34,362.11 193.02,360.83 193.71,359.55 194.40,359.55 195.09,359.55 195.77,359.55 196.46,359.55 197.15,359.55 197.84,359.55 198.52,358.27 199.21,355.71 199.90,355.71 200.58,354.44 201.27,354.44 201.96,353.16 202.65,353.16 203.33,353.16 204.02,353.16 204.71,353.16 205.40,353.16 206.08,353.16 206.77,350.60 207.46,350.60 208.14,350.60 208.83,350.60 209.52,349.32 210.21,346.77 210.89,346.77 211.58,345.49 212.27,345.49 212.96,345.49 213.64,345.49 214.33,344.21 215.02,342.93 215.70,342.93 216.39,342.93 217.08,342.93 217.77,342.93 218.45,341.65 219.14,341.65 219.83,341.65 220.52,341.65 221.20,341.65 221.89,337.82 222.58,337.82 223.26,337.82 223.95,337.82 224.64,337.82 225.33,337.82 226.01,337.82 226.70,337.82 227.39,336.54 228.08,336.54 228.76,336.54 229.45,336.54 230.14,336.54 230.82,336.54 231.51,336.54 232.20,336.54 232.89,331.43 233.57,331.43 234.26,330.15 234.95,330.15 235.64,330.15 236.32,327.59 237.01,327.59 237.70,327.59 238.38,327.59 239.07,326.32 239.76,326.32 240.45,326.32 241.13,326.32 241.82,326.32 242.51,326.32 243.20,326.32 243.88,325.04 244.57,323.76 245.26,323.76 245.95,323.76 246.63,323.76 247.32,323.76 248.01,323.76 248.69,322.48 249.38,321.20 250.07,321.20 250.76,321.20 251.44,321.20 252.13,321.20 252.82,321.20 253.51,319.92 254.19,318.65 254.88,317.37 255.57,317.37 256.25,317.37 256.94,317.37 257.63,317.37 258.32,317.37 259.00,317.37 259.69,317.37 260.38,316.09 261.07,316.09 261.75,316.09 262.44,316.09 263.13,316.09 263.81,313.53 264.50,313.53 265.19,313.53 265.88,313.53 266.56,313.53 267.25,313.53 267.94,313.53 268.63,313.53 269.31,313.53 270.00,313.53 270.69,313.53 271.37,309.70 272.06,309.70 272.75,308.42 273.44,308.42 274.12,308.42 274.81,308.42 275.50,308.42 276.19,308.42 276.87,307.14 277.56,307.14 278.25,307.14 278.93,307.14 279.62,307.14 280.31,307.14 281.00,305.86 281.68,305.86 282.37,305.86 283.06,305.86 283.75,304.59 284.43,304.59 285.12,304.59 285.81,304.59 286.49,304.59 287.18,303.31 287.87,303.31 288.56,303.31 289.24,302.03 289.93,302.03 290.62,302.03 291.31,302.03 291.99,302.03 292.68,302.03 293.37,302.03 294.05,299.47 294.74,298.20 295.43,298.20 296.12,295.64 296.80,295.64 297.49,295.64 298.18,294.36 298.87,294.36 299.55,294.36 300.24,294.36 300.93,294.36 301.62,293.08 302.30,293.08 302.99,293.08 303.68,293.08 304.36,293.08 305.05,293.08 305.74,293.08 306.43,293.08 307.11,291.80 307.80,291.80 308.49,290.53 309.18,290.53 309.86,289.25 310.55,287.97 311.24,286.69 311.92,285.41 312.61,284.14 313.30,284.14 313.99,284.14 314.67,282.86 315.36,282.86 316.05,282.86 316.74,282.86 317.42,282.86 318.11,281.58 318.80,281.58 319.48,281.58 320.17,281.58 320.86,281.58 321.55,279.02 322.23,277.74 322.92,277.74 323.61,277.74 324.30,277.74 324.98,277.74 325.67,277.74 326.36,277.74 327.04,277.74 327.73,276.47 328.42,276.47 329.11,276.47 329.79,276.47 330.48,276.47 331.17,276.47 331.86,276.47 332.54,276.47 333.23,276.47 333.92,276.47 334.60,276.47 335.29,275.19 335.98,275.19 336.67,275.19 337.35,275.19 338.04,273.91 338.73,273.91 339.42,271.35 340.10,271.35 340.79,270.08 341.48,270.08 342.16,268.80 342.85,268.80 343.54,268.80 344.23,267.52 344.91,267.52 345.60,267.52 346.29,267.52 346.98,266.24 347.66,266.24 348.35,266.24 349.04,264.96 349.73,264.96 350.41,264.96 351.10,264.96 351.79,263.68 352.47,263.68 353.16,263.68 353.85,262.41 354.54,262.41 355.22,262.41 355.91,262.41 356.60,261.13 357.29,259.85 357.97,259.85 358.66,259.85 359.35,259.85 360.03,259.85 360.72,259.85 361.41,259.85 362.10,259.85 362.78,258.57 363.47,258.57 364.16,258.57 364.85,257.29 365.53,256.02 366.22,254.74 366.91,254.74 367.59,254.74 368.28,254.74 368.97,254.74 369.66,254.74 370.34,254.74 371.03,254.74 371.72,254.74 372.41,254.74 373.09,254.74 373.78,254.74 374.47,254.74 375.15,254.74 375.84,254.74 376.53,254.74 377.22,254.74 377.90,253.46 378.59,253.46 379.28,253.46 379.97,252.18 380.65,252.18 381.34,252.18 382.03,252.18 382.71,252.18 383.40,250.90 384.09,250.90 384.78,250.90 385.46,249.62 386.15,249.62 386.84,249.62 387.53,249.62 388.21,249.62 388.90,249.62 389.59,249.62 390.27,247.07 390.96,247.07 391.65,245.79 392.34,245.79 393.02,245.79 393.71,245.79 394.40,244.51 395.09,244.51 395.77,244.51 396.46,244.51 397.15,243.23 397.84,241.95 398.52,241.95 399.21,240.68 399.90,240.68 400.58,240.68 401.27,239.40 401.96,239.40 402.65,239.40 403.33,238.12 404.02,238.12 404.71,238.12 405.40,238.12 406.08,238.12 406.77,238.12 407.46,238.12 408.14,238.12 408.83,236.84 409.52,236.84 410.21,236.84 410.89,235.56 411.58,235.56 412.27,234.29 412.96,233.01 413.64,233.01 414.33,229.17 415.02,229.17 415.70,229.17 416.39,229.17 417.08,229.17 417.77,229.17 418.45,227.89 419.14,226.62 419.83,226.62 420.52,226.62 421.20,226.62 421.89,225.34 422.58,225.34 423.26,224.06 423.95,224.06 424.64,224.06 425.33,222.78 426.01,221.50 426.70,221.50 427.39,221.50 428.08,221.50 428.76,221.50 429.45,218.95 430.14,217.67 430.82,217.67 431.51,217.67 432.20,217.67 432.89,216.39 433.57,215.11 434.26,215.11 434.95,215.11 435.64,215.11 436.32,213.83 437.01,213.83 437.70,213.83 438.38,213.83 439.07,212.56 439.76,212.56 440.45,212.56 441.13,212.56 441.82,212.56 442.51,212.56 443.20,212.56 443.88,212.56 444.57,212.56 445.26,212.56 445.95,212.56 446.63,211.28 447.32,211.28 448.01,211.28 448.69,211.28 449.38,211.28 450.07,210.00 450.76,210.00 451.44,208.72 452.13,207.44 452.82,206.17 453.51,206.17 454.19,204.89 454.88,204.89 455.57,204.89 456.25,204.89 456.94,204.89 457.63,204.89 458.32,204.89 459.00,204.89 459.69,204.89 460.38,203.61 461.07,203.61 461.75,203.61 462.44,203.61 463.13,202.33 463.81,202.33 464.50,202.33 465.19,202.33 465.88,201.05 466.56,201.05 467.25,201.05 467.94,201.05 468.63,199.77 469.31,199.77 470.00,199.77 470.69,199.77 471.37,199.77 472.06,199.77 472.75,199.77 473.44,199.77 474.12,198.50 474.81,198.50 475.50,198.50 476.19,198.50 476.87,198.50 477.56,198.50 478.25,198.50 478.93,198.50 479.62,198.50 480.31,198.50 481.00,198.50 481.68,198.50 482.37,198.50 483.06,198.50 483.75,198.50 484.43,197.22 485.12,197.22 485.81,197.22 486.49,195.94 487.18,195.94 487.87,195.94 488.56,194.66 489.24,193.38 489.93,193.38 490.62,193.38 491.31,193.38 491.99,193.38 492.68,190.83 493.37,190.83 494.05,190.83 494.74,190.83 495.43,190.83 496.12,190.83 496.80,190.83 497.49,190.83 498.18,190.83 498.87,188.27 499.55,188.27 500.24,188.27 500.93,186.99 501.62,186.99 502.30,186.99 502.99,186.99 503.68,185.71 504.36,185.71 505.05,184.44 505.74,184.44 506.43,184.44 507.11,183.16 507.80,183.16 508.49,181.88 509.18,180.60 509.86,179.32 510.55,179.32 511.24,179.32 511.92,176.77 512.61,175.49 513.30,175.49 513.99,175.49 514.67,175.49 515.36,175.49 516.05,175.49 516.74,175.49 517.42,174.21 518.11,174.21 518.80,174.21 519.48,174.21 520.17,174.21 520.86,172.93 521.55,172.93 522.23,172.93 522.92,172.93 523.61,172.93 524.30,172.93 524.98,172.93 525.67,172.93 526.36,172.93 527.04,172.93 527.73,172.93 528.42,172.93 529.11,172.93 529.79,172.93 530.48,172.93 531.17,172.93 531.86,172.93 532.54,172.93 533.23,171.65 533.92,171.65 534.60,171.65 535.29,171.65 535.98,171.65 536.67,171.65 537.35,171.65 538.04,171.65 538.73,171.65 539.42,171.65 540.10,171.65 540.79,171.65 541.48,170.38 542.16,169.10 542.85,167.82 543.54,167.82 544.23,166.54 544.91,165.26 545.60,165.26 546.29,163.98 546.98,163.98 547.66,162.71 548.35,162.71 549.04,161.43 549.73,158.87 550.41,157.59 551.10,157.59 551.79,157.59 552.47,156.32 553.16,155.04 553.85,155.04 554.54,155.04 555.22,155.04 555.91,155.04 556.60,155.04 557.29,155.04 557.97,155.04 558.66,153.76 559.35,153.76 560.03,152.48 560.72,151.20 561.41,151.20 562.10,149.92 562.78,149.92 563.47,149.92 564.16,149.92 564.85,149.92 565.53,149.92 566.22,148.65 566.91,148.65 567.59,148.65 568.28,148.65 568.97,148.65 569.66,148.65 570.34,148.65 571.03,148.65 571.72,147.37 572.41,147.37 573.09,147.37 573.78,147.37 574.47,147.37 575.15,147.37 575.84,147.37 576.53,147.37 577.22,147.37 577.90,146.09 578.59,146.09 579.28,146.09 579.97,146.09 580.65,146.09 581.34,146.09 582.03,146.09 582.71,146.09 583.40,146.09 584.09,146.09 584.78,146.09 585.46,146.09 586.15,146.09 586.84,146.09 587.53,146.09 588.21,146.09 588.90,146.09 589.59,146.09 590.27,143.53 590.96,143.53 591.65,143.53 592.34,143.53 593.02,143.53 593.71,143.53 594.40,143.53 595.09,143.53 595.77,142.26 596.46,142.26 597.15,142.26 597.84,142.26 598.52,142.26 599.21,142.26 599.90,142.26 600.58,142.26 601.27,142.26 601.96,140.98 602.65,140.98 603.33,140.98 604.02,140.98 604.71,140.98 605.40,139.70 606.08,139.70 606.77,139.70 607.46,138.42 608.14,138.42 608.83,138.42 609.52,138.42 610.21,138.42 610.89,138.42 611.58,138.42 612.27,137.14 612.96,134.59 613.64,133.31 614.33,133.31 615.02,133.31 615.70,132.03 616.39,132.03 617.08,132.03 617.77,132.03 618.45,132.03 619.14,132.03 619.83,132.03 620.52,132.03 621.20,132.03 621.89,132.03 622.58,132.03 623.26,132.03 623.95,132.03 624.64,132.03 625.33,132.03 626.01,132.03 626.70,132.03 627.39,130.75 628.08,129.47 628.76,129.47 629.45,128.20 630.14,128.20 630.82,128.20 631.51,128.20 632.20,128.20 632.89,128.20 633.57,128.20 634.26,128.20 634.95,128.20 635.64,128.20 636.32,128.20 637.01,128.20 637.70,126.92 638.38,125.64 639.07,125.64 639.76,124.36 640.45,123.08 641.13,123.08 641.82,123.08 642.51,123.08 643.20,123.08 643.88,123.08 644.57,121.80 645.26,121.80 645.95,121.80 646.63,121.80 647.32,121.80 648.01,121.80 648.69,121.80 649.38,120.53 650.07,120.53 650.76,120.53 651.44,120.53 652.13,120.53 652.82,120.53 653.51,119.25 654.19,119.25 654.88,119.25 655.57,119.25 656.25,117.97 656.94,117.97 657.63,117.97 658.32,117.97 659.00,116.69 659.69,116.69 660.38,116.69 661.07,116.69 661.75,116.69 662.44,115.41 663.13,115.41 663.81,115.41 664.50,115.41 665.19,112.86 665.88,111.58 666.56,110.30 667.25,110.30 667.94,110.30 668.63,106.47 669.31,106.47 670.00,105.19 670.69,105.19 671.37,105.19 672.06,105.19 672.75,103.91 673.44,103.91 674.12,103.91 674.81,102.63 675.50,102.63 676.19,101.35 676.87,101.35 677.56,100.08 678.25,98.80 678.93,97.52 679.62,97.52 680.31,97.52 681.00,96.24 681.68,96.24 682.37,96.24 683.06,96.24 683.75,96.24 684.43,96.24 685.12,94.96 685.81,94.96 686.49,94.96 687.18,94.96 687.87,94.96 688.56,94.96 689.24,94.96 689.93,94.96 690.62,94.96 691.31,93.68 691.99,93.68 692.68,93.68 693.37,93.68 694.05,93.68 694.74,93.68 695.43,93.68 696.12,93.68 696.80,92.41 697.49,92.41 698.18,89.85 698.87,89.85 699.55,89.85 700.24,89.85 700.93,89.85 701.62,89.85 702.30,89.85 702.99,89.85 703.68,89.85 704.36,89.85 705.05,89.85 705.74,89.85 706.43,89.85 707.11,89.85 707.80,89.85 708.49,88.57 709.18,88.57 709.86,88.57 710.55,88.57 711.24,88.57 711.92,88.57 712.61,88.57 713.30,87.29 713.99,87.29 714.67,87.29 715.36,86.02 716.05,86.02 716.74,86.02 717.42,84.74 718.11,83.46 718.80,83.46 719.48,82.18 720.17,82.18 720.86,82.18 721.55,82.18 722.23,82.18 722.92,82.18 723.61,82.18 724.30,82.18 724.98,82.18 725.67,82.18 726.36,80.90 727.04,80.90 727.73,80.90 728.42,80.90 729.11,80.90 729.79,80.90 730.48,80.90 731.17,80.90 731.86,80.90 732.54,80.90 733.23,80.90 733.92,80.90 734.60,79.62 735.29,78.35 735.98,78.35 736.67,78.35 737.35,78.35 738.04,78.35 738.73,78.35 739.42,78.35 740.10,78.35 740.79,78.35 741.48,77.07 742.16,77.07 742.85,77.07 743.54,77.07 744.23,77.07 744.91,77.07 745.60,77.07 746.29,77.07 746.98,77.07 747.66,75.79 748.35,75.79 749.04,73.23 749.73,73.23 750.41,73.23 751.10,73.23 751.79,71.95 752.47,71.95 753.16,71.95 753.85,70.68 754.54,70.68 755.22,69.40 755.91,69.40 756.60,69.40 757.29,69.40 757.97,69.40 758.66,69.40 759.35,69.40 760.03,69.40 760.72,68.12 761.41,68.12 762.10,68.12 762.78,68.12 763.47,68.12 764.16,68.12 764.85,68.12 765.53,68.12 766.22,66.84 766.91,65.56 767.59,65.56 768.28,65.56 768.97,65.56 769.66,65.56 770.34,65.56 771.03,65.56 771.72,65.56 772.41,65.56 773.09,65.56 773.78,65.56 774.47,65.56 775.15,65.56 775.84,65.56 776.53,65.56 777.22,65.56 777.90,65.56 778.59,65.56 779.28,65.56 779.97,65.56 780.65,64.29 781.34,64.29 782.03,64.29 782.71,64.29 783.40,64.29 784.09,64.29 784.78,64.29 785.46,64.29 786.15,64.29 786.84,64.29 787.53,59.17 788.21,59.17 788.90,59.17 789.59,59.17 790.27,59.17 790.96,57.89 791.65,57.89 792.34,56.62 793.02,56.62 793.71,56.62 794.40,56.62 795.09,56.62 795.77,56.62 796.46,55.34 797.15,55.34 797.84,55.34 798.52,54.06 799.21,54.06 799.90,54.06 800.58,54.06 801.27,54.06 801.96,54.06 802.65,54.06 803.33,52.78 804.02,52.78 804.71,52.78 805.40,52.78 806.08,52.78 806.77,52.78 807.46,52.78 808.14,52.78 808.83,52.78 809.52,52.78 810.21,50.23 810.89,50.23 811.58,50.23 812.27,50.23 812.96,50.23 813.64,50.23 814.33,50.23 815.02,50.23 815.70,50.23 816.39,50.23 817.08,50.23 817.77,50.23 818.45,50.23 819.14,50.23 819.83,50.23 820.52,50.23 821.20,50.23 821.89,50.23 822.58,50.23 823.26,50.23 823.95,50.23 824.64,50.23 825.33,50.23 826.01,50.23 826.70,50.23 827.39,50.23 828.08,50.23 828.76,50.23 829.45,48.95 830.14,48.95 830.82,48.95 831.51,48.95 832.20,48.95 832.89,48.95 833.57,48.95 834.26,48.95 834.95,46.39 835.64,46.39 836.32,46.39 837.01,46.39 837.70,46.39 838.38,46.39 839.07,46.39 839.76,46.39 840.45,46.39 841.13,46.39 841.82,46.39 842.51,46.39 843.20,46.39 843.88,46.39 844.57,45.11 845.26,45.11 845.95,45.11 846.63,45.11 847.32,45.11 848.01,45.11 848.69,43.83 849.38,43.83 850.07,43.83 850.76,43.83 851.44,43.83 852.13,43.83 852.82,43.83 853.51,43.83 854.19,43.83 854.88,43.83 855.57,43.83 856.25,43.83 856.94,43.83 857.63,43.83 858.32,42.56 859.00,41.28 859.69,41.28 860.38,41.28 861.07,41.28 861.75,41.28 862.44,41.28 863.13,41.28 863.81,41.28 864.50,41.28 865.19,41.28 865.88,41.28 866.56,41.28 867.25,41.28 867.94,41.28 868.63,41.28 869.31,40.00 870.00,40.00" fill="none" stroke="#16a34a" stroke-width="2"/>
<line x1="895" y1="104" x2="913" y2="104" stroke="#16a34a" stroke-width="3"/>
<text x="919" y="108" font-family="Arial" font-size="12">case3_name_detail</text>
<polyline points="70.00,548.72 70.69,543.61 71.37,542.33 72.06,538.50 72.75,538.50 73.44,537.22 74.12,534.66 74.81,529.55 75.50,528.27 76.19,525.71 76.87,523.16 77.56,519.32 78.25,519.32 78.93,516.77 79.62,515.49 80.31,512.93 81.00,510.38 81.68,510.38 82.37,510.38 83.06,509.10 83.75,506.54 84.43,506.54 85.12,502.71 85.81,502.71 86.49,501.43 87.18,498.87 87.87,497.59 88.56,495.04 89.24,493.76 89.93,492.48 90.62,489.92 91.31,489.92 91.99,489.92 92.68,484.81 93.37,483.53 94.05,483.53 94.74,482.26 95.43,482.26 96.12,480.98 96.80,479.70 97.49,477.14 98.18,477.14 98.87,475.86 99.55,475.86 100.24,475.86 100.93,473.31 101.62,473.31 102.30,473.31 102.99,470.75 103.68,470.75 104.36,469.47 105.05,469.47 105.74,469.47 106.43,469.47 107.11,468.20 107.80,468.20 108.49,468.20 109.18,466.92 109.86,464.36 110.55,464.36 111.24,461.80 111.92,461.80 112.61,460.53 113.30,460.53 113.99,457.97 114.67,457.97 115.36,456.69 116.05,456.69 116.74,456.69 117.42,455.41 118.11,455.41 118.80,454.14 119.48,452.86 120.17,451.58 120.86,451.58 121.55,450.30 122.23,449.02 122.92,449.02 123.61,446.47 124.30,446.47 124.98,445.19 125.67,445.19 126.36,442.63 127.04,442.63 127.73,442.63 128.42,441.35 129.11,441.35 129.79,440.08 130.48,438.80 131.17,438.80 131.86,433.68 132.54,432.41 133.23,429.85 133.92,428.57 134.60,428.57 135.29,426.02 135.98,426.02 136.67,426.02 137.35,426.02 138.04,426.02 138.73,422.18 139.42,422.18 140.10,419.62 140.79,419.62 141.48,419.62 142.16,419.62 142.85,419.62 143.54,417.07 144.23,417.07 144.91,417.07 145.60,417.07 146.29,414.51 146.98,411.95 147.66,411.95 148.35,411.95 149.04,410.68 149.73,410.68 150.41,408.12 151.10,406.84 151.79,406.84 152.47,405.56 153.16,405.56 153.85,405.56 154.54,405.56 155.22,404.29 155.91,404.29 156.60,404.29 157.29,404.29 157.97,404.29 158.66,403.01 159.35,403.01 160.03,403.01 160.72,403.01 161.41,401.73 162.10,399.17 162.78,399.17 163.47,399.17 164.16,399.17 164.85,397.89 165.53,397.89 166.22,397.89 166.91,397.89 167.59,397.89 168.28,395.34 168.97,395.34 169.66,395.34 170.34,395.34 171.03,394.06 171.72,394.06 172.41,391.50 173.09,390.23 173.78,390.23 174.47,387.67 175.15,387.67 175.84,383.83 176.53,383.83 177.22,382.56 177.90,382.56 178.59,382.56 179.28,381.28 179.97,380.00 180.65,380.00 181.34,378.72 182.03,378.72 182.71,378.72 183.40,376.17 184.09,376.17 184.78,376.17 185.46,374.89 186.15,374.89 186.84,374.89 187.53,372.33 188.21,372.33 188.90,371.05 189.59,369.77 190.27,369.77 190.96,369.77 191.65,369.77 192.34,369.77 193.02,368.50 193.71,368.50 194.40,368.50 195.09,368.50 195.77,368.50 196.46,368.50 197.15,368.50 197.84,368.50 198.52,367.22 199.21,365.94 199.90,364.66 200.58,364.66 201.27,364.66 201.96,363.38 202.65,360.83 203.33,360.83 204.02,360.83 204.71,360.83 205.40,359.55 206.08,359.55 206.77,356.99 207.46,356.99 208.14,356.99 208.83,356.99 209.52,355.71 210.21,354.44 210.89,354.44 211.58,353.16 212.27,353.16 212.96,353.16 213.64,353.16 214.33,351.88 215.02,351.88 215.70,351.88 216.39,351.88 217.08,351.88 217.77,350.60 218.45,350.60 219.14,350.60 219.83,350.60 220.52,350.60 221.20,350.60 221.89,346.77 222.58,346.77 223.26,346.77 223.95,346.77 224.64,346.77 225.33,346.77 226.01,346.77 226.70,346.77 227.39,346.77 228.08,346.77 228.76,346.77 229.45,346.77 230.14,346.77 230.82,346.77 231.51,346.77 232.20,346.77 232.89,344.21 233.57,344.21 234.26,344.21 234.95,344.21 235.64,344.21 236.32,341.65 237.01,341.65 237.70,341.65 238.38,341.65 239.07,340.38 239.76,340.38 240.45,340.38 241.13,340.38 241.82,340.38 242.51,340.38 243.20,340.38 243.88,339.10 244.57,337.82 245.26,337.82 245.95,337.82 246.63,337.82 247.32,337.82 248.01,337.82 248.69,336.54 249.38,336.54 250.07,336.54 250.76,336.54 251.44,336.54 252.13,336.54 252.82,336.54 253.51,335.26 254.19,333.98 254.88,332.71 255.57,332.71 256.25,332.71 256.94,332.71 257.63,332.71 258.32,332.71 259.00,332.71 259.69,332.71 260.38,331.43 261.07,331.43 261.75,331.43 262.44,331.43 263.13,330.15 263.81,327.59 264.50,327.59 265.19,327.59 265.88,327.59 266.56,327.59 267.25,327.59 267.94,327.59 268.63,327.59 269.31,327.59 270.00,327.59 270.69,327.59 271.37,326.32 272.06,326.32 272.75,325.04 273.44,325.04 274.12,325.04 274.81,325.04 275.50,325.04 276.19,325.04 276.87,323.76 277.56,323.76 278.25,322.48 278.93,322.48 279.62,322.48 280.31,322.48 281.00,321.20 281.68,321.20 282.37,321.20 283.06,321.20 283.75,319.92 284.43,319.92 285.12,319.92 285.81,319.92 286.49,319.92 287.18,318.65 287.87,318.65 288.56,318.65 289.24,318.65 289.93,318.65 290.62,318.65 291.31,318.65 291.99,318.65 292.68,318.65 293.37,318.65 294.05,317.37 294.74,316.09 295.43,316.09 296.12,312.26 296.80,312.26 297.49,312.26 298.18,310.98 298.87,310.98 299.55,310.98 300.24,310.98 300.93,310.98 301.62,310.98 302.30,310.98 302.99,310.98 303.68,310.98 304.36,310.98 305.05,310.98 305.74,310.98 306.43,309.70 307.11,308.42 307.80,308.42 308.49,307.14 309.18,307.14 309.86,305.86 310.55,304.59 311.24,303.31 311.92,300.75 312.61,299.47 313.30,299.47 313.99,298.20 314.67,296.92 315.36,296.92 316.05,296.92 316.74,296.92 317.42,296.92 318.11,295.64 318.80,295.64 319.48,294.36 320.17,294.36 320.86,294.36 321.55,289.25 322.23,289.25 322.92,289.25 323.61,289.25 324.30,289.25 324.98,289.25 325.67,289.25 326.36,289.25 327.04,289.25 327.73,287.97 328.42,287.97 329.11,287.97 329.79,287.97 330.48,287.97 331.17,287.97 331.86,287.97 332.54,287.97 333.23,287.97 333.92,286.69 334.60,286.69 335.29,286.69 335.98,286.69 336.67,286.69 337.35,286.69 338.04,285.41 338.73,285.41 339.42,282.86 340.10,282.86 340.79,282.86 341.48,282.86 342.16,281.58 342.85,281.58 343.54,281.58 344.23,280.30 344.91,279.02 345.60,279.02 346.29,279.02 346.98,279.02 347.66,279.02 348.35,279.02 349.04,277.74 349.73,277.74 350.41,277.74 351.10,276.47 351.79,275.19 352.47,275.19 353.16,275.19 353.85,272.63 354.54,272.63 355.22,272.63 355.91,272.63 356.60,272.63 357.29,272.63 357.97,272.63 358.66,272.63 359.35,271.35 360.03,271.35 360.72,271.35 361.41,271.35 362.10,271.35 362.78,270.08 363.47,270.08 364.16,270.08 364.85,270.08 365.53,268.80 366.22,267.52 366.91,267.52 367.59,267.52 368.28,267.52 368.97,267.52 369.66,267.52 370.34,266.24 371.03,266.24 371.72,266.24 372.41,266.24 373.09,266.24 373.78,266.24 374.47,266.24 375.15,266.24 375.84,266.24 376.53,266.24 377.22,266.24 377.90,266.24 378.59,266.24 379.28,266.24 379.97,266.24 380.65,266.24 381.34,266.24 382.03,266.24 382.71,266.24 383.40,266.24 384.09,266.24 384.78,266.24 385.46,266.24 386.15,266.24 386.84,266.24 387.53,266.24 388.21,266.24 388.90,266.24 389.59,266.24 390.27,263.68 390.96,263.68 391.65,263.68 392.34,263.68 393.02,263.68 393.71,263.68 394.40,263.68 395.09,263.68 395.77,263.68 396.46,263.68 397.15,262.41 397.84,261.13 398.52,261.13 399.21,259.85 399.90,258.57 400.58,258.57 401.27,256.02 401.96,256.02 402.65,256.02 403.33,256.02 404.02,256.02 404.71,256.02 405.40,254.74 406.08,254.74 406.77,254.74 407.46,254.74 408.14,254.74 408.83,253.46 409.52,253.46 410.21,253.46 410.89,253.46 411.58,253.46 412.27,252.18 412.96,250.90 413.64,250.90 414.33,249.62 415.02,249.62 415.70,249.62 416.39,249.62 417.08,248.35 417.77,248.35 418.45,247.07 419.14,245.79 419.83,244.51 420.52,243.23 421.20,243.23 421.89,241.95 422.58,241.95 423.26,240.68 423.95,240.68 424.64,240.68 425.33,239.40 426.01,236.84 426.70,236.84 427.39,236.84 428.08,236.84 428.76,236.84 429.45,235.56 430.14,235.56 430.82,235.56 431.51,235.56 432.20,235.56 432.89,234.29 433.57,234.29 434.26,234.29 434.95,234.29 435.64,234.29 436.32,233.01 437.01,233.01 437.70,233.01 438.38,233.01 439.07,233.01 439.76,233.01 440.45,233.01 441.13,233.01 441.82,233.01 442.51,233.01 443.20,233.01 443.88,233.01 444.57,233.01 445.26,233.01 445.95,233.01 446.63,233.01 447.32,233.01 448.01,233.01 448.69,233.01 449.38,233.01 450.07,231.73 450.76,231.73 451.44,229.17 452.13,227.89 452.82,226.62 453.51,226.62 454.19,225.34 454.88,225.34 455.57,225.34 456.25,225.34 456.94,224.06 457.63,224.06 458.32,224.06 459.00,224.06 459.69,224.06 460.38,224.06 461.07,224.06 461.75,224.06 462.44,224.06 463.13,224.06 463.81,224.06 464.50,224.06 465.19,224.06 465.88,222.78 466.56,222.78 467.25,222.78 467.94,222.78 468.63,222.78 469.31,222.78 470.00,222.78 470.69,222.78 471.37,222.78 472.06,222.78 472.75,222.78 473.44,222.78 474.12,221.50 474.81,221.50 475.50,221.50 476.19,221.50 476.87,221.50 477.56,221.50 478.25,221.50 478.93,221.50 479.62,221.50 480.31,221.50 481.00,221.50 481.68,221.50 482.37,221.50 483.06,221.50 483.75,221.50 484.43,220.23 485.12,220.23 485.81,220.23 486.49,218.95 487.18,218.95 487.87,218.95 488.56,217.67 489.24,217.67 489.93,217.67 490.62,217.67 491.31,217.67 491.99,217.67 492.68,216.39 493.37,216.39 494.05,216.39 494.74,216.39 495.43,216.39 496.12,216.39 496.80,216.39 497.49,216.39 498.18,216.39 498.87,215.11 499.55,215.11 500.24,215.11 500.93,213.83 501.62,213.83 502.30,212.56 502.99,212.56 503.68,212.56 504.36,212.56 505.05,211.28 505.74,211.28 506.43,211.28 507.11,210.00 507.80,208.72 508.49,207.44 509.18,207.44 509.86,207.44 510.55,207.44 511.24,207.44 511.92,204.89 512.61,203.61 513.30,203.61 513.99,203.61 514.67,203.61 515.36,203.61 516.05,203.61 516.74,203.61 517.42,203.61 518.11,203.61 518.80,203.61 519.48,203.61 520.17,203.61 520.86,202.33 521.55,202.33 522.23,202.33 522.92,202.33 523.61,202.33 524.30,202.33 524.98,202.33 525.67,202.33 526.36,202.33 527.04,202.33 527.73,202.33 528.42,202.33 529.11,202.33 529.79,201.05 530.48,201.05 531.17,201.05 531.86,201.05 532.54,201.05 533.23,199.77 533.92,199.77 534.60,199.77 535.29,199.77 535.98,199.77 536.67,199.77 537.35,199.77 538.04,199.77 538.73,199.77 539.42,199.77 540.10,199.77 540.79,198.50 541.48,198.50 542.16,195.94 542.85,194.66 543.54,194.66 544.23,193.38 544.91,192.11 545.60,192.11 546.29,192.11 546.98,192.11 547.66,190.83 548.35,190.83 549.04,190.83 549.73,189.55 550.41,188.27 551.10,188.27 551.79,188.27 552.47,188.27 553.16,186.99 553.85,186.99 554.54,186.99 555.22,186.99 555.91,186.99 556.60,186.99 557.29,186.99 557.97,186.99 558.66,185.71 559.35,185.71 560.03,184.44 560.72,183.16 561.41,183.16 562.10,183.16 562.78,183.16 563.47,183.16 564.16,183.16 564.85,183.16 565.53,183.16 566.22,183.16 566.91,183.16 567.59,183.16 568.28,183.16 568.97,183.16 569.66,183.16 570.34,181.88 571.03,181.88 571.72,181.88 572.41,181.88 573.09,181.88 573.78,181.88 574.47,181.88 575.15,181.88 575.84,181.88 576.53,181.88 577.22,181.88 577.90,180.60 578.59,180.60 579.28,179.32 579.97,179.32 580.65,179.32 581.34,179.32 582.03,179.32 582.71,179.32 583.40,179.32 584.09,179.32 584.78,179.32 585.46,178.05 586.15,178.05 586.84,178.05 587.53,178.05 588.21,178.05 588.90,178.05 589.59,178.05 590.27,178.05 590.96,178.05 591.65,178.05 592.34,176.77 593.02,176.77 593.71,176.77 594.40,176.77 595.09,176.77 595.77,176.77 596.46,176.77 597.15,176.77 597.84,176.77 598.52,176.77 599.21,176.77 599.90,176.77 600.58,175.49 601.27,175.49 601.96,174.21 602.65,174.21 603.33,174.21 604.02,174.21 604.71,174.21 605.40,172.93 606.08,172.93 606.77,172.93 607.46,171.65 608.14,171.65 608.83,171.65 609.52,171.65 610.21,171.65 610.89,171.65 611.58,171.65 612.27,170.38 612.96,167.82 613.64,166.54 614.33,166.54 615.02,166.54 615.70,165.26 616.39,165.26 617.08,165.26 617.77,165.26 618.45,165.26 619.14,165.26 619.83,165.26 620.52,165.26 621.20,165.26 621.89,165.26 622.58,165.26 623.26,165.26 623.95,165.26 624.64,165.26 625.33,165.26 626.01,165.26 626.70,163.98 627.39,162.71 628.08,162.71 628.76,161.43 629.45,160.15 630.14,160.15 630.82,160.15 631.51,160.15 632.20,160.15 632.89,160.15 633.57,160.15 634.26,160.15 634.95,160.15 635.64,160.15 636.32,160.15 637.01,160.15 637.70,157.59 638.38,157.59 639.07,157.59 639.76,156.32 640.45,156.32 641.13,156.32 641.82,156.32 642.51,156.32 643.20,156.32 643.88,156.32 644.57,153.76 645.26,153.76 645.95,153.76 646.63,153.76 647.32,153.76 648.01,153.76 648.69,152.48 649.38,151.20 650.07,151.20 650.76,151.20 651.44,151.20 652.13,151.20 652.82,151.20 653.51,149.92 654.19,149.92 654.88,149.92 655.57,149.92 656.25,148.65 656.94,148.65 657.63,148.65 658.32,148.65 659.00,148.65 659.69,148.65 660.38,148.65 661.07,148.65 661.75,148.65 662.44,147.37 663.13,147.37 663.81,147.37 664.50,147.37 665.19,146.09 665.88,143.53 666.56,143.53 667.25,143.53 667.94,143.53 668.63,139.70 669.31,139.70 670.00,138.42 670.69,138.42 671.37,138.42 672.06,138.42 672.75,137.14 673.44,137.14 674.12,137.14 674.81,137.14 675.50,137.14 676.19,137.14 676.87,137.14 677.56,137.14 678.25,135.86 678.93,135.86 679.62,135.86 680.31,135.86 681.00,134.59 681.68,134.59 682.37,134.59 683.06,134.59 683.75,134.59 684.43,134.59 685.12,133.31 685.81,133.31 686.49,133.31 687.18,133.31 687.87,133.31 688.56,132.03 689.24,130.75 689.93,130.75 690.62,130.75 691.31,128.20 691.99,128.20 692.68,128.20 693.37,128.20 694.05,128.20 694.74,126.92 695.43,126.92 696.12,126.92 696.80,126.92 697.49,126.92 698.18,125.64 698.87,125.64 699.55,125.64 700.24,123.08 700.93,123.08 701.62,123.08 702.30,123.08 702.99,123.08 703.68,123.08 704.36,123.08 705.05,123.08 705.74,123.08 706.43,123.08 707.11,121.80 707.80,121.80 708.49,120.53 709.18,120.53 709.86,120.53 710.55,119.25 711.24,119.25 711.92,119.25 712.61,119.25 713.30,117.97 713.99,117.97 714.67,117.97 715.36,115.41 716.05,114.14 716.74,114.14 717.42,114.14 718.11,112.86 718.80,112.86 719.48,111.58 720.17,111.58 720.86,111.58 721.55,111.58 722.23,111.58 722.92,111.58 723.61,111.58 724.30,111.58 724.98,111.58 725.67,111.58 726.36,110.30 727.04,109.02 727.73,109.02 728.42,109.02 729.11,109.02 729.79,109.02 730.48,109.02 731.17,109.02 731.86,109.02 732.54,109.02 733.23,109.02 733.92,109.02 734.60,109.02 735.29,107.74 735.98,107.74 736.67,107.74 737.35,106.47 738.04,106.47 738.73,106.47 739.42,106.47 740.10,106.47 740.79,106.47 741.48,105.19 742.16,103.91 742.85,103.91 743.54,103.91 744.23,103.91 744.91,103.91 745.60,103.91 746.29,102.63 746.98,102.63 747.66,101.35 748.35,101.35 749.04,100.08 749.73,100.08 750.41,100.08 751.10,100.08 751.79,98.80 752.47,98.80 753.16,98.80 753.85,97.52 754.54,97.52 755.22,97.52 755.91,97.52 756.60,97.52 757.29,97.52 757.97,97.52 758.66,97.52 759.35,97.52 760.03,97.52 760.72,96.24 761.41,96.24 762.10,96.24 762.78,96.24 763.47,96.24 764.16,96.24 764.85,96.24 765.53,96.24 766.22,94.96 766.91,94.96 767.59,94.96 768.28,94.96 768.97,94.96 769.66,94.96 770.34,94.96 771.03,94.96 771.72,94.96 772.41,94.96 773.09,94.96 773.78,94.96 774.47,94.96 775.15,93.68 775.84,93.68 776.53,93.68 777.22,93.68 777.90,93.68 778.59,93.68 779.28,93.68 779.97,93.68 780.65,92.41 781.34,92.41 782.03,91.13 782.71,91.13 783.40,91.13 784.09,91.13 784.78,91.13 785.46,91.13 786.15,91.13 786.84,89.85 787.53,87.29 788.21,87.29 788.90,87.29 789.59,87.29 790.27,87.29 790.96,87.29 791.65,86.02 792.34,86.02 793.02,86.02 793.71,86.02 794.40,86.02 795.09,86.02 795.77,86.02 796.46,84.74 797.15,84.74 797.84,84.74 798.52,84.74 799.21,84.74 799.90,84.74 800.58,84.74 801.27,84.74 801.96,84.74 802.65,84.74 803.33,84.74 804.02,84.74 804.71,84.74 805.40,84.74 806.08,84.74 806.77,84.74 807.46,84.74 808.14,84.74 808.83,84.74 809.52,84.74 810.21,82.18 810.89,82.18 811.58,82.18 812.27,82.18 812.96,82.18 813.64,82.18 814.33,82.18 815.02,82.18 815.70,82.18 816.39,82.18 817.08,82.18 817.77,82.18 818.45,82.18 819.14,82.18 819.83,80.90 820.52,80.90 821.20,80.90 821.89,80.90 822.58,80.90 823.26,80.90 823.95,80.90 824.64,80.90 825.33,80.90 826.01,80.90 826.70,80.90 827.39,80.90 828.08,80.90 828.76,80.90 829.45,80.90 830.14,80.90 830.82,79.62 831.51,79.62 832.20,79.62 832.89,79.62 833.57,78.35 834.26,78.35 834.95,77.07 835.64,77.07 836.32,77.07 837.01,77.07 837.70,77.07 838.38,77.07 839.07,77.07 839.76,77.07 840.45,77.07 841.13,77.07 841.82,77.07 842.51,77.07 843.20,77.07 843.88,77.07 844.57,77.07 845.26,77.07 845.95,77.07 846.63,77.07 847.32,77.07 848.01,75.79 848.69,75.79 849.38,75.79 850.07,75.79 850.76,75.79 851.44,75.79 852.13,75.79 852.82,75.79 853.51,75.79 854.19,75.79 854.88,75.79 855.57,75.79 856.25,75.79 856.94,75.79 857.63,75.79 858.32,74.51 859.00,73.23 859.69,73.23 860.38,73.23 861.07,73.23 861.75,73.23 862.44,73.23 863.13,73.23 863.81,73.23 864.50,73.23 865.19,73.23 865.88,73.23 866.56,73.23 867.25,73.23 867.94,73.23 868.63,73.23 869.31,73.23 870.00,71.95" fill="none" stroke="#9333ea" stroke-width="2"/>
<line x1="895" y1="126" x2="913" y2="126" stroke="#9333ea" stroke-width="3"/>
<text x="919" y="130" font-family="Arial" font-size="12">case4_detail_strict</text>
<polyline points="70.00,548.72 70.69,544.89 71.37,543.61 72.06,541.05 72.75,539.77 73.44,535.94 74.12,532.11 74.81,528.27 75.50,526.99 76.19,525.71 76.87,523.16 77.56,519.32 78.25,519.32 78.93,516.77 79.62,516.77 80.31,514.21 81.00,511.65 81.68,510.38 82.37,510.38 83.06,509.10 83.75,506.54 84.43,505.26 85.12,502.71 85.81,502.71 86.49,500.15 87.18,497.59 87.87,496.32 88.56,495.04 89.24,492.48 89.93,492.48 90.62,489.92 91.31,489.92 91.99,489.92 92.68,486.09 93.37,483.53 94.05,483.53 94.74,482.26 95.43,482.26 96.12,482.26 96.80,480.98 97.49,478.42 98.18,477.14 98.87,475.86 99.55,475.86 100.24,475.86 100.93,474.59 101.62,474.59 102.30,473.31 102.99,468.20 103.68,466.92 104.36,465.64 105.05,465.64 105.74,465.64 106.43,464.36 107.11,463.08 107.80,463.08 108.49,460.53 109.18,459.25 109.86,456.69 110.55,455.41 111.24,452.86 111.92,452.86 112.61,451.58 113.30,451.58 113.99,449.02 114.67,449.02 115.36,445.19 116.05,445.19 116.74,445.19 117.42,442.63 118.11,442.63 118.80,441.35 119.48,440.08 120.17,438.80 120.86,438.80 121.55,437.52 122.23,436.24 122.92,436.24 123.61,433.68 124.30,433.68 124.98,432.41 125.67,432.41 126.36,429.85 127.04,429.85 127.73,429.85 128.42,427.29 129.11,427.29 129.79,426.02 130.48,423.46 131.17,423.46 131.86,418.35 132.54,417.07 133.23,417.07 133.92,417.07 134.60,417.07 135.29,414.51 135.98,414.51 136.67,413.23 137.35,413.23 138.04,413.23 138.73,409.40 139.42,409.40 140.10,408.12 140.79,408.12 141.48,408.12 142.16,408.12 142.85,408.12 143.54,404.29 144.23,403.01 144.91,403.01 145.60,403.01 146.29,400.45 146.98,399.17 147.66,399.17 148.35,397.89 149.04,396.62 149.73,396.62 150.41,394.06 151.10,394.06 151.79,394.06 152.47,392.78 153.16,392.78 153.85,392.78 154.54,392.78 155.22,390.23 155.91,390.23 156.60,390.23 157.29,390.23 157.97,390.23 158.66,390.23 159.35,390.23 160.03,390.23 160.72,390.23 161.41,388.95 162.10,387.67 162.78,387.67 163.47,387.67 164.16,387.67 164.85,387.67 165.53,387.67 166.22,386.39 166.91,386.39 167.59,386.39 168.28,383.83 168.97,383.83 169.66,383.83 170.34,383.83 171.03,382.56 171.72,382.56 172.41,380.00 173.09,378.72 173.78,378.72 174.47,377.44 175.15,377.44 175.84,376.17 176.53,376.17 177.22,373.61 177.90,373.61 178.59,373.61 179.28,372.33 179.97,371.05 180.65,371.05 181.34,368.50 182.03,368.50 182.71,368.50 183.40,365.94 184.09,365.94 184.78,365.94 185.46,364.66 186.15,364.66 186.84,364.66 187.53,363.38 188.21,363.38 188.90,362.11 189.59,362.11 190.27,362.11 190.96,362.11 191.65,362.11 192.34,362.11 193.02,362.11 193.71,360.83 194.40,360.83 195.09,360.83 195.77,359.55 196.46,359.55 197.15,359.55 197.84,359.55 198.52,358.27 199.21,355.71 199.90,353.16 200.58,353.16 201.27,353.16 201.96,351.88 202.65,351.88 203.33,351.88 204.02,351.88 204.71,351.88 205.40,351.88 206.08,350.60 206.77,349.32 207.46,349.32 208.14,349.32 208.83,349.32 209.52,349.32 210.21,348.05 210.89,348.05 211.58,346.77 212.27,346.77 212.96,345.49 213.64,345.49 214.33,345.49 215.02,345.49 215.70,345.49 216.39,345.49 217.08,345.49 217.77,345.49 218.45,345.49 219.14,344.21 219.83,344.21 220.52,344.21 221.20,344.21 221.89,341.65 222.58,341.65 223.26,341.65 223.95,341.65 224.64,341.65 225.33,341.65 226.01,341.65 226.70,341.65 227.39,341.65 228.08,341.65 228.76,341.65 229.45,341.65 230.14,341.65 230.82,341.65 231.51,341.65 232.20,341.65 232.89,339.10 233.57,339.10 234.26,339.10 234.95,337.82 235.64,337.82 236.32,337.82 237.01,337.82 237.70,336.54 238.38,336.54 239.07,336.54 239.76,335.26 240.45,335.26 241.13,335.26 241.82,333.98 242.51,333.98 243.20,333.98 243.88,333.98 244.57,333.98 245.26,332.71 245.95,332.71 246.63,331.43 247.32,331.43 248.01,331.43 248.69,330.15 249.38,330.15 250.07,330.15 250.76,330.15 251.44,330.15 252.13,330.15 252.82,330.15 253.51,330.15 254.19,330.15 254.88,328.87 255.57,328.87 256.25,328.87 256.94,328.87 257.63,328.87 258.32,328.87 259.00,328.87 259.69,328.87 260.38,327.59 261.07,327.59 261.75,327.59 262.44,327.59 263.13,326.32 263.81,322.48 264.50,322.48 265.19,321.20 265.88,321.20 266.56,321.20 267.25,321.20 267.94,321.20 268.63,321.20 269.31,321.20 270.00,321.20 270.69,321.20 271.37,319.92 272.06,319.92 272.75,318.65 273.44,318.65 274.12,318.65 274.81,318.65 275.50,318.65 276.19,318.65 276.87,318.65 277.56,318.65 278.25,317.37 278.93,316.09 279.62,316.09 280.31,316.09 281.00,314.81 281.68,314.81 282.37,314.81 283.06,314.81 283.75,314.81 284.43,314.81 285.12,314.81 285.81,314.81 286.49,314.81 287.18,313.53 287.87,313.53 288.56,312.26 289.24,310.98 289.93,310.98 290.62,309.70 291.31,308.42 291.99,308.42 292.68,308.42 293.37,307.14 294.05,305.86 294.74,304.59 295.43,304.59 296.12,302.03 296.80,302.03 297.49,302.03 298.18,302.03 298.87,302.03 299.55,302.03 300.24,302.03 300.93,300.75 301.62,299.47 302.30,299.47 302.99,299.47 303.68,299.47 304.36,299.47 305.05,299.47 305.74,299.47 306.43,299.47 307.11,299.47 307.80,299.47 308.49,298.20 309.18,298.20 309.86,298.20 310.55,298.20 311.24,296.92 311.92,294.36 312.61,294.36 313.30,294.36 313.99,293.08 314.67,291.80 315.36,291.80 316.05,291.80 316.74,291.80 317.42,291.80 318.11,290.53 318.80,290.53 319.48,289.25 320.17,289.25 320.86,289.25 321.55,289.25 322.23,287.97 322.92,287.97 323.61,286.69 324.30,286.69 324.98,286.69 325.67,286.69 326.36,286.69 327.04,285.41 327.73,282.86 328.42,281.58 329.11,281.58 329.79,281.58 330.48,281.58 331.17,281.58 331.86,281.58 332.54,281.58 333.23,281.58 333.92,280.30 334.60,280.30 335.29,280.30 335.98,280.30 336.67,280.30 337.35,280.30 338.04,279.02 338.73,279.02 339.42,276.47 340.10,276.47 340.79,276.47 341.48,276.47 342.16,276.47 342.85,276.47 343.54,276.47 344.23,276.47 344.91,273.91 345.60,273.91 346.29,273.91 346.98,272.63 347.66,272.63 348.35,272.63 349.04,271.35 349.73,271.35 350.41,271.35 351.10,271.35 351.79,270.08 352.47,270.08 353.16,270.08 353.85,268.80 354.54,268.80 355.22,268.80 355.91,267.52 356.60,267.52 357.29,266.24 357.97,266.24 358.66,266.24 359.35,264.96 360.03,264.96 360.72,264.96 361.41,264.96 362.10,264.96 362.78,262.41 363.47,262.41 364.16,262.41 364.85,262.41 365.53,261.13 366.22,261.13 366.91,261.13 367.59,261.13 368.28,261.13 368.97,261.13 369.66,259.85 370.34,259.85 371.03,259.85 371.72,259.85 372.41,259.85 373.09,259.85 373.78,258.57 374.47,258.57 375.15,258.57 375.84,258.57 376.53,258.57 377.22,258.57 377.90,257.29 378.59,257.29 379.28,257.29 379.97,257.29 380.65,257.29 381.34,256.02 382.03,256.02 382.71,256.02 383.40,254.74 384.09,254.74 384.78,254.74 385.46,254.74 386.15,254.74 386.84,253.46 387.53,253.46 388.21,253.46 388.90,253.46 389.59,253.46 390.27,250.90 390.96,249.62 391.65,249.62 392.34,249.62 393.02,249.62 393.71,249.62 394.40,249.62 395.09,249.62 395.77,249.62 396.46,249.62 397.15,249.62 397.84,248.35 398.52,248.35 399.21,248.35 399.90,247.07 400.58,245.79 401.27,244.51 401.96,244.51 402.65,244.51 403.33,244.51 404.02,244.51 404.71,244.51 405.40,244.51 406.08,244.51 406.77,243.23 407.46,243.23 408.14,243.23 408.83,241.95 409.52,241.95 410.21,241.95 410.89,241.95 411.58,241.95 412.27,240.68 412.96,239.40 413.64,239.40 414.33,239.40 415.02,239.40 415.70,239.40 416.39,239.40 417.08,239.40 417.77,239.40 418.45,239.40 419.14,238.12 419.83,236.84 420.52,236.84 421.20,236.84 421.89,235.56 422.58,235.56 423.26,235.56 423.95,235.56 424.64,235.56 425.33,235.56 426.01,235.56 426.70,235.56 427.39,235.56 428.08,235.56 428.76,235.56 429.45,235.56 430.14,234.29 430.82,233.01 431.51,231.73 432.20,231.73 432.89,230.45 433.57,230.45 434.26,230.45 434.95,230.45 435.64,230.45 436.32,229.17 437.01,227.89 437.70,227.89 438.38,227.89 439.07,226.62 439.76,225.34 440.45,225.34 441.13,225.34 441.82,225.34 442.51,224.06 443.20,224.06 443.88,224.06 444.57,224.06 445.26,224.06 445.95,224.06 446.63,220.23 447.32,220.23 448.01,220.23 448.69,220.23 449.38,220.23 450.07,220.23 450.76,220.23 451.44,217.67 452.13,216.39 452.82,215.11 453.51,215.11 454.19,212.56 454.88,212.56 455.57,212.56 456.25,211.28 456.94,211.28 457.63,211.28 458.32,211.28 459.00,211.28 459.69,211.28 460.38,210.00 461.07,210.00 461.75,210.00 462.44,210.00 463.13,210.00 463.81,210.00 464.50,210.00 465.19,210.00 465.88,208.72 466.56,208.72 467.25,208.72 467.94,208.72 468.63,208.72 469.31,208.72 470.00,207.44 470.69,206.17 471.37,206.17 472.06,206.17 472.75,206.17 473.44,206.17 474.12,206.17 474.81,206.17 475.50,206.17 476.19,206.17 476.87,206.17 477.56,206.17 478.25,204.89 478.93,204.89 479.62,203.61 480.31,203.61 481.00,203.61 481.68,202.33 482.37,202.33 483.06,202.33 483.75,202.33 484.43,202.33 485.12,201.05 485.81,201.05 486.49,199.77 487.18,199.77 487.87,199.77 488.56,199.77 489.24,199.77 489.93,199.77 490.62,199.77 491.31,199.77 491.99,199.77 492.68,197.22 493.37,197.22 494.05,197.22 494.74,197.22 495.43,197.22 496.12,197.22 496.80,197.22 497.49,197.22 498.18,197.22 498.87,195.94 499.55,194.66 500.24,194.66 500.93,193.38 501.62,193.38 502.30,192.11 502.99,192.11 503.68,192.11 504.36,192.11 505.05,190.83 505.74,190.83 506.43,190.83 507.11,189.55 507.80,189.55 508.49,189.55 509.18,189.55 509.86,189.55 510.55,189.55 511.24,189.55 511.92,185.71 512.61,184.44 513.30,184.44 513.99,184.44 514.67,184.44 515.36,184.44 516.05,184.44 516.74,184.44 517.42,184.44 518.11,184.44 518.80,184.44 519.48,183.16 520.17,183.16 520.86,183.16 521.55,183.16 522.23,183.16 522.92,181.88 523.61,181.88 524.30,181.88 524.98,181.88 525.67,181.88 526.36,181.88 527.04,181.88 527.73,181.88 528.42,181.88 529.11,181.88 529.79,181.88 530.48,181.88 531.17,181.88 531.86,180.60 532.54,180.60 533.23,180.60 533.92,180.60 534.60,179.32 535.29,179.32 535.98,179.32 536.67,179.32 537.35,178.05 538.04,178.05 538.73,178.05 539.42,178.05 540.10,178.05 540.79,176.77 541.48,175.49 542.16,174.21 542.85,174.21 543.54,174.21 544.23,172.93 544.91,170.38 545.60,170.38 546.29,170.38 546.98,170.38 547.66,170.38 548.35,170.38 549.04,169.10 549.73,169.10 550.41,167.82 551.10,167.82 551.79,166.54 552.47,166.54 553.16,166.54 553.85,166.54 554.54,166.54 555.22,166.54 555.91,163.98 556.60,163.98 557.29,163.98 557.97,163.98 558.66,162.71 559.35,162.71 560.03,161.43 560.72,158.87 561.41,158.87 562.10,158.87 562.78,158.87 563.47,158.87 564.16,158.87 564.85,158.87 565.53,158.87 566.22,158.87 566.91,157.59 567.59,157.59 568.28,157.59 568.97,157.59 569.66,157.59 570.34,156.32 571.03,156.32 571.72,156.32 572.41,156.32 573.09,156.32 573.78,156.32 574.47,156.32 575.15,156.32 575.84,156.32 576.53,156.32 577.22,156.32 577.90,155.04 578.59,155.04 579.28,155.04 579.97,155.04 580.65,155.04 581.34,155.04 582.03,155.04 582.71,155.04 583.40,155.04 584.09,155.04 584.78,155.04 585.46,155.04 586.15,155.04 586.84,155.04 587.53,155.04 588.21,155.04 588.90,153.76 589.59,153.76 590.27,153.76 590.96,153.76 591.65,153.76 592.34,152.48 593.02,152.48 593.71,152.48 594.40,152.48 595.09,152.48 595.77,152.48 596.46,152.48 597.15,152.48 597.84,152.48 598.52,152.48 599.21,152.48 599.90,152.48 600.58,152.48 601.27,152.48 601.96,151.20 602.65,151.20 603.33,151.20 604.02,151.20 604.71,151.20 605.40,151.20 606.08,151.20 606.77,151.20 607.46,149.92 608.14,149.92 608.83,149.92 609.52,149.92 610.21,149.92 610.89,149.92 611.58,149.92 612.27,149.92 612.96,147.37 613.64,147.37 614.33,147.37 615.02,146.09 615.70,144.81 616.39,144.81 617.08,144.81 617.77,144.81 618.45,144.81 619.14,144.81 619.83,144.81 620.52,144.81 621.20,144.81 621.89,144.81 622.58,144.81 623.26,143.53 623.95,143.53 624.64,143.53 625.33,143.53 626.01,143.53 626.70,142.26 627.39,140.98 628.08,140.98 628.76,140.98 629.45,139.70 630.14,139.70 630.82,139.70 631.51,139.70 632.20,139.70 632.89,139.70 633.57,139.70 634.26,138.42 634.95,138.42 635.64,138.42 636.32,137.14 637.01,137.14 637.70,135.86 638.38,134.59 639.07,134.59 639.76,133.31 640.45,132.03 641.13,130.75 641.82,130.75 642.51,130.75 643.20,130.75 643.88,130.75 644.57,128.20 645.26,128.20 645.95,128.20 646.63,128.20 647.32,128.20 648.01,128.20 648.69,128.20 649.38,126.92 650.07,126.92 650.76,126.92 651.44,126.92 652.13,126.92 652.82,126.92 653.51,126.92 654.19,126.92 654.88,126.92 655.57,126.92 656.25,125.64 656.94,125.64 657.63,125.64 658.32,125.64 659.00,124.36 659.69,124.36 660.38,124.36 661.07,124.36 661.75,124.36 662.44,123.08 663.13,123.08 663.81,123.08 664.50,123.08 665.19,123.08 665.88,123.08 666.56,123.08 667.25,123.08 667.94,123.08 668.63,120.53 669.31,119.25 670.00,117.97 670.69,117.97 671.37,116.69 672.06,116.69 672.75,115.41 673.44,114.14 674.12,114.14 674.81,114.14 675.50,114.14 676.19,114.14 676.87,114.14 677.56,114.14 678.25,110.30 678.93,110.30 679.62,109.02 680.31,109.02 681.00,107.74 681.68,107.74 682.37,107.74 683.06,107.74 683.75,107.74 684.43,107.74 685.12,107.74 685.81,107.74 686.49,107.74 687.18,107.74 687.87,107.74 688.56,107.74 689.24,106.47 689.93,106.47 690.62,106.47 691.31,105.19 691.99,105.19 692.68,105.19 693.37,105.19 694.05,105.19 694.74,105.19 695.43,105.19 696.12,105.19 696.80,105.19 697.49,105.19 698.18,105.19 698.87,105.19 699.55,105.19 700.24,105.19 700.93,105.19 701.62,105.19 702.30,105.19 702.99,105.19 703.68,105.19 704.36,105.19 705.05,105.19 705.74,105.19 706.43,105.19 707.11,103.91 707.80,103.91 708.49,102.63 709.18,102.63 709.86,102.63 710.55,101.35 711.24,101.35 711.92,101.35 712.61,101.35 713.30,101.35 713.99,101.35 714.67,100.08 715.36,98.80 716.05,98.80 716.74,98.80 717.42,98.80 718.11,97.52 718.80,97.52 719.48,97.52 720.17,96.24 720.86,96.24 721.55,94.96 722.23,94.96 722.92,93.68 723.61,93.68 724.30,93.68 724.98,93.68 725.67,93.68 726.36,92.41 727.04,92.41 727.73,92.41 728.42,92.41 729.11,92.41 729.79,92.41 730.48,92.41 731.17,91.13 731.86,91.13 732.54,91.13 733.23,91.13 733.92,91.13 734.60,91.13 735.29,91.13 735.98,91.13 736.67,91.13 737.35,91.13 738.04,91.13 738.73,91.13 739.42,88.57 740.10,87.29 740.79,87.29 741.48,87.29 742.16,86.02 742.85,86.02 743.54,86.02 744.23,86.02 744.91,86.02 745.60,86.02 746.29,84.74 746.98,84.74 747.66,83.46 748.35,83.46 749.04,82.18 749.73,82.18 750.41,82.18 751.10,82.18 751.79,80.90 752.47,80.90 753.16,80.90 753.85,79.62 754.54,79.62 755.22,78.35 755.91,78.35 756.60,78.35 757.29,78.35 757.97,78.35 758.66,78.35 759.35,78.35 760.03,78.35 760.72,78.35 761.41,78.35 762.10,78.35 762.78,78.35 763.47,78.35 764.16,78.35 764.85,78.35 765.53,78.35 766.22,77.07 766.91,77.07 767.59,75.79 768.28,74.51 768.97,74.51 769.66,74.51 770.34,74.51 771.03,74.51 771.72,74.51 772.41,74.51 773.09,74.51 773.78,74.51 774.47,74.51 775.15,74.51 775.84,74.51 776.53,74.51 777.22,74.51 777.90,74.51 778.59,74.51 779.28,74.51 779.97,74.51 780.65,73.23 781.34,73.23 782.03,71.95 782.71,71.95 783.40,71.95 784.09,71.95 784.78,71.95 785.46,71.95 786.15,71.95 786.84,71.95 787.53,68.12 788.21,68.12 788.90,68.12 789.59,68.12 790.27,66.84 790.96,66.84 791.65,66.84 792.34,65.56 793.02,65.56 793.71,65.56 794.40,65.56 795.09,65.56 795.77,65.56 796.46,64.29 797.15,64.29 797.84,64.29 798.52,64.29 799.21,63.01 799.90,63.01 800.58,63.01 801.27,63.01 801.96,63.01 802.65,63.01 803.33,63.01 804.02,63.01 804.71,63.01 805.40,63.01 806.08,63.01 806.77,63.01 807.46,63.01 808.14,61.73 808.83,61.73 809.52,61.73 810.21,57.89 810.89,57.89 811.58,57.89 812.27,57.89 812.96,57.89 813.64,57.89 814.33,57.89 815.02,57.89 815.70,56.62 816.39,56.62 817.08,56.62 817.77,56.62 818.45,56.62 819.14,56.62 819.83,56.62 820.52,56.62 821.20,56.62 821.89,56.62 822.58,56.62 823.26,56.62 823.95,56.62 824.64,56.62 825.33,56.62 826.01,56.62 826.70,56.62 827.39,56.62 828.08,56.62 828.76,56.62 829.45,56.62 830.14,56.62 830.82,55.34 831.51,55.34 832.20,55.34 832.89,55.34 833.57,55.34 834.26,55.34 834.95,54.06 835.64,54.06 836.32,54.06 837.01,54.06 837.70,54.06 838.38,54.06 839.07,54.06 839.76,54.06 840.45,54.06 841.13,54.06 841.82,54.06 842.51,54.06 843.20,54.06 843.88,54.06 844.57,54.06 845.26,54.06 845.95,54.06 846.63,54.06 847.32,54.06 848.01,54.06 848.69,54.06 849.38,54.06 850.07,54.06 850.76,54.06 851.44,54.06 852.13,54.06 852.82,54.06 853.51,54.06 854.19,54.06 854.88,54.06 855.57,54.06 856.25,52.78 856.94,52.78 857.63,52.78 858.32,51.50 859.00,50.23 859.69,50.23 860.38,48.95 861.07,48.95 861.75,48.95 862.44,48.95 863.13,48.95 863.81,48.95 864.50,48.95 865.19,48.95 865.88,48.95 866.56,48.95 867.25,47.67 867.94,47.67 868.63,47.67 869.31,47.67 870.00,47.67" fill="none" stroke="#ea580c" stroke-width="2"/>
<line x1="895" y1="148" x2="913" y2="148" stroke="#ea580c" stroke-width="3"/>
<text x="919" y="152" font-family="Arial" font-size="12">case5_concat</text>
<polyline points="70.00,548.72 70.69,546.17 71.37,544.89 72.06,542.33 72.75,539.77 73.44,537.22 74.12,534.66 74.81,530.83 75.50,529.55 76.19,526.99 76.87,525.71 77.56,521.88 78.25,521.88 78.93,520.60 79.62,518.05 80.31,515.49 81.00,512.93 81.68,511.65 82.37,511.65 83.06,510.38 83.75,507.82 84.43,505.26 85.12,503.98 85.81,503.98 86.49,501.43 87.18,498.87 87.87,497.59 88.56,496.32 89.24,493.76 89.93,491.20 90.62,489.92 91.31,489.92 91.99,489.92 92.68,486.09 93.37,482.26 94.05,482.26 94.74,482.26 95.43,482.26 96.12,482.26 96.80,479.70 97.49,478.42 98.18,478.42 98.87,477.14 99.55,477.14 100.24,477.14 100.93,474.59 101.62,474.59 102.30,473.31 102.99,470.75 103.68,469.47 104.36,468.20 105.05,468.20 105.74,468.20 106.43,468.20 107.11,466.92 107.80,466.92 108.49,465.64 109.18,464.36 109.86,461.80 110.55,460.53 111.24,457.97 111.92,457.97 112.61,457.97 113.30,457.97 113.99,455.41 114.67,454.14 115.36,450.30 116.05,450.30 116.74,450.30 117.42,450.30 118.11,450.30 118.80,450.30 119.48,449.02 120.17,446.47 120.86,446.47 121.55,445.19 122.23,445.19 122.92,445.19 123.61,443.91 124.30,442.63 124.98,441.35 125.67,441.35 126.36,440.08 127.04,440.08 127.73,440.08 128.42,438.80 129.11,438.80 129.79,437.52 130.48,437.52 131.17,437.52 131.86,432.41 132.54,431.13 133.23,429.85 133.92,429.85 134.60,429.85 135.29,427.29 135.98,427.29 136.67,426.02 137.35,426.02 138.04,424.74 138.73,420.90 139.42,419.62 140.10,418.35 140.79,418.35 141.48,417.07 142.16,417.07 142.85,417.07 143.54,415.79 144.23,414.51 144.91,414.51 145.60,414.51 146.29,411.95 146.98,408.12 147.66,408.12 148.35,406.84 149.04,406.84 149.73,406.84 150.41,404.29 151.10,403.01 151.79,403.01 152.47,403.01 153.16,403.01 153.85,403.01 154.54,403.01 155.22,401.73 155.91,401.73 156.60,401.73 157.29,401.73 157.97,400.45 158.66,399.17 159.35,399.17 160.03,399.17 160.72,399.17 161.41,397.89 162.10,396.62 162.78,396.62 163.47,396.62 164.16,396.62 164.85,396.62 165.53,396.62 166.22,395.34 166.91,394.06 167.59,394.06 168.28,391.50 168.97,391.50 169.66,391.50 170.34,391.50 171.03,391.50 171.72,391.50 172.41,390.23 173.09,387.67 173.78,386.39 174.47,385.11 175.15,385.11 175.84,378.72 176.53,378.72 177.22,378.72 177.90,378.72 178.59,378.72 179.28,377.44 179.97,377.44 180.65,377.44 181.34,374.89 182.03,374.89 182.71,374.89 183.40,371.05 184.09,371.05 184.78,371.05 185.46,369.77 186.15,369.77 186.84,369.77 187.53,367.22 188.21,367.22 188.90,365.94 189.59,364.66 190.27,364.66 190.96,364.66 191.65,364.66 192.34,364.66 193.02,362.11 193.71,362.11 194.40,362.11 195.09,360.83 195.77,360.83 196.46,360.83 197.15,359.55 197.84,359.55 198.52,356.99 199.21,354.44 199.90,354.44 200.58,354.44 201.27,354.44 201.96,354.44 202.65,353.16 203.33,353.16 204.02,353.16 204.71,353.16 205.40,353.16 206.08,353.16 206.77,350.60 207.46,350.60 208.14,350.60 208.83,350.60 209.52,349.32 210.21,348.05 210.89,348.05 211.58,346.77 212.27,346.77 212.96,346.77 213.64,346.77 214.33,345.49 215.02,345.49 215.70,345.49 216.39,345.49 217.08,345.49 217.77,345.49 218.45,345.49 219.14,345.49 219.83,344.21 220.52,342.93 221.20,342.93 221.89,340.38 222.58,340.38 223.26,340.38 223.95,340.38 224.64,340.38 225.33,340.38 226.01,340.38 226.70,340.38 227.39,339.10 228.08,339.10 228.76,339.10 229.45,339.10 230.14,339.10 230.82,339.10 231.51,339.10 232.20,339.10 232.89,337.82 233.57,337.82 234.26,336.54 234.95,336.54 235.64,336.54 236.32,332.71 237.01,332.71 237.70,332.71 238.38,332.71 239.07,332.71 239.76,332.71 240.45,332.71 241.13,332.71 241.82,332.71 242.51,332.71 243.20,332.71 243.88,331.43 244.57,330.15 245.26,330.15 245.95,330.15 246.63,328.87 247.32,328.87 248.01,328.87 248.69,327.59 249.38,327.59 250.07,327.59 250.76,327.59 251.44,327.59 252.13,327.59 252.82,327.59 253.51,327.59 254.19,327.59 254.88,326.32 255.57,326.32 256.25,325.04 256.94,325.04 257.63,325.04 258.32,325.04 259.00,325.04 259.69,325.04 260.38,323.76 261.07,322.48 261.75,322.48 262.44,322.48 263.13,322.48 263.81,319.92 264.50,319.92 265.19,318.65 265.88,318.65 266.56,318.65 267.25,318.65 267.94,318.65 268.63,318.65 269.31,318.65 270.00,318.65 270.69,318.65 271.37,317.37 272.06,317.37 272.75,316.09 273.44,316.09 274.12,316.09 274.81,316.09 275.50,316.09 276.19,316.09 276.87,316.09 277.56,314.81 278.25,314.81 278.93,313.53 279.62,313.53 280.31,313.53 281.00,312.26 281.68,312.26 282.37,312.26 283.06,312.26 283.75,310.98 284.43,310.98 285.12,310.98 285.81,310.98 286.49,310.98 287.18,310.98 287.87,310.98 288.56,310.98 289.24,310.98 289.93,310.98 290.62,310.98 291.31,310.98 291.99,310.98 292.68,310.98 293.37,309.70 294.05,308.42 294.74,307.14 295.43,307.14 296.12,304.59 296.80,304.59 297.49,304.59 298.18,304.59 298.87,304.59 299.55,304.59 300.24,304.59 300.93,303.31 301.62,302.03 302.30,302.03 302.99,302.03 303.68,302.03 304.36,302.03 305.05,302.03 305.74,302.03 306.43,302.03 307.11,300.75 307.80,300.75 308.49,300.75 309.18,300.75 309.86,298.20 310.55,298.20 311.24,298.20 311.92,298.20 312.61,296.92 313.30,296.92 313.99,295.64 314.67,294.36 315.36,294.36 316.05,294.36 316.74,294.36 317.42,294.36 318.11,294.36 318.80,294.36 319.48,293.08 320.17,293.08 320.86,293.08 321.55,291.80 322.23,291.80 322.92,291.80 323.61,290.53 324.30,290.53 324.98,290.53 325.67,290.53 326.36,290.53 327.04,289.25 327.73,287.97 328.42,287.97 329.11,287.97 329.79,287.97 330.48,287.97 331.17,287.97 331.86,287.97 332.54,287.97 333.23,287.97 333.92,287.97 334.60,287.97 335.29,286.69 335.98,286.69 336.67,286.69 337.35,285.41 338.04,284.14 338.73,284.14 339.42,282.86 340.10,282.86 340.79,281.58 341.48,281.58 342.16,280.30 342.85,280.30 343.54,280.30 344.23,280.30 344.91,280.30 345.60,280.30 346.29,280.30 346.98,280.30 347.66,280.30 348.35,280.30 349.04,279.02 349.73,279.02 350.41,279.02 351.10,279.02 351.79,276.47 352.47,275.19 353.16,275.19 353.85,275.19 354.54,275.19 355.22,275.19 355.91,275.19 356.60,275.19 357.29,273.91 357.97,273.91 358.66,273.91 359.35,273.91 360.03,273.91 360.72,273.91 361.41,273.91 362.10,273.91 362.78,271.35 363.47,271.35 364.16,271.35 364.85,270.08 365.53,270.08 366.22,268.80 366.91,268.80 367.59,268.80 368.28,268.80 368.97,268.80 369.66,267.52 370.34,266.24 371.03,266.24 371.72,266.24 372.41,266.24 373.09,266.24 373.78,266.24 374.47,266.24 375.15,266.24 375.84,266.24 376.53,266.24 377.22,266.24 377.90,263.68 378.59,263.68 379.28,262.41 379.97,262.41 380.65,262.41 381.34,261.13 382.03,261.13 382.71,261.13 383.40,259.85 384.09,259.85 384.78,259.85 385.46,258.57 386.15,258.57 386.84,258.57 387.53,257.29 388.21,257.29 388.90,257.29 389.59,257.29 390.27,256.02 390.96,256.02 391.65,256.02 392.34,254.74 393.02,254.74 393.71,254.74 394.40,252.18 395.09,252.18 395.77,252.18 396.46,252.18 397.15,252.18 397.84,250.90 398.52,250.90 399.21,250.90 399.90,250.90 400.58,250.90 401.27,250.90 401.96,250.90 402.65,250.90 403.33,250.90 404.02,250.90 404.71,250.90 405.40,250.90 406.08,250.90 406.77,250.90 407.46,250.90 408.14,250.90 408.83,250.90 409.52,250.90 410.21,250.90 410.89,250.90 411.58,250.90 412.27,249.62 412.96,249.62 413.64,249.62 414.33,247.07 415.02,247.07 415.70,247.07 416.39,247.07 417.08,247.07 417.77,247.07 418.45,247.07 419.14,245.79 419.83,245.79 420.52,245.79 421.20,245.79 421.89,245.79 422.58,245.79 423.26,244.51 423.95,244.51 424.64,244.51 425.33,244.51 426.01,243.23 426.70,243.23 427.39,243.23 428.08,243.23 428.76,243.23 429.45,240.68 430.14,240.68 430.82,239.40 431.51,239.40 432.20,239.40 432.89,238.12 433.57,238.12 434.26,238.12 434.95,238.12 435.64,238.12 436.32,238.12 437.01,238.12 437.70,238.12 438.38,238.12 439.07,236.84 439.76,236.84 440.45,236.84 441.13,236.84 441.82,236.84 442.51,235.56 443.20,235.56 443.88,234.29 444.57,234.29 445.26,234.29 445.95,234.29 446.63,231.73 447.32,231.73 448.01,231.73 448.69,231.73 449.38,231.73 450.07,231.73 450.76,231.73 451.44,230.45 452.13,227.89 452.82,226.62 453.51,226.62 454.19,225.34 454.88,224.06 455.57,224.06 456.25,222.78 456.94,222.78 457.63,222.78 458.32,222.78 459.00,222.78 459.69,222.78 460.38,221.50 461.07,220.23 461.75,220.23 462.44,220.23 463.13,220.23 463.81,220.23 464.50,220.23 465.19,220.23 465.88,218.95 466.56,218.95 467.25,218.95 467.94,218.95 468.63,217.67 469.31,217.67 470.00,217.67 470.69,216.39 471.37,216.39 472.06,216.39 472.75,216.39 473.44,216.39 474.12,213.83 474.81,213.83 475.50,213.83 476.19,212.56 476.87,212.56 477.56,211.28 478.25,211.28 478.93,211.28 479.62,211.28 480.31,211.28 481.00,211.28 481.68,211.28 482.37,211.28 483.06,211.28 483.75,210.00 484.43,208.72 485.12,207.44 485.81,206.17 486.49,204.89 487.18,204.89 487.87,204.89 488.56,204.89 489.24,204.89 489.93,204.89 490.62,204.89 491.31,204.89 491.99,204.89 492.68,203.61 493.37,202.33 494.05,202.33 494.74,202.33 495.43,202.33 496.12,202.33 496.80,202.33 497.49,202.33 498.18,202.33 498.87,201.05 499.55,199.77 500.24,199.77 500.93,198.50 501.62,198.50 502.30,197.22 502.99,197.22 503.68,195.94 504.36,195.94 505.05,195.94 505.74,195.94 506.43,195.94 507.11,194.66 507.80,194.66 508.49,193.38 509.18,192.11 509.86,192.11 510.55,192.11 511.24,192.11 511.92,188.27 512.61,186.99 513.30,186.99 513.99,186.99 514.67,185.71 515.36,185.71 516.05,185.71 516.74,185.71 517.42,185.71 518.11,185.71 518.80,185.71 519.48,183.16 520.17,183.16 520.86,183.16 521.55,183.16 522.23,183.16 522.92,181.88 523.61,180.60 524.30,180.60 524.98,180.60 525.67,180.60 526.36,180.60 527.04,180.60 527.73,180.60 528.42,180.60 529.11,180.60 529.79,180.60 530.48,180.60 531.17,180.60 531.86,180.60 532.54,180.60 533.23,180.60 533.92,180.60 534.60,179.32 535.29,179.32 535.98,179.32 536.67,179.32 537.35,178.05 538.04,178.05 538.73,178.05 539.42,178.05 540.10,178.05 540.79,178.05 541.48,178.05 542.16,176.77 542.85,175.49 543.54,175.49 544.23,174.21 544.91,174.21 545.60,174.21 546.29,174.21 546.98,174.21 547.66,172.93 548.35,172.93 549.04,172.93 549.73,172.93 550.41,171.65 551.10,171.65 551.79,171.65 552.47,171.65 553.16,171.65 553.85,171.65 554.54,171.65 555.22,171.65 555.91,171.65 556.60,171.65 557.29,170.38 557.97,170.38 558.66,170.38 559.35,170.38 560.03,169.10 560.72,167.82 561.41,167.82 562.10,167.82 562.78,167.82 563.47,167.82 564.16,167.82 564.85,167.82 565.53,167.82 566.22,167.82 566.91,167.82 567.59,167.82 568.28,166.54 568.97,166.54 569.66,166.54 570.34,165.26 571.03,165.26 571.72,165.26 572.41,165.26 573.09,165.26 573.78,165.26 574.47,165.26 575.15,165.26 575.84,165.26 576.53,165.26 577.22,165.26 577.90,163.98 578.59,163.98 579.28,163.98 579.97,162.71 580.65,162.71 581.34,162.71 582.03,162.71 582.71,162.71 583.40,162.71 584.09,162.71 584.78,162.71 585.46,162.71 586.15,162.71 586.84,162.71 587.53,162.71 588.21,162.71 588.90,162.71 589.59,162.71 590.27,161.43 590.96,161.43 591.65,161.43 592.34,160.15 593.02,160.15 593.71,160.15 594.40,160.15 595.09,160.15 595.77,160.15 596.46,160.15 597.15,160.15 597.84,160.15 598.52,160.15 599.21,158.87 599.90,158.87 600.58,158.87 601.27,158.87 601.96,157.59 602.65,157.59 603.33,157.59 604.02,157.59 604.71,157.59 605.40,156.32 606.08,156.32 606.77,156.32 607.46,155.04 608.14,155.04 608.83,155.04 609.52,155.04 610.21,155.04 610.89,155.04 611.58,155.04 612.27,155.04 612.96,153.76 613.64,152.48 614.33,152.48 615.02,152.48 615.70,152.48 616.39,152.48 617.08,152.48 617.77,152.48 618.45,152.48 619.14,152.48 619.83,152.48 620.52,152.48 621.20,152.48 621.89,152.48 622.58,152.48 623.26,152.48 623.95,152.48 624.64,152.48 625.33,152.48 626.01,152.48 626.70,152.48 627.39,152.48 628.08,151.20 628.76,151.20 629.45,149.92 630.14,149.92 630.82,149.92 631.51,149.92 632.20,149.92 632.89,149.92 633.57,149.92 634.26,149.92 634.95,149.92 635.64,149.92 636.32,149.92 637.01,149.92 637.70,148.65 638.38,148.65 639.07,148.65 639.76,147.37 640.45,147.37 641.13,147.37 641.82,147.37 642.51,147.37 643.20,147.37 643.88,147.37 644.57,146.09 645.26,146.09 645.95,146.09 646.63,146.09 647.32,146.09 648.01,146.09 648.69,146.09 649.38,144.81 650.07,144.81 650.76,144.81 651.44,144.81 652.13,144.81 652.82,144.81 653.51,143.53 654.19,143.53 654.88,143.53 655.57,143.53 656.25,142.26 656.94,142.26 657.63,142.26 658.32,142.26 659.00,142.26 659.69,142.26 660.38,142.26 661.07,142.26 661.75,142.26 662.44,142.26 663.13,142.26 663.81,142.26 664.50,142.26 665.19,140.98 665.88,140.98 666.56,139.70 667.25,139.70 667.94,139.70 668.63,137.14 669.31,137.14 670.00,137.14 670.69,137.14 671.37,137.14 672.06,137.14 672.75,135.86 673.44,133.31 674.12,133.31 674.81,132.03 675.50,132.03 676.19,130.75 676.87,130.75 677.56,129.47 678.25,129.47 678.93,129.47 679.62,128.20 680.31,128.20 681.00,128.20 681.68,128.20 682.37,128.20 683.06,128.20 683.75,128.20 684.43,128.20 685.12,128.20 685.81,128.20 686.49,126.92 687.18,126.92 687.87,126.92 688.56,126.92 689.24,126.92 689.93,126.92 690.62,126.92 691.31,125.64 691.99,125.64 692.68,125.64 693.37,125.64 694.05,125.64 694.74,124.36 695.43,124.36 696.12,124.36 696.80,124.36 697.49,124.36 698.18,120.53 698.87,120.53 699.55,120.53 700.24,120.53 700.93,120.53 701.62,120.53 702.30,120.53 702.99,120.53 703.68,120.53 704.36,120.53 705.05,120.53 705.74,120.53 706.43,120.53 707.11,119.25 707.80,119.25 708.49,116.69 709.18,116.69 709.86,116.69 710.55,116.69 711.24,116.69 711.92,116.69 712.61,116.69 713.30,116.69 713.99,116.69 714.67,116.69 715.36,114.14 716.05,114.14 716.74,114.14 717.42,114.14 718.11,114.14 718.80,114.14 719.48,112.86 720.17,112.86 720.86,112.86 721.55,112.86 722.23,112.86 722.92,111.58 723.61,111.58 724.30,111.58 724.98,111.58 725.67,111.58 726.36,111.58 727.04,111.58 727.73,111.58 728.42,111.58 729.11,111.58 729.79,111.58 730.48,111.58 731.17,111.58 731.86,111.58 732.54,111.58 733.23,111.58 733.92,111.58 734.60,111.58 735.29,111.58 735.98,111.58 736.67,111.58 737.35,111.58 738.04,111.58 738.73,111.58 739.42,110.30 740.10,110.30 740.79,110.30 741.48,109.02 742.16,107.74 742.85,107.74 743.54,107.74 744.23,107.74 744.91,107.74 745.60,107.74 746.29,106.47 746.98,106.47 747.66,105.19 748.35,105.19 749.04,103.91 749.73,103.91 750.41,103.91 751.10,103.91 751.79,102.63 752.47,102.63 753.16,101.35 753.85,101.35 754.54,101.35 755.22,101.35 755.91,101.35 756.60,101.35 757.29,101.35 757.97,101.35 758.66,101.35 759.35,101.35 760.03,101.35 760.72,101.35 761.41,101.35 762.10,101.35 762.78,101.35 763.47,101.35 764.16,100.08 764.85,100.08 765.53,100.08 766.22,98.80 766.91,96.24 767.59,96.24 768.28,96.24 768.97,96.24 769.66,96.24 770.34,96.24 771.03,96.24 771.72,96.24 772.41,96.24 773.09,96.24 773.78,96.24 774.47,96.24 775.15,96.24 775.84,96.24 776.53,96.24 777.22,96.24 777.90,96.24 778.59,96.24 779.28,96.24 779.97,96.24 780.65,96.24 781.34,96.24 782.03,94.96 782.71,94.96 783.40,94.96 784.09,94.96 784.78,94.96 785.46,94.96 786.15,93.68 786.84,93.68 787.53,91.13 788.21,91.13 788.90,91.13 789.59,91.13 790.27,91.13 790.96,89.85 791.65,89.85 792.34,89.85 793.02,89.85 793.71,89.85 794.40,89.85 795.09,89.85 795.77,89.85 796.46,88.57 797.15,88.57 797.84,88.57 798.52,87.29 799.21,87.29 799.90,87.29 800.58,87.29 801.27,87.29 801.96,87.29 802.65,87.29 803.33,87.29 804.02,87.29 804.71,87.29 805.40,83.46 806.08,83.46 806.77,83.46 807.46,83.46 808.14,83.46 808.83,83.46 809.52,83.46 810.21,80.90 810.89,80.90 811.58,80.90 812.27,80.90 812.96,80.90 813.64,80.90 814.33,80.90 815.02,80.90 815.70,80.90 816.39,78.35 817.08,78.35 817.77,78.35 818.45,78.35 819.14,78.35 819.83,78.35 820.52,78.35 821.20,78.35 821.89,78.35 822.58,78.35 823.26,78.35 823.95,78.35 824.64,78.35 825.33,77.07 826.01,75.79 826.70,75.79 827.39,75.79 828.08,75.79 828.76,74.51 829.45,74.51 830.14,74.51 830.82,74.51 831.51,74.51 832.20,74.51 832.89,74.51 833.57,74.51 834.26,74.51 834.95,74.51 835.64,73.23 836.32,73.23 837.01,73.23 837.70,73.23 838.38,73.23 839.07,73.23 839.76,73.23 840.45,71.95 841.13,71.95 841.82,71.95 842.51,71.95 843.20,71.95 843.88,71.95 844.57,71.95 845.26,71.95 845.95,71.95 846.63,71.95 847.32,71.95 848.01,71.95 848.69,70.68 849.38,70.68 850.07,70.68 850.76,70.68 851.44,70.68 852.13,70.68 852.82,70.68 853.51,70.68 854.19,70.68 854.88,70.68 855.57,68.12 856.25,68.12 856.94,68.12 857.63,68.12 858.32,66.84 859.00,66.84 859.69,66.84 860.38,65.56 861.07,65.56 861.75,65.56 862.44,65.56 863.13,65.56 863.81,64.29 864.50,64.29 865.19,64.29 865.88,64.29 866.56,64.29 867.25,63.01 867.94,63.01 868.63,63.01 869.31,63.01 870.00,61.73" fill="none" stroke="#0891b2" stroke-width="2"/>
<line x1="895" y1="170" x2="913" y2="170" stroke="#0891b2" stroke-width="3"/>
<text x="919" y="174" font-family="Arial" font-size="12">case6_weighted</text>
</svg>